%TF.GenerationSoftware,KiCad,Pcbnew,(7.0.0-0)*%
%TF.CreationDate,2024-02-07T17:04:35+03:00*%
%TF.ProjectId,germanium-power-src,6765726d-616e-4697-956d-2d706f776572,rev?*%
%TF.SameCoordinates,Original*%
%TF.FileFunction,Drillmap*%
%TF.FilePolarity,Positive*%
%FSLAX45Y45*%
G04 Gerber Fmt 4.5, Leading zero omitted, Abs format (unit mm)*
G04 Created by KiCad (PCBNEW (7.0.0-0)) date 2024-02-07 17:04:35*
%MOMM*%
%LPD*%
G01*
G04 APERTURE LIST*
%ADD10C,0.100000*%
%ADD11C,0.200000*%
G04 APERTURE END LIST*
D10*
X15900000Y-7250000D02*
X9900000Y-7250000D01*
X15800000Y-7550000D02*
G75*
G03*
X15800000Y-7550000I-200000J0D01*
G01*
X15900000Y-12350000D02*
X15900000Y-7250000D01*
X10400000Y-12050000D02*
G75*
G03*
X10400000Y-12050000I-200000J0D01*
G01*
X15800000Y-12050000D02*
G75*
G03*
X15800000Y-12050000I-200000J0D01*
G01*
X10400000Y-7550000D02*
G75*
G03*
X10400000Y-7550000I-200000J0D01*
G01*
X9900000Y-12350000D02*
X15900000Y-12350000D01*
X9900000Y-7250000D02*
X9900000Y-12350000D01*
D11*
X10142619Y-12648476D02*
X10142619Y-12448476D01*
X10142619Y-12448476D02*
X10190238Y-12448476D01*
X10190238Y-12448476D02*
X10218810Y-12458000D01*
X10218810Y-12458000D02*
X10237857Y-12477048D01*
X10237857Y-12477048D02*
X10247381Y-12496095D01*
X10247381Y-12496095D02*
X10256905Y-12534190D01*
X10256905Y-12534190D02*
X10256905Y-12562762D01*
X10256905Y-12562762D02*
X10247381Y-12600857D01*
X10247381Y-12600857D02*
X10237857Y-12619905D01*
X10237857Y-12619905D02*
X10218810Y-12638952D01*
X10218810Y-12638952D02*
X10190238Y-12648476D01*
X10190238Y-12648476D02*
X10142619Y-12648476D01*
X10342619Y-12648476D02*
X10342619Y-12515143D01*
X10342619Y-12553238D02*
X10352143Y-12534190D01*
X10352143Y-12534190D02*
X10361667Y-12524667D01*
X10361667Y-12524667D02*
X10380714Y-12515143D01*
X10380714Y-12515143D02*
X10399762Y-12515143D01*
X10466429Y-12648476D02*
X10466429Y-12515143D01*
X10466429Y-12448476D02*
X10456905Y-12458000D01*
X10456905Y-12458000D02*
X10466429Y-12467524D01*
X10466429Y-12467524D02*
X10475952Y-12458000D01*
X10475952Y-12458000D02*
X10466429Y-12448476D01*
X10466429Y-12448476D02*
X10466429Y-12467524D01*
X10590238Y-12648476D02*
X10571190Y-12638952D01*
X10571190Y-12638952D02*
X10561667Y-12619905D01*
X10561667Y-12619905D02*
X10561667Y-12448476D01*
X10695000Y-12648476D02*
X10675952Y-12638952D01*
X10675952Y-12638952D02*
X10666429Y-12619905D01*
X10666429Y-12619905D02*
X10666429Y-12448476D01*
X10891190Y-12648476D02*
X10891190Y-12448476D01*
X10891190Y-12448476D02*
X10957857Y-12591333D01*
X10957857Y-12591333D02*
X11024524Y-12448476D01*
X11024524Y-12448476D02*
X11024524Y-12648476D01*
X11205476Y-12648476D02*
X11205476Y-12543714D01*
X11205476Y-12543714D02*
X11195952Y-12524667D01*
X11195952Y-12524667D02*
X11176905Y-12515143D01*
X11176905Y-12515143D02*
X11138809Y-12515143D01*
X11138809Y-12515143D02*
X11119762Y-12524667D01*
X11205476Y-12638952D02*
X11186428Y-12648476D01*
X11186428Y-12648476D02*
X11138809Y-12648476D01*
X11138809Y-12648476D02*
X11119762Y-12638952D01*
X11119762Y-12638952D02*
X11110238Y-12619905D01*
X11110238Y-12619905D02*
X11110238Y-12600857D01*
X11110238Y-12600857D02*
X11119762Y-12581809D01*
X11119762Y-12581809D02*
X11138809Y-12572286D01*
X11138809Y-12572286D02*
X11186428Y-12572286D01*
X11186428Y-12572286D02*
X11205476Y-12562762D01*
X11300714Y-12515143D02*
X11300714Y-12715143D01*
X11300714Y-12524667D02*
X11319762Y-12515143D01*
X11319762Y-12515143D02*
X11357857Y-12515143D01*
X11357857Y-12515143D02*
X11376905Y-12524667D01*
X11376905Y-12524667D02*
X11386428Y-12534190D01*
X11386428Y-12534190D02*
X11395952Y-12553238D01*
X11395952Y-12553238D02*
X11395952Y-12610381D01*
X11395952Y-12610381D02*
X11386428Y-12629428D01*
X11386428Y-12629428D02*
X11376905Y-12638952D01*
X11376905Y-12638952D02*
X11357857Y-12648476D01*
X11357857Y-12648476D02*
X11319762Y-12648476D01*
X11319762Y-12648476D02*
X11300714Y-12638952D01*
X11481667Y-12629428D02*
X11491190Y-12638952D01*
X11491190Y-12638952D02*
X11481667Y-12648476D01*
X11481667Y-12648476D02*
X11472143Y-12638952D01*
X11472143Y-12638952D02*
X11481667Y-12629428D01*
X11481667Y-12629428D02*
X11481667Y-12648476D01*
X11481667Y-12524667D02*
X11491190Y-12534190D01*
X11491190Y-12534190D02*
X11481667Y-12543714D01*
X11481667Y-12543714D02*
X11472143Y-12534190D01*
X11472143Y-12534190D02*
X11481667Y-12524667D01*
X11481667Y-12524667D02*
X11481667Y-12543714D01*
M02*
