M48
; DRILL file {KiCad 8.0.0} date 2024-03-19T09:36:19+0300
; FORMAT={-:-/ absolute / inch / decimal}
; #@! TF.CreationDate,2024-03-19T09:36:19+03:00
; #@! TF.GenerationSoftware,Kicad,Pcbnew,8.0.0
; #@! TF.FileFunction,Plated,1,2,PTH
FMAT,2
INCH
; #@! TA.AperFunction,Plated,PTH,ComponentDrill
T1C0.0276
; #@! TA.AperFunction,Plated,PTH,ComponentDrill
T2C0.0315
; #@! TA.AperFunction,Plated,PTH,ComponentDrill
T3C0.0394
; #@! TA.AperFunction,Plated,PTH,ComponentDrill
T4C0.0433
; #@! TA.AperFunction,Plated,PTH,ComponentDrill
T5C0.0591
%
G90
G05
T1
X5.372Y-4.2913
X5.472Y-4.2165
X5.572Y-4.2913
T2
X4.5472Y-4.2291
X4.5472Y-4.3291
X4.5472Y-4.4291
X4.7409Y-4.1929
X4.7409Y-4.3307
X4.7409Y-4.4685
X5.1409Y-4.1929
X5.1409Y-4.3307
X5.1409Y-4.4685
T3
X4.311Y-4.2898
X4.311Y-4.3898
X5.3118Y-3.4449
X5.3425Y-3.7598
X5.4118Y-3.4449
X5.4921Y-3.7598
X5.5118Y-3.4449
X5.6693Y-3.4433
X5.6693Y-3.5433
T4
X5.374Y-3.248
X5.8465Y-3.248
X5.8465Y-3.4055
X5.8465Y-3.878
X5.8465Y-4.0157
X5.8465Y-4.4882
T5
X4.311Y-3.2874
X4.311Y-3.5236
X4.311Y-3.7598
X4.311Y-3.9961
X5.0984Y-3.2874
X5.0984Y-3.5236
X5.0984Y-3.7598
X5.0984Y-3.9961
M30
