%TF.GenerationSoftware,KiCad,Pcbnew,(7.0.0-0)*%
%TF.CreationDate,2024-02-07T17:04:35+03:00*%
%TF.ProjectId,germanium-power-src,6765726d-616e-4697-956d-2d706f776572,rev?*%
%TF.SameCoordinates,Original*%
%TF.FileFunction,Drillmap*%
%TF.FilePolarity,Positive*%
%FSLAX45Y45*%
G04 Gerber Fmt 4.5, Leading zero omitted, Abs format (unit mm)*
G04 Created by KiCad (PCBNEW (7.0.0-0)) date 2024-02-07 17:04:35*
%MOMM*%
%LPD*%
G01*
G04 APERTURE LIST*
%ADD10C,0.100000*%
%ADD11C,0.200000*%
%ADD12C,0.070000*%
%ADD13C,0.080000*%
G04 APERTURE END LIST*
D10*
X15900000Y-7250000D02*
X9900000Y-7250000D01*
X15800000Y-7550000D02*
G75*
G03*
X15800000Y-7550000I-200000J0D01*
G01*
X15900000Y-12350000D02*
X15900000Y-7250000D01*
X10400000Y-12050000D02*
G75*
G03*
X10400000Y-12050000I-200000J0D01*
G01*
X15800000Y-12050000D02*
G75*
G03*
X15800000Y-12050000I-200000J0D01*
G01*
X10400000Y-7550000D02*
G75*
G03*
X10400000Y-7550000I-200000J0D01*
G01*
X9900000Y-12350000D02*
X15900000Y-12350000D01*
X9900000Y-7250000D02*
X9900000Y-12350000D01*
D11*
D12*
X13610000Y-10865000D02*
X13680000Y-10935000D01*
X13680000Y-10865000D02*
X13610000Y-10935000D01*
X13864000Y-10675000D02*
X13934000Y-10745000D01*
X13934000Y-10675000D02*
X13864000Y-10745000D01*
X14118000Y-10865000D02*
X14188000Y-10935000D01*
X14188000Y-10865000D02*
X14118000Y-10935000D01*
D13*
X11590000Y-10742000D02*
G75*
G03*
X11590000Y-10742000I-40000J0D01*
G01*
X11590000Y-10996000D02*
G75*
G03*
X11590000Y-10996000I-40000J0D01*
G01*
X11590000Y-11250000D02*
G75*
G03*
X11590000Y-11250000I-40000J0D01*
G01*
X12082000Y-10650000D02*
G75*
G03*
X12082000Y-10650000I-40000J0D01*
G01*
X12082000Y-11000000D02*
G75*
G03*
X12082000Y-11000000I-40000J0D01*
G01*
X12082000Y-11350000D02*
G75*
G03*
X12082000Y-11350000I-40000J0D01*
G01*
X13098000Y-10650000D02*
G75*
G03*
X13098000Y-10650000I-40000J0D01*
G01*
X13098000Y-11000000D02*
G75*
G03*
X13098000Y-11000000I-40000J0D01*
G01*
X13098000Y-11350000D02*
G75*
G03*
X13098000Y-11350000I-40000J0D01*
G01*
X13690000Y-8250000D02*
G75*
G03*
X13690000Y-8250000I-40000J0D01*
G01*
X14890000Y-8250000D02*
G75*
G03*
X14890000Y-8250000I-40000J0D01*
G01*
X14890000Y-8650000D02*
G75*
G03*
X14890000Y-8650000I-40000J0D01*
G01*
X14890000Y-9850000D02*
G75*
G03*
X14890000Y-9850000I-40000J0D01*
G01*
X14890000Y-10200000D02*
G75*
G03*
X14890000Y-10200000I-40000J0D01*
G01*
X14890000Y-11400000D02*
G75*
G03*
X14890000Y-11400000I-40000J0D01*
G01*
D10*
X10950000Y-8300000D02*
X10950000Y-8400000D01*
X10900000Y-8350000D02*
X11000000Y-8350000D01*
X10950000Y-8900000D02*
X10950000Y-9000000D01*
X10900000Y-8950000D02*
X11000000Y-8950000D01*
X10950000Y-9500000D02*
X10950000Y-9600000D01*
X10900000Y-9550000D02*
X11000000Y-9550000D01*
X10950000Y-10100000D02*
X10950000Y-10200000D01*
X10900000Y-10150000D02*
X11000000Y-10150000D01*
X10950000Y-10846000D02*
X10950000Y-10946000D01*
X10900000Y-10896000D02*
X11000000Y-10896000D01*
X10950000Y-11100000D02*
X10950000Y-11200000D01*
X10900000Y-11150000D02*
X11000000Y-11150000D01*
X12950000Y-8300000D02*
X12950000Y-8400000D01*
X12900000Y-8350000D02*
X13000000Y-8350000D01*
X12950000Y-8900000D02*
X12950000Y-9000000D01*
X12900000Y-8950000D02*
X13000000Y-8950000D01*
X12950000Y-9500000D02*
X12950000Y-9600000D01*
X12900000Y-9550000D02*
X13000000Y-9550000D01*
X12950000Y-10100000D02*
X12950000Y-10200000D01*
X12900000Y-10150000D02*
X13000000Y-10150000D01*
X13492000Y-8700000D02*
X13492000Y-8800000D01*
X13442000Y-8750000D02*
X13542000Y-8750000D01*
X13570000Y-9500000D02*
X13570000Y-9600000D01*
X13520000Y-9550000D02*
X13620000Y-9550000D01*
X13746000Y-8700000D02*
X13746000Y-8800000D01*
X13696000Y-8750000D02*
X13796000Y-8750000D01*
X13950000Y-9500000D02*
X13950000Y-9600000D01*
X13900000Y-9550000D02*
X14000000Y-9550000D01*
X14000000Y-8700000D02*
X14000000Y-8800000D01*
X13950000Y-8750000D02*
X14050000Y-8750000D01*
X14400000Y-8696000D02*
X14400000Y-8796000D01*
X14350000Y-8746000D02*
X14450000Y-8746000D01*
X14400000Y-8950000D02*
X14400000Y-9050000D01*
X14350000Y-9000000D02*
X14450000Y-9000000D01*
D11*
X10142619Y-12648476D02*
X10142619Y-12448476D01*
X10142619Y-12448476D02*
X10190238Y-12448476D01*
X10190238Y-12448476D02*
X10218810Y-12458000D01*
X10218810Y-12458000D02*
X10237857Y-12477048D01*
X10237857Y-12477048D02*
X10247381Y-12496095D01*
X10247381Y-12496095D02*
X10256905Y-12534190D01*
X10256905Y-12534190D02*
X10256905Y-12562762D01*
X10256905Y-12562762D02*
X10247381Y-12600857D01*
X10247381Y-12600857D02*
X10237857Y-12619905D01*
X10237857Y-12619905D02*
X10218810Y-12638952D01*
X10218810Y-12638952D02*
X10190238Y-12648476D01*
X10190238Y-12648476D02*
X10142619Y-12648476D01*
X10342619Y-12648476D02*
X10342619Y-12515143D01*
X10342619Y-12553238D02*
X10352143Y-12534190D01*
X10352143Y-12534190D02*
X10361667Y-12524667D01*
X10361667Y-12524667D02*
X10380714Y-12515143D01*
X10380714Y-12515143D02*
X10399762Y-12515143D01*
X10466429Y-12648476D02*
X10466429Y-12515143D01*
X10466429Y-12448476D02*
X10456905Y-12458000D01*
X10456905Y-12458000D02*
X10466429Y-12467524D01*
X10466429Y-12467524D02*
X10475952Y-12458000D01*
X10475952Y-12458000D02*
X10466429Y-12448476D01*
X10466429Y-12448476D02*
X10466429Y-12467524D01*
X10590238Y-12648476D02*
X10571190Y-12638952D01*
X10571190Y-12638952D02*
X10561667Y-12619905D01*
X10561667Y-12619905D02*
X10561667Y-12448476D01*
X10695000Y-12648476D02*
X10675952Y-12638952D01*
X10675952Y-12638952D02*
X10666429Y-12619905D01*
X10666429Y-12619905D02*
X10666429Y-12448476D01*
X10891190Y-12648476D02*
X10891190Y-12448476D01*
X10891190Y-12448476D02*
X10957857Y-12591333D01*
X10957857Y-12591333D02*
X11024524Y-12448476D01*
X11024524Y-12448476D02*
X11024524Y-12648476D01*
X11205476Y-12648476D02*
X11205476Y-12543714D01*
X11205476Y-12543714D02*
X11195952Y-12524667D01*
X11195952Y-12524667D02*
X11176905Y-12515143D01*
X11176905Y-12515143D02*
X11138809Y-12515143D01*
X11138809Y-12515143D02*
X11119762Y-12524667D01*
X11205476Y-12638952D02*
X11186428Y-12648476D01*
X11186428Y-12648476D02*
X11138809Y-12648476D01*
X11138809Y-12648476D02*
X11119762Y-12638952D01*
X11119762Y-12638952D02*
X11110238Y-12619905D01*
X11110238Y-12619905D02*
X11110238Y-12600857D01*
X11110238Y-12600857D02*
X11119762Y-12581809D01*
X11119762Y-12581809D02*
X11138809Y-12572286D01*
X11138809Y-12572286D02*
X11186428Y-12572286D01*
X11186428Y-12572286D02*
X11205476Y-12562762D01*
X11300714Y-12515143D02*
X11300714Y-12715143D01*
X11300714Y-12524667D02*
X11319762Y-12515143D01*
X11319762Y-12515143D02*
X11357857Y-12515143D01*
X11357857Y-12515143D02*
X11376905Y-12524667D01*
X11376905Y-12524667D02*
X11386428Y-12534190D01*
X11386428Y-12534190D02*
X11395952Y-12553238D01*
X11395952Y-12553238D02*
X11395952Y-12610381D01*
X11395952Y-12610381D02*
X11386428Y-12629428D01*
X11386428Y-12629428D02*
X11376905Y-12638952D01*
X11376905Y-12638952D02*
X11357857Y-12648476D01*
X11357857Y-12648476D02*
X11319762Y-12648476D01*
X11319762Y-12648476D02*
X11300714Y-12638952D01*
X11481667Y-12629428D02*
X11491190Y-12638952D01*
X11491190Y-12638952D02*
X11481667Y-12648476D01*
X11481667Y-12648476D02*
X11472143Y-12638952D01*
X11472143Y-12638952D02*
X11481667Y-12629428D01*
X11481667Y-12629428D02*
X11481667Y-12648476D01*
X11481667Y-12524667D02*
X11491190Y-12534190D01*
X11491190Y-12534190D02*
X11481667Y-12543714D01*
X11481667Y-12543714D02*
X11472143Y-12534190D01*
X11472143Y-12534190D02*
X11481667Y-12524667D01*
X11481667Y-12524667D02*
X11481667Y-12543714D01*
D12*
X9825000Y-12960000D02*
X9895000Y-13030000D01*
X9895000Y-12960000D02*
X9825000Y-13030000D01*
D11*
X10180714Y-12868476D02*
X10199762Y-12868476D01*
X10199762Y-12868476D02*
X10218810Y-12878000D01*
X10218810Y-12878000D02*
X10228333Y-12887524D01*
X10228333Y-12887524D02*
X10237857Y-12906571D01*
X10237857Y-12906571D02*
X10247381Y-12944667D01*
X10247381Y-12944667D02*
X10247381Y-12992286D01*
X10247381Y-12992286D02*
X10237857Y-13030381D01*
X10237857Y-13030381D02*
X10228333Y-13049428D01*
X10228333Y-13049428D02*
X10218810Y-13058952D01*
X10218810Y-13058952D02*
X10199762Y-13068476D01*
X10199762Y-13068476D02*
X10180714Y-13068476D01*
X10180714Y-13068476D02*
X10161667Y-13058952D01*
X10161667Y-13058952D02*
X10152143Y-13049428D01*
X10152143Y-13049428D02*
X10142619Y-13030381D01*
X10142619Y-13030381D02*
X10133095Y-12992286D01*
X10133095Y-12992286D02*
X10133095Y-12944667D01*
X10133095Y-12944667D02*
X10142619Y-12906571D01*
X10142619Y-12906571D02*
X10152143Y-12887524D01*
X10152143Y-12887524D02*
X10161667Y-12878000D01*
X10161667Y-12878000D02*
X10180714Y-12868476D01*
X10333095Y-13049428D02*
X10342619Y-13058952D01*
X10342619Y-13058952D02*
X10333095Y-13068476D01*
X10333095Y-13068476D02*
X10323571Y-13058952D01*
X10323571Y-13058952D02*
X10333095Y-13049428D01*
X10333095Y-13049428D02*
X10333095Y-13068476D01*
X10409286Y-12868476D02*
X10542619Y-12868476D01*
X10542619Y-12868476D02*
X10456905Y-13068476D01*
X10656905Y-12868476D02*
X10675952Y-12868476D01*
X10675952Y-12868476D02*
X10695000Y-12878000D01*
X10695000Y-12878000D02*
X10704524Y-12887524D01*
X10704524Y-12887524D02*
X10714048Y-12906571D01*
X10714048Y-12906571D02*
X10723571Y-12944667D01*
X10723571Y-12944667D02*
X10723571Y-12992286D01*
X10723571Y-12992286D02*
X10714048Y-13030381D01*
X10714048Y-13030381D02*
X10704524Y-13049428D01*
X10704524Y-13049428D02*
X10695000Y-13058952D01*
X10695000Y-13058952D02*
X10675952Y-13068476D01*
X10675952Y-13068476D02*
X10656905Y-13068476D01*
X10656905Y-13068476D02*
X10637857Y-13058952D01*
X10637857Y-13058952D02*
X10628333Y-13049428D01*
X10628333Y-13049428D02*
X10618810Y-13030381D01*
X10618810Y-13030381D02*
X10609286Y-12992286D01*
X10609286Y-12992286D02*
X10609286Y-12944667D01*
X10609286Y-12944667D02*
X10618810Y-12906571D01*
X10618810Y-12906571D02*
X10628333Y-12887524D01*
X10628333Y-12887524D02*
X10637857Y-12878000D01*
X10637857Y-12878000D02*
X10656905Y-12868476D01*
X10847381Y-12868476D02*
X10866429Y-12868476D01*
X10866429Y-12868476D02*
X10885476Y-12878000D01*
X10885476Y-12878000D02*
X10895000Y-12887524D01*
X10895000Y-12887524D02*
X10904524Y-12906571D01*
X10904524Y-12906571D02*
X10914048Y-12944667D01*
X10914048Y-12944667D02*
X10914048Y-12992286D01*
X10914048Y-12992286D02*
X10904524Y-13030381D01*
X10904524Y-13030381D02*
X10895000Y-13049428D01*
X10895000Y-13049428D02*
X10885476Y-13058952D01*
X10885476Y-13058952D02*
X10866429Y-13068476D01*
X10866429Y-13068476D02*
X10847381Y-13068476D01*
X10847381Y-13068476D02*
X10828333Y-13058952D01*
X10828333Y-13058952D02*
X10818810Y-13049428D01*
X10818810Y-13049428D02*
X10809286Y-13030381D01*
X10809286Y-13030381D02*
X10799762Y-12992286D01*
X10799762Y-12992286D02*
X10799762Y-12944667D01*
X10799762Y-12944667D02*
X10809286Y-12906571D01*
X10809286Y-12906571D02*
X10818810Y-12887524D01*
X10818810Y-12887524D02*
X10828333Y-12878000D01*
X10828333Y-12878000D02*
X10847381Y-12868476D01*
X10999762Y-13068476D02*
X10999762Y-12935143D01*
X10999762Y-12954190D02*
X11009286Y-12944667D01*
X11009286Y-12944667D02*
X11028333Y-12935143D01*
X11028333Y-12935143D02*
X11056905Y-12935143D01*
X11056905Y-12935143D02*
X11075952Y-12944667D01*
X11075952Y-12944667D02*
X11085476Y-12963714D01*
X11085476Y-12963714D02*
X11085476Y-13068476D01*
X11085476Y-12963714D02*
X11095000Y-12944667D01*
X11095000Y-12944667D02*
X11114048Y-12935143D01*
X11114048Y-12935143D02*
X11142619Y-12935143D01*
X11142619Y-12935143D02*
X11161667Y-12944667D01*
X11161667Y-12944667D02*
X11171191Y-12963714D01*
X11171191Y-12963714D02*
X11171191Y-13068476D01*
X11266429Y-13068476D02*
X11266429Y-12935143D01*
X11266429Y-12954190D02*
X11275952Y-12944667D01*
X11275952Y-12944667D02*
X11295000Y-12935143D01*
X11295000Y-12935143D02*
X11323571Y-12935143D01*
X11323571Y-12935143D02*
X11342619Y-12944667D01*
X11342619Y-12944667D02*
X11352143Y-12963714D01*
X11352143Y-12963714D02*
X11352143Y-13068476D01*
X11352143Y-12963714D02*
X11361667Y-12944667D01*
X11361667Y-12944667D02*
X11380714Y-12935143D01*
X11380714Y-12935143D02*
X11409286Y-12935143D01*
X11409286Y-12935143D02*
X11428333Y-12944667D01*
X11428333Y-12944667D02*
X11437857Y-12963714D01*
X11437857Y-12963714D02*
X11437857Y-13068476D01*
X11795952Y-12858952D02*
X11624524Y-13116095D01*
X12020714Y-12868476D02*
X12039762Y-12868476D01*
X12039762Y-12868476D02*
X12058810Y-12878000D01*
X12058810Y-12878000D02*
X12068333Y-12887524D01*
X12068333Y-12887524D02*
X12077857Y-12906571D01*
X12077857Y-12906571D02*
X12087381Y-12944667D01*
X12087381Y-12944667D02*
X12087381Y-12992286D01*
X12087381Y-12992286D02*
X12077857Y-13030381D01*
X12077857Y-13030381D02*
X12068333Y-13049428D01*
X12068333Y-13049428D02*
X12058810Y-13058952D01*
X12058810Y-13058952D02*
X12039762Y-13068476D01*
X12039762Y-13068476D02*
X12020714Y-13068476D01*
X12020714Y-13068476D02*
X12001667Y-13058952D01*
X12001667Y-13058952D02*
X11992143Y-13049428D01*
X11992143Y-13049428D02*
X11982619Y-13030381D01*
X11982619Y-13030381D02*
X11973095Y-12992286D01*
X11973095Y-12992286D02*
X11973095Y-12944667D01*
X11973095Y-12944667D02*
X11982619Y-12906571D01*
X11982619Y-12906571D02*
X11992143Y-12887524D01*
X11992143Y-12887524D02*
X12001667Y-12878000D01*
X12001667Y-12878000D02*
X12020714Y-12868476D01*
X12173095Y-13049428D02*
X12182619Y-13058952D01*
X12182619Y-13058952D02*
X12173095Y-13068476D01*
X12173095Y-13068476D02*
X12163571Y-13058952D01*
X12163571Y-13058952D02*
X12173095Y-13049428D01*
X12173095Y-13049428D02*
X12173095Y-13068476D01*
X12306429Y-12868476D02*
X12325476Y-12868476D01*
X12325476Y-12868476D02*
X12344524Y-12878000D01*
X12344524Y-12878000D02*
X12354048Y-12887524D01*
X12354048Y-12887524D02*
X12363571Y-12906571D01*
X12363571Y-12906571D02*
X12373095Y-12944667D01*
X12373095Y-12944667D02*
X12373095Y-12992286D01*
X12373095Y-12992286D02*
X12363571Y-13030381D01*
X12363571Y-13030381D02*
X12354048Y-13049428D01*
X12354048Y-13049428D02*
X12344524Y-13058952D01*
X12344524Y-13058952D02*
X12325476Y-13068476D01*
X12325476Y-13068476D02*
X12306429Y-13068476D01*
X12306429Y-13068476D02*
X12287381Y-13058952D01*
X12287381Y-13058952D02*
X12277857Y-13049428D01*
X12277857Y-13049428D02*
X12268333Y-13030381D01*
X12268333Y-13030381D02*
X12258810Y-12992286D01*
X12258810Y-12992286D02*
X12258810Y-12944667D01*
X12258810Y-12944667D02*
X12268333Y-12906571D01*
X12268333Y-12906571D02*
X12277857Y-12887524D01*
X12277857Y-12887524D02*
X12287381Y-12878000D01*
X12287381Y-12878000D02*
X12306429Y-12868476D01*
X12449286Y-12887524D02*
X12458810Y-12878000D01*
X12458810Y-12878000D02*
X12477857Y-12868476D01*
X12477857Y-12868476D02*
X12525476Y-12868476D01*
X12525476Y-12868476D02*
X12544524Y-12878000D01*
X12544524Y-12878000D02*
X12554048Y-12887524D01*
X12554048Y-12887524D02*
X12563571Y-12906571D01*
X12563571Y-12906571D02*
X12563571Y-12925619D01*
X12563571Y-12925619D02*
X12554048Y-12954190D01*
X12554048Y-12954190D02*
X12439762Y-13068476D01*
X12439762Y-13068476D02*
X12563571Y-13068476D01*
X12630238Y-12868476D02*
X12763571Y-12868476D01*
X12763571Y-12868476D02*
X12677857Y-13068476D01*
X12925476Y-12868476D02*
X12887381Y-12868476D01*
X12887381Y-12868476D02*
X12868333Y-12878000D01*
X12868333Y-12878000D02*
X12858810Y-12887524D01*
X12858810Y-12887524D02*
X12839762Y-12916095D01*
X12839762Y-12916095D02*
X12830238Y-12954190D01*
X12830238Y-12954190D02*
X12830238Y-13030381D01*
X12830238Y-13030381D02*
X12839762Y-13049428D01*
X12839762Y-13049428D02*
X12849286Y-13058952D01*
X12849286Y-13058952D02*
X12868333Y-13068476D01*
X12868333Y-13068476D02*
X12906429Y-13068476D01*
X12906429Y-13068476D02*
X12925476Y-13058952D01*
X12925476Y-13058952D02*
X12935000Y-13049428D01*
X12935000Y-13049428D02*
X12944524Y-13030381D01*
X12944524Y-13030381D02*
X12944524Y-12982762D01*
X12944524Y-12982762D02*
X12935000Y-12963714D01*
X12935000Y-12963714D02*
X12925476Y-12954190D01*
X12925476Y-12954190D02*
X12906429Y-12944667D01*
X12906429Y-12944667D02*
X12868333Y-12944667D01*
X12868333Y-12944667D02*
X12849286Y-12954190D01*
X12849286Y-12954190D02*
X12839762Y-12963714D01*
X12839762Y-12963714D02*
X12830238Y-12982762D01*
X13020714Y-12868476D02*
X13020714Y-12906571D01*
X13096905Y-12868476D02*
X13096905Y-12906571D01*
X13359762Y-13144667D02*
X13350238Y-13135143D01*
X13350238Y-13135143D02*
X13331191Y-13106571D01*
X13331191Y-13106571D02*
X13321667Y-13087524D01*
X13321667Y-13087524D02*
X13312143Y-13058952D01*
X13312143Y-13058952D02*
X13302619Y-13011333D01*
X13302619Y-13011333D02*
X13302619Y-12973238D01*
X13302619Y-12973238D02*
X13312143Y-12925619D01*
X13312143Y-12925619D02*
X13321667Y-12897048D01*
X13321667Y-12897048D02*
X13331191Y-12878000D01*
X13331191Y-12878000D02*
X13350238Y-12849428D01*
X13350238Y-12849428D02*
X13359762Y-12839905D01*
X13416905Y-12868476D02*
X13540714Y-12868476D01*
X13540714Y-12868476D02*
X13474048Y-12944667D01*
X13474048Y-12944667D02*
X13502619Y-12944667D01*
X13502619Y-12944667D02*
X13521667Y-12954190D01*
X13521667Y-12954190D02*
X13531191Y-12963714D01*
X13531191Y-12963714D02*
X13540714Y-12982762D01*
X13540714Y-12982762D02*
X13540714Y-13030381D01*
X13540714Y-13030381D02*
X13531191Y-13049428D01*
X13531191Y-13049428D02*
X13521667Y-13058952D01*
X13521667Y-13058952D02*
X13502619Y-13068476D01*
X13502619Y-13068476D02*
X13445476Y-13068476D01*
X13445476Y-13068476D02*
X13426429Y-13058952D01*
X13426429Y-13058952D02*
X13416905Y-13049428D01*
X13746429Y-13068476D02*
X13746429Y-12868476D01*
X13832143Y-13068476D02*
X13832143Y-12963714D01*
X13832143Y-12963714D02*
X13822619Y-12944667D01*
X13822619Y-12944667D02*
X13803572Y-12935143D01*
X13803572Y-12935143D02*
X13775000Y-12935143D01*
X13775000Y-12935143D02*
X13755952Y-12944667D01*
X13755952Y-12944667D02*
X13746429Y-12954190D01*
X13955952Y-13068476D02*
X13936905Y-13058952D01*
X13936905Y-13058952D02*
X13927381Y-13049428D01*
X13927381Y-13049428D02*
X13917857Y-13030381D01*
X13917857Y-13030381D02*
X13917857Y-12973238D01*
X13917857Y-12973238D02*
X13927381Y-12954190D01*
X13927381Y-12954190D02*
X13936905Y-12944667D01*
X13936905Y-12944667D02*
X13955952Y-12935143D01*
X13955952Y-12935143D02*
X13984524Y-12935143D01*
X13984524Y-12935143D02*
X14003572Y-12944667D01*
X14003572Y-12944667D02*
X14013095Y-12954190D01*
X14013095Y-12954190D02*
X14022619Y-12973238D01*
X14022619Y-12973238D02*
X14022619Y-13030381D01*
X14022619Y-13030381D02*
X14013095Y-13049428D01*
X14013095Y-13049428D02*
X14003572Y-13058952D01*
X14003572Y-13058952D02*
X13984524Y-13068476D01*
X13984524Y-13068476D02*
X13955952Y-13068476D01*
X14136905Y-13068476D02*
X14117857Y-13058952D01*
X14117857Y-13058952D02*
X14108333Y-13039905D01*
X14108333Y-13039905D02*
X14108333Y-12868476D01*
X14289286Y-13058952D02*
X14270238Y-13068476D01*
X14270238Y-13068476D02*
X14232143Y-13068476D01*
X14232143Y-13068476D02*
X14213095Y-13058952D01*
X14213095Y-13058952D02*
X14203572Y-13039905D01*
X14203572Y-13039905D02*
X14203572Y-12963714D01*
X14203572Y-12963714D02*
X14213095Y-12944667D01*
X14213095Y-12944667D02*
X14232143Y-12935143D01*
X14232143Y-12935143D02*
X14270238Y-12935143D01*
X14270238Y-12935143D02*
X14289286Y-12944667D01*
X14289286Y-12944667D02*
X14298810Y-12963714D01*
X14298810Y-12963714D02*
X14298810Y-12982762D01*
X14298810Y-12982762D02*
X14203572Y-13001809D01*
X14375000Y-13058952D02*
X14394048Y-13068476D01*
X14394048Y-13068476D02*
X14432143Y-13068476D01*
X14432143Y-13068476D02*
X14451191Y-13058952D01*
X14451191Y-13058952D02*
X14460714Y-13039905D01*
X14460714Y-13039905D02*
X14460714Y-13030381D01*
X14460714Y-13030381D02*
X14451191Y-13011333D01*
X14451191Y-13011333D02*
X14432143Y-13001809D01*
X14432143Y-13001809D02*
X14403572Y-13001809D01*
X14403572Y-13001809D02*
X14384524Y-12992286D01*
X14384524Y-12992286D02*
X14375000Y-12973238D01*
X14375000Y-12973238D02*
X14375000Y-12963714D01*
X14375000Y-12963714D02*
X14384524Y-12944667D01*
X14384524Y-12944667D02*
X14403572Y-12935143D01*
X14403572Y-12935143D02*
X14432143Y-12935143D01*
X14432143Y-12935143D02*
X14451191Y-12944667D01*
X14527381Y-13144667D02*
X14536905Y-13135143D01*
X14536905Y-13135143D02*
X14555953Y-13106571D01*
X14555953Y-13106571D02*
X14565476Y-13087524D01*
X14565476Y-13087524D02*
X14575000Y-13058952D01*
X14575000Y-13058952D02*
X14584524Y-13011333D01*
X14584524Y-13011333D02*
X14584524Y-12973238D01*
X14584524Y-12973238D02*
X14575000Y-12925619D01*
X14575000Y-12925619D02*
X14565476Y-12897048D01*
X14565476Y-12897048D02*
X14555953Y-12878000D01*
X14555953Y-12878000D02*
X14536905Y-12849428D01*
X14536905Y-12849428D02*
X14527381Y-12839905D01*
D13*
X9895000Y-13259000D02*
G75*
G03*
X9895000Y-13259000I-40000J0D01*
G01*
D11*
X10180714Y-13132476D02*
X10199762Y-13132476D01*
X10199762Y-13132476D02*
X10218810Y-13142000D01*
X10218810Y-13142000D02*
X10228333Y-13151524D01*
X10228333Y-13151524D02*
X10237857Y-13170571D01*
X10237857Y-13170571D02*
X10247381Y-13208667D01*
X10247381Y-13208667D02*
X10247381Y-13256286D01*
X10247381Y-13256286D02*
X10237857Y-13294381D01*
X10237857Y-13294381D02*
X10228333Y-13313428D01*
X10228333Y-13313428D02*
X10218810Y-13322952D01*
X10218810Y-13322952D02*
X10199762Y-13332476D01*
X10199762Y-13332476D02*
X10180714Y-13332476D01*
X10180714Y-13332476D02*
X10161667Y-13322952D01*
X10161667Y-13322952D02*
X10152143Y-13313428D01*
X10152143Y-13313428D02*
X10142619Y-13294381D01*
X10142619Y-13294381D02*
X10133095Y-13256286D01*
X10133095Y-13256286D02*
X10133095Y-13208667D01*
X10133095Y-13208667D02*
X10142619Y-13170571D01*
X10142619Y-13170571D02*
X10152143Y-13151524D01*
X10152143Y-13151524D02*
X10161667Y-13142000D01*
X10161667Y-13142000D02*
X10180714Y-13132476D01*
X10333095Y-13313428D02*
X10342619Y-13322952D01*
X10342619Y-13322952D02*
X10333095Y-13332476D01*
X10333095Y-13332476D02*
X10323571Y-13322952D01*
X10323571Y-13322952D02*
X10333095Y-13313428D01*
X10333095Y-13313428D02*
X10333095Y-13332476D01*
X10456905Y-13218190D02*
X10437857Y-13208667D01*
X10437857Y-13208667D02*
X10428333Y-13199143D01*
X10428333Y-13199143D02*
X10418810Y-13180095D01*
X10418810Y-13180095D02*
X10418810Y-13170571D01*
X10418810Y-13170571D02*
X10428333Y-13151524D01*
X10428333Y-13151524D02*
X10437857Y-13142000D01*
X10437857Y-13142000D02*
X10456905Y-13132476D01*
X10456905Y-13132476D02*
X10495000Y-13132476D01*
X10495000Y-13132476D02*
X10514048Y-13142000D01*
X10514048Y-13142000D02*
X10523571Y-13151524D01*
X10523571Y-13151524D02*
X10533095Y-13170571D01*
X10533095Y-13170571D02*
X10533095Y-13180095D01*
X10533095Y-13180095D02*
X10523571Y-13199143D01*
X10523571Y-13199143D02*
X10514048Y-13208667D01*
X10514048Y-13208667D02*
X10495000Y-13218190D01*
X10495000Y-13218190D02*
X10456905Y-13218190D01*
X10456905Y-13218190D02*
X10437857Y-13227714D01*
X10437857Y-13227714D02*
X10428333Y-13237238D01*
X10428333Y-13237238D02*
X10418810Y-13256286D01*
X10418810Y-13256286D02*
X10418810Y-13294381D01*
X10418810Y-13294381D02*
X10428333Y-13313428D01*
X10428333Y-13313428D02*
X10437857Y-13322952D01*
X10437857Y-13322952D02*
X10456905Y-13332476D01*
X10456905Y-13332476D02*
X10495000Y-13332476D01*
X10495000Y-13332476D02*
X10514048Y-13322952D01*
X10514048Y-13322952D02*
X10523571Y-13313428D01*
X10523571Y-13313428D02*
X10533095Y-13294381D01*
X10533095Y-13294381D02*
X10533095Y-13256286D01*
X10533095Y-13256286D02*
X10523571Y-13237238D01*
X10523571Y-13237238D02*
X10514048Y-13227714D01*
X10514048Y-13227714D02*
X10495000Y-13218190D01*
X10656905Y-13132476D02*
X10675952Y-13132476D01*
X10675952Y-13132476D02*
X10695000Y-13142000D01*
X10695000Y-13142000D02*
X10704524Y-13151524D01*
X10704524Y-13151524D02*
X10714048Y-13170571D01*
X10714048Y-13170571D02*
X10723571Y-13208667D01*
X10723571Y-13208667D02*
X10723571Y-13256286D01*
X10723571Y-13256286D02*
X10714048Y-13294381D01*
X10714048Y-13294381D02*
X10704524Y-13313428D01*
X10704524Y-13313428D02*
X10695000Y-13322952D01*
X10695000Y-13322952D02*
X10675952Y-13332476D01*
X10675952Y-13332476D02*
X10656905Y-13332476D01*
X10656905Y-13332476D02*
X10637857Y-13322952D01*
X10637857Y-13322952D02*
X10628333Y-13313428D01*
X10628333Y-13313428D02*
X10618810Y-13294381D01*
X10618810Y-13294381D02*
X10609286Y-13256286D01*
X10609286Y-13256286D02*
X10609286Y-13208667D01*
X10609286Y-13208667D02*
X10618810Y-13170571D01*
X10618810Y-13170571D02*
X10628333Y-13151524D01*
X10628333Y-13151524D02*
X10637857Y-13142000D01*
X10637857Y-13142000D02*
X10656905Y-13132476D01*
X10847381Y-13132476D02*
X10866429Y-13132476D01*
X10866429Y-13132476D02*
X10885476Y-13142000D01*
X10885476Y-13142000D02*
X10895000Y-13151524D01*
X10895000Y-13151524D02*
X10904524Y-13170571D01*
X10904524Y-13170571D02*
X10914048Y-13208667D01*
X10914048Y-13208667D02*
X10914048Y-13256286D01*
X10914048Y-13256286D02*
X10904524Y-13294381D01*
X10904524Y-13294381D02*
X10895000Y-13313428D01*
X10895000Y-13313428D02*
X10885476Y-13322952D01*
X10885476Y-13322952D02*
X10866429Y-13332476D01*
X10866429Y-13332476D02*
X10847381Y-13332476D01*
X10847381Y-13332476D02*
X10828333Y-13322952D01*
X10828333Y-13322952D02*
X10818810Y-13313428D01*
X10818810Y-13313428D02*
X10809286Y-13294381D01*
X10809286Y-13294381D02*
X10799762Y-13256286D01*
X10799762Y-13256286D02*
X10799762Y-13208667D01*
X10799762Y-13208667D02*
X10809286Y-13170571D01*
X10809286Y-13170571D02*
X10818810Y-13151524D01*
X10818810Y-13151524D02*
X10828333Y-13142000D01*
X10828333Y-13142000D02*
X10847381Y-13132476D01*
X10999762Y-13332476D02*
X10999762Y-13199143D01*
X10999762Y-13218190D02*
X11009286Y-13208667D01*
X11009286Y-13208667D02*
X11028333Y-13199143D01*
X11028333Y-13199143D02*
X11056905Y-13199143D01*
X11056905Y-13199143D02*
X11075952Y-13208667D01*
X11075952Y-13208667D02*
X11085476Y-13227714D01*
X11085476Y-13227714D02*
X11085476Y-13332476D01*
X11085476Y-13227714D02*
X11095000Y-13208667D01*
X11095000Y-13208667D02*
X11114048Y-13199143D01*
X11114048Y-13199143D02*
X11142619Y-13199143D01*
X11142619Y-13199143D02*
X11161667Y-13208667D01*
X11161667Y-13208667D02*
X11171191Y-13227714D01*
X11171191Y-13227714D02*
X11171191Y-13332476D01*
X11266429Y-13332476D02*
X11266429Y-13199143D01*
X11266429Y-13218190D02*
X11275952Y-13208667D01*
X11275952Y-13208667D02*
X11295000Y-13199143D01*
X11295000Y-13199143D02*
X11323571Y-13199143D01*
X11323571Y-13199143D02*
X11342619Y-13208667D01*
X11342619Y-13208667D02*
X11352143Y-13227714D01*
X11352143Y-13227714D02*
X11352143Y-13332476D01*
X11352143Y-13227714D02*
X11361667Y-13208667D01*
X11361667Y-13208667D02*
X11380714Y-13199143D01*
X11380714Y-13199143D02*
X11409286Y-13199143D01*
X11409286Y-13199143D02*
X11428333Y-13208667D01*
X11428333Y-13208667D02*
X11437857Y-13227714D01*
X11437857Y-13227714D02*
X11437857Y-13332476D01*
X11795952Y-13122952D02*
X11624524Y-13380095D01*
X12020714Y-13132476D02*
X12039762Y-13132476D01*
X12039762Y-13132476D02*
X12058810Y-13142000D01*
X12058810Y-13142000D02*
X12068333Y-13151524D01*
X12068333Y-13151524D02*
X12077857Y-13170571D01*
X12077857Y-13170571D02*
X12087381Y-13208667D01*
X12087381Y-13208667D02*
X12087381Y-13256286D01*
X12087381Y-13256286D02*
X12077857Y-13294381D01*
X12077857Y-13294381D02*
X12068333Y-13313428D01*
X12068333Y-13313428D02*
X12058810Y-13322952D01*
X12058810Y-13322952D02*
X12039762Y-13332476D01*
X12039762Y-13332476D02*
X12020714Y-13332476D01*
X12020714Y-13332476D02*
X12001667Y-13322952D01*
X12001667Y-13322952D02*
X11992143Y-13313428D01*
X11992143Y-13313428D02*
X11982619Y-13294381D01*
X11982619Y-13294381D02*
X11973095Y-13256286D01*
X11973095Y-13256286D02*
X11973095Y-13208667D01*
X11973095Y-13208667D02*
X11982619Y-13170571D01*
X11982619Y-13170571D02*
X11992143Y-13151524D01*
X11992143Y-13151524D02*
X12001667Y-13142000D01*
X12001667Y-13142000D02*
X12020714Y-13132476D01*
X12173095Y-13313428D02*
X12182619Y-13322952D01*
X12182619Y-13322952D02*
X12173095Y-13332476D01*
X12173095Y-13332476D02*
X12163571Y-13322952D01*
X12163571Y-13322952D02*
X12173095Y-13313428D01*
X12173095Y-13313428D02*
X12173095Y-13332476D01*
X12306429Y-13132476D02*
X12325476Y-13132476D01*
X12325476Y-13132476D02*
X12344524Y-13142000D01*
X12344524Y-13142000D02*
X12354048Y-13151524D01*
X12354048Y-13151524D02*
X12363571Y-13170571D01*
X12363571Y-13170571D02*
X12373095Y-13208667D01*
X12373095Y-13208667D02*
X12373095Y-13256286D01*
X12373095Y-13256286D02*
X12363571Y-13294381D01*
X12363571Y-13294381D02*
X12354048Y-13313428D01*
X12354048Y-13313428D02*
X12344524Y-13322952D01*
X12344524Y-13322952D02*
X12325476Y-13332476D01*
X12325476Y-13332476D02*
X12306429Y-13332476D01*
X12306429Y-13332476D02*
X12287381Y-13322952D01*
X12287381Y-13322952D02*
X12277857Y-13313428D01*
X12277857Y-13313428D02*
X12268333Y-13294381D01*
X12268333Y-13294381D02*
X12258810Y-13256286D01*
X12258810Y-13256286D02*
X12258810Y-13208667D01*
X12258810Y-13208667D02*
X12268333Y-13170571D01*
X12268333Y-13170571D02*
X12277857Y-13151524D01*
X12277857Y-13151524D02*
X12287381Y-13142000D01*
X12287381Y-13142000D02*
X12306429Y-13132476D01*
X12439762Y-13132476D02*
X12563571Y-13132476D01*
X12563571Y-13132476D02*
X12496905Y-13208667D01*
X12496905Y-13208667D02*
X12525476Y-13208667D01*
X12525476Y-13208667D02*
X12544524Y-13218190D01*
X12544524Y-13218190D02*
X12554048Y-13227714D01*
X12554048Y-13227714D02*
X12563571Y-13246762D01*
X12563571Y-13246762D02*
X12563571Y-13294381D01*
X12563571Y-13294381D02*
X12554048Y-13313428D01*
X12554048Y-13313428D02*
X12544524Y-13322952D01*
X12544524Y-13322952D02*
X12525476Y-13332476D01*
X12525476Y-13332476D02*
X12468333Y-13332476D01*
X12468333Y-13332476D02*
X12449286Y-13322952D01*
X12449286Y-13322952D02*
X12439762Y-13313428D01*
X12754048Y-13332476D02*
X12639762Y-13332476D01*
X12696905Y-13332476D02*
X12696905Y-13132476D01*
X12696905Y-13132476D02*
X12677857Y-13161048D01*
X12677857Y-13161048D02*
X12658810Y-13180095D01*
X12658810Y-13180095D02*
X12639762Y-13189619D01*
X12935000Y-13132476D02*
X12839762Y-13132476D01*
X12839762Y-13132476D02*
X12830238Y-13227714D01*
X12830238Y-13227714D02*
X12839762Y-13218190D01*
X12839762Y-13218190D02*
X12858810Y-13208667D01*
X12858810Y-13208667D02*
X12906429Y-13208667D01*
X12906429Y-13208667D02*
X12925476Y-13218190D01*
X12925476Y-13218190D02*
X12935000Y-13227714D01*
X12935000Y-13227714D02*
X12944524Y-13246762D01*
X12944524Y-13246762D02*
X12944524Y-13294381D01*
X12944524Y-13294381D02*
X12935000Y-13313428D01*
X12935000Y-13313428D02*
X12925476Y-13322952D01*
X12925476Y-13322952D02*
X12906429Y-13332476D01*
X12906429Y-13332476D02*
X12858810Y-13332476D01*
X12858810Y-13332476D02*
X12839762Y-13322952D01*
X12839762Y-13322952D02*
X12830238Y-13313428D01*
X13020714Y-13132476D02*
X13020714Y-13170571D01*
X13096905Y-13132476D02*
X13096905Y-13170571D01*
X13359762Y-13408667D02*
X13350238Y-13399143D01*
X13350238Y-13399143D02*
X13331191Y-13370571D01*
X13331191Y-13370571D02*
X13321667Y-13351524D01*
X13321667Y-13351524D02*
X13312143Y-13322952D01*
X13312143Y-13322952D02*
X13302619Y-13275333D01*
X13302619Y-13275333D02*
X13302619Y-13237238D01*
X13302619Y-13237238D02*
X13312143Y-13189619D01*
X13312143Y-13189619D02*
X13321667Y-13161048D01*
X13321667Y-13161048D02*
X13331191Y-13142000D01*
X13331191Y-13142000D02*
X13350238Y-13113428D01*
X13350238Y-13113428D02*
X13359762Y-13103905D01*
X13540714Y-13332476D02*
X13426429Y-13332476D01*
X13483571Y-13332476D02*
X13483571Y-13132476D01*
X13483571Y-13132476D02*
X13464524Y-13161048D01*
X13464524Y-13161048D02*
X13445476Y-13180095D01*
X13445476Y-13180095D02*
X13426429Y-13189619D01*
X13721667Y-13132476D02*
X13626429Y-13132476D01*
X13626429Y-13132476D02*
X13616905Y-13227714D01*
X13616905Y-13227714D02*
X13626429Y-13218190D01*
X13626429Y-13218190D02*
X13645476Y-13208667D01*
X13645476Y-13208667D02*
X13693095Y-13208667D01*
X13693095Y-13208667D02*
X13712143Y-13218190D01*
X13712143Y-13218190D02*
X13721667Y-13227714D01*
X13721667Y-13227714D02*
X13731191Y-13246762D01*
X13731191Y-13246762D02*
X13731191Y-13294381D01*
X13731191Y-13294381D02*
X13721667Y-13313428D01*
X13721667Y-13313428D02*
X13712143Y-13322952D01*
X13712143Y-13322952D02*
X13693095Y-13332476D01*
X13693095Y-13332476D02*
X13645476Y-13332476D01*
X13645476Y-13332476D02*
X13626429Y-13322952D01*
X13626429Y-13322952D02*
X13616905Y-13313428D01*
X13936905Y-13332476D02*
X13936905Y-13132476D01*
X14022619Y-13332476D02*
X14022619Y-13227714D01*
X14022619Y-13227714D02*
X14013095Y-13208667D01*
X14013095Y-13208667D02*
X13994048Y-13199143D01*
X13994048Y-13199143D02*
X13965476Y-13199143D01*
X13965476Y-13199143D02*
X13946429Y-13208667D01*
X13946429Y-13208667D02*
X13936905Y-13218190D01*
X14146429Y-13332476D02*
X14127381Y-13322952D01*
X14127381Y-13322952D02*
X14117857Y-13313428D01*
X14117857Y-13313428D02*
X14108333Y-13294381D01*
X14108333Y-13294381D02*
X14108333Y-13237238D01*
X14108333Y-13237238D02*
X14117857Y-13218190D01*
X14117857Y-13218190D02*
X14127381Y-13208667D01*
X14127381Y-13208667D02*
X14146429Y-13199143D01*
X14146429Y-13199143D02*
X14175000Y-13199143D01*
X14175000Y-13199143D02*
X14194048Y-13208667D01*
X14194048Y-13208667D02*
X14203572Y-13218190D01*
X14203572Y-13218190D02*
X14213095Y-13237238D01*
X14213095Y-13237238D02*
X14213095Y-13294381D01*
X14213095Y-13294381D02*
X14203572Y-13313428D01*
X14203572Y-13313428D02*
X14194048Y-13322952D01*
X14194048Y-13322952D02*
X14175000Y-13332476D01*
X14175000Y-13332476D02*
X14146429Y-13332476D01*
X14327381Y-13332476D02*
X14308333Y-13322952D01*
X14308333Y-13322952D02*
X14298810Y-13303905D01*
X14298810Y-13303905D02*
X14298810Y-13132476D01*
X14479762Y-13322952D02*
X14460714Y-13332476D01*
X14460714Y-13332476D02*
X14422619Y-13332476D01*
X14422619Y-13332476D02*
X14403572Y-13322952D01*
X14403572Y-13322952D02*
X14394048Y-13303905D01*
X14394048Y-13303905D02*
X14394048Y-13227714D01*
X14394048Y-13227714D02*
X14403572Y-13208667D01*
X14403572Y-13208667D02*
X14422619Y-13199143D01*
X14422619Y-13199143D02*
X14460714Y-13199143D01*
X14460714Y-13199143D02*
X14479762Y-13208667D01*
X14479762Y-13208667D02*
X14489286Y-13227714D01*
X14489286Y-13227714D02*
X14489286Y-13246762D01*
X14489286Y-13246762D02*
X14394048Y-13265809D01*
X14565476Y-13322952D02*
X14584524Y-13332476D01*
X14584524Y-13332476D02*
X14622619Y-13332476D01*
X14622619Y-13332476D02*
X14641667Y-13322952D01*
X14641667Y-13322952D02*
X14651191Y-13303905D01*
X14651191Y-13303905D02*
X14651191Y-13294381D01*
X14651191Y-13294381D02*
X14641667Y-13275333D01*
X14641667Y-13275333D02*
X14622619Y-13265809D01*
X14622619Y-13265809D02*
X14594048Y-13265809D01*
X14594048Y-13265809D02*
X14575000Y-13256286D01*
X14575000Y-13256286D02*
X14565476Y-13237238D01*
X14565476Y-13237238D02*
X14565476Y-13227714D01*
X14565476Y-13227714D02*
X14575000Y-13208667D01*
X14575000Y-13208667D02*
X14594048Y-13199143D01*
X14594048Y-13199143D02*
X14622619Y-13199143D01*
X14622619Y-13199143D02*
X14641667Y-13208667D01*
X14717857Y-13408667D02*
X14727381Y-13399143D01*
X14727381Y-13399143D02*
X14746429Y-13370571D01*
X14746429Y-13370571D02*
X14755953Y-13351524D01*
X14755953Y-13351524D02*
X14765476Y-13322952D01*
X14765476Y-13322952D02*
X14775000Y-13275333D01*
X14775000Y-13275333D02*
X14775000Y-13237238D01*
X14775000Y-13237238D02*
X14765476Y-13189619D01*
X14765476Y-13189619D02*
X14755953Y-13161048D01*
X14755953Y-13161048D02*
X14746429Y-13142000D01*
X14746429Y-13142000D02*
X14727381Y-13113428D01*
X14727381Y-13113428D02*
X14717857Y-13103905D01*
D10*
X9845000Y-13473000D02*
X9845000Y-13573000D01*
X9795000Y-13523000D02*
X9895000Y-13523000D01*
D11*
X10247381Y-13596476D02*
X10133095Y-13596476D01*
X10190238Y-13596476D02*
X10190238Y-13396476D01*
X10190238Y-13396476D02*
X10171190Y-13425048D01*
X10171190Y-13425048D02*
X10152143Y-13444095D01*
X10152143Y-13444095D02*
X10133095Y-13453619D01*
X10333095Y-13577428D02*
X10342619Y-13586952D01*
X10342619Y-13586952D02*
X10333095Y-13596476D01*
X10333095Y-13596476D02*
X10323571Y-13586952D01*
X10323571Y-13586952D02*
X10333095Y-13577428D01*
X10333095Y-13577428D02*
X10333095Y-13596476D01*
X10466429Y-13396476D02*
X10485476Y-13396476D01*
X10485476Y-13396476D02*
X10504524Y-13406000D01*
X10504524Y-13406000D02*
X10514048Y-13415524D01*
X10514048Y-13415524D02*
X10523571Y-13434571D01*
X10523571Y-13434571D02*
X10533095Y-13472667D01*
X10533095Y-13472667D02*
X10533095Y-13520286D01*
X10533095Y-13520286D02*
X10523571Y-13558381D01*
X10523571Y-13558381D02*
X10514048Y-13577428D01*
X10514048Y-13577428D02*
X10504524Y-13586952D01*
X10504524Y-13586952D02*
X10485476Y-13596476D01*
X10485476Y-13596476D02*
X10466429Y-13596476D01*
X10466429Y-13596476D02*
X10447381Y-13586952D01*
X10447381Y-13586952D02*
X10437857Y-13577428D01*
X10437857Y-13577428D02*
X10428333Y-13558381D01*
X10428333Y-13558381D02*
X10418810Y-13520286D01*
X10418810Y-13520286D02*
X10418810Y-13472667D01*
X10418810Y-13472667D02*
X10428333Y-13434571D01*
X10428333Y-13434571D02*
X10437857Y-13415524D01*
X10437857Y-13415524D02*
X10447381Y-13406000D01*
X10447381Y-13406000D02*
X10466429Y-13396476D01*
X10656905Y-13396476D02*
X10675952Y-13396476D01*
X10675952Y-13396476D02*
X10695000Y-13406000D01*
X10695000Y-13406000D02*
X10704524Y-13415524D01*
X10704524Y-13415524D02*
X10714048Y-13434571D01*
X10714048Y-13434571D02*
X10723571Y-13472667D01*
X10723571Y-13472667D02*
X10723571Y-13520286D01*
X10723571Y-13520286D02*
X10714048Y-13558381D01*
X10714048Y-13558381D02*
X10704524Y-13577428D01*
X10704524Y-13577428D02*
X10695000Y-13586952D01*
X10695000Y-13586952D02*
X10675952Y-13596476D01*
X10675952Y-13596476D02*
X10656905Y-13596476D01*
X10656905Y-13596476D02*
X10637857Y-13586952D01*
X10637857Y-13586952D02*
X10628333Y-13577428D01*
X10628333Y-13577428D02*
X10618810Y-13558381D01*
X10618810Y-13558381D02*
X10609286Y-13520286D01*
X10609286Y-13520286D02*
X10609286Y-13472667D01*
X10609286Y-13472667D02*
X10618810Y-13434571D01*
X10618810Y-13434571D02*
X10628333Y-13415524D01*
X10628333Y-13415524D02*
X10637857Y-13406000D01*
X10637857Y-13406000D02*
X10656905Y-13396476D01*
X10847381Y-13396476D02*
X10866429Y-13396476D01*
X10866429Y-13396476D02*
X10885476Y-13406000D01*
X10885476Y-13406000D02*
X10895000Y-13415524D01*
X10895000Y-13415524D02*
X10904524Y-13434571D01*
X10904524Y-13434571D02*
X10914048Y-13472667D01*
X10914048Y-13472667D02*
X10914048Y-13520286D01*
X10914048Y-13520286D02*
X10904524Y-13558381D01*
X10904524Y-13558381D02*
X10895000Y-13577428D01*
X10895000Y-13577428D02*
X10885476Y-13586952D01*
X10885476Y-13586952D02*
X10866429Y-13596476D01*
X10866429Y-13596476D02*
X10847381Y-13596476D01*
X10847381Y-13596476D02*
X10828333Y-13586952D01*
X10828333Y-13586952D02*
X10818810Y-13577428D01*
X10818810Y-13577428D02*
X10809286Y-13558381D01*
X10809286Y-13558381D02*
X10799762Y-13520286D01*
X10799762Y-13520286D02*
X10799762Y-13472667D01*
X10799762Y-13472667D02*
X10809286Y-13434571D01*
X10809286Y-13434571D02*
X10818810Y-13415524D01*
X10818810Y-13415524D02*
X10828333Y-13406000D01*
X10828333Y-13406000D02*
X10847381Y-13396476D01*
X10999762Y-13596476D02*
X10999762Y-13463143D01*
X10999762Y-13482190D02*
X11009286Y-13472667D01*
X11009286Y-13472667D02*
X11028333Y-13463143D01*
X11028333Y-13463143D02*
X11056905Y-13463143D01*
X11056905Y-13463143D02*
X11075952Y-13472667D01*
X11075952Y-13472667D02*
X11085476Y-13491714D01*
X11085476Y-13491714D02*
X11085476Y-13596476D01*
X11085476Y-13491714D02*
X11095000Y-13472667D01*
X11095000Y-13472667D02*
X11114048Y-13463143D01*
X11114048Y-13463143D02*
X11142619Y-13463143D01*
X11142619Y-13463143D02*
X11161667Y-13472667D01*
X11161667Y-13472667D02*
X11171191Y-13491714D01*
X11171191Y-13491714D02*
X11171191Y-13596476D01*
X11266429Y-13596476D02*
X11266429Y-13463143D01*
X11266429Y-13482190D02*
X11275952Y-13472667D01*
X11275952Y-13472667D02*
X11295000Y-13463143D01*
X11295000Y-13463143D02*
X11323571Y-13463143D01*
X11323571Y-13463143D02*
X11342619Y-13472667D01*
X11342619Y-13472667D02*
X11352143Y-13491714D01*
X11352143Y-13491714D02*
X11352143Y-13596476D01*
X11352143Y-13491714D02*
X11361667Y-13472667D01*
X11361667Y-13472667D02*
X11380714Y-13463143D01*
X11380714Y-13463143D02*
X11409286Y-13463143D01*
X11409286Y-13463143D02*
X11428333Y-13472667D01*
X11428333Y-13472667D02*
X11437857Y-13491714D01*
X11437857Y-13491714D02*
X11437857Y-13596476D01*
X11795952Y-13386952D02*
X11624524Y-13644095D01*
X12020714Y-13396476D02*
X12039762Y-13396476D01*
X12039762Y-13396476D02*
X12058810Y-13406000D01*
X12058810Y-13406000D02*
X12068333Y-13415524D01*
X12068333Y-13415524D02*
X12077857Y-13434571D01*
X12077857Y-13434571D02*
X12087381Y-13472667D01*
X12087381Y-13472667D02*
X12087381Y-13520286D01*
X12087381Y-13520286D02*
X12077857Y-13558381D01*
X12077857Y-13558381D02*
X12068333Y-13577428D01*
X12068333Y-13577428D02*
X12058810Y-13586952D01*
X12058810Y-13586952D02*
X12039762Y-13596476D01*
X12039762Y-13596476D02*
X12020714Y-13596476D01*
X12020714Y-13596476D02*
X12001667Y-13586952D01*
X12001667Y-13586952D02*
X11992143Y-13577428D01*
X11992143Y-13577428D02*
X11982619Y-13558381D01*
X11982619Y-13558381D02*
X11973095Y-13520286D01*
X11973095Y-13520286D02*
X11973095Y-13472667D01*
X11973095Y-13472667D02*
X11982619Y-13434571D01*
X11982619Y-13434571D02*
X11992143Y-13415524D01*
X11992143Y-13415524D02*
X12001667Y-13406000D01*
X12001667Y-13406000D02*
X12020714Y-13396476D01*
X12173095Y-13577428D02*
X12182619Y-13586952D01*
X12182619Y-13586952D02*
X12173095Y-13596476D01*
X12173095Y-13596476D02*
X12163571Y-13586952D01*
X12163571Y-13586952D02*
X12173095Y-13577428D01*
X12173095Y-13577428D02*
X12173095Y-13596476D01*
X12306429Y-13396476D02*
X12325476Y-13396476D01*
X12325476Y-13396476D02*
X12344524Y-13406000D01*
X12344524Y-13406000D02*
X12354048Y-13415524D01*
X12354048Y-13415524D02*
X12363571Y-13434571D01*
X12363571Y-13434571D02*
X12373095Y-13472667D01*
X12373095Y-13472667D02*
X12373095Y-13520286D01*
X12373095Y-13520286D02*
X12363571Y-13558381D01*
X12363571Y-13558381D02*
X12354048Y-13577428D01*
X12354048Y-13577428D02*
X12344524Y-13586952D01*
X12344524Y-13586952D02*
X12325476Y-13596476D01*
X12325476Y-13596476D02*
X12306429Y-13596476D01*
X12306429Y-13596476D02*
X12287381Y-13586952D01*
X12287381Y-13586952D02*
X12277857Y-13577428D01*
X12277857Y-13577428D02*
X12268333Y-13558381D01*
X12268333Y-13558381D02*
X12258810Y-13520286D01*
X12258810Y-13520286D02*
X12258810Y-13472667D01*
X12258810Y-13472667D02*
X12268333Y-13434571D01*
X12268333Y-13434571D02*
X12277857Y-13415524D01*
X12277857Y-13415524D02*
X12287381Y-13406000D01*
X12287381Y-13406000D02*
X12306429Y-13396476D01*
X12439762Y-13396476D02*
X12563571Y-13396476D01*
X12563571Y-13396476D02*
X12496905Y-13472667D01*
X12496905Y-13472667D02*
X12525476Y-13472667D01*
X12525476Y-13472667D02*
X12544524Y-13482190D01*
X12544524Y-13482190D02*
X12554048Y-13491714D01*
X12554048Y-13491714D02*
X12563571Y-13510762D01*
X12563571Y-13510762D02*
X12563571Y-13558381D01*
X12563571Y-13558381D02*
X12554048Y-13577428D01*
X12554048Y-13577428D02*
X12544524Y-13586952D01*
X12544524Y-13586952D02*
X12525476Y-13596476D01*
X12525476Y-13596476D02*
X12468333Y-13596476D01*
X12468333Y-13596476D02*
X12449286Y-13586952D01*
X12449286Y-13586952D02*
X12439762Y-13577428D01*
X12658810Y-13596476D02*
X12696905Y-13596476D01*
X12696905Y-13596476D02*
X12715952Y-13586952D01*
X12715952Y-13586952D02*
X12725476Y-13577428D01*
X12725476Y-13577428D02*
X12744524Y-13548857D01*
X12744524Y-13548857D02*
X12754048Y-13510762D01*
X12754048Y-13510762D02*
X12754048Y-13434571D01*
X12754048Y-13434571D02*
X12744524Y-13415524D01*
X12744524Y-13415524D02*
X12735000Y-13406000D01*
X12735000Y-13406000D02*
X12715952Y-13396476D01*
X12715952Y-13396476D02*
X12677857Y-13396476D01*
X12677857Y-13396476D02*
X12658810Y-13406000D01*
X12658810Y-13406000D02*
X12649286Y-13415524D01*
X12649286Y-13415524D02*
X12639762Y-13434571D01*
X12639762Y-13434571D02*
X12639762Y-13482190D01*
X12639762Y-13482190D02*
X12649286Y-13501238D01*
X12649286Y-13501238D02*
X12658810Y-13510762D01*
X12658810Y-13510762D02*
X12677857Y-13520286D01*
X12677857Y-13520286D02*
X12715952Y-13520286D01*
X12715952Y-13520286D02*
X12735000Y-13510762D01*
X12735000Y-13510762D02*
X12744524Y-13501238D01*
X12744524Y-13501238D02*
X12754048Y-13482190D01*
X12925476Y-13463143D02*
X12925476Y-13596476D01*
X12877857Y-13386952D02*
X12830238Y-13529809D01*
X12830238Y-13529809D02*
X12954048Y-13529809D01*
X13020714Y-13396476D02*
X13020714Y-13434571D01*
X13096905Y-13396476D02*
X13096905Y-13434571D01*
X13359762Y-13672667D02*
X13350238Y-13663143D01*
X13350238Y-13663143D02*
X13331191Y-13634571D01*
X13331191Y-13634571D02*
X13321667Y-13615524D01*
X13321667Y-13615524D02*
X13312143Y-13586952D01*
X13312143Y-13586952D02*
X13302619Y-13539333D01*
X13302619Y-13539333D02*
X13302619Y-13501238D01*
X13302619Y-13501238D02*
X13312143Y-13453619D01*
X13312143Y-13453619D02*
X13321667Y-13425048D01*
X13321667Y-13425048D02*
X13331191Y-13406000D01*
X13331191Y-13406000D02*
X13350238Y-13377428D01*
X13350238Y-13377428D02*
X13359762Y-13367905D01*
X13540714Y-13596476D02*
X13426429Y-13596476D01*
X13483571Y-13596476D02*
X13483571Y-13396476D01*
X13483571Y-13396476D02*
X13464524Y-13425048D01*
X13464524Y-13425048D02*
X13445476Y-13444095D01*
X13445476Y-13444095D02*
X13426429Y-13453619D01*
X13607381Y-13396476D02*
X13740714Y-13396476D01*
X13740714Y-13396476D02*
X13655000Y-13596476D01*
X13936905Y-13596476D02*
X13936905Y-13396476D01*
X14022619Y-13596476D02*
X14022619Y-13491714D01*
X14022619Y-13491714D02*
X14013095Y-13472667D01*
X14013095Y-13472667D02*
X13994048Y-13463143D01*
X13994048Y-13463143D02*
X13965476Y-13463143D01*
X13965476Y-13463143D02*
X13946429Y-13472667D01*
X13946429Y-13472667D02*
X13936905Y-13482190D01*
X14146429Y-13596476D02*
X14127381Y-13586952D01*
X14127381Y-13586952D02*
X14117857Y-13577428D01*
X14117857Y-13577428D02*
X14108333Y-13558381D01*
X14108333Y-13558381D02*
X14108333Y-13501238D01*
X14108333Y-13501238D02*
X14117857Y-13482190D01*
X14117857Y-13482190D02*
X14127381Y-13472667D01*
X14127381Y-13472667D02*
X14146429Y-13463143D01*
X14146429Y-13463143D02*
X14175000Y-13463143D01*
X14175000Y-13463143D02*
X14194048Y-13472667D01*
X14194048Y-13472667D02*
X14203572Y-13482190D01*
X14203572Y-13482190D02*
X14213095Y-13501238D01*
X14213095Y-13501238D02*
X14213095Y-13558381D01*
X14213095Y-13558381D02*
X14203572Y-13577428D01*
X14203572Y-13577428D02*
X14194048Y-13586952D01*
X14194048Y-13586952D02*
X14175000Y-13596476D01*
X14175000Y-13596476D02*
X14146429Y-13596476D01*
X14327381Y-13596476D02*
X14308333Y-13586952D01*
X14308333Y-13586952D02*
X14298810Y-13567905D01*
X14298810Y-13567905D02*
X14298810Y-13396476D01*
X14479762Y-13586952D02*
X14460714Y-13596476D01*
X14460714Y-13596476D02*
X14422619Y-13596476D01*
X14422619Y-13596476D02*
X14403572Y-13586952D01*
X14403572Y-13586952D02*
X14394048Y-13567905D01*
X14394048Y-13567905D02*
X14394048Y-13491714D01*
X14394048Y-13491714D02*
X14403572Y-13472667D01*
X14403572Y-13472667D02*
X14422619Y-13463143D01*
X14422619Y-13463143D02*
X14460714Y-13463143D01*
X14460714Y-13463143D02*
X14479762Y-13472667D01*
X14479762Y-13472667D02*
X14489286Y-13491714D01*
X14489286Y-13491714D02*
X14489286Y-13510762D01*
X14489286Y-13510762D02*
X14394048Y-13529809D01*
X14565476Y-13586952D02*
X14584524Y-13596476D01*
X14584524Y-13596476D02*
X14622619Y-13596476D01*
X14622619Y-13596476D02*
X14641667Y-13586952D01*
X14641667Y-13586952D02*
X14651191Y-13567905D01*
X14651191Y-13567905D02*
X14651191Y-13558381D01*
X14651191Y-13558381D02*
X14641667Y-13539333D01*
X14641667Y-13539333D02*
X14622619Y-13529809D01*
X14622619Y-13529809D02*
X14594048Y-13529809D01*
X14594048Y-13529809D02*
X14575000Y-13520286D01*
X14575000Y-13520286D02*
X14565476Y-13501238D01*
X14565476Y-13501238D02*
X14565476Y-13491714D01*
X14565476Y-13491714D02*
X14575000Y-13472667D01*
X14575000Y-13472667D02*
X14594048Y-13463143D01*
X14594048Y-13463143D02*
X14622619Y-13463143D01*
X14622619Y-13463143D02*
X14641667Y-13472667D01*
X14717857Y-13672667D02*
X14727381Y-13663143D01*
X14727381Y-13663143D02*
X14746429Y-13634571D01*
X14746429Y-13634571D02*
X14755953Y-13615524D01*
X14755953Y-13615524D02*
X14765476Y-13586952D01*
X14765476Y-13586952D02*
X14775000Y-13539333D01*
X14775000Y-13539333D02*
X14775000Y-13501238D01*
X14775000Y-13501238D02*
X14765476Y-13453619D01*
X14765476Y-13453619D02*
X14755953Y-13425048D01*
X14755953Y-13425048D02*
X14746429Y-13406000D01*
X14746429Y-13406000D02*
X14727381Y-13377428D01*
X14727381Y-13377428D02*
X14717857Y-13367905D01*
M02*
