M48
; DRILL file {KiCad 8.0.0} date 2024-03-21T13:17:35+0300
; FORMAT={-:-/ absolute / inch / decimal}
; #@! TF.CreationDate,2024-03-21T13:17:35+03:00
; #@! TF.GenerationSoftware,Kicad,Pcbnew,8.0.0
; #@! TF.FileFunction,Plated,1,2,PTH
FMAT,2
INCH
; #@! TA.AperFunction,Plated,PTH,ComponentDrill
T1C0.0276
; #@! TA.AperFunction,Plated,PTH,ComponentDrill
T2C0.0315
; #@! TA.AperFunction,Plated,PTH,ComponentDrill
T3C0.0394
; #@! TA.AperFunction,Plated,PTH,ComponentDrill
T4C0.0472
; #@! TA.AperFunction,Plated,PTH,ComponentDrill
T5C0.0591
%
G90
G05
T1
X5.3524Y-4.5866
X5.4524Y-4.5118
X5.5524Y-4.5866
T2
X4.0157Y-3.2252
X4.0157Y-3.6252
X4.0157Y-3.7339
X4.0157Y-4.1339
X4.5276Y-3.3071
X4.5276Y-3.7402
X4.5276Y-4.1732
X4.5276Y-4.6063
X4.8228Y-3.3071
X4.8228Y-3.7402
X4.8228Y-4.1732
X4.8228Y-4.6063
X5.2724Y-4.1339
X5.3528Y-3.7992
X5.4528Y-3.7992
X5.5528Y-3.7992
X5.6724Y-4.1339
X5.7677Y-3.7598
X6.063Y-3.7598
T3
X4.0157Y-4.2898
X4.0157Y-4.3898
X5.3315Y-2.9921
X5.374Y-3.4646
X5.4315Y-2.9921
X5.5118Y-3.4646
X5.5315Y-2.9921
X5.7465Y-2.9921
X5.8359Y-3.4646
X5.8465Y-2.9921
X5.9855Y-3.4646
X6.1417Y-4.0535
X6.1417Y-4.1535
T4
X5.8465Y-4.2441
X5.8465Y-4.7441
T5
X4.248Y-3.5236
X4.25Y-4.3898
X4.2559Y-3.9567
X4.2736Y-3.0906
X5.1142Y-3.5236
X5.1161Y-4.3898
X5.122Y-3.9567
X5.1398Y-3.0906
M30
