%TF.GenerationSoftware,KiCad,Pcbnew,(7.0.0-0)*%
%TF.CreationDate,2024-02-07T17:04:43+03:00*%
%TF.ProjectId,germanium-power-src,6765726d-616e-4697-956d-2d706f776572,rev?*%
%TF.SameCoordinates,Original*%
%TF.FileFunction,Legend,Top*%
%TF.FilePolarity,Positive*%
%FSLAX46Y46*%
G04 Gerber Fmt 4.6, Leading zero omitted, Abs format (unit mm)*
G04 Created by KiCad (PCBNEW (7.0.0-0)) date 2024-02-07 17:04:43*
%MOMM*%
%LPD*%
G01*
G04 APERTURE LIST*
%ADD10C,0.300000*%
%ADD11C,0.150000*%
%ADD12C,0.100000*%
%ADD13C,0.120000*%
G04 APERTURE END LIST*
D10*
X113357142Y-119473571D02*
X113357142Y-117973571D01*
X113357142Y-117973571D02*
X113928571Y-117973571D01*
X113928571Y-117973571D02*
X114071428Y-118045000D01*
X114071428Y-118045000D02*
X114142857Y-118116428D01*
X114142857Y-118116428D02*
X114214285Y-118259285D01*
X114214285Y-118259285D02*
X114214285Y-118473571D01*
X114214285Y-118473571D02*
X114142857Y-118616428D01*
X114142857Y-118616428D02*
X114071428Y-118687857D01*
X114071428Y-118687857D02*
X113928571Y-118759285D01*
X113928571Y-118759285D02*
X113357142Y-118759285D01*
X115428571Y-119402142D02*
X115285714Y-119473571D01*
X115285714Y-119473571D02*
X115000000Y-119473571D01*
X115000000Y-119473571D02*
X114857142Y-119402142D01*
X114857142Y-119402142D02*
X114785714Y-119259285D01*
X114785714Y-119259285D02*
X114785714Y-118687857D01*
X114785714Y-118687857D02*
X114857142Y-118545000D01*
X114857142Y-118545000D02*
X115000000Y-118473571D01*
X115000000Y-118473571D02*
X115285714Y-118473571D01*
X115285714Y-118473571D02*
X115428571Y-118545000D01*
X115428571Y-118545000D02*
X115500000Y-118687857D01*
X115500000Y-118687857D02*
X115500000Y-118830714D01*
X115500000Y-118830714D02*
X114785714Y-118973571D01*
X116142856Y-119473571D02*
X116142856Y-118473571D01*
X116142856Y-118473571D02*
X116714285Y-118473571D01*
X117071428Y-118473571D02*
X117428571Y-119473571D01*
X117785714Y-118473571D02*
X117428571Y-119473571D01*
X117428571Y-119473571D02*
X117285714Y-119830714D01*
X117285714Y-119830714D02*
X117214285Y-119902142D01*
X117214285Y-119902142D02*
X117071428Y-119973571D01*
X118928571Y-119473571D02*
X118928571Y-118473571D01*
X118928571Y-118473571D02*
X118714285Y-118473571D01*
X118714285Y-118473571D02*
X118571428Y-118545000D01*
X118571428Y-118545000D02*
X118500000Y-118687857D01*
X118500000Y-118687857D02*
X118428571Y-119259285D01*
X118428571Y-119259285D02*
X118357142Y-119402142D01*
X118357142Y-119402142D02*
X118214285Y-119473571D01*
X119928571Y-119045000D02*
X119571428Y-119473571D01*
X120214285Y-119473571D02*
X120214285Y-118473571D01*
X120214285Y-118473571D02*
X119785714Y-118473571D01*
X119785714Y-118473571D02*
X119642856Y-118545000D01*
X119642856Y-118545000D02*
X119571428Y-118687857D01*
X119571428Y-118687857D02*
X119571428Y-118830714D01*
X119571428Y-118830714D02*
X119642856Y-118973571D01*
X119642856Y-118973571D02*
X119785714Y-119045000D01*
X119785714Y-119045000D02*
X120214285Y-119045000D01*
X120714285Y-118473571D02*
X121428570Y-118473571D01*
X121071428Y-118473571D02*
X121071428Y-119473571D01*
X122142856Y-119473571D02*
X121999999Y-119402142D01*
X121999999Y-119402142D02*
X121928570Y-119330714D01*
X121928570Y-119330714D02*
X121857142Y-119187857D01*
X121857142Y-119187857D02*
X121857142Y-118759285D01*
X121857142Y-118759285D02*
X121928570Y-118616428D01*
X121928570Y-118616428D02*
X121999999Y-118545000D01*
X121999999Y-118545000D02*
X122142856Y-118473571D01*
X122142856Y-118473571D02*
X122357142Y-118473571D01*
X122357142Y-118473571D02*
X122499999Y-118545000D01*
X122499999Y-118545000D02*
X122571428Y-118616428D01*
X122571428Y-118616428D02*
X122642856Y-118759285D01*
X122642856Y-118759285D02*
X122642856Y-119187857D01*
X122642856Y-119187857D02*
X122571428Y-119330714D01*
X122571428Y-119330714D02*
X122499999Y-119402142D01*
X122499999Y-119402142D02*
X122357142Y-119473571D01*
X122357142Y-119473571D02*
X122142856Y-119473571D01*
X123285713Y-118473571D02*
X123285713Y-119973571D01*
X123285713Y-118545000D02*
X123428571Y-118473571D01*
X123428571Y-118473571D02*
X123714285Y-118473571D01*
X123714285Y-118473571D02*
X123857142Y-118545000D01*
X123857142Y-118545000D02*
X123928571Y-118616428D01*
X123928571Y-118616428D02*
X123999999Y-118759285D01*
X123999999Y-118759285D02*
X123999999Y-119187857D01*
X123999999Y-119187857D02*
X123928571Y-119330714D01*
X123928571Y-119330714D02*
X123857142Y-119402142D01*
X123857142Y-119402142D02*
X123714285Y-119473571D01*
X123714285Y-119473571D02*
X123428571Y-119473571D01*
X123428571Y-119473571D02*
X123285713Y-119402142D01*
X125542856Y-118973571D02*
X126185714Y-118973571D01*
X125542856Y-118473571D02*
X125542856Y-119473571D01*
X126185714Y-118473571D02*
X126185714Y-119473571D01*
X127542857Y-119473571D02*
X127542857Y-118687857D01*
X127542857Y-118687857D02*
X127471428Y-118545000D01*
X127471428Y-118545000D02*
X127328571Y-118473571D01*
X127328571Y-118473571D02*
X127042857Y-118473571D01*
X127042857Y-118473571D02*
X126899999Y-118545000D01*
X127542857Y-119402142D02*
X127399999Y-119473571D01*
X127399999Y-119473571D02*
X127042857Y-119473571D01*
X127042857Y-119473571D02*
X126899999Y-119402142D01*
X126899999Y-119402142D02*
X126828571Y-119259285D01*
X126828571Y-119259285D02*
X126828571Y-119116428D01*
X126828571Y-119116428D02*
X126899999Y-118973571D01*
X126899999Y-118973571D02*
X127042857Y-118902142D01*
X127042857Y-118902142D02*
X127399999Y-118902142D01*
X127399999Y-118902142D02*
X127542857Y-118830714D01*
X128257142Y-119473571D02*
X128257142Y-118473571D01*
X128257142Y-118473571D02*
X128900000Y-118473571D01*
X128900000Y-118473571D02*
X128900000Y-119473571D01*
X129614285Y-118473571D02*
X129614285Y-119973571D01*
X129614285Y-118545000D02*
X129757143Y-118473571D01*
X129757143Y-118473571D02*
X130042857Y-118473571D01*
X130042857Y-118473571D02*
X130185714Y-118545000D01*
X130185714Y-118545000D02*
X130257143Y-118616428D01*
X130257143Y-118616428D02*
X130328571Y-118759285D01*
X130328571Y-118759285D02*
X130328571Y-119187857D01*
X130328571Y-119187857D02*
X130257143Y-119330714D01*
X130257143Y-119330714D02*
X130185714Y-119402142D01*
X130185714Y-119402142D02*
X130042857Y-119473571D01*
X130042857Y-119473571D02*
X129757143Y-119473571D01*
X129757143Y-119473571D02*
X129614285Y-119402142D01*
X131257143Y-119045000D02*
X130900000Y-119473571D01*
X131542857Y-119473571D02*
X131542857Y-118473571D01*
X131542857Y-118473571D02*
X131114286Y-118473571D01*
X131114286Y-118473571D02*
X130971428Y-118545000D01*
X130971428Y-118545000D02*
X130900000Y-118687857D01*
X130900000Y-118687857D02*
X130900000Y-118830714D01*
X130900000Y-118830714D02*
X130971428Y-118973571D01*
X130971428Y-118973571D02*
X131114286Y-119045000D01*
X131114286Y-119045000D02*
X131542857Y-119045000D01*
X132685714Y-118973571D02*
X132185714Y-119473571D01*
X132757142Y-119045000D02*
X132185714Y-118473571D01*
X132757142Y-118473571D02*
X132757142Y-119473571D01*
X133328571Y-119473571D02*
X132828571Y-118973571D01*
X133328571Y-118473571D02*
X132757142Y-119045000D01*
X134542857Y-119402142D02*
X134400000Y-119473571D01*
X134400000Y-119473571D02*
X134114286Y-119473571D01*
X134114286Y-119473571D02*
X133971428Y-119402142D01*
X133971428Y-119402142D02*
X133900000Y-119259285D01*
X133900000Y-119259285D02*
X133900000Y-118687857D01*
X133900000Y-118687857D02*
X133971428Y-118545000D01*
X133971428Y-118545000D02*
X134114286Y-118473571D01*
X134114286Y-118473571D02*
X134400000Y-118473571D01*
X134400000Y-118473571D02*
X134542857Y-118545000D01*
X134542857Y-118545000D02*
X134614286Y-118687857D01*
X134614286Y-118687857D02*
X134614286Y-118830714D01*
X134614286Y-118830714D02*
X133900000Y-118973571D01*
X135257142Y-118973571D02*
X135900000Y-118973571D01*
X135257142Y-118473571D02*
X135257142Y-119473571D01*
X135900000Y-118473571D02*
X135900000Y-119473571D01*
X136614285Y-118473571D02*
X136614285Y-119473571D01*
X136614285Y-119473571D02*
X137328571Y-118473571D01*
X137328571Y-118473571D02*
X137328571Y-119473571D01*
X138328571Y-119045000D02*
X137971428Y-119473571D01*
X138614285Y-119473571D02*
X138614285Y-118473571D01*
X138614285Y-118473571D02*
X138185714Y-118473571D01*
X138185714Y-118473571D02*
X138042856Y-118545000D01*
X138042856Y-118545000D02*
X137971428Y-118687857D01*
X137971428Y-118687857D02*
X137971428Y-118830714D01*
X137971428Y-118830714D02*
X138042856Y-118973571D01*
X138042856Y-118973571D02*
X138185714Y-119045000D01*
X138185714Y-119045000D02*
X138614285Y-119045000D01*
D11*
%TO.C,RV1*%
X112567380Y-112236190D02*
X112567380Y-112807618D01*
X112567380Y-112521904D02*
X111567380Y-112521904D01*
X111567380Y-112521904D02*
X111710238Y-112617142D01*
X111710238Y-112617142D02*
X111805476Y-112712380D01*
X111805476Y-112712380D02*
X111853095Y-112807618D01*
X111567380Y-111617142D02*
X111567380Y-111521904D01*
X111567380Y-111521904D02*
X111615000Y-111426666D01*
X111615000Y-111426666D02*
X111662619Y-111379047D01*
X111662619Y-111379047D02*
X111757857Y-111331428D01*
X111757857Y-111331428D02*
X111948333Y-111283809D01*
X111948333Y-111283809D02*
X112186428Y-111283809D01*
X112186428Y-111283809D02*
X112376904Y-111331428D01*
X112376904Y-111331428D02*
X112472142Y-111379047D01*
X112472142Y-111379047D02*
X112519761Y-111426666D01*
X112519761Y-111426666D02*
X112567380Y-111521904D01*
X112567380Y-111521904D02*
X112567380Y-111617142D01*
X112567380Y-111617142D02*
X112519761Y-111712380D01*
X112519761Y-111712380D02*
X112472142Y-111759999D01*
X112472142Y-111759999D02*
X112376904Y-111807618D01*
X112376904Y-111807618D02*
X112186428Y-111855237D01*
X112186428Y-111855237D02*
X111948333Y-111855237D01*
X111948333Y-111855237D02*
X111757857Y-111807618D01*
X111757857Y-111807618D02*
X111662619Y-111759999D01*
X111662619Y-111759999D02*
X111615000Y-111712380D01*
X111615000Y-111712380D02*
X111567380Y-111617142D01*
X112567380Y-110855237D02*
X111567380Y-110855237D01*
X112567380Y-110283809D02*
X111995952Y-110712380D01*
X111567380Y-110283809D02*
X112138809Y-110855237D01*
X112567380Y-109255237D02*
X111567380Y-109255237D01*
X111567380Y-109255237D02*
X111567380Y-108874285D01*
X111567380Y-108874285D02*
X111615000Y-108779047D01*
X111615000Y-108779047D02*
X111662619Y-108731428D01*
X111662619Y-108731428D02*
X111757857Y-108683809D01*
X111757857Y-108683809D02*
X111900714Y-108683809D01*
X111900714Y-108683809D02*
X111995952Y-108731428D01*
X111995952Y-108731428D02*
X112043571Y-108779047D01*
X112043571Y-108779047D02*
X112091190Y-108874285D01*
X112091190Y-108874285D02*
X112091190Y-109255237D01*
X112519761Y-107874285D02*
X112567380Y-107969523D01*
X112567380Y-107969523D02*
X112567380Y-108159999D01*
X112567380Y-108159999D02*
X112519761Y-108255237D01*
X112519761Y-108255237D02*
X112424523Y-108302856D01*
X112424523Y-108302856D02*
X112043571Y-108302856D01*
X112043571Y-108302856D02*
X111948333Y-108255237D01*
X111948333Y-108255237D02*
X111900714Y-108159999D01*
X111900714Y-108159999D02*
X111900714Y-107969523D01*
X111900714Y-107969523D02*
X111948333Y-107874285D01*
X111948333Y-107874285D02*
X112043571Y-107826666D01*
X112043571Y-107826666D02*
X112138809Y-107826666D01*
X112138809Y-107826666D02*
X112234047Y-108302856D01*
X112567380Y-107398094D02*
X111900714Y-107398094D01*
X111900714Y-107398094D02*
X111900714Y-107017142D01*
%TO.C,D3*%
X115802381Y-84305476D02*
X115802381Y-84067380D01*
X115802381Y-84067380D02*
X114945238Y-84067380D01*
X114945238Y-84067380D02*
X114945238Y-84305476D01*
X115611904Y-84067380D02*
X115611904Y-83067380D01*
X115611904Y-83067380D02*
X115373809Y-83067380D01*
X115373809Y-83067380D02*
X115278571Y-83115000D01*
X115278571Y-83115000D02*
X115230952Y-83162619D01*
X115230952Y-83162619D02*
X115183333Y-83257857D01*
X115183333Y-83257857D02*
X115088095Y-84067380D01*
X116135714Y-83162619D02*
X116183333Y-83115000D01*
X116183333Y-83115000D02*
X116278571Y-83067380D01*
X116278571Y-83067380D02*
X116516666Y-83067380D01*
X116516666Y-83067380D02*
X116611904Y-83115000D01*
X116611904Y-83115000D02*
X116659523Y-83162619D01*
X116659523Y-83162619D02*
X116707142Y-83257857D01*
X116707142Y-83257857D02*
X116707142Y-83353095D01*
X116707142Y-83353095D02*
X116659523Y-83495952D01*
X116659523Y-83495952D02*
X116088095Y-84067380D01*
X116088095Y-84067380D02*
X116707142Y-84067380D01*
X109238095Y-81867380D02*
X109238095Y-80867380D01*
X109809523Y-81867380D02*
X109380952Y-81295952D01*
X109809523Y-80867380D02*
X109238095Y-81438809D01*
%TO.C,D4*%
X116152381Y-90205476D02*
X116152381Y-89967380D01*
X116152381Y-89967380D02*
X115295238Y-89967380D01*
X115295238Y-89967380D02*
X115295238Y-90205476D01*
X115961904Y-89967380D02*
X115961904Y-88967380D01*
X115961904Y-88967380D02*
X115723809Y-88967380D01*
X115723809Y-88967380D02*
X115628571Y-89015000D01*
X115628571Y-89015000D02*
X115580952Y-89062619D01*
X115580952Y-89062619D02*
X115533333Y-89157857D01*
X115533333Y-89157857D02*
X115438095Y-89967380D01*
X116485714Y-89062619D02*
X116533333Y-89015000D01*
X116533333Y-89015000D02*
X116628571Y-88967380D01*
X116628571Y-88967380D02*
X116866666Y-88967380D01*
X116866666Y-88967380D02*
X116961904Y-89015000D01*
X116961904Y-89015000D02*
X117009523Y-89062619D01*
X117009523Y-89062619D02*
X117057142Y-89157857D01*
X117057142Y-89157857D02*
X117057142Y-89253095D01*
X117057142Y-89253095D02*
X117009523Y-89395952D01*
X117009523Y-89395952D02*
X116438095Y-89967380D01*
X116438095Y-89967380D02*
X117057142Y-89967380D01*
X109238095Y-87867380D02*
X109238095Y-86867380D01*
X109809523Y-87867380D02*
X109380952Y-87295952D01*
X109809523Y-86867380D02*
X109238095Y-87438809D01*
%TO.C,R3*%
X125285714Y-107067380D02*
X124714286Y-107067380D01*
X125000000Y-107067380D02*
X125000000Y-106067380D01*
X125000000Y-106067380D02*
X124904762Y-106210238D01*
X124904762Y-106210238D02*
X124809524Y-106305476D01*
X124809524Y-106305476D02*
X124714286Y-106353095D01*
X125714286Y-107067380D02*
X125714286Y-106067380D01*
X126285714Y-107067380D02*
X125857143Y-106495952D01*
X126285714Y-106067380D02*
X125714286Y-106638809D01*
%TO.C,D1*%
X151905476Y-109900000D02*
X151667380Y-109900000D01*
X151667380Y-109900000D02*
X151667380Y-110757142D01*
X151667380Y-110757142D02*
X151905476Y-110757142D01*
X151667380Y-110090476D02*
X150667380Y-110090476D01*
X150667380Y-110090476D02*
X150667380Y-110328571D01*
X150667380Y-110328571D02*
X150715000Y-110423809D01*
X150715000Y-110423809D02*
X150762619Y-110471428D01*
X150762619Y-110471428D02*
X150857857Y-110519047D01*
X150857857Y-110519047D02*
X151667380Y-110614285D01*
X150762619Y-109566666D02*
X150715000Y-109519047D01*
X150715000Y-109519047D02*
X150667380Y-109423809D01*
X150667380Y-109423809D02*
X150667380Y-109185714D01*
X150667380Y-109185714D02*
X150715000Y-109090476D01*
X150715000Y-109090476D02*
X150762619Y-109042857D01*
X150762619Y-109042857D02*
X150857857Y-108995238D01*
X150857857Y-108995238D02*
X150953095Y-108995238D01*
X150953095Y-108995238D02*
X151095952Y-109042857D01*
X151095952Y-109042857D02*
X151667380Y-109614285D01*
X151667380Y-109614285D02*
X151667380Y-108995238D01*
X150762619Y-108614285D02*
X150715000Y-108566666D01*
X150715000Y-108566666D02*
X150667380Y-108471428D01*
X150667380Y-108471428D02*
X150667380Y-108233333D01*
X150667380Y-108233333D02*
X150715000Y-108138095D01*
X150715000Y-108138095D02*
X150762619Y-108090476D01*
X150762619Y-108090476D02*
X150857857Y-108042857D01*
X150857857Y-108042857D02*
X150953095Y-108042857D01*
X150953095Y-108042857D02*
X151095952Y-108090476D01*
X151095952Y-108090476D02*
X151667380Y-108661904D01*
X151667380Y-108661904D02*
X151667380Y-108042857D01*
X150667380Y-107709523D02*
X150667380Y-107090476D01*
X150667380Y-107090476D02*
X151048333Y-107423809D01*
X151048333Y-107423809D02*
X151048333Y-107280952D01*
X151048333Y-107280952D02*
X151095952Y-107185714D01*
X151095952Y-107185714D02*
X151143571Y-107138095D01*
X151143571Y-107138095D02*
X151238809Y-107090476D01*
X151238809Y-107090476D02*
X151476904Y-107090476D01*
X151476904Y-107090476D02*
X151572142Y-107138095D01*
X151572142Y-107138095D02*
X151619761Y-107185714D01*
X151619761Y-107185714D02*
X151667380Y-107280952D01*
X151667380Y-107280952D02*
X151667380Y-107566666D01*
X151667380Y-107566666D02*
X151619761Y-107661904D01*
X151619761Y-107661904D02*
X151572142Y-107709523D01*
X146481666Y-114238094D02*
X146481666Y-113761904D01*
X146767380Y-114333332D02*
X145767380Y-113999999D01*
X145767380Y-113999999D02*
X146767380Y-113666666D01*
%TO.C,J1*%
X108261904Y-114113571D02*
X108404761Y-114161190D01*
X108404761Y-114161190D02*
X108452380Y-114208809D01*
X108452380Y-114208809D02*
X108499999Y-114304047D01*
X108499999Y-114304047D02*
X108499999Y-114446904D01*
X108499999Y-114446904D02*
X108452380Y-114542142D01*
X108452380Y-114542142D02*
X108404761Y-114589761D01*
X108404761Y-114589761D02*
X108309523Y-114637380D01*
X108309523Y-114637380D02*
X107928571Y-114637380D01*
X107928571Y-114637380D02*
X107928571Y-113637380D01*
X107928571Y-113637380D02*
X108261904Y-113637380D01*
X108261904Y-113637380D02*
X108357142Y-113685000D01*
X108357142Y-113685000D02*
X108404761Y-113732619D01*
X108404761Y-113732619D02*
X108452380Y-113827857D01*
X108452380Y-113827857D02*
X108452380Y-113923095D01*
X108452380Y-113923095D02*
X108404761Y-114018333D01*
X108404761Y-114018333D02*
X108357142Y-114065952D01*
X108357142Y-114065952D02*
X108261904Y-114113571D01*
X108261904Y-114113571D02*
X107928571Y-114113571D01*
X108833333Y-114637380D02*
X109357142Y-113970714D01*
X108833333Y-113970714D02*
X109357142Y-114637380D01*
X109880952Y-114637380D02*
X109785714Y-114589761D01*
X109785714Y-114589761D02*
X109738095Y-114542142D01*
X109738095Y-114542142D02*
X109690476Y-114446904D01*
X109690476Y-114446904D02*
X109690476Y-114161190D01*
X109690476Y-114161190D02*
X109738095Y-114065952D01*
X109738095Y-114065952D02*
X109785714Y-114018333D01*
X109785714Y-114018333D02*
X109880952Y-113970714D01*
X109880952Y-113970714D02*
X110023809Y-113970714D01*
X110023809Y-113970714D02*
X110119047Y-114018333D01*
X110119047Y-114018333D02*
X110166666Y-114065952D01*
X110166666Y-114065952D02*
X110214285Y-114161190D01*
X110214285Y-114161190D02*
X110214285Y-114446904D01*
X110214285Y-114446904D02*
X110166666Y-114542142D01*
X110166666Y-114542142D02*
X110119047Y-114589761D01*
X110119047Y-114589761D02*
X110023809Y-114637380D01*
X110023809Y-114637380D02*
X109880952Y-114637380D01*
X111119047Y-114065952D02*
X111071428Y-114018333D01*
X111071428Y-114018333D02*
X110976190Y-113970714D01*
X110976190Y-113970714D02*
X110785714Y-113970714D01*
X110785714Y-113970714D02*
X110690476Y-114018333D01*
X110690476Y-114018333D02*
X110642857Y-114065952D01*
X110642857Y-114065952D02*
X110595238Y-114161190D01*
X110595238Y-114161190D02*
X110595238Y-114446904D01*
X110595238Y-114446904D02*
X110642857Y-114542142D01*
X110642857Y-114542142D02*
X110690476Y-114589761D01*
X110690476Y-114589761D02*
X110785714Y-114637380D01*
X110785714Y-114637380D02*
X110928571Y-114637380D01*
X110928571Y-114637380D02*
X111023809Y-114589761D01*
X111023809Y-114589761D02*
X111071428Y-114542142D01*
X111071428Y-114542142D02*
X111119047Y-114446904D01*
X111119047Y-114446904D02*
X111119047Y-113827857D01*
X111119047Y-113827857D02*
X111071428Y-113732619D01*
X111071428Y-113732619D02*
X111023809Y-113685000D01*
X111023809Y-113685000D02*
X110928571Y-113637380D01*
X110928571Y-113637380D02*
X110738095Y-113637380D01*
X110738095Y-113637380D02*
X110642857Y-113685000D01*
%TO.C,D6*%
X115952381Y-102305476D02*
X115952381Y-102067380D01*
X115952381Y-102067380D02*
X115095238Y-102067380D01*
X115095238Y-102067380D02*
X115095238Y-102305476D01*
X115761904Y-102067380D02*
X115761904Y-101067380D01*
X115761904Y-101067380D02*
X115523809Y-101067380D01*
X115523809Y-101067380D02*
X115428571Y-101115000D01*
X115428571Y-101115000D02*
X115380952Y-101162619D01*
X115380952Y-101162619D02*
X115333333Y-101257857D01*
X115333333Y-101257857D02*
X115238095Y-102067380D01*
X116285714Y-101162619D02*
X116333333Y-101115000D01*
X116333333Y-101115000D02*
X116428571Y-101067380D01*
X116428571Y-101067380D02*
X116666666Y-101067380D01*
X116666666Y-101067380D02*
X116761904Y-101115000D01*
X116761904Y-101115000D02*
X116809523Y-101162619D01*
X116809523Y-101162619D02*
X116857142Y-101257857D01*
X116857142Y-101257857D02*
X116857142Y-101353095D01*
X116857142Y-101353095D02*
X116809523Y-101495952D01*
X116809523Y-101495952D02*
X116238095Y-102067380D01*
X116238095Y-102067380D02*
X116857142Y-102067380D01*
X109238095Y-99867380D02*
X109238095Y-98867380D01*
X109809523Y-99867380D02*
X109380952Y-99295952D01*
X109809523Y-98867380D02*
X109238095Y-99438809D01*
%TO.C,R1*%
X124785714Y-112967380D02*
X124309524Y-112967380D01*
X124309524Y-112967380D02*
X124261905Y-113443571D01*
X124261905Y-113443571D02*
X124309524Y-113395952D01*
X124309524Y-113395952D02*
X124404762Y-113348333D01*
X124404762Y-113348333D02*
X124642857Y-113348333D01*
X124642857Y-113348333D02*
X124738095Y-113395952D01*
X124738095Y-113395952D02*
X124785714Y-113443571D01*
X124785714Y-113443571D02*
X124833333Y-113538809D01*
X124833333Y-113538809D02*
X124833333Y-113776904D01*
X124833333Y-113776904D02*
X124785714Y-113872142D01*
X124785714Y-113872142D02*
X124738095Y-113919761D01*
X124738095Y-113919761D02*
X124642857Y-113967380D01*
X124642857Y-113967380D02*
X124404762Y-113967380D01*
X124404762Y-113967380D02*
X124309524Y-113919761D01*
X124309524Y-113919761D02*
X124261905Y-113872142D01*
X125690476Y-112967380D02*
X125500000Y-112967380D01*
X125500000Y-112967380D02*
X125404762Y-113015000D01*
X125404762Y-113015000D02*
X125357143Y-113062619D01*
X125357143Y-113062619D02*
X125261905Y-113205476D01*
X125261905Y-113205476D02*
X125214286Y-113395952D01*
X125214286Y-113395952D02*
X125214286Y-113776904D01*
X125214286Y-113776904D02*
X125261905Y-113872142D01*
X125261905Y-113872142D02*
X125309524Y-113919761D01*
X125309524Y-113919761D02*
X125404762Y-113967380D01*
X125404762Y-113967380D02*
X125595238Y-113967380D01*
X125595238Y-113967380D02*
X125690476Y-113919761D01*
X125690476Y-113919761D02*
X125738095Y-113872142D01*
X125738095Y-113872142D02*
X125785714Y-113776904D01*
X125785714Y-113776904D02*
X125785714Y-113538809D01*
X125785714Y-113538809D02*
X125738095Y-113443571D01*
X125738095Y-113443571D02*
X125690476Y-113395952D01*
X125690476Y-113395952D02*
X125595238Y-113348333D01*
X125595238Y-113348333D02*
X125404762Y-113348333D01*
X125404762Y-113348333D02*
X125309524Y-113395952D01*
X125309524Y-113395952D02*
X125261905Y-113443571D01*
X125261905Y-113443571D02*
X125214286Y-113538809D01*
X126404762Y-112967380D02*
X126500000Y-112967380D01*
X126500000Y-112967380D02*
X126595238Y-113015000D01*
X126595238Y-113015000D02*
X126642857Y-113062619D01*
X126642857Y-113062619D02*
X126690476Y-113157857D01*
X126690476Y-113157857D02*
X126738095Y-113348333D01*
X126738095Y-113348333D02*
X126738095Y-113586428D01*
X126738095Y-113586428D02*
X126690476Y-113776904D01*
X126690476Y-113776904D02*
X126642857Y-113872142D01*
X126642857Y-113872142D02*
X126595238Y-113919761D01*
X126595238Y-113919761D02*
X126500000Y-113967380D01*
X126500000Y-113967380D02*
X126404762Y-113967380D01*
X126404762Y-113967380D02*
X126309524Y-113919761D01*
X126309524Y-113919761D02*
X126261905Y-113872142D01*
X126261905Y-113872142D02*
X126214286Y-113776904D01*
X126214286Y-113776904D02*
X126166667Y-113586428D01*
X126166667Y-113586428D02*
X126166667Y-113348333D01*
X126166667Y-113348333D02*
X126214286Y-113157857D01*
X126214286Y-113157857D02*
X126261905Y-113062619D01*
X126261905Y-113062619D02*
X126309524Y-113015000D01*
X126309524Y-113015000D02*
X126404762Y-112967380D01*
%TO.C,R2*%
X125285714Y-110567380D02*
X124714286Y-110567380D01*
X125000000Y-110567380D02*
X125000000Y-109567380D01*
X125000000Y-109567380D02*
X124904762Y-109710238D01*
X124904762Y-109710238D02*
X124809524Y-109805476D01*
X124809524Y-109805476D02*
X124714286Y-109853095D01*
X125714286Y-110567380D02*
X125714286Y-109567380D01*
X126285714Y-110567380D02*
X125857143Y-109995952D01*
X126285714Y-109567380D02*
X125714286Y-110138809D01*
%TO.C,D2*%
X134805476Y-83500000D02*
X134567380Y-83500000D01*
X134567380Y-83500000D02*
X134567380Y-84357142D01*
X134567380Y-84357142D02*
X134805476Y-84357142D01*
X134567380Y-83690476D02*
X133567380Y-83690476D01*
X133567380Y-83690476D02*
X133567380Y-83928571D01*
X133567380Y-83928571D02*
X133615000Y-84023809D01*
X133615000Y-84023809D02*
X133662619Y-84071428D01*
X133662619Y-84071428D02*
X133757857Y-84119047D01*
X133757857Y-84119047D02*
X134567380Y-84214285D01*
X133662619Y-83166666D02*
X133615000Y-83119047D01*
X133615000Y-83119047D02*
X133567380Y-83023809D01*
X133567380Y-83023809D02*
X133567380Y-82785714D01*
X133567380Y-82785714D02*
X133615000Y-82690476D01*
X133615000Y-82690476D02*
X133662619Y-82642857D01*
X133662619Y-82642857D02*
X133757857Y-82595238D01*
X133757857Y-82595238D02*
X133853095Y-82595238D01*
X133853095Y-82595238D02*
X133995952Y-82642857D01*
X133995952Y-82642857D02*
X134567380Y-83214285D01*
X134567380Y-83214285D02*
X134567380Y-82595238D01*
X133662619Y-82214285D02*
X133615000Y-82166666D01*
X133615000Y-82166666D02*
X133567380Y-82071428D01*
X133567380Y-82071428D02*
X133567380Y-81833333D01*
X133567380Y-81833333D02*
X133615000Y-81738095D01*
X133615000Y-81738095D02*
X133662619Y-81690476D01*
X133662619Y-81690476D02*
X133757857Y-81642857D01*
X133757857Y-81642857D02*
X133853095Y-81642857D01*
X133853095Y-81642857D02*
X133995952Y-81690476D01*
X133995952Y-81690476D02*
X134567380Y-82261904D01*
X134567380Y-82261904D02*
X134567380Y-81642857D01*
X133567380Y-81309523D02*
X133567380Y-80690476D01*
X133567380Y-80690476D02*
X133948333Y-81023809D01*
X133948333Y-81023809D02*
X133948333Y-80880952D01*
X133948333Y-80880952D02*
X133995952Y-80785714D01*
X133995952Y-80785714D02*
X134043571Y-80738095D01*
X134043571Y-80738095D02*
X134138809Y-80690476D01*
X134138809Y-80690476D02*
X134376904Y-80690476D01*
X134376904Y-80690476D02*
X134472142Y-80738095D01*
X134472142Y-80738095D02*
X134519761Y-80785714D01*
X134519761Y-80785714D02*
X134567380Y-80880952D01*
X134567380Y-80880952D02*
X134567380Y-81166666D01*
X134567380Y-81166666D02*
X134519761Y-81261904D01*
X134519761Y-81261904D02*
X134472142Y-81309523D01*
X148261905Y-84681666D02*
X148738095Y-84681666D01*
X148166667Y-84967380D02*
X148500000Y-83967380D01*
X148500000Y-83967380D02*
X148833333Y-84967380D01*
%TO.C,J2*%
X132967380Y-89314285D02*
X131967380Y-89314285D01*
X131967380Y-89314285D02*
X131967380Y-88742857D01*
X131967380Y-88742857D02*
X132967380Y-88742857D01*
X132062619Y-88314285D02*
X132015000Y-88266666D01*
X132015000Y-88266666D02*
X131967380Y-88171428D01*
X131967380Y-88171428D02*
X131967380Y-87933333D01*
X131967380Y-87933333D02*
X132015000Y-87838095D01*
X132015000Y-87838095D02*
X132062619Y-87790476D01*
X132062619Y-87790476D02*
X132157857Y-87742857D01*
X132157857Y-87742857D02*
X132253095Y-87742857D01*
X132253095Y-87742857D02*
X132395952Y-87790476D01*
X132395952Y-87790476D02*
X132967380Y-88361904D01*
X132967380Y-88361904D02*
X132967380Y-87742857D01*
X132967380Y-86790476D02*
X132967380Y-87361904D01*
X132967380Y-87076190D02*
X131967380Y-87076190D01*
X131967380Y-87076190D02*
X132110238Y-87171428D01*
X132110238Y-87171428D02*
X132205476Y-87266666D01*
X132205476Y-87266666D02*
X132253095Y-87361904D01*
X131967380Y-86457142D02*
X131967380Y-85838095D01*
X131967380Y-85838095D02*
X132348333Y-86171428D01*
X132348333Y-86171428D02*
X132348333Y-86028571D01*
X132348333Y-86028571D02*
X132395952Y-85933333D01*
X132395952Y-85933333D02*
X132443571Y-85885714D01*
X132443571Y-85885714D02*
X132538809Y-85838095D01*
X132538809Y-85838095D02*
X132776904Y-85838095D01*
X132776904Y-85838095D02*
X132872142Y-85885714D01*
X132872142Y-85885714D02*
X132919761Y-85933333D01*
X132919761Y-85933333D02*
X132967380Y-86028571D01*
X132967380Y-86028571D02*
X132967380Y-86314285D01*
X132967380Y-86314285D02*
X132919761Y-86409523D01*
X132919761Y-86409523D02*
X132872142Y-86457142D01*
D12*
X136952380Y-89535714D02*
X136952380Y-90011904D01*
X136952380Y-90011904D02*
X137952380Y-90011904D01*
X137952380Y-90011904D02*
X137952380Y-89726190D01*
X137952380Y-89726190D02*
X137904761Y-89583333D01*
X137904761Y-89583333D02*
X137809523Y-89488095D01*
X137809523Y-89488095D02*
X137714285Y-89440476D01*
X137714285Y-89440476D02*
X137571428Y-89440476D01*
X137571428Y-89440476D02*
X137476190Y-89488095D01*
X137476190Y-89488095D02*
X137380952Y-89583333D01*
X137380952Y-89583333D02*
X137333333Y-89726190D01*
X137333333Y-89726190D02*
X137333333Y-90011904D01*
X140452380Y-90011904D02*
X139452380Y-90011904D01*
X140452380Y-89440476D02*
X139880952Y-89869047D01*
X139452380Y-89440476D02*
X140023809Y-90011904D01*
X134976190Y-89440476D02*
X134976190Y-89916666D01*
X134547619Y-90059523D02*
X134500000Y-90011904D01*
X134500000Y-90011904D02*
X134452380Y-89869047D01*
X134452380Y-89869047D02*
X134452380Y-89773809D01*
X134452380Y-89773809D02*
X134500000Y-89630952D01*
X134500000Y-89630952D02*
X134595238Y-89535714D01*
X134595238Y-89535714D02*
X134690476Y-89488095D01*
X134690476Y-89488095D02*
X134880952Y-89440476D01*
X134880952Y-89440476D02*
X135023809Y-89440476D01*
X135023809Y-89440476D02*
X135214285Y-89488095D01*
X135214285Y-89488095D02*
X135309523Y-89535714D01*
X135309523Y-89535714D02*
X135404761Y-89630952D01*
X135404761Y-89630952D02*
X135452380Y-89773809D01*
X135452380Y-89773809D02*
X135452380Y-89869047D01*
X135452380Y-89869047D02*
X135404761Y-90011904D01*
X135404761Y-90011904D02*
X135357142Y-90059523D01*
D11*
%TO.C,J3*%
X143095238Y-85043571D02*
X143238095Y-85091190D01*
X143238095Y-85091190D02*
X143285714Y-85138809D01*
X143285714Y-85138809D02*
X143333333Y-85234047D01*
X143333333Y-85234047D02*
X143333333Y-85376904D01*
X143333333Y-85376904D02*
X143285714Y-85472142D01*
X143285714Y-85472142D02*
X143238095Y-85519761D01*
X143238095Y-85519761D02*
X143142857Y-85567380D01*
X143142857Y-85567380D02*
X142761905Y-85567380D01*
X142761905Y-85567380D02*
X142761905Y-84567380D01*
X142761905Y-84567380D02*
X143095238Y-84567380D01*
X143095238Y-84567380D02*
X143190476Y-84615000D01*
X143190476Y-84615000D02*
X143238095Y-84662619D01*
X143238095Y-84662619D02*
X143285714Y-84757857D01*
X143285714Y-84757857D02*
X143285714Y-84853095D01*
X143285714Y-84853095D02*
X143238095Y-84948333D01*
X143238095Y-84948333D02*
X143190476Y-84995952D01*
X143190476Y-84995952D02*
X143095238Y-85043571D01*
X143095238Y-85043571D02*
X142761905Y-85043571D01*
X144428571Y-84900714D02*
X144428571Y-85567380D01*
X143761905Y-84900714D02*
X143761905Y-85567380D01*
X143761905Y-85567380D02*
X144000000Y-85567380D01*
X144000000Y-85567380D02*
X144095238Y-85519761D01*
X144095238Y-85519761D02*
X144142857Y-85424523D01*
X144142857Y-85424523D02*
X144142857Y-85281666D01*
X144142857Y-85281666D02*
X144095238Y-85186428D01*
X144095238Y-85186428D02*
X144000000Y-85138809D01*
X144000000Y-85138809D02*
X143761905Y-85138809D01*
X144809524Y-85567380D02*
X145333333Y-84900714D01*
X144809524Y-84900714D02*
X145333333Y-85567380D01*
D12*
X144361904Y-92298571D02*
X143600000Y-92298571D01*
X143980952Y-91917619D02*
X143980952Y-92679523D01*
D11*
%TO.C,D7*%
X152005476Y-94200000D02*
X151767380Y-94200000D01*
X151767380Y-94200000D02*
X151767380Y-95057142D01*
X151767380Y-95057142D02*
X152005476Y-95057142D01*
X151767380Y-94390476D02*
X150767380Y-94390476D01*
X150767380Y-94390476D02*
X150767380Y-94628571D01*
X150767380Y-94628571D02*
X150815000Y-94723809D01*
X150815000Y-94723809D02*
X150862619Y-94771428D01*
X150862619Y-94771428D02*
X150957857Y-94819047D01*
X150957857Y-94819047D02*
X151767380Y-94914285D01*
X150862619Y-93866666D02*
X150815000Y-93819047D01*
X150815000Y-93819047D02*
X150767380Y-93723809D01*
X150767380Y-93723809D02*
X150767380Y-93485714D01*
X150767380Y-93485714D02*
X150815000Y-93390476D01*
X150815000Y-93390476D02*
X150862619Y-93342857D01*
X150862619Y-93342857D02*
X150957857Y-93295238D01*
X150957857Y-93295238D02*
X151053095Y-93295238D01*
X151053095Y-93295238D02*
X151195952Y-93342857D01*
X151195952Y-93342857D02*
X151767380Y-93914285D01*
X151767380Y-93914285D02*
X151767380Y-93295238D01*
X150862619Y-92914285D02*
X150815000Y-92866666D01*
X150815000Y-92866666D02*
X150767380Y-92771428D01*
X150767380Y-92771428D02*
X150767380Y-92533333D01*
X150767380Y-92533333D02*
X150815000Y-92438095D01*
X150815000Y-92438095D02*
X150862619Y-92390476D01*
X150862619Y-92390476D02*
X150957857Y-92342857D01*
X150957857Y-92342857D02*
X151053095Y-92342857D01*
X151053095Y-92342857D02*
X151195952Y-92390476D01*
X151195952Y-92390476D02*
X151767380Y-92961904D01*
X151767380Y-92961904D02*
X151767380Y-92342857D01*
X150767380Y-92009523D02*
X150767380Y-91390476D01*
X150767380Y-91390476D02*
X151148333Y-91723809D01*
X151148333Y-91723809D02*
X151148333Y-91580952D01*
X151148333Y-91580952D02*
X151195952Y-91485714D01*
X151195952Y-91485714D02*
X151243571Y-91438095D01*
X151243571Y-91438095D02*
X151338809Y-91390476D01*
X151338809Y-91390476D02*
X151576904Y-91390476D01*
X151576904Y-91390476D02*
X151672142Y-91438095D01*
X151672142Y-91438095D02*
X151719761Y-91485714D01*
X151719761Y-91485714D02*
X151767380Y-91580952D01*
X151767380Y-91580952D02*
X151767380Y-91866666D01*
X151767380Y-91866666D02*
X151719761Y-91961904D01*
X151719761Y-91961904D02*
X151672142Y-92009523D01*
X146481666Y-98738094D02*
X146481666Y-98261904D01*
X146767380Y-98833332D02*
X145767380Y-98499999D01*
X145767380Y-98499999D02*
X146767380Y-98166666D01*
%TO.C,D5*%
X116052381Y-96105476D02*
X116052381Y-95867380D01*
X116052381Y-95867380D02*
X115195238Y-95867380D01*
X115195238Y-95867380D02*
X115195238Y-96105476D01*
X115861904Y-95867380D02*
X115861904Y-94867380D01*
X115861904Y-94867380D02*
X115623809Y-94867380D01*
X115623809Y-94867380D02*
X115528571Y-94915000D01*
X115528571Y-94915000D02*
X115480952Y-94962619D01*
X115480952Y-94962619D02*
X115433333Y-95057857D01*
X115433333Y-95057857D02*
X115338095Y-95867380D01*
X116385714Y-94962619D02*
X116433333Y-94915000D01*
X116433333Y-94915000D02*
X116528571Y-94867380D01*
X116528571Y-94867380D02*
X116766666Y-94867380D01*
X116766666Y-94867380D02*
X116861904Y-94915000D01*
X116861904Y-94915000D02*
X116909523Y-94962619D01*
X116909523Y-94962619D02*
X116957142Y-95057857D01*
X116957142Y-95057857D02*
X116957142Y-95153095D01*
X116957142Y-95153095D02*
X116909523Y-95295952D01*
X116909523Y-95295952D02*
X116338095Y-95867380D01*
X116338095Y-95867380D02*
X116957142Y-95867380D01*
X109238095Y-93867380D02*
X109238095Y-92867380D01*
X109809523Y-93867380D02*
X109380952Y-93295952D01*
X109809523Y-92867380D02*
X109238095Y-93438809D01*
%TO.C,C1*%
X133990476Y-101450714D02*
X133990476Y-102117380D01*
X133752381Y-101069761D02*
X133514286Y-101784047D01*
X133514286Y-101784047D02*
X134133333Y-101784047D01*
X134419048Y-101117380D02*
X135085714Y-101117380D01*
X135085714Y-101117380D02*
X134657143Y-102117380D01*
X135657143Y-101117380D02*
X135752381Y-101117380D01*
X135752381Y-101117380D02*
X135847619Y-101165000D01*
X135847619Y-101165000D02*
X135895238Y-101212619D01*
X135895238Y-101212619D02*
X135942857Y-101307857D01*
X135942857Y-101307857D02*
X135990476Y-101498333D01*
X135990476Y-101498333D02*
X135990476Y-101736428D01*
X135990476Y-101736428D02*
X135942857Y-101926904D01*
X135942857Y-101926904D02*
X135895238Y-102022142D01*
X135895238Y-102022142D02*
X135847619Y-102069761D01*
X135847619Y-102069761D02*
X135752381Y-102117380D01*
X135752381Y-102117380D02*
X135657143Y-102117380D01*
X135657143Y-102117380D02*
X135561905Y-102069761D01*
X135561905Y-102069761D02*
X135514286Y-102022142D01*
X135514286Y-102022142D02*
X135466667Y-101926904D01*
X135466667Y-101926904D02*
X135419048Y-101736428D01*
X135419048Y-101736428D02*
X135419048Y-101498333D01*
X135419048Y-101498333D02*
X135466667Y-101307857D01*
X135466667Y-101307857D02*
X135514286Y-101212619D01*
X135514286Y-101212619D02*
X135561905Y-101165000D01*
X135561905Y-101165000D02*
X135657143Y-101117380D01*
X136419048Y-102117380D02*
X136419048Y-101117380D01*
X136419048Y-101117380D02*
X136752381Y-101831666D01*
X136752381Y-101831666D02*
X137085714Y-101117380D01*
X137085714Y-101117380D02*
X137085714Y-102117380D01*
X137847619Y-101117380D02*
X137847619Y-102450714D01*
X137752381Y-101450714D02*
X137942857Y-101450714D01*
X137942857Y-101450714D02*
X138038095Y-101498333D01*
X138038095Y-101498333D02*
X138133333Y-101593571D01*
X138133333Y-101593571D02*
X138180952Y-101688809D01*
X138180952Y-101688809D02*
X138180952Y-101879285D01*
X138180952Y-101879285D02*
X138133333Y-101974523D01*
X138133333Y-101974523D02*
X138038095Y-102069761D01*
X138038095Y-102069761D02*
X137942857Y-102117380D01*
X137942857Y-102117380D02*
X137752381Y-102117380D01*
X137752381Y-102117380D02*
X137657143Y-102069761D01*
X137657143Y-102069761D02*
X137561905Y-101974523D01*
X137561905Y-101974523D02*
X137514286Y-101879285D01*
X137514286Y-101879285D02*
X137514286Y-101688809D01*
X137514286Y-101688809D02*
X137561905Y-101593571D01*
X137561905Y-101593571D02*
X137657143Y-101498333D01*
X137657143Y-101498333D02*
X137752381Y-101450714D01*
X139733333Y-102117380D02*
X139161905Y-102117380D01*
X139447619Y-102117380D02*
X139447619Y-101117380D01*
X139447619Y-101117380D02*
X139352381Y-101260238D01*
X139352381Y-101260238D02*
X139257143Y-101355476D01*
X139257143Y-101355476D02*
X139161905Y-101403095D01*
X140638095Y-101117380D02*
X140161905Y-101117380D01*
X140161905Y-101117380D02*
X140114286Y-101593571D01*
X140114286Y-101593571D02*
X140161905Y-101545952D01*
X140161905Y-101545952D02*
X140257143Y-101498333D01*
X140257143Y-101498333D02*
X140495238Y-101498333D01*
X140495238Y-101498333D02*
X140590476Y-101545952D01*
X140590476Y-101545952D02*
X140638095Y-101593571D01*
X140638095Y-101593571D02*
X140685714Y-101688809D01*
X140685714Y-101688809D02*
X140685714Y-101926904D01*
X140685714Y-101926904D02*
X140638095Y-102022142D01*
X140638095Y-102022142D02*
X140590476Y-102069761D01*
X140590476Y-102069761D02*
X140495238Y-102117380D01*
X140495238Y-102117380D02*
X140257143Y-102117380D01*
X140257143Y-102117380D02*
X140161905Y-102069761D01*
X140161905Y-102069761D02*
X140114286Y-102022142D01*
X141447619Y-101593571D02*
X141590476Y-101641190D01*
X141590476Y-101641190D02*
X141638095Y-101688809D01*
X141638095Y-101688809D02*
X141685714Y-101784047D01*
X141685714Y-101784047D02*
X141685714Y-101926904D01*
X141685714Y-101926904D02*
X141638095Y-102022142D01*
X141638095Y-102022142D02*
X141590476Y-102069761D01*
X141590476Y-102069761D02*
X141495238Y-102117380D01*
X141495238Y-102117380D02*
X141114286Y-102117380D01*
X141114286Y-102117380D02*
X141114286Y-101117380D01*
X141114286Y-101117380D02*
X141447619Y-101117380D01*
X141447619Y-101117380D02*
X141542857Y-101165000D01*
X141542857Y-101165000D02*
X141590476Y-101212619D01*
X141590476Y-101212619D02*
X141638095Y-101307857D01*
X141638095Y-101307857D02*
X141638095Y-101403095D01*
X141638095Y-101403095D02*
X141590476Y-101498333D01*
X141590476Y-101498333D02*
X141542857Y-101545952D01*
X141542857Y-101545952D02*
X141447619Y-101593571D01*
X141447619Y-101593571D02*
X141114286Y-101593571D01*
%TO.C,Q1*%
X137314286Y-112067380D02*
X137314286Y-111067380D01*
X137314286Y-111067380D02*
X137647619Y-111781666D01*
X137647619Y-111781666D02*
X137980952Y-111067380D01*
X137980952Y-111067380D02*
X137980952Y-112067380D01*
X138457143Y-112067380D02*
X138457143Y-111067380D01*
X138457143Y-111067380D02*
X138838095Y-111067380D01*
X138838095Y-111067380D02*
X138933333Y-111115000D01*
X138933333Y-111115000D02*
X138980952Y-111162619D01*
X138980952Y-111162619D02*
X139028571Y-111257857D01*
X139028571Y-111257857D02*
X139028571Y-111400714D01*
X139028571Y-111400714D02*
X138980952Y-111495952D01*
X138980952Y-111495952D02*
X138933333Y-111543571D01*
X138933333Y-111543571D02*
X138838095Y-111591190D01*
X138838095Y-111591190D02*
X138457143Y-111591190D01*
X139885714Y-111400714D02*
X139885714Y-112067380D01*
X139647619Y-111019761D02*
X139409524Y-111734047D01*
X139409524Y-111734047D02*
X140028571Y-111734047D01*
X140361905Y-111162619D02*
X140409524Y-111115000D01*
X140409524Y-111115000D02*
X140504762Y-111067380D01*
X140504762Y-111067380D02*
X140742857Y-111067380D01*
X140742857Y-111067380D02*
X140838095Y-111115000D01*
X140838095Y-111115000D02*
X140885714Y-111162619D01*
X140885714Y-111162619D02*
X140933333Y-111257857D01*
X140933333Y-111257857D02*
X140933333Y-111353095D01*
X140933333Y-111353095D02*
X140885714Y-111495952D01*
X140885714Y-111495952D02*
X140314286Y-112067380D01*
X140314286Y-112067380D02*
X140933333Y-112067380D01*
D12*
X139164285Y-105282380D02*
X138688095Y-105282380D01*
X138688095Y-105282380D02*
X138688095Y-106282380D01*
X138688095Y-106282380D02*
X138973809Y-106282380D01*
X138973809Y-106282380D02*
X139116666Y-106234761D01*
X139116666Y-106234761D02*
X139211904Y-106139523D01*
X139211904Y-106139523D02*
X139259523Y-106044285D01*
X139259523Y-106044285D02*
X139259523Y-105901428D01*
X139259523Y-105901428D02*
X139211904Y-105806190D01*
X139211904Y-105806190D02*
X139116666Y-105710952D01*
X139116666Y-105710952D02*
X138973809Y-105663333D01*
X138973809Y-105663333D02*
X138688095Y-105663333D01*
X136188095Y-110882380D02*
X136188095Y-109882380D01*
X136759523Y-110882380D02*
X136330952Y-110310952D01*
X136759523Y-109882380D02*
X136188095Y-110453809D01*
X141959523Y-110406190D02*
X141483333Y-110406190D01*
X141340476Y-109977619D02*
X141388095Y-109930000D01*
X141388095Y-109930000D02*
X141530952Y-109882380D01*
X141530952Y-109882380D02*
X141626190Y-109882380D01*
X141626190Y-109882380D02*
X141769047Y-109930000D01*
X141769047Y-109930000D02*
X141864285Y-110025238D01*
X141864285Y-110025238D02*
X141911904Y-110120476D01*
X141911904Y-110120476D02*
X141959523Y-110310952D01*
X141959523Y-110310952D02*
X141959523Y-110453809D01*
X141959523Y-110453809D02*
X141911904Y-110644285D01*
X141911904Y-110644285D02*
X141864285Y-110739523D01*
X141864285Y-110739523D02*
X141769047Y-110834761D01*
X141769047Y-110834761D02*
X141626190Y-110882380D01*
X141626190Y-110882380D02*
X141530952Y-110882380D01*
X141530952Y-110882380D02*
X141388095Y-110834761D01*
X141388095Y-110834761D02*
X141340476Y-110787142D01*
D13*
%TO.C,RV1*%
X112970000Y-114845000D02*
X118040000Y-114845000D01*
X112970000Y-114845000D02*
X112970000Y-105075000D01*
X118040000Y-114845000D02*
X118040000Y-105075000D01*
X112970000Y-105075000D02*
X118040000Y-105075000D01*
%TO.C,D3*%
X110740000Y-83500000D02*
X112000000Y-83500000D01*
D12*
X112000000Y-84900000D02*
X112000000Y-81900000D01*
X112000000Y-84900000D02*
X114450000Y-84900000D01*
X114450000Y-81900000D02*
X112050000Y-81900000D01*
D13*
X114500000Y-81500000D02*
X114500000Y-85500000D01*
X114500000Y-85500000D02*
X124500000Y-85500000D01*
D12*
X117500000Y-81600000D02*
X117500000Y-85400000D01*
D13*
X117500000Y-83500000D02*
X121100000Y-85300000D01*
X121100000Y-81600000D02*
X117500000Y-83500000D01*
X121100000Y-81600000D02*
X121100000Y-85300000D01*
X124500000Y-81500000D02*
X114500000Y-81500000D01*
D12*
X124500000Y-85000000D02*
X127000000Y-85000000D01*
D13*
X124500000Y-85500000D02*
X124500000Y-81500000D01*
D12*
X127000000Y-82000000D02*
X124600000Y-82000000D01*
X127000000Y-85000000D02*
X127000000Y-82000000D01*
D13*
X128000000Y-83500000D02*
X127000000Y-83500000D01*
%TO.C,D4*%
X110740000Y-89500000D02*
X112000000Y-89500000D01*
D12*
X112000000Y-90900000D02*
X112000000Y-87900000D01*
X112000000Y-90900000D02*
X114450000Y-90900000D01*
X114450000Y-87900000D02*
X112050000Y-87900000D01*
D13*
X114500000Y-87500000D02*
X114500000Y-91500000D01*
X114500000Y-91500000D02*
X124500000Y-91500000D01*
D12*
X117500000Y-87600000D02*
X117500000Y-91400000D01*
D13*
X117500000Y-89500000D02*
X121100000Y-91300000D01*
X121100000Y-87600000D02*
X117500000Y-89500000D01*
X121100000Y-87600000D02*
X121100000Y-91300000D01*
X124500000Y-87500000D02*
X114500000Y-87500000D01*
D12*
X124500000Y-91000000D02*
X127000000Y-91000000D01*
D13*
X124500000Y-91500000D02*
X124500000Y-87500000D01*
D12*
X127000000Y-88000000D02*
X124600000Y-88000000D01*
X127000000Y-91000000D02*
X127000000Y-88000000D01*
D13*
X128000000Y-89500000D02*
X127000000Y-89500000D01*
%TO.C,R3*%
X121460000Y-106500000D02*
X122230000Y-106500000D01*
X122230000Y-105130000D02*
X122230000Y-107870000D01*
X122230000Y-107870000D02*
X128770000Y-107870000D01*
X128770000Y-105130000D02*
X122230000Y-105130000D01*
X128770000Y-107870000D02*
X128770000Y-105130000D01*
X129540000Y-106500000D02*
X128770000Y-106500000D01*
%TO.C,D1*%
X148500000Y-112660000D02*
X148500000Y-111640000D01*
X146750000Y-111640000D02*
X150250000Y-111640000D01*
X150250000Y-111640000D02*
X150250000Y-104510000D01*
X147030000Y-109500000D02*
X149970000Y-109500000D01*
X147030000Y-109500000D02*
X148500000Y-107000000D01*
X149970000Y-109500000D02*
X148500000Y-107000000D01*
X147030000Y-107000000D02*
X149970000Y-107000000D01*
X150250000Y-104510000D02*
X146750000Y-104500000D01*
X146750000Y-104500000D02*
X146750000Y-111640000D01*
X148500000Y-103300000D02*
X148500000Y-104510000D01*
%TO.C,J1*%
X108170000Y-110230000D02*
X108170000Y-112830000D01*
X108170000Y-110230000D02*
X110830000Y-110230000D01*
X108170000Y-112830000D02*
X110830000Y-112830000D01*
X109500000Y-107630000D02*
X110830000Y-107630000D01*
X110830000Y-107630000D02*
X110830000Y-108960000D01*
X110830000Y-110230000D02*
X110830000Y-112830000D01*
%TO.C,D6*%
X110740000Y-101500000D02*
X112000000Y-101500000D01*
D12*
X112000000Y-102900000D02*
X112000000Y-99900000D01*
X112000000Y-102900000D02*
X114450000Y-102900000D01*
X114450000Y-99900000D02*
X112050000Y-99900000D01*
D13*
X114500000Y-99500000D02*
X114500000Y-103500000D01*
X114500000Y-103500000D02*
X124500000Y-103500000D01*
D12*
X117500000Y-99600000D02*
X117500000Y-103400000D01*
D13*
X117500000Y-101500000D02*
X121100000Y-103300000D01*
X121100000Y-99600000D02*
X117500000Y-101500000D01*
X121100000Y-99600000D02*
X121100000Y-103300000D01*
X124500000Y-99500000D02*
X114500000Y-99500000D01*
D12*
X124500000Y-103000000D02*
X127000000Y-103000000D01*
D13*
X124500000Y-103500000D02*
X124500000Y-99500000D01*
D12*
X127000000Y-100000000D02*
X124600000Y-100000000D01*
X127000000Y-103000000D02*
X127000000Y-100000000D01*
D13*
X128000000Y-101500000D02*
X127000000Y-101500000D01*
%TO.C,R1*%
X121460000Y-113500000D02*
X122230000Y-113500000D01*
X122230000Y-112130000D02*
X122230000Y-114870000D01*
X122230000Y-114870000D02*
X128770000Y-114870000D01*
X128770000Y-112130000D02*
X122230000Y-112130000D01*
X128770000Y-114870000D02*
X128770000Y-112130000D01*
X129540000Y-113500000D02*
X128770000Y-113500000D01*
%TO.C,R2*%
X121460000Y-110000000D02*
X122230000Y-110000000D01*
X122230000Y-108630000D02*
X122230000Y-111370000D01*
X122230000Y-111370000D02*
X128770000Y-111370000D01*
X128770000Y-108630000D02*
X122230000Y-108630000D01*
X128770000Y-111370000D02*
X128770000Y-108630000D01*
X129540000Y-110000000D02*
X128770000Y-110000000D01*
%TO.C,G\u002A\u002A\u002A*%
G36*
X108355021Y-118613541D02*
G01*
X108284904Y-118733404D01*
X108208240Y-118802845D01*
X108077433Y-118930823D01*
X108073586Y-119031770D01*
X108123533Y-119103207D01*
X108292518Y-119199491D01*
X108395953Y-119191873D01*
X108526518Y-119194191D01*
X108553333Y-119274628D01*
X108483918Y-119369324D01*
X108319973Y-119407905D01*
X108127949Y-119386780D01*
X107977600Y-119305733D01*
X107876424Y-119102608D01*
X107892207Y-118869057D01*
X108013042Y-118677952D01*
X108088024Y-118629765D01*
X108284251Y-118571589D01*
X108355021Y-118613541D01*
G37*
G36*
X110104247Y-118422223D02*
G01*
X110162000Y-118476000D01*
X110089463Y-118539357D01*
X109947676Y-118560667D01*
X109746226Y-118616046D01*
X109672691Y-118752093D01*
X109741642Y-118923671D01*
X109809214Y-118989592D01*
X109943296Y-119114105D01*
X109992667Y-119188071D01*
X109933299Y-119242088D01*
X109792698Y-119213533D01*
X109627119Y-119118681D01*
X109565002Y-119064336D01*
X109450328Y-118852571D01*
X109467063Y-118625503D01*
X109601911Y-118456130D01*
X109753625Y-118405632D01*
X109944758Y-118395170D01*
X110104247Y-118422223D01*
G37*
G36*
X109218059Y-118376895D02*
G01*
X109230667Y-118418086D01*
X109159681Y-118536485D01*
X109061333Y-118585199D01*
X108917999Y-118698670D01*
X108892000Y-118806740D01*
X108936139Y-118943031D01*
X109095438Y-118983870D01*
X109110722Y-118984000D01*
X109270580Y-119017320D01*
X109294206Y-119089833D01*
X109183593Y-119204022D01*
X108994591Y-119194623D01*
X108828500Y-119108125D01*
X108683204Y-118929492D01*
X108641741Y-118712153D01*
X108713702Y-118525362D01*
X108743833Y-118496729D01*
X108933998Y-118384725D01*
X109109764Y-118341922D01*
X109218059Y-118376895D01*
G37*
G36*
X110328924Y-118857000D02*
G01*
X110554715Y-118857000D01*
X110567724Y-118966228D01*
X110630324Y-118984000D01*
X110740254Y-118916168D01*
X110754667Y-118857000D01*
X110713761Y-118744259D01*
X110679058Y-118730000D01*
X110586502Y-118797379D01*
X110554715Y-118857000D01*
X110328924Y-118857000D01*
X110328931Y-118856976D01*
X110397788Y-118642913D01*
X110454929Y-118503375D01*
X110463034Y-118490923D01*
X110544058Y-118507302D01*
X110715239Y-118582976D01*
X110752046Y-118601645D01*
X110953800Y-118760862D01*
X111007626Y-118927611D01*
X110917666Y-119065422D01*
X110691167Y-119137531D01*
X110503743Y-119176972D01*
X110416757Y-119237398D01*
X110416000Y-119243364D01*
X110351410Y-119320399D01*
X110331333Y-119322667D01*
X110254109Y-119255056D01*
X110246667Y-119208301D01*
X110271007Y-119070470D01*
X110328924Y-118857000D01*
G37*
G36*
X111581783Y-119445702D02*
G01*
X111516902Y-119484137D01*
X111323156Y-119574759D01*
X111028207Y-119705149D01*
X110659715Y-119862889D01*
X110544617Y-119911318D01*
X110157599Y-120077420D01*
X109834164Y-120223615D01*
X109602798Y-120336461D01*
X109491988Y-120402516D01*
X109486436Y-120410645D01*
X109538353Y-120493134D01*
X109678665Y-120678038D01*
X109886372Y-120938522D01*
X110140472Y-121247747D01*
X110157969Y-121268745D01*
X110410953Y-121577033D01*
X110615248Y-121835491D01*
X110751085Y-122018405D01*
X110798700Y-122100061D01*
X110798084Y-122101471D01*
X110719945Y-122070533D01*
X110535299Y-121962859D01*
X110276865Y-121798095D01*
X110130375Y-121700559D01*
X109838782Y-121509980D01*
X109595852Y-121362609D01*
X109438200Y-121280154D01*
X109404130Y-121270000D01*
X109299071Y-121316406D01*
X109095096Y-121440163D01*
X108829540Y-121618076D01*
X108722667Y-121693333D01*
X108449442Y-121884589D01*
X108230574Y-122030883D01*
X108100655Y-122109369D01*
X108081595Y-122116667D01*
X108093138Y-122057903D01*
X108183542Y-121913501D01*
X108204962Y-121883833D01*
X108336602Y-121709692D01*
X108536875Y-121450381D01*
X108769080Y-121153318D01*
X108843895Y-121058333D01*
X109052201Y-120788809D01*
X109213218Y-120569819D01*
X109302863Y-120434608D01*
X109313500Y-120410039D01*
X109240120Y-120359808D01*
X109038150Y-120262069D01*
X108737027Y-120130152D01*
X108366188Y-119977391D01*
X108299849Y-119950912D01*
X107923326Y-119798547D01*
X107614273Y-119668208D01*
X107401093Y-119572274D01*
X107312189Y-119523125D01*
X107311582Y-119520195D01*
X107402376Y-119517211D01*
X107617450Y-119534234D01*
X107913407Y-119567667D01*
X107967234Y-119574541D01*
X108546753Y-119627901D01*
X109189517Y-119651080D01*
X109839082Y-119644732D01*
X110439003Y-119609513D01*
X110932837Y-119546076D01*
X110966333Y-119539750D01*
X111259900Y-119485939D01*
X111479009Y-119452061D01*
X111579958Y-119444795D01*
X111581783Y-119445702D01*
G37*
G36*
X106777363Y-119619260D02*
G01*
X107043786Y-119619260D01*
X107073630Y-119942551D01*
X107099020Y-120099384D01*
X107182644Y-120466934D01*
X107310695Y-120892060D01*
X107464427Y-121323501D01*
X107625092Y-121709996D01*
X107773946Y-122000281D01*
X107819339Y-122069058D01*
X107952421Y-122185564D01*
X108168704Y-122268051D01*
X108488997Y-122319763D01*
X108934111Y-122343940D01*
X109524858Y-122343824D01*
X109577178Y-122342898D01*
X110062666Y-122328591D01*
X110409476Y-122304255D01*
X110648152Y-122266018D01*
X110809236Y-122210012D01*
X110861117Y-122180250D01*
X111014540Y-122010789D01*
X111185267Y-121708721D01*
X111359614Y-121307915D01*
X111523895Y-120842239D01*
X111664428Y-120345558D01*
X111739791Y-120005593D01*
X111864131Y-119365000D01*
X111415232Y-118947958D01*
X111105801Y-118682632D01*
X110741879Y-118404473D01*
X110361434Y-118138999D01*
X110002434Y-117911728D01*
X109702846Y-117748180D01*
X109527918Y-117679462D01*
X109290741Y-117692547D01*
X108959294Y-117815048D01*
X108556981Y-118034620D01*
X108107207Y-118338915D01*
X107750873Y-118616905D01*
X107412990Y-118908343D01*
X107194895Y-119144391D01*
X107078018Y-119367285D01*
X107043786Y-119619260D01*
X106777363Y-119619260D01*
X106775333Y-119596354D01*
X106851629Y-119250209D01*
X106985810Y-119020367D01*
X107192772Y-118800060D01*
X107505199Y-118527764D01*
X107881135Y-118234806D01*
X108278627Y-117952513D01*
X108655720Y-117712211D01*
X108947381Y-117555696D01*
X109381488Y-117355058D01*
X109919910Y-117627037D01*
X110552486Y-117995853D01*
X111208961Y-118467091D01*
X111702994Y-118882425D01*
X111904605Y-119088492D01*
X111999978Y-119271160D01*
X112024647Y-119499633D01*
X112024667Y-119508912D01*
X111990610Y-119865797D01*
X111897644Y-120324886D01*
X111759569Y-120835453D01*
X111590187Y-121346776D01*
X111403301Y-121808131D01*
X111392829Y-121830962D01*
X111114050Y-122434343D01*
X110567589Y-122529505D01*
X110005993Y-122594167D01*
X109380022Y-122612862D01*
X108764551Y-122586189D01*
X108234456Y-122514747D01*
X108214667Y-122510669D01*
X107963689Y-122451220D01*
X107800310Y-122376524D01*
X107675926Y-122246388D01*
X107541931Y-122020615D01*
X107478750Y-121902078D01*
X107310198Y-121537528D01*
X107142584Y-121096664D01*
X106990727Y-120628061D01*
X106869444Y-120180294D01*
X106793554Y-119801936D01*
X106777363Y-119619260D01*
G37*
%TO.C,D2*%
X147160000Y-82500000D02*
X146140000Y-82500000D01*
X146140000Y-84250000D02*
X146140000Y-80750000D01*
X146140000Y-80750000D02*
X139010000Y-80750000D01*
X144000000Y-83970000D02*
X144000000Y-81030000D01*
X144000000Y-83970000D02*
X141500000Y-82500000D01*
X144000000Y-81030000D02*
X141500000Y-82500000D01*
X141500000Y-83970000D02*
X141500000Y-81030000D01*
X139010000Y-80750000D02*
X139000000Y-84250000D01*
X139000000Y-84250000D02*
X146140000Y-84250000D01*
X137800000Y-82500000D02*
X139010000Y-82500000D01*
%TO.C,J2*%
X136190000Y-88830000D02*
X141330000Y-88830000D01*
X136190000Y-88830000D02*
X136190000Y-86170000D01*
X141330000Y-88830000D02*
X141330000Y-86170000D01*
X133590000Y-87500000D02*
X133590000Y-86170000D01*
X133590000Y-86170000D02*
X134920000Y-86170000D01*
X136190000Y-86170000D02*
X141330000Y-86170000D01*
%TO.C,J3*%
X145330000Y-88730000D02*
X145330000Y-86130000D01*
X145330000Y-88730000D02*
X142670000Y-88730000D01*
X145330000Y-86130000D02*
X142670000Y-86130000D01*
X144000000Y-91330000D02*
X142670000Y-91330000D01*
X142670000Y-91330000D02*
X142670000Y-90000000D01*
X142670000Y-88730000D02*
X142670000Y-86130000D01*
%TO.C,D7*%
X148500000Y-97160000D02*
X148500000Y-96140000D01*
X146750000Y-96140000D02*
X150250000Y-96140000D01*
X150250000Y-96140000D02*
X150250000Y-89010000D01*
X147030000Y-94000000D02*
X149970000Y-94000000D01*
X147030000Y-94000000D02*
X148500000Y-91500000D01*
X149970000Y-94000000D02*
X148500000Y-91500000D01*
X147030000Y-91500000D02*
X149970000Y-91500000D01*
X150250000Y-89010000D02*
X146750000Y-89000000D01*
X146750000Y-89000000D02*
X146750000Y-96140000D01*
X148500000Y-87800000D02*
X148500000Y-89010000D01*
%TO.C,D5*%
X110740000Y-95500000D02*
X112000000Y-95500000D01*
D12*
X112000000Y-96900000D02*
X112000000Y-93900000D01*
X112000000Y-96900000D02*
X114450000Y-96900000D01*
X114450000Y-93900000D02*
X112050000Y-93900000D01*
D13*
X114500000Y-93500000D02*
X114500000Y-97500000D01*
X114500000Y-97500000D02*
X124500000Y-97500000D01*
D12*
X117500000Y-93600000D02*
X117500000Y-97400000D01*
D13*
X117500000Y-95500000D02*
X121100000Y-97300000D01*
X121100000Y-93600000D02*
X117500000Y-95500000D01*
X121100000Y-93600000D02*
X121100000Y-97300000D01*
X124500000Y-93500000D02*
X114500000Y-93500000D01*
D12*
X124500000Y-97000000D02*
X127000000Y-97000000D01*
D13*
X124500000Y-97500000D02*
X124500000Y-93500000D01*
D12*
X127000000Y-94000000D02*
X124600000Y-94000000D01*
X127000000Y-97000000D02*
X127000000Y-94000000D01*
D13*
X128000000Y-95500000D02*
X127000000Y-95500000D01*
%TO.C,C1*%
X132120354Y-92625000D02*
X133120354Y-92625000D01*
X132620354Y-92125000D02*
X132620354Y-93125000D01*
X137600000Y-90420000D02*
X137600000Y-100580000D01*
X137640000Y-90420000D02*
X137640000Y-100580000D01*
X137680000Y-90420000D02*
X137680000Y-100580000D01*
X137720000Y-90421000D02*
X137720000Y-100579000D01*
X137760000Y-90422000D02*
X137760000Y-100578000D01*
X137800000Y-90423000D02*
X137800000Y-100577000D01*
X137840000Y-90425000D02*
X137840000Y-100575000D01*
X137880000Y-90427000D02*
X137880000Y-100573000D01*
X137920000Y-90430000D02*
X137920000Y-100570000D01*
X137960000Y-90432000D02*
X137960000Y-100568000D01*
X138000000Y-90435000D02*
X138000000Y-100565000D01*
X138040000Y-90438000D02*
X138040000Y-100562000D01*
X138080000Y-90442000D02*
X138080000Y-100558000D01*
X138120000Y-90446000D02*
X138120000Y-100554000D01*
X138160000Y-90450000D02*
X138160000Y-100550000D01*
X138200000Y-90455000D02*
X138200000Y-100545000D01*
X138240000Y-90460000D02*
X138240000Y-100540000D01*
X138280000Y-90465000D02*
X138280000Y-94259000D01*
X138280000Y-96741000D02*
X138280000Y-100535000D01*
X138321000Y-90470000D02*
X138321000Y-94259000D01*
X138321000Y-96741000D02*
X138321000Y-100530000D01*
X138361000Y-90476000D02*
X138361000Y-94259000D01*
X138361000Y-96741000D02*
X138361000Y-100524000D01*
X138401000Y-90482000D02*
X138401000Y-94259000D01*
X138401000Y-96741000D02*
X138401000Y-100518000D01*
X138441000Y-90489000D02*
X138441000Y-94259000D01*
X138441000Y-96741000D02*
X138441000Y-100511000D01*
X138481000Y-90496000D02*
X138481000Y-94259000D01*
X138481000Y-96741000D02*
X138481000Y-100504000D01*
X138521000Y-90503000D02*
X138521000Y-94259000D01*
X138521000Y-96741000D02*
X138521000Y-100497000D01*
X138561000Y-90510000D02*
X138561000Y-94259000D01*
X138561000Y-96741000D02*
X138561000Y-100490000D01*
X138601000Y-90518000D02*
X138601000Y-94259000D01*
X138601000Y-96741000D02*
X138601000Y-100482000D01*
X138641000Y-90526000D02*
X138641000Y-94259000D01*
X138641000Y-96741000D02*
X138641000Y-100474000D01*
X138681000Y-90535000D02*
X138681000Y-94259000D01*
X138681000Y-96741000D02*
X138681000Y-100465000D01*
X138721000Y-90544000D02*
X138721000Y-94259000D01*
X138721000Y-96741000D02*
X138721000Y-100456000D01*
X138761000Y-90553000D02*
X138761000Y-94259000D01*
X138761000Y-96741000D02*
X138761000Y-100447000D01*
X138801000Y-90562000D02*
X138801000Y-94259000D01*
X138801000Y-96741000D02*
X138801000Y-100438000D01*
X138841000Y-90572000D02*
X138841000Y-94259000D01*
X138841000Y-96741000D02*
X138841000Y-100428000D01*
X138881000Y-90582000D02*
X138881000Y-94259000D01*
X138881000Y-96741000D02*
X138881000Y-100418000D01*
X138921000Y-90593000D02*
X138921000Y-94259000D01*
X138921000Y-96741000D02*
X138921000Y-100407000D01*
X138961000Y-90603000D02*
X138961000Y-94259000D01*
X138961000Y-96741000D02*
X138961000Y-100397000D01*
X139001000Y-90615000D02*
X139001000Y-94259000D01*
X139001000Y-96741000D02*
X139001000Y-100385000D01*
X139041000Y-90626000D02*
X139041000Y-94259000D01*
X139041000Y-96741000D02*
X139041000Y-100374000D01*
X139081000Y-90638000D02*
X139081000Y-94259000D01*
X139081000Y-96741000D02*
X139081000Y-100362000D01*
X139121000Y-90650000D02*
X139121000Y-94259000D01*
X139121000Y-96741000D02*
X139121000Y-100350000D01*
X139161000Y-90663000D02*
X139161000Y-94259000D01*
X139161000Y-96741000D02*
X139161000Y-100337000D01*
X139201000Y-90676000D02*
X139201000Y-94259000D01*
X139201000Y-96741000D02*
X139201000Y-100324000D01*
X139241000Y-90689000D02*
X139241000Y-94259000D01*
X139241000Y-96741000D02*
X139241000Y-100311000D01*
X139281000Y-90703000D02*
X139281000Y-94259000D01*
X139281000Y-96741000D02*
X139281000Y-100297000D01*
X139321000Y-90717000D02*
X139321000Y-94259000D01*
X139321000Y-96741000D02*
X139321000Y-100283000D01*
X139361000Y-90732000D02*
X139361000Y-94259000D01*
X139361000Y-96741000D02*
X139361000Y-100268000D01*
X139401000Y-90746000D02*
X139401000Y-94259000D01*
X139401000Y-96741000D02*
X139401000Y-100254000D01*
X139441000Y-90762000D02*
X139441000Y-94259000D01*
X139441000Y-96741000D02*
X139441000Y-100238000D01*
X139481000Y-90777000D02*
X139481000Y-94259000D01*
X139481000Y-96741000D02*
X139481000Y-100223000D01*
X139521000Y-90793000D02*
X139521000Y-94259000D01*
X139521000Y-96741000D02*
X139521000Y-100207000D01*
X139561000Y-90810000D02*
X139561000Y-94259000D01*
X139561000Y-96741000D02*
X139561000Y-100190000D01*
X139601000Y-90826000D02*
X139601000Y-94259000D01*
X139601000Y-96741000D02*
X139601000Y-100174000D01*
X139641000Y-90843000D02*
X139641000Y-94259000D01*
X139641000Y-96741000D02*
X139641000Y-100157000D01*
X139681000Y-90861000D02*
X139681000Y-94259000D01*
X139681000Y-96741000D02*
X139681000Y-100139000D01*
X139721000Y-90879000D02*
X139721000Y-94259000D01*
X139721000Y-96741000D02*
X139721000Y-100121000D01*
X139761000Y-90897000D02*
X139761000Y-94259000D01*
X139761000Y-96741000D02*
X139761000Y-100103000D01*
X139801000Y-90916000D02*
X139801000Y-94259000D01*
X139801000Y-96741000D02*
X139801000Y-100084000D01*
X139841000Y-90936000D02*
X139841000Y-94259000D01*
X139841000Y-96741000D02*
X139841000Y-100064000D01*
X139881000Y-90955000D02*
X139881000Y-94259000D01*
X139881000Y-96741000D02*
X139881000Y-100045000D01*
X139921000Y-90975000D02*
X139921000Y-94259000D01*
X139921000Y-96741000D02*
X139921000Y-100025000D01*
X139961000Y-90996000D02*
X139961000Y-94259000D01*
X139961000Y-96741000D02*
X139961000Y-100004000D01*
X140001000Y-91017000D02*
X140001000Y-94259000D01*
X140001000Y-96741000D02*
X140001000Y-99983000D01*
X140041000Y-91038000D02*
X140041000Y-94259000D01*
X140041000Y-96741000D02*
X140041000Y-99962000D01*
X140081000Y-91060000D02*
X140081000Y-94259000D01*
X140081000Y-96741000D02*
X140081000Y-99940000D01*
X140121000Y-91083000D02*
X140121000Y-94259000D01*
X140121000Y-96741000D02*
X140121000Y-99917000D01*
X140161000Y-91105000D02*
X140161000Y-94259000D01*
X140161000Y-96741000D02*
X140161000Y-99895000D01*
X140201000Y-91129000D02*
X140201000Y-94259000D01*
X140201000Y-96741000D02*
X140201000Y-99871000D01*
X140241000Y-91153000D02*
X140241000Y-94259000D01*
X140241000Y-96741000D02*
X140241000Y-99847000D01*
X140281000Y-91177000D02*
X140281000Y-94259000D01*
X140281000Y-96741000D02*
X140281000Y-99823000D01*
X140321000Y-91202000D02*
X140321000Y-94259000D01*
X140321000Y-96741000D02*
X140321000Y-99798000D01*
X140361000Y-91227000D02*
X140361000Y-94259000D01*
X140361000Y-96741000D02*
X140361000Y-99773000D01*
X140401000Y-91253000D02*
X140401000Y-94259000D01*
X140401000Y-96741000D02*
X140401000Y-99747000D01*
X140441000Y-91279000D02*
X140441000Y-94259000D01*
X140441000Y-96741000D02*
X140441000Y-99721000D01*
X140481000Y-91306000D02*
X140481000Y-94259000D01*
X140481000Y-96741000D02*
X140481000Y-99694000D01*
X140521000Y-91334000D02*
X140521000Y-94259000D01*
X140521000Y-96741000D02*
X140521000Y-99666000D01*
X140561000Y-91362000D02*
X140561000Y-94259000D01*
X140561000Y-96741000D02*
X140561000Y-99638000D01*
X140601000Y-91390000D02*
X140601000Y-94259000D01*
X140601000Y-96741000D02*
X140601000Y-99610000D01*
X140641000Y-91420000D02*
X140641000Y-94259000D01*
X140641000Y-96741000D02*
X140641000Y-99580000D01*
X140681000Y-91450000D02*
X140681000Y-94259000D01*
X140681000Y-96741000D02*
X140681000Y-99550000D01*
X140721000Y-91480000D02*
X140721000Y-94259000D01*
X140721000Y-96741000D02*
X140721000Y-99520000D01*
X140761000Y-91511000D02*
X140761000Y-99489000D01*
X140801000Y-91543000D02*
X140801000Y-99457000D01*
X140841000Y-91575000D02*
X140841000Y-99425000D01*
X140881000Y-91608000D02*
X140881000Y-99392000D01*
X140921000Y-91642000D02*
X140921000Y-99358000D01*
X140961000Y-91676000D02*
X140961000Y-99324000D01*
X141001000Y-91711000D02*
X141001000Y-99289000D01*
X141041000Y-91747000D02*
X141041000Y-99253000D01*
X141081000Y-91784000D02*
X141081000Y-99216000D01*
X141121000Y-91821000D02*
X141121000Y-99179000D01*
X141161000Y-91860000D02*
X141161000Y-99140000D01*
X141201000Y-91899000D02*
X141201000Y-99101000D01*
X141241000Y-91939000D02*
X141241000Y-99061000D01*
X141281000Y-91980000D02*
X141281000Y-99020000D01*
X141321000Y-92022000D02*
X141321000Y-98978000D01*
X141361000Y-92064000D02*
X141361000Y-98936000D01*
X141401000Y-92108000D02*
X141401000Y-98892000D01*
X141441000Y-92153000D02*
X141441000Y-98847000D01*
X141481000Y-92199000D02*
X141481000Y-98801000D01*
X141521000Y-92246000D02*
X141521000Y-98754000D01*
X141561000Y-92294000D02*
X141561000Y-98706000D01*
X141601000Y-92344000D02*
X141601000Y-98656000D01*
X141641000Y-92394000D02*
X141641000Y-98606000D01*
X141681000Y-92446000D02*
X141681000Y-98554000D01*
X141721000Y-92500000D02*
X141721000Y-98500000D01*
X141761000Y-92555000D02*
X141761000Y-98445000D01*
X141801000Y-92611000D02*
X141801000Y-98389000D01*
X141841000Y-92670000D02*
X141841000Y-98330000D01*
X141881000Y-92730000D02*
X141881000Y-98270000D01*
X141921000Y-92791000D02*
X141921000Y-98209000D01*
X141961000Y-92855000D02*
X141961000Y-98145000D01*
X142001000Y-92921000D02*
X142001000Y-98079000D01*
X142041000Y-92990000D02*
X142041000Y-98010000D01*
X142081000Y-93061000D02*
X142081000Y-97939000D01*
X142121000Y-93135000D02*
X142121000Y-97865000D01*
X142161000Y-93211000D02*
X142161000Y-97789000D01*
X142201000Y-93291000D02*
X142201000Y-97709000D01*
X142241000Y-93375000D02*
X142241000Y-97625000D01*
X142281000Y-93463000D02*
X142281000Y-97537000D01*
X142321000Y-93556000D02*
X142321000Y-97444000D01*
X142361000Y-93654000D02*
X142361000Y-97346000D01*
X142401000Y-93758000D02*
X142401000Y-97242000D01*
X142441000Y-93870000D02*
X142441000Y-97130000D01*
X142481000Y-93990000D02*
X142481000Y-97010000D01*
X142521000Y-94122000D02*
X142521000Y-96878000D01*
X142561000Y-94270000D02*
X142561000Y-96730000D01*
X142601000Y-94438000D02*
X142601000Y-96562000D01*
X142641000Y-94638000D02*
X142641000Y-96362000D01*
X142681000Y-94901000D02*
X142681000Y-96099000D01*
X142720000Y-95500000D02*
G75*
G03*
X142720000Y-95500000I-5120000J0D01*
G01*
D12*
%TO.C,Q1*%
X143650000Y-109000000D02*
G75*
G03*
X143650000Y-109000000I-4660000J0D01*
G01*
X144850000Y-109000000D02*
G75*
G03*
X144850000Y-109000000I-5860000J0D01*
G01*
%TD*%
M02*
