%TF.GenerationSoftware,KiCad,Pcbnew,8.0.0*%
%TF.CreationDate,2024-03-19T09:35:59+03:00*%
%TF.ProjectId,germanium-power-src,6765726d-616e-4697-956d-2d706f776572,rev?*%
%TF.SameCoordinates,Original*%
%TF.FileFunction,Legend,Top*%
%TF.FilePolarity,Positive*%
%FSLAX46Y46*%
G04 Gerber Fmt 4.6, Leading zero omitted, Abs format (unit mm)*
G04 Created by KiCad (PCBNEW 8.0.0) date 2024-03-19 09:35:59*
%MOMM*%
%LPD*%
G01*
G04 APERTURE LIST*
%ADD10C,0.300000*%
%ADD11C,0.150000*%
%ADD12C,0.100000*%
%ADD13C,0.120000*%
%ADD14C,0.000000*%
G04 APERTURE END LIST*
D10*
X113554510Y-119600828D02*
X113554510Y-118100828D01*
X113554510Y-118100828D02*
X114125939Y-118100828D01*
X114125939Y-118100828D02*
X114268796Y-118172257D01*
X114268796Y-118172257D02*
X114340225Y-118243685D01*
X114340225Y-118243685D02*
X114411653Y-118386542D01*
X114411653Y-118386542D02*
X114411653Y-118600828D01*
X114411653Y-118600828D02*
X114340225Y-118743685D01*
X114340225Y-118743685D02*
X114268796Y-118815114D01*
X114268796Y-118815114D02*
X114125939Y-118886542D01*
X114125939Y-118886542D02*
X113554510Y-118886542D01*
X115625939Y-119529400D02*
X115483082Y-119600828D01*
X115483082Y-119600828D02*
X115197368Y-119600828D01*
X115197368Y-119600828D02*
X115054510Y-119529400D01*
X115054510Y-119529400D02*
X114983082Y-119386542D01*
X114983082Y-119386542D02*
X114983082Y-118815114D01*
X114983082Y-118815114D02*
X115054510Y-118672257D01*
X115054510Y-118672257D02*
X115197368Y-118600828D01*
X115197368Y-118600828D02*
X115483082Y-118600828D01*
X115483082Y-118600828D02*
X115625939Y-118672257D01*
X115625939Y-118672257D02*
X115697368Y-118815114D01*
X115697368Y-118815114D02*
X115697368Y-118957971D01*
X115697368Y-118957971D02*
X114983082Y-119100828D01*
X116340224Y-119600828D02*
X116340224Y-118600828D01*
X116340224Y-118600828D02*
X116911653Y-118600828D01*
X117268796Y-118600828D02*
X117625939Y-119600828D01*
X117983082Y-118600828D02*
X117625939Y-119600828D01*
X117625939Y-119600828D02*
X117483082Y-119957971D01*
X117483082Y-119957971D02*
X117411653Y-120029400D01*
X117411653Y-120029400D02*
X117268796Y-120100828D01*
X119125939Y-119600828D02*
X119125939Y-118600828D01*
X119125939Y-118600828D02*
X118911653Y-118600828D01*
X118911653Y-118600828D02*
X118768796Y-118672257D01*
X118768796Y-118672257D02*
X118697368Y-118815114D01*
X118697368Y-118815114D02*
X118625939Y-119386542D01*
X118625939Y-119386542D02*
X118554510Y-119529400D01*
X118554510Y-119529400D02*
X118411653Y-119600828D01*
X120125939Y-119172257D02*
X119768796Y-119600828D01*
X120411653Y-119600828D02*
X120411653Y-118600828D01*
X120411653Y-118600828D02*
X119983082Y-118600828D01*
X119983082Y-118600828D02*
X119840224Y-118672257D01*
X119840224Y-118672257D02*
X119768796Y-118815114D01*
X119768796Y-118815114D02*
X119768796Y-118957971D01*
X119768796Y-118957971D02*
X119840224Y-119100828D01*
X119840224Y-119100828D02*
X119983082Y-119172257D01*
X119983082Y-119172257D02*
X120411653Y-119172257D01*
X120911653Y-118600828D02*
X121625938Y-118600828D01*
X121268796Y-118600828D02*
X121268796Y-119600828D01*
X122340224Y-119600828D02*
X122197367Y-119529400D01*
X122197367Y-119529400D02*
X122125938Y-119457971D01*
X122125938Y-119457971D02*
X122054510Y-119315114D01*
X122054510Y-119315114D02*
X122054510Y-118886542D01*
X122054510Y-118886542D02*
X122125938Y-118743685D01*
X122125938Y-118743685D02*
X122197367Y-118672257D01*
X122197367Y-118672257D02*
X122340224Y-118600828D01*
X122340224Y-118600828D02*
X122554510Y-118600828D01*
X122554510Y-118600828D02*
X122697367Y-118672257D01*
X122697367Y-118672257D02*
X122768796Y-118743685D01*
X122768796Y-118743685D02*
X122840224Y-118886542D01*
X122840224Y-118886542D02*
X122840224Y-119315114D01*
X122840224Y-119315114D02*
X122768796Y-119457971D01*
X122768796Y-119457971D02*
X122697367Y-119529400D01*
X122697367Y-119529400D02*
X122554510Y-119600828D01*
X122554510Y-119600828D02*
X122340224Y-119600828D01*
X123483081Y-118600828D02*
X123483081Y-120100828D01*
X123483081Y-118672257D02*
X123625939Y-118600828D01*
X123625939Y-118600828D02*
X123911653Y-118600828D01*
X123911653Y-118600828D02*
X124054510Y-118672257D01*
X124054510Y-118672257D02*
X124125939Y-118743685D01*
X124125939Y-118743685D02*
X124197367Y-118886542D01*
X124197367Y-118886542D02*
X124197367Y-119315114D01*
X124197367Y-119315114D02*
X124125939Y-119457971D01*
X124125939Y-119457971D02*
X124054510Y-119529400D01*
X124054510Y-119529400D02*
X123911653Y-119600828D01*
X123911653Y-119600828D02*
X123625939Y-119600828D01*
X123625939Y-119600828D02*
X123483081Y-119529400D01*
X125983081Y-119100828D02*
X126625939Y-119100828D01*
X125983081Y-118600828D02*
X125983081Y-119600828D01*
X126625939Y-118600828D02*
X126625939Y-119600828D01*
X127983082Y-119600828D02*
X127983082Y-118815114D01*
X127983082Y-118815114D02*
X127911653Y-118672257D01*
X127911653Y-118672257D02*
X127768796Y-118600828D01*
X127768796Y-118600828D02*
X127483082Y-118600828D01*
X127483082Y-118600828D02*
X127340224Y-118672257D01*
X127983082Y-119529400D02*
X127840224Y-119600828D01*
X127840224Y-119600828D02*
X127483082Y-119600828D01*
X127483082Y-119600828D02*
X127340224Y-119529400D01*
X127340224Y-119529400D02*
X127268796Y-119386542D01*
X127268796Y-119386542D02*
X127268796Y-119243685D01*
X127268796Y-119243685D02*
X127340224Y-119100828D01*
X127340224Y-119100828D02*
X127483082Y-119029400D01*
X127483082Y-119029400D02*
X127840224Y-119029400D01*
X127840224Y-119029400D02*
X127983082Y-118957971D01*
X128697367Y-119600828D02*
X128697367Y-118600828D01*
X128697367Y-118600828D02*
X129340225Y-118600828D01*
X129340225Y-118600828D02*
X129340225Y-119600828D01*
X130054510Y-118600828D02*
X130054510Y-120100828D01*
X130054510Y-118672257D02*
X130197368Y-118600828D01*
X130197368Y-118600828D02*
X130483082Y-118600828D01*
X130483082Y-118600828D02*
X130625939Y-118672257D01*
X130625939Y-118672257D02*
X130697368Y-118743685D01*
X130697368Y-118743685D02*
X130768796Y-118886542D01*
X130768796Y-118886542D02*
X130768796Y-119315114D01*
X130768796Y-119315114D02*
X130697368Y-119457971D01*
X130697368Y-119457971D02*
X130625939Y-119529400D01*
X130625939Y-119529400D02*
X130483082Y-119600828D01*
X130483082Y-119600828D02*
X130197368Y-119600828D01*
X130197368Y-119600828D02*
X130054510Y-119529400D01*
X131697368Y-119172257D02*
X131340225Y-119600828D01*
X131983082Y-119600828D02*
X131983082Y-118600828D01*
X131983082Y-118600828D02*
X131554511Y-118600828D01*
X131554511Y-118600828D02*
X131411653Y-118672257D01*
X131411653Y-118672257D02*
X131340225Y-118815114D01*
X131340225Y-118815114D02*
X131340225Y-118957971D01*
X131340225Y-118957971D02*
X131411653Y-119100828D01*
X131411653Y-119100828D02*
X131554511Y-119172257D01*
X131554511Y-119172257D02*
X131983082Y-119172257D01*
X133125939Y-119100828D02*
X132625939Y-119600828D01*
X133197367Y-119172257D02*
X132625939Y-118600828D01*
X133197367Y-118600828D02*
X133197367Y-119600828D01*
X133768796Y-119600828D02*
X133268796Y-119100828D01*
X133768796Y-118600828D02*
X133197367Y-119172257D01*
X134983082Y-119529400D02*
X134840225Y-119600828D01*
X134840225Y-119600828D02*
X134554511Y-119600828D01*
X134554511Y-119600828D02*
X134411653Y-119529400D01*
X134411653Y-119529400D02*
X134340225Y-119386542D01*
X134340225Y-119386542D02*
X134340225Y-118815114D01*
X134340225Y-118815114D02*
X134411653Y-118672257D01*
X134411653Y-118672257D02*
X134554511Y-118600828D01*
X134554511Y-118600828D02*
X134840225Y-118600828D01*
X134840225Y-118600828D02*
X134983082Y-118672257D01*
X134983082Y-118672257D02*
X135054511Y-118815114D01*
X135054511Y-118815114D02*
X135054511Y-118957971D01*
X135054511Y-118957971D02*
X134340225Y-119100828D01*
X135697367Y-119100828D02*
X136340225Y-119100828D01*
X135697367Y-118600828D02*
X135697367Y-119600828D01*
X136340225Y-118600828D02*
X136340225Y-119600828D01*
X137054510Y-118600828D02*
X137054510Y-119600828D01*
X137054510Y-119600828D02*
X137768796Y-118600828D01*
X137768796Y-118600828D02*
X137768796Y-119600828D01*
X138768796Y-119172257D02*
X138411653Y-119600828D01*
X139054510Y-119600828D02*
X139054510Y-118600828D01*
X139054510Y-118600828D02*
X138625939Y-118600828D01*
X138625939Y-118600828D02*
X138483081Y-118672257D01*
X138483081Y-118672257D02*
X138411653Y-118815114D01*
X138411653Y-118815114D02*
X138411653Y-118957971D01*
X138411653Y-118957971D02*
X138483081Y-119100828D01*
X138483081Y-119100828D02*
X138625939Y-119172257D01*
X138625939Y-119172257D02*
X139054510Y-119172257D01*
D11*
X112654819Y-110650476D02*
X112654819Y-111221904D01*
X112654819Y-110936190D02*
X111654819Y-110936190D01*
X111654819Y-110936190D02*
X111797676Y-111031428D01*
X111797676Y-111031428D02*
X111892914Y-111126666D01*
X111892914Y-111126666D02*
X111940533Y-111221904D01*
X111654819Y-110031428D02*
X111654819Y-109936190D01*
X111654819Y-109936190D02*
X111702438Y-109840952D01*
X111702438Y-109840952D02*
X111750057Y-109793333D01*
X111750057Y-109793333D02*
X111845295Y-109745714D01*
X111845295Y-109745714D02*
X112035771Y-109698095D01*
X112035771Y-109698095D02*
X112273866Y-109698095D01*
X112273866Y-109698095D02*
X112464342Y-109745714D01*
X112464342Y-109745714D02*
X112559580Y-109793333D01*
X112559580Y-109793333D02*
X112607200Y-109840952D01*
X112607200Y-109840952D02*
X112654819Y-109936190D01*
X112654819Y-109936190D02*
X112654819Y-110031428D01*
X112654819Y-110031428D02*
X112607200Y-110126666D01*
X112607200Y-110126666D02*
X112559580Y-110174285D01*
X112559580Y-110174285D02*
X112464342Y-110221904D01*
X112464342Y-110221904D02*
X112273866Y-110269523D01*
X112273866Y-110269523D02*
X112035771Y-110269523D01*
X112035771Y-110269523D02*
X111845295Y-110221904D01*
X111845295Y-110221904D02*
X111750057Y-110174285D01*
X111750057Y-110174285D02*
X111702438Y-110126666D01*
X111702438Y-110126666D02*
X111654819Y-110031428D01*
X112654819Y-109269523D02*
X111654819Y-109269523D01*
X112654819Y-108698095D02*
X112083390Y-109126666D01*
X111654819Y-108698095D02*
X112226247Y-109269523D01*
X118952381Y-84192914D02*
X118952381Y-83954819D01*
X118952381Y-83954819D02*
X118095238Y-83954819D01*
X118095238Y-83954819D02*
X118095238Y-84192914D01*
X118761904Y-83954819D02*
X118761904Y-82954819D01*
X118761904Y-82954819D02*
X118523809Y-82954819D01*
X118523809Y-82954819D02*
X118428571Y-83002438D01*
X118428571Y-83002438D02*
X118380952Y-83050057D01*
X118380952Y-83050057D02*
X118333333Y-83145295D01*
X118333333Y-83145295D02*
X118238095Y-83954819D01*
X119238095Y-82954819D02*
X119904761Y-82954819D01*
X119904761Y-82954819D02*
X119476190Y-83954819D01*
X129238095Y-85954819D02*
X129238095Y-84954819D01*
X129809523Y-85954819D02*
X129380952Y-85383390D01*
X129809523Y-84954819D02*
X129238095Y-85526247D01*
X119952381Y-90192914D02*
X119952381Y-89954819D01*
X119952381Y-89954819D02*
X119095238Y-89954819D01*
X119095238Y-89954819D02*
X119095238Y-90192914D01*
X119761904Y-89954819D02*
X119761904Y-88954819D01*
X119761904Y-88954819D02*
X119523809Y-88954819D01*
X119523809Y-88954819D02*
X119428571Y-89002438D01*
X119428571Y-89002438D02*
X119380952Y-89050057D01*
X119380952Y-89050057D02*
X119333333Y-89145295D01*
X119333333Y-89145295D02*
X119238095Y-89954819D01*
X120238095Y-88954819D02*
X120904761Y-88954819D01*
X120904761Y-88954819D02*
X120476190Y-89954819D01*
X109238095Y-87954819D02*
X109238095Y-86954819D01*
X109809523Y-87954819D02*
X109380952Y-87383390D01*
X109809523Y-86954819D02*
X109238095Y-87526247D01*
X125285714Y-107154819D02*
X124714286Y-107154819D01*
X125000000Y-107154819D02*
X125000000Y-106154819D01*
X125000000Y-106154819D02*
X124904762Y-106297676D01*
X124904762Y-106297676D02*
X124809524Y-106392914D01*
X124809524Y-106392914D02*
X124714286Y-106440533D01*
X125714286Y-107154819D02*
X125714286Y-106154819D01*
X126285714Y-107154819D02*
X125857143Y-106583390D01*
X126285714Y-106154819D02*
X125714286Y-106726247D01*
X149192914Y-109000000D02*
X148954819Y-109000000D01*
X148954819Y-109000000D02*
X148954819Y-109857142D01*
X148954819Y-109857142D02*
X149192914Y-109857142D01*
X148954819Y-109190476D02*
X147954819Y-109190476D01*
X147954819Y-109190476D02*
X147954819Y-109428571D01*
X147954819Y-109428571D02*
X148002438Y-109523809D01*
X148002438Y-109523809D02*
X148050057Y-109571428D01*
X148050057Y-109571428D02*
X148145295Y-109619047D01*
X148145295Y-109619047D02*
X148954819Y-109714285D01*
X148383390Y-108476190D02*
X148335771Y-108571428D01*
X148335771Y-108571428D02*
X148288152Y-108619047D01*
X148288152Y-108619047D02*
X148192914Y-108666666D01*
X148192914Y-108666666D02*
X148145295Y-108666666D01*
X148145295Y-108666666D02*
X148050057Y-108619047D01*
X148050057Y-108619047D02*
X148002438Y-108571428D01*
X148002438Y-108571428D02*
X147954819Y-108476190D01*
X147954819Y-108476190D02*
X147954819Y-108285714D01*
X147954819Y-108285714D02*
X148002438Y-108190476D01*
X148002438Y-108190476D02*
X148050057Y-108142857D01*
X148050057Y-108142857D02*
X148145295Y-108095238D01*
X148145295Y-108095238D02*
X148192914Y-108095238D01*
X148192914Y-108095238D02*
X148288152Y-108142857D01*
X148288152Y-108142857D02*
X148335771Y-108190476D01*
X148335771Y-108190476D02*
X148383390Y-108285714D01*
X148383390Y-108285714D02*
X148383390Y-108476190D01*
X148383390Y-108476190D02*
X148431009Y-108571428D01*
X148431009Y-108571428D02*
X148478628Y-108619047D01*
X148478628Y-108619047D02*
X148573866Y-108666666D01*
X148573866Y-108666666D02*
X148764342Y-108666666D01*
X148764342Y-108666666D02*
X148859580Y-108619047D01*
X148859580Y-108619047D02*
X148907200Y-108571428D01*
X148907200Y-108571428D02*
X148954819Y-108476190D01*
X148954819Y-108476190D02*
X148954819Y-108285714D01*
X148954819Y-108285714D02*
X148907200Y-108190476D01*
X148907200Y-108190476D02*
X148859580Y-108142857D01*
X148859580Y-108142857D02*
X148764342Y-108095238D01*
X148764342Y-108095238D02*
X148573866Y-108095238D01*
X148573866Y-108095238D02*
X148478628Y-108142857D01*
X148478628Y-108142857D02*
X148431009Y-108190476D01*
X148431009Y-108190476D02*
X148383390Y-108285714D01*
X148954819Y-107142857D02*
X148954819Y-107714285D01*
X148954819Y-107428571D02*
X147954819Y-107428571D01*
X147954819Y-107428571D02*
X148097676Y-107523809D01*
X148097676Y-107523809D02*
X148192914Y-107619047D01*
X148192914Y-107619047D02*
X148240533Y-107714285D01*
X148288152Y-106285714D02*
X148954819Y-106285714D01*
X147907200Y-106523809D02*
X148621485Y-106761904D01*
X148621485Y-106761904D02*
X148621485Y-106142857D01*
X146569104Y-114238094D02*
X146569104Y-113761904D01*
X146854819Y-114333332D02*
X145854819Y-113999999D01*
X145854819Y-113999999D02*
X146854819Y-113666666D01*
X108261904Y-114201009D02*
X108404761Y-114248628D01*
X108404761Y-114248628D02*
X108452380Y-114296247D01*
X108452380Y-114296247D02*
X108499999Y-114391485D01*
X108499999Y-114391485D02*
X108499999Y-114534342D01*
X108499999Y-114534342D02*
X108452380Y-114629580D01*
X108452380Y-114629580D02*
X108404761Y-114677200D01*
X108404761Y-114677200D02*
X108309523Y-114724819D01*
X108309523Y-114724819D02*
X107928571Y-114724819D01*
X107928571Y-114724819D02*
X107928571Y-113724819D01*
X107928571Y-113724819D02*
X108261904Y-113724819D01*
X108261904Y-113724819D02*
X108357142Y-113772438D01*
X108357142Y-113772438D02*
X108404761Y-113820057D01*
X108404761Y-113820057D02*
X108452380Y-113915295D01*
X108452380Y-113915295D02*
X108452380Y-114010533D01*
X108452380Y-114010533D02*
X108404761Y-114105771D01*
X108404761Y-114105771D02*
X108357142Y-114153390D01*
X108357142Y-114153390D02*
X108261904Y-114201009D01*
X108261904Y-114201009D02*
X107928571Y-114201009D01*
X108833333Y-114724819D02*
X109357142Y-114058152D01*
X108833333Y-114058152D02*
X109357142Y-114724819D01*
X109880952Y-114724819D02*
X109785714Y-114677200D01*
X109785714Y-114677200D02*
X109738095Y-114629580D01*
X109738095Y-114629580D02*
X109690476Y-114534342D01*
X109690476Y-114534342D02*
X109690476Y-114248628D01*
X109690476Y-114248628D02*
X109738095Y-114153390D01*
X109738095Y-114153390D02*
X109785714Y-114105771D01*
X109785714Y-114105771D02*
X109880952Y-114058152D01*
X109880952Y-114058152D02*
X110023809Y-114058152D01*
X110023809Y-114058152D02*
X110119047Y-114105771D01*
X110119047Y-114105771D02*
X110166666Y-114153390D01*
X110166666Y-114153390D02*
X110214285Y-114248628D01*
X110214285Y-114248628D02*
X110214285Y-114534342D01*
X110214285Y-114534342D02*
X110166666Y-114629580D01*
X110166666Y-114629580D02*
X110119047Y-114677200D01*
X110119047Y-114677200D02*
X110023809Y-114724819D01*
X110023809Y-114724819D02*
X109880952Y-114724819D01*
X111119047Y-114153390D02*
X111071428Y-114105771D01*
X111071428Y-114105771D02*
X110976190Y-114058152D01*
X110976190Y-114058152D02*
X110785714Y-114058152D01*
X110785714Y-114058152D02*
X110690476Y-114105771D01*
X110690476Y-114105771D02*
X110642857Y-114153390D01*
X110642857Y-114153390D02*
X110595238Y-114248628D01*
X110595238Y-114248628D02*
X110595238Y-114534342D01*
X110595238Y-114534342D02*
X110642857Y-114629580D01*
X110642857Y-114629580D02*
X110690476Y-114677200D01*
X110690476Y-114677200D02*
X110785714Y-114724819D01*
X110785714Y-114724819D02*
X110928571Y-114724819D01*
X110928571Y-114724819D02*
X111023809Y-114677200D01*
X111023809Y-114677200D02*
X111071428Y-114629580D01*
X111071428Y-114629580D02*
X111119047Y-114534342D01*
X111119047Y-114534342D02*
X111119047Y-113915295D01*
X111119047Y-113915295D02*
X111071428Y-113820057D01*
X111071428Y-113820057D02*
X111023809Y-113772438D01*
X111023809Y-113772438D02*
X110928571Y-113724819D01*
X110928571Y-113724819D02*
X110738095Y-113724819D01*
X110738095Y-113724819D02*
X110642857Y-113772438D01*
X119952381Y-102192914D02*
X119952381Y-101954819D01*
X119952381Y-101954819D02*
X119095238Y-101954819D01*
X119095238Y-101954819D02*
X119095238Y-102192914D01*
X119761904Y-101954819D02*
X119761904Y-100954819D01*
X119761904Y-100954819D02*
X119523809Y-100954819D01*
X119523809Y-100954819D02*
X119428571Y-101002438D01*
X119428571Y-101002438D02*
X119380952Y-101050057D01*
X119380952Y-101050057D02*
X119333333Y-101145295D01*
X119333333Y-101145295D02*
X119238095Y-101954819D01*
X120238095Y-100954819D02*
X120904761Y-100954819D01*
X120904761Y-100954819D02*
X120476190Y-101954819D01*
X109238095Y-99954819D02*
X109238095Y-98954819D01*
X109809523Y-99954819D02*
X109380952Y-99383390D01*
X109809523Y-98954819D02*
X109238095Y-99526247D01*
X124785714Y-113054819D02*
X124309524Y-113054819D01*
X124309524Y-113054819D02*
X124261905Y-113531009D01*
X124261905Y-113531009D02*
X124309524Y-113483390D01*
X124309524Y-113483390D02*
X124404762Y-113435771D01*
X124404762Y-113435771D02*
X124642857Y-113435771D01*
X124642857Y-113435771D02*
X124738095Y-113483390D01*
X124738095Y-113483390D02*
X124785714Y-113531009D01*
X124785714Y-113531009D02*
X124833333Y-113626247D01*
X124833333Y-113626247D02*
X124833333Y-113864342D01*
X124833333Y-113864342D02*
X124785714Y-113959580D01*
X124785714Y-113959580D02*
X124738095Y-114007200D01*
X124738095Y-114007200D02*
X124642857Y-114054819D01*
X124642857Y-114054819D02*
X124404762Y-114054819D01*
X124404762Y-114054819D02*
X124309524Y-114007200D01*
X124309524Y-114007200D02*
X124261905Y-113959580D01*
X125690476Y-113054819D02*
X125500000Y-113054819D01*
X125500000Y-113054819D02*
X125404762Y-113102438D01*
X125404762Y-113102438D02*
X125357143Y-113150057D01*
X125357143Y-113150057D02*
X125261905Y-113292914D01*
X125261905Y-113292914D02*
X125214286Y-113483390D01*
X125214286Y-113483390D02*
X125214286Y-113864342D01*
X125214286Y-113864342D02*
X125261905Y-113959580D01*
X125261905Y-113959580D02*
X125309524Y-114007200D01*
X125309524Y-114007200D02*
X125404762Y-114054819D01*
X125404762Y-114054819D02*
X125595238Y-114054819D01*
X125595238Y-114054819D02*
X125690476Y-114007200D01*
X125690476Y-114007200D02*
X125738095Y-113959580D01*
X125738095Y-113959580D02*
X125785714Y-113864342D01*
X125785714Y-113864342D02*
X125785714Y-113626247D01*
X125785714Y-113626247D02*
X125738095Y-113531009D01*
X125738095Y-113531009D02*
X125690476Y-113483390D01*
X125690476Y-113483390D02*
X125595238Y-113435771D01*
X125595238Y-113435771D02*
X125404762Y-113435771D01*
X125404762Y-113435771D02*
X125309524Y-113483390D01*
X125309524Y-113483390D02*
X125261905Y-113531009D01*
X125261905Y-113531009D02*
X125214286Y-113626247D01*
X126404762Y-113054819D02*
X126500000Y-113054819D01*
X126500000Y-113054819D02*
X126595238Y-113102438D01*
X126595238Y-113102438D02*
X126642857Y-113150057D01*
X126642857Y-113150057D02*
X126690476Y-113245295D01*
X126690476Y-113245295D02*
X126738095Y-113435771D01*
X126738095Y-113435771D02*
X126738095Y-113673866D01*
X126738095Y-113673866D02*
X126690476Y-113864342D01*
X126690476Y-113864342D02*
X126642857Y-113959580D01*
X126642857Y-113959580D02*
X126595238Y-114007200D01*
X126595238Y-114007200D02*
X126500000Y-114054819D01*
X126500000Y-114054819D02*
X126404762Y-114054819D01*
X126404762Y-114054819D02*
X126309524Y-114007200D01*
X126309524Y-114007200D02*
X126261905Y-113959580D01*
X126261905Y-113959580D02*
X126214286Y-113864342D01*
X126214286Y-113864342D02*
X126166667Y-113673866D01*
X126166667Y-113673866D02*
X126166667Y-113435771D01*
X126166667Y-113435771D02*
X126214286Y-113245295D01*
X126214286Y-113245295D02*
X126261905Y-113150057D01*
X126261905Y-113150057D02*
X126309524Y-113102438D01*
X126309524Y-113102438D02*
X126404762Y-113054819D01*
X125285714Y-110654819D02*
X124714286Y-110654819D01*
X125000000Y-110654819D02*
X125000000Y-109654819D01*
X125000000Y-109654819D02*
X124904762Y-109797676D01*
X124904762Y-109797676D02*
X124809524Y-109892914D01*
X124809524Y-109892914D02*
X124714286Y-109940533D01*
X125714286Y-110654819D02*
X125714286Y-109654819D01*
X126285714Y-110654819D02*
X125857143Y-110083390D01*
X126285714Y-109654819D02*
X125714286Y-110226247D01*
X141500000Y-83192914D02*
X141500000Y-82954819D01*
X141500000Y-82954819D02*
X140642857Y-82954819D01*
X140642857Y-82954819D02*
X140642857Y-83192914D01*
X141309523Y-82954819D02*
X141309523Y-81954819D01*
X141309523Y-81954819D02*
X141071428Y-81954819D01*
X141071428Y-81954819D02*
X140976190Y-82002438D01*
X140976190Y-82002438D02*
X140928571Y-82050057D01*
X140928571Y-82050057D02*
X140880952Y-82145295D01*
X140880952Y-82145295D02*
X140785714Y-82954819D01*
X142023809Y-82383390D02*
X141928571Y-82335771D01*
X141928571Y-82335771D02*
X141880952Y-82288152D01*
X141880952Y-82288152D02*
X141833333Y-82192914D01*
X141833333Y-82192914D02*
X141833333Y-82145295D01*
X141833333Y-82145295D02*
X141880952Y-82050057D01*
X141880952Y-82050057D02*
X141928571Y-82002438D01*
X141928571Y-82002438D02*
X142023809Y-81954819D01*
X142023809Y-81954819D02*
X142214285Y-81954819D01*
X142214285Y-81954819D02*
X142309523Y-82002438D01*
X142309523Y-82002438D02*
X142357142Y-82050057D01*
X142357142Y-82050057D02*
X142404761Y-82145295D01*
X142404761Y-82145295D02*
X142404761Y-82192914D01*
X142404761Y-82192914D02*
X142357142Y-82288152D01*
X142357142Y-82288152D02*
X142309523Y-82335771D01*
X142309523Y-82335771D02*
X142214285Y-82383390D01*
X142214285Y-82383390D02*
X142023809Y-82383390D01*
X142023809Y-82383390D02*
X141928571Y-82431009D01*
X141928571Y-82431009D02*
X141880952Y-82478628D01*
X141880952Y-82478628D02*
X141833333Y-82573866D01*
X141833333Y-82573866D02*
X141833333Y-82764342D01*
X141833333Y-82764342D02*
X141880952Y-82859580D01*
X141880952Y-82859580D02*
X141928571Y-82907200D01*
X141928571Y-82907200D02*
X142023809Y-82954819D01*
X142023809Y-82954819D02*
X142214285Y-82954819D01*
X142214285Y-82954819D02*
X142309523Y-82907200D01*
X142309523Y-82907200D02*
X142357142Y-82859580D01*
X142357142Y-82859580D02*
X142404761Y-82764342D01*
X142404761Y-82764342D02*
X142404761Y-82573866D01*
X142404761Y-82573866D02*
X142357142Y-82478628D01*
X142357142Y-82478628D02*
X142309523Y-82431009D01*
X142309523Y-82431009D02*
X142214285Y-82383390D01*
X143357142Y-82954819D02*
X142785714Y-82954819D01*
X143071428Y-82954819D02*
X143071428Y-81954819D01*
X143071428Y-81954819D02*
X142976190Y-82097676D01*
X142976190Y-82097676D02*
X142880952Y-82192914D01*
X142880952Y-82192914D02*
X142785714Y-82240533D01*
X144214285Y-82288152D02*
X144214285Y-82954819D01*
X143976190Y-81907200D02*
X143738095Y-82621485D01*
X143738095Y-82621485D02*
X144357142Y-82621485D01*
X148261905Y-84769104D02*
X148738095Y-84769104D01*
X148166667Y-85054819D02*
X148500000Y-84054819D01*
X148500000Y-84054819D02*
X148833333Y-85054819D01*
X133054819Y-89314285D02*
X132054819Y-89314285D01*
X132054819Y-89314285D02*
X132054819Y-88742857D01*
X132054819Y-88742857D02*
X133054819Y-88742857D01*
X132150057Y-88314285D02*
X132102438Y-88266666D01*
X132102438Y-88266666D02*
X132054819Y-88171428D01*
X132054819Y-88171428D02*
X132054819Y-87933333D01*
X132054819Y-87933333D02*
X132102438Y-87838095D01*
X132102438Y-87838095D02*
X132150057Y-87790476D01*
X132150057Y-87790476D02*
X132245295Y-87742857D01*
X132245295Y-87742857D02*
X132340533Y-87742857D01*
X132340533Y-87742857D02*
X132483390Y-87790476D01*
X132483390Y-87790476D02*
X133054819Y-88361904D01*
X133054819Y-88361904D02*
X133054819Y-87742857D01*
X133054819Y-86790476D02*
X133054819Y-87361904D01*
X133054819Y-87076190D02*
X132054819Y-87076190D01*
X132054819Y-87076190D02*
X132197676Y-87171428D01*
X132197676Y-87171428D02*
X132292914Y-87266666D01*
X132292914Y-87266666D02*
X132340533Y-87361904D01*
X132054819Y-86457142D02*
X132054819Y-85838095D01*
X132054819Y-85838095D02*
X132435771Y-86171428D01*
X132435771Y-86171428D02*
X132435771Y-86028571D01*
X132435771Y-86028571D02*
X132483390Y-85933333D01*
X132483390Y-85933333D02*
X132531009Y-85885714D01*
X132531009Y-85885714D02*
X132626247Y-85838095D01*
X132626247Y-85838095D02*
X132864342Y-85838095D01*
X132864342Y-85838095D02*
X132959580Y-85885714D01*
X132959580Y-85885714D02*
X133007200Y-85933333D01*
X133007200Y-85933333D02*
X133054819Y-86028571D01*
X133054819Y-86028571D02*
X133054819Y-86314285D01*
X133054819Y-86314285D02*
X133007200Y-86409523D01*
X133007200Y-86409523D02*
X132959580Y-86457142D01*
D12*
X137042419Y-89469925D02*
X137042419Y-89946115D01*
X137042419Y-89946115D02*
X138042419Y-89946115D01*
X138042419Y-89946115D02*
X138042419Y-89660401D01*
X138042419Y-89660401D02*
X137994800Y-89517544D01*
X137994800Y-89517544D02*
X137899561Y-89422306D01*
X137899561Y-89422306D02*
X137804323Y-89374687D01*
X137804323Y-89374687D02*
X137661466Y-89374687D01*
X137661466Y-89374687D02*
X137566228Y-89422306D01*
X137566228Y-89422306D02*
X137470990Y-89517544D01*
X137470990Y-89517544D02*
X137423371Y-89660401D01*
X137423371Y-89660401D02*
X137423371Y-89946115D01*
X140542419Y-89946115D02*
X139542419Y-89946115D01*
X140542419Y-89374687D02*
X139970990Y-89803258D01*
X139542419Y-89374687D02*
X140113847Y-89946115D01*
X135066228Y-89374687D02*
X135066228Y-89850877D01*
X134637657Y-89993734D02*
X134590038Y-89946115D01*
X134590038Y-89946115D02*
X134542419Y-89803258D01*
X134542419Y-89803258D02*
X134542419Y-89708020D01*
X134542419Y-89708020D02*
X134590038Y-89565163D01*
X134590038Y-89565163D02*
X134685276Y-89469925D01*
X134685276Y-89469925D02*
X134780514Y-89422306D01*
X134780514Y-89422306D02*
X134970990Y-89374687D01*
X134970990Y-89374687D02*
X135113847Y-89374687D01*
X135113847Y-89374687D02*
X135304323Y-89422306D01*
X135304323Y-89422306D02*
X135399561Y-89469925D01*
X135399561Y-89469925D02*
X135494800Y-89565163D01*
X135494800Y-89565163D02*
X135542419Y-89708020D01*
X135542419Y-89708020D02*
X135542419Y-89803258D01*
X135542419Y-89803258D02*
X135494800Y-89946115D01*
X135494800Y-89946115D02*
X135447180Y-89993734D01*
D11*
X143095238Y-84931009D02*
X143238095Y-84978628D01*
X143238095Y-84978628D02*
X143285714Y-85026247D01*
X143285714Y-85026247D02*
X143333333Y-85121485D01*
X143333333Y-85121485D02*
X143333333Y-85264342D01*
X143333333Y-85264342D02*
X143285714Y-85359580D01*
X143285714Y-85359580D02*
X143238095Y-85407200D01*
X143238095Y-85407200D02*
X143142857Y-85454819D01*
X143142857Y-85454819D02*
X142761905Y-85454819D01*
X142761905Y-85454819D02*
X142761905Y-84454819D01*
X142761905Y-84454819D02*
X143095238Y-84454819D01*
X143095238Y-84454819D02*
X143190476Y-84502438D01*
X143190476Y-84502438D02*
X143238095Y-84550057D01*
X143238095Y-84550057D02*
X143285714Y-84645295D01*
X143285714Y-84645295D02*
X143285714Y-84740533D01*
X143285714Y-84740533D02*
X143238095Y-84835771D01*
X143238095Y-84835771D02*
X143190476Y-84883390D01*
X143190476Y-84883390D02*
X143095238Y-84931009D01*
X143095238Y-84931009D02*
X142761905Y-84931009D01*
X144428571Y-84788152D02*
X144428571Y-85454819D01*
X143761905Y-84788152D02*
X143761905Y-85454819D01*
X143761905Y-85454819D02*
X144000000Y-85454819D01*
X144000000Y-85454819D02*
X144095238Y-85407200D01*
X144095238Y-85407200D02*
X144142857Y-85311961D01*
X144142857Y-85311961D02*
X144142857Y-85169104D01*
X144142857Y-85169104D02*
X144095238Y-85073866D01*
X144095238Y-85073866D02*
X144000000Y-85026247D01*
X144000000Y-85026247D02*
X143761905Y-85026247D01*
X144809524Y-85454819D02*
X145333333Y-84788152D01*
X144809524Y-84788152D02*
X145333333Y-85454819D01*
D12*
X144296115Y-92208533D02*
X143534211Y-92208533D01*
X143915163Y-91827580D02*
X143915163Y-92589485D01*
D11*
X149192914Y-93500000D02*
X148954819Y-93500000D01*
X148954819Y-93500000D02*
X148954819Y-94357142D01*
X148954819Y-94357142D02*
X149192914Y-94357142D01*
X148954819Y-93690476D02*
X147954819Y-93690476D01*
X147954819Y-93690476D02*
X147954819Y-93928571D01*
X147954819Y-93928571D02*
X148002438Y-94023809D01*
X148002438Y-94023809D02*
X148050057Y-94071428D01*
X148050057Y-94071428D02*
X148145295Y-94119047D01*
X148145295Y-94119047D02*
X148954819Y-94214285D01*
X148383390Y-92976190D02*
X148335771Y-93071428D01*
X148335771Y-93071428D02*
X148288152Y-93119047D01*
X148288152Y-93119047D02*
X148192914Y-93166666D01*
X148192914Y-93166666D02*
X148145295Y-93166666D01*
X148145295Y-93166666D02*
X148050057Y-93119047D01*
X148050057Y-93119047D02*
X148002438Y-93071428D01*
X148002438Y-93071428D02*
X147954819Y-92976190D01*
X147954819Y-92976190D02*
X147954819Y-92785714D01*
X147954819Y-92785714D02*
X148002438Y-92690476D01*
X148002438Y-92690476D02*
X148050057Y-92642857D01*
X148050057Y-92642857D02*
X148145295Y-92595238D01*
X148145295Y-92595238D02*
X148192914Y-92595238D01*
X148192914Y-92595238D02*
X148288152Y-92642857D01*
X148288152Y-92642857D02*
X148335771Y-92690476D01*
X148335771Y-92690476D02*
X148383390Y-92785714D01*
X148383390Y-92785714D02*
X148383390Y-92976190D01*
X148383390Y-92976190D02*
X148431009Y-93071428D01*
X148431009Y-93071428D02*
X148478628Y-93119047D01*
X148478628Y-93119047D02*
X148573866Y-93166666D01*
X148573866Y-93166666D02*
X148764342Y-93166666D01*
X148764342Y-93166666D02*
X148859580Y-93119047D01*
X148859580Y-93119047D02*
X148907200Y-93071428D01*
X148907200Y-93071428D02*
X148954819Y-92976190D01*
X148954819Y-92976190D02*
X148954819Y-92785714D01*
X148954819Y-92785714D02*
X148907200Y-92690476D01*
X148907200Y-92690476D02*
X148859580Y-92642857D01*
X148859580Y-92642857D02*
X148764342Y-92595238D01*
X148764342Y-92595238D02*
X148573866Y-92595238D01*
X148573866Y-92595238D02*
X148478628Y-92642857D01*
X148478628Y-92642857D02*
X148431009Y-92690476D01*
X148431009Y-92690476D02*
X148383390Y-92785714D01*
X148954819Y-91642857D02*
X148954819Y-92214285D01*
X148954819Y-91928571D02*
X147954819Y-91928571D01*
X147954819Y-91928571D02*
X148097676Y-92023809D01*
X148097676Y-92023809D02*
X148192914Y-92119047D01*
X148192914Y-92119047D02*
X148240533Y-92214285D01*
X148288152Y-90785714D02*
X148954819Y-90785714D01*
X147907200Y-91023809D02*
X148621485Y-91261904D01*
X148621485Y-91261904D02*
X148621485Y-90642857D01*
X146569104Y-98738094D02*
X146569104Y-98261904D01*
X146854819Y-98833332D02*
X145854819Y-98499999D01*
X145854819Y-98499999D02*
X146854819Y-98166666D01*
X118952381Y-96192914D02*
X118952381Y-95954819D01*
X118952381Y-95954819D02*
X118095238Y-95954819D01*
X118095238Y-95954819D02*
X118095238Y-96192914D01*
X118761904Y-95954819D02*
X118761904Y-94954819D01*
X118761904Y-94954819D02*
X118523809Y-94954819D01*
X118523809Y-94954819D02*
X118428571Y-95002438D01*
X118428571Y-95002438D02*
X118380952Y-95050057D01*
X118380952Y-95050057D02*
X118333333Y-95145295D01*
X118333333Y-95145295D02*
X118238095Y-95954819D01*
X119238095Y-94954819D02*
X119904761Y-94954819D01*
X119904761Y-94954819D02*
X119476190Y-95954819D01*
X129238095Y-97954819D02*
X129238095Y-96954819D01*
X129809523Y-97954819D02*
X129380952Y-97383390D01*
X129809523Y-96954819D02*
X129238095Y-97526247D01*
X133909523Y-101538152D02*
X133909523Y-102204819D01*
X133671428Y-101157200D02*
X133433333Y-101871485D01*
X133433333Y-101871485D02*
X134052380Y-101871485D01*
X134338095Y-101204819D02*
X135004761Y-101204819D01*
X135004761Y-101204819D02*
X134576190Y-102204819D01*
X135576190Y-101204819D02*
X135671428Y-101204819D01*
X135671428Y-101204819D02*
X135766666Y-101252438D01*
X135766666Y-101252438D02*
X135814285Y-101300057D01*
X135814285Y-101300057D02*
X135861904Y-101395295D01*
X135861904Y-101395295D02*
X135909523Y-101585771D01*
X135909523Y-101585771D02*
X135909523Y-101823866D01*
X135909523Y-101823866D02*
X135861904Y-102014342D01*
X135861904Y-102014342D02*
X135814285Y-102109580D01*
X135814285Y-102109580D02*
X135766666Y-102157200D01*
X135766666Y-102157200D02*
X135671428Y-102204819D01*
X135671428Y-102204819D02*
X135576190Y-102204819D01*
X135576190Y-102204819D02*
X135480952Y-102157200D01*
X135480952Y-102157200D02*
X135433333Y-102109580D01*
X135433333Y-102109580D02*
X135385714Y-102014342D01*
X135385714Y-102014342D02*
X135338095Y-101823866D01*
X135338095Y-101823866D02*
X135338095Y-101585771D01*
X135338095Y-101585771D02*
X135385714Y-101395295D01*
X135385714Y-101395295D02*
X135433333Y-101300057D01*
X135433333Y-101300057D02*
X135480952Y-101252438D01*
X135480952Y-101252438D02*
X135576190Y-101204819D01*
X136338095Y-102204819D02*
X136338095Y-101204819D01*
X136338095Y-101204819D02*
X136671428Y-101919104D01*
X136671428Y-101919104D02*
X137004761Y-101204819D01*
X137004761Y-101204819D02*
X137004761Y-102204819D01*
X137766666Y-102204819D02*
X137766666Y-101204819D01*
X137671428Y-101347676D02*
X137861904Y-101347676D01*
X137861904Y-101347676D02*
X138004761Y-101395295D01*
X138004761Y-101395295D02*
X138099999Y-101490533D01*
X138099999Y-101490533D02*
X138147618Y-101585771D01*
X138147618Y-101585771D02*
X138147618Y-101776247D01*
X138147618Y-101776247D02*
X138099999Y-101871485D01*
X138099999Y-101871485D02*
X138004761Y-101966723D01*
X138004761Y-101966723D02*
X137861904Y-102014342D01*
X137861904Y-102014342D02*
X137671428Y-102014342D01*
X137671428Y-102014342D02*
X137528571Y-101966723D01*
X137528571Y-101966723D02*
X137433333Y-101871485D01*
X137433333Y-101871485D02*
X137385714Y-101776247D01*
X137385714Y-101776247D02*
X137385714Y-101585771D01*
X137385714Y-101585771D02*
X137433333Y-101490533D01*
X137433333Y-101490533D02*
X137528571Y-101395295D01*
X137528571Y-101395295D02*
X137671428Y-101347676D01*
X139814285Y-102204819D02*
X139242857Y-102204819D01*
X139528571Y-102204819D02*
X139528571Y-101204819D01*
X139528571Y-101204819D02*
X139433333Y-101347676D01*
X139433333Y-101347676D02*
X139338095Y-101442914D01*
X139338095Y-101442914D02*
X139242857Y-101490533D01*
X140719047Y-101204819D02*
X140242857Y-101204819D01*
X140242857Y-101204819D02*
X140195238Y-101681009D01*
X140195238Y-101681009D02*
X140242857Y-101633390D01*
X140242857Y-101633390D02*
X140338095Y-101585771D01*
X140338095Y-101585771D02*
X140576190Y-101585771D01*
X140576190Y-101585771D02*
X140671428Y-101633390D01*
X140671428Y-101633390D02*
X140719047Y-101681009D01*
X140719047Y-101681009D02*
X140766666Y-101776247D01*
X140766666Y-101776247D02*
X140766666Y-102014342D01*
X140766666Y-102014342D02*
X140719047Y-102109580D01*
X140719047Y-102109580D02*
X140671428Y-102157200D01*
X140671428Y-102157200D02*
X140576190Y-102204819D01*
X140576190Y-102204819D02*
X140338095Y-102204819D01*
X140338095Y-102204819D02*
X140242857Y-102157200D01*
X140242857Y-102157200D02*
X140195238Y-102109580D01*
X141528571Y-101681009D02*
X141671428Y-101728628D01*
X141671428Y-101728628D02*
X141719047Y-101776247D01*
X141719047Y-101776247D02*
X141766666Y-101871485D01*
X141766666Y-101871485D02*
X141766666Y-102014342D01*
X141766666Y-102014342D02*
X141719047Y-102109580D01*
X141719047Y-102109580D02*
X141671428Y-102157200D01*
X141671428Y-102157200D02*
X141576190Y-102204819D01*
X141576190Y-102204819D02*
X141195238Y-102204819D01*
X141195238Y-102204819D02*
X141195238Y-101204819D01*
X141195238Y-101204819D02*
X141528571Y-101204819D01*
X141528571Y-101204819D02*
X141623809Y-101252438D01*
X141623809Y-101252438D02*
X141671428Y-101300057D01*
X141671428Y-101300057D02*
X141719047Y-101395295D01*
X141719047Y-101395295D02*
X141719047Y-101490533D01*
X141719047Y-101490533D02*
X141671428Y-101585771D01*
X141671428Y-101585771D02*
X141623809Y-101633390D01*
X141623809Y-101633390D02*
X141528571Y-101681009D01*
X141528571Y-101681009D02*
X141195238Y-101681009D01*
X137290476Y-112154819D02*
X137290476Y-111154819D01*
X137290476Y-111154819D02*
X137623809Y-111869104D01*
X137623809Y-111869104D02*
X137957142Y-111154819D01*
X137957142Y-111154819D02*
X137957142Y-112154819D01*
X138433333Y-112154819D02*
X138433333Y-111154819D01*
X138433333Y-111154819D02*
X139004761Y-111154819D01*
X139004761Y-111154819D02*
X139004761Y-112154819D01*
X139909523Y-111488152D02*
X139909523Y-112154819D01*
X139671428Y-111107200D02*
X139433333Y-111821485D01*
X139433333Y-111821485D02*
X140052380Y-111821485D01*
X140385714Y-111250057D02*
X140433333Y-111202438D01*
X140433333Y-111202438D02*
X140528571Y-111154819D01*
X140528571Y-111154819D02*
X140766666Y-111154819D01*
X140766666Y-111154819D02*
X140861904Y-111202438D01*
X140861904Y-111202438D02*
X140909523Y-111250057D01*
X140909523Y-111250057D02*
X140957142Y-111345295D01*
X140957142Y-111345295D02*
X140957142Y-111440533D01*
X140957142Y-111440533D02*
X140909523Y-111583390D01*
X140909523Y-111583390D02*
X140338095Y-112154819D01*
X140338095Y-112154819D02*
X140957142Y-112154819D01*
D12*
X139230074Y-104872419D02*
X138753884Y-104872419D01*
X138753884Y-104872419D02*
X138753884Y-105872419D01*
X138753884Y-105872419D02*
X139039598Y-105872419D01*
X139039598Y-105872419D02*
X139182455Y-105824800D01*
X139182455Y-105824800D02*
X139277693Y-105729561D01*
X139277693Y-105729561D02*
X139325312Y-105634323D01*
X139325312Y-105634323D02*
X139325312Y-105491466D01*
X139325312Y-105491466D02*
X139277693Y-105396228D01*
X139277693Y-105396228D02*
X139182455Y-105300990D01*
X139182455Y-105300990D02*
X139039598Y-105253371D01*
X139039598Y-105253371D02*
X138753884Y-105253371D01*
X136253884Y-110972419D02*
X136253884Y-109972419D01*
X136825312Y-110972419D02*
X136396741Y-110400990D01*
X136825312Y-109972419D02*
X136253884Y-110543847D01*
X142025312Y-110496228D02*
X141549122Y-110496228D01*
X141406265Y-110067657D02*
X141453884Y-110020038D01*
X141453884Y-110020038D02*
X141596741Y-109972419D01*
X141596741Y-109972419D02*
X141691979Y-109972419D01*
X141691979Y-109972419D02*
X141834836Y-110020038D01*
X141834836Y-110020038D02*
X141930074Y-110115276D01*
X141930074Y-110115276D02*
X141977693Y-110210514D01*
X141977693Y-110210514D02*
X142025312Y-110400990D01*
X142025312Y-110400990D02*
X142025312Y-110543847D01*
X142025312Y-110543847D02*
X141977693Y-110734323D01*
X141977693Y-110734323D02*
X141930074Y-110829561D01*
X141930074Y-110829561D02*
X141834836Y-110924800D01*
X141834836Y-110924800D02*
X141691979Y-110972419D01*
X141691979Y-110972419D02*
X141596741Y-110972419D01*
X141596741Y-110972419D02*
X141453884Y-110924800D01*
X141453884Y-110924800D02*
X141406265Y-110877180D01*
D13*
%TO.C,RV1*%
X112970000Y-105075000D02*
X118040000Y-105075000D01*
X112970000Y-114845000D02*
X112970000Y-105075000D01*
X112970000Y-114845000D02*
X118040000Y-114845000D01*
X118040000Y-114845000D02*
X118040000Y-105075000D01*
%TO.C,\u04147*%
X111000000Y-83500000D02*
X112000000Y-83500000D01*
D12*
X112000000Y-82000000D02*
X112000000Y-85000000D01*
X112000000Y-85000000D02*
X114400000Y-85000000D01*
D13*
X114500000Y-81500000D02*
X114500000Y-85500000D01*
D12*
X114500000Y-82000000D02*
X112000000Y-82000000D01*
D13*
X114500000Y-85500000D02*
X124500000Y-85500000D01*
X117900000Y-85400000D02*
X117900000Y-81700000D01*
X117900000Y-85400000D02*
X121500000Y-83500000D01*
X121500000Y-83500000D02*
X117900000Y-81700000D01*
D12*
X121500000Y-85400000D02*
X121500000Y-81600000D01*
D13*
X124500000Y-81500000D02*
X114500000Y-81500000D01*
X124500000Y-85500000D02*
X124500000Y-81500000D01*
D12*
X124550000Y-85100000D02*
X126950000Y-85100000D01*
X127000000Y-82100000D02*
X124550000Y-82100000D01*
X127000000Y-82100000D02*
X127000000Y-85100000D01*
D13*
X128260000Y-83500000D02*
X127000000Y-83500000D01*
X110740000Y-89500000D02*
X112000000Y-89500000D01*
D12*
X112000000Y-90900000D02*
X112000000Y-87900000D01*
X112000000Y-90900000D02*
X114450000Y-90900000D01*
X114450000Y-87900000D02*
X112050000Y-87900000D01*
D13*
X114500000Y-87500000D02*
X114500000Y-91500000D01*
X114500000Y-91500000D02*
X124500000Y-91500000D01*
D12*
X117500000Y-87600000D02*
X117500000Y-91400000D01*
D13*
X117500000Y-89500000D02*
X121100000Y-91300000D01*
X121100000Y-87600000D02*
X117500000Y-89500000D01*
X121100000Y-87600000D02*
X121100000Y-91300000D01*
X124500000Y-87500000D02*
X114500000Y-87500000D01*
D12*
X124500000Y-91000000D02*
X127000000Y-91000000D01*
D13*
X124500000Y-91500000D02*
X124500000Y-87500000D01*
D12*
X127000000Y-88000000D02*
X124600000Y-88000000D01*
X127000000Y-91000000D02*
X127000000Y-88000000D01*
D13*
X128000000Y-89500000D02*
X127000000Y-89500000D01*
%TO.C,R3*%
X121460000Y-106500000D02*
X122230000Y-106500000D01*
X122230000Y-105130000D02*
X122230000Y-107870000D01*
X122230000Y-107870000D02*
X128770000Y-107870000D01*
X128770000Y-105130000D02*
X122230000Y-105130000D01*
X128770000Y-107870000D02*
X128770000Y-105130000D01*
X129540000Y-106500000D02*
X128770000Y-106500000D01*
%TO.C,\u0414814*%
X146750000Y-104500000D02*
X146750000Y-111640000D01*
X146750000Y-111640000D02*
X150250000Y-111640000D01*
X147060000Y-104900000D02*
X150000000Y-104900000D01*
X147060000Y-105020000D02*
X150000000Y-105020000D01*
X147060000Y-105140000D02*
X150000000Y-105140000D01*
X148500000Y-103300000D02*
X148500000Y-104510000D01*
X148500000Y-112660000D02*
X148500000Y-111640000D01*
X150250000Y-104510000D02*
X146750000Y-104500000D01*
X150250000Y-111640000D02*
X150250000Y-104510000D01*
%TO.C,J1*%
X108170000Y-110230000D02*
X108170000Y-112830000D01*
X108170000Y-110230000D02*
X110830000Y-110230000D01*
X108170000Y-112830000D02*
X110830000Y-112830000D01*
X109500000Y-107630000D02*
X110830000Y-107630000D01*
X110830000Y-107630000D02*
X110830000Y-108960000D01*
X110830000Y-110230000D02*
X110830000Y-112830000D01*
%TO.C,D6*%
X110740000Y-101500000D02*
X112000000Y-101500000D01*
D12*
X112000000Y-102900000D02*
X112000000Y-99900000D01*
X112000000Y-102900000D02*
X114450000Y-102900000D01*
X114450000Y-99900000D02*
X112050000Y-99900000D01*
D13*
X114500000Y-99500000D02*
X114500000Y-103500000D01*
X114500000Y-103500000D02*
X124500000Y-103500000D01*
D12*
X117500000Y-99600000D02*
X117500000Y-103400000D01*
D13*
X117500000Y-101500000D02*
X121100000Y-103300000D01*
X121100000Y-99600000D02*
X117500000Y-101500000D01*
X121100000Y-99600000D02*
X121100000Y-103300000D01*
X124500000Y-99500000D02*
X114500000Y-99500000D01*
D12*
X124500000Y-103000000D02*
X127000000Y-103000000D01*
D13*
X124500000Y-103500000D02*
X124500000Y-99500000D01*
D12*
X127000000Y-100000000D02*
X124600000Y-100000000D01*
X127000000Y-103000000D02*
X127000000Y-100000000D01*
D13*
X128000000Y-101500000D02*
X127000000Y-101500000D01*
%TO.C,R1*%
X121460000Y-113500000D02*
X122230000Y-113500000D01*
X122230000Y-112130000D02*
X122230000Y-114870000D01*
X122230000Y-114870000D02*
X128770000Y-114870000D01*
X128770000Y-112130000D02*
X122230000Y-112130000D01*
X128770000Y-114870000D02*
X128770000Y-112130000D01*
X129540000Y-113500000D02*
X128770000Y-113500000D01*
%TO.C,R2*%
X121460000Y-110000000D02*
X122230000Y-110000000D01*
X122230000Y-108630000D02*
X122230000Y-111370000D01*
X122230000Y-111370000D02*
X128770000Y-111370000D01*
X128770000Y-108630000D02*
X122230000Y-108630000D01*
X128770000Y-111370000D02*
X128770000Y-108630000D01*
X129540000Y-110000000D02*
X128770000Y-110000000D01*
D14*
%TO.C,G\u002A\u002A\u002A*%
G36*
X108355021Y-118613541D02*
G01*
X108284904Y-118733404D01*
X108208240Y-118802845D01*
X108077433Y-118930823D01*
X108073586Y-119031770D01*
X108123533Y-119103207D01*
X108292518Y-119199491D01*
X108395953Y-119191873D01*
X108526518Y-119194191D01*
X108553333Y-119274628D01*
X108483918Y-119369324D01*
X108319973Y-119407905D01*
X108127949Y-119386780D01*
X107977600Y-119305733D01*
X107876424Y-119102608D01*
X107892207Y-118869057D01*
X108013042Y-118677952D01*
X108088024Y-118629765D01*
X108284251Y-118571589D01*
X108355021Y-118613541D01*
G37*
G36*
X110104247Y-118422223D02*
G01*
X110162000Y-118476000D01*
X110089463Y-118539357D01*
X109947676Y-118560667D01*
X109746226Y-118616046D01*
X109672691Y-118752093D01*
X109741642Y-118923671D01*
X109809214Y-118989592D01*
X109943296Y-119114105D01*
X109992667Y-119188071D01*
X109933299Y-119242088D01*
X109792698Y-119213533D01*
X109627119Y-119118681D01*
X109565002Y-119064336D01*
X109450328Y-118852571D01*
X109467063Y-118625503D01*
X109601911Y-118456130D01*
X109753625Y-118405632D01*
X109944758Y-118395170D01*
X110104247Y-118422223D01*
G37*
G36*
X109218059Y-118376895D02*
G01*
X109230667Y-118418086D01*
X109159681Y-118536485D01*
X109061333Y-118585199D01*
X108917999Y-118698670D01*
X108892000Y-118806740D01*
X108936139Y-118943031D01*
X109095438Y-118983870D01*
X109110722Y-118984000D01*
X109270580Y-119017320D01*
X109294206Y-119089833D01*
X109183593Y-119204022D01*
X108994591Y-119194623D01*
X108828500Y-119108125D01*
X108683204Y-118929492D01*
X108641741Y-118712153D01*
X108713702Y-118525362D01*
X108743833Y-118496729D01*
X108933998Y-118384725D01*
X109109764Y-118341922D01*
X109218059Y-118376895D01*
G37*
G36*
X110544058Y-118507302D02*
G01*
X110715239Y-118582976D01*
X110752046Y-118601645D01*
X110953800Y-118760862D01*
X111007626Y-118927611D01*
X110917666Y-119065422D01*
X110691167Y-119137531D01*
X110503743Y-119176972D01*
X110416757Y-119237398D01*
X110416000Y-119243364D01*
X110351410Y-119320399D01*
X110331333Y-119322667D01*
X110254109Y-119255056D01*
X110246667Y-119208301D01*
X110271007Y-119070470D01*
X110328924Y-118857000D01*
X110554715Y-118857000D01*
X110567724Y-118966228D01*
X110630324Y-118984000D01*
X110740254Y-118916168D01*
X110754667Y-118857000D01*
X110713761Y-118744259D01*
X110679058Y-118730000D01*
X110586502Y-118797379D01*
X110554715Y-118857000D01*
X110328924Y-118857000D01*
X110328931Y-118856976D01*
X110397788Y-118642913D01*
X110454929Y-118503375D01*
X110463034Y-118490923D01*
X110544058Y-118507302D01*
G37*
G36*
X111581783Y-119445702D02*
G01*
X111516902Y-119484137D01*
X111323156Y-119574759D01*
X111028207Y-119705149D01*
X110659715Y-119862889D01*
X110544617Y-119911318D01*
X110157599Y-120077420D01*
X109834164Y-120223615D01*
X109602798Y-120336461D01*
X109491988Y-120402516D01*
X109486436Y-120410645D01*
X109538353Y-120493134D01*
X109678665Y-120678038D01*
X109886372Y-120938522D01*
X110140472Y-121247747D01*
X110157969Y-121268745D01*
X110410953Y-121577033D01*
X110615248Y-121835491D01*
X110751085Y-122018405D01*
X110798700Y-122100061D01*
X110798084Y-122101471D01*
X110719945Y-122070533D01*
X110535299Y-121962859D01*
X110276865Y-121798095D01*
X110130375Y-121700559D01*
X109838782Y-121509980D01*
X109595852Y-121362609D01*
X109438200Y-121280154D01*
X109404130Y-121270000D01*
X109299071Y-121316406D01*
X109095096Y-121440163D01*
X108829540Y-121618076D01*
X108722667Y-121693333D01*
X108449442Y-121884589D01*
X108230574Y-122030883D01*
X108100655Y-122109369D01*
X108081595Y-122116667D01*
X108093138Y-122057903D01*
X108183542Y-121913501D01*
X108204962Y-121883833D01*
X108336602Y-121709692D01*
X108536875Y-121450381D01*
X108769080Y-121153318D01*
X108843895Y-121058333D01*
X109052201Y-120788809D01*
X109213218Y-120569819D01*
X109302863Y-120434608D01*
X109313500Y-120410039D01*
X109240120Y-120359808D01*
X109038150Y-120262069D01*
X108737027Y-120130152D01*
X108366188Y-119977391D01*
X108299849Y-119950912D01*
X107923326Y-119798547D01*
X107614273Y-119668208D01*
X107401093Y-119572274D01*
X107312189Y-119523125D01*
X107311582Y-119520195D01*
X107402376Y-119517211D01*
X107617450Y-119534234D01*
X107913407Y-119567667D01*
X107967234Y-119574541D01*
X108546753Y-119627901D01*
X109189517Y-119651080D01*
X109839082Y-119644732D01*
X110439003Y-119609513D01*
X110932837Y-119546076D01*
X110966333Y-119539750D01*
X111259900Y-119485939D01*
X111479009Y-119452061D01*
X111579958Y-119444795D01*
X111581783Y-119445702D01*
G37*
G36*
X109919910Y-117627037D02*
G01*
X110552486Y-117995853D01*
X111208961Y-118467091D01*
X111702994Y-118882425D01*
X111904605Y-119088492D01*
X111999978Y-119271160D01*
X112024647Y-119499633D01*
X112024667Y-119508912D01*
X111990610Y-119865797D01*
X111897644Y-120324886D01*
X111759569Y-120835453D01*
X111590187Y-121346776D01*
X111403301Y-121808131D01*
X111392829Y-121830962D01*
X111114050Y-122434343D01*
X110567589Y-122529505D01*
X110005993Y-122594167D01*
X109380022Y-122612862D01*
X108764551Y-122586189D01*
X108234456Y-122514747D01*
X108214667Y-122510669D01*
X107963689Y-122451220D01*
X107800310Y-122376524D01*
X107675926Y-122246388D01*
X107541931Y-122020615D01*
X107478750Y-121902078D01*
X107310198Y-121537528D01*
X107142584Y-121096664D01*
X106990727Y-120628061D01*
X106869444Y-120180294D01*
X106793554Y-119801936D01*
X106777363Y-119619260D01*
X107043786Y-119619260D01*
X107073630Y-119942551D01*
X107099020Y-120099384D01*
X107182644Y-120466934D01*
X107310695Y-120892060D01*
X107464427Y-121323501D01*
X107625092Y-121709996D01*
X107773946Y-122000281D01*
X107819339Y-122069058D01*
X107952421Y-122185564D01*
X108168704Y-122268051D01*
X108488997Y-122319763D01*
X108934111Y-122343940D01*
X109524858Y-122343824D01*
X109577178Y-122342898D01*
X110062666Y-122328591D01*
X110409476Y-122304255D01*
X110648152Y-122266018D01*
X110809236Y-122210012D01*
X110861117Y-122180250D01*
X111014540Y-122010789D01*
X111185267Y-121708721D01*
X111359614Y-121307915D01*
X111523895Y-120842239D01*
X111664428Y-120345558D01*
X111739791Y-120005593D01*
X111864131Y-119365000D01*
X111415232Y-118947958D01*
X111105801Y-118682632D01*
X110741879Y-118404473D01*
X110361434Y-118138999D01*
X110002434Y-117911728D01*
X109702846Y-117748180D01*
X109527918Y-117679462D01*
X109290741Y-117692547D01*
X108959294Y-117815048D01*
X108556981Y-118034620D01*
X108107207Y-118338915D01*
X107750873Y-118616905D01*
X107412990Y-118908343D01*
X107194895Y-119144391D01*
X107078018Y-119367285D01*
X107043786Y-119619260D01*
X106777363Y-119619260D01*
X106775333Y-119596354D01*
X106851629Y-119250209D01*
X106985810Y-119020367D01*
X107192772Y-118800060D01*
X107505199Y-118527764D01*
X107881135Y-118234806D01*
X108278627Y-117952513D01*
X108655720Y-117712211D01*
X108947381Y-117555696D01*
X109381488Y-117355058D01*
X109919910Y-117627037D01*
G37*
D13*
%TO.C,\u0414814*%
X137800000Y-82500000D02*
X139010000Y-82500000D01*
X139000000Y-84250000D02*
X146140000Y-84250000D01*
X139010000Y-80750000D02*
X139000000Y-84250000D01*
X139500000Y-83970000D02*
X139500000Y-81030000D01*
X139620000Y-83970000D02*
X139620000Y-81030000D01*
X139740000Y-83970000D02*
X139740000Y-81030000D01*
X146140000Y-80750000D02*
X139010000Y-80750000D01*
X146140000Y-84250000D02*
X146140000Y-80750000D01*
X147160000Y-82500000D02*
X146140000Y-82500000D01*
%TO.C,J2*%
X133590000Y-86170000D02*
X134920000Y-86170000D01*
X133590000Y-87500000D02*
X133590000Y-86170000D01*
X136190000Y-86170000D02*
X141330000Y-86170000D01*
X136190000Y-88830000D02*
X136190000Y-86170000D01*
X136190000Y-88830000D02*
X141330000Y-88830000D01*
X141330000Y-88830000D02*
X141330000Y-86170000D01*
%TO.C,J3*%
X142670000Y-88730000D02*
X142670000Y-86130000D01*
X142670000Y-91330000D02*
X142670000Y-90000000D01*
X144000000Y-91330000D02*
X142670000Y-91330000D01*
X145330000Y-86130000D02*
X142670000Y-86130000D01*
X145330000Y-88730000D02*
X142670000Y-88730000D01*
X145330000Y-88730000D02*
X145330000Y-86130000D01*
%TO.C,\u0414814*%
X146750000Y-89000000D02*
X146750000Y-96140000D01*
X146750000Y-96140000D02*
X150250000Y-96140000D01*
X147060000Y-89400000D02*
X150000000Y-89400000D01*
X147060000Y-89520000D02*
X150000000Y-89520000D01*
X147060000Y-89640000D02*
X150000000Y-89640000D01*
X148500000Y-87800000D02*
X148500000Y-89010000D01*
X148500000Y-97160000D02*
X148500000Y-96140000D01*
X150250000Y-89010000D02*
X146750000Y-89000000D01*
X150250000Y-96140000D02*
X150250000Y-89010000D01*
%TO.C,D5*%
X111000000Y-95500000D02*
X112000000Y-95500000D01*
D12*
X112000000Y-94000000D02*
X112000000Y-97000000D01*
X112000000Y-97000000D02*
X114400000Y-97000000D01*
D13*
X114500000Y-93500000D02*
X114500000Y-97500000D01*
D12*
X114500000Y-94000000D02*
X112000000Y-94000000D01*
D13*
X114500000Y-97500000D02*
X124500000Y-97500000D01*
X117900000Y-97400000D02*
X117900000Y-93700000D01*
X117900000Y-97400000D02*
X121500000Y-95500000D01*
X121500000Y-95500000D02*
X117900000Y-93700000D01*
D12*
X121500000Y-97400000D02*
X121500000Y-93600000D01*
D13*
X124500000Y-93500000D02*
X114500000Y-93500000D01*
X124500000Y-97500000D02*
X124500000Y-93500000D01*
D12*
X124550000Y-97100000D02*
X126950000Y-97100000D01*
X127000000Y-94100000D02*
X124550000Y-94100000D01*
X127000000Y-94100000D02*
X127000000Y-97100000D01*
D13*
X128260000Y-95500000D02*
X127000000Y-95500000D01*
%TO.C,C1*%
X132120354Y-92625000D02*
X133120354Y-92625000D01*
X132620354Y-92125000D02*
X132620354Y-93125000D01*
X137600000Y-90420000D02*
X137600000Y-100580000D01*
X137640000Y-90420000D02*
X137640000Y-100580000D01*
X137680000Y-90420000D02*
X137680000Y-100580000D01*
X137720000Y-90421000D02*
X137720000Y-100579000D01*
X137760000Y-90422000D02*
X137760000Y-100578000D01*
X137800000Y-90423000D02*
X137800000Y-100577000D01*
X137840000Y-90425000D02*
X137840000Y-100575000D01*
X137880000Y-90427000D02*
X137880000Y-100573000D01*
X137920000Y-90430000D02*
X137920000Y-100570000D01*
X137960000Y-90432000D02*
X137960000Y-100568000D01*
X138000000Y-90435000D02*
X138000000Y-100565000D01*
X138040000Y-90438000D02*
X138040000Y-100562000D01*
X138080000Y-90442000D02*
X138080000Y-100558000D01*
X138120000Y-90446000D02*
X138120000Y-100554000D01*
X138160000Y-90450000D02*
X138160000Y-100550000D01*
X138200000Y-90455000D02*
X138200000Y-100545000D01*
X138240000Y-90460000D02*
X138240000Y-100540000D01*
X138280000Y-90465000D02*
X138280000Y-94259000D01*
X138280000Y-96741000D02*
X138280000Y-100535000D01*
X138321000Y-90470000D02*
X138321000Y-94259000D01*
X138321000Y-96741000D02*
X138321000Y-100530000D01*
X138361000Y-90476000D02*
X138361000Y-94259000D01*
X138361000Y-96741000D02*
X138361000Y-100524000D01*
X138401000Y-90482000D02*
X138401000Y-94259000D01*
X138401000Y-96741000D02*
X138401000Y-100518000D01*
X138441000Y-90489000D02*
X138441000Y-94259000D01*
X138441000Y-96741000D02*
X138441000Y-100511000D01*
X138481000Y-90496000D02*
X138481000Y-94259000D01*
X138481000Y-96741000D02*
X138481000Y-100504000D01*
X138521000Y-90503000D02*
X138521000Y-94259000D01*
X138521000Y-96741000D02*
X138521000Y-100497000D01*
X138561000Y-90510000D02*
X138561000Y-94259000D01*
X138561000Y-96741000D02*
X138561000Y-100490000D01*
X138601000Y-90518000D02*
X138601000Y-94259000D01*
X138601000Y-96741000D02*
X138601000Y-100482000D01*
X138641000Y-90526000D02*
X138641000Y-94259000D01*
X138641000Y-96741000D02*
X138641000Y-100474000D01*
X138681000Y-90535000D02*
X138681000Y-94259000D01*
X138681000Y-96741000D02*
X138681000Y-100465000D01*
X138721000Y-90544000D02*
X138721000Y-94259000D01*
X138721000Y-96741000D02*
X138721000Y-100456000D01*
X138761000Y-90553000D02*
X138761000Y-94259000D01*
X138761000Y-96741000D02*
X138761000Y-100447000D01*
X138801000Y-90562000D02*
X138801000Y-94259000D01*
X138801000Y-96741000D02*
X138801000Y-100438000D01*
X138841000Y-90572000D02*
X138841000Y-94259000D01*
X138841000Y-96741000D02*
X138841000Y-100428000D01*
X138881000Y-90582000D02*
X138881000Y-94259000D01*
X138881000Y-96741000D02*
X138881000Y-100418000D01*
X138921000Y-90593000D02*
X138921000Y-94259000D01*
X138921000Y-96741000D02*
X138921000Y-100407000D01*
X138961000Y-90603000D02*
X138961000Y-94259000D01*
X138961000Y-96741000D02*
X138961000Y-100397000D01*
X139001000Y-90615000D02*
X139001000Y-94259000D01*
X139001000Y-96741000D02*
X139001000Y-100385000D01*
X139041000Y-90626000D02*
X139041000Y-94259000D01*
X139041000Y-96741000D02*
X139041000Y-100374000D01*
X139081000Y-90638000D02*
X139081000Y-94259000D01*
X139081000Y-96741000D02*
X139081000Y-100362000D01*
X139121000Y-90650000D02*
X139121000Y-94259000D01*
X139121000Y-96741000D02*
X139121000Y-100350000D01*
X139161000Y-90663000D02*
X139161000Y-94259000D01*
X139161000Y-96741000D02*
X139161000Y-100337000D01*
X139201000Y-90676000D02*
X139201000Y-94259000D01*
X139201000Y-96741000D02*
X139201000Y-100324000D01*
X139241000Y-90689000D02*
X139241000Y-94259000D01*
X139241000Y-96741000D02*
X139241000Y-100311000D01*
X139281000Y-90703000D02*
X139281000Y-94259000D01*
X139281000Y-96741000D02*
X139281000Y-100297000D01*
X139321000Y-90717000D02*
X139321000Y-94259000D01*
X139321000Y-96741000D02*
X139321000Y-100283000D01*
X139361000Y-90732000D02*
X139361000Y-94259000D01*
X139361000Y-96741000D02*
X139361000Y-100268000D01*
X139401000Y-90746000D02*
X139401000Y-94259000D01*
X139401000Y-96741000D02*
X139401000Y-100254000D01*
X139441000Y-90762000D02*
X139441000Y-94259000D01*
X139441000Y-96741000D02*
X139441000Y-100238000D01*
X139481000Y-90777000D02*
X139481000Y-94259000D01*
X139481000Y-96741000D02*
X139481000Y-100223000D01*
X139521000Y-90793000D02*
X139521000Y-94259000D01*
X139521000Y-96741000D02*
X139521000Y-100207000D01*
X139561000Y-90810000D02*
X139561000Y-94259000D01*
X139561000Y-96741000D02*
X139561000Y-100190000D01*
X139601000Y-90826000D02*
X139601000Y-94259000D01*
X139601000Y-96741000D02*
X139601000Y-100174000D01*
X139641000Y-90843000D02*
X139641000Y-94259000D01*
X139641000Y-96741000D02*
X139641000Y-100157000D01*
X139681000Y-90861000D02*
X139681000Y-94259000D01*
X139681000Y-96741000D02*
X139681000Y-100139000D01*
X139721000Y-90879000D02*
X139721000Y-94259000D01*
X139721000Y-96741000D02*
X139721000Y-100121000D01*
X139761000Y-90897000D02*
X139761000Y-94259000D01*
X139761000Y-96741000D02*
X139761000Y-100103000D01*
X139801000Y-90916000D02*
X139801000Y-94259000D01*
X139801000Y-96741000D02*
X139801000Y-100084000D01*
X139841000Y-90936000D02*
X139841000Y-94259000D01*
X139841000Y-96741000D02*
X139841000Y-100064000D01*
X139881000Y-90955000D02*
X139881000Y-94259000D01*
X139881000Y-96741000D02*
X139881000Y-100045000D01*
X139921000Y-90975000D02*
X139921000Y-94259000D01*
X139921000Y-96741000D02*
X139921000Y-100025000D01*
X139961000Y-90996000D02*
X139961000Y-94259000D01*
X139961000Y-96741000D02*
X139961000Y-100004000D01*
X140001000Y-91017000D02*
X140001000Y-94259000D01*
X140001000Y-96741000D02*
X140001000Y-99983000D01*
X140041000Y-91038000D02*
X140041000Y-94259000D01*
X140041000Y-96741000D02*
X140041000Y-99962000D01*
X140081000Y-91060000D02*
X140081000Y-94259000D01*
X140081000Y-96741000D02*
X140081000Y-99940000D01*
X140121000Y-91083000D02*
X140121000Y-94259000D01*
X140121000Y-96741000D02*
X140121000Y-99917000D01*
X140161000Y-91105000D02*
X140161000Y-94259000D01*
X140161000Y-96741000D02*
X140161000Y-99895000D01*
X140201000Y-91129000D02*
X140201000Y-94259000D01*
X140201000Y-96741000D02*
X140201000Y-99871000D01*
X140241000Y-91153000D02*
X140241000Y-94259000D01*
X140241000Y-96741000D02*
X140241000Y-99847000D01*
X140281000Y-91177000D02*
X140281000Y-94259000D01*
X140281000Y-96741000D02*
X140281000Y-99823000D01*
X140321000Y-91202000D02*
X140321000Y-94259000D01*
X140321000Y-96741000D02*
X140321000Y-99798000D01*
X140361000Y-91227000D02*
X140361000Y-94259000D01*
X140361000Y-96741000D02*
X140361000Y-99773000D01*
X140401000Y-91253000D02*
X140401000Y-94259000D01*
X140401000Y-96741000D02*
X140401000Y-99747000D01*
X140441000Y-91279000D02*
X140441000Y-94259000D01*
X140441000Y-96741000D02*
X140441000Y-99721000D01*
X140481000Y-91306000D02*
X140481000Y-94259000D01*
X140481000Y-96741000D02*
X140481000Y-99694000D01*
X140521000Y-91334000D02*
X140521000Y-94259000D01*
X140521000Y-96741000D02*
X140521000Y-99666000D01*
X140561000Y-91362000D02*
X140561000Y-94259000D01*
X140561000Y-96741000D02*
X140561000Y-99638000D01*
X140601000Y-91390000D02*
X140601000Y-94259000D01*
X140601000Y-96741000D02*
X140601000Y-99610000D01*
X140641000Y-91420000D02*
X140641000Y-94259000D01*
X140641000Y-96741000D02*
X140641000Y-99580000D01*
X140681000Y-91450000D02*
X140681000Y-94259000D01*
X140681000Y-96741000D02*
X140681000Y-99550000D01*
X140721000Y-91480000D02*
X140721000Y-94259000D01*
X140721000Y-96741000D02*
X140721000Y-99520000D01*
X140761000Y-91511000D02*
X140761000Y-99489000D01*
X140801000Y-91543000D02*
X140801000Y-99457000D01*
X140841000Y-91575000D02*
X140841000Y-99425000D01*
X140881000Y-91608000D02*
X140881000Y-99392000D01*
X140921000Y-91642000D02*
X140921000Y-99358000D01*
X140961000Y-91676000D02*
X140961000Y-99324000D01*
X141001000Y-91711000D02*
X141001000Y-99289000D01*
X141041000Y-91747000D02*
X141041000Y-99253000D01*
X141081000Y-91784000D02*
X141081000Y-99216000D01*
X141121000Y-91821000D02*
X141121000Y-99179000D01*
X141161000Y-91860000D02*
X141161000Y-99140000D01*
X141201000Y-91899000D02*
X141201000Y-99101000D01*
X141241000Y-91939000D02*
X141241000Y-99061000D01*
X141281000Y-91980000D02*
X141281000Y-99020000D01*
X141321000Y-92022000D02*
X141321000Y-98978000D01*
X141361000Y-92064000D02*
X141361000Y-98936000D01*
X141401000Y-92108000D02*
X141401000Y-98892000D01*
X141441000Y-92153000D02*
X141441000Y-98847000D01*
X141481000Y-92199000D02*
X141481000Y-98801000D01*
X141521000Y-92246000D02*
X141521000Y-98754000D01*
X141561000Y-92294000D02*
X141561000Y-98706000D01*
X141601000Y-92344000D02*
X141601000Y-98656000D01*
X141641000Y-92394000D02*
X141641000Y-98606000D01*
X141681000Y-92446000D02*
X141681000Y-98554000D01*
X141721000Y-92500000D02*
X141721000Y-98500000D01*
X141761000Y-92555000D02*
X141761000Y-98445000D01*
X141801000Y-92611000D02*
X141801000Y-98389000D01*
X141841000Y-92670000D02*
X141841000Y-98330000D01*
X141881000Y-92730000D02*
X141881000Y-98270000D01*
X141921000Y-92791000D02*
X141921000Y-98209000D01*
X141961000Y-92855000D02*
X141961000Y-98145000D01*
X142001000Y-92921000D02*
X142001000Y-98079000D01*
X142041000Y-92990000D02*
X142041000Y-98010000D01*
X142081000Y-93061000D02*
X142081000Y-97939000D01*
X142121000Y-93135000D02*
X142121000Y-97865000D01*
X142161000Y-93211000D02*
X142161000Y-97789000D01*
X142201000Y-93291000D02*
X142201000Y-97709000D01*
X142241000Y-93375000D02*
X142241000Y-97625000D01*
X142281000Y-93463000D02*
X142281000Y-97537000D01*
X142321000Y-93556000D02*
X142321000Y-97444000D01*
X142361000Y-93654000D02*
X142361000Y-97346000D01*
X142401000Y-93758000D02*
X142401000Y-97242000D01*
X142441000Y-93870000D02*
X142441000Y-97130000D01*
X142481000Y-93990000D02*
X142481000Y-97010000D01*
X142521000Y-94122000D02*
X142521000Y-96878000D01*
X142561000Y-94270000D02*
X142561000Y-96730000D01*
X142601000Y-94438000D02*
X142601000Y-96562000D01*
X142641000Y-94638000D02*
X142641000Y-96362000D01*
X142681000Y-94901000D02*
X142681000Y-96099000D01*
X142720000Y-95500000D02*
G75*
G02*
X132480000Y-95500000I-5120000J0D01*
G01*
X132480000Y-95500000D02*
G75*
G02*
X142720000Y-95500000I5120000J0D01*
G01*
D12*
%TO.C,Q1*%
X143650000Y-109000000D02*
G75*
G02*
X134330000Y-109000000I-4660000J0D01*
G01*
X134330000Y-109000000D02*
G75*
G02*
X143650000Y-109000000I4660000J0D01*
G01*
X144850000Y-109000000D02*
G75*
G02*
X133130000Y-109000000I-5860000J0D01*
G01*
X133130000Y-109000000D02*
G75*
G02*
X144850000Y-109000000I5860000J0D01*
G01*
%TD*%
M02*
