%TF.GenerationSoftware,KiCad,Pcbnew,(7.0.0-0)*%
%TF.CreationDate,2024-03-05T17:03:47+03:00*%
%TF.ProjectId,germanium-power-src,6765726d-616e-4697-956d-2d706f776572,rev?*%
%TF.SameCoordinates,Original*%
%TF.FileFunction,Copper,L2,Bot*%
%TF.FilePolarity,Positive*%
%FSLAX46Y46*%
G04 Gerber Fmt 4.6, Leading zero omitted, Abs format (unit mm)*
G04 Created by KiCad (PCBNEW (7.0.0-0)) date 2024-03-05 17:03:47*
%MOMM*%
%LPD*%
G01*
G04 APERTURE LIST*
%TA.AperFunction,ComponentPad*%
%ADD10C,1.440000*%
%TD*%
%TA.AperFunction,ComponentPad*%
%ADD11R,1.700000X1.700000*%
%TD*%
%TA.AperFunction,ComponentPad*%
%ADD12O,1.700000X1.700000*%
%TD*%
%TA.AperFunction,ComponentPad*%
%ADD13C,1.600000*%
%TD*%
%TA.AperFunction,ComponentPad*%
%ADD14O,1.600000X1.600000*%
%TD*%
%TA.AperFunction,ComponentPad*%
%ADD15R,1.600000X1.600000*%
%TD*%
%TA.AperFunction,ComponentPad*%
%ADD16R,2.000000X2.000000*%
%TD*%
%TA.AperFunction,ComponentPad*%
%ADD17C,2.000000*%
%TD*%
%TA.AperFunction,ComponentPad*%
%ADD18O,1.200000X1.200000*%
%TD*%
%TA.AperFunction,Conductor*%
%ADD19C,0.250000*%
%TD*%
G04 APERTURE END LIST*
D10*
%TO.P,RV1,1,1*%
%TO.N,Net-(D1-A)*%
X115500000Y-107420000D03*
%TO.P,RV1,2,2*%
%TO.N,Net-(Q1-B)*%
X115500000Y-109960000D03*
%TO.P,RV1,3,3*%
%TO.N,+12V*%
X115500000Y-112500000D03*
%TD*%
D11*
%TO.P,D3,1,K*%
%TO.N,Net-(D3-K)*%
X109499999Y-83499999D03*
D12*
%TO.P,D3,2,A*%
%TO.N,+12V*%
X129499999Y-83499999D03*
%TD*%
D11*
%TO.P,D4,1,K*%
%TO.N,Net-(D4-K)*%
X109499999Y-89499999D03*
D12*
%TO.P,D4,2,A*%
%TO.N,+12V*%
X129499999Y-89499999D03*
%TD*%
D13*
%TO.P,R3,1*%
%TO.N,+12V*%
X120420000Y-106500000D03*
D14*
%TO.P,R3,2*%
%TO.N,Net-(J2-Pin_1)*%
X130579999Y-106499999D03*
%TD*%
D15*
%TO.P,D1,1,A*%
%TO.N,Net-(D1-A)*%
X148499999Y-113999999D03*
D14*
%TO.P,D1,2,K*%
%TO.N,Net-(D1-K)*%
X148499999Y-101999999D03*
%TD*%
D11*
%TO.P,J1,1,Pin_1*%
%TO.N,Net-(D3-K)*%
X109499999Y-108959999D03*
D12*
%TO.P,J1,2,Pin_2*%
%TO.N,Net-(D4-K)*%
X109499999Y-111499999D03*
%TD*%
D11*
%TO.P,D6,1,K*%
%TO.N,-12V*%
X109499999Y-101499999D03*
D12*
%TO.P,D6,2,A*%
%TO.N,Net-(D3-K)*%
X129499999Y-101499999D03*
%TD*%
D13*
%TO.P,R1,1*%
%TO.N,Net-(D1-A)*%
X120420000Y-113500000D03*
D14*
%TO.P,R1,2*%
%TO.N,-12V*%
X130579999Y-113499999D03*
%TD*%
D13*
%TO.P,R2,1*%
%TO.N,+12V*%
X120420000Y-110000000D03*
D14*
%TO.P,R2,2*%
%TO.N,Net-(J2-Pin_2)*%
X130579999Y-109999999D03*
%TD*%
D15*
%TO.P,D2,1,A*%
%TO.N,Net-(D2-A)*%
X148499999Y-82499999D03*
D14*
%TO.P,D2,2,K*%
%TO.N,+12V*%
X136499999Y-82499999D03*
%TD*%
D11*
%TO.P,J2,1,Pin_1*%
%TO.N,Net-(J2-Pin_1)*%
X134919999Y-87499999D03*
D12*
%TO.P,J2,2,Pin_2*%
%TO.N,Net-(J2-Pin_2)*%
X137459999Y-87499999D03*
%TO.P,J2,3,Pin_3*%
%TO.N,-12V*%
X139999999Y-87499999D03*
%TD*%
D11*
%TO.P,J3,1,Pin_1*%
%TO.N,+12V*%
X143999999Y-89999999D03*
D12*
%TO.P,J3,2,Pin_2*%
%TO.N,Net-(J2-Pin_1)*%
X143999999Y-87459999D03*
%TD*%
D15*
%TO.P,D7,1,A*%
%TO.N,Net-(D1-K)*%
X148499999Y-98499999D03*
D14*
%TO.P,D7,2,K*%
%TO.N,Net-(D2-A)*%
X148499999Y-86499999D03*
%TD*%
D11*
%TO.P,D5,1,K*%
%TO.N,-12V*%
X109499999Y-95499999D03*
D12*
%TO.P,D5,2,A*%
%TO.N,Net-(D4-K)*%
X129499999Y-95499999D03*
%TD*%
D16*
%TO.P,C1,1*%
%TO.N,+12V*%
X135699999Y-95499999D03*
D17*
%TO.P,C1,2*%
%TO.N,-12V*%
X139500000Y-95500000D03*
%TD*%
D18*
%TO.P,Q1,1,C*%
%TO.N,-12V*%
X136449999Y-108999999D03*
%TO.P,Q1,2,B*%
%TO.N,Net-(Q1-B)*%
X138989999Y-107099999D03*
%TO.P,Q1,3,E*%
%TO.N,Net-(J2-Pin_2)*%
X141529999Y-108999999D03*
%TD*%
D19*
%TO.N,Net-(D1-A)*%
X120420000Y-113500000D02*
X120420000Y-112340000D01*
X120420000Y-112340000D02*
X115500000Y-107420000D01*
%TO.N,Net-(D1-K)*%
X148500000Y-98500000D02*
X148500000Y-102000000D01*
%TO.N,+12V*%
X129500000Y-89500000D02*
X129500000Y-83500000D01*
X120420000Y-106500000D02*
X120420000Y-100331900D01*
X129500000Y-89500000D02*
X129500000Y-91251900D01*
X120420000Y-110000000D02*
X120420000Y-106500000D01*
X120420000Y-100331900D02*
X129500000Y-91251900D01*
%TO.N,-12V*%
X136450000Y-109000000D02*
X135348100Y-109000000D01*
X140000000Y-87500000D02*
X140000000Y-95000000D01*
X130580000Y-113500000D02*
X131881900Y-113500000D01*
X136450000Y-98550000D02*
X136450000Y-109000000D01*
X131881900Y-112466200D02*
X131881900Y-113500000D01*
X135348100Y-109000000D02*
X131881900Y-112466200D01*
X139500000Y-95500000D02*
X136450000Y-98550000D01*
X140000000Y-95000000D02*
X139500000Y-95500000D01*
%TO.N,Net-(J2-Pin_1)*%
X132000000Y-91771900D02*
X132000000Y-103778100D01*
X132000000Y-103778100D02*
X130580000Y-105198100D01*
X130580000Y-105198100D02*
X130580000Y-106500000D01*
X134920000Y-88851900D02*
X132000000Y-91771900D01*
X134920000Y-87500000D02*
X134920000Y-88851900D01*
%TO.N,Net-(J2-Pin_2)*%
X133500000Y-94000000D02*
X133500000Y-107000000D01*
X137460000Y-90040000D02*
X133500000Y-94000000D01*
X130580000Y-109920000D02*
X130580000Y-110000000D01*
X133500000Y-107000000D02*
X130580000Y-109920000D01*
X137460000Y-87500000D02*
X137460000Y-90040000D01*
%TO.N,Net-(D3-K)*%
X109500000Y-108960000D02*
X109500000Y-107608100D01*
X109500000Y-107608100D02*
X115000000Y-102108100D01*
X115000000Y-90751900D02*
X109500000Y-85251900D01*
X109500000Y-85251900D02*
X109500000Y-83500000D01*
X115000000Y-102108100D02*
X115000000Y-90751900D01*
%TO.N,Net-(D4-K)*%
X113000000Y-102000000D02*
X113000000Y-93000000D01*
X107500000Y-111500000D02*
X107500000Y-107500000D01*
X113000000Y-93000000D02*
X109500000Y-89500000D01*
X107500000Y-107500000D02*
X113000000Y-102000000D01*
X109500000Y-111500000D02*
X107500000Y-111500000D01*
%TO.N,Net-(D2-A)*%
X148500000Y-86500000D02*
X148500000Y-82500000D01*
%TD*%
%TA.AperFunction,Conductor*%
%TO.N,-12V*%
G36*
X151438000Y-80016613D02*
G01*
X151483387Y-80062000D01*
X151500000Y-80124000D01*
X151500000Y-115876000D01*
X151483387Y-115938000D01*
X151438000Y-115983387D01*
X151376000Y-116000000D01*
X106624000Y-116000000D01*
X106562000Y-115983387D01*
X106516613Y-115938000D01*
X106500000Y-115876000D01*
X106500000Y-114844578D01*
X147199500Y-114844578D01*
X147199501Y-114847872D01*
X147199853Y-114851150D01*
X147199854Y-114851161D01*
X147205079Y-114899768D01*
X147205080Y-114899773D01*
X147205909Y-114907483D01*
X147208619Y-114914749D01*
X147208620Y-114914753D01*
X147242217Y-115004831D01*
X147256204Y-115042331D01*
X147342454Y-115157546D01*
X147457669Y-115243796D01*
X147592517Y-115294091D01*
X147652127Y-115300500D01*
X149347872Y-115300499D01*
X149407483Y-115294091D01*
X149542331Y-115243796D01*
X149657546Y-115157546D01*
X149743796Y-115042331D01*
X149794091Y-114907483D01*
X149800500Y-114847873D01*
X149800499Y-113152128D01*
X149794091Y-113092517D01*
X149743796Y-112957669D01*
X149657546Y-112842454D01*
X149645801Y-112833662D01*
X149549431Y-112761519D01*
X149549430Y-112761518D01*
X149542331Y-112756204D01*
X149407483Y-112705909D01*
X149399770Y-112705079D01*
X149399767Y-112705079D01*
X149351180Y-112699855D01*
X149351169Y-112699854D01*
X149347873Y-112699500D01*
X149344550Y-112699500D01*
X147655439Y-112699500D01*
X147655420Y-112699500D01*
X147652128Y-112699501D01*
X147648850Y-112699853D01*
X147648838Y-112699854D01*
X147600231Y-112705079D01*
X147600225Y-112705080D01*
X147592517Y-112705909D01*
X147585252Y-112708618D01*
X147585246Y-112708620D01*
X147465980Y-112753104D01*
X147465978Y-112753104D01*
X147457669Y-112756204D01*
X147450572Y-112761516D01*
X147450568Y-112761519D01*
X147349550Y-112837141D01*
X147349546Y-112837144D01*
X147342454Y-112842454D01*
X147337144Y-112849546D01*
X147337141Y-112849550D01*
X147261519Y-112950568D01*
X147261516Y-112950572D01*
X147256204Y-112957669D01*
X147253104Y-112965978D01*
X147253104Y-112965980D01*
X147208620Y-113085247D01*
X147208619Y-113085250D01*
X147205909Y-113092517D01*
X147205079Y-113100227D01*
X147205079Y-113100232D01*
X147199855Y-113148819D01*
X147199854Y-113148831D01*
X147199500Y-113152127D01*
X147199500Y-113155448D01*
X147199500Y-113155449D01*
X147199500Y-114844560D01*
X147199500Y-114844578D01*
X106500000Y-114844578D01*
X106500000Y-107480196D01*
X106869840Y-107480196D01*
X106870574Y-107487961D01*
X106870574Y-107487964D01*
X106873950Y-107523676D01*
X106874500Y-107535345D01*
X106874500Y-111429151D01*
X106872304Y-111452386D01*
X106872233Y-111452753D01*
X106872232Y-111452760D01*
X106870773Y-111460412D01*
X106871262Y-111468189D01*
X106871262Y-111468195D01*
X106874255Y-111515759D01*
X106874500Y-111523545D01*
X106874500Y-111539350D01*
X106874987Y-111543207D01*
X106874988Y-111543220D01*
X106876481Y-111555037D01*
X106877213Y-111562787D01*
X106880696Y-111618138D01*
X106883105Y-111625553D01*
X106883107Y-111625563D01*
X106883223Y-111625919D01*
X106888308Y-111648666D01*
X106888356Y-111649046D01*
X106888358Y-111649055D01*
X106889336Y-111656792D01*
X106892205Y-111664040D01*
X106892206Y-111664041D01*
X106909753Y-111708360D01*
X106912390Y-111715685D01*
X106927122Y-111761022D01*
X106929533Y-111768441D01*
X106933708Y-111775021D01*
X106933710Y-111775024D01*
X106933910Y-111775338D01*
X106944500Y-111796122D01*
X106944641Y-111796479D01*
X106944644Y-111796485D01*
X106947514Y-111803732D01*
X106980132Y-111848627D01*
X106984498Y-111855053D01*
X107014214Y-111901877D01*
X107019902Y-111907218D01*
X107019907Y-111907224D01*
X107020165Y-111907466D01*
X107035603Y-111924976D01*
X107040406Y-111931587D01*
X107046411Y-111936554D01*
X107046415Y-111936559D01*
X107083146Y-111966946D01*
X107088988Y-111972096D01*
X107129418Y-112010062D01*
X107136586Y-112014002D01*
X107155882Y-112027116D01*
X107162177Y-112032324D01*
X107169236Y-112035646D01*
X107169243Y-112035650D01*
X107212363Y-112055941D01*
X107219303Y-112059477D01*
X107242762Y-112072373D01*
X107267908Y-112086197D01*
X107275811Y-112088226D01*
X107297784Y-112096137D01*
X107298113Y-112096292D01*
X107298118Y-112096293D01*
X107305174Y-112099614D01*
X107359666Y-112110008D01*
X107367263Y-112111707D01*
X107420981Y-112125500D01*
X107429151Y-112125500D01*
X107452386Y-112127696D01*
X107460412Y-112129227D01*
X107515758Y-112125745D01*
X107523545Y-112125500D01*
X108224772Y-112125500D01*
X108282029Y-112139511D01*
X108326347Y-112178376D01*
X108458399Y-112366966D01*
X108458402Y-112366970D01*
X108461505Y-112371401D01*
X108628599Y-112538495D01*
X108822170Y-112674035D01*
X109036337Y-112773903D01*
X109264592Y-112835063D01*
X109500000Y-112855659D01*
X109735408Y-112835063D01*
X109963663Y-112773903D01*
X110177830Y-112674035D01*
X110371401Y-112538495D01*
X110409896Y-112500000D01*
X114274838Y-112500000D01*
X114275310Y-112505395D01*
X114292852Y-112705909D01*
X114293451Y-112712747D01*
X114294851Y-112717971D01*
X114347321Y-112913797D01*
X114347324Y-112913805D01*
X114348724Y-112919030D01*
X114351012Y-112923937D01*
X114351013Y-112923939D01*
X114366742Y-112957669D01*
X114438979Y-113112581D01*
X114561471Y-113287519D01*
X114712481Y-113438529D01*
X114887419Y-113561021D01*
X115080970Y-113651276D01*
X115287253Y-113706549D01*
X115500000Y-113725162D01*
X115712747Y-113706549D01*
X115919030Y-113651276D01*
X116112581Y-113561021D01*
X116287519Y-113438529D01*
X116438529Y-113287519D01*
X116561021Y-113112581D01*
X116651276Y-112919030D01*
X116706549Y-112712747D01*
X116725162Y-112500000D01*
X116706549Y-112287253D01*
X116655597Y-112097098D01*
X116652678Y-112086202D01*
X116652677Y-112086200D01*
X116651276Y-112080970D01*
X116561021Y-111887419D01*
X116438529Y-111712481D01*
X116287519Y-111561471D01*
X116143191Y-111460412D01*
X116117020Y-111442087D01*
X116117018Y-111442086D01*
X116112581Y-111438979D01*
X115976389Y-111375471D01*
X115923933Y-111351010D01*
X115923929Y-111351008D01*
X115919030Y-111348724D01*
X115913803Y-111347323D01*
X115911601Y-111346522D01*
X115861860Y-111312973D01*
X115833693Y-111259999D01*
X115833693Y-111200001D01*
X115861860Y-111147027D01*
X115911601Y-111113478D01*
X115913801Y-111112676D01*
X115919030Y-111111276D01*
X116112581Y-111021021D01*
X116287519Y-110898529D01*
X116438529Y-110747519D01*
X116561021Y-110572581D01*
X116651276Y-110379030D01*
X116706549Y-110172747D01*
X116725162Y-109960000D01*
X116713603Y-109827887D01*
X116722988Y-109768633D01*
X116759095Y-109720717D01*
X116813470Y-109695361D01*
X116873385Y-109698501D01*
X116924812Y-109729402D01*
X119550431Y-112355021D01*
X119582525Y-112410608D01*
X119582525Y-112474796D01*
X119550431Y-112530383D01*
X119423782Y-112657031D01*
X119423776Y-112657037D01*
X119419953Y-112660861D01*
X119416850Y-112665291D01*
X119416847Y-112665296D01*
X119292540Y-112842826D01*
X119292535Y-112842833D01*
X119289432Y-112847266D01*
X119287144Y-112852172D01*
X119287142Y-112852176D01*
X119195550Y-113048594D01*
X119195547Y-113048599D01*
X119193261Y-113053504D01*
X119191862Y-113058724D01*
X119191858Y-113058736D01*
X119135764Y-113268083D01*
X119135762Y-113268094D01*
X119134365Y-113273308D01*
X119133893Y-113278693D01*
X119133893Y-113278698D01*
X119120245Y-113434699D01*
X119114532Y-113500000D01*
X119115004Y-113505395D01*
X119132602Y-113706549D01*
X119134365Y-113726692D01*
X119135762Y-113731907D01*
X119135764Y-113731916D01*
X119191858Y-113941263D01*
X119191861Y-113941271D01*
X119193261Y-113946496D01*
X119289432Y-114152734D01*
X119419953Y-114339139D01*
X119580861Y-114500047D01*
X119767266Y-114630568D01*
X119973504Y-114726739D01*
X119978734Y-114728140D01*
X119978736Y-114728141D01*
X120154285Y-114775179D01*
X120193308Y-114785635D01*
X120420000Y-114805468D01*
X120646692Y-114785635D01*
X120866496Y-114726739D01*
X121072734Y-114630568D01*
X121259139Y-114500047D01*
X121420047Y-114339139D01*
X121550568Y-114152734D01*
X121646739Y-113946496D01*
X121698706Y-113752551D01*
X129304452Y-113752551D01*
X129304820Y-113763780D01*
X129352330Y-113941092D01*
X129356022Y-113951234D01*
X129447579Y-114147580D01*
X129452967Y-114156912D01*
X129577232Y-114334381D01*
X129584169Y-114342647D01*
X129737352Y-114495830D01*
X129745618Y-114502767D01*
X129923087Y-114627032D01*
X129932419Y-114632420D01*
X130128765Y-114723977D01*
X130138907Y-114727669D01*
X130316219Y-114775179D01*
X130327448Y-114775547D01*
X130330000Y-114764605D01*
X130830000Y-114764605D01*
X130832551Y-114775547D01*
X130843780Y-114775179D01*
X131021092Y-114727669D01*
X131031234Y-114723977D01*
X131227580Y-114632420D01*
X131236912Y-114627032D01*
X131414381Y-114502767D01*
X131422647Y-114495830D01*
X131575830Y-114342647D01*
X131582767Y-114334381D01*
X131707032Y-114156912D01*
X131712420Y-114147580D01*
X131803977Y-113951234D01*
X131807669Y-113941092D01*
X131855179Y-113763780D01*
X131855547Y-113752551D01*
X131844605Y-113750000D01*
X130846326Y-113750000D01*
X130833450Y-113753450D01*
X130830000Y-113766326D01*
X130830000Y-114764605D01*
X130330000Y-114764605D01*
X130330000Y-113766326D01*
X130326549Y-113753450D01*
X130313674Y-113750000D01*
X129315395Y-113750000D01*
X129304452Y-113752551D01*
X121698706Y-113752551D01*
X121705635Y-113726692D01*
X121725468Y-113500000D01*
X121705635Y-113273308D01*
X121698706Y-113247448D01*
X129304452Y-113247448D01*
X129315395Y-113250000D01*
X130313674Y-113250000D01*
X130326549Y-113246549D01*
X130330000Y-113233674D01*
X130830000Y-113233674D01*
X130833450Y-113246549D01*
X130846326Y-113250000D01*
X131844605Y-113250000D01*
X131855547Y-113247448D01*
X131855179Y-113236219D01*
X131807669Y-113058907D01*
X131803977Y-113048765D01*
X131712420Y-112852419D01*
X131707032Y-112843087D01*
X131582767Y-112665618D01*
X131575830Y-112657352D01*
X131422647Y-112504169D01*
X131414381Y-112497232D01*
X131236912Y-112372967D01*
X131227580Y-112367579D01*
X131031234Y-112276022D01*
X131021092Y-112272330D01*
X130843780Y-112224820D01*
X130832551Y-112224452D01*
X130830000Y-112235395D01*
X130830000Y-113233674D01*
X130330000Y-113233674D01*
X130330000Y-112235395D01*
X130327448Y-112224452D01*
X130316219Y-112224820D01*
X130138907Y-112272330D01*
X130128765Y-112276022D01*
X129932419Y-112367579D01*
X129923087Y-112372967D01*
X129745618Y-112497232D01*
X129737352Y-112504169D01*
X129584169Y-112657352D01*
X129577232Y-112665618D01*
X129452967Y-112843087D01*
X129447579Y-112852419D01*
X129356022Y-113048765D01*
X129352330Y-113058907D01*
X129304820Y-113236219D01*
X129304452Y-113247448D01*
X121698706Y-113247448D01*
X121672284Y-113148838D01*
X121648141Y-113058736D01*
X121648140Y-113058734D01*
X121646739Y-113053504D01*
X121550568Y-112847266D01*
X121420047Y-112660861D01*
X121259139Y-112499953D01*
X121097400Y-112386703D01*
X121059804Y-112344761D01*
X121047407Y-112300415D01*
X121045501Y-112300657D01*
X121044999Y-112296686D01*
X121044081Y-112285026D01*
X121043682Y-112272330D01*
X121042710Y-112241373D01*
X121037118Y-112222128D01*
X121033174Y-112203083D01*
X121030664Y-112183208D01*
X121014579Y-112142583D01*
X121010806Y-112131562D01*
X120998618Y-112089610D01*
X120988417Y-112072360D01*
X120979863Y-112054901D01*
X120972486Y-112036268D01*
X120946808Y-112000925D01*
X120940401Y-111991171D01*
X120922142Y-111960296D01*
X120922141Y-111960294D01*
X120918170Y-111953580D01*
X120904005Y-111939415D01*
X120891370Y-111924622D01*
X120879594Y-111908413D01*
X120873583Y-111903440D01*
X120873581Y-111903438D01*
X120845941Y-111880573D01*
X120837300Y-111872710D01*
X120470153Y-111505563D01*
X120436773Y-111444720D01*
X120441312Y-111375471D01*
X120482348Y-111319506D01*
X120547025Y-111294354D01*
X120646692Y-111285635D01*
X120866496Y-111226739D01*
X121072734Y-111130568D01*
X121259139Y-111000047D01*
X121420047Y-110839139D01*
X121550568Y-110652734D01*
X121646739Y-110446496D01*
X121705635Y-110226692D01*
X121725468Y-110000000D01*
X129274532Y-110000000D01*
X129275004Y-110005395D01*
X129290227Y-110179403D01*
X129294365Y-110226692D01*
X129295762Y-110231907D01*
X129295764Y-110231916D01*
X129351858Y-110441263D01*
X129351861Y-110441271D01*
X129353261Y-110446496D01*
X129449432Y-110652734D01*
X129579953Y-110839139D01*
X129740861Y-111000047D01*
X129927266Y-111130568D01*
X130133504Y-111226739D01*
X130138734Y-111228140D01*
X130138736Y-111228141D01*
X130274774Y-111264592D01*
X130353308Y-111285635D01*
X130580000Y-111305468D01*
X130806692Y-111285635D01*
X131026496Y-111226739D01*
X131232734Y-111130568D01*
X131419139Y-111000047D01*
X131580047Y-110839139D01*
X131710568Y-110652734D01*
X131806739Y-110446496D01*
X131865635Y-110226692D01*
X131885468Y-110000000D01*
X131865635Y-109773308D01*
X131830412Y-109641853D01*
X131830412Y-109577670D01*
X131862504Y-109522084D01*
X132132009Y-109252579D01*
X135380888Y-109252579D01*
X135381409Y-109263838D01*
X135418315Y-109393549D01*
X135422444Y-109404205D01*
X135508199Y-109576424D01*
X135514206Y-109586127D01*
X135630149Y-109739662D01*
X135637847Y-109748106D01*
X135780027Y-109877719D01*
X135789131Y-109884595D01*
X135952715Y-109985882D01*
X135962928Y-109990968D01*
X136142333Y-110060469D01*
X136153317Y-110063594D01*
X136186570Y-110069810D01*
X136197598Y-110069428D01*
X136200000Y-110058661D01*
X136700000Y-110058661D01*
X136702401Y-110069428D01*
X136713429Y-110069810D01*
X136746682Y-110063594D01*
X136757666Y-110060469D01*
X136937071Y-109990968D01*
X136947284Y-109985882D01*
X137110868Y-109884595D01*
X137119972Y-109877719D01*
X137262152Y-109748106D01*
X137269850Y-109739662D01*
X137385793Y-109586127D01*
X137391800Y-109576424D01*
X137477555Y-109404205D01*
X137481684Y-109393549D01*
X137518590Y-109263838D01*
X137519111Y-109252579D01*
X137508143Y-109250000D01*
X136716326Y-109250000D01*
X136703450Y-109253450D01*
X136700000Y-109266326D01*
X136700000Y-110058661D01*
X136200000Y-110058661D01*
X136200000Y-109266326D01*
X136196549Y-109253450D01*
X136183674Y-109250000D01*
X135391857Y-109250000D01*
X135380888Y-109252579D01*
X132132009Y-109252579D01*
X132384588Y-109000000D01*
X140424785Y-109000000D01*
X140425314Y-109005709D01*
X140440101Y-109165296D01*
X140443603Y-109203083D01*
X140445171Y-109208594D01*
X140445173Y-109208604D01*
X140497847Y-109393731D01*
X140497849Y-109393737D01*
X140499418Y-109399250D01*
X140590327Y-109581821D01*
X140593779Y-109586392D01*
X140709778Y-109740001D01*
X140709783Y-109740006D01*
X140713236Y-109744579D01*
X140717472Y-109748440D01*
X140717476Y-109748445D01*
X140804625Y-109827891D01*
X140863959Y-109881981D01*
X141037363Y-109989348D01*
X141227544Y-110063024D01*
X141428024Y-110100500D01*
X141626247Y-110100500D01*
X141631976Y-110100500D01*
X141832456Y-110063024D01*
X142022637Y-109989348D01*
X142196041Y-109881981D01*
X142346764Y-109744579D01*
X142469673Y-109581821D01*
X142560582Y-109399250D01*
X142616397Y-109203083D01*
X142635215Y-109000000D01*
X142616397Y-108796917D01*
X142610317Y-108775550D01*
X142562152Y-108606268D01*
X142560582Y-108600750D01*
X142469673Y-108418179D01*
X142421176Y-108353959D01*
X142350221Y-108259998D01*
X142350217Y-108259994D01*
X142346764Y-108255421D01*
X142342527Y-108251558D01*
X142342523Y-108251554D01*
X142200275Y-108121879D01*
X142200276Y-108121879D01*
X142196041Y-108118019D01*
X142191171Y-108115004D01*
X142191169Y-108115002D01*
X142027511Y-108013670D01*
X142027512Y-108013670D01*
X142022637Y-108010652D01*
X142001638Y-108002517D01*
X141837803Y-107939047D01*
X141837798Y-107939045D01*
X141832456Y-107936976D01*
X141826818Y-107935922D01*
X141637605Y-107900552D01*
X141637602Y-107900551D01*
X141631976Y-107899500D01*
X141428024Y-107899500D01*
X141422398Y-107900551D01*
X141422394Y-107900552D01*
X141233181Y-107935922D01*
X141233178Y-107935922D01*
X141227544Y-107936976D01*
X141222203Y-107939044D01*
X141222196Y-107939047D01*
X141042705Y-108008582D01*
X141042700Y-108008584D01*
X141037363Y-108010652D01*
X141032491Y-108013668D01*
X141032488Y-108013670D01*
X140868830Y-108115002D01*
X140868822Y-108115007D01*
X140863959Y-108118019D01*
X140859728Y-108121875D01*
X140859724Y-108121879D01*
X140717476Y-108251554D01*
X140717466Y-108251564D01*
X140713236Y-108255421D01*
X140709787Y-108259987D01*
X140709778Y-108259998D01*
X140593779Y-108413607D01*
X140593776Y-108413611D01*
X140590327Y-108418179D01*
X140587774Y-108423304D01*
X140587772Y-108423309D01*
X140515233Y-108568989D01*
X140499418Y-108600750D01*
X140497850Y-108606258D01*
X140497847Y-108606268D01*
X140445173Y-108791395D01*
X140445170Y-108791406D01*
X140443603Y-108796917D01*
X140443073Y-108802627D01*
X140443073Y-108802632D01*
X140435220Y-108887387D01*
X140424785Y-109000000D01*
X132384588Y-109000000D01*
X132637168Y-108747420D01*
X135380888Y-108747420D01*
X135391857Y-108750000D01*
X136183674Y-108750000D01*
X136196549Y-108746549D01*
X136200000Y-108733674D01*
X136700000Y-108733674D01*
X136703450Y-108746549D01*
X136716326Y-108750000D01*
X137508143Y-108750000D01*
X137519111Y-108747420D01*
X137518590Y-108736161D01*
X137481684Y-108606450D01*
X137477555Y-108595794D01*
X137391800Y-108423575D01*
X137385793Y-108413872D01*
X137269850Y-108260337D01*
X137262152Y-108251893D01*
X137119972Y-108122280D01*
X137110868Y-108115404D01*
X136947284Y-108014117D01*
X136937071Y-108009031D01*
X136757666Y-107939530D01*
X136746682Y-107936405D01*
X136713429Y-107930189D01*
X136702401Y-107930571D01*
X136700000Y-107941339D01*
X136700000Y-108733674D01*
X136200000Y-108733674D01*
X136200000Y-107941339D01*
X136197598Y-107930571D01*
X136186570Y-107930189D01*
X136153317Y-107936405D01*
X136142333Y-107939530D01*
X135962928Y-108009031D01*
X135952715Y-108014117D01*
X135789131Y-108115404D01*
X135780027Y-108122280D01*
X135637847Y-108251893D01*
X135630149Y-108260337D01*
X135514206Y-108413872D01*
X135508199Y-108423575D01*
X135422444Y-108595794D01*
X135418315Y-108606450D01*
X135381409Y-108736161D01*
X135380888Y-108747420D01*
X132637168Y-108747420D01*
X133887306Y-107497282D01*
X133895482Y-107489843D01*
X133901877Y-107485786D01*
X133947933Y-107436740D01*
X133950550Y-107434038D01*
X133970120Y-107414470D01*
X133972565Y-107411316D01*
X133980155Y-107402428D01*
X134010062Y-107370582D01*
X134019709Y-107353032D01*
X134030393Y-107336766D01*
X134042674Y-107320936D01*
X134060018Y-107280851D01*
X134065160Y-107270356D01*
X134066506Y-107267908D01*
X134086197Y-107232092D01*
X134088143Y-107224514D01*
X134091179Y-107212689D01*
X134097480Y-107194283D01*
X134105438Y-107175895D01*
X134112269Y-107132756D01*
X134114639Y-107121315D01*
X134118647Y-107105709D01*
X134120113Y-107100000D01*
X137884785Y-107100000D01*
X137885314Y-107105709D01*
X137901043Y-107275461D01*
X137903603Y-107303083D01*
X137905171Y-107308594D01*
X137905173Y-107308604D01*
X137957847Y-107493731D01*
X137957849Y-107493737D01*
X137959418Y-107499250D01*
X138050327Y-107681821D01*
X138053779Y-107686392D01*
X138169778Y-107840001D01*
X138169783Y-107840006D01*
X138173236Y-107844579D01*
X138177472Y-107848440D01*
X138177476Y-107848445D01*
X138267146Y-107930189D01*
X138323959Y-107981981D01*
X138497363Y-108089348D01*
X138687544Y-108163024D01*
X138888024Y-108200500D01*
X139086247Y-108200500D01*
X139091976Y-108200500D01*
X139292456Y-108163024D01*
X139482637Y-108089348D01*
X139656041Y-107981981D01*
X139806764Y-107844579D01*
X139929673Y-107681821D01*
X140020582Y-107499250D01*
X140076397Y-107303083D01*
X140095215Y-107100000D01*
X140076397Y-106896917D01*
X140020582Y-106700750D01*
X139929673Y-106518179D01*
X139881176Y-106453959D01*
X139810221Y-106359998D01*
X139810217Y-106359994D01*
X139806764Y-106355421D01*
X139802527Y-106351558D01*
X139802523Y-106351554D01*
X139660275Y-106221879D01*
X139660276Y-106221879D01*
X139656041Y-106218019D01*
X139651171Y-106215004D01*
X139651169Y-106215002D01*
X139487511Y-106113670D01*
X139487512Y-106113670D01*
X139482637Y-106110652D01*
X139477294Y-106108582D01*
X139297803Y-106039047D01*
X139297798Y-106039045D01*
X139292456Y-106036976D01*
X139286818Y-106035922D01*
X139097605Y-106000552D01*
X139097602Y-106000551D01*
X139091976Y-105999500D01*
X138888024Y-105999500D01*
X138882398Y-106000551D01*
X138882394Y-106000552D01*
X138693181Y-106035922D01*
X138693178Y-106035922D01*
X138687544Y-106036976D01*
X138682203Y-106039044D01*
X138682196Y-106039047D01*
X138502705Y-106108582D01*
X138502700Y-106108584D01*
X138497363Y-106110652D01*
X138492491Y-106113668D01*
X138492488Y-106113670D01*
X138328830Y-106215002D01*
X138328822Y-106215007D01*
X138323959Y-106218019D01*
X138319728Y-106221875D01*
X138319724Y-106221879D01*
X138177476Y-106351554D01*
X138177466Y-106351564D01*
X138173236Y-106355421D01*
X138169787Y-106359987D01*
X138169778Y-106359998D01*
X138053779Y-106513607D01*
X138053776Y-106513611D01*
X138050327Y-106518179D01*
X138047774Y-106523304D01*
X138047772Y-106523309D01*
X137961976Y-106695612D01*
X137959418Y-106700750D01*
X137957850Y-106706258D01*
X137957847Y-106706268D01*
X137905173Y-106891395D01*
X137905170Y-106891406D01*
X137903603Y-106896917D01*
X137903073Y-106902627D01*
X137903073Y-106902632D01*
X137885830Y-107088725D01*
X137884785Y-107100000D01*
X134120113Y-107100000D01*
X134125500Y-107079019D01*
X134125500Y-107058983D01*
X134127025Y-107039597D01*
X134130160Y-107019804D01*
X134126050Y-106976324D01*
X134125500Y-106964655D01*
X134125500Y-102000000D01*
X147194532Y-102000000D01*
X147195004Y-102005395D01*
X147211563Y-102194674D01*
X147214365Y-102226692D01*
X147215762Y-102231907D01*
X147215764Y-102231916D01*
X147271858Y-102441263D01*
X147271861Y-102441271D01*
X147273261Y-102446496D01*
X147275549Y-102451403D01*
X147275550Y-102451405D01*
X147307304Y-102519501D01*
X147369432Y-102652734D01*
X147372539Y-102657171D01*
X147372540Y-102657173D01*
X147402592Y-102700092D01*
X147499953Y-102839139D01*
X147660861Y-103000047D01*
X147847266Y-103130568D01*
X148053504Y-103226739D01*
X148273308Y-103285635D01*
X148500000Y-103305468D01*
X148726692Y-103285635D01*
X148946496Y-103226739D01*
X149152734Y-103130568D01*
X149339139Y-103000047D01*
X149500047Y-102839139D01*
X149630568Y-102652734D01*
X149726739Y-102446496D01*
X149785635Y-102226692D01*
X149805468Y-102000000D01*
X149785635Y-101773308D01*
X149726739Y-101553504D01*
X149630568Y-101347266D01*
X149500047Y-101160861D01*
X149339139Y-100999953D01*
X149178377Y-100887387D01*
X149139511Y-100843069D01*
X149125500Y-100785812D01*
X149125500Y-99924499D01*
X149142113Y-99862499D01*
X149187500Y-99817112D01*
X149249500Y-99800499D01*
X149344561Y-99800499D01*
X149347872Y-99800499D01*
X149407483Y-99794091D01*
X149542331Y-99743796D01*
X149657546Y-99657546D01*
X149743796Y-99542331D01*
X149794091Y-99407483D01*
X149800500Y-99347873D01*
X149800499Y-97652128D01*
X149794091Y-97592517D01*
X149743796Y-97457669D01*
X149657546Y-97342454D01*
X149542331Y-97256204D01*
X149407483Y-97205909D01*
X149399770Y-97205079D01*
X149399767Y-97205079D01*
X149351180Y-97199855D01*
X149351169Y-97199854D01*
X149347873Y-97199500D01*
X149344550Y-97199500D01*
X147655439Y-97199500D01*
X147655420Y-97199500D01*
X147652128Y-97199501D01*
X147648850Y-97199853D01*
X147648838Y-97199854D01*
X147600231Y-97205079D01*
X147600225Y-97205080D01*
X147592517Y-97205909D01*
X147585252Y-97208618D01*
X147585246Y-97208620D01*
X147465980Y-97253104D01*
X147465978Y-97253104D01*
X147457669Y-97256204D01*
X147450572Y-97261516D01*
X147450568Y-97261519D01*
X147349550Y-97337141D01*
X147349546Y-97337144D01*
X147342454Y-97342454D01*
X147337144Y-97349546D01*
X147337141Y-97349550D01*
X147261519Y-97450568D01*
X147261516Y-97450572D01*
X147256204Y-97457669D01*
X147253104Y-97465978D01*
X147253104Y-97465980D01*
X147208620Y-97585247D01*
X147208619Y-97585250D01*
X147205909Y-97592517D01*
X147205079Y-97600227D01*
X147205079Y-97600232D01*
X147199855Y-97648819D01*
X147199854Y-97648831D01*
X147199500Y-97652127D01*
X147199500Y-97655448D01*
X147199500Y-97655449D01*
X147199500Y-99344560D01*
X147199500Y-99344578D01*
X147199501Y-99347872D01*
X147199853Y-99351150D01*
X147199854Y-99351161D01*
X147205079Y-99399768D01*
X147205080Y-99399773D01*
X147205909Y-99407483D01*
X147208619Y-99414749D01*
X147208620Y-99414753D01*
X147242217Y-99504831D01*
X147256204Y-99542331D01*
X147342454Y-99657546D01*
X147457669Y-99743796D01*
X147592517Y-99794091D01*
X147652127Y-99800500D01*
X147750500Y-99800500D01*
X147812500Y-99817113D01*
X147857887Y-99862500D01*
X147874500Y-99924500D01*
X147874500Y-100785812D01*
X147860489Y-100843069D01*
X147821623Y-100887387D01*
X147665296Y-100996847D01*
X147665291Y-100996850D01*
X147660861Y-100999953D01*
X147657037Y-101003776D01*
X147657031Y-101003782D01*
X147503782Y-101157031D01*
X147503776Y-101157037D01*
X147499953Y-101160861D01*
X147496850Y-101165291D01*
X147496847Y-101165296D01*
X147372540Y-101342826D01*
X147372535Y-101342833D01*
X147369432Y-101347266D01*
X147367144Y-101352172D01*
X147367142Y-101352176D01*
X147275550Y-101548594D01*
X147275547Y-101548599D01*
X147273261Y-101553504D01*
X147271862Y-101558724D01*
X147271858Y-101558736D01*
X147215764Y-101768083D01*
X147215762Y-101768094D01*
X147214365Y-101773308D01*
X147213893Y-101778693D01*
X147213893Y-101778698D01*
X147208084Y-101845101D01*
X147194532Y-102000000D01*
X134125500Y-102000000D01*
X134125500Y-96938170D01*
X134139015Y-96881875D01*
X134176615Y-96837852D01*
X134230102Y-96815697D01*
X134287818Y-96820239D01*
X134337162Y-96850477D01*
X134342454Y-96857546D01*
X134457669Y-96943796D01*
X134592517Y-96994091D01*
X134652127Y-97000500D01*
X136747872Y-97000499D01*
X136807483Y-96994091D01*
X136942331Y-96943796D01*
X137057546Y-96857546D01*
X137143796Y-96742331D01*
X137150913Y-96723248D01*
X138635749Y-96723248D01*
X138643855Y-96734439D01*
X138672717Y-96756903D01*
X138681279Y-96762496D01*
X138890885Y-96875929D01*
X138900239Y-96880032D01*
X139125656Y-96957417D01*
X139135568Y-96959928D01*
X139370643Y-96999155D01*
X139380839Y-97000000D01*
X139619161Y-97000000D01*
X139629356Y-96999155D01*
X139864431Y-96959928D01*
X139874343Y-96957417D01*
X140099760Y-96880032D01*
X140109114Y-96875929D01*
X140318723Y-96762495D01*
X140327281Y-96756903D01*
X140356146Y-96734437D01*
X140364250Y-96723250D01*
X140357589Y-96711142D01*
X139511542Y-95865095D01*
X139499999Y-95858431D01*
X139488457Y-95865095D01*
X138642408Y-96711143D01*
X138635749Y-96723248D01*
X137150913Y-96723248D01*
X137194091Y-96607483D01*
X137200500Y-96547873D01*
X137200500Y-95505117D01*
X137995283Y-95505117D01*
X138014962Y-95742618D01*
X138016646Y-95752712D01*
X138075153Y-95983747D01*
X138078472Y-95993414D01*
X138174208Y-96211673D01*
X138179070Y-96220656D01*
X138268999Y-96358304D01*
X138276963Y-96366024D01*
X138286345Y-96360100D01*
X139134904Y-95511542D01*
X139141567Y-95500000D01*
X139858431Y-95500000D01*
X139865095Y-95511542D01*
X140713653Y-96360100D01*
X140723034Y-96366024D01*
X140731002Y-96358299D01*
X140820924Y-96220664D01*
X140825792Y-96211669D01*
X140921527Y-95993414D01*
X140924846Y-95983747D01*
X140983353Y-95752712D01*
X140985037Y-95742618D01*
X141004717Y-95505117D01*
X141004717Y-95494883D01*
X140985037Y-95257381D01*
X140983353Y-95247287D01*
X140924846Y-95016252D01*
X140921527Y-95006585D01*
X140825792Y-94788330D01*
X140820924Y-94779335D01*
X140731002Y-94641699D01*
X140723034Y-94633974D01*
X140713653Y-94639898D01*
X139865095Y-95488457D01*
X139858431Y-95500000D01*
X139141567Y-95500000D01*
X139141568Y-95499999D01*
X139134904Y-95488457D01*
X138286345Y-94639898D01*
X138276964Y-94633974D01*
X138268997Y-94641699D01*
X138179072Y-94779338D01*
X138174207Y-94788328D01*
X138078472Y-95006585D01*
X138075153Y-95016252D01*
X138016646Y-95247287D01*
X138014962Y-95257381D01*
X137995283Y-95494883D01*
X137995283Y-95505117D01*
X137200500Y-95505117D01*
X137200499Y-94452128D01*
X137194091Y-94392517D01*
X137150912Y-94276749D01*
X138635748Y-94276749D01*
X138642408Y-94288855D01*
X139488457Y-95134904D01*
X139499999Y-95141568D01*
X139511542Y-95134904D01*
X140357590Y-94288855D01*
X140364250Y-94276749D01*
X140356143Y-94265559D01*
X140327286Y-94243099D01*
X140318719Y-94237503D01*
X140109114Y-94124070D01*
X140099760Y-94119967D01*
X139874343Y-94042582D01*
X139864431Y-94040071D01*
X139629356Y-94000844D01*
X139619161Y-94000000D01*
X139380839Y-94000000D01*
X139370643Y-94000844D01*
X139135568Y-94040071D01*
X139125656Y-94042582D01*
X138900239Y-94119967D01*
X138890885Y-94124070D01*
X138681276Y-94237504D01*
X138672717Y-94243096D01*
X138643854Y-94265560D01*
X138635748Y-94276749D01*
X137150912Y-94276749D01*
X137143796Y-94257669D01*
X137057546Y-94142454D01*
X136942331Y-94056204D01*
X136807483Y-94005909D01*
X136799770Y-94005079D01*
X136799767Y-94005079D01*
X136751180Y-93999855D01*
X136751169Y-93999854D01*
X136747873Y-93999500D01*
X136744551Y-93999500D01*
X134684450Y-93999500D01*
X134628155Y-93985985D01*
X134584132Y-93948385D01*
X134561977Y-93894898D01*
X134566519Y-93837182D01*
X134596766Y-93787823D01*
X137847306Y-90537282D01*
X137855482Y-90529843D01*
X137861877Y-90525786D01*
X137907933Y-90476740D01*
X137910550Y-90474038D01*
X137930120Y-90454470D01*
X137932565Y-90451316D01*
X137940155Y-90442428D01*
X137970062Y-90410582D01*
X137979709Y-90393032D01*
X137990393Y-90376766D01*
X138002674Y-90360936D01*
X138020018Y-90320851D01*
X138025160Y-90310356D01*
X138046197Y-90272092D01*
X138051179Y-90252689D01*
X138057480Y-90234283D01*
X138065438Y-90215895D01*
X138072269Y-90172756D01*
X138074639Y-90161315D01*
X138083560Y-90126574D01*
X138083559Y-90126574D01*
X138085500Y-90119019D01*
X138085500Y-90098983D01*
X138087025Y-90079597D01*
X138090160Y-90059804D01*
X138086050Y-90016324D01*
X138085500Y-90004655D01*
X138085500Y-88775228D01*
X138099511Y-88717971D01*
X138138376Y-88673653D01*
X138290170Y-88567365D01*
X138331401Y-88538495D01*
X138498495Y-88371401D01*
X138628730Y-88185405D01*
X138673048Y-88146540D01*
X138730305Y-88132529D01*
X138787562Y-88146540D01*
X138831880Y-88185405D01*
X138958784Y-88366643D01*
X138965721Y-88374909D01*
X139125090Y-88534278D01*
X139133356Y-88541215D01*
X139317991Y-88670498D01*
X139327323Y-88675886D01*
X139531602Y-88771143D01*
X139541736Y-88774831D01*
X139736219Y-88826943D01*
X139747448Y-88827311D01*
X139750000Y-88816369D01*
X140250000Y-88816369D01*
X140252551Y-88827311D01*
X140263780Y-88826943D01*
X140458263Y-88774831D01*
X140468397Y-88771143D01*
X140672676Y-88675886D01*
X140682008Y-88670498D01*
X140866643Y-88541215D01*
X140874909Y-88534278D01*
X141034278Y-88374909D01*
X141041215Y-88366643D01*
X141170498Y-88182008D01*
X141175886Y-88172676D01*
X141271143Y-87968397D01*
X141274831Y-87958263D01*
X141326943Y-87763780D01*
X141327311Y-87752551D01*
X141316369Y-87750000D01*
X140266326Y-87750000D01*
X140253450Y-87753450D01*
X140250000Y-87766326D01*
X140250000Y-88816369D01*
X139750000Y-88816369D01*
X139750000Y-87460000D01*
X142644341Y-87460000D01*
X142664937Y-87695408D01*
X142666336Y-87700630D01*
X142666337Y-87700634D01*
X142724694Y-87918430D01*
X142724697Y-87918438D01*
X142726097Y-87923663D01*
X142728385Y-87928570D01*
X142728386Y-87928572D01*
X142823678Y-88132927D01*
X142823681Y-88132933D01*
X142825965Y-88137830D01*
X142829064Y-88142257D01*
X142829066Y-88142259D01*
X142958399Y-88326966D01*
X142958402Y-88326970D01*
X142961505Y-88331401D01*
X142965336Y-88335232D01*
X143083430Y-88453326D01*
X143114726Y-88506072D01*
X143116915Y-88567365D01*
X143089462Y-88622210D01*
X143039083Y-88657189D01*
X142928493Y-88698437D01*
X142907669Y-88706204D01*
X142900572Y-88711516D01*
X142900568Y-88711519D01*
X142799550Y-88787141D01*
X142799546Y-88787144D01*
X142792454Y-88792454D01*
X142787144Y-88799546D01*
X142787141Y-88799550D01*
X142711519Y-88900568D01*
X142711516Y-88900572D01*
X142706204Y-88907669D01*
X142703104Y-88915978D01*
X142703104Y-88915980D01*
X142658620Y-89035247D01*
X142658619Y-89035250D01*
X142655909Y-89042517D01*
X142655079Y-89050227D01*
X142655079Y-89050232D01*
X142649855Y-89098819D01*
X142649854Y-89098831D01*
X142649500Y-89102127D01*
X142649500Y-89105448D01*
X142649500Y-89105449D01*
X142649500Y-90894560D01*
X142649500Y-90894578D01*
X142649501Y-90897872D01*
X142649853Y-90901150D01*
X142649854Y-90901161D01*
X142655079Y-90949768D01*
X142655080Y-90949773D01*
X142655909Y-90957483D01*
X142658619Y-90964749D01*
X142658620Y-90964753D01*
X142675866Y-91010990D01*
X142706204Y-91092331D01*
X142792454Y-91207546D01*
X142907669Y-91293796D01*
X143042517Y-91344091D01*
X143102127Y-91350500D01*
X144897872Y-91350499D01*
X144957483Y-91344091D01*
X145092331Y-91293796D01*
X145207546Y-91207546D01*
X145293796Y-91092331D01*
X145344091Y-90957483D01*
X145350500Y-90897873D01*
X145350499Y-89102128D01*
X145344091Y-89042517D01*
X145293796Y-88907669D01*
X145207546Y-88792454D01*
X145092331Y-88706204D01*
X145011044Y-88675886D01*
X144960916Y-88657189D01*
X144910537Y-88622210D01*
X144883084Y-88567365D01*
X144885273Y-88506072D01*
X144916566Y-88453329D01*
X145038495Y-88331401D01*
X145174035Y-88137830D01*
X145273903Y-87923663D01*
X145335063Y-87695408D01*
X145355659Y-87460000D01*
X145335063Y-87224592D01*
X145273903Y-86996337D01*
X145174035Y-86782171D01*
X145038495Y-86588599D01*
X144949896Y-86500000D01*
X147194532Y-86500000D01*
X147195004Y-86505395D01*
X147203757Y-86605449D01*
X147214365Y-86726692D01*
X147215762Y-86731907D01*
X147215764Y-86731916D01*
X147271858Y-86941263D01*
X147271861Y-86941271D01*
X147273261Y-86946496D01*
X147369432Y-87152734D01*
X147499953Y-87339139D01*
X147660861Y-87500047D01*
X147847266Y-87630568D01*
X148053504Y-87726739D01*
X148058734Y-87728140D01*
X148058736Y-87728141D01*
X148201245Y-87766326D01*
X148273308Y-87785635D01*
X148500000Y-87805468D01*
X148726692Y-87785635D01*
X148946496Y-87726739D01*
X149152734Y-87630568D01*
X149339139Y-87500047D01*
X149500047Y-87339139D01*
X149630568Y-87152734D01*
X149726739Y-86946496D01*
X149785635Y-86726692D01*
X149805468Y-86500000D01*
X149785635Y-86273308D01*
X149751079Y-86144341D01*
X149728141Y-86058736D01*
X149728140Y-86058734D01*
X149726739Y-86053504D01*
X149630568Y-85847266D01*
X149500047Y-85660861D01*
X149339139Y-85499953D01*
X149266804Y-85449304D01*
X149178377Y-85387387D01*
X149139511Y-85343069D01*
X149125500Y-85285812D01*
X149125500Y-83924499D01*
X149142113Y-83862499D01*
X149187500Y-83817112D01*
X149249500Y-83800499D01*
X149344561Y-83800499D01*
X149347872Y-83800499D01*
X149407483Y-83794091D01*
X149542331Y-83743796D01*
X149657546Y-83657546D01*
X149743796Y-83542331D01*
X149794091Y-83407483D01*
X149800500Y-83347873D01*
X149800499Y-81652128D01*
X149794091Y-81592517D01*
X149743796Y-81457669D01*
X149657546Y-81342454D01*
X149542331Y-81256204D01*
X149430155Y-81214365D01*
X149414752Y-81208620D01*
X149414750Y-81208619D01*
X149407483Y-81205909D01*
X149399770Y-81205079D01*
X149399767Y-81205079D01*
X149351180Y-81199855D01*
X149351169Y-81199854D01*
X149347873Y-81199500D01*
X149344550Y-81199500D01*
X147655439Y-81199500D01*
X147655420Y-81199500D01*
X147652128Y-81199501D01*
X147648850Y-81199853D01*
X147648838Y-81199854D01*
X147600231Y-81205079D01*
X147600225Y-81205080D01*
X147592517Y-81205909D01*
X147585252Y-81208618D01*
X147585246Y-81208620D01*
X147465980Y-81253104D01*
X147465978Y-81253104D01*
X147457669Y-81256204D01*
X147450572Y-81261516D01*
X147450568Y-81261519D01*
X147349550Y-81337141D01*
X147349546Y-81337144D01*
X147342454Y-81342454D01*
X147337144Y-81349546D01*
X147337141Y-81349550D01*
X147261519Y-81450568D01*
X147261516Y-81450572D01*
X147256204Y-81457669D01*
X147253104Y-81465978D01*
X147253104Y-81465980D01*
X147208620Y-81585247D01*
X147208619Y-81585250D01*
X147205909Y-81592517D01*
X147205079Y-81600227D01*
X147205079Y-81600232D01*
X147199855Y-81648819D01*
X147199854Y-81648831D01*
X147199500Y-81652127D01*
X147199500Y-81655448D01*
X147199500Y-81655449D01*
X147199500Y-83344560D01*
X147199500Y-83344578D01*
X147199501Y-83347872D01*
X147199853Y-83351150D01*
X147199854Y-83351161D01*
X147205079Y-83399768D01*
X147205080Y-83399773D01*
X147205909Y-83407483D01*
X147208619Y-83414749D01*
X147208620Y-83414753D01*
X147238403Y-83494605D01*
X147256204Y-83542331D01*
X147342454Y-83657546D01*
X147457669Y-83743796D01*
X147592517Y-83794091D01*
X147652127Y-83800500D01*
X147750500Y-83800500D01*
X147812500Y-83817113D01*
X147857887Y-83862500D01*
X147874500Y-83924500D01*
X147874500Y-85285812D01*
X147860489Y-85343069D01*
X147821623Y-85387387D01*
X147665296Y-85496847D01*
X147665291Y-85496850D01*
X147660861Y-85499953D01*
X147657037Y-85503776D01*
X147657031Y-85503782D01*
X147503782Y-85657031D01*
X147503776Y-85657037D01*
X147499953Y-85660861D01*
X147496850Y-85665291D01*
X147496847Y-85665296D01*
X147372540Y-85842826D01*
X147372535Y-85842833D01*
X147369432Y-85847266D01*
X147367144Y-85852172D01*
X147367142Y-85852176D01*
X147275550Y-86048594D01*
X147275547Y-86048599D01*
X147273261Y-86053504D01*
X147271862Y-86058724D01*
X147271858Y-86058736D01*
X147215764Y-86268083D01*
X147215762Y-86268094D01*
X147214365Y-86273308D01*
X147213893Y-86278693D01*
X147213893Y-86278698D01*
X147209448Y-86329508D01*
X147194532Y-86500000D01*
X144949896Y-86500000D01*
X144871401Y-86421505D01*
X144866970Y-86418402D01*
X144866966Y-86418399D01*
X144682259Y-86289066D01*
X144682257Y-86289064D01*
X144677830Y-86285965D01*
X144672933Y-86283681D01*
X144672927Y-86283678D01*
X144468572Y-86188386D01*
X144468570Y-86188385D01*
X144463663Y-86186097D01*
X144458438Y-86184697D01*
X144458430Y-86184694D01*
X144240634Y-86126337D01*
X144240630Y-86126336D01*
X144235408Y-86124937D01*
X144230020Y-86124465D01*
X144230017Y-86124465D01*
X144005395Y-86104813D01*
X144000000Y-86104341D01*
X143994605Y-86104813D01*
X143769982Y-86124465D01*
X143769977Y-86124465D01*
X143764592Y-86124937D01*
X143759371Y-86126335D01*
X143759365Y-86126337D01*
X143541569Y-86184694D01*
X143541557Y-86184698D01*
X143536337Y-86186097D01*
X143531432Y-86188383D01*
X143531427Y-86188386D01*
X143327081Y-86283675D01*
X143327077Y-86283677D01*
X143322171Y-86285965D01*
X143317738Y-86289068D01*
X143317731Y-86289073D01*
X143133034Y-86418399D01*
X143133029Y-86418402D01*
X143128599Y-86421505D01*
X143124775Y-86425328D01*
X143124769Y-86425334D01*
X142965334Y-86584769D01*
X142965328Y-86584775D01*
X142961505Y-86588599D01*
X142958402Y-86593029D01*
X142958399Y-86593034D01*
X142829073Y-86777731D01*
X142829068Y-86777738D01*
X142825965Y-86782171D01*
X142823677Y-86787077D01*
X142823675Y-86787081D01*
X142728386Y-86991427D01*
X142728383Y-86991432D01*
X142726097Y-86996337D01*
X142724698Y-87001557D01*
X142724694Y-87001569D01*
X142666337Y-87219365D01*
X142666335Y-87219371D01*
X142664937Y-87224592D01*
X142664465Y-87229977D01*
X142664465Y-87229982D01*
X142663016Y-87246549D01*
X142644341Y-87460000D01*
X139750000Y-87460000D01*
X139750000Y-87233674D01*
X140250000Y-87233674D01*
X140253450Y-87246549D01*
X140266326Y-87250000D01*
X141316369Y-87250000D01*
X141327311Y-87247448D01*
X141326943Y-87236219D01*
X141274831Y-87041736D01*
X141271143Y-87031602D01*
X141175889Y-86827332D01*
X141170491Y-86817982D01*
X141041215Y-86633357D01*
X141034280Y-86625092D01*
X140874909Y-86465721D01*
X140866643Y-86458784D01*
X140682008Y-86329501D01*
X140672676Y-86324113D01*
X140468397Y-86228856D01*
X140458263Y-86225168D01*
X140263780Y-86173056D01*
X140252551Y-86172688D01*
X140250000Y-86183631D01*
X140250000Y-87233674D01*
X139750000Y-87233674D01*
X139750000Y-86183631D01*
X139747448Y-86172688D01*
X139736219Y-86173056D01*
X139541736Y-86225168D01*
X139531602Y-86228856D01*
X139327332Y-86324110D01*
X139317982Y-86329508D01*
X139133357Y-86458784D01*
X139125092Y-86465719D01*
X138965719Y-86625092D01*
X138958788Y-86633352D01*
X138831880Y-86814596D01*
X138787562Y-86853461D01*
X138730305Y-86867472D01*
X138673048Y-86853461D01*
X138628730Y-86814595D01*
X138563405Y-86721301D01*
X138498495Y-86628599D01*
X138331401Y-86461505D01*
X138326970Y-86458402D01*
X138326966Y-86458399D01*
X138142259Y-86329066D01*
X138142257Y-86329064D01*
X138137830Y-86325965D01*
X138132933Y-86323681D01*
X138132927Y-86323678D01*
X137928572Y-86228386D01*
X137928570Y-86228385D01*
X137923663Y-86226097D01*
X137918438Y-86224697D01*
X137918430Y-86224694D01*
X137700634Y-86166337D01*
X137700630Y-86166336D01*
X137695408Y-86164937D01*
X137690020Y-86164465D01*
X137690017Y-86164465D01*
X137465395Y-86144813D01*
X137460000Y-86144341D01*
X137454605Y-86144813D01*
X137229982Y-86164465D01*
X137229977Y-86164465D01*
X137224592Y-86164937D01*
X137219371Y-86166335D01*
X137219365Y-86166337D01*
X137001569Y-86224694D01*
X137001557Y-86224698D01*
X136996337Y-86226097D01*
X136991432Y-86228383D01*
X136991427Y-86228386D01*
X136787081Y-86323675D01*
X136787077Y-86323677D01*
X136782171Y-86325965D01*
X136777738Y-86329068D01*
X136777731Y-86329073D01*
X136593034Y-86458399D01*
X136593029Y-86458402D01*
X136588599Y-86461505D01*
X136584775Y-86465328D01*
X136584775Y-86465329D01*
X136466673Y-86583431D01*
X136413926Y-86614726D01*
X136352633Y-86616915D01*
X136297789Y-86589462D01*
X136262810Y-86539082D01*
X136235304Y-86465336D01*
X136213796Y-86407669D01*
X136127546Y-86292454D01*
X136109170Y-86278698D01*
X136019431Y-86211519D01*
X136019430Y-86211518D01*
X136012331Y-86206204D01*
X135905442Y-86166337D01*
X135884752Y-86158620D01*
X135884750Y-86158619D01*
X135877483Y-86155909D01*
X135869770Y-86155079D01*
X135869767Y-86155079D01*
X135821180Y-86149855D01*
X135821169Y-86149854D01*
X135817873Y-86149500D01*
X135814550Y-86149500D01*
X134025439Y-86149500D01*
X134025420Y-86149500D01*
X134022128Y-86149501D01*
X134018850Y-86149853D01*
X134018838Y-86149854D01*
X133970231Y-86155079D01*
X133970225Y-86155080D01*
X133962517Y-86155909D01*
X133955252Y-86158618D01*
X133955246Y-86158620D01*
X133835980Y-86203104D01*
X133835978Y-86203104D01*
X133827669Y-86206204D01*
X133820572Y-86211516D01*
X133820568Y-86211519D01*
X133719550Y-86287141D01*
X133719546Y-86287144D01*
X133712454Y-86292454D01*
X133707144Y-86299546D01*
X133707141Y-86299550D01*
X133631519Y-86400568D01*
X133631516Y-86400572D01*
X133626204Y-86407669D01*
X133623104Y-86415978D01*
X133623104Y-86415980D01*
X133578620Y-86535247D01*
X133578619Y-86535250D01*
X133575909Y-86542517D01*
X133575079Y-86550227D01*
X133575079Y-86550232D01*
X133569855Y-86598819D01*
X133569854Y-86598831D01*
X133569500Y-86602127D01*
X133569500Y-86605448D01*
X133569500Y-86605449D01*
X133569500Y-88394560D01*
X133569500Y-88394578D01*
X133569501Y-88397872D01*
X133569853Y-88401150D01*
X133569854Y-88401161D01*
X133575079Y-88449768D01*
X133575080Y-88449773D01*
X133575909Y-88457483D01*
X133578619Y-88464749D01*
X133578620Y-88464753D01*
X133604552Y-88534278D01*
X133626204Y-88592331D01*
X133631518Y-88599430D01*
X133631519Y-88599431D01*
X133687367Y-88674035D01*
X133712454Y-88707546D01*
X133827669Y-88793796D01*
X133840506Y-88798584D01*
X133890888Y-88833560D01*
X133918343Y-88888406D01*
X133916156Y-88949700D01*
X133884859Y-89002448D01*
X131612696Y-91274611D01*
X131604511Y-91282059D01*
X131598123Y-91286114D01*
X131592788Y-91291794D01*
X131592783Y-91291799D01*
X131552096Y-91335125D01*
X131549392Y-91337916D01*
X131532628Y-91354680D01*
X131532621Y-91354687D01*
X131529880Y-91357429D01*
X131527500Y-91360496D01*
X131527489Y-91360509D01*
X131527400Y-91360625D01*
X131519842Y-91369470D01*
X131495280Y-91395627D01*
X131495273Y-91395636D01*
X131489938Y-91401318D01*
X131486182Y-91408149D01*
X131486179Y-91408154D01*
X131480285Y-91418875D01*
X131469609Y-91435127D01*
X131462109Y-91444796D01*
X131462101Y-91444807D01*
X131457327Y-91450964D01*
X131454234Y-91458108D01*
X131454229Y-91458119D01*
X131439974Y-91491060D01*
X131434838Y-91501543D01*
X131417560Y-91532973D01*
X131413803Y-91539808D01*
X131411864Y-91547356D01*
X131411863Y-91547361D01*
X131408822Y-91559207D01*
X131402521Y-91577611D01*
X131397658Y-91588848D01*
X131397656Y-91588852D01*
X131394562Y-91596004D01*
X131393342Y-91603703D01*
X131393342Y-91603705D01*
X131387729Y-91639141D01*
X131385361Y-91650576D01*
X131376438Y-91685328D01*
X131376436Y-91685336D01*
X131374500Y-91692881D01*
X131374500Y-91700677D01*
X131374500Y-91712917D01*
X131372974Y-91732302D01*
X131369840Y-91752096D01*
X131370574Y-91759861D01*
X131370574Y-91759864D01*
X131373950Y-91795576D01*
X131374500Y-91807245D01*
X131374500Y-103467647D01*
X131365061Y-103515100D01*
X131338181Y-103555328D01*
X130192696Y-104700811D01*
X130184511Y-104708259D01*
X130178123Y-104712314D01*
X130172788Y-104717994D01*
X130172783Y-104717999D01*
X130132096Y-104761325D01*
X130129392Y-104764116D01*
X130112628Y-104780880D01*
X130112621Y-104780887D01*
X130109880Y-104783629D01*
X130107500Y-104786696D01*
X130107489Y-104786709D01*
X130107400Y-104786825D01*
X130099842Y-104795670D01*
X130075280Y-104821827D01*
X130075273Y-104821836D01*
X130069938Y-104827518D01*
X130066182Y-104834349D01*
X130066179Y-104834354D01*
X130060285Y-104845075D01*
X130049609Y-104861327D01*
X130042109Y-104870996D01*
X130042101Y-104871007D01*
X130037327Y-104877164D01*
X130034234Y-104884308D01*
X130034229Y-104884319D01*
X130019974Y-104917260D01*
X130014838Y-104927743D01*
X129993803Y-104966008D01*
X129991864Y-104973556D01*
X129991863Y-104973561D01*
X129988822Y-104985407D01*
X129982521Y-105003811D01*
X129977658Y-105015048D01*
X129977656Y-105015052D01*
X129974562Y-105022204D01*
X129973342Y-105029903D01*
X129973342Y-105029905D01*
X129967729Y-105065341D01*
X129965361Y-105076776D01*
X129956438Y-105111528D01*
X129956436Y-105111536D01*
X129954500Y-105119081D01*
X129954500Y-105126877D01*
X129954500Y-105139117D01*
X129952974Y-105158502D01*
X129949840Y-105178296D01*
X129950574Y-105186061D01*
X129950574Y-105186064D01*
X129953950Y-105221776D01*
X129954500Y-105233445D01*
X129954500Y-105285812D01*
X129940489Y-105343069D01*
X129901623Y-105387387D01*
X129745296Y-105496847D01*
X129745291Y-105496850D01*
X129740861Y-105499953D01*
X129737037Y-105503776D01*
X129737031Y-105503782D01*
X129583782Y-105657031D01*
X129583776Y-105657037D01*
X129579953Y-105660861D01*
X129576850Y-105665291D01*
X129576847Y-105665296D01*
X129452540Y-105842826D01*
X129452535Y-105842833D01*
X129449432Y-105847266D01*
X129447144Y-105852172D01*
X129447142Y-105852176D01*
X129355550Y-106048594D01*
X129355547Y-106048599D01*
X129353261Y-106053504D01*
X129351862Y-106058724D01*
X129351858Y-106058736D01*
X129295764Y-106268083D01*
X129295762Y-106268094D01*
X129294365Y-106273308D01*
X129293893Y-106278693D01*
X129293893Y-106278698D01*
X129286598Y-106362087D01*
X129274532Y-106500000D01*
X129275004Y-106505395D01*
X129286510Y-106636916D01*
X129294365Y-106726692D01*
X129295762Y-106731907D01*
X129295764Y-106731916D01*
X129351858Y-106941263D01*
X129351861Y-106941271D01*
X129353261Y-106946496D01*
X129355549Y-106951403D01*
X129355550Y-106951405D01*
X129384839Y-107014214D01*
X129449432Y-107152734D01*
X129452539Y-107157171D01*
X129452540Y-107157173D01*
X129508798Y-107237518D01*
X129579953Y-107339139D01*
X129740861Y-107500047D01*
X129927266Y-107630568D01*
X130133504Y-107726739D01*
X130138734Y-107728140D01*
X130138736Y-107728141D01*
X130348083Y-107784235D01*
X130353308Y-107785635D01*
X130580000Y-107805468D01*
X130806692Y-107785635D01*
X131026496Y-107726739D01*
X131232734Y-107630568D01*
X131419139Y-107500047D01*
X131580047Y-107339139D01*
X131710568Y-107152734D01*
X131806739Y-106946496D01*
X131865635Y-106726692D01*
X131885468Y-106500000D01*
X131865635Y-106273308D01*
X131806739Y-106053504D01*
X131710568Y-105847266D01*
X131580047Y-105660861D01*
X131419139Y-105499953D01*
X131414704Y-105496847D01*
X131414701Y-105496845D01*
X131389383Y-105479117D01*
X131353120Y-105439542D01*
X131336979Y-105388350D01*
X131343985Y-105335132D01*
X131372824Y-105289865D01*
X132387311Y-104275378D01*
X132395481Y-104267944D01*
X132401877Y-104263886D01*
X132447918Y-104214856D01*
X132450535Y-104212154D01*
X132470120Y-104192571D01*
X132472585Y-104189392D01*
X132480167Y-104180516D01*
X132510062Y-104148682D01*
X132519713Y-104131123D01*
X132530390Y-104114870D01*
X132542673Y-104099036D01*
X132560018Y-104058952D01*
X132565151Y-104048471D01*
X132586197Y-104010192D01*
X132591179Y-103990784D01*
X132597482Y-103972376D01*
X132605437Y-103953996D01*
X132612271Y-103910844D01*
X132614633Y-103899438D01*
X132625500Y-103857119D01*
X132625500Y-103837083D01*
X132627027Y-103817686D01*
X132628027Y-103811372D01*
X132636620Y-103791369D01*
X132627050Y-103765003D01*
X132626050Y-103754424D01*
X132625500Y-103742755D01*
X132625500Y-94024766D01*
X132635439Y-93986468D01*
X132625500Y-93947331D01*
X132625500Y-92082352D01*
X132634939Y-92034899D01*
X132661819Y-91994671D01*
X133321365Y-91335125D01*
X135307306Y-89349182D01*
X135315482Y-89341743D01*
X135321877Y-89337686D01*
X135367933Y-89288640D01*
X135370550Y-89285938D01*
X135390120Y-89266370D01*
X135392565Y-89263216D01*
X135400155Y-89254328D01*
X135430062Y-89222482D01*
X135439709Y-89204932D01*
X135450393Y-89188666D01*
X135462674Y-89172836D01*
X135480018Y-89132751D01*
X135485160Y-89122256D01*
X135494400Y-89105449D01*
X135506197Y-89083992D01*
X135511179Y-89064589D01*
X135517480Y-89046183D01*
X135525438Y-89027795D01*
X135532269Y-88984656D01*
X135534636Y-88973226D01*
X135539605Y-88953874D01*
X135542230Y-88943655D01*
X135566792Y-88895455D01*
X135609538Y-88862299D01*
X135662333Y-88850499D01*
X135814561Y-88850499D01*
X135817872Y-88850499D01*
X135877483Y-88844091D01*
X136012331Y-88793796D01*
X136127546Y-88707546D01*
X136213796Y-88592331D01*
X136262810Y-88460916D01*
X136297789Y-88410537D01*
X136352634Y-88383084D01*
X136413927Y-88385273D01*
X136466673Y-88416569D01*
X136588599Y-88538495D01*
X136593031Y-88541598D01*
X136593033Y-88541600D01*
X136781624Y-88673653D01*
X136820489Y-88717971D01*
X136834500Y-88775228D01*
X136834500Y-89729548D01*
X136825061Y-89777001D01*
X136798181Y-89817229D01*
X133112696Y-93502711D01*
X133104511Y-93510159D01*
X133098123Y-93514214D01*
X133092788Y-93519894D01*
X133092783Y-93519899D01*
X133052096Y-93563225D01*
X133049392Y-93566016D01*
X133032628Y-93582780D01*
X133032621Y-93582787D01*
X133029880Y-93585529D01*
X133027500Y-93588596D01*
X133027489Y-93588609D01*
X133027400Y-93588725D01*
X133019842Y-93597570D01*
X132995280Y-93623727D01*
X132995273Y-93623736D01*
X132989938Y-93629418D01*
X132986182Y-93636249D01*
X132986179Y-93636254D01*
X132980285Y-93646975D01*
X132969609Y-93663227D01*
X132962109Y-93672896D01*
X132962101Y-93672907D01*
X132957327Y-93679064D01*
X132954234Y-93686208D01*
X132954229Y-93686219D01*
X132939974Y-93719160D01*
X132934838Y-93729643D01*
X132913803Y-93767908D01*
X132911864Y-93775456D01*
X132911863Y-93775461D01*
X132908822Y-93787307D01*
X132902521Y-93805711D01*
X132897658Y-93816948D01*
X132897656Y-93816952D01*
X132894562Y-93824104D01*
X132893342Y-93831803D01*
X132893342Y-93831805D01*
X132887729Y-93867241D01*
X132885361Y-93878676D01*
X132876438Y-93913428D01*
X132876436Y-93913436D01*
X132874500Y-93920981D01*
X132874500Y-93928777D01*
X132874500Y-93941017D01*
X132872973Y-93960414D01*
X132871973Y-93966728D01*
X132863379Y-93986730D01*
X132872950Y-94013097D01*
X132873950Y-94023676D01*
X132874500Y-94035345D01*
X132874500Y-103753334D01*
X132864560Y-103791631D01*
X132874500Y-103830769D01*
X132874500Y-106689548D01*
X132865061Y-106737001D01*
X132838181Y-106777229D01*
X130931727Y-108683680D01*
X130876150Y-108715771D01*
X130817415Y-108715778D01*
X130817252Y-108716706D01*
X130811994Y-108715778D01*
X130811973Y-108715779D01*
X130811931Y-108715767D01*
X130811912Y-108715763D01*
X130806692Y-108714365D01*
X130801300Y-108713893D01*
X130801299Y-108713893D01*
X130585395Y-108695004D01*
X130580000Y-108694532D01*
X130574605Y-108695004D01*
X130358698Y-108713893D01*
X130358693Y-108713893D01*
X130353308Y-108714365D01*
X130348094Y-108715762D01*
X130348083Y-108715764D01*
X130138736Y-108771858D01*
X130138724Y-108771862D01*
X130133504Y-108773261D01*
X130128599Y-108775547D01*
X130128594Y-108775550D01*
X129932176Y-108867142D01*
X129932172Y-108867144D01*
X129927266Y-108869432D01*
X129922833Y-108872535D01*
X129922826Y-108872540D01*
X129745296Y-108996847D01*
X129745291Y-108996850D01*
X129740861Y-108999953D01*
X129737037Y-109003776D01*
X129737031Y-109003782D01*
X129583782Y-109157031D01*
X129583776Y-109157037D01*
X129579953Y-109160861D01*
X129576850Y-109165291D01*
X129576847Y-109165296D01*
X129452540Y-109342826D01*
X129452535Y-109342833D01*
X129449432Y-109347266D01*
X129447144Y-109352172D01*
X129447142Y-109352176D01*
X129355550Y-109548594D01*
X129355547Y-109548599D01*
X129353261Y-109553504D01*
X129351862Y-109558724D01*
X129351858Y-109558736D01*
X129295764Y-109768083D01*
X129295762Y-109768094D01*
X129294365Y-109773308D01*
X129293893Y-109778693D01*
X129293893Y-109778698D01*
X129276397Y-109978687D01*
X129274532Y-110000000D01*
X121725468Y-110000000D01*
X121705635Y-109773308D01*
X121696620Y-109739662D01*
X121648141Y-109558736D01*
X121648140Y-109558734D01*
X121646739Y-109553504D01*
X121550568Y-109347266D01*
X121420047Y-109160861D01*
X121259139Y-108999953D01*
X121114932Y-108898979D01*
X121098377Y-108887387D01*
X121059511Y-108843069D01*
X121045500Y-108785812D01*
X121045500Y-107714188D01*
X121059511Y-107656931D01*
X121098377Y-107612613D01*
X121133105Y-107588296D01*
X121259139Y-107500047D01*
X121420047Y-107339139D01*
X121550568Y-107152734D01*
X121646739Y-106946496D01*
X121705635Y-106726692D01*
X121725468Y-106500000D01*
X121705635Y-106273308D01*
X121646739Y-106053504D01*
X121550568Y-105847266D01*
X121420047Y-105660861D01*
X121259139Y-105499953D01*
X121098377Y-105387387D01*
X121059511Y-105343069D01*
X121045500Y-105285812D01*
X121045500Y-101500000D01*
X128144341Y-101500000D01*
X128144813Y-101505395D01*
X128160924Y-101689548D01*
X128164937Y-101735408D01*
X128166336Y-101740630D01*
X128166337Y-101740634D01*
X128224694Y-101958430D01*
X128224697Y-101958438D01*
X128226097Y-101963663D01*
X128228385Y-101968570D01*
X128228386Y-101968572D01*
X128323678Y-102172927D01*
X128323681Y-102172933D01*
X128325965Y-102177830D01*
X128329064Y-102182257D01*
X128329066Y-102182259D01*
X128458399Y-102366966D01*
X128458402Y-102366970D01*
X128461505Y-102371401D01*
X128628599Y-102538495D01*
X128633031Y-102541598D01*
X128633033Y-102541600D01*
X128693268Y-102583777D01*
X128822170Y-102674035D01*
X129036337Y-102773903D01*
X129264592Y-102835063D01*
X129500000Y-102855659D01*
X129735408Y-102835063D01*
X129963663Y-102773903D01*
X130177830Y-102674035D01*
X130371401Y-102538495D01*
X130538495Y-102371401D01*
X130674035Y-102177830D01*
X130773903Y-101963663D01*
X130835063Y-101735408D01*
X130855659Y-101500000D01*
X130835063Y-101264592D01*
X130773903Y-101036337D01*
X130674035Y-100822171D01*
X130538495Y-100628599D01*
X130371401Y-100461505D01*
X130366970Y-100458402D01*
X130366966Y-100458399D01*
X130182259Y-100329066D01*
X130182257Y-100329064D01*
X130177830Y-100325965D01*
X130172933Y-100323681D01*
X130172927Y-100323678D01*
X129968572Y-100228386D01*
X129968570Y-100228385D01*
X129963663Y-100226097D01*
X129958438Y-100224697D01*
X129958430Y-100224694D01*
X129740634Y-100166337D01*
X129740630Y-100166336D01*
X129735408Y-100164937D01*
X129730020Y-100164465D01*
X129730017Y-100164465D01*
X129505395Y-100144813D01*
X129500000Y-100144341D01*
X129494605Y-100144813D01*
X129269982Y-100164465D01*
X129269977Y-100164465D01*
X129264592Y-100164937D01*
X129259371Y-100166335D01*
X129259365Y-100166337D01*
X129041569Y-100224694D01*
X129041557Y-100224698D01*
X129036337Y-100226097D01*
X129031432Y-100228383D01*
X129031427Y-100228386D01*
X128827081Y-100323675D01*
X128827077Y-100323677D01*
X128822171Y-100325965D01*
X128817738Y-100329068D01*
X128817731Y-100329073D01*
X128633034Y-100458399D01*
X128633029Y-100458402D01*
X128628599Y-100461505D01*
X128624775Y-100465328D01*
X128624769Y-100465334D01*
X128465334Y-100624769D01*
X128465328Y-100624775D01*
X128461505Y-100628599D01*
X128458402Y-100633029D01*
X128458399Y-100633034D01*
X128329073Y-100817731D01*
X128329068Y-100817738D01*
X128325965Y-100822171D01*
X128323677Y-100827077D01*
X128323675Y-100827081D01*
X128228386Y-101031427D01*
X128228383Y-101031432D01*
X128226097Y-101036337D01*
X128224698Y-101041557D01*
X128224694Y-101041569D01*
X128166337Y-101259365D01*
X128166335Y-101259371D01*
X128164937Y-101264592D01*
X128144341Y-101500000D01*
X121045500Y-101500000D01*
X121045500Y-100642352D01*
X121054939Y-100594899D01*
X121081819Y-100554671D01*
X125463563Y-96172927D01*
X126136490Y-95500000D01*
X128144341Y-95500000D01*
X128164937Y-95735408D01*
X128166336Y-95740630D01*
X128166337Y-95740634D01*
X128224694Y-95958430D01*
X128224697Y-95958438D01*
X128226097Y-95963663D01*
X128228385Y-95968570D01*
X128228386Y-95968572D01*
X128323678Y-96172927D01*
X128323681Y-96172933D01*
X128325965Y-96177830D01*
X128329064Y-96182257D01*
X128329066Y-96182259D01*
X128458399Y-96366966D01*
X128458402Y-96366970D01*
X128461505Y-96371401D01*
X128628599Y-96538495D01*
X128633031Y-96541598D01*
X128633033Y-96541600D01*
X128641992Y-96547873D01*
X128822170Y-96674035D01*
X129036337Y-96773903D01*
X129264592Y-96835063D01*
X129500000Y-96855659D01*
X129735408Y-96835063D01*
X129963663Y-96773903D01*
X130177830Y-96674035D01*
X130371401Y-96538495D01*
X130538495Y-96371401D01*
X130674035Y-96177830D01*
X130773903Y-95963663D01*
X130835063Y-95735408D01*
X130855659Y-95500000D01*
X130835063Y-95264592D01*
X130773903Y-95036337D01*
X130674035Y-94822171D01*
X130538495Y-94628599D01*
X130371401Y-94461505D01*
X130366970Y-94458402D01*
X130366966Y-94458399D01*
X130182259Y-94329066D01*
X130182257Y-94329064D01*
X130177830Y-94325965D01*
X130172933Y-94323681D01*
X130172927Y-94323678D01*
X129968572Y-94228386D01*
X129968570Y-94228385D01*
X129963663Y-94226097D01*
X129958438Y-94224697D01*
X129958430Y-94224694D01*
X129740634Y-94166337D01*
X129740630Y-94166336D01*
X129735408Y-94164937D01*
X129730020Y-94164465D01*
X129730017Y-94164465D01*
X129505395Y-94144813D01*
X129500000Y-94144341D01*
X129494605Y-94144813D01*
X129269982Y-94164465D01*
X129269977Y-94164465D01*
X129264592Y-94164937D01*
X129259371Y-94166335D01*
X129259365Y-94166337D01*
X129041569Y-94224694D01*
X129041557Y-94224698D01*
X129036337Y-94226097D01*
X129031432Y-94228383D01*
X129031427Y-94228386D01*
X128827081Y-94323675D01*
X128827077Y-94323677D01*
X128822171Y-94325965D01*
X128817738Y-94329068D01*
X128817731Y-94329073D01*
X128633034Y-94458399D01*
X128633029Y-94458402D01*
X128628599Y-94461505D01*
X128624775Y-94465328D01*
X128624769Y-94465334D01*
X128465334Y-94624769D01*
X128465328Y-94624775D01*
X128461505Y-94628599D01*
X128458402Y-94633029D01*
X128458399Y-94633034D01*
X128329073Y-94817731D01*
X128329068Y-94817738D01*
X128325965Y-94822171D01*
X128323677Y-94827077D01*
X128323675Y-94827081D01*
X128228386Y-95031427D01*
X128228383Y-95031432D01*
X128226097Y-95036337D01*
X128224698Y-95041557D01*
X128224694Y-95041569D01*
X128166337Y-95259365D01*
X128166335Y-95259371D01*
X128164937Y-95264592D01*
X128144341Y-95500000D01*
X126136490Y-95500000D01*
X129887311Y-91749178D01*
X129895481Y-91741744D01*
X129901877Y-91737686D01*
X129947918Y-91688656D01*
X129950535Y-91685954D01*
X129970120Y-91666371D01*
X129972585Y-91663192D01*
X129980167Y-91654316D01*
X129983679Y-91650576D01*
X130010062Y-91622482D01*
X130019713Y-91604923D01*
X130030390Y-91588670D01*
X130042673Y-91572836D01*
X130060018Y-91532752D01*
X130065151Y-91522271D01*
X130086197Y-91483992D01*
X130091179Y-91464584D01*
X130097482Y-91446176D01*
X130105437Y-91427796D01*
X130112271Y-91384644D01*
X130114633Y-91373238D01*
X130125500Y-91330919D01*
X130125500Y-91310883D01*
X130127027Y-91291485D01*
X130128939Y-91279413D01*
X130128938Y-91279413D01*
X130130160Y-91271704D01*
X130126050Y-91228224D01*
X130125500Y-91216555D01*
X130125500Y-90775228D01*
X130139511Y-90717971D01*
X130178376Y-90673653D01*
X130306386Y-90584019D01*
X130371401Y-90538495D01*
X130538495Y-90371401D01*
X130674035Y-90177830D01*
X130773903Y-89963663D01*
X130835063Y-89735408D01*
X130855659Y-89500000D01*
X130835063Y-89264592D01*
X130773903Y-89036337D01*
X130674035Y-88822171D01*
X130538495Y-88628599D01*
X130371401Y-88461505D01*
X130366970Y-88458402D01*
X130366966Y-88458399D01*
X130178376Y-88326347D01*
X130139511Y-88282029D01*
X130125500Y-88224772D01*
X130125500Y-84775228D01*
X130139511Y-84717971D01*
X130178376Y-84673653D01*
X130306386Y-84584019D01*
X130371401Y-84538495D01*
X130538495Y-84371401D01*
X130674035Y-84177830D01*
X130773903Y-83963663D01*
X130835063Y-83735408D01*
X130855659Y-83500000D01*
X130835063Y-83264592D01*
X130773903Y-83036337D01*
X130674035Y-82822171D01*
X130538495Y-82628599D01*
X130409896Y-82500000D01*
X135194532Y-82500000D01*
X135195004Y-82505395D01*
X135203757Y-82605449D01*
X135214365Y-82726692D01*
X135215762Y-82731907D01*
X135215764Y-82731916D01*
X135271858Y-82941263D01*
X135271861Y-82941271D01*
X135273261Y-82946496D01*
X135369432Y-83152734D01*
X135499953Y-83339139D01*
X135660861Y-83500047D01*
X135847266Y-83630568D01*
X136053504Y-83726739D01*
X136058734Y-83728140D01*
X136058736Y-83728141D01*
X136268083Y-83784235D01*
X136273308Y-83785635D01*
X136500000Y-83805468D01*
X136726692Y-83785635D01*
X136946496Y-83726739D01*
X137152734Y-83630568D01*
X137339139Y-83500047D01*
X137500047Y-83339139D01*
X137630568Y-83152734D01*
X137726739Y-82946496D01*
X137785635Y-82726692D01*
X137805468Y-82500000D01*
X137785635Y-82273308D01*
X137726739Y-82053504D01*
X137630568Y-81847266D01*
X137500047Y-81660861D01*
X137339139Y-81499953D01*
X137152734Y-81369432D01*
X136946496Y-81273261D01*
X136941271Y-81271861D01*
X136941263Y-81271858D01*
X136731916Y-81215764D01*
X136731907Y-81215762D01*
X136726692Y-81214365D01*
X136721304Y-81213893D01*
X136721301Y-81213893D01*
X136505395Y-81195004D01*
X136500000Y-81194532D01*
X136494605Y-81195004D01*
X136278698Y-81213893D01*
X136278693Y-81213893D01*
X136273308Y-81214365D01*
X136268094Y-81215762D01*
X136268083Y-81215764D01*
X136058736Y-81271858D01*
X136058724Y-81271862D01*
X136053504Y-81273261D01*
X136048599Y-81275547D01*
X136048594Y-81275550D01*
X135852176Y-81367142D01*
X135852172Y-81367144D01*
X135847266Y-81369432D01*
X135842833Y-81372535D01*
X135842826Y-81372540D01*
X135665296Y-81496847D01*
X135665291Y-81496850D01*
X135660861Y-81499953D01*
X135657037Y-81503776D01*
X135657031Y-81503782D01*
X135503782Y-81657031D01*
X135503776Y-81657037D01*
X135499953Y-81660861D01*
X135496850Y-81665291D01*
X135496847Y-81665296D01*
X135372540Y-81842826D01*
X135372535Y-81842833D01*
X135369432Y-81847266D01*
X135367144Y-81852172D01*
X135367142Y-81852176D01*
X135275550Y-82048594D01*
X135275547Y-82048599D01*
X135273261Y-82053504D01*
X135271862Y-82058724D01*
X135271858Y-82058736D01*
X135215764Y-82268083D01*
X135215762Y-82268094D01*
X135214365Y-82273308D01*
X135213893Y-82278693D01*
X135213893Y-82278698D01*
X135209486Y-82329073D01*
X135194532Y-82500000D01*
X130409896Y-82500000D01*
X130371401Y-82461505D01*
X130366970Y-82458402D01*
X130366966Y-82458399D01*
X130182259Y-82329066D01*
X130182257Y-82329064D01*
X130177830Y-82325965D01*
X130172933Y-82323681D01*
X130172927Y-82323678D01*
X129968572Y-82228386D01*
X129968570Y-82228385D01*
X129963663Y-82226097D01*
X129958438Y-82224697D01*
X129958430Y-82224694D01*
X129740634Y-82166337D01*
X129740630Y-82166336D01*
X129735408Y-82164937D01*
X129730020Y-82164465D01*
X129730017Y-82164465D01*
X129505395Y-82144813D01*
X129500000Y-82144341D01*
X129494605Y-82144813D01*
X129269982Y-82164465D01*
X129269977Y-82164465D01*
X129264592Y-82164937D01*
X129259371Y-82166335D01*
X129259365Y-82166337D01*
X129041569Y-82224694D01*
X129041557Y-82224698D01*
X129036337Y-82226097D01*
X129031432Y-82228383D01*
X129031427Y-82228386D01*
X128827081Y-82323675D01*
X128827077Y-82323677D01*
X128822171Y-82325965D01*
X128817738Y-82329068D01*
X128817731Y-82329073D01*
X128633034Y-82458399D01*
X128633029Y-82458402D01*
X128628599Y-82461505D01*
X128624775Y-82465328D01*
X128624769Y-82465334D01*
X128465334Y-82624769D01*
X128465328Y-82624775D01*
X128461505Y-82628599D01*
X128458402Y-82633029D01*
X128458399Y-82633034D01*
X128329073Y-82817731D01*
X128329068Y-82817738D01*
X128325965Y-82822171D01*
X128323677Y-82827077D01*
X128323675Y-82827081D01*
X128228386Y-83031427D01*
X128228383Y-83031432D01*
X128226097Y-83036337D01*
X128224698Y-83041557D01*
X128224694Y-83041569D01*
X128166337Y-83259365D01*
X128166335Y-83259371D01*
X128164937Y-83264592D01*
X128164465Y-83269977D01*
X128164465Y-83269982D01*
X128157363Y-83351161D01*
X128144341Y-83500000D01*
X128144813Y-83505395D01*
X128164178Y-83726739D01*
X128164937Y-83735408D01*
X128166336Y-83740630D01*
X128166337Y-83740634D01*
X128224694Y-83958430D01*
X128224697Y-83958438D01*
X128226097Y-83963663D01*
X128228385Y-83968570D01*
X128228386Y-83968572D01*
X128323678Y-84172927D01*
X128323681Y-84172933D01*
X128325965Y-84177830D01*
X128329064Y-84182257D01*
X128329066Y-84182259D01*
X128458399Y-84366966D01*
X128458402Y-84366970D01*
X128461505Y-84371401D01*
X128628599Y-84538495D01*
X128633031Y-84541598D01*
X128633033Y-84541600D01*
X128821624Y-84673653D01*
X128860489Y-84717971D01*
X128874500Y-84775228D01*
X128874500Y-88224774D01*
X128860489Y-88282031D01*
X128821625Y-88326347D01*
X128764077Y-88366643D01*
X128633034Y-88458399D01*
X128633029Y-88458402D01*
X128628599Y-88461505D01*
X128624775Y-88465328D01*
X128624769Y-88465334D01*
X128465334Y-88624769D01*
X128465328Y-88624775D01*
X128461505Y-88628599D01*
X128458402Y-88633029D01*
X128458399Y-88633034D01*
X128329073Y-88817731D01*
X128329068Y-88817738D01*
X128325965Y-88822171D01*
X128323677Y-88827077D01*
X128323675Y-88827081D01*
X128228386Y-89031427D01*
X128228383Y-89031432D01*
X128226097Y-89036337D01*
X128224698Y-89041557D01*
X128224694Y-89041569D01*
X128166337Y-89259365D01*
X128166335Y-89259371D01*
X128164937Y-89264592D01*
X128164465Y-89269977D01*
X128164465Y-89269982D01*
X128158542Y-89337686D01*
X128144341Y-89500000D01*
X128164937Y-89735408D01*
X128166336Y-89740630D01*
X128166337Y-89740634D01*
X128224694Y-89958430D01*
X128224697Y-89958438D01*
X128226097Y-89963663D01*
X128228385Y-89968570D01*
X128228386Y-89968572D01*
X128323678Y-90172927D01*
X128323681Y-90172933D01*
X128325965Y-90177830D01*
X128329064Y-90182257D01*
X128329066Y-90182259D01*
X128458399Y-90366966D01*
X128458402Y-90366970D01*
X128461505Y-90371401D01*
X128628599Y-90538495D01*
X128633031Y-90541598D01*
X128633033Y-90541600D01*
X128821624Y-90673653D01*
X128860489Y-90717971D01*
X128874500Y-90775228D01*
X128874500Y-90941447D01*
X128865061Y-90988900D01*
X128838181Y-91029128D01*
X120032696Y-99834611D01*
X120024511Y-99842059D01*
X120018123Y-99846114D01*
X120012788Y-99851794D01*
X120012783Y-99851799D01*
X119972096Y-99895125D01*
X119969392Y-99897916D01*
X119952628Y-99914680D01*
X119952621Y-99914687D01*
X119949880Y-99917429D01*
X119947500Y-99920496D01*
X119947489Y-99920509D01*
X119947400Y-99920625D01*
X119939842Y-99929470D01*
X119915280Y-99955627D01*
X119915273Y-99955636D01*
X119909938Y-99961318D01*
X119906182Y-99968149D01*
X119906179Y-99968154D01*
X119900285Y-99978875D01*
X119889609Y-99995127D01*
X119882109Y-100004796D01*
X119882101Y-100004807D01*
X119877327Y-100010964D01*
X119874234Y-100018108D01*
X119874229Y-100018119D01*
X119859974Y-100051060D01*
X119854838Y-100061543D01*
X119833803Y-100099808D01*
X119831864Y-100107356D01*
X119831863Y-100107361D01*
X119828822Y-100119207D01*
X119822521Y-100137611D01*
X119817658Y-100148848D01*
X119817656Y-100148852D01*
X119814562Y-100156004D01*
X119813342Y-100163703D01*
X119813342Y-100163705D01*
X119807729Y-100199141D01*
X119805361Y-100210576D01*
X119796438Y-100245328D01*
X119796436Y-100245336D01*
X119794500Y-100252881D01*
X119794500Y-100260677D01*
X119794500Y-100272917D01*
X119792974Y-100292302D01*
X119789840Y-100312096D01*
X119790574Y-100319861D01*
X119790574Y-100319864D01*
X119793950Y-100355576D01*
X119794500Y-100367245D01*
X119794500Y-105285812D01*
X119780489Y-105343069D01*
X119741623Y-105387387D01*
X119585296Y-105496847D01*
X119585291Y-105496850D01*
X119580861Y-105499953D01*
X119577037Y-105503776D01*
X119577031Y-105503782D01*
X119423782Y-105657031D01*
X119423776Y-105657037D01*
X119419953Y-105660861D01*
X119416850Y-105665291D01*
X119416847Y-105665296D01*
X119292540Y-105842826D01*
X119292535Y-105842833D01*
X119289432Y-105847266D01*
X119287144Y-105852172D01*
X119287142Y-105852176D01*
X119195550Y-106048594D01*
X119195547Y-106048599D01*
X119193261Y-106053504D01*
X119191862Y-106058724D01*
X119191858Y-106058736D01*
X119135764Y-106268083D01*
X119135762Y-106268094D01*
X119134365Y-106273308D01*
X119133893Y-106278693D01*
X119133893Y-106278698D01*
X119126598Y-106362087D01*
X119114532Y-106500000D01*
X119115004Y-106505395D01*
X119126510Y-106636916D01*
X119134365Y-106726692D01*
X119135762Y-106731907D01*
X119135764Y-106731916D01*
X119191858Y-106941263D01*
X119191861Y-106941271D01*
X119193261Y-106946496D01*
X119195549Y-106951403D01*
X119195550Y-106951405D01*
X119224839Y-107014214D01*
X119289432Y-107152734D01*
X119292539Y-107157171D01*
X119292540Y-107157173D01*
X119348798Y-107237518D01*
X119419953Y-107339139D01*
X119580861Y-107500047D01*
X119664874Y-107558873D01*
X119741623Y-107612613D01*
X119780489Y-107656931D01*
X119794500Y-107714188D01*
X119794500Y-108785812D01*
X119780489Y-108843069D01*
X119741623Y-108887387D01*
X119585296Y-108996847D01*
X119585291Y-108996850D01*
X119580861Y-108999953D01*
X119577037Y-109003776D01*
X119577031Y-109003782D01*
X119423782Y-109157031D01*
X119423776Y-109157037D01*
X119419953Y-109160861D01*
X119416850Y-109165291D01*
X119416847Y-109165296D01*
X119292540Y-109342826D01*
X119292535Y-109342833D01*
X119289432Y-109347266D01*
X119287144Y-109352172D01*
X119287142Y-109352176D01*
X119195550Y-109548594D01*
X119195547Y-109548599D01*
X119193261Y-109553504D01*
X119191862Y-109558724D01*
X119191858Y-109558736D01*
X119135764Y-109768083D01*
X119135762Y-109768094D01*
X119134365Y-109773308D01*
X119133894Y-109778691D01*
X119133893Y-109778697D01*
X119125645Y-109872973D01*
X119100493Y-109937652D01*
X119044527Y-109978687D01*
X118975278Y-109983226D01*
X118914436Y-109949846D01*
X117866677Y-108902087D01*
X116734093Y-107769502D01*
X116701999Y-107713914D01*
X116702000Y-107649726D01*
X116705145Y-107637986D01*
X116706549Y-107632747D01*
X116725162Y-107420000D01*
X116706549Y-107207253D01*
X116651276Y-107000970D01*
X116561021Y-106807419D01*
X116438529Y-106632481D01*
X116287519Y-106481471D01*
X116112581Y-106358979D01*
X115940419Y-106278698D01*
X115923939Y-106271013D01*
X115923937Y-106271012D01*
X115919030Y-106268724D01*
X115913805Y-106267324D01*
X115913797Y-106267321D01*
X115744201Y-106221879D01*
X115712747Y-106213451D01*
X115707359Y-106212979D01*
X115707356Y-106212979D01*
X115505395Y-106195310D01*
X115500000Y-106194838D01*
X115494605Y-106195310D01*
X115292643Y-106212979D01*
X115292638Y-106212979D01*
X115287253Y-106213451D01*
X115282028Y-106214850D01*
X115282028Y-106214851D01*
X115086202Y-106267321D01*
X115086190Y-106267325D01*
X115080970Y-106268724D01*
X115076065Y-106271010D01*
X115076060Y-106271013D01*
X114892329Y-106356689D01*
X114892325Y-106356691D01*
X114887419Y-106358979D01*
X114882986Y-106362082D01*
X114882979Y-106362087D01*
X114716916Y-106478365D01*
X114716911Y-106478368D01*
X114712481Y-106481471D01*
X114708657Y-106485294D01*
X114708651Y-106485300D01*
X114565300Y-106628651D01*
X114565294Y-106628657D01*
X114561471Y-106632481D01*
X114558368Y-106636911D01*
X114558365Y-106636916D01*
X114442087Y-106802979D01*
X114442082Y-106802986D01*
X114438979Y-106807419D01*
X114436691Y-106812325D01*
X114436689Y-106812329D01*
X114351013Y-106996060D01*
X114351010Y-106996065D01*
X114348724Y-107000970D01*
X114347325Y-107006190D01*
X114347321Y-107006202D01*
X114296928Y-107194276D01*
X114293451Y-107207253D01*
X114292979Y-107212638D01*
X114292979Y-107212643D01*
X114278948Y-107373018D01*
X114274838Y-107420000D01*
X114275310Y-107425395D01*
X114292978Y-107627348D01*
X114293451Y-107632747D01*
X114299931Y-107656931D01*
X114347321Y-107833797D01*
X114347324Y-107833805D01*
X114348724Y-107839030D01*
X114351012Y-107843937D01*
X114351013Y-107843939D01*
X114353114Y-107848445D01*
X114438979Y-108032581D01*
X114561471Y-108207519D01*
X114712481Y-108358529D01*
X114887419Y-108481021D01*
X115080970Y-108571276D01*
X115086195Y-108572676D01*
X115088401Y-108573479D01*
X115138139Y-108607028D01*
X115166306Y-108660002D01*
X115166306Y-108719998D01*
X115138139Y-108772972D01*
X115088401Y-108806521D01*
X115086193Y-108807324D01*
X115080970Y-108808724D01*
X115076073Y-108811007D01*
X115076066Y-108811010D01*
X114892329Y-108896689D01*
X114892325Y-108896691D01*
X114887419Y-108898979D01*
X114882986Y-108902082D01*
X114882979Y-108902087D01*
X114716916Y-109018365D01*
X114716911Y-109018368D01*
X114712481Y-109021471D01*
X114708657Y-109025294D01*
X114708651Y-109025300D01*
X114565300Y-109168651D01*
X114565294Y-109168657D01*
X114561471Y-109172481D01*
X114558368Y-109176911D01*
X114558365Y-109176916D01*
X114442087Y-109342979D01*
X114442082Y-109342986D01*
X114438979Y-109347419D01*
X114436691Y-109352325D01*
X114436689Y-109352329D01*
X114351013Y-109536060D01*
X114351010Y-109536065D01*
X114348724Y-109540970D01*
X114347325Y-109546190D01*
X114347321Y-109546202D01*
X114307355Y-109695361D01*
X114293451Y-109747253D01*
X114292979Y-109752638D01*
X114292979Y-109752643D01*
X114281664Y-109881981D01*
X114274838Y-109960000D01*
X114275310Y-109965395D01*
X114283943Y-110064077D01*
X114293451Y-110172747D01*
X114298347Y-110191020D01*
X114347321Y-110373797D01*
X114347324Y-110373805D01*
X114348724Y-110379030D01*
X114438979Y-110572581D01*
X114442086Y-110577018D01*
X114442087Y-110577020D01*
X114519992Y-110688280D01*
X114561471Y-110747519D01*
X114712481Y-110898529D01*
X114887419Y-111021021D01*
X115080970Y-111111276D01*
X115086195Y-111112676D01*
X115088401Y-111113479D01*
X115138139Y-111147028D01*
X115166306Y-111200002D01*
X115166306Y-111259998D01*
X115138139Y-111312972D01*
X115088401Y-111346521D01*
X115086193Y-111347324D01*
X115080970Y-111348724D01*
X115076073Y-111351007D01*
X115076066Y-111351010D01*
X114892329Y-111436689D01*
X114892325Y-111436691D01*
X114887419Y-111438979D01*
X114882986Y-111442082D01*
X114882979Y-111442087D01*
X114716916Y-111558365D01*
X114716911Y-111558368D01*
X114712481Y-111561471D01*
X114708657Y-111565294D01*
X114708651Y-111565300D01*
X114565300Y-111708651D01*
X114565294Y-111708657D01*
X114561471Y-111712481D01*
X114558368Y-111716911D01*
X114558365Y-111716916D01*
X114442087Y-111882979D01*
X114442082Y-111882986D01*
X114438979Y-111887419D01*
X114436691Y-111892325D01*
X114436689Y-111892329D01*
X114351013Y-112076060D01*
X114351010Y-112076065D01*
X114348724Y-112080970D01*
X114347325Y-112086190D01*
X114347321Y-112086202D01*
X114307751Y-112233884D01*
X114293451Y-112287253D01*
X114292979Y-112292638D01*
X114292979Y-112292643D01*
X114287522Y-112355021D01*
X114274838Y-112500000D01*
X110409896Y-112500000D01*
X110538495Y-112371401D01*
X110674035Y-112177830D01*
X110773903Y-111963663D01*
X110835063Y-111735408D01*
X110855659Y-111500000D01*
X110835063Y-111264592D01*
X110773903Y-111036337D01*
X110674035Y-110822171D01*
X110538495Y-110628599D01*
X110416569Y-110506673D01*
X110385273Y-110453927D01*
X110383084Y-110392634D01*
X110410537Y-110337789D01*
X110460916Y-110302810D01*
X110592331Y-110253796D01*
X110707546Y-110167546D01*
X110793796Y-110052331D01*
X110844091Y-109917483D01*
X110850500Y-109857873D01*
X110850499Y-108062128D01*
X110844091Y-108002517D01*
X110793796Y-107867669D01*
X110707546Y-107752454D01*
X110606338Y-107676690D01*
X110599431Y-107671519D01*
X110599430Y-107671518D01*
X110592331Y-107666204D01*
X110579484Y-107661412D01*
X110529106Y-107626433D01*
X110501653Y-107571589D01*
X110503842Y-107510296D01*
X110535136Y-107457552D01*
X115387306Y-102605382D01*
X115395482Y-102597943D01*
X115401877Y-102593886D01*
X115447933Y-102544840D01*
X115450550Y-102542138D01*
X115470120Y-102522570D01*
X115472565Y-102519416D01*
X115480155Y-102510528D01*
X115510062Y-102478682D01*
X115519709Y-102461132D01*
X115530393Y-102444866D01*
X115542674Y-102429036D01*
X115560018Y-102388951D01*
X115565160Y-102378456D01*
X115586197Y-102340192D01*
X115591179Y-102320789D01*
X115597480Y-102302383D01*
X115605438Y-102283995D01*
X115612269Y-102240856D01*
X115614639Y-102229415D01*
X115623560Y-102194674D01*
X115623559Y-102194674D01*
X115625500Y-102187119D01*
X115625500Y-102167083D01*
X115627025Y-102147697D01*
X115630160Y-102127904D01*
X115626050Y-102084424D01*
X115625500Y-102072755D01*
X115625500Y-90829675D01*
X115626021Y-90818619D01*
X115627673Y-90811233D01*
X115625561Y-90744013D01*
X115625500Y-90740119D01*
X115625500Y-90716442D01*
X115625500Y-90712550D01*
X115624998Y-90708583D01*
X115624081Y-90696926D01*
X115623350Y-90673653D01*
X115622710Y-90653273D01*
X115617118Y-90634028D01*
X115613174Y-90614983D01*
X115610664Y-90595108D01*
X115594579Y-90554483D01*
X115590806Y-90543462D01*
X115578618Y-90501510D01*
X115568417Y-90484260D01*
X115559863Y-90466801D01*
X115552486Y-90448168D01*
X115526808Y-90412825D01*
X115520401Y-90403071D01*
X115519271Y-90401161D01*
X115498170Y-90365480D01*
X115484004Y-90351314D01*
X115471370Y-90336522D01*
X115459594Y-90320313D01*
X115453583Y-90315340D01*
X115453581Y-90315338D01*
X115425941Y-90292473D01*
X115417300Y-90284610D01*
X110194871Y-85062180D01*
X110164621Y-85012817D01*
X110160079Y-84955101D01*
X110182234Y-84901614D01*
X110226257Y-84864014D01*
X110282552Y-84850499D01*
X110394561Y-84850499D01*
X110397872Y-84850499D01*
X110457483Y-84844091D01*
X110592331Y-84793796D01*
X110707546Y-84707546D01*
X110793796Y-84592331D01*
X110844091Y-84457483D01*
X110850500Y-84397873D01*
X110850499Y-82602128D01*
X110844091Y-82542517D01*
X110793796Y-82407669D01*
X110707546Y-82292454D01*
X110689170Y-82278698D01*
X110599431Y-82211519D01*
X110599430Y-82211518D01*
X110592331Y-82206204D01*
X110485442Y-82166337D01*
X110464752Y-82158620D01*
X110464750Y-82158619D01*
X110457483Y-82155909D01*
X110449770Y-82155079D01*
X110449767Y-82155079D01*
X110401180Y-82149855D01*
X110401169Y-82149854D01*
X110397873Y-82149500D01*
X110394550Y-82149500D01*
X108605439Y-82149500D01*
X108605420Y-82149500D01*
X108602128Y-82149501D01*
X108598850Y-82149853D01*
X108598838Y-82149854D01*
X108550231Y-82155079D01*
X108550225Y-82155080D01*
X108542517Y-82155909D01*
X108535252Y-82158618D01*
X108535246Y-82158620D01*
X108415980Y-82203104D01*
X108415978Y-82203104D01*
X108407669Y-82206204D01*
X108400572Y-82211516D01*
X108400568Y-82211519D01*
X108299550Y-82287141D01*
X108299546Y-82287144D01*
X108292454Y-82292454D01*
X108287144Y-82299546D01*
X108287141Y-82299550D01*
X108211519Y-82400568D01*
X108211516Y-82400572D01*
X108206204Y-82407669D01*
X108203104Y-82415978D01*
X108203104Y-82415980D01*
X108158620Y-82535247D01*
X108158619Y-82535250D01*
X108155909Y-82542517D01*
X108155079Y-82550227D01*
X108155079Y-82550232D01*
X108149855Y-82598819D01*
X108149854Y-82598831D01*
X108149500Y-82602127D01*
X108149500Y-82605448D01*
X108149500Y-82605449D01*
X108149500Y-84394560D01*
X108149500Y-84394578D01*
X108149501Y-84397872D01*
X108149853Y-84401150D01*
X108149854Y-84401161D01*
X108155079Y-84449768D01*
X108155080Y-84449773D01*
X108155909Y-84457483D01*
X108158619Y-84464749D01*
X108158620Y-84464753D01*
X108184695Y-84534663D01*
X108206204Y-84592331D01*
X108211518Y-84599430D01*
X108211519Y-84599431D01*
X108267367Y-84674035D01*
X108292454Y-84707546D01*
X108407669Y-84793796D01*
X108542517Y-84844091D01*
X108602127Y-84850500D01*
X108750500Y-84850500D01*
X108812500Y-84867113D01*
X108857887Y-84912500D01*
X108874500Y-84974500D01*
X108874500Y-85174125D01*
X108873978Y-85185180D01*
X108872327Y-85192567D01*
X108872571Y-85200353D01*
X108872571Y-85200361D01*
X108874439Y-85259773D01*
X108874500Y-85263668D01*
X108874500Y-85291250D01*
X108874988Y-85295119D01*
X108874989Y-85295125D01*
X108875004Y-85295243D01*
X108875918Y-85306866D01*
X108877045Y-85342730D01*
X108877046Y-85342737D01*
X108877291Y-85350527D01*
X108879467Y-85358019D01*
X108879468Y-85358021D01*
X108882879Y-85369762D01*
X108886825Y-85388815D01*
X108889336Y-85408692D01*
X108892206Y-85415942D01*
X108892208Y-85415948D01*
X108905414Y-85449304D01*
X108909197Y-85460351D01*
X108921382Y-85502290D01*
X108925353Y-85509005D01*
X108925354Y-85509007D01*
X108931581Y-85519537D01*
X108940136Y-85536999D01*
X108944642Y-85548380D01*
X108944643Y-85548383D01*
X108947514Y-85555632D01*
X108969440Y-85585812D01*
X108973181Y-85590960D01*
X108979593Y-85600722D01*
X108997856Y-85631602D01*
X108997859Y-85631607D01*
X109001830Y-85638320D01*
X109007345Y-85643835D01*
X109015990Y-85652480D01*
X109028626Y-85667274D01*
X109035819Y-85677175D01*
X109035823Y-85677179D01*
X109040406Y-85683487D01*
X109046415Y-85688458D01*
X109046416Y-85688459D01*
X109074058Y-85711326D01*
X109082699Y-85719189D01*
X114338181Y-90974671D01*
X114365061Y-91014899D01*
X114374500Y-91062352D01*
X114374500Y-101797648D01*
X114365061Y-101845101D01*
X114338181Y-101885329D01*
X113707499Y-102516010D01*
X113657518Y-102546459D01*
X113599139Y-102550593D01*
X113545367Y-102527491D01*
X113508179Y-102482299D01*
X113495860Y-102425085D01*
X113511155Y-102368594D01*
X113519711Y-102353030D01*
X113530393Y-102336766D01*
X113542674Y-102320936D01*
X113560018Y-102280851D01*
X113565160Y-102270356D01*
X113581374Y-102240864D01*
X113586197Y-102232092D01*
X113591179Y-102212689D01*
X113597480Y-102194283D01*
X113605438Y-102175895D01*
X113612269Y-102132756D01*
X113614639Y-102121315D01*
X113623560Y-102086574D01*
X113623559Y-102086574D01*
X113625500Y-102079019D01*
X113625500Y-102058983D01*
X113627025Y-102039597D01*
X113630160Y-102019804D01*
X113626050Y-101976324D01*
X113625500Y-101964655D01*
X113625500Y-93077771D01*
X113626020Y-93066718D01*
X113627672Y-93059332D01*
X113625561Y-92992144D01*
X113625500Y-92988250D01*
X113625500Y-92964545D01*
X113625500Y-92960650D01*
X113624998Y-92956681D01*
X113624080Y-92945024D01*
X113622954Y-92909172D01*
X113622709Y-92901372D01*
X113617120Y-92882139D01*
X113613174Y-92863082D01*
X113611641Y-92850946D01*
X113610664Y-92843208D01*
X113594581Y-92802587D01*
X113590799Y-92791540D01*
X113580793Y-92757101D01*
X113578617Y-92749610D01*
X113574644Y-92742892D01*
X113568422Y-92732370D01*
X113559860Y-92714892D01*
X113555360Y-92703527D01*
X113555359Y-92703526D01*
X113552486Y-92696268D01*
X113526812Y-92660931D01*
X113520409Y-92651184D01*
X113498170Y-92613579D01*
X113484006Y-92599415D01*
X113471368Y-92584618D01*
X113464184Y-92574729D01*
X113464178Y-92574723D01*
X113459594Y-92568413D01*
X113425946Y-92540577D01*
X113417305Y-92532714D01*
X110886818Y-90002227D01*
X110859938Y-89961999D01*
X110850499Y-89914546D01*
X110850499Y-88605439D01*
X110850499Y-88602128D01*
X110844091Y-88542517D01*
X110793796Y-88407669D01*
X110707546Y-88292454D01*
X110592331Y-88206204D01*
X110457483Y-88155909D01*
X110449770Y-88155079D01*
X110449767Y-88155079D01*
X110401180Y-88149855D01*
X110401169Y-88149854D01*
X110397873Y-88149500D01*
X110394550Y-88149500D01*
X108605439Y-88149500D01*
X108605420Y-88149500D01*
X108602128Y-88149501D01*
X108598850Y-88149853D01*
X108598838Y-88149854D01*
X108550231Y-88155079D01*
X108550225Y-88155080D01*
X108542517Y-88155909D01*
X108535252Y-88158618D01*
X108535246Y-88158620D01*
X108415980Y-88203104D01*
X108415978Y-88203104D01*
X108407669Y-88206204D01*
X108400572Y-88211516D01*
X108400568Y-88211519D01*
X108299550Y-88287141D01*
X108299546Y-88287144D01*
X108292454Y-88292454D01*
X108287144Y-88299546D01*
X108287141Y-88299550D01*
X108211519Y-88400568D01*
X108211516Y-88400572D01*
X108206204Y-88407669D01*
X108203104Y-88415978D01*
X108203104Y-88415980D01*
X108158620Y-88535247D01*
X108158619Y-88535250D01*
X108155909Y-88542517D01*
X108155079Y-88550227D01*
X108155079Y-88550232D01*
X108149855Y-88598819D01*
X108149854Y-88598831D01*
X108149500Y-88602127D01*
X108149500Y-88605448D01*
X108149500Y-88605449D01*
X108149500Y-90394560D01*
X108149500Y-90394578D01*
X108149501Y-90397872D01*
X108149853Y-90401150D01*
X108149854Y-90401161D01*
X108155079Y-90449768D01*
X108155080Y-90449773D01*
X108155909Y-90457483D01*
X108158619Y-90464749D01*
X108158620Y-90464753D01*
X108163105Y-90476777D01*
X108206204Y-90592331D01*
X108211518Y-90599430D01*
X108211519Y-90599431D01*
X108267367Y-90674035D01*
X108292454Y-90707546D01*
X108407669Y-90793796D01*
X108542517Y-90844091D01*
X108602127Y-90850500D01*
X109914546Y-90850499D01*
X109961999Y-90859938D01*
X110002227Y-90886818D01*
X112338181Y-93222772D01*
X112365061Y-93263000D01*
X112374500Y-93310453D01*
X112374500Y-101689548D01*
X112365061Y-101737001D01*
X112338181Y-101777229D01*
X107112696Y-107002711D01*
X107104511Y-107010159D01*
X107098123Y-107014214D01*
X107092788Y-107019894D01*
X107092783Y-107019899D01*
X107052096Y-107063225D01*
X107049392Y-107066016D01*
X107032628Y-107082780D01*
X107032621Y-107082787D01*
X107029880Y-107085529D01*
X107027500Y-107088596D01*
X107027489Y-107088609D01*
X107027400Y-107088725D01*
X107019842Y-107097570D01*
X106995280Y-107123727D01*
X106995273Y-107123736D01*
X106989938Y-107129418D01*
X106986182Y-107136249D01*
X106986179Y-107136254D01*
X106980285Y-107146975D01*
X106969609Y-107163227D01*
X106962109Y-107172896D01*
X106962101Y-107172907D01*
X106957327Y-107179064D01*
X106954234Y-107186208D01*
X106954229Y-107186219D01*
X106939974Y-107219160D01*
X106934838Y-107229643D01*
X106917560Y-107261073D01*
X106913803Y-107267908D01*
X106911864Y-107275456D01*
X106911863Y-107275461D01*
X106908822Y-107287307D01*
X106902521Y-107305711D01*
X106897658Y-107316948D01*
X106897656Y-107316952D01*
X106894562Y-107324104D01*
X106893342Y-107331803D01*
X106893342Y-107331805D01*
X106887729Y-107367241D01*
X106885361Y-107378676D01*
X106876438Y-107413428D01*
X106876436Y-107413436D01*
X106874500Y-107420981D01*
X106874500Y-107428777D01*
X106874500Y-107441017D01*
X106872974Y-107460402D01*
X106869840Y-107480196D01*
X106500000Y-107480196D01*
X106500000Y-102394518D01*
X108150000Y-102394518D01*
X108150353Y-102401114D01*
X108155573Y-102449667D01*
X108159111Y-102464641D01*
X108203547Y-102583777D01*
X108211962Y-102599189D01*
X108287498Y-102700092D01*
X108299907Y-102712501D01*
X108400810Y-102788037D01*
X108416222Y-102796452D01*
X108535358Y-102840888D01*
X108550332Y-102844426D01*
X108598885Y-102849646D01*
X108605482Y-102850000D01*
X109233674Y-102850000D01*
X109246549Y-102846549D01*
X109250000Y-102833674D01*
X109750000Y-102833674D01*
X109753450Y-102846549D01*
X109766326Y-102850000D01*
X110394518Y-102850000D01*
X110401114Y-102849646D01*
X110449667Y-102844426D01*
X110464641Y-102840888D01*
X110583777Y-102796452D01*
X110599189Y-102788037D01*
X110700092Y-102712501D01*
X110712501Y-102700092D01*
X110788037Y-102599189D01*
X110796452Y-102583777D01*
X110840888Y-102464641D01*
X110844426Y-102449667D01*
X110849646Y-102401114D01*
X110850000Y-102394518D01*
X110850000Y-101766326D01*
X110846549Y-101753450D01*
X110833674Y-101750000D01*
X109766326Y-101750000D01*
X109753450Y-101753450D01*
X109750000Y-101766326D01*
X109750000Y-102833674D01*
X109250000Y-102833674D01*
X109250000Y-101766326D01*
X109246549Y-101753450D01*
X109233674Y-101750000D01*
X108166326Y-101750000D01*
X108153450Y-101753450D01*
X108150000Y-101766326D01*
X108150000Y-102394518D01*
X106500000Y-102394518D01*
X106500000Y-101233674D01*
X108150000Y-101233674D01*
X108153450Y-101246549D01*
X108166326Y-101250000D01*
X109233674Y-101250000D01*
X109246549Y-101246549D01*
X109250000Y-101233674D01*
X109750000Y-101233674D01*
X109753450Y-101246549D01*
X109766326Y-101250000D01*
X110833674Y-101250000D01*
X110846549Y-101246549D01*
X110850000Y-101233674D01*
X110850000Y-100605482D01*
X110849646Y-100598885D01*
X110844426Y-100550332D01*
X110840888Y-100535358D01*
X110796452Y-100416222D01*
X110788037Y-100400810D01*
X110712501Y-100299907D01*
X110700092Y-100287498D01*
X110599189Y-100211962D01*
X110583777Y-100203547D01*
X110464641Y-100159111D01*
X110449667Y-100155573D01*
X110401114Y-100150353D01*
X110394518Y-100150000D01*
X109766326Y-100150000D01*
X109753450Y-100153450D01*
X109750000Y-100166326D01*
X109750000Y-101233674D01*
X109250000Y-101233674D01*
X109250000Y-100166326D01*
X109246549Y-100153450D01*
X109233674Y-100150000D01*
X108605482Y-100150000D01*
X108598885Y-100150353D01*
X108550332Y-100155573D01*
X108535358Y-100159111D01*
X108416222Y-100203547D01*
X108400810Y-100211962D01*
X108299907Y-100287498D01*
X108287498Y-100299907D01*
X108211962Y-100400810D01*
X108203547Y-100416222D01*
X108159111Y-100535358D01*
X108155573Y-100550332D01*
X108150353Y-100598885D01*
X108150000Y-100605482D01*
X108150000Y-101233674D01*
X106500000Y-101233674D01*
X106500000Y-96394518D01*
X108150000Y-96394518D01*
X108150353Y-96401114D01*
X108155573Y-96449667D01*
X108159111Y-96464641D01*
X108203547Y-96583777D01*
X108211962Y-96599189D01*
X108287498Y-96700092D01*
X108299907Y-96712501D01*
X108400810Y-96788037D01*
X108416222Y-96796452D01*
X108535358Y-96840888D01*
X108550332Y-96844426D01*
X108598885Y-96849646D01*
X108605482Y-96850000D01*
X109233674Y-96850000D01*
X109246549Y-96846549D01*
X109250000Y-96833674D01*
X109750000Y-96833674D01*
X109753450Y-96846549D01*
X109766326Y-96850000D01*
X110394518Y-96850000D01*
X110401114Y-96849646D01*
X110449667Y-96844426D01*
X110464641Y-96840888D01*
X110583777Y-96796452D01*
X110599189Y-96788037D01*
X110700092Y-96712501D01*
X110712501Y-96700092D01*
X110788037Y-96599189D01*
X110796452Y-96583777D01*
X110840888Y-96464641D01*
X110844426Y-96449667D01*
X110849646Y-96401114D01*
X110850000Y-96394518D01*
X110850000Y-95766326D01*
X110846549Y-95753450D01*
X110833674Y-95750000D01*
X109766326Y-95750000D01*
X109753450Y-95753450D01*
X109750000Y-95766326D01*
X109750000Y-96833674D01*
X109250000Y-96833674D01*
X109250000Y-95766326D01*
X109246549Y-95753450D01*
X109233674Y-95750000D01*
X108166326Y-95750000D01*
X108153450Y-95753450D01*
X108150000Y-95766326D01*
X108150000Y-96394518D01*
X106500000Y-96394518D01*
X106500000Y-95233674D01*
X108150000Y-95233674D01*
X108153450Y-95246549D01*
X108166326Y-95250000D01*
X109233674Y-95250000D01*
X109246549Y-95246549D01*
X109250000Y-95233674D01*
X109750000Y-95233674D01*
X109753450Y-95246549D01*
X109766326Y-95250000D01*
X110833674Y-95250000D01*
X110846549Y-95246549D01*
X110850000Y-95233674D01*
X110850000Y-94605482D01*
X110849646Y-94598885D01*
X110844426Y-94550332D01*
X110840888Y-94535358D01*
X110796452Y-94416222D01*
X110788037Y-94400810D01*
X110712501Y-94299907D01*
X110700092Y-94287498D01*
X110599189Y-94211962D01*
X110583777Y-94203547D01*
X110464641Y-94159111D01*
X110449667Y-94155573D01*
X110401114Y-94150353D01*
X110394518Y-94150000D01*
X109766326Y-94150000D01*
X109753450Y-94153450D01*
X109750000Y-94166326D01*
X109750000Y-95233674D01*
X109250000Y-95233674D01*
X109250000Y-94166326D01*
X109246549Y-94153450D01*
X109233674Y-94150000D01*
X108605482Y-94150000D01*
X108598885Y-94150353D01*
X108550332Y-94155573D01*
X108535358Y-94159111D01*
X108416222Y-94203547D01*
X108400810Y-94211962D01*
X108299907Y-94287498D01*
X108287498Y-94299907D01*
X108211962Y-94400810D01*
X108203547Y-94416222D01*
X108159111Y-94535358D01*
X108155573Y-94550332D01*
X108150353Y-94598885D01*
X108150000Y-94605482D01*
X108150000Y-95233674D01*
X106500000Y-95233674D01*
X106500000Y-80124000D01*
X106516613Y-80062000D01*
X106562000Y-80016613D01*
X106624000Y-80000000D01*
X151376000Y-80000000D01*
X151438000Y-80016613D01*
G37*
%TD.AperFunction*%
%TD*%
M02*
