%TF.GenerationSoftware,KiCad,Pcbnew,8.0.0*%
%TF.CreationDate,2024-03-21T13:17:32+03:00*%
%TF.ProjectId,germanium-power-src,6765726d-616e-4697-956d-2d706f776572,rev?*%
%TF.SameCoordinates,Original*%
%TF.FileFunction,Copper,L1,Top*%
%TF.FilePolarity,Positive*%
%FSLAX46Y46*%
G04 Gerber Fmt 4.6, Leading zero omitted, Abs format (unit mm)*
G04 Created by KiCad (PCBNEW 8.0.0) date 2024-03-21 13:17:32*
%MOMM*%
%LPD*%
G01*
G04 APERTURE LIST*
%TA.AperFunction,ComponentPad*%
%ADD10R,2.500000X2.500000*%
%TD*%
%TA.AperFunction,ComponentPad*%
%ADD11O,2.500000X2.500000*%
%TD*%
%TA.AperFunction,ComponentPad*%
%ADD12C,1.440000*%
%TD*%
%TA.AperFunction,ComponentPad*%
%ADD13C,1.600000*%
%TD*%
%TA.AperFunction,ComponentPad*%
%ADD14O,1.600000X1.600000*%
%TD*%
%TA.AperFunction,ComponentPad*%
%ADD15R,1.700000X1.700000*%
%TD*%
%TA.AperFunction,ComponentPad*%
%ADD16O,1.700000X1.700000*%
%TD*%
%TA.AperFunction,ComponentPad*%
%ADD17R,2.400000X2.400000*%
%TD*%
%TA.AperFunction,ComponentPad*%
%ADD18O,2.400000X2.400000*%
%TD*%
%TA.AperFunction,ComponentPad*%
%ADD19R,2.000000X2.000000*%
%TD*%
%TA.AperFunction,ComponentPad*%
%ADD20C,2.000000*%
%TD*%
%TA.AperFunction,ComponentPad*%
%ADD21O,1.200000X1.200000*%
%TD*%
%TA.AperFunction,Conductor*%
%ADD22C,1.000000*%
%TD*%
G04 APERTURE END LIST*
D10*
%TO.P,D4,1,K*%
%TO.N,+12V*%
X107950000Y-111500000D03*
D11*
%TO.P,D4,2,A*%
%TO.N,Net-(D4-A)*%
X129950000Y-111500000D03*
%TD*%
D12*
%TO.P,RV1,1,1*%
%TO.N,Net-(DZ1-A)*%
X141040000Y-96500000D03*
%TO.P,RV1,2,2*%
%TO.N,Net-(Q1-B)*%
X138500000Y-96500000D03*
%TO.P,RV1,3,3*%
%TO.N,+12V*%
X135960000Y-96500000D03*
%TD*%
D13*
%TO.P,C4,1*%
%TO.N,+12V*%
X115000000Y-84000000D03*
D14*
%TO.P,C4,2*%
%TO.N,Net-(D4-A)*%
X122500000Y-84000000D03*
%TD*%
D13*
%TO.P,R3,1*%
%TO.N,+12V*%
X102000000Y-94840000D03*
D14*
%TO.P,R3,2*%
%TO.N,Net-(J2-Pin_1)*%
X102000000Y-105000000D03*
%TD*%
D15*
%TO.P,J1,1,Pin_1*%
%TO.N,Net-(D3-A)*%
X102000000Y-111500000D03*
D16*
%TO.P,J1,2,Pin_2*%
%TO.N,Net-(D4-A)*%
X102000000Y-108960000D03*
%TD*%
D10*
%TO.P,D6,1,K*%
%TO.N,Net-(D3-A)*%
X107900000Y-89500000D03*
D11*
%TO.P,D6,2,A*%
%TO.N,-12V*%
X129900000Y-89500000D03*
%TD*%
D13*
%TO.P,R1,1*%
%TO.N,Net-(DZ1-A)*%
X144080000Y-105000000D03*
D14*
%TO.P,R1,2*%
%TO.N,-12V*%
X133920000Y-105000000D03*
%TD*%
D13*
%TO.P,R2,1*%
%TO.N,+12V*%
X102000000Y-92080000D03*
D14*
%TO.P,R2,2*%
%TO.N,Net-(J2-Pin_2)*%
X102000000Y-81920000D03*
%TD*%
D13*
%TO.P,C7,1*%
%TO.N,Net-(D4-A)*%
X122500000Y-106000000D03*
D14*
%TO.P,C7,2*%
%TO.N,-12V*%
X115000000Y-106000000D03*
%TD*%
D17*
%TO.P,DZ1,1,K*%
%TO.N,+12V*%
X148500000Y-120500000D03*
D18*
%TO.P,DZ1,2,A*%
%TO.N,Net-(DZ1-A)*%
X148500000Y-107800000D03*
%TD*%
D19*
%TO.P,C2,1*%
%TO.N,+12V*%
X140000000Y-88000000D03*
D20*
%TO.P,C2,2*%
%TO.N,Net-(DZ1-A)*%
X136500000Y-88000000D03*
%TD*%
D15*
%TO.P,J2,1,Pin_1*%
%TO.N,Net-(J2-Pin_1)*%
X140500000Y-76000000D03*
D16*
%TO.P,J2,2,Pin_2*%
%TO.N,Net-(J2-Pin_2)*%
X137960000Y-76000000D03*
%TO.P,J2,3,Pin_3*%
%TO.N,-12V*%
X135420000Y-76000000D03*
%TD*%
D13*
%TO.P,C3,1*%
%TO.N,+12V*%
X146500000Y-95500000D03*
D14*
%TO.P,C3,2*%
%TO.N,Net-(J2-Pin_1)*%
X154000000Y-95500000D03*
%TD*%
D15*
%TO.P,J3,1,Pin_1*%
%TO.N,+12V*%
X145960000Y-76000000D03*
D16*
%TO.P,J3,2,Pin_2*%
%TO.N,Net-(J2-Pin_1)*%
X148500000Y-76000000D03*
%TD*%
D13*
%TO.P,C6,1*%
%TO.N,-12V*%
X115000000Y-117000000D03*
D14*
%TO.P,C6,2*%
%TO.N,Net-(D3-A)*%
X122500000Y-117000000D03*
%TD*%
D10*
%TO.P,D3,1,K*%
%TO.N,+12V*%
X130100000Y-100500000D03*
D11*
%TO.P,D3,2,A*%
%TO.N,Net-(D3-A)*%
X108100000Y-100500000D03*
%TD*%
D10*
%TO.P,D5,1,K*%
%TO.N,Net-(D4-A)*%
X130550000Y-78500000D03*
D11*
%TO.P,D5,2,A*%
%TO.N,-12V*%
X108550000Y-78500000D03*
%TD*%
D13*
%TO.P,C5,1*%
%TO.N,Net-(D3-A)*%
X115000000Y-95000000D03*
D14*
%TO.P,C5,2*%
%TO.N,+12V*%
X122500000Y-95000000D03*
%TD*%
D19*
%TO.P,C1,1*%
%TO.N,+12V*%
X148232300Y-88000000D03*
D20*
%TO.P,C1,2*%
%TO.N,-12V*%
X152032300Y-88000000D03*
%TD*%
D15*
%TO.P,J4,1,Pin_1*%
%TO.N,+12V*%
X156000000Y-105500000D03*
D16*
%TO.P,J4,2,Pin_2*%
%TO.N,Net-(J2-Pin_1)*%
X156000000Y-102960000D03*
%TD*%
D21*
%TO.P,Q1,1,C*%
%TO.N,-12V*%
X135950000Y-116500000D03*
%TO.P,Q1,2,B*%
%TO.N,Net-(Q1-B)*%
X138490000Y-114600000D03*
%TO.P,Q1,3,E*%
%TO.N,Net-(J2-Pin_2)*%
X141030000Y-116500000D03*
%TD*%
D22*
%TO.N,Net-(DZ1-A)*%
X140270000Y-93270000D02*
X140207106Y-93207106D01*
X136500000Y-88500000D02*
X136500000Y-88000000D01*
X138500000Y-92500000D02*
X138207106Y-92500000D01*
X141040000Y-96500000D02*
X141040000Y-99810395D01*
X141040000Y-96500000D02*
X141040000Y-95128944D01*
X136500000Y-90792893D02*
X136500000Y-88934951D01*
X142560000Y-103480000D02*
X144080000Y-105000000D01*
X136524498Y-88875806D02*
X136548997Y-88851308D01*
X136500001Y-88500000D02*
G75*
G03*
X136548990Y-88851310I1370199J12000D01*
G01*
X141040000Y-99810395D02*
G75*
G03*
X142559999Y-103480001I5189600J-5D01*
G01*
X138500000Y-92500000D02*
G75*
G02*
X140207103Y-93207109I0J-2414200D01*
G01*
X137000000Y-92000000D02*
G75*
G03*
X138207106Y-92499997I1207100J1207100D01*
G01*
X136500000Y-88934951D02*
G75*
G02*
X136524482Y-88875790I83600J51D01*
G01*
X140270000Y-93270000D02*
G75*
G02*
X141039981Y-95128944I-1858900J-1858900D01*
G01*
X136500000Y-90792893D02*
G75*
G03*
X136999998Y-92000002I1707100J-7D01*
G01*
%TO.N,+12V*%
X145960000Y-77850000D02*
X145960000Y-78312500D01*
X129296875Y-100500000D02*
X129015625Y-100500000D01*
X145960000Y-78428125D02*
X145960000Y-79121875D01*
X145960000Y-77387500D02*
X145960000Y-77850000D01*
X122500000Y-95125000D02*
X122500000Y-95000000D01*
X126954504Y-99704504D02*
X122588388Y-95338388D01*
X130140625Y-100500000D02*
X129859375Y-100500000D01*
X145960000Y-76462500D02*
X145960000Y-76346875D01*
X145960000Y-76462500D02*
X145960000Y-76925000D01*
X145960000Y-79700000D02*
X145960000Y-81550000D01*
X130140625Y-100500000D02*
X130635000Y-100500000D01*
X145960000Y-88000000D02*
X140000000Y-88000000D01*
X145960000Y-78312500D02*
X145960000Y-78428125D01*
X128875000Y-100500000D02*
X129015625Y-100500000D01*
X145960000Y-79121875D02*
X145960000Y-79700000D01*
X145960000Y-76925000D02*
X145960000Y-77387500D01*
X129859375Y-100500000D02*
X129578125Y-100500000D01*
X129296875Y-100500000D02*
X129578125Y-100500000D01*
X145960000Y-76115625D02*
X145960000Y-76000000D01*
X132105000Y-100500000D02*
X131615000Y-100500000D01*
X145960000Y-76115625D02*
X145960000Y-76346875D01*
X145960000Y-88000000D02*
X145960000Y-81550000D01*
X145960000Y-88000000D02*
X148232300Y-88000000D01*
X131615000Y-100500000D02*
X130635000Y-100500000D01*
X132352530Y-100107469D02*
X135960000Y-96500000D01*
X132352530Y-100107469D02*
G75*
G03*
X132250011Y-100355000I247570J-247531D01*
G01*
X122500000Y-95125000D02*
G75*
G03*
X122588383Y-95338393I301800J0D01*
G01*
X132105000Y-100500000D02*
G75*
G03*
X132250000Y-100355000I0J145000D01*
G01*
X126954504Y-99704504D02*
G75*
G03*
X128875000Y-100499997I1920496J1920504D01*
G01*
%TO.N,Net-(J2-Pin_1)*%
X112593792Y-101906207D02*
X133909009Y-80590990D01*
X102750000Y-104250000D02*
X102000000Y-105000000D01*
X108746036Y-103500000D02*
X104560660Y-103500000D01*
X140500000Y-78146446D02*
X140500000Y-76000000D01*
X137750000Y-79000000D02*
X139646446Y-79000000D01*
X139646446Y-79000000D02*
G75*
G03*
X140249986Y-78749986I-46J853600D01*
G01*
X102750001Y-104250001D02*
G75*
G02*
X104560660Y-103499955I1810699J-1810599D01*
G01*
X140500000Y-78146446D02*
G75*
G02*
X140249986Y-78749986I-853600J46D01*
G01*
X137750000Y-79000000D02*
G75*
G03*
X133909005Y-80590986I0J-5432000D01*
G01*
X108746036Y-103500000D02*
G75*
G03*
X112593785Y-101906200I-36J5441600D01*
G01*
%TO.N,Net-(D4-A)*%
X125222182Y-83077817D02*
X124936396Y-83363603D01*
X126799999Y-79299999D02*
X126777817Y-79322182D01*
X121000000Y-107500000D02*
X122500000Y-106000000D01*
X102980000Y-107980000D02*
X102000000Y-108960000D01*
X123400000Y-84000000D02*
X122500000Y-84000000D01*
X113914213Y-109000000D02*
X117378679Y-109000000D01*
X128731370Y-78500000D02*
X130450000Y-78500000D01*
X109085786Y-107000000D02*
X105345929Y-107000000D01*
X111500000Y-108000000D02*
G75*
G03*
X109085786Y-107000006I-2414200J-2414200D01*
G01*
X121000000Y-107500000D02*
G75*
G02*
X117378679Y-108999991I-3621300J3621300D01*
G01*
X123400000Y-84000000D02*
G75*
G03*
X124936398Y-83363605I0J2172800D01*
G01*
X113914213Y-109000000D02*
G75*
G02*
X111499996Y-108000004I-13J3414200D01*
G01*
X126799999Y-79299999D02*
G75*
G02*
X128731370Y-78499987I1931401J-1931401D01*
G01*
X126000000Y-81200000D02*
G75*
G02*
X125222175Y-83077810I-2655600J0D01*
G01*
X126000000Y-81200000D02*
G75*
G02*
X126777825Y-79322190I2655600J0D01*
G01*
X105345929Y-107000000D02*
G75*
G03*
X102979991Y-107979991I-29J-3345900D01*
G01*
%TO.N,Net-(D3-A)*%
X103500000Y-113000000D02*
X102000000Y-111500000D01*
X109875000Y-100500000D02*
X108000000Y-100500000D01*
X115000000Y-95000000D02*
X110515165Y-90515165D01*
X115000000Y-95000000D02*
X110515165Y-99484834D01*
X120792893Y-114500000D02*
X107121320Y-114500000D01*
X122500000Y-116207106D02*
X122500000Y-117000000D01*
X109875000Y-89500000D02*
X108000000Y-89500000D01*
X122000000Y-115000000D02*
G75*
G03*
X120792893Y-114500003I-1207100J-1207100D01*
G01*
X109875000Y-100500000D02*
G75*
G03*
X110250000Y-100125000I0J375000D01*
G01*
X110250000Y-89875000D02*
G75*
G03*
X110515171Y-90515159I905300J0D01*
G01*
X110250000Y-100125000D02*
G75*
G02*
X110515172Y-99484841I905300J0D01*
G01*
X110250000Y-89875000D02*
G75*
G03*
X109875000Y-89500000I-375000J0D01*
G01*
X122000000Y-115000000D02*
G75*
G02*
X122499997Y-116207106I-1207100J-1207100D01*
G01*
X103500000Y-113000000D02*
G75*
G03*
X107121320Y-114499991I3621300J3621300D01*
G01*
%TD*%
%TA.AperFunction,Conductor*%
%TO.N,Net-(D4-A)*%
G36*
X102786684Y-107486458D02*
G01*
X103409263Y-108245075D01*
X103411863Y-108253644D01*
X103410213Y-108258580D01*
X102790503Y-109276728D01*
X102783275Y-109282013D01*
X102776043Y-109281459D01*
X102003719Y-108962489D01*
X101997382Y-108956166D01*
X101678481Y-108183813D01*
X101678491Y-108174858D01*
X101683058Y-108169449D01*
X102771406Y-107483979D01*
X102780231Y-107482471D01*
X102786684Y-107486458D01*
G37*
%TD.AperFunction*%
%TD*%
%TA.AperFunction,Conductor*%
%TO.N,Net-(J2-Pin_1)*%
G36*
X140508266Y-76007276D02*
G01*
X141344491Y-76844484D01*
X141347913Y-76852759D01*
X141347032Y-76857207D01*
X141002983Y-77692755D01*
X140996664Y-77699100D01*
X140992164Y-77700000D01*
X140007836Y-77700000D01*
X139999563Y-77696573D01*
X139997017Y-77692755D01*
X139898717Y-77454027D01*
X139652967Y-76857205D01*
X139652986Y-76848252D01*
X139655504Y-76844488D01*
X140491723Y-76007286D01*
X140499993Y-76003855D01*
X140508266Y-76007276D01*
G37*
%TD.AperFunction*%
%TD*%
%TA.AperFunction,Conductor*%
%TO.N,+12V*%
G36*
X123238024Y-94698007D02*
G01*
X123243985Y-94703551D01*
X123831257Y-95870399D01*
X123831915Y-95879330D01*
X123829079Y-95883932D01*
X123135600Y-96577411D01*
X123127327Y-96580838D01*
X123119729Y-96578035D01*
X121943928Y-95573894D01*
X121939862Y-95565915D01*
X121942629Y-95557399D01*
X121943234Y-95556742D01*
X122497641Y-95000948D01*
X122501452Y-94998401D01*
X123229069Y-94697996D01*
X123238024Y-94698007D01*
G37*
%TD.AperFunction*%
%TD*%
%TA.AperFunction,Conductor*%
%TO.N,Net-(D4-A)*%
G36*
X122513652Y-83202333D02*
G01*
X123855826Y-83431774D01*
X123863403Y-83436546D01*
X123865155Y-83440279D01*
X124118977Y-84387562D01*
X124117808Y-84396440D01*
X124110704Y-84401891D01*
X124110604Y-84401918D01*
X122815980Y-84736562D01*
X122807113Y-84735314D01*
X122802248Y-84729725D01*
X122499932Y-84002416D01*
X122499037Y-83997919D01*
X122499983Y-83213852D01*
X122503420Y-83205584D01*
X122511697Y-83202167D01*
X122513652Y-83202333D01*
G37*
%TD.AperFunction*%
%TD*%
%TA.AperFunction,Conductor*%
%TO.N,Net-(DZ1-A)*%
G36*
X141746395Y-96499981D02*
G01*
X141754664Y-96503419D01*
X141758079Y-96511697D01*
X141757945Y-96513448D01*
X141541518Y-97930067D01*
X141536881Y-97937728D01*
X141529952Y-97940000D01*
X140550048Y-97940000D01*
X140541775Y-97936573D01*
X140538482Y-97930067D01*
X140322054Y-96513446D01*
X140324192Y-96504752D01*
X140331853Y-96500115D01*
X140333602Y-96499981D01*
X141040000Y-96499000D01*
X141746395Y-96499981D01*
G37*
%TD.AperFunction*%
%TD*%
%TA.AperFunction,Conductor*%
%TO.N,+12V*%
G36*
X147238262Y-87005957D02*
G01*
X148225014Y-87991723D01*
X148228445Y-87999994D01*
X148225022Y-88008269D01*
X148225014Y-88008277D01*
X147238262Y-88994042D01*
X147229987Y-88997465D01*
X147224761Y-88996230D01*
X146238768Y-88503234D01*
X146232900Y-88496469D01*
X146232300Y-88492769D01*
X146232300Y-87507231D01*
X146235727Y-87498958D01*
X146238768Y-87496766D01*
X147224762Y-87003768D01*
X147233693Y-87003134D01*
X147238262Y-87005957D01*
G37*
%TD.AperFunction*%
%TD*%
%TA.AperFunction,Conductor*%
%TO.N,Net-(D3-A)*%
G36*
X114442627Y-94442885D02*
G01*
X114444283Y-94444258D01*
X115000707Y-94999293D01*
X115000727Y-94999313D01*
X115555741Y-95555716D01*
X115559158Y-95563994D01*
X115555721Y-95572262D01*
X115554065Y-95573635D01*
X114230196Y-96479439D01*
X114221433Y-96481283D01*
X114215316Y-96478056D01*
X113521943Y-95784682D01*
X113518516Y-95776409D01*
X113520560Y-95769802D01*
X114426366Y-94445932D01*
X114433864Y-94441041D01*
X114442627Y-94442885D01*
G37*
%TD.AperFunction*%
%TD*%
%TA.AperFunction,Conductor*%
%TO.N,Net-(D3-A)*%
G36*
X102850028Y-111151613D02*
G01*
X102855310Y-111155981D01*
X103799349Y-112589522D01*
X103801037Y-112598316D01*
X103797850Y-112604230D01*
X103104230Y-113297850D01*
X103095957Y-113301277D01*
X103089522Y-113299348D01*
X101655984Y-112355311D01*
X101650959Y-112347899D01*
X101651604Y-112341076D01*
X101997438Y-111503782D01*
X102003761Y-111497447D01*
X102841075Y-111151604D01*
X102850028Y-111151613D01*
G37*
%TD.AperFunction*%
%TD*%
%TA.AperFunction,Conductor*%
%TO.N,+12V*%
G36*
X145968266Y-76007276D02*
G01*
X146803300Y-76843292D01*
X146806722Y-76851567D01*
X146804827Y-76857944D01*
X146463462Y-77382184D01*
X146456075Y-77387247D01*
X146453657Y-77387500D01*
X145466343Y-77387500D01*
X145458070Y-77384073D01*
X145456538Y-77382184D01*
X145115171Y-76857942D01*
X145113530Y-76849142D01*
X145116697Y-76843294D01*
X145951723Y-76007286D01*
X145959993Y-76003855D01*
X145968266Y-76007276D01*
G37*
%TD.AperFunction*%
%TD*%
%TA.AperFunction,Conductor*%
%TO.N,+12V*%
G36*
X135459183Y-95999346D02*
G01*
X135460513Y-96000487D01*
X135960707Y-96499293D01*
X135960730Y-96499316D01*
X136459510Y-96999483D01*
X136462925Y-97007761D01*
X136459487Y-97016030D01*
X136458154Y-97017173D01*
X135303416Y-97865836D01*
X135294720Y-97867974D01*
X135288214Y-97864681D01*
X134595318Y-97171785D01*
X134591891Y-97163512D01*
X134594162Y-97156584D01*
X135442827Y-96001844D01*
X135450487Y-95997208D01*
X135459183Y-95999346D01*
G37*
%TD.AperFunction*%
%TD*%
%TA.AperFunction,Conductor*%
%TO.N,Net-(D4-A)*%
G36*
X121942627Y-105442885D02*
G01*
X121944283Y-105444258D01*
X122500707Y-105999293D01*
X122500727Y-105999313D01*
X123055741Y-106555716D01*
X123059158Y-106563994D01*
X123055721Y-106572262D01*
X123054065Y-106573635D01*
X121730196Y-107479439D01*
X121721433Y-107481283D01*
X121715316Y-107478056D01*
X121021943Y-106784683D01*
X121018516Y-106776410D01*
X121020560Y-106769803D01*
X121154780Y-106573635D01*
X121926366Y-105445932D01*
X121933864Y-105441041D01*
X121942627Y-105442885D01*
G37*
%TD.AperFunction*%
%TD*%
%TA.AperFunction,Conductor*%
%TO.N,Net-(DZ1-A)*%
G36*
X143310196Y-103520560D02*
G01*
X143932909Y-103946626D01*
X144634065Y-104426364D01*
X144638958Y-104433864D01*
X144637114Y-104442627D01*
X144635741Y-104444283D01*
X144080727Y-105000687D01*
X144080707Y-105000707D01*
X143524283Y-105555741D01*
X143516005Y-105559158D01*
X143507737Y-105555721D01*
X143506364Y-105554065D01*
X143127737Y-105000687D01*
X142740220Y-104434315D01*
X142600560Y-104230196D01*
X142598716Y-104221433D01*
X142601941Y-104215318D01*
X143295317Y-103521942D01*
X143303589Y-103518516D01*
X143310196Y-103520560D01*
G37*
%TD.AperFunction*%
%TD*%
%TA.AperFunction,Conductor*%
%TO.N,Net-(DZ1-A)*%
G36*
X141538194Y-95127030D02*
G01*
X141541563Y-95133544D01*
X141757837Y-96486472D01*
X141755759Y-96495182D01*
X141748131Y-96499872D01*
X141746300Y-96500019D01*
X141040025Y-96500998D01*
X141039993Y-96500998D01*
X140333716Y-96500019D01*
X140325447Y-96496581D01*
X140322032Y-96488303D01*
X140322180Y-96486467D01*
X140538461Y-95144035D01*
X140543160Y-95136413D01*
X140549886Y-95134198D01*
X141529885Y-95123692D01*
X141538194Y-95127030D01*
G37*
%TD.AperFunction*%
%TD*%
%TA.AperFunction,Conductor*%
%TO.N,Net-(D3-A)*%
G36*
X122747084Y-115185497D02*
G01*
X122748076Y-115187720D01*
X123235752Y-116683572D01*
X123235058Y-116692500D01*
X123229119Y-116698003D01*
X122502661Y-116999967D01*
X122498157Y-117000863D01*
X121713355Y-117000014D01*
X121705086Y-116996578D01*
X121701668Y-116988301D01*
X121701771Y-116986775D01*
X121876814Y-115679699D01*
X121881308Y-115671955D01*
X121882552Y-115671125D01*
X122731103Y-115181214D01*
X122739980Y-115180046D01*
X122747084Y-115185497D01*
G37*
%TD.AperFunction*%
%TD*%
%TA.AperFunction,Conductor*%
%TO.N,Net-(D3-A)*%
G36*
X114230196Y-93520560D02*
G01*
X114852909Y-93946626D01*
X115554065Y-94426364D01*
X115558958Y-94433864D01*
X115557114Y-94442627D01*
X115555741Y-94444283D01*
X115000727Y-95000687D01*
X115000707Y-95000707D01*
X114444283Y-95555741D01*
X114436005Y-95559158D01*
X114427737Y-95555721D01*
X114426364Y-95554065D01*
X114047737Y-95000687D01*
X113660220Y-94434315D01*
X113520560Y-94230196D01*
X113518716Y-94221433D01*
X113521941Y-94215318D01*
X114215317Y-93521942D01*
X114223589Y-93518516D01*
X114230196Y-93520560D01*
G37*
%TD.AperFunction*%
%TD*%
%TA.AperFunction,Conductor*%
%TO.N,Net-(J2-Pin_1)*%
G36*
X102817626Y-103556788D02*
G01*
X102817674Y-103556862D01*
X103339438Y-104387199D01*
X103340938Y-104396027D01*
X103339286Y-104399884D01*
X102744422Y-105298116D01*
X102736997Y-105303122D01*
X102730201Y-105302470D01*
X102003648Y-105002388D01*
X101997309Y-104996062D01*
X101997299Y-104996038D01*
X101749631Y-104396027D01*
X101697588Y-104269944D01*
X101697599Y-104260991D01*
X101702101Y-104255625D01*
X102801469Y-103553227D01*
X102810284Y-103551661D01*
X102817626Y-103556788D01*
G37*
%TD.AperFunction*%
%TD*%
%TA.AperFunction,Conductor*%
%TO.N,-12V*%
G36*
X151943039Y-73019685D02*
G01*
X151988794Y-73072489D01*
X152000000Y-73124000D01*
X152000000Y-79500000D01*
X158376000Y-79500000D01*
X158443039Y-79519685D01*
X158488794Y-79572489D01*
X158500000Y-79624000D01*
X158500000Y-116376000D01*
X158480315Y-116443039D01*
X158427511Y-116488794D01*
X158376000Y-116500000D01*
X152000000Y-116500000D01*
X152000000Y-122876000D01*
X151980315Y-122943039D01*
X151927511Y-122988794D01*
X151876000Y-123000000D01*
X106124000Y-123000000D01*
X106056961Y-122980315D01*
X106011206Y-122927511D01*
X106000000Y-122876000D01*
X106000000Y-121747870D01*
X146799500Y-121747870D01*
X146799501Y-121747876D01*
X146805908Y-121807483D01*
X146856202Y-121942328D01*
X146856206Y-121942335D01*
X146942452Y-122057544D01*
X146942455Y-122057547D01*
X147057664Y-122143793D01*
X147057671Y-122143797D01*
X147192517Y-122194091D01*
X147192516Y-122194091D01*
X147199444Y-122194835D01*
X147252127Y-122200500D01*
X149747872Y-122200499D01*
X149807483Y-122194091D01*
X149942331Y-122143796D01*
X150057546Y-122057546D01*
X150143796Y-121942331D01*
X150194091Y-121807483D01*
X150200500Y-121747873D01*
X150200499Y-119252128D01*
X150194091Y-119192517D01*
X150143796Y-119057669D01*
X150143795Y-119057668D01*
X150143793Y-119057664D01*
X150057547Y-118942455D01*
X150057544Y-118942452D01*
X149942335Y-118856206D01*
X149942328Y-118856202D01*
X149807482Y-118805908D01*
X149807483Y-118805908D01*
X149747883Y-118799501D01*
X149747881Y-118799500D01*
X149747873Y-118799500D01*
X149747864Y-118799500D01*
X147252129Y-118799500D01*
X147252123Y-118799501D01*
X147192516Y-118805908D01*
X147057671Y-118856202D01*
X147057664Y-118856206D01*
X146942455Y-118942452D01*
X146942452Y-118942455D01*
X146856206Y-119057664D01*
X146856202Y-119057671D01*
X146805908Y-119192517D01*
X146799501Y-119252116D01*
X146799501Y-119252123D01*
X146799500Y-119252135D01*
X146799500Y-121747870D01*
X106000000Y-121747870D01*
X106000000Y-116500000D01*
X99624000Y-116500000D01*
X99556961Y-116480315D01*
X99511206Y-116427511D01*
X99500000Y-116376000D01*
X99500000Y-108960000D01*
X100644341Y-108960000D01*
X100664936Y-109195403D01*
X100664938Y-109195413D01*
X100726094Y-109423655D01*
X100726096Y-109423659D01*
X100726097Y-109423663D01*
X100789569Y-109559779D01*
X100825965Y-109637830D01*
X100825967Y-109637834D01*
X100904157Y-109749500D01*
X100961501Y-109831396D01*
X100961506Y-109831402D01*
X101083430Y-109953326D01*
X101116915Y-110014649D01*
X101111931Y-110084341D01*
X101070059Y-110140274D01*
X101039083Y-110157189D01*
X100907669Y-110206203D01*
X100907664Y-110206206D01*
X100792455Y-110292452D01*
X100792452Y-110292455D01*
X100706206Y-110407664D01*
X100706202Y-110407671D01*
X100655908Y-110542517D01*
X100649501Y-110602116D01*
X100649501Y-110602123D01*
X100649500Y-110602135D01*
X100649500Y-112397870D01*
X100649501Y-112397876D01*
X100655908Y-112457483D01*
X100706202Y-112592328D01*
X100706206Y-112592335D01*
X100792452Y-112707544D01*
X100792455Y-112707547D01*
X100907664Y-112793793D01*
X100907671Y-112793797D01*
X100952618Y-112810561D01*
X101042517Y-112844091D01*
X101102127Y-112850500D01*
X101451668Y-112850499D01*
X101518707Y-112870183D01*
X101519867Y-112870938D01*
X102096237Y-113250499D01*
X102786582Y-113705116D01*
X102806059Y-113720991D01*
X102947137Y-113862069D01*
X103076299Y-113973989D01*
X103277621Y-114148436D01*
X103627672Y-114410480D01*
X103627677Y-114410483D01*
X103995544Y-114646896D01*
X104379339Y-114856463D01*
X104379343Y-114856465D01*
X104379350Y-114856469D01*
X104777092Y-115038110D01*
X104777096Y-115038111D01*
X104777106Y-115038116D01*
X105186819Y-115190930D01*
X105186827Y-115190932D01*
X105186837Y-115190936D01*
X105606379Y-115314123D01*
X105606397Y-115314128D01*
X106033673Y-115407075D01*
X106033680Y-115407076D01*
X106466513Y-115469307D01*
X106902682Y-115500501D01*
X107121324Y-115500500D01*
X114631520Y-115500500D01*
X114698559Y-115520185D01*
X114744314Y-115572989D01*
X114754258Y-115642147D01*
X114725233Y-115705703D01*
X114666455Y-115743477D01*
X114663613Y-115744275D01*
X114553682Y-115773730D01*
X114553673Y-115773734D01*
X114347516Y-115869866D01*
X114347512Y-115869868D01*
X114274526Y-115920973D01*
X114274526Y-115920974D01*
X114953553Y-116600000D01*
X114947339Y-116600000D01*
X114845606Y-116627259D01*
X114754394Y-116679920D01*
X114679920Y-116754394D01*
X114627259Y-116845606D01*
X114600000Y-116947339D01*
X114600000Y-116953552D01*
X113920974Y-116274526D01*
X113920973Y-116274526D01*
X113869868Y-116347512D01*
X113869866Y-116347516D01*
X113773734Y-116553673D01*
X113773730Y-116553682D01*
X113714860Y-116773389D01*
X113714858Y-116773400D01*
X113695034Y-116999997D01*
X113695034Y-117000002D01*
X113714858Y-117226599D01*
X113714860Y-117226610D01*
X113773730Y-117446317D01*
X113773735Y-117446331D01*
X113869863Y-117652478D01*
X113920974Y-117725472D01*
X114600000Y-117046446D01*
X114600000Y-117052661D01*
X114627259Y-117154394D01*
X114679920Y-117245606D01*
X114754394Y-117320080D01*
X114845606Y-117372741D01*
X114947339Y-117400000D01*
X114953553Y-117400000D01*
X114274526Y-118079025D01*
X114347513Y-118130132D01*
X114347521Y-118130136D01*
X114553668Y-118226264D01*
X114553682Y-118226269D01*
X114773389Y-118285139D01*
X114773400Y-118285141D01*
X114999998Y-118304966D01*
X115000002Y-118304966D01*
X115226599Y-118285141D01*
X115226610Y-118285139D01*
X115446317Y-118226269D01*
X115446331Y-118226264D01*
X115652478Y-118130136D01*
X115725471Y-118079024D01*
X115046447Y-117400000D01*
X115052661Y-117400000D01*
X115154394Y-117372741D01*
X115245606Y-117320080D01*
X115320080Y-117245606D01*
X115372741Y-117154394D01*
X115400000Y-117052661D01*
X115400000Y-117046447D01*
X116079024Y-117725471D01*
X116130136Y-117652478D01*
X116226264Y-117446331D01*
X116226269Y-117446317D01*
X116285139Y-117226610D01*
X116285141Y-117226599D01*
X116304966Y-117000002D01*
X116304966Y-116999997D01*
X116285141Y-116773400D01*
X116285139Y-116773389D01*
X116226269Y-116553682D01*
X116226264Y-116553668D01*
X116130136Y-116347521D01*
X116130132Y-116347513D01*
X116079025Y-116274526D01*
X115400000Y-116953551D01*
X115400000Y-116947339D01*
X115372741Y-116845606D01*
X115320080Y-116754394D01*
X115245606Y-116679920D01*
X115154394Y-116627259D01*
X115052661Y-116600000D01*
X115046448Y-116600000D01*
X115725472Y-115920974D01*
X115652478Y-115869863D01*
X115446331Y-115773735D01*
X115446317Y-115773730D01*
X115336387Y-115744275D01*
X115276726Y-115707910D01*
X115246197Y-115645063D01*
X115254492Y-115575688D01*
X115298977Y-115521810D01*
X115365529Y-115500535D01*
X115368480Y-115500500D01*
X120700187Y-115500500D01*
X120786805Y-115500500D01*
X120798958Y-115501097D01*
X120806903Y-115501879D01*
X120918600Y-115512880D01*
X120942426Y-115517619D01*
X121051622Y-115550742D01*
X121074070Y-115560041D01*
X121174693Y-115613825D01*
X121194903Y-115627329D01*
X121283086Y-115699698D01*
X121300275Y-115716887D01*
X121318979Y-115739678D01*
X121346292Y-115803988D01*
X121346029Y-115834802D01*
X121227380Y-116720772D01*
X121224253Y-116736401D01*
X121214365Y-116773308D01*
X121211888Y-116801614D01*
X121203342Y-116899289D01*
X121202717Y-116904935D01*
X121200746Y-116919654D01*
X121197419Y-116952733D01*
X121197316Y-116954265D01*
X121197315Y-116954277D01*
X121197408Y-116959059D01*
X121196959Y-116972250D01*
X121194532Y-116999995D01*
X121194532Y-117000001D01*
X121214364Y-117226686D01*
X121214366Y-117226697D01*
X121273258Y-117446488D01*
X121273261Y-117446497D01*
X121369431Y-117652732D01*
X121369432Y-117652734D01*
X121499954Y-117839141D01*
X121660858Y-118000045D01*
X121660861Y-118000047D01*
X121847266Y-118130568D01*
X122053504Y-118226739D01*
X122273308Y-118285635D01*
X122435230Y-118299801D01*
X122499998Y-118305468D01*
X122500000Y-118305468D01*
X122500002Y-118305468D01*
X122556673Y-118300509D01*
X122726692Y-118285635D01*
X122946496Y-118226739D01*
X123152734Y-118130568D01*
X123339139Y-118000047D01*
X123500047Y-117839139D01*
X123630568Y-117652734D01*
X123726739Y-117446496D01*
X123785635Y-117226692D01*
X123805468Y-117000000D01*
X123785635Y-116773308D01*
X123779390Y-116750000D01*
X134877472Y-116750000D01*
X134919885Y-116899065D01*
X134919890Y-116899078D01*
X135010754Y-117081556D01*
X135133608Y-117244242D01*
X135284260Y-117381578D01*
X135457584Y-117488897D01*
X135647678Y-117562539D01*
X135700000Y-117572320D01*
X135700000Y-116750000D01*
X134877472Y-116750000D01*
X123779390Y-116750000D01*
X123726739Y-116553504D01*
X123723737Y-116547066D01*
X123723387Y-116546078D01*
X135600000Y-116546078D01*
X135623852Y-116635095D01*
X135669930Y-116714905D01*
X135735095Y-116780070D01*
X135814905Y-116826148D01*
X135903922Y-116850000D01*
X135996078Y-116850000D01*
X136085095Y-116826148D01*
X136164905Y-116780070D01*
X136194975Y-116750000D01*
X136200000Y-116750000D01*
X136200000Y-117572320D01*
X136252321Y-117562539D01*
X136442415Y-117488897D01*
X136615739Y-117381578D01*
X136766391Y-117244242D01*
X136889245Y-117081556D01*
X136980109Y-116899078D01*
X136980114Y-116899065D01*
X137022528Y-116750000D01*
X136200000Y-116750000D01*
X136194975Y-116750000D01*
X136230070Y-116714905D01*
X136276148Y-116635095D01*
X136300000Y-116546078D01*
X136300000Y-116500000D01*
X139924785Y-116500000D01*
X139943602Y-116703082D01*
X139999417Y-116899247D01*
X139999422Y-116899260D01*
X140090327Y-117081821D01*
X140213237Y-117244581D01*
X140363958Y-117381980D01*
X140363960Y-117381982D01*
X140463141Y-117443392D01*
X140537363Y-117489348D01*
X140727544Y-117563024D01*
X140928024Y-117600500D01*
X140928026Y-117600500D01*
X141131974Y-117600500D01*
X141131976Y-117600500D01*
X141332456Y-117563024D01*
X141522637Y-117489348D01*
X141696041Y-117381981D01*
X141824122Y-117265219D01*
X141846762Y-117244581D01*
X141847018Y-117244242D01*
X141969673Y-117081821D01*
X142060582Y-116899250D01*
X142116397Y-116703083D01*
X142135215Y-116500000D01*
X142116397Y-116296917D01*
X142060582Y-116100750D01*
X141969673Y-115918179D01*
X141883440Y-115803988D01*
X141846762Y-115755418D01*
X141696041Y-115618019D01*
X141696039Y-115618017D01*
X141522642Y-115510655D01*
X141522635Y-115510651D01*
X141427546Y-115473814D01*
X141332456Y-115436976D01*
X141131976Y-115399500D01*
X140928024Y-115399500D01*
X140727544Y-115436976D01*
X140727541Y-115436976D01*
X140727541Y-115436977D01*
X140537364Y-115510651D01*
X140537357Y-115510655D01*
X140363960Y-115618017D01*
X140363958Y-115618019D01*
X140213237Y-115755418D01*
X140090327Y-115918178D01*
X139999422Y-116100739D01*
X139999417Y-116100752D01*
X139943602Y-116296917D01*
X139924785Y-116499999D01*
X139924785Y-116500000D01*
X136300000Y-116500000D01*
X136300000Y-116453922D01*
X136276148Y-116364905D01*
X136230070Y-116285095D01*
X136194975Y-116250000D01*
X136200000Y-116250000D01*
X137022528Y-116250000D01*
X137022528Y-116249999D01*
X136980114Y-116100934D01*
X136980109Y-116100921D01*
X136889245Y-115918443D01*
X136766391Y-115755757D01*
X136615739Y-115618421D01*
X136442413Y-115511101D01*
X136252315Y-115437458D01*
X136252309Y-115437456D01*
X136200001Y-115427677D01*
X136200000Y-115427679D01*
X136200000Y-116250000D01*
X136194975Y-116250000D01*
X136164905Y-116219930D01*
X136085095Y-116173852D01*
X135996078Y-116150000D01*
X135903922Y-116150000D01*
X135814905Y-116173852D01*
X135735095Y-116219930D01*
X135669930Y-116285095D01*
X135623852Y-116364905D01*
X135600000Y-116453922D01*
X135600000Y-116546078D01*
X123723387Y-116546078D01*
X123718051Y-116530993D01*
X123717729Y-116531099D01*
X123716356Y-116526889D01*
X123716356Y-116526886D01*
X123626085Y-116249999D01*
X134877471Y-116249999D01*
X134877472Y-116250000D01*
X135700000Y-116250000D01*
X135700000Y-115427679D01*
X135699998Y-115427677D01*
X135647690Y-115437456D01*
X135647684Y-115437458D01*
X135457586Y-115511101D01*
X135284260Y-115618421D01*
X135133608Y-115755757D01*
X135010754Y-115918443D01*
X134919890Y-116100921D01*
X134919885Y-116100934D01*
X134877471Y-116249999D01*
X123626085Y-116249999D01*
X123471648Y-115776293D01*
X123467300Y-115756241D01*
X123467031Y-115756287D01*
X123466449Y-115752870D01*
X123466448Y-115752853D01*
X123398778Y-115456366D01*
X123298337Y-115169319D01*
X123218664Y-115003877D01*
X123214673Y-114994645D01*
X123209699Y-114981724D01*
X123208707Y-114979501D01*
X123200533Y-114965396D01*
X123196114Y-114957051D01*
X123166388Y-114895324D01*
X123004591Y-114637824D01*
X122974427Y-114600000D01*
X137384785Y-114600000D01*
X137403602Y-114803082D01*
X137459417Y-114999247D01*
X137459422Y-114999260D01*
X137550327Y-115181821D01*
X137673237Y-115344581D01*
X137823958Y-115481980D01*
X137823960Y-115481982D01*
X137888285Y-115521810D01*
X137997363Y-115589348D01*
X138187544Y-115663024D01*
X138388024Y-115700500D01*
X138388026Y-115700500D01*
X138591974Y-115700500D01*
X138591976Y-115700500D01*
X138792456Y-115663024D01*
X138982637Y-115589348D01*
X139156041Y-115481981D01*
X139306764Y-115344579D01*
X139429673Y-115181821D01*
X139520582Y-114999250D01*
X139576397Y-114803083D01*
X139595215Y-114600000D01*
X139576397Y-114396917D01*
X139520582Y-114200750D01*
X139512748Y-114185018D01*
X139476272Y-114111764D01*
X139429673Y-114018179D01*
X139311786Y-113862071D01*
X139306762Y-113855418D01*
X139156041Y-113718019D01*
X139156039Y-113718017D01*
X138982642Y-113610655D01*
X138982635Y-113610651D01*
X138887546Y-113573814D01*
X138792456Y-113536976D01*
X138591976Y-113499500D01*
X138388024Y-113499500D01*
X138187544Y-113536976D01*
X138187541Y-113536976D01*
X138187541Y-113536977D01*
X137997364Y-113610651D01*
X137997357Y-113610655D01*
X137823960Y-113718017D01*
X137823958Y-113718019D01*
X137673237Y-113855418D01*
X137550327Y-114018178D01*
X137459422Y-114200739D01*
X137459417Y-114200752D01*
X137403602Y-114396917D01*
X137384785Y-114599999D01*
X137384785Y-114600000D01*
X122974427Y-114600000D01*
X122814980Y-114400060D01*
X122743781Y-114328861D01*
X122743776Y-114328852D01*
X122599941Y-114185017D01*
X122390732Y-114018179D01*
X122362177Y-113995407D01*
X122104677Y-113833609D01*
X122104678Y-113833609D01*
X122104671Y-113833605D01*
X121830687Y-113701662D01*
X121830683Y-113701660D01*
X121543634Y-113601219D01*
X121543628Y-113601217D01*
X121247148Y-113533548D01*
X121247131Y-113533545D01*
X120944951Y-113499500D01*
X120944945Y-113499500D01*
X120891434Y-113499500D01*
X107124021Y-113499500D01*
X107118618Y-113499382D01*
X107112372Y-113499109D01*
X107095699Y-113498381D01*
X107029583Y-113475789D01*
X106986177Y-113421038D01*
X106979261Y-113351511D01*
X107011033Y-113289283D01*
X107071404Y-113254110D01*
X107101105Y-113250499D01*
X109247872Y-113250499D01*
X109307483Y-113244091D01*
X109442331Y-113193796D01*
X109557546Y-113107546D01*
X109643796Y-112992331D01*
X109694091Y-112857483D01*
X109700500Y-112797873D01*
X109700500Y-111500004D01*
X128194592Y-111500004D01*
X128214196Y-111761620D01*
X128214197Y-111761625D01*
X128272576Y-112017402D01*
X128272578Y-112017411D01*
X128272580Y-112017416D01*
X128368432Y-112261643D01*
X128499614Y-112488857D01*
X128582132Y-112592331D01*
X128663198Y-112693985D01*
X128831882Y-112850499D01*
X128855521Y-112872433D01*
X129072296Y-113020228D01*
X129072301Y-113020230D01*
X129072302Y-113020231D01*
X129072303Y-113020232D01*
X129197843Y-113080688D01*
X129308673Y-113134061D01*
X129308674Y-113134061D01*
X129308677Y-113134063D01*
X129559385Y-113211396D01*
X129818818Y-113250500D01*
X130081182Y-113250500D01*
X130340615Y-113211396D01*
X130591323Y-113134063D01*
X130827704Y-113020228D01*
X131044479Y-112872433D01*
X131222184Y-112707547D01*
X131236801Y-112693985D01*
X131236801Y-112693983D01*
X131236805Y-112693981D01*
X131400386Y-112488857D01*
X131531568Y-112261643D01*
X131627420Y-112017416D01*
X131685802Y-111761630D01*
X131705408Y-111500000D01*
X131685802Y-111238370D01*
X131627420Y-110982584D01*
X131531568Y-110738357D01*
X131400386Y-110511143D01*
X131236805Y-110306019D01*
X131236804Y-110306018D01*
X131236801Y-110306014D01*
X131044479Y-110127567D01*
X130981078Y-110084341D01*
X130827704Y-109979772D01*
X130827700Y-109979770D01*
X130827697Y-109979768D01*
X130827696Y-109979767D01*
X130591325Y-109865938D01*
X130591327Y-109865938D01*
X130340623Y-109788606D01*
X130340619Y-109788605D01*
X130340615Y-109788604D01*
X130215823Y-109769794D01*
X130081187Y-109749500D01*
X130081182Y-109749500D01*
X129818818Y-109749500D01*
X129818812Y-109749500D01*
X129657247Y-109773853D01*
X129559385Y-109788604D01*
X129559382Y-109788605D01*
X129559376Y-109788606D01*
X129308673Y-109865938D01*
X129072303Y-109979767D01*
X129072302Y-109979768D01*
X128855520Y-110127567D01*
X128663198Y-110306014D01*
X128499614Y-110511143D01*
X128368432Y-110738356D01*
X128272582Y-110982578D01*
X128272576Y-110982597D01*
X128214197Y-111238374D01*
X128214196Y-111238379D01*
X128194592Y-111499995D01*
X128194592Y-111500004D01*
X109700500Y-111500004D01*
X109700499Y-110202128D01*
X109694091Y-110142517D01*
X109693254Y-110140274D01*
X109643797Y-110007671D01*
X109643793Y-110007664D01*
X109557547Y-109892455D01*
X109557544Y-109892452D01*
X109442335Y-109806206D01*
X109442328Y-109806202D01*
X109307482Y-109755908D01*
X109307483Y-109755908D01*
X109247883Y-109749501D01*
X109247881Y-109749500D01*
X109247873Y-109749500D01*
X109247864Y-109749500D01*
X106652129Y-109749500D01*
X106652123Y-109749501D01*
X106592516Y-109755908D01*
X106457671Y-109806202D01*
X106457664Y-109806206D01*
X106342455Y-109892452D01*
X106342452Y-109892455D01*
X106256206Y-110007664D01*
X106256202Y-110007671D01*
X106205908Y-110142517D01*
X106199501Y-110202116D01*
X106199501Y-110202123D01*
X106199500Y-110202135D01*
X106199500Y-112797870D01*
X106199501Y-112797876D01*
X106205908Y-112857483D01*
X106256202Y-112992328D01*
X106256206Y-112992335D01*
X106342452Y-113107544D01*
X106342455Y-113107547D01*
X106457664Y-113193793D01*
X106457671Y-113193797D01*
X106469658Y-113198268D01*
X106525592Y-113240139D01*
X106550009Y-113305603D01*
X106535158Y-113373876D01*
X106485753Y-113423282D01*
X106417480Y-113438134D01*
X106399487Y-113435511D01*
X106060052Y-113360261D01*
X106049603Y-113357461D01*
X105717072Y-113252615D01*
X105706916Y-113248918D01*
X105384780Y-113115486D01*
X105374979Y-113110916D01*
X105065712Y-112949922D01*
X105056344Y-112944514D01*
X104762271Y-112757170D01*
X104753410Y-112750965D01*
X104476794Y-112538710D01*
X104468516Y-112531765D01*
X104222793Y-112306601D01*
X104203011Y-112283384D01*
X104027861Y-112017416D01*
X103370938Y-111019865D01*
X103350507Y-110953049D01*
X103350499Y-110951666D01*
X103350499Y-110602129D01*
X103350498Y-110602123D01*
X103350497Y-110602116D01*
X103344091Y-110542517D01*
X103332389Y-110511143D01*
X103293797Y-110407671D01*
X103293793Y-110407664D01*
X103207547Y-110292455D01*
X103207544Y-110292452D01*
X103092335Y-110206206D01*
X103092328Y-110206202D01*
X102960917Y-110157189D01*
X102904983Y-110115318D01*
X102880566Y-110049853D01*
X102895418Y-109981580D01*
X102916563Y-109953332D01*
X103038495Y-109831401D01*
X103174035Y-109637830D01*
X103210436Y-109559766D01*
X103220004Y-109543335D01*
X103220003Y-109543335D01*
X103220036Y-109543280D01*
X103221770Y-109540303D01*
X103222294Y-109539564D01*
X103222306Y-109539551D01*
X103795160Y-108598383D01*
X103818447Y-108570403D01*
X103878401Y-108516826D01*
X103889238Y-108508184D01*
X104092418Y-108364021D01*
X104104164Y-108356640D01*
X104322202Y-108236136D01*
X104334709Y-108230113D01*
X104564845Y-108134788D01*
X104577963Y-108130198D01*
X104817330Y-108061239D01*
X104830874Y-108058148D01*
X105076464Y-108016422D01*
X105090257Y-108014868D01*
X105342681Y-108000694D01*
X105349626Y-108000500D01*
X105438630Y-108000501D01*
X105438635Y-108000500D01*
X108993080Y-108000500D01*
X109082311Y-108000500D01*
X109089262Y-108000694D01*
X109349098Y-108015286D01*
X109362894Y-108016840D01*
X109616029Y-108059849D01*
X109629581Y-108062942D01*
X109876297Y-108134019D01*
X109889422Y-108138612D01*
X109897370Y-108141904D01*
X110116755Y-108232776D01*
X110126625Y-108236864D01*
X110139147Y-108242893D01*
X110319490Y-108342565D01*
X110363867Y-108367091D01*
X110375641Y-108374489D01*
X110585045Y-108523068D01*
X110595908Y-108531732D01*
X110789804Y-108705009D01*
X110794858Y-108709787D01*
X110928828Y-108843757D01*
X110928831Y-108843760D01*
X111008337Y-108910473D01*
X111224141Y-109091555D01*
X111539909Y-109312658D01*
X111539916Y-109312662D01*
X111539927Y-109312670D01*
X111873782Y-109505421D01*
X111873796Y-109505427D01*
X111873799Y-109505429D01*
X112223161Y-109668338D01*
X112223164Y-109668339D01*
X112223166Y-109668340D01*
X112585419Y-109800189D01*
X112585420Y-109800189D01*
X112585425Y-109800191D01*
X112701883Y-109831395D01*
X112957786Y-109899963D01*
X113337431Y-109966903D01*
X113721466Y-110000501D01*
X113914217Y-110000500D01*
X117378675Y-110000500D01*
X117477220Y-110000500D01*
X117483687Y-110000500D01*
X117483853Y-110000491D01*
X117597316Y-110000492D01*
X118033485Y-109969298D01*
X118466317Y-109907068D01*
X118655396Y-109865937D01*
X118893599Y-109814120D01*
X118893603Y-109814118D01*
X118893607Y-109814118D01*
X119313158Y-109690928D01*
X119313159Y-109690928D01*
X119313164Y-109690926D01*
X119313178Y-109690922D01*
X119722890Y-109538108D01*
X119765979Y-109518429D01*
X120120645Y-109356461D01*
X120120649Y-109356458D01*
X120120657Y-109356455D01*
X120504451Y-109146888D01*
X120872317Y-108910476D01*
X120961443Y-108843757D01*
X121222372Y-108648429D01*
X121312426Y-108570397D01*
X121552857Y-108362063D01*
X121707460Y-108207460D01*
X121773016Y-108141904D01*
X121773015Y-108141904D01*
X122015873Y-107899045D01*
X122033522Y-107884397D01*
X122156866Y-107800004D01*
X146794732Y-107800004D01*
X146813777Y-108054154D01*
X146865820Y-108282171D01*
X146870492Y-108302637D01*
X146963607Y-108539888D01*
X147091041Y-108760612D01*
X147249950Y-108959877D01*
X147436783Y-109133232D01*
X147647366Y-109276805D01*
X147647371Y-109276807D01*
X147647372Y-109276808D01*
X147647373Y-109276809D01*
X147769328Y-109335538D01*
X147876992Y-109387387D01*
X147876993Y-109387387D01*
X147876996Y-109387389D01*
X148120542Y-109462513D01*
X148372565Y-109500500D01*
X148627435Y-109500500D01*
X148879458Y-109462513D01*
X149123004Y-109387389D01*
X149352634Y-109276805D01*
X149563217Y-109133232D01*
X149750050Y-108959877D01*
X149908959Y-108760612D01*
X150036393Y-108539888D01*
X150129508Y-108302637D01*
X150186222Y-108054157D01*
X150205268Y-107800000D01*
X150204216Y-107785965D01*
X150186222Y-107545845D01*
X150170494Y-107476937D01*
X150129508Y-107297363D01*
X150036393Y-107060112D01*
X149908959Y-106839388D01*
X149750050Y-106640123D01*
X149563217Y-106466768D01*
X149352634Y-106323195D01*
X149352630Y-106323193D01*
X149352627Y-106323191D01*
X149352626Y-106323190D01*
X149123006Y-106212612D01*
X149123008Y-106212612D01*
X148879466Y-106137489D01*
X148879462Y-106137488D01*
X148879458Y-106137487D01*
X148758231Y-106119214D01*
X148627440Y-106099500D01*
X148627435Y-106099500D01*
X148372565Y-106099500D01*
X148372559Y-106099500D01*
X148215609Y-106123157D01*
X148120542Y-106137487D01*
X148120539Y-106137488D01*
X148120533Y-106137489D01*
X147876992Y-106212612D01*
X147647373Y-106323190D01*
X147647372Y-106323191D01*
X147436782Y-106466768D01*
X147249952Y-106640121D01*
X147249950Y-106640123D01*
X147091041Y-106839388D01*
X146963608Y-107060109D01*
X146870492Y-107297362D01*
X146870490Y-107297369D01*
X146813777Y-107545845D01*
X146794732Y-107799995D01*
X146794732Y-107800004D01*
X122156866Y-107800004D01*
X123089525Y-107161870D01*
X123107125Y-107151835D01*
X123152734Y-107130568D01*
X123339139Y-107000047D01*
X123370880Y-106968304D01*
X123376117Y-106963536D01*
X123376081Y-106963497D01*
X123378343Y-106961421D01*
X123378362Y-106961406D01*
X123423857Y-106915328D01*
X123424092Y-106915092D01*
X123500047Y-106839139D01*
X123630568Y-106652734D01*
X123726739Y-106446496D01*
X123785635Y-106226692D01*
X123805468Y-106000000D01*
X123785635Y-105773308D01*
X123738640Y-105597921D01*
X123726741Y-105553511D01*
X123726738Y-105553502D01*
X123676836Y-105446488D01*
X123630568Y-105347266D01*
X123500047Y-105160861D01*
X123500045Y-105160858D01*
X123339141Y-104999954D01*
X123152734Y-104869432D01*
X123152732Y-104869431D01*
X122946497Y-104773261D01*
X122946488Y-104773258D01*
X122859683Y-104749999D01*
X132641127Y-104749999D01*
X132641128Y-104750000D01*
X133604314Y-104750000D01*
X133599920Y-104754394D01*
X133547259Y-104845606D01*
X133520000Y-104947339D01*
X133520000Y-105052661D01*
X133547259Y-105154394D01*
X133599920Y-105245606D01*
X133604314Y-105250000D01*
X132641128Y-105250000D01*
X132693730Y-105446317D01*
X132693734Y-105446326D01*
X132789865Y-105652482D01*
X132920342Y-105838820D01*
X133081179Y-105999657D01*
X133267517Y-106130134D01*
X133473673Y-106226265D01*
X133473682Y-106226269D01*
X133669999Y-106278872D01*
X133670000Y-106278871D01*
X133670000Y-105315686D01*
X133674394Y-105320080D01*
X133765606Y-105372741D01*
X133867339Y-105400000D01*
X133972661Y-105400000D01*
X134074394Y-105372741D01*
X134165606Y-105320080D01*
X134170000Y-105315686D01*
X134170000Y-106278872D01*
X134366317Y-106226269D01*
X134366326Y-106226265D01*
X134572482Y-106130134D01*
X134758820Y-105999657D01*
X134919657Y-105838820D01*
X135050134Y-105652482D01*
X135146265Y-105446326D01*
X135146269Y-105446317D01*
X135198872Y-105250000D01*
X134235686Y-105250000D01*
X134240080Y-105245606D01*
X134292741Y-105154394D01*
X134320000Y-105052661D01*
X134320000Y-104947339D01*
X134292741Y-104845606D01*
X134240080Y-104754394D01*
X134235686Y-104750000D01*
X135198872Y-104750000D01*
X135198872Y-104749999D01*
X135146269Y-104553682D01*
X135146265Y-104553673D01*
X135050134Y-104347517D01*
X134919657Y-104161179D01*
X134758820Y-104000342D01*
X134572482Y-103869865D01*
X134366328Y-103773734D01*
X134170000Y-103721127D01*
X134170000Y-104684314D01*
X134165606Y-104679920D01*
X134074394Y-104627259D01*
X133972661Y-104600000D01*
X133867339Y-104600000D01*
X133765606Y-104627259D01*
X133674394Y-104679920D01*
X133670000Y-104684314D01*
X133670000Y-103721127D01*
X133473671Y-103773734D01*
X133267517Y-103869865D01*
X133081179Y-104000342D01*
X132920342Y-104161179D01*
X132789865Y-104347517D01*
X132693734Y-104553673D01*
X132693730Y-104553682D01*
X132641127Y-104749999D01*
X122859683Y-104749999D01*
X122726697Y-104714366D01*
X122726693Y-104714365D01*
X122726692Y-104714365D01*
X122726691Y-104714364D01*
X122726686Y-104714364D01*
X122500002Y-104694532D01*
X122499998Y-104694532D01*
X122273313Y-104714364D01*
X122273302Y-104714366D01*
X122053511Y-104773258D01*
X122053502Y-104773261D01*
X121847267Y-104869431D01*
X121847265Y-104869432D01*
X121660858Y-104999954D01*
X121499954Y-105160858D01*
X121369434Y-105347262D01*
X121348172Y-105392856D01*
X121338129Y-105410469D01*
X120615599Y-106466474D01*
X120600943Y-106484134D01*
X120294474Y-106790605D01*
X120290565Y-106794346D01*
X120031491Y-107031745D01*
X120023205Y-107038699D01*
X119746579Y-107250962D01*
X119737717Y-107257167D01*
X119443655Y-107444504D01*
X119434287Y-107449912D01*
X119125015Y-107610908D01*
X119115211Y-107615480D01*
X118793086Y-107748908D01*
X118782920Y-107752608D01*
X118450393Y-107857452D01*
X118439944Y-107860252D01*
X118099536Y-107935718D01*
X118088883Y-107937596D01*
X117743205Y-107983104D01*
X117732428Y-107984047D01*
X117381170Y-107999382D01*
X117375762Y-107999500D01*
X113917688Y-107999500D01*
X113910736Y-107999305D01*
X113650910Y-107984714D01*
X113637091Y-107983157D01*
X113383974Y-107940151D01*
X113370418Y-107937057D01*
X113123701Y-107865980D01*
X113110576Y-107861387D01*
X112873373Y-107763135D01*
X112860844Y-107757102D01*
X112636129Y-107632907D01*
X112624354Y-107625508D01*
X112414964Y-107476937D01*
X112404093Y-107468268D01*
X112210194Y-107294990D01*
X112205140Y-107290211D01*
X112071171Y-107156242D01*
X111775858Y-106908444D01*
X111460089Y-106687341D01*
X111460078Y-106687334D01*
X111460072Y-106687330D01*
X111295529Y-106592331D01*
X111126223Y-106494582D01*
X111126199Y-106494570D01*
X110776838Y-106331661D01*
X110776830Y-106331658D01*
X110414573Y-106199808D01*
X110042221Y-106100039D01*
X110042224Y-106100039D01*
X110042214Y-106100037D01*
X110042208Y-106100035D01*
X110042204Y-106100035D01*
X109662571Y-106033096D01*
X109278534Y-105999499D01*
X109278533Y-105999499D01*
X109085782Y-105999500D01*
X105241977Y-105999500D01*
X105241731Y-105999511D01*
X105156162Y-105999511D01*
X104778072Y-106032587D01*
X104778067Y-106032587D01*
X104404309Y-106098489D01*
X104404303Y-106098490D01*
X104404300Y-106098491D01*
X104398523Y-106100039D01*
X104037697Y-106196719D01*
X104037682Y-106196724D01*
X103681047Y-106326526D01*
X103681028Y-106326534D01*
X103337079Y-106486919D01*
X103337074Y-106486921D01*
X103008371Y-106676695D01*
X102697470Y-106894389D01*
X102518780Y-107044328D01*
X102505159Y-107054262D01*
X102495871Y-107060112D01*
X101413661Y-107741716D01*
X101413638Y-107741730D01*
X101413552Y-107741785D01*
X101411879Y-107742864D01*
X101397106Y-107751020D01*
X101322176Y-107785961D01*
X101322169Y-107785965D01*
X101128597Y-107921505D01*
X100961505Y-108088597D01*
X100825965Y-108282169D01*
X100825964Y-108282171D01*
X100726098Y-108496335D01*
X100726094Y-108496344D01*
X100664938Y-108724586D01*
X100664936Y-108724596D01*
X100644341Y-108959999D01*
X100644341Y-108960000D01*
X99500000Y-108960000D01*
X99500000Y-105000001D01*
X100694532Y-105000001D01*
X100714364Y-105226686D01*
X100714366Y-105226697D01*
X100773258Y-105446488D01*
X100773261Y-105446497D01*
X100869431Y-105652732D01*
X100869432Y-105652734D01*
X100999954Y-105839141D01*
X101160858Y-106000045D01*
X101160861Y-106000047D01*
X101347266Y-106130568D01*
X101553504Y-106226739D01*
X101773308Y-106285635D01*
X101935230Y-106299801D01*
X101999998Y-106305468D01*
X102000000Y-106305468D01*
X102000002Y-106305468D01*
X102056673Y-106300509D01*
X102226692Y-106285635D01*
X102446496Y-106226739D01*
X102652734Y-106130568D01*
X102839139Y-106000047D01*
X103000047Y-105839139D01*
X103062463Y-105749999D01*
X113721127Y-105749999D01*
X113721128Y-105750000D01*
X114684314Y-105750000D01*
X114679920Y-105754394D01*
X114627259Y-105845606D01*
X114600000Y-105947339D01*
X114600000Y-106052661D01*
X114627259Y-106154394D01*
X114679920Y-106245606D01*
X114684314Y-106250000D01*
X113721128Y-106250000D01*
X113773730Y-106446317D01*
X113773734Y-106446326D01*
X113869865Y-106652482D01*
X114000342Y-106838820D01*
X114161179Y-106999657D01*
X114347517Y-107130134D01*
X114553673Y-107226265D01*
X114553682Y-107226269D01*
X114749999Y-107278872D01*
X114750000Y-107278871D01*
X114750000Y-106315686D01*
X114754394Y-106320080D01*
X114845606Y-106372741D01*
X114947339Y-106400000D01*
X115052661Y-106400000D01*
X115154394Y-106372741D01*
X115245606Y-106320080D01*
X115250000Y-106315686D01*
X115250000Y-107278872D01*
X115446317Y-107226269D01*
X115446326Y-107226265D01*
X115652482Y-107130134D01*
X115838820Y-106999657D01*
X115999657Y-106838820D01*
X116130134Y-106652482D01*
X116226265Y-106446326D01*
X116226269Y-106446317D01*
X116278872Y-106250000D01*
X115315686Y-106250000D01*
X115320080Y-106245606D01*
X115372741Y-106154394D01*
X115400000Y-106052661D01*
X115400000Y-105947339D01*
X115372741Y-105845606D01*
X115320080Y-105754394D01*
X115315686Y-105750000D01*
X116278872Y-105750000D01*
X116278872Y-105749999D01*
X116226269Y-105553682D01*
X116226265Y-105553673D01*
X116130134Y-105347517D01*
X115999657Y-105161179D01*
X115838820Y-105000342D01*
X115652482Y-104869865D01*
X115446328Y-104773734D01*
X115250000Y-104721127D01*
X115250000Y-105684314D01*
X115245606Y-105679920D01*
X115154394Y-105627259D01*
X115052661Y-105600000D01*
X114947339Y-105600000D01*
X114845606Y-105627259D01*
X114754394Y-105679920D01*
X114750000Y-105684314D01*
X114750000Y-104721127D01*
X114553671Y-104773734D01*
X114347517Y-104869865D01*
X114161179Y-105000342D01*
X114000342Y-105161179D01*
X113869865Y-105347517D01*
X113773734Y-105553673D01*
X113773730Y-105553682D01*
X113721127Y-105749999D01*
X103062463Y-105749999D01*
X103130568Y-105652734D01*
X103161636Y-105586106D01*
X103170624Y-105570063D01*
X103694992Y-104778277D01*
X103729474Y-104743652D01*
X103773858Y-104713994D01*
X103787868Y-104705906D01*
X103956348Y-104622816D01*
X103971303Y-104616621D01*
X104149193Y-104556231D01*
X104164838Y-104552039D01*
X104346683Y-104515865D01*
X104349066Y-104515391D01*
X104365146Y-104513274D01*
X104555933Y-104500766D01*
X104564045Y-104500500D01*
X108653333Y-104500500D01*
X108694671Y-104500500D01*
X108694705Y-104500509D01*
X108746043Y-104500508D01*
X108746043Y-104500510D01*
X108976121Y-104500508D01*
X109435104Y-104467678D01*
X109890576Y-104402189D01*
X110340216Y-104304374D01*
X110781732Y-104174731D01*
X111212874Y-104013922D01*
X111528315Y-103869865D01*
X111631435Y-103822772D01*
X111631439Y-103822769D01*
X111631447Y-103822766D01*
X112035316Y-103602236D01*
X112422423Y-103353457D01*
X112633545Y-103195413D01*
X112790795Y-103077697D01*
X112790797Y-103077695D01*
X112926626Y-102959999D01*
X113138561Y-102776358D01*
X113301251Y-102613669D01*
X113366807Y-102548113D01*
X113366808Y-102548111D01*
X113373868Y-102541051D01*
X113373874Y-102541044D01*
X120984006Y-94930911D01*
X121045327Y-94897428D01*
X121115019Y-94902412D01*
X121170952Y-94944284D01*
X121195213Y-95007786D01*
X121214364Y-95226687D01*
X121214366Y-95226697D01*
X121273258Y-95446488D01*
X121273261Y-95446497D01*
X121369431Y-95652732D01*
X121369432Y-95652734D01*
X121499951Y-95839137D01*
X121499952Y-95839138D01*
X121499953Y-95839139D01*
X121587677Y-95926863D01*
X121593105Y-95932652D01*
X121615648Y-95958292D01*
X121615652Y-95958296D01*
X121635627Y-95975354D01*
X121642782Y-95981968D01*
X121660861Y-96000047D01*
X121660864Y-96000049D01*
X121676419Y-96010941D01*
X121685821Y-96018221D01*
X122791450Y-96962434D01*
X122808566Y-96976076D01*
X122815874Y-96981901D01*
X122826267Y-96991187D01*
X126181488Y-100346409D01*
X126210724Y-100375645D01*
X126210727Y-100375651D01*
X126247043Y-100411967D01*
X126247043Y-100411968D01*
X126307583Y-100472508D01*
X126361784Y-100526709D01*
X126610387Y-100735311D01*
X126876210Y-100921442D01*
X126876217Y-100921446D01*
X126876228Y-100921454D01*
X127157280Y-101083719D01*
X127157294Y-101083725D01*
X127157297Y-101083727D01*
X127451401Y-101220869D01*
X127451404Y-101220870D01*
X127451406Y-101220871D01*
X127756365Y-101331867D01*
X127756366Y-101331867D01*
X127756371Y-101331869D01*
X127854849Y-101358255D01*
X128069838Y-101415862D01*
X128247032Y-101447106D01*
X128309635Y-101478133D01*
X128345526Y-101538080D01*
X128349500Y-101569221D01*
X128349500Y-101797869D01*
X128349501Y-101797876D01*
X128355908Y-101857483D01*
X128406202Y-101992328D01*
X128406206Y-101992335D01*
X128492452Y-102107544D01*
X128492455Y-102107547D01*
X128607664Y-102193793D01*
X128607671Y-102193797D01*
X128742517Y-102244091D01*
X128742516Y-102244091D01*
X128749444Y-102244835D01*
X128802127Y-102250500D01*
X131397872Y-102250499D01*
X131457483Y-102244091D01*
X131592331Y-102193796D01*
X131707546Y-102107546D01*
X131793796Y-101992331D01*
X131844091Y-101857483D01*
X131850500Y-101797873D01*
X131850500Y-101624500D01*
X131870185Y-101557461D01*
X131922989Y-101511706D01*
X131974500Y-101500500D01*
X132205214Y-101500500D01*
X132205218Y-101500500D01*
X132402610Y-101465695D01*
X132590959Y-101397142D01*
X132764542Y-101296923D01*
X132918085Y-101168085D01*
X133046923Y-101014542D01*
X133147142Y-100840959D01*
X133202509Y-100688837D01*
X133231346Y-100643572D01*
X135592284Y-98282635D01*
X135606519Y-98270409D01*
X136563219Y-97567292D01*
X136569237Y-97563363D01*
X136652323Y-97505185D01*
X136747519Y-97438529D01*
X136772133Y-97413913D01*
X136782700Y-97404490D01*
X136787200Y-97400916D01*
X136787204Y-97400913D01*
X136788526Y-97399779D01*
X136788525Y-97399779D01*
X136788533Y-97399773D01*
X136852669Y-97333738D01*
X136852670Y-97333736D01*
X136857744Y-97328512D01*
X136857772Y-97328539D01*
X136859631Y-97326415D01*
X136898529Y-97287519D01*
X137021021Y-97112581D01*
X137111276Y-96919030D01*
X137111280Y-96919013D01*
X137113130Y-96913936D01*
X137115253Y-96914709D01*
X137146576Y-96863305D01*
X137209419Y-96832766D01*
X137278796Y-96841050D01*
X137332680Y-96885528D01*
X137345827Y-96914315D01*
X137346870Y-96913936D01*
X137348722Y-96919023D01*
X137348724Y-96919030D01*
X137378922Y-96983789D01*
X137438977Y-97112578D01*
X137561472Y-97287521D01*
X137712478Y-97438527D01*
X137712481Y-97438529D01*
X137887419Y-97561021D01*
X137887421Y-97561022D01*
X137887420Y-97561022D01*
X137951936Y-97591106D01*
X138080970Y-97651276D01*
X138287253Y-97706549D01*
X138439215Y-97719844D01*
X138499998Y-97725162D01*
X138500000Y-97725162D01*
X138500002Y-97725162D01*
X138553186Y-97720508D01*
X138712747Y-97706549D01*
X138919030Y-97651276D01*
X139112581Y-97561021D01*
X139287519Y-97438529D01*
X139438529Y-97287519D01*
X139561021Y-97112581D01*
X139644920Y-96932659D01*
X139691091Y-96880221D01*
X139758284Y-96861069D01*
X139825166Y-96881284D01*
X139870500Y-96934450D01*
X139879879Y-96966338D01*
X140038078Y-98001815D01*
X140039500Y-98020542D01*
X140039500Y-99913322D01*
X140039501Y-99913351D01*
X140039501Y-100031476D01*
X140071044Y-100472508D01*
X140133970Y-100910174D01*
X140227955Y-101342216D01*
X140227960Y-101342234D01*
X140352521Y-101766454D01*
X140352521Y-101766455D01*
X140507049Y-102180763D01*
X140507051Y-102180766D01*
X140690720Y-102582947D01*
X140690724Y-102582954D01*
X140829725Y-102837515D01*
X140902632Y-102971034D01*
X141003025Y-103127248D01*
X141141681Y-103343002D01*
X141141684Y-103343007D01*
X141406651Y-103696963D01*
X141556097Y-103869432D01*
X141696212Y-104031133D01*
X141696225Y-104031146D01*
X141696226Y-104031147D01*
X141782846Y-104117767D01*
X141782861Y-104117781D01*
X142180945Y-104515865D01*
X142195602Y-104533525D01*
X142409131Y-104845606D01*
X142904804Y-105570053D01*
X142918127Y-105589524D01*
X142928171Y-105607140D01*
X142949430Y-105652731D01*
X143079953Y-105839140D01*
X143111673Y-105870859D01*
X143116470Y-105876125D01*
X143116510Y-105876090D01*
X143118593Y-105878362D01*
X143164644Y-105923833D01*
X143165062Y-105924248D01*
X143240861Y-106000047D01*
X143427266Y-106130568D01*
X143633504Y-106226739D01*
X143853308Y-106285635D01*
X144015230Y-106299801D01*
X144079998Y-106305468D01*
X144080000Y-106305468D01*
X144080002Y-106305468D01*
X144136673Y-106300509D01*
X144306692Y-106285635D01*
X144526496Y-106226739D01*
X144732734Y-106130568D01*
X144919139Y-106000047D01*
X145080047Y-105839139D01*
X145210568Y-105652734D01*
X145306739Y-105446496D01*
X145365635Y-105226692D01*
X145385468Y-105000000D01*
X145365635Y-104773308D01*
X145306739Y-104553504D01*
X145210568Y-104347266D01*
X145080047Y-104160861D01*
X145080045Y-104160858D01*
X144919141Y-103999954D01*
X144732731Y-103869430D01*
X144732732Y-103869430D01*
X144687140Y-103848171D01*
X144669524Y-103838127D01*
X144659695Y-103831402D01*
X143730172Y-103195413D01*
X143613525Y-103115602D01*
X143595865Y-103100945D01*
X143454920Y-102960000D01*
X154644341Y-102960000D01*
X154664936Y-103195403D01*
X154664938Y-103195413D01*
X154726094Y-103423655D01*
X154726096Y-103423659D01*
X154726097Y-103423663D01*
X154809364Y-103602229D01*
X154825965Y-103637830D01*
X154825967Y-103637834D01*
X154867370Y-103696963D01*
X154961501Y-103831396D01*
X154961506Y-103831402D01*
X155083430Y-103953326D01*
X155116915Y-104014649D01*
X155111931Y-104084341D01*
X155070059Y-104140274D01*
X155039083Y-104157189D01*
X154907669Y-104206203D01*
X154907664Y-104206206D01*
X154792455Y-104292452D01*
X154792452Y-104292455D01*
X154706206Y-104407664D01*
X154706202Y-104407671D01*
X154655908Y-104542517D01*
X154649501Y-104602116D01*
X154649501Y-104602123D01*
X154649500Y-104602135D01*
X154649500Y-106397870D01*
X154649501Y-106397876D01*
X154655908Y-106457483D01*
X154706202Y-106592328D01*
X154706206Y-106592335D01*
X154792452Y-106707544D01*
X154792455Y-106707547D01*
X154907664Y-106793793D01*
X154907671Y-106793797D01*
X155042517Y-106844091D01*
X155042516Y-106844091D01*
X155049444Y-106844835D01*
X155102127Y-106850500D01*
X156897872Y-106850499D01*
X156957483Y-106844091D01*
X157092331Y-106793796D01*
X157207546Y-106707546D01*
X157293796Y-106592331D01*
X157344091Y-106457483D01*
X157350500Y-106397873D01*
X157350499Y-104602128D01*
X157344091Y-104542517D01*
X157340737Y-104533525D01*
X157293797Y-104407671D01*
X157293793Y-104407664D01*
X157207547Y-104292455D01*
X157207544Y-104292452D01*
X157092335Y-104206206D01*
X157092328Y-104206202D01*
X156960917Y-104157189D01*
X156904983Y-104115318D01*
X156880566Y-104049853D01*
X156895418Y-103981580D01*
X156916563Y-103953332D01*
X157038495Y-103831401D01*
X157174035Y-103637830D01*
X157273903Y-103423663D01*
X157335063Y-103195408D01*
X157355659Y-102960000D01*
X157335063Y-102724592D01*
X157274739Y-102499457D01*
X157273905Y-102496344D01*
X157273904Y-102496343D01*
X157273903Y-102496337D01*
X157174035Y-102282171D01*
X157151859Y-102250499D01*
X157038494Y-102088597D01*
X156871402Y-101921506D01*
X156871395Y-101921501D01*
X156854267Y-101909508D01*
X156801318Y-101872432D01*
X156677834Y-101785967D01*
X156677830Y-101785965D01*
X156677828Y-101785964D01*
X156463663Y-101686097D01*
X156463659Y-101686096D01*
X156463655Y-101686094D01*
X156235413Y-101624938D01*
X156235403Y-101624936D01*
X156000001Y-101604341D01*
X155999999Y-101604341D01*
X155764596Y-101624936D01*
X155764586Y-101624938D01*
X155536344Y-101686094D01*
X155536335Y-101686098D01*
X155322171Y-101785964D01*
X155322169Y-101785965D01*
X155128597Y-101921505D01*
X154961505Y-102088597D01*
X154825965Y-102282169D01*
X154825964Y-102282171D01*
X154726098Y-102496335D01*
X154726094Y-102496344D01*
X154664938Y-102724586D01*
X154664936Y-102724596D01*
X154644341Y-102959999D01*
X154644341Y-102960000D01*
X143454920Y-102960000D01*
X143269371Y-102774451D01*
X143265630Y-102770543D01*
X143024224Y-102507094D01*
X143017270Y-102498807D01*
X142801389Y-102217465D01*
X142795184Y-102208604D01*
X142604639Y-101909508D01*
X142599231Y-101900140D01*
X142545992Y-101797869D01*
X142435485Y-101585587D01*
X142430916Y-101575789D01*
X142295201Y-101248143D01*
X142291512Y-101238008D01*
X142184862Y-100899760D01*
X142182073Y-100889348D01*
X142105310Y-100543090D01*
X142103438Y-100532471D01*
X142057146Y-100180847D01*
X142056206Y-100170114D01*
X142044996Y-99913322D01*
X142040618Y-99813042D01*
X142040500Y-99807634D01*
X142040500Y-98020543D01*
X142041922Y-98001816D01*
X142127979Y-97438527D01*
X142227632Y-96786245D01*
X142230435Y-96772883D01*
X142246549Y-96712747D01*
X142256500Y-96598993D01*
X142257453Y-96591057D01*
X142257647Y-96589791D01*
X142261971Y-96552020D01*
X142262105Y-96550269D01*
X142262004Y-96543450D01*
X142262462Y-96530851D01*
X142265162Y-96500000D01*
X142257087Y-96407705D01*
X142256999Y-96406686D01*
X142256999Y-96406678D01*
X142256997Y-96406669D01*
X142256558Y-96401584D01*
X142256536Y-96401409D01*
X142251088Y-96339139D01*
X142246549Y-96287253D01*
X142226781Y-96213480D01*
X142224119Y-96200994D01*
X142112061Y-95500001D01*
X145194532Y-95500001D01*
X145214364Y-95726686D01*
X145214366Y-95726697D01*
X145273258Y-95946488D01*
X145273261Y-95946497D01*
X145369431Y-96152732D01*
X145369432Y-96152734D01*
X145499954Y-96339141D01*
X145660858Y-96500045D01*
X145660861Y-96500047D01*
X145847266Y-96630568D01*
X146053504Y-96726739D01*
X146273308Y-96785635D01*
X146435230Y-96799801D01*
X146499998Y-96805468D01*
X146500000Y-96805468D01*
X146500002Y-96805468D01*
X146556673Y-96800509D01*
X146726692Y-96785635D01*
X146946496Y-96726739D01*
X147152734Y-96630568D01*
X147339139Y-96500047D01*
X147500047Y-96339139D01*
X147630568Y-96152734D01*
X147726739Y-95946496D01*
X147785635Y-95726692D01*
X147805468Y-95500001D01*
X152694532Y-95500001D01*
X152714364Y-95726686D01*
X152714366Y-95726697D01*
X152773258Y-95946488D01*
X152773261Y-95946497D01*
X152869431Y-96152732D01*
X152869432Y-96152734D01*
X152999954Y-96339141D01*
X153160858Y-96500045D01*
X153160861Y-96500047D01*
X153347266Y-96630568D01*
X153553504Y-96726739D01*
X153773308Y-96785635D01*
X153935230Y-96799801D01*
X153999998Y-96805468D01*
X154000000Y-96805468D01*
X154000002Y-96805468D01*
X154056673Y-96800509D01*
X154226692Y-96785635D01*
X154446496Y-96726739D01*
X154652734Y-96630568D01*
X154839139Y-96500047D01*
X155000047Y-96339139D01*
X155130568Y-96152734D01*
X155226739Y-95946496D01*
X155285635Y-95726692D01*
X155305468Y-95500000D01*
X155285635Y-95273308D01*
X155226739Y-95053504D01*
X155130568Y-94847266D01*
X155000047Y-94660861D01*
X155000045Y-94660858D01*
X154839141Y-94499954D01*
X154652734Y-94369432D01*
X154652732Y-94369431D01*
X154446497Y-94273261D01*
X154446488Y-94273258D01*
X154226697Y-94214366D01*
X154226693Y-94214365D01*
X154226692Y-94214365D01*
X154226691Y-94214364D01*
X154226686Y-94214364D01*
X154000002Y-94194532D01*
X153999998Y-94194532D01*
X153773313Y-94214364D01*
X153773302Y-94214366D01*
X153553511Y-94273258D01*
X153553502Y-94273261D01*
X153347267Y-94369431D01*
X153347265Y-94369432D01*
X153160858Y-94499954D01*
X152999954Y-94660858D01*
X152869432Y-94847265D01*
X152869431Y-94847267D01*
X152773261Y-95053502D01*
X152773258Y-95053511D01*
X152714366Y-95273302D01*
X152714364Y-95273313D01*
X152694532Y-95499998D01*
X152694532Y-95500001D01*
X147805468Y-95500001D01*
X147805468Y-95500000D01*
X147785635Y-95273308D01*
X147726739Y-95053504D01*
X147630568Y-94847266D01*
X147500047Y-94660861D01*
X147500045Y-94660858D01*
X147339141Y-94499954D01*
X147152734Y-94369432D01*
X147152732Y-94369431D01*
X146946497Y-94273261D01*
X146946488Y-94273258D01*
X146726697Y-94214366D01*
X146726693Y-94214365D01*
X146726692Y-94214365D01*
X146726691Y-94214364D01*
X146726686Y-94214364D01*
X146500002Y-94194532D01*
X146499998Y-94194532D01*
X146273313Y-94214364D01*
X146273302Y-94214366D01*
X146053511Y-94273258D01*
X146053502Y-94273261D01*
X145847267Y-94369431D01*
X145847265Y-94369432D01*
X145660858Y-94499954D01*
X145499954Y-94660858D01*
X145369432Y-94847265D01*
X145369431Y-94847267D01*
X145273261Y-95053502D01*
X145273258Y-95053511D01*
X145214366Y-95273302D01*
X145214364Y-95273313D01*
X145194532Y-95499998D01*
X145194532Y-95500001D01*
X142112061Y-95500001D01*
X142042793Y-95066686D01*
X142042055Y-95062069D01*
X142040500Y-95042495D01*
X142040500Y-95024318D01*
X142040482Y-95023963D01*
X142040484Y-94950657D01*
X142005535Y-94595766D01*
X141935969Y-94246009D01*
X141926370Y-94214365D01*
X141901233Y-94131497D01*
X141832455Y-93904756D01*
X141695990Y-93575292D01*
X141527888Y-93260791D01*
X141527886Y-93260788D01*
X141527878Y-93260775D01*
X141329771Y-92964284D01*
X141329767Y-92964279D01*
X141119003Y-92707462D01*
X141103540Y-92688620D01*
X141103539Y-92688619D01*
X141103535Y-92688614D01*
X141051480Y-92636560D01*
X141051471Y-92636550D01*
X141014860Y-92599939D01*
X140947020Y-92532099D01*
X140914569Y-92499648D01*
X140897128Y-92482207D01*
X140897125Y-92482205D01*
X140840903Y-92425982D01*
X140840834Y-92425919D01*
X140795950Y-92381034D01*
X140705371Y-92306697D01*
X140536595Y-92168185D01*
X140257631Y-91981786D01*
X140257626Y-91981783D01*
X140257619Y-91981779D01*
X139961746Y-91823631D01*
X139961741Y-91823629D01*
X139651775Y-91695235D01*
X139330703Y-91597839D01*
X139001653Y-91532387D01*
X139001636Y-91532384D01*
X138749146Y-91507516D01*
X138667754Y-91499500D01*
X138667751Y-91499500D01*
X138213194Y-91499500D01*
X138201040Y-91498903D01*
X138081405Y-91487120D01*
X138057564Y-91482378D01*
X137948381Y-91449258D01*
X137925925Y-91439956D01*
X137825306Y-91386174D01*
X137805096Y-91372670D01*
X137716910Y-91300299D01*
X137699720Y-91283109D01*
X137627332Y-91194902D01*
X137613828Y-91174692D01*
X137560044Y-91074069D01*
X137550744Y-91051617D01*
X137541092Y-91019798D01*
X137517622Y-90942425D01*
X137512883Y-90918599D01*
X137501097Y-90798924D01*
X137500500Y-90786771D01*
X137500500Y-89193277D01*
X137509307Y-89149002D01*
X137509273Y-89148992D01*
X137509379Y-89148639D01*
X137509940Y-89145822D01*
X137511042Y-89143163D01*
X137511044Y-89143150D01*
X137512810Y-89137333D01*
X137514124Y-89137731D01*
X137541224Y-89084404D01*
X137574851Y-89047876D01*
X137574857Y-89047870D01*
X138499500Y-89047870D01*
X138499501Y-89047876D01*
X138505908Y-89107483D01*
X138556202Y-89242328D01*
X138556206Y-89242335D01*
X138642452Y-89357544D01*
X138642455Y-89357547D01*
X138757664Y-89443793D01*
X138757671Y-89443797D01*
X138892517Y-89494091D01*
X138892516Y-89494091D01*
X138899444Y-89494835D01*
X138952127Y-89500500D01*
X141047872Y-89500499D01*
X141107483Y-89494091D01*
X141242331Y-89443796D01*
X141357546Y-89357546D01*
X141443796Y-89242331D01*
X141494091Y-89107483D01*
X141494091Y-89107481D01*
X141495874Y-89099938D01*
X141498146Y-89100474D01*
X141520429Y-89046688D01*
X141577823Y-89006843D01*
X141616976Y-89000500D01*
X145861459Y-89000500D01*
X146073696Y-89000500D01*
X146129150Y-89013591D01*
X146998695Y-89448363D01*
X147108504Y-89488180D01*
X147108508Y-89488181D01*
X147110778Y-89489004D01*
X147114727Y-89490327D01*
X147124817Y-89494091D01*
X147184427Y-89500500D01*
X149280172Y-89500499D01*
X149339783Y-89494091D01*
X149474631Y-89443796D01*
X149589846Y-89357546D01*
X149676096Y-89242331D01*
X149726391Y-89107483D01*
X149732800Y-89047873D01*
X149732800Y-88000005D01*
X150527159Y-88000005D01*
X150547685Y-88247729D01*
X150547687Y-88247738D01*
X150608712Y-88488717D01*
X150708566Y-88716364D01*
X150808864Y-88869882D01*
X151549337Y-88129409D01*
X151566375Y-88192993D01*
X151632201Y-88307007D01*
X151725293Y-88400099D01*
X151839307Y-88465925D01*
X151902890Y-88482962D01*
X151162242Y-89223609D01*
X151209068Y-89260055D01*
X151209070Y-89260056D01*
X151427685Y-89378364D01*
X151427696Y-89378369D01*
X151662806Y-89459083D01*
X151908007Y-89500000D01*
X152156593Y-89500000D01*
X152401793Y-89459083D01*
X152636903Y-89378369D01*
X152636914Y-89378364D01*
X152855528Y-89260057D01*
X152855531Y-89260055D01*
X152902356Y-89223609D01*
X152161709Y-88482962D01*
X152225293Y-88465925D01*
X152339307Y-88400099D01*
X152432399Y-88307007D01*
X152498225Y-88192993D01*
X152515262Y-88129410D01*
X153255734Y-88869882D01*
X153356031Y-88716369D01*
X153455887Y-88488717D01*
X153516912Y-88247738D01*
X153516914Y-88247729D01*
X153537441Y-88000005D01*
X153537441Y-87999994D01*
X153516914Y-87752270D01*
X153516912Y-87752261D01*
X153455887Y-87511282D01*
X153356031Y-87283630D01*
X153255734Y-87130116D01*
X152515262Y-87870589D01*
X152498225Y-87807007D01*
X152432399Y-87692993D01*
X152339307Y-87599901D01*
X152225293Y-87534075D01*
X152161710Y-87517037D01*
X152902357Y-86776390D01*
X152902356Y-86776389D01*
X152855529Y-86739943D01*
X152636914Y-86621635D01*
X152636903Y-86621630D01*
X152401793Y-86540916D01*
X152156593Y-86500000D01*
X151908007Y-86500000D01*
X151662806Y-86540916D01*
X151427696Y-86621630D01*
X151427690Y-86621632D01*
X151209061Y-86739949D01*
X151162242Y-86776388D01*
X151162242Y-86776390D01*
X151902890Y-87517037D01*
X151839307Y-87534075D01*
X151725293Y-87599901D01*
X151632201Y-87692993D01*
X151566375Y-87807007D01*
X151549337Y-87870589D01*
X150808864Y-87130116D01*
X150708567Y-87283632D01*
X150608712Y-87511282D01*
X150547687Y-87752261D01*
X150547685Y-87752270D01*
X150527159Y-87999994D01*
X150527159Y-88000005D01*
X149732800Y-88000005D01*
X149732799Y-86952128D01*
X149726391Y-86892517D01*
X149683078Y-86776390D01*
X149676097Y-86757671D01*
X149676093Y-86757664D01*
X149589847Y-86642455D01*
X149589844Y-86642452D01*
X149474635Y-86556206D01*
X149474628Y-86556202D01*
X149339782Y-86505908D01*
X149339783Y-86505908D01*
X149280183Y-86499501D01*
X149280181Y-86499500D01*
X149280173Y-86499500D01*
X149280165Y-86499500D01*
X147210649Y-86499500D01*
X147201753Y-86499180D01*
X147200667Y-86499102D01*
X147197896Y-86498902D01*
X147193829Y-86499191D01*
X147185104Y-86499500D01*
X147184428Y-86499501D01*
X147124812Y-86505909D01*
X147117269Y-86507692D01*
X147116769Y-86505578D01*
X147058119Y-86509762D01*
X146996802Y-86476266D01*
X146963329Y-86414936D01*
X146960500Y-86388601D01*
X146960500Y-77582066D01*
X146980185Y-77515027D01*
X146980486Y-77514559D01*
X147202506Y-77173600D01*
X147228469Y-77133729D01*
X147229180Y-77132634D01*
X147229190Y-77132619D01*
X147232576Y-77125266D01*
X147245939Y-77102824D01*
X147253796Y-77092331D01*
X147253796Y-77092328D01*
X147253798Y-77092327D01*
X147262812Y-77068155D01*
X147277923Y-77027640D01*
X147281466Y-77019126D01*
X147289385Y-77001936D01*
X147291280Y-76995559D01*
X147291967Y-76992672D01*
X147296405Y-76978088D01*
X147302811Y-76960915D01*
X147344676Y-76904986D01*
X147410139Y-76880565D01*
X147478412Y-76895414D01*
X147506672Y-76916568D01*
X147628599Y-77038495D01*
X147705479Y-77092327D01*
X147822165Y-77174032D01*
X147822167Y-77174033D01*
X147822170Y-77174035D01*
X148036337Y-77273903D01*
X148264592Y-77335063D01*
X148452918Y-77351539D01*
X148499999Y-77355659D01*
X148500000Y-77355659D01*
X148500001Y-77355659D01*
X148539234Y-77352226D01*
X148735408Y-77335063D01*
X148963663Y-77273903D01*
X149177830Y-77174035D01*
X149371401Y-77038495D01*
X149538495Y-76871401D01*
X149674035Y-76677830D01*
X149773903Y-76463663D01*
X149835063Y-76235408D01*
X149855659Y-76000000D01*
X149835063Y-75764592D01*
X149773903Y-75536337D01*
X149674035Y-75322171D01*
X149668731Y-75314595D01*
X149538494Y-75128597D01*
X149371402Y-74961506D01*
X149371395Y-74961501D01*
X149177834Y-74825967D01*
X149177830Y-74825965D01*
X149177828Y-74825964D01*
X148963663Y-74726097D01*
X148963659Y-74726096D01*
X148963655Y-74726094D01*
X148735413Y-74664938D01*
X148735403Y-74664936D01*
X148500001Y-74644341D01*
X148499999Y-74644341D01*
X148264596Y-74664936D01*
X148264586Y-74664938D01*
X148036344Y-74726094D01*
X148036335Y-74726098D01*
X147822171Y-74825964D01*
X147822169Y-74825965D01*
X147628600Y-74961503D01*
X147506673Y-75083430D01*
X147445350Y-75116914D01*
X147375658Y-75111930D01*
X147319725Y-75070058D01*
X147302810Y-75039081D01*
X147253797Y-74907671D01*
X147253793Y-74907664D01*
X147167547Y-74792455D01*
X147167544Y-74792452D01*
X147052335Y-74706206D01*
X147052328Y-74706202D01*
X146917482Y-74655908D01*
X146917483Y-74655908D01*
X146857883Y-74649501D01*
X146857881Y-74649500D01*
X146857873Y-74649500D01*
X146857864Y-74649500D01*
X145062129Y-74649500D01*
X145062123Y-74649501D01*
X145002516Y-74655908D01*
X144867671Y-74706202D01*
X144867664Y-74706206D01*
X144752455Y-74792452D01*
X144752452Y-74792455D01*
X144666206Y-74907664D01*
X144666202Y-74907671D01*
X144615908Y-75042517D01*
X144609501Y-75102116D01*
X144609501Y-75102123D01*
X144609500Y-75102135D01*
X144609500Y-76897870D01*
X144609501Y-76897876D01*
X144615908Y-76957483D01*
X144624756Y-76981204D01*
X144629077Y-76995297D01*
X144630688Y-77001936D01*
X144631010Y-77003262D01*
X144634165Y-77010062D01*
X144639051Y-77020595D01*
X144642747Y-77029443D01*
X144650294Y-77049676D01*
X144666204Y-77092331D01*
X144673850Y-77102545D01*
X144674559Y-77103492D01*
X144687774Y-77125614D01*
X144691560Y-77133776D01*
X144939412Y-77514405D01*
X144959498Y-77581325D01*
X144959500Y-77582068D01*
X144959500Y-86875500D01*
X144939815Y-86942539D01*
X144887011Y-86988294D01*
X144835500Y-86999500D01*
X141616977Y-86999500D01*
X141549938Y-86979815D01*
X141504183Y-86927011D01*
X141496733Y-86899865D01*
X141495876Y-86900068D01*
X141494092Y-86892520D01*
X141493995Y-86892261D01*
X141478055Y-86849522D01*
X141443797Y-86757671D01*
X141443793Y-86757664D01*
X141357547Y-86642455D01*
X141357544Y-86642452D01*
X141242335Y-86556206D01*
X141242328Y-86556202D01*
X141107482Y-86505908D01*
X141107483Y-86505908D01*
X141047883Y-86499501D01*
X141047881Y-86499500D01*
X141047873Y-86499500D01*
X141047864Y-86499500D01*
X138952129Y-86499500D01*
X138952123Y-86499501D01*
X138892516Y-86505908D01*
X138757671Y-86556202D01*
X138757664Y-86556206D01*
X138642455Y-86642452D01*
X138642452Y-86642455D01*
X138556206Y-86757664D01*
X138556202Y-86757671D01*
X138505908Y-86892517D01*
X138502200Y-86927011D01*
X138499501Y-86952123D01*
X138499500Y-86952135D01*
X138499500Y-89047870D01*
X137574857Y-89047870D01*
X137688164Y-88924785D01*
X137824173Y-88716607D01*
X137924063Y-88488881D01*
X137985108Y-88247821D01*
X137988894Y-88202129D01*
X138005643Y-88000005D01*
X138005643Y-87999994D01*
X137985109Y-87752187D01*
X137985107Y-87752175D01*
X137924063Y-87511118D01*
X137824173Y-87283393D01*
X137688166Y-87075217D01*
X137618463Y-86999500D01*
X137519744Y-86892262D01*
X137323509Y-86739526D01*
X137323507Y-86739525D01*
X137323506Y-86739524D01*
X137104811Y-86621172D01*
X137104802Y-86621169D01*
X136869616Y-86540429D01*
X136624335Y-86499500D01*
X136375665Y-86499500D01*
X136130383Y-86540429D01*
X135895197Y-86621169D01*
X135895188Y-86621172D01*
X135676493Y-86739524D01*
X135480257Y-86892261D01*
X135480256Y-86892262D01*
X135473257Y-86899865D01*
X135311833Y-87075217D01*
X135175826Y-87283393D01*
X135075936Y-87511118D01*
X135014892Y-87752175D01*
X135014890Y-87752187D01*
X134994357Y-87999994D01*
X134994357Y-88000005D01*
X135014890Y-88247812D01*
X135014892Y-88247824D01*
X135075936Y-88488881D01*
X135175826Y-88716606D01*
X135311833Y-88924782D01*
X135311836Y-88924785D01*
X135466730Y-89093045D01*
X135497652Y-89155698D01*
X135499500Y-89177027D01*
X135499500Y-90897527D01*
X135499503Y-90897588D01*
X135499503Y-90944951D01*
X135533548Y-91247130D01*
X135533551Y-91247147D01*
X135601220Y-91543627D01*
X135601222Y-91543633D01*
X135701663Y-91830682D01*
X135701665Y-91830686D01*
X135833608Y-92104670D01*
X135833612Y-92104676D01*
X135995409Y-92362175D01*
X136136865Y-92539555D01*
X136185019Y-92599939D01*
X136256219Y-92671139D01*
X136256223Y-92671147D01*
X136292538Y-92707462D01*
X136400058Y-92814982D01*
X136637823Y-93004593D01*
X136804141Y-93109097D01*
X136895327Y-93166393D01*
X137169306Y-93298334D01*
X137169313Y-93298336D01*
X137169318Y-93298339D01*
X137337848Y-93357310D01*
X137456353Y-93398777D01*
X137456365Y-93398781D01*
X137752853Y-93466451D01*
X137752861Y-93466451D01*
X137752868Y-93466453D01*
X137932547Y-93486697D01*
X138055047Y-93500499D01*
X138055050Y-93500500D01*
X138055053Y-93500500D01*
X138108565Y-93500500D01*
X138407290Y-93500500D01*
X138495948Y-93500500D01*
X138504027Y-93500764D01*
X138676435Y-93512064D01*
X138692491Y-93514179D01*
X138857930Y-93547086D01*
X138873580Y-93551280D01*
X139033307Y-93605499D01*
X139048285Y-93611704D01*
X139199565Y-93686308D01*
X139213609Y-93694416D01*
X139353855Y-93788126D01*
X139366719Y-93797997D01*
X139496640Y-93911936D01*
X139502562Y-93917483D01*
X139559658Y-93974579D01*
X139565205Y-93980501D01*
X139697625Y-94131497D01*
X139707496Y-94144361D01*
X139754271Y-94214364D01*
X139816807Y-94307957D01*
X139824916Y-94322004D01*
X139911938Y-94498469D01*
X139918144Y-94513450D01*
X139946086Y-94595766D01*
X139981387Y-94699764D01*
X139985585Y-94715431D01*
X140023967Y-94908404D01*
X140026084Y-94924486D01*
X140035498Y-95068150D01*
X140034184Y-95095981D01*
X139882123Y-96039805D01*
X139852026Y-96102860D01*
X139792617Y-96139634D01*
X139722757Y-96138450D01*
X139664627Y-96099686D01*
X139647320Y-96072487D01*
X139613541Y-96000049D01*
X139561021Y-95887419D01*
X139438529Y-95712481D01*
X139438527Y-95712478D01*
X139287521Y-95561472D01*
X139112578Y-95438977D01*
X139112579Y-95438977D01*
X138983547Y-95378809D01*
X138919030Y-95348724D01*
X138919026Y-95348723D01*
X138919022Y-95348721D01*
X138712752Y-95293452D01*
X138712748Y-95293451D01*
X138712747Y-95293451D01*
X138712746Y-95293450D01*
X138712741Y-95293450D01*
X138500002Y-95274838D01*
X138499998Y-95274838D01*
X138287258Y-95293450D01*
X138287247Y-95293452D01*
X138080977Y-95348721D01*
X138080968Y-95348725D01*
X137887421Y-95438977D01*
X137712478Y-95561472D01*
X137561472Y-95712478D01*
X137438977Y-95887421D01*
X137348725Y-96080968D01*
X137346870Y-96086064D01*
X137344749Y-96085292D01*
X137313406Y-96136710D01*
X137250558Y-96167237D01*
X137181183Y-96158939D01*
X137127307Y-96114452D01*
X137114169Y-96085685D01*
X137113130Y-96086064D01*
X137111279Y-96080983D01*
X137111276Y-96080970D01*
X137021021Y-95887419D01*
X136898529Y-95712481D01*
X136898527Y-95712478D01*
X136747521Y-95561472D01*
X136572578Y-95438977D01*
X136572579Y-95438977D01*
X136443547Y-95378809D01*
X136379030Y-95348724D01*
X136379026Y-95348723D01*
X136379022Y-95348721D01*
X136172752Y-95293452D01*
X136172748Y-95293451D01*
X136172747Y-95293451D01*
X136172746Y-95293450D01*
X136172741Y-95293450D01*
X135960002Y-95274838D01*
X135959998Y-95274838D01*
X135747258Y-95293450D01*
X135747247Y-95293452D01*
X135540977Y-95348721D01*
X135540968Y-95348725D01*
X135347421Y-95438977D01*
X135172478Y-95561472D01*
X135021472Y-95712478D01*
X134896638Y-95890761D01*
X134892715Y-95896765D01*
X134189589Y-96853478D01*
X134177352Y-96867726D01*
X131996410Y-99048667D01*
X131935087Y-99082152D01*
X131865395Y-99077168D01*
X131809462Y-99035296D01*
X131798493Y-99015210D01*
X131798047Y-99015454D01*
X131793793Y-99007664D01*
X131707547Y-98892455D01*
X131707544Y-98892452D01*
X131592335Y-98806206D01*
X131592328Y-98806202D01*
X131457482Y-98755908D01*
X131457483Y-98755908D01*
X131397883Y-98749501D01*
X131397881Y-98749500D01*
X131397873Y-98749500D01*
X131397864Y-98749500D01*
X128802129Y-98749500D01*
X128802123Y-98749501D01*
X128742516Y-98755908D01*
X128607671Y-98806202D01*
X128607664Y-98806206D01*
X128492455Y-98892452D01*
X128492452Y-98892455D01*
X128406206Y-99007664D01*
X128406202Y-99007671D01*
X128355908Y-99142517D01*
X128349501Y-99202116D01*
X128349500Y-99202135D01*
X128349500Y-99234106D01*
X128329815Y-99301145D01*
X128277011Y-99346900D01*
X128207853Y-99356844D01*
X128170656Y-99345318D01*
X128024541Y-99273262D01*
X128010494Y-99265152D01*
X127837429Y-99149514D01*
X127824561Y-99139640D01*
X127810794Y-99127567D01*
X127665041Y-98999745D01*
X127659119Y-98994198D01*
X124271297Y-95606377D01*
X124248219Y-95574447D01*
X123695521Y-94476294D01*
X123678586Y-94445379D01*
X123678585Y-94445378D01*
X123676430Y-94442160D01*
X123667088Y-94425584D01*
X123630568Y-94347266D01*
X123523624Y-94194532D01*
X123500045Y-94160858D01*
X123339141Y-93999954D01*
X123152734Y-93869432D01*
X123152732Y-93869431D01*
X122946497Y-93773261D01*
X122946488Y-93773258D01*
X122726697Y-93714366D01*
X122726687Y-93714364D01*
X122507786Y-93695213D01*
X122442718Y-93669760D01*
X122401739Y-93613170D01*
X122397861Y-93543408D01*
X122430911Y-93484006D01*
X126164918Y-89750000D01*
X128163828Y-89750000D01*
X128164694Y-89761551D01*
X128164695Y-89761558D01*
X128223058Y-90017270D01*
X128318883Y-90261426D01*
X128318882Y-90261426D01*
X128450028Y-90488573D01*
X128613562Y-90693639D01*
X128613570Y-90693648D01*
X128805830Y-90872040D01*
X128805832Y-90872041D01*
X129022546Y-91019793D01*
X129022550Y-91019795D01*
X129258854Y-91133594D01*
X129258858Y-91133595D01*
X129509494Y-91210907D01*
X129509502Y-91210909D01*
X129650000Y-91232085D01*
X129650000Y-90208240D01*
X129681233Y-90221178D01*
X129826131Y-90250000D01*
X129973869Y-90250000D01*
X130118767Y-90221178D01*
X130150000Y-90208240D01*
X130150000Y-91232084D01*
X130290497Y-91210909D01*
X130290505Y-91210907D01*
X130541143Y-91133595D01*
X130777445Y-91019798D01*
X130777454Y-91019793D01*
X130994167Y-90872041D01*
X130994169Y-90872040D01*
X131186429Y-90693648D01*
X131186437Y-90693639D01*
X131349971Y-90488573D01*
X131481116Y-90261426D01*
X131576941Y-90017270D01*
X131635304Y-89761558D01*
X131635305Y-89761551D01*
X131636172Y-89750000D01*
X130608241Y-89750000D01*
X130621178Y-89718767D01*
X130650000Y-89573869D01*
X130650000Y-89426131D01*
X130621178Y-89281233D01*
X130608241Y-89250000D01*
X131636171Y-89250000D01*
X131635305Y-89238448D01*
X131635304Y-89238441D01*
X131576941Y-88982729D01*
X131481116Y-88738573D01*
X131481117Y-88738573D01*
X131349971Y-88511426D01*
X131186437Y-88306360D01*
X131186429Y-88306351D01*
X130994169Y-88127959D01*
X130994167Y-88127958D01*
X130777454Y-87980206D01*
X130777445Y-87980201D01*
X130541142Y-87866404D01*
X130541144Y-87866404D01*
X130290512Y-87789094D01*
X130290506Y-87789093D01*
X130150000Y-87767914D01*
X130150000Y-88791759D01*
X130118767Y-88778822D01*
X129973869Y-88750000D01*
X129826131Y-88750000D01*
X129681233Y-88778822D01*
X129650000Y-88791759D01*
X129650000Y-87767914D01*
X129509493Y-87789093D01*
X129509487Y-87789094D01*
X129258858Y-87866404D01*
X129258854Y-87866405D01*
X129022550Y-87980204D01*
X129022546Y-87980206D01*
X128805832Y-88127958D01*
X128805830Y-88127959D01*
X128613570Y-88306351D01*
X128613562Y-88306360D01*
X128450028Y-88511426D01*
X128318883Y-88738573D01*
X128223058Y-88982729D01*
X128164695Y-89238441D01*
X128164694Y-89238448D01*
X128163828Y-89250000D01*
X129191759Y-89250000D01*
X129178822Y-89281233D01*
X129150000Y-89426131D01*
X129150000Y-89573869D01*
X129178822Y-89718767D01*
X129191759Y-89750000D01*
X128163828Y-89750000D01*
X126164918Y-89750000D01*
X134568954Y-81345965D01*
X134614565Y-81300354D01*
X134618428Y-81296655D01*
X134897513Y-81040922D01*
X134905796Y-81033973D01*
X134960400Y-80992074D01*
X135203917Y-80805217D01*
X135212757Y-80799027D01*
X135529709Y-80597107D01*
X135539054Y-80591712D01*
X135872384Y-80418192D01*
X135882158Y-80413634D01*
X136229359Y-80269819D01*
X136239491Y-80266132D01*
X136597889Y-80153130D01*
X136608318Y-80150335D01*
X136975213Y-80068996D01*
X136985843Y-80067122D01*
X137358423Y-80018072D01*
X137369154Y-80017132D01*
X137747420Y-80000617D01*
X137752812Y-80000500D01*
X137842710Y-80000500D01*
X139548060Y-80000500D01*
X139548170Y-80000504D01*
X139553783Y-80000503D01*
X139553790Y-80000505D01*
X139595116Y-80000502D01*
X139595182Y-80000521D01*
X139646500Y-80000518D01*
X139646500Y-80000519D01*
X139768017Y-80000513D01*
X140008970Y-79968780D01*
X140243721Y-79905869D01*
X140468253Y-79812858D01*
X140678724Y-79691337D01*
X140871535Y-79543386D01*
X140957460Y-79457460D01*
X141023016Y-79391904D01*
X141023020Y-79391897D01*
X141027089Y-79387829D01*
X141027341Y-79387551D01*
X141043372Y-79371522D01*
X141191321Y-79178714D01*
X141312841Y-78968244D01*
X141405851Y-78743715D01*
X141468761Y-78508967D01*
X141500494Y-78268016D01*
X141500494Y-78251397D01*
X141500500Y-78251309D01*
X141500500Y-78141835D01*
X141500505Y-78053790D01*
X141500503Y-78053783D01*
X141500504Y-78048170D01*
X141500500Y-78048060D01*
X141500500Y-77836673D01*
X141509840Y-77789460D01*
X141525488Y-77751459D01*
X141763252Y-77174032D01*
X141814455Y-77049681D01*
X141814458Y-77049674D01*
X141833450Y-76986733D01*
X141835962Y-76979275D01*
X141844091Y-76957483D01*
X141849176Y-76910189D01*
X141850499Y-76897886D01*
X141850499Y-76897882D01*
X141850500Y-76897873D01*
X141850499Y-76802629D01*
X141850584Y-76798041D01*
X141850685Y-76795291D01*
X141850499Y-76791842D01*
X141850499Y-75102129D01*
X141850498Y-75102123D01*
X141850497Y-75102116D01*
X141844091Y-75042517D01*
X141842810Y-75039083D01*
X141793797Y-74907671D01*
X141793793Y-74907664D01*
X141707547Y-74792455D01*
X141707544Y-74792452D01*
X141592335Y-74706206D01*
X141592328Y-74706202D01*
X141457482Y-74655908D01*
X141457483Y-74655908D01*
X141397883Y-74649501D01*
X141397881Y-74649500D01*
X141397873Y-74649500D01*
X141397864Y-74649500D01*
X139602129Y-74649500D01*
X139602123Y-74649501D01*
X139542516Y-74655908D01*
X139407671Y-74706202D01*
X139407664Y-74706206D01*
X139292455Y-74792452D01*
X139292452Y-74792455D01*
X139206206Y-74907664D01*
X139206203Y-74907669D01*
X139157189Y-75039083D01*
X139115317Y-75095016D01*
X139049853Y-75119433D01*
X138981580Y-75104581D01*
X138953326Y-75083430D01*
X138831402Y-74961506D01*
X138831395Y-74961501D01*
X138637834Y-74825967D01*
X138637830Y-74825965D01*
X138637828Y-74825964D01*
X138423663Y-74726097D01*
X138423659Y-74726096D01*
X138423655Y-74726094D01*
X138195413Y-74664938D01*
X138195403Y-74664936D01*
X137960001Y-74644341D01*
X137959999Y-74644341D01*
X137724596Y-74664936D01*
X137724586Y-74664938D01*
X137496344Y-74726094D01*
X137496335Y-74726098D01*
X137282171Y-74825964D01*
X137282169Y-74825965D01*
X137088597Y-74961505D01*
X136921508Y-75128594D01*
X136791269Y-75314595D01*
X136736692Y-75358219D01*
X136667193Y-75365412D01*
X136604839Y-75333890D01*
X136588119Y-75314594D01*
X136458113Y-75128926D01*
X136458108Y-75128920D01*
X136291082Y-74961894D01*
X136097578Y-74826399D01*
X135883492Y-74726570D01*
X135883486Y-74726567D01*
X135670000Y-74669364D01*
X135670000Y-75566988D01*
X135612993Y-75534075D01*
X135485826Y-75500000D01*
X135354174Y-75500000D01*
X135227007Y-75534075D01*
X135170000Y-75566988D01*
X135170000Y-74669364D01*
X135169999Y-74669364D01*
X134956513Y-74726567D01*
X134956507Y-74726570D01*
X134742422Y-74826399D01*
X134742420Y-74826400D01*
X134548926Y-74961886D01*
X134548920Y-74961891D01*
X134381891Y-75128920D01*
X134381886Y-75128926D01*
X134246400Y-75322420D01*
X134246399Y-75322422D01*
X134146570Y-75536507D01*
X134146567Y-75536513D01*
X134089364Y-75749999D01*
X134089364Y-75750000D01*
X134986988Y-75750000D01*
X134954075Y-75807007D01*
X134920000Y-75934174D01*
X134920000Y-76065826D01*
X134954075Y-76192993D01*
X134986988Y-76250000D01*
X134089364Y-76250000D01*
X134146567Y-76463486D01*
X134146570Y-76463492D01*
X134246399Y-76677578D01*
X134381894Y-76871082D01*
X134548917Y-77038105D01*
X134742421Y-77173600D01*
X134956507Y-77273429D01*
X134956516Y-77273433D01*
X135170000Y-77330634D01*
X135170000Y-76433012D01*
X135227007Y-76465925D01*
X135354174Y-76500000D01*
X135485826Y-76500000D01*
X135612993Y-76465925D01*
X135670000Y-76433012D01*
X135670000Y-77330633D01*
X135883483Y-77273433D01*
X135883492Y-77273429D01*
X136097578Y-77173600D01*
X136291082Y-77038105D01*
X136458105Y-76871082D01*
X136588119Y-76685405D01*
X136642696Y-76641781D01*
X136712195Y-76634588D01*
X136774549Y-76666110D01*
X136791269Y-76685405D01*
X136921505Y-76871401D01*
X137088599Y-77038495D01*
X137165479Y-77092327D01*
X137282165Y-77174032D01*
X137282167Y-77174033D01*
X137282170Y-77174035D01*
X137496337Y-77273903D01*
X137724592Y-77335063D01*
X137912918Y-77351539D01*
X137959999Y-77355659D01*
X137960000Y-77355659D01*
X137960001Y-77355659D01*
X137999234Y-77352226D01*
X138195408Y-77335063D01*
X138423663Y-77273903D01*
X138637830Y-77174035D01*
X138831401Y-77038495D01*
X138953329Y-76916566D01*
X139014648Y-76883084D01*
X139084340Y-76888068D01*
X139140274Y-76929939D01*
X139157188Y-76960915D01*
X139173152Y-77003715D01*
X139177183Y-77016636D01*
X139185540Y-77049670D01*
X139490160Y-77789460D01*
X139499500Y-77836673D01*
X139499500Y-77875500D01*
X139479815Y-77942539D01*
X139427011Y-77988294D01*
X139375500Y-77999500D01*
X137645385Y-77999500D01*
X137645285Y-77999505D01*
X137520261Y-77999505D01*
X137061960Y-78032284D01*
X136607158Y-78097673D01*
X136158200Y-78195338D01*
X136158190Y-78195341D01*
X135717347Y-78324783D01*
X135452703Y-78423489D01*
X135286829Y-78485358D01*
X135286827Y-78485359D01*
X134868873Y-78676230D01*
X134465613Y-78896426D01*
X134079074Y-79144838D01*
X134079069Y-79144842D01*
X133711247Y-79420188D01*
X133364002Y-79721076D01*
X133272226Y-79812852D01*
X133201550Y-79883528D01*
X133147316Y-79937763D01*
X111951889Y-101133189D01*
X111951888Y-101133191D01*
X111888244Y-101196833D01*
X111884337Y-101200573D01*
X111604674Y-101456835D01*
X111596388Y-101463788D01*
X111297615Y-101693045D01*
X111288753Y-101699250D01*
X110971118Y-101901606D01*
X110961750Y-101907014D01*
X110627706Y-102080907D01*
X110617902Y-102085479D01*
X110269964Y-102229601D01*
X110259799Y-102233301D01*
X109900625Y-102346550D01*
X109890176Y-102349350D01*
X109522491Y-102430865D01*
X109511838Y-102432743D01*
X109138462Y-102481901D01*
X109127686Y-102482844D01*
X108748960Y-102499382D01*
X108743550Y-102499500D01*
X104659487Y-102499500D01*
X104659467Y-102499499D01*
X104612050Y-102499499D01*
X104611896Y-102499454D01*
X104385698Y-102499457D01*
X104037473Y-102533760D01*
X104037472Y-102533761D01*
X103694298Y-102602029D01*
X103694296Y-102602030D01*
X103359465Y-102703607D01*
X103036214Y-102837511D01*
X103036206Y-102837514D01*
X102727626Y-103002463D01*
X102727612Y-103002471D01*
X102573760Y-103105276D01*
X102556083Y-103115104D01*
X102529309Y-103127246D01*
X102529308Y-103127246D01*
X101429705Y-103829794D01*
X101415350Y-103837682D01*
X101347267Y-103869430D01*
X101347264Y-103869432D01*
X101160858Y-103999954D01*
X100999954Y-104160858D01*
X100869432Y-104347265D01*
X100869431Y-104347267D01*
X100773261Y-104553502D01*
X100773258Y-104553511D01*
X100714366Y-104773302D01*
X100714364Y-104773313D01*
X100694532Y-104999998D01*
X100694532Y-105000001D01*
X99500000Y-105000001D01*
X99500000Y-94840001D01*
X100694532Y-94840001D01*
X100714364Y-95066686D01*
X100714366Y-95066697D01*
X100773258Y-95286488D01*
X100773261Y-95286497D01*
X100869431Y-95492732D01*
X100869432Y-95492734D01*
X100999954Y-95679141D01*
X101160858Y-95840045D01*
X101160861Y-95840047D01*
X101347266Y-95970568D01*
X101553504Y-96066739D01*
X101773308Y-96125635D01*
X101919784Y-96138450D01*
X101999998Y-96145468D01*
X102000000Y-96145468D01*
X102000002Y-96145468D01*
X102066683Y-96139634D01*
X102226692Y-96125635D01*
X102446496Y-96066739D01*
X102652734Y-95970568D01*
X102839139Y-95840047D01*
X103000047Y-95679139D01*
X103130568Y-95492734D01*
X103226739Y-95286496D01*
X103285635Y-95066692D01*
X103305468Y-94840000D01*
X103285635Y-94613308D01*
X103238854Y-94438719D01*
X103226741Y-94393511D01*
X103226738Y-94393502D01*
X103215514Y-94369432D01*
X103130568Y-94187266D01*
X103000047Y-94000861D01*
X103000045Y-94000858D01*
X102839141Y-93839954D01*
X102652734Y-93709432D01*
X102652732Y-93709431D01*
X102446497Y-93613261D01*
X102446488Y-93613258D01*
X102321524Y-93579775D01*
X102261863Y-93543410D01*
X102231334Y-93480563D01*
X102239629Y-93411188D01*
X102284114Y-93357310D01*
X102321524Y-93340225D01*
X102341014Y-93335002D01*
X102446496Y-93306739D01*
X102652734Y-93210568D01*
X102839139Y-93080047D01*
X103000047Y-92919139D01*
X103130568Y-92732734D01*
X103226739Y-92526496D01*
X103285635Y-92306692D01*
X103305468Y-92080000D01*
X103285635Y-91853308D01*
X103226739Y-91633504D01*
X103130568Y-91427266D01*
X103006795Y-91250498D01*
X103000045Y-91240858D01*
X102839141Y-91079954D01*
X102652734Y-90949432D01*
X102652732Y-90949431D01*
X102446497Y-90853261D01*
X102446488Y-90853258D01*
X102239774Y-90797870D01*
X106149500Y-90797870D01*
X106149501Y-90797876D01*
X106155908Y-90857483D01*
X106206202Y-90992328D01*
X106206206Y-90992335D01*
X106292452Y-91107544D01*
X106292455Y-91107547D01*
X106407664Y-91193793D01*
X106407671Y-91193797D01*
X106542517Y-91244091D01*
X106542516Y-91244091D01*
X106549444Y-91244835D01*
X106602127Y-91250500D01*
X109197872Y-91250499D01*
X109257483Y-91244091D01*
X109392331Y-91193796D01*
X109507546Y-91107546D01*
X109507548Y-91107542D01*
X109513817Y-91101275D01*
X109515921Y-91103379D01*
X109559880Y-91070459D01*
X109629571Y-91065461D01*
X109690901Y-91098933D01*
X109701610Y-91111143D01*
X109718838Y-91133594D01*
X109719388Y-91134310D01*
X109719394Y-91134318D01*
X109778875Y-91193795D01*
X109790278Y-91205198D01*
X109790283Y-91205205D01*
X109823806Y-91238726D01*
X113100946Y-94515866D01*
X113115603Y-94533526D01*
X113386858Y-94929977D01*
X113408468Y-94996420D01*
X113390726Y-95063999D01*
X113386858Y-95070018D01*
X113115597Y-95466477D01*
X113100940Y-95484137D01*
X109734110Y-98850967D01*
X109733994Y-98851094D01*
X109719388Y-98865700D01*
X109567310Y-99063885D01*
X109491056Y-99195956D01*
X109440488Y-99244171D01*
X109371881Y-99257392D01*
X109307016Y-99231423D01*
X109299329Y-99224853D01*
X109194479Y-99127567D01*
X108977704Y-98979772D01*
X108977700Y-98979770D01*
X108977697Y-98979768D01*
X108977696Y-98979767D01*
X108741325Y-98865938D01*
X108741327Y-98865938D01*
X108490623Y-98788606D01*
X108490619Y-98788605D01*
X108490615Y-98788604D01*
X108365823Y-98769794D01*
X108231187Y-98749500D01*
X108231182Y-98749500D01*
X107968818Y-98749500D01*
X107968812Y-98749500D01*
X107807247Y-98773853D01*
X107709385Y-98788604D01*
X107709382Y-98788605D01*
X107709376Y-98788606D01*
X107458673Y-98865938D01*
X107222303Y-98979767D01*
X107222302Y-98979768D01*
X107005520Y-99127567D01*
X106813198Y-99306014D01*
X106649614Y-99511143D01*
X106518432Y-99738356D01*
X106422582Y-99982578D01*
X106422576Y-99982597D01*
X106364197Y-100238374D01*
X106364196Y-100238379D01*
X106344592Y-100499995D01*
X106344592Y-100500004D01*
X106364196Y-100761620D01*
X106364197Y-100761625D01*
X106422576Y-101017402D01*
X106422578Y-101017411D01*
X106422580Y-101017416D01*
X106518432Y-101261643D01*
X106649614Y-101488857D01*
X106758134Y-101624937D01*
X106813198Y-101693985D01*
X106925163Y-101797872D01*
X107005521Y-101872433D01*
X107222296Y-102020228D01*
X107222301Y-102020230D01*
X107222302Y-102020231D01*
X107222303Y-102020232D01*
X107347843Y-102080688D01*
X107458673Y-102134061D01*
X107458674Y-102134061D01*
X107458677Y-102134063D01*
X107709385Y-102211396D01*
X107968818Y-102250500D01*
X108231182Y-102250500D01*
X108490615Y-102211396D01*
X108741323Y-102134063D01*
X108977704Y-102020228D01*
X109194479Y-101872433D01*
X109343733Y-101733945D01*
X109386801Y-101693985D01*
X109386801Y-101693983D01*
X109386805Y-101693981D01*
X109503869Y-101547186D01*
X109561057Y-101507047D01*
X109600816Y-101500500D01*
X109983253Y-101500500D01*
X109983254Y-101500500D01*
X110197097Y-101466630D01*
X110403009Y-101399726D01*
X110595919Y-101301433D01*
X110771078Y-101174172D01*
X110924172Y-101021078D01*
X111051433Y-100845919D01*
X111149726Y-100653009D01*
X111216630Y-100447097D01*
X111250500Y-100233254D01*
X111250500Y-100215783D01*
X111270185Y-100148744D01*
X111286816Y-100128104D01*
X111288165Y-100126757D01*
X111288168Y-100126752D01*
X111293529Y-100121391D01*
X111293545Y-100121372D01*
X114515871Y-96899046D01*
X114533520Y-96884398D01*
X115589525Y-96161870D01*
X115607125Y-96151835D01*
X115652734Y-96130568D01*
X115839139Y-96000047D01*
X115870880Y-95968304D01*
X115876117Y-95963536D01*
X115876081Y-95963497D01*
X115878343Y-95961421D01*
X115878362Y-95961406D01*
X115923857Y-95915328D01*
X115924092Y-95915092D01*
X116000047Y-95839139D01*
X116130568Y-95652734D01*
X116226739Y-95446496D01*
X116285635Y-95226692D01*
X116305468Y-95000000D01*
X116300593Y-94944284D01*
X116296494Y-94897428D01*
X116285635Y-94773308D01*
X116226739Y-94553504D01*
X116130568Y-94347266D01*
X116032839Y-94207693D01*
X116000045Y-94160858D01*
X115839141Y-93999954D01*
X115652731Y-93869430D01*
X115652732Y-93869430D01*
X115607140Y-93848171D01*
X115589524Y-93838127D01*
X115530872Y-93797997D01*
X114812879Y-93306739D01*
X114533526Y-93115603D01*
X114515866Y-93100946D01*
X111292514Y-89877594D01*
X111292475Y-89877551D01*
X111286819Y-89871895D01*
X111286001Y-89870398D01*
X111284224Y-89868434D01*
X111284206Y-89868412D01*
X111284697Y-89868009D01*
X111253334Y-89810572D01*
X111250500Y-89784214D01*
X111250500Y-89766746D01*
X111242901Y-89718767D01*
X111216630Y-89552903D01*
X111153156Y-89357547D01*
X111149727Y-89346993D01*
X111149726Y-89346990D01*
X111071404Y-89193277D01*
X111051433Y-89154081D01*
X110924172Y-88978922D01*
X110771078Y-88825828D01*
X110595919Y-88698567D01*
X110403009Y-88600273D01*
X110403006Y-88600272D01*
X110197098Y-88533370D01*
X110058550Y-88511426D01*
X109983254Y-88499500D01*
X109983253Y-88499500D01*
X109774499Y-88499500D01*
X109707460Y-88479815D01*
X109661705Y-88427011D01*
X109650499Y-88375500D01*
X109650499Y-88202129D01*
X109650498Y-88202123D01*
X109650497Y-88202116D01*
X109644091Y-88142517D01*
X109638661Y-88127959D01*
X109593797Y-88007671D01*
X109593793Y-88007664D01*
X109507547Y-87892455D01*
X109507544Y-87892452D01*
X109392335Y-87806206D01*
X109392328Y-87806202D01*
X109257482Y-87755908D01*
X109257483Y-87755908D01*
X109197883Y-87749501D01*
X109197881Y-87749500D01*
X109197873Y-87749500D01*
X109197864Y-87749500D01*
X106602129Y-87749500D01*
X106602123Y-87749501D01*
X106542516Y-87755908D01*
X106407671Y-87806202D01*
X106407664Y-87806206D01*
X106292455Y-87892452D01*
X106292452Y-87892455D01*
X106206206Y-88007664D01*
X106206202Y-88007671D01*
X106155908Y-88142517D01*
X106150482Y-88192993D01*
X106149501Y-88202123D01*
X106149500Y-88202135D01*
X106149500Y-90797870D01*
X102239774Y-90797870D01*
X102226697Y-90794366D01*
X102226693Y-90794365D01*
X102226692Y-90794365D01*
X102226691Y-90794364D01*
X102226686Y-90794364D01*
X102000002Y-90774532D01*
X101999998Y-90774532D01*
X101773313Y-90794364D01*
X101773302Y-90794366D01*
X101553511Y-90853258D01*
X101553502Y-90853261D01*
X101347267Y-90949431D01*
X101347265Y-90949432D01*
X101160858Y-91079954D01*
X100999954Y-91240858D01*
X100869432Y-91427265D01*
X100869431Y-91427267D01*
X100773261Y-91633502D01*
X100773258Y-91633511D01*
X100714366Y-91853302D01*
X100714364Y-91853313D01*
X100694532Y-92079998D01*
X100694532Y-92080001D01*
X100714364Y-92306686D01*
X100714366Y-92306697D01*
X100773258Y-92526488D01*
X100773261Y-92526497D01*
X100869431Y-92732732D01*
X100869432Y-92732734D01*
X100999954Y-92919141D01*
X101160858Y-93080045D01*
X101160861Y-93080047D01*
X101347266Y-93210568D01*
X101553504Y-93306739D01*
X101553509Y-93306740D01*
X101553511Y-93306741D01*
X101678475Y-93340225D01*
X101738136Y-93376590D01*
X101768665Y-93439437D01*
X101760370Y-93508812D01*
X101715885Y-93562690D01*
X101678475Y-93579775D01*
X101553511Y-93613258D01*
X101553502Y-93613261D01*
X101347267Y-93709431D01*
X101347265Y-93709432D01*
X101160858Y-93839954D01*
X100999954Y-94000858D01*
X100869432Y-94187265D01*
X100869431Y-94187267D01*
X100773261Y-94393502D01*
X100773258Y-94393511D01*
X100714366Y-94613302D01*
X100714364Y-94613313D01*
X100694532Y-94839998D01*
X100694532Y-94840001D01*
X99500000Y-94840001D01*
X99500000Y-84000001D01*
X113694532Y-84000001D01*
X113714364Y-84226686D01*
X113714366Y-84226697D01*
X113773258Y-84446488D01*
X113773261Y-84446497D01*
X113869431Y-84652732D01*
X113869432Y-84652734D01*
X113999954Y-84839141D01*
X114160858Y-85000045D01*
X114160861Y-85000047D01*
X114347266Y-85130568D01*
X114553504Y-85226739D01*
X114773308Y-85285635D01*
X114935230Y-85299801D01*
X114999998Y-85305468D01*
X115000000Y-85305468D01*
X115000002Y-85305468D01*
X115056673Y-85300509D01*
X115226692Y-85285635D01*
X115446496Y-85226739D01*
X115652734Y-85130568D01*
X115839139Y-85000047D01*
X116000047Y-84839139D01*
X116130568Y-84652734D01*
X116226739Y-84446496D01*
X116285635Y-84226692D01*
X116305468Y-84000001D01*
X121194532Y-84000001D01*
X121214364Y-84226686D01*
X121214366Y-84226697D01*
X121273258Y-84446488D01*
X121273261Y-84446497D01*
X121369431Y-84652732D01*
X121369432Y-84652734D01*
X121499954Y-84839141D01*
X121660858Y-85000045D01*
X121660861Y-85000047D01*
X121847266Y-85130568D01*
X122053504Y-85226739D01*
X122273308Y-85285635D01*
X122435230Y-85299801D01*
X122499998Y-85305468D01*
X122500000Y-85305468D01*
X122500002Y-85305468D01*
X122556673Y-85300509D01*
X122726692Y-85285635D01*
X122946496Y-85226739D01*
X122946503Y-85226735D01*
X122951583Y-85224887D01*
X122951649Y-85225069D01*
X122966189Y-85219849D01*
X124152766Y-84913132D01*
X124159599Y-84911572D01*
X124162905Y-84910914D01*
X124171976Y-84909110D01*
X124190553Y-84903474D01*
X124195459Y-84902097D01*
X124237212Y-84891305D01*
X124292978Y-84873385D01*
X124292991Y-84873377D01*
X124293705Y-84873067D01*
X124307294Y-84868061D01*
X124470338Y-84818603D01*
X124758392Y-84699288D01*
X125033364Y-84552313D01*
X125292606Y-84379093D01*
X125533621Y-84181298D01*
X125643855Y-84071065D01*
X125709411Y-84005509D01*
X125709411Y-84005507D01*
X125719616Y-83995303D01*
X125719618Y-83995299D01*
X125999321Y-83715599D01*
X125999324Y-83715593D01*
X126003986Y-83710932D01*
X126004086Y-83710819D01*
X126042506Y-83672402D01*
X126247725Y-83427836D01*
X126430848Y-83166313D01*
X126590480Y-82889826D01*
X126725407Y-82600478D01*
X126834602Y-82300470D01*
X126917234Y-81992088D01*
X126972674Y-81677677D01*
X127000500Y-81359631D01*
X127000500Y-81204051D01*
X127000763Y-81195972D01*
X127014129Y-80992052D01*
X127016243Y-80976000D01*
X127055314Y-80779581D01*
X127059502Y-80763948D01*
X127123881Y-80574297D01*
X127130081Y-80559332D01*
X127218657Y-80379717D01*
X127226748Y-80365702D01*
X127338029Y-80199163D01*
X127347876Y-80186331D01*
X127482721Y-80032572D01*
X127488247Y-80026672D01*
X127504601Y-80010318D01*
X127510492Y-80004800D01*
X127671584Y-79863525D01*
X127684437Y-79853663D01*
X127859181Y-79736904D01*
X127873222Y-79728796D01*
X128061717Y-79635839D01*
X128076688Y-79629638D01*
X128275709Y-79562078D01*
X128291356Y-79557886D01*
X128497487Y-79516881D01*
X128513563Y-79514765D01*
X128667391Y-79504681D01*
X128735573Y-79519938D01*
X128784684Y-79569635D01*
X128799501Y-79628415D01*
X128799501Y-79797876D01*
X128805908Y-79857483D01*
X128856202Y-79992328D01*
X128856206Y-79992335D01*
X128942452Y-80107544D01*
X128942455Y-80107547D01*
X129057664Y-80193793D01*
X129057671Y-80193797D01*
X129192517Y-80244091D01*
X129192516Y-80244091D01*
X129199444Y-80244835D01*
X129252127Y-80250500D01*
X131847872Y-80250499D01*
X131907483Y-80244091D01*
X132042331Y-80193796D01*
X132157546Y-80107546D01*
X132243796Y-79992331D01*
X132294091Y-79857483D01*
X132300500Y-79797873D01*
X132300499Y-77202128D01*
X132294091Y-77142517D01*
X132290832Y-77133780D01*
X132243797Y-77007671D01*
X132243793Y-77007664D01*
X132157547Y-76892455D01*
X132157544Y-76892452D01*
X132042335Y-76806206D01*
X132042328Y-76806202D01*
X131907482Y-76755908D01*
X131907483Y-76755908D01*
X131847883Y-76749501D01*
X131847881Y-76749500D01*
X131847873Y-76749500D01*
X131847864Y-76749500D01*
X129252129Y-76749500D01*
X129252123Y-76749501D01*
X129192516Y-76755908D01*
X129057671Y-76806202D01*
X129057664Y-76806206D01*
X128942455Y-76892452D01*
X128942452Y-76892455D01*
X128856206Y-77007664D01*
X128856202Y-77007671D01*
X128805908Y-77142517D01*
X128802520Y-77174034D01*
X128799501Y-77202123D01*
X128799500Y-77202135D01*
X128799500Y-77375487D01*
X128779815Y-77442526D01*
X128727011Y-77488281D01*
X128675502Y-77499487D01*
X128568421Y-77499488D01*
X128243787Y-77527894D01*
X127922868Y-77584484D01*
X127922865Y-77584484D01*
X127669833Y-77652286D01*
X127608099Y-77668828D01*
X127608096Y-77668829D01*
X127608094Y-77668829D01*
X127301879Y-77780285D01*
X127006535Y-77918008D01*
X126724333Y-78080939D01*
X126724318Y-78080948D01*
X126457394Y-78267852D01*
X126457391Y-78267854D01*
X126457386Y-78267858D01*
X126296180Y-78403126D01*
X126207743Y-78477334D01*
X126165073Y-78520003D01*
X126165029Y-78520044D01*
X126126036Y-78559039D01*
X126080743Y-78604335D01*
X126026983Y-78658095D01*
X126026967Y-78658109D01*
X125996677Y-78688403D01*
X125996562Y-78688529D01*
X125957502Y-78727588D01*
X125957480Y-78727613D01*
X125752274Y-78972164D01*
X125569154Y-79233682D01*
X125409521Y-79510171D01*
X125274595Y-79799516D01*
X125274594Y-79799519D01*
X125189767Y-80032578D01*
X125165398Y-80099530D01*
X125140140Y-80193793D01*
X125082766Y-80407910D01*
X125082765Y-80407917D01*
X125027326Y-80722319D01*
X124999500Y-81040367D01*
X124999500Y-81195948D01*
X124999234Y-81204059D01*
X124985871Y-81407926D01*
X124983754Y-81424006D01*
X124944689Y-81620402D01*
X124940491Y-81636071D01*
X124876122Y-81825690D01*
X124869915Y-81840674D01*
X124781348Y-82020270D01*
X124773240Y-82034314D01*
X124661982Y-82200818D01*
X124652113Y-82213680D01*
X124517307Y-82367394D01*
X124511762Y-82373315D01*
X124481190Y-82403886D01*
X124449172Y-82435905D01*
X124449169Y-82435909D01*
X124294494Y-82590585D01*
X124294492Y-82590587D01*
X124232378Y-82652699D01*
X124225229Y-82659306D01*
X124096475Y-82769272D01*
X124080733Y-82780710D01*
X123940529Y-82866626D01*
X123923194Y-82875459D01*
X123890264Y-82889099D01*
X123862273Y-82900693D01*
X123793927Y-82908359D01*
X122851458Y-82747247D01*
X122840259Y-82744795D01*
X122726697Y-82714366D01*
X122726688Y-82714364D01*
X122579351Y-82701473D01*
X122574460Y-82700947D01*
X122556420Y-82698644D01*
X122554484Y-82698480D01*
X122554471Y-82698479D01*
X122554465Y-82698479D01*
X122554457Y-82698479D01*
X122554455Y-82698479D01*
X122552189Y-82698503D01*
X122540078Y-82698038D01*
X122521306Y-82696395D01*
X122500001Y-82694532D01*
X122499998Y-82694532D01*
X122273313Y-82714364D01*
X122273302Y-82714366D01*
X122053511Y-82773258D01*
X122053502Y-82773261D01*
X121847267Y-82869431D01*
X121847265Y-82869432D01*
X121660858Y-82999954D01*
X121499954Y-83160858D01*
X121369432Y-83347265D01*
X121369431Y-83347267D01*
X121273261Y-83553502D01*
X121273258Y-83553511D01*
X121214366Y-83773302D01*
X121214364Y-83773313D01*
X121194532Y-83999998D01*
X121194532Y-84000001D01*
X116305468Y-84000001D01*
X116305468Y-84000000D01*
X116305056Y-83995296D01*
X116285635Y-83773313D01*
X116285635Y-83773308D01*
X116226739Y-83553504D01*
X116130568Y-83347266D01*
X116003867Y-83166317D01*
X116000045Y-83160858D01*
X115839141Y-82999954D01*
X115652734Y-82869432D01*
X115652732Y-82869431D01*
X115446497Y-82773261D01*
X115446488Y-82773258D01*
X115226697Y-82714366D01*
X115226693Y-82714365D01*
X115226692Y-82714365D01*
X115226691Y-82714364D01*
X115226686Y-82714364D01*
X115000002Y-82694532D01*
X114999998Y-82694532D01*
X114773313Y-82714364D01*
X114773302Y-82714366D01*
X114553511Y-82773258D01*
X114553502Y-82773261D01*
X114347267Y-82869431D01*
X114347265Y-82869432D01*
X114160858Y-82999954D01*
X113999954Y-83160858D01*
X113869432Y-83347265D01*
X113869431Y-83347267D01*
X113773261Y-83553502D01*
X113773258Y-83553511D01*
X113714366Y-83773302D01*
X113714364Y-83773313D01*
X113694532Y-83999998D01*
X113694532Y-84000001D01*
X99500000Y-84000001D01*
X99500000Y-81920001D01*
X100694532Y-81920001D01*
X100714364Y-82146686D01*
X100714366Y-82146697D01*
X100773258Y-82366488D01*
X100773261Y-82366497D01*
X100869431Y-82572732D01*
X100869432Y-82572734D01*
X100999954Y-82759141D01*
X101160858Y-82920045D01*
X101160861Y-82920047D01*
X101347266Y-83050568D01*
X101553504Y-83146739D01*
X101773308Y-83205635D01*
X101935230Y-83219801D01*
X101999998Y-83225468D01*
X102000000Y-83225468D01*
X102000002Y-83225468D01*
X102056673Y-83220509D01*
X102226692Y-83205635D01*
X102446496Y-83146739D01*
X102652734Y-83050568D01*
X102839139Y-82920047D01*
X103000047Y-82759139D01*
X103130568Y-82572734D01*
X103226739Y-82366496D01*
X103285635Y-82146692D01*
X103305468Y-81920000D01*
X103285635Y-81693308D01*
X103226739Y-81473504D01*
X103130568Y-81267266D01*
X103000047Y-81080861D01*
X103000045Y-81080858D01*
X102839141Y-80919954D01*
X102652734Y-80789432D01*
X102652732Y-80789431D01*
X102446497Y-80693261D01*
X102446488Y-80693258D01*
X102226697Y-80634366D01*
X102226693Y-80634365D01*
X102226692Y-80634365D01*
X102226691Y-80634364D01*
X102226686Y-80634364D01*
X102000002Y-80614532D01*
X101999998Y-80614532D01*
X101773313Y-80634364D01*
X101773302Y-80634366D01*
X101553511Y-80693258D01*
X101553502Y-80693261D01*
X101347267Y-80789431D01*
X101347265Y-80789432D01*
X101160858Y-80919954D01*
X100999954Y-81080858D01*
X100869432Y-81267265D01*
X100869431Y-81267267D01*
X100773261Y-81473502D01*
X100773258Y-81473511D01*
X100714366Y-81693302D01*
X100714364Y-81693313D01*
X100694532Y-81919998D01*
X100694532Y-81920001D01*
X99500000Y-81920001D01*
X99500000Y-79624000D01*
X99519685Y-79556961D01*
X99572489Y-79511206D01*
X99624000Y-79500000D01*
X106000000Y-79500000D01*
X106000000Y-78750000D01*
X106813828Y-78750000D01*
X106814694Y-78761551D01*
X106814695Y-78761558D01*
X106873058Y-79017270D01*
X106968883Y-79261426D01*
X106968882Y-79261426D01*
X107100028Y-79488573D01*
X107263562Y-79693639D01*
X107263570Y-79693648D01*
X107455830Y-79872040D01*
X107455832Y-79872041D01*
X107672546Y-80019793D01*
X107672550Y-80019795D01*
X107908854Y-80133594D01*
X107908858Y-80133595D01*
X108159494Y-80210907D01*
X108159502Y-80210909D01*
X108300000Y-80232085D01*
X108300000Y-79208240D01*
X108331233Y-79221178D01*
X108476131Y-79250000D01*
X108623869Y-79250000D01*
X108768767Y-79221178D01*
X108800000Y-79208240D01*
X108800000Y-80232084D01*
X108940497Y-80210909D01*
X108940505Y-80210907D01*
X109191143Y-80133595D01*
X109427445Y-80019798D01*
X109427454Y-80019793D01*
X109644167Y-79872041D01*
X109644169Y-79872040D01*
X109836429Y-79693648D01*
X109836437Y-79693639D01*
X109999971Y-79488573D01*
X110131116Y-79261426D01*
X110226941Y-79017270D01*
X110285304Y-78761558D01*
X110285305Y-78761551D01*
X110286172Y-78750000D01*
X109258241Y-78750000D01*
X109271178Y-78718767D01*
X109300000Y-78573869D01*
X109300000Y-78426131D01*
X109271178Y-78281233D01*
X109258241Y-78250000D01*
X110286171Y-78250000D01*
X110285305Y-78238448D01*
X110285304Y-78238441D01*
X110226941Y-77982729D01*
X110131116Y-77738573D01*
X110131117Y-77738573D01*
X109999971Y-77511426D01*
X109836437Y-77306360D01*
X109836429Y-77306351D01*
X109644169Y-77127959D01*
X109644167Y-77127958D01*
X109427454Y-76980206D01*
X109427445Y-76980201D01*
X109191142Y-76866404D01*
X109191144Y-76866404D01*
X108940512Y-76789094D01*
X108940506Y-76789093D01*
X108800000Y-76767914D01*
X108800000Y-77791759D01*
X108768767Y-77778822D01*
X108623869Y-77750000D01*
X108476131Y-77750000D01*
X108331233Y-77778822D01*
X108300000Y-77791759D01*
X108300000Y-76767914D01*
X108159493Y-76789093D01*
X108159487Y-76789094D01*
X107908858Y-76866404D01*
X107908854Y-76866405D01*
X107672550Y-76980204D01*
X107672546Y-76980206D01*
X107455832Y-77127958D01*
X107455830Y-77127959D01*
X107263570Y-77306351D01*
X107263562Y-77306360D01*
X107100028Y-77511426D01*
X106968883Y-77738573D01*
X106873058Y-77982729D01*
X106814695Y-78238441D01*
X106814694Y-78238448D01*
X106813828Y-78250000D01*
X107841759Y-78250000D01*
X107828822Y-78281233D01*
X107800000Y-78426131D01*
X107800000Y-78573869D01*
X107828822Y-78718767D01*
X107841759Y-78750000D01*
X106813828Y-78750000D01*
X106000000Y-78750000D01*
X106000000Y-73124000D01*
X106019685Y-73056961D01*
X106072489Y-73011206D01*
X106124000Y-73000000D01*
X151876000Y-73000000D01*
X151943039Y-73019685D01*
G37*
%TD.AperFunction*%
%TD*%
M02*
