%TF.GenerationSoftware,KiCad,Pcbnew,8.0.0*%
%TF.CreationDate,2024-03-21T13:17:33+03:00*%
%TF.ProjectId,germanium-power-src,6765726d-616e-4697-956d-2d706f776572,rev?*%
%TF.SameCoordinates,Original*%
%TF.FileFunction,Legend,Top*%
%TF.FilePolarity,Positive*%
%FSLAX46Y46*%
G04 Gerber Fmt 4.6, Leading zero omitted, Abs format (unit mm)*
G04 Created by KiCad (PCBNEW 8.0.0) date 2024-03-21 13:17:33*
%MOMM*%
%LPD*%
G01*
G04 APERTURE LIST*
%ADD10C,0.300000*%
%ADD11C,0.150000*%
%ADD12C,0.100000*%
%ADD13C,0.000000*%
%ADD14C,0.120000*%
G04 APERTURE END LIST*
D10*
X118054510Y-120385912D02*
X118054510Y-118885912D01*
X118054510Y-118885912D02*
X118625939Y-118885912D01*
X118625939Y-118885912D02*
X118768796Y-118957341D01*
X118768796Y-118957341D02*
X118840225Y-119028769D01*
X118840225Y-119028769D02*
X118911653Y-119171626D01*
X118911653Y-119171626D02*
X118911653Y-119385912D01*
X118911653Y-119385912D02*
X118840225Y-119528769D01*
X118840225Y-119528769D02*
X118768796Y-119600198D01*
X118768796Y-119600198D02*
X118625939Y-119671626D01*
X118625939Y-119671626D02*
X118054510Y-119671626D01*
X120125939Y-120314484D02*
X119983082Y-120385912D01*
X119983082Y-120385912D02*
X119697368Y-120385912D01*
X119697368Y-120385912D02*
X119554510Y-120314484D01*
X119554510Y-120314484D02*
X119483082Y-120171626D01*
X119483082Y-120171626D02*
X119483082Y-119600198D01*
X119483082Y-119600198D02*
X119554510Y-119457341D01*
X119554510Y-119457341D02*
X119697368Y-119385912D01*
X119697368Y-119385912D02*
X119983082Y-119385912D01*
X119983082Y-119385912D02*
X120125939Y-119457341D01*
X120125939Y-119457341D02*
X120197368Y-119600198D01*
X120197368Y-119600198D02*
X120197368Y-119743055D01*
X120197368Y-119743055D02*
X119483082Y-119885912D01*
X120840224Y-120385912D02*
X120840224Y-119385912D01*
X120840224Y-119385912D02*
X121411653Y-119385912D01*
X121768796Y-119385912D02*
X122125939Y-120385912D01*
X122483082Y-119385912D02*
X122125939Y-120385912D01*
X122125939Y-120385912D02*
X121983082Y-120743055D01*
X121983082Y-120743055D02*
X121911653Y-120814484D01*
X121911653Y-120814484D02*
X121768796Y-120885912D01*
X123625939Y-120385912D02*
X123625939Y-119385912D01*
X123625939Y-119385912D02*
X123411653Y-119385912D01*
X123411653Y-119385912D02*
X123268796Y-119457341D01*
X123268796Y-119457341D02*
X123197368Y-119600198D01*
X123197368Y-119600198D02*
X123125939Y-120171626D01*
X123125939Y-120171626D02*
X123054510Y-120314484D01*
X123054510Y-120314484D02*
X122911653Y-120385912D01*
X124625939Y-119957341D02*
X124268796Y-120385912D01*
X124911653Y-120385912D02*
X124911653Y-119385912D01*
X124911653Y-119385912D02*
X124483082Y-119385912D01*
X124483082Y-119385912D02*
X124340224Y-119457341D01*
X124340224Y-119457341D02*
X124268796Y-119600198D01*
X124268796Y-119600198D02*
X124268796Y-119743055D01*
X124268796Y-119743055D02*
X124340224Y-119885912D01*
X124340224Y-119885912D02*
X124483082Y-119957341D01*
X124483082Y-119957341D02*
X124911653Y-119957341D01*
X125411653Y-119385912D02*
X126125938Y-119385912D01*
X125768796Y-119385912D02*
X125768796Y-120385912D01*
X126840224Y-120385912D02*
X126697367Y-120314484D01*
X126697367Y-120314484D02*
X126625938Y-120243055D01*
X126625938Y-120243055D02*
X126554510Y-120100198D01*
X126554510Y-120100198D02*
X126554510Y-119671626D01*
X126554510Y-119671626D02*
X126625938Y-119528769D01*
X126625938Y-119528769D02*
X126697367Y-119457341D01*
X126697367Y-119457341D02*
X126840224Y-119385912D01*
X126840224Y-119385912D02*
X127054510Y-119385912D01*
X127054510Y-119385912D02*
X127197367Y-119457341D01*
X127197367Y-119457341D02*
X127268796Y-119528769D01*
X127268796Y-119528769D02*
X127340224Y-119671626D01*
X127340224Y-119671626D02*
X127340224Y-120100198D01*
X127340224Y-120100198D02*
X127268796Y-120243055D01*
X127268796Y-120243055D02*
X127197367Y-120314484D01*
X127197367Y-120314484D02*
X127054510Y-120385912D01*
X127054510Y-120385912D02*
X126840224Y-120385912D01*
X127983081Y-119385912D02*
X127983081Y-120885912D01*
X127983081Y-119457341D02*
X128125939Y-119385912D01*
X128125939Y-119385912D02*
X128411653Y-119385912D01*
X128411653Y-119385912D02*
X128554510Y-119457341D01*
X128554510Y-119457341D02*
X128625939Y-119528769D01*
X128625939Y-119528769D02*
X128697367Y-119671626D01*
X128697367Y-119671626D02*
X128697367Y-120100198D01*
X128697367Y-120100198D02*
X128625939Y-120243055D01*
X128625939Y-120243055D02*
X128554510Y-120314484D01*
X128554510Y-120314484D02*
X128411653Y-120385912D01*
X128411653Y-120385912D02*
X128125939Y-120385912D01*
X128125939Y-120385912D02*
X127983081Y-120314484D01*
X118054510Y-122300828D02*
X118697368Y-122300828D01*
X118054510Y-121800828D02*
X118054510Y-122800828D01*
X118697368Y-121800828D02*
X118697368Y-122800828D01*
X120054511Y-122800828D02*
X120054511Y-122015114D01*
X120054511Y-122015114D02*
X119983082Y-121872257D01*
X119983082Y-121872257D02*
X119840225Y-121800828D01*
X119840225Y-121800828D02*
X119554511Y-121800828D01*
X119554511Y-121800828D02*
X119411653Y-121872257D01*
X120054511Y-122729400D02*
X119911653Y-122800828D01*
X119911653Y-122800828D02*
X119554511Y-122800828D01*
X119554511Y-122800828D02*
X119411653Y-122729400D01*
X119411653Y-122729400D02*
X119340225Y-122586542D01*
X119340225Y-122586542D02*
X119340225Y-122443685D01*
X119340225Y-122443685D02*
X119411653Y-122300828D01*
X119411653Y-122300828D02*
X119554511Y-122229400D01*
X119554511Y-122229400D02*
X119911653Y-122229400D01*
X119911653Y-122229400D02*
X120054511Y-122157971D01*
X120768796Y-122800828D02*
X120768796Y-121800828D01*
X120768796Y-121800828D02*
X121411654Y-121800828D01*
X121411654Y-121800828D02*
X121411654Y-122800828D01*
X122125939Y-121800828D02*
X122125939Y-123300828D01*
X122125939Y-121872257D02*
X122268797Y-121800828D01*
X122268797Y-121800828D02*
X122554511Y-121800828D01*
X122554511Y-121800828D02*
X122697368Y-121872257D01*
X122697368Y-121872257D02*
X122768797Y-121943685D01*
X122768797Y-121943685D02*
X122840225Y-122086542D01*
X122840225Y-122086542D02*
X122840225Y-122515114D01*
X122840225Y-122515114D02*
X122768797Y-122657971D01*
X122768797Y-122657971D02*
X122697368Y-122729400D01*
X122697368Y-122729400D02*
X122554511Y-122800828D01*
X122554511Y-122800828D02*
X122268797Y-122800828D01*
X122268797Y-122800828D02*
X122125939Y-122729400D01*
X123768797Y-122372257D02*
X123411654Y-122800828D01*
X124054511Y-122800828D02*
X124054511Y-121800828D01*
X124054511Y-121800828D02*
X123625940Y-121800828D01*
X123625940Y-121800828D02*
X123483082Y-121872257D01*
X123483082Y-121872257D02*
X123411654Y-122015114D01*
X123411654Y-122015114D02*
X123411654Y-122157971D01*
X123411654Y-122157971D02*
X123483082Y-122300828D01*
X123483082Y-122300828D02*
X123625940Y-122372257D01*
X123625940Y-122372257D02*
X124054511Y-122372257D01*
X125197368Y-122300828D02*
X124697368Y-122800828D01*
X125268796Y-122372257D02*
X124697368Y-121800828D01*
X125268796Y-121800828D02*
X125268796Y-122800828D01*
X125840225Y-122800828D02*
X125340225Y-122300828D01*
X125840225Y-121800828D02*
X125268796Y-122372257D01*
X127054511Y-122729400D02*
X126911654Y-122800828D01*
X126911654Y-122800828D02*
X126625940Y-122800828D01*
X126625940Y-122800828D02*
X126483082Y-122729400D01*
X126483082Y-122729400D02*
X126411654Y-122586542D01*
X126411654Y-122586542D02*
X126411654Y-122015114D01*
X126411654Y-122015114D02*
X126483082Y-121872257D01*
X126483082Y-121872257D02*
X126625940Y-121800828D01*
X126625940Y-121800828D02*
X126911654Y-121800828D01*
X126911654Y-121800828D02*
X127054511Y-121872257D01*
X127054511Y-121872257D02*
X127125940Y-122015114D01*
X127125940Y-122015114D02*
X127125940Y-122157971D01*
X127125940Y-122157971D02*
X126411654Y-122300828D01*
X127768796Y-122300828D02*
X128411654Y-122300828D01*
X127768796Y-121800828D02*
X127768796Y-122800828D01*
X128411654Y-121800828D02*
X128411654Y-122800828D01*
X129125939Y-121800828D02*
X129125939Y-122800828D01*
X129125939Y-122800828D02*
X129840225Y-121800828D01*
X129840225Y-121800828D02*
X129840225Y-122800828D01*
X130840225Y-122372257D02*
X130483082Y-122800828D01*
X131125939Y-122800828D02*
X131125939Y-121800828D01*
X131125939Y-121800828D02*
X130697368Y-121800828D01*
X130697368Y-121800828D02*
X130554510Y-121872257D01*
X130554510Y-121872257D02*
X130483082Y-122015114D01*
X130483082Y-122015114D02*
X130483082Y-122157971D01*
X130483082Y-122157971D02*
X130554510Y-122300828D01*
X130554510Y-122300828D02*
X130697368Y-122372257D01*
X130697368Y-122372257D02*
X131125939Y-122372257D01*
D11*
X119902381Y-112192914D02*
X119902381Y-111954819D01*
X119902381Y-111954819D02*
X119045238Y-111954819D01*
X119045238Y-111954819D02*
X119045238Y-112192914D01*
X119711904Y-111954819D02*
X119711904Y-110954819D01*
X119711904Y-110954819D02*
X119473809Y-110954819D01*
X119473809Y-110954819D02*
X119378571Y-111002438D01*
X119378571Y-111002438D02*
X119330952Y-111050057D01*
X119330952Y-111050057D02*
X119283333Y-111145295D01*
X119283333Y-111145295D02*
X119188095Y-111954819D01*
X120188095Y-110954819D02*
X120854761Y-110954819D01*
X120854761Y-110954819D02*
X120426190Y-111954819D01*
X107738095Y-114454819D02*
X107738095Y-113454819D01*
X108309523Y-114454819D02*
X107880952Y-113883390D01*
X108309523Y-113454819D02*
X107738095Y-114026247D01*
X137769523Y-95454819D02*
X137198095Y-95454819D01*
X137483809Y-95454819D02*
X137483809Y-94454819D01*
X137483809Y-94454819D02*
X137388571Y-94597676D01*
X137388571Y-94597676D02*
X137293333Y-94692914D01*
X137293333Y-94692914D02*
X137198095Y-94740533D01*
X138388571Y-94454819D02*
X138483809Y-94454819D01*
X138483809Y-94454819D02*
X138579047Y-94502438D01*
X138579047Y-94502438D02*
X138626666Y-94550057D01*
X138626666Y-94550057D02*
X138674285Y-94645295D01*
X138674285Y-94645295D02*
X138721904Y-94835771D01*
X138721904Y-94835771D02*
X138721904Y-95073866D01*
X138721904Y-95073866D02*
X138674285Y-95264342D01*
X138674285Y-95264342D02*
X138626666Y-95359580D01*
X138626666Y-95359580D02*
X138579047Y-95407200D01*
X138579047Y-95407200D02*
X138483809Y-95454819D01*
X138483809Y-95454819D02*
X138388571Y-95454819D01*
X138388571Y-95454819D02*
X138293333Y-95407200D01*
X138293333Y-95407200D02*
X138245714Y-95359580D01*
X138245714Y-95359580D02*
X138198095Y-95264342D01*
X138198095Y-95264342D02*
X138150476Y-95073866D01*
X138150476Y-95073866D02*
X138150476Y-94835771D01*
X138150476Y-94835771D02*
X138198095Y-94645295D01*
X138198095Y-94645295D02*
X138245714Y-94550057D01*
X138245714Y-94550057D02*
X138293333Y-94502438D01*
X138293333Y-94502438D02*
X138388571Y-94454819D01*
X139150476Y-95454819D02*
X139150476Y-94454819D01*
X139721904Y-95454819D02*
X139293333Y-94883390D01*
X139721904Y-94454819D02*
X139150476Y-95026247D01*
X117630952Y-84454819D02*
X117059524Y-84454819D01*
X117345238Y-84454819D02*
X117345238Y-83454819D01*
X117345238Y-83454819D02*
X117250000Y-83597676D01*
X117250000Y-83597676D02*
X117154762Y-83692914D01*
X117154762Y-83692914D02*
X117059524Y-83740533D01*
X118250000Y-83454819D02*
X118345238Y-83454819D01*
X118345238Y-83454819D02*
X118440476Y-83502438D01*
X118440476Y-83502438D02*
X118488095Y-83550057D01*
X118488095Y-83550057D02*
X118535714Y-83645295D01*
X118535714Y-83645295D02*
X118583333Y-83835771D01*
X118583333Y-83835771D02*
X118583333Y-84073866D01*
X118583333Y-84073866D02*
X118535714Y-84264342D01*
X118535714Y-84264342D02*
X118488095Y-84359580D01*
X118488095Y-84359580D02*
X118440476Y-84407200D01*
X118440476Y-84407200D02*
X118345238Y-84454819D01*
X118345238Y-84454819D02*
X118250000Y-84454819D01*
X118250000Y-84454819D02*
X118154762Y-84407200D01*
X118154762Y-84407200D02*
X118107143Y-84359580D01*
X118107143Y-84359580D02*
X118059524Y-84264342D01*
X118059524Y-84264342D02*
X118011905Y-84073866D01*
X118011905Y-84073866D02*
X118011905Y-83835771D01*
X118011905Y-83835771D02*
X118059524Y-83645295D01*
X118059524Y-83645295D02*
X118107143Y-83550057D01*
X118107143Y-83550057D02*
X118154762Y-83502438D01*
X118154762Y-83502438D02*
X118250000Y-83454819D01*
X119202381Y-83454819D02*
X119297619Y-83454819D01*
X119297619Y-83454819D02*
X119392857Y-83502438D01*
X119392857Y-83502438D02*
X119440476Y-83550057D01*
X119440476Y-83550057D02*
X119488095Y-83645295D01*
X119488095Y-83645295D02*
X119535714Y-83835771D01*
X119535714Y-83835771D02*
X119535714Y-84073866D01*
X119535714Y-84073866D02*
X119488095Y-84264342D01*
X119488095Y-84264342D02*
X119440476Y-84359580D01*
X119440476Y-84359580D02*
X119392857Y-84407200D01*
X119392857Y-84407200D02*
X119297619Y-84454819D01*
X119297619Y-84454819D02*
X119202381Y-84454819D01*
X119202381Y-84454819D02*
X119107143Y-84407200D01*
X119107143Y-84407200D02*
X119059524Y-84359580D01*
X119059524Y-84359580D02*
X119011905Y-84264342D01*
X119011905Y-84264342D02*
X118964286Y-84073866D01*
X118964286Y-84073866D02*
X118964286Y-83835771D01*
X118964286Y-83835771D02*
X119011905Y-83645295D01*
X119011905Y-83645295D02*
X119059524Y-83550057D01*
X119059524Y-83550057D02*
X119107143Y-83502438D01*
X119107143Y-83502438D02*
X119202381Y-83454819D01*
X119964286Y-83788152D02*
X119964286Y-84454819D01*
X119964286Y-83883390D02*
X120011905Y-83835771D01*
X120011905Y-83835771D02*
X120107143Y-83788152D01*
X120107143Y-83788152D02*
X120250000Y-83788152D01*
X120250000Y-83788152D02*
X120345238Y-83835771D01*
X120345238Y-83835771D02*
X120392857Y-83931009D01*
X120392857Y-83931009D02*
X120392857Y-84454819D01*
X102254819Y-100134285D02*
X102254819Y-100705713D01*
X102254819Y-100419999D02*
X101254819Y-100419999D01*
X101254819Y-100419999D02*
X101397676Y-100515237D01*
X101397676Y-100515237D02*
X101492914Y-100610475D01*
X101492914Y-100610475D02*
X101540533Y-100705713D01*
X102254819Y-99705713D02*
X101254819Y-99705713D01*
X102254819Y-99134285D02*
X101683390Y-99562856D01*
X101254819Y-99134285D02*
X101826247Y-99705713D01*
X100761904Y-114391009D02*
X100904761Y-114438628D01*
X100904761Y-114438628D02*
X100952380Y-114486247D01*
X100952380Y-114486247D02*
X100999999Y-114581485D01*
X100999999Y-114581485D02*
X100999999Y-114724342D01*
X100999999Y-114724342D02*
X100952380Y-114819580D01*
X100952380Y-114819580D02*
X100904761Y-114867200D01*
X100904761Y-114867200D02*
X100809523Y-114914819D01*
X100809523Y-114914819D02*
X100428571Y-114914819D01*
X100428571Y-114914819D02*
X100428571Y-113914819D01*
X100428571Y-113914819D02*
X100761904Y-113914819D01*
X100761904Y-113914819D02*
X100857142Y-113962438D01*
X100857142Y-113962438D02*
X100904761Y-114010057D01*
X100904761Y-114010057D02*
X100952380Y-114105295D01*
X100952380Y-114105295D02*
X100952380Y-114200533D01*
X100952380Y-114200533D02*
X100904761Y-114295771D01*
X100904761Y-114295771D02*
X100857142Y-114343390D01*
X100857142Y-114343390D02*
X100761904Y-114391009D01*
X100761904Y-114391009D02*
X100428571Y-114391009D01*
X101333333Y-114914819D02*
X101857142Y-114248152D01*
X101333333Y-114248152D02*
X101857142Y-114914819D01*
X102380952Y-114914819D02*
X102285714Y-114867200D01*
X102285714Y-114867200D02*
X102238095Y-114819580D01*
X102238095Y-114819580D02*
X102190476Y-114724342D01*
X102190476Y-114724342D02*
X102190476Y-114438628D01*
X102190476Y-114438628D02*
X102238095Y-114343390D01*
X102238095Y-114343390D02*
X102285714Y-114295771D01*
X102285714Y-114295771D02*
X102380952Y-114248152D01*
X102380952Y-114248152D02*
X102523809Y-114248152D01*
X102523809Y-114248152D02*
X102619047Y-114295771D01*
X102619047Y-114295771D02*
X102666666Y-114343390D01*
X102666666Y-114343390D02*
X102714285Y-114438628D01*
X102714285Y-114438628D02*
X102714285Y-114724342D01*
X102714285Y-114724342D02*
X102666666Y-114819580D01*
X102666666Y-114819580D02*
X102619047Y-114867200D01*
X102619047Y-114867200D02*
X102523809Y-114914819D01*
X102523809Y-114914819D02*
X102380952Y-114914819D01*
X103619047Y-114343390D02*
X103571428Y-114295771D01*
X103571428Y-114295771D02*
X103476190Y-114248152D01*
X103476190Y-114248152D02*
X103285714Y-114248152D01*
X103285714Y-114248152D02*
X103190476Y-114295771D01*
X103190476Y-114295771D02*
X103142857Y-114343390D01*
X103142857Y-114343390D02*
X103095238Y-114438628D01*
X103095238Y-114438628D02*
X103095238Y-114724342D01*
X103095238Y-114724342D02*
X103142857Y-114819580D01*
X103142857Y-114819580D02*
X103190476Y-114867200D01*
X103190476Y-114867200D02*
X103285714Y-114914819D01*
X103285714Y-114914819D02*
X103428571Y-114914819D01*
X103428571Y-114914819D02*
X103523809Y-114867200D01*
X103523809Y-114867200D02*
X103571428Y-114819580D01*
X103571428Y-114819580D02*
X103619047Y-114724342D01*
X103619047Y-114724342D02*
X103619047Y-114105295D01*
X103619047Y-114105295D02*
X103571428Y-114010057D01*
X103571428Y-114010057D02*
X103523809Y-113962438D01*
X103523809Y-113962438D02*
X103428571Y-113914819D01*
X103428571Y-113914819D02*
X103238095Y-113914819D01*
X103238095Y-113914819D02*
X103142857Y-113962438D01*
X119852381Y-90192914D02*
X119852381Y-89954819D01*
X119852381Y-89954819D02*
X118995238Y-89954819D01*
X118995238Y-89954819D02*
X118995238Y-90192914D01*
X119661904Y-89954819D02*
X119661904Y-88954819D01*
X119661904Y-88954819D02*
X119423809Y-88954819D01*
X119423809Y-88954819D02*
X119328571Y-89002438D01*
X119328571Y-89002438D02*
X119280952Y-89050057D01*
X119280952Y-89050057D02*
X119233333Y-89145295D01*
X119233333Y-89145295D02*
X119138095Y-89954819D01*
X120138095Y-88954819D02*
X120804761Y-88954819D01*
X120804761Y-88954819D02*
X120376190Y-89954819D01*
X107638095Y-92454819D02*
X107638095Y-91454819D01*
X108209523Y-92454819D02*
X107780952Y-91883390D01*
X108209523Y-91454819D02*
X107638095Y-92026247D01*
X138285714Y-104354819D02*
X137809524Y-104354819D01*
X137809524Y-104354819D02*
X137761905Y-104831009D01*
X137761905Y-104831009D02*
X137809524Y-104783390D01*
X137809524Y-104783390D02*
X137904762Y-104735771D01*
X137904762Y-104735771D02*
X138142857Y-104735771D01*
X138142857Y-104735771D02*
X138238095Y-104783390D01*
X138238095Y-104783390D02*
X138285714Y-104831009D01*
X138285714Y-104831009D02*
X138333333Y-104926247D01*
X138333333Y-104926247D02*
X138333333Y-105164342D01*
X138333333Y-105164342D02*
X138285714Y-105259580D01*
X138285714Y-105259580D02*
X138238095Y-105307200D01*
X138238095Y-105307200D02*
X138142857Y-105354819D01*
X138142857Y-105354819D02*
X137904762Y-105354819D01*
X137904762Y-105354819D02*
X137809524Y-105307200D01*
X137809524Y-105307200D02*
X137761905Y-105259580D01*
X139190476Y-104354819D02*
X139000000Y-104354819D01*
X139000000Y-104354819D02*
X138904762Y-104402438D01*
X138904762Y-104402438D02*
X138857143Y-104450057D01*
X138857143Y-104450057D02*
X138761905Y-104592914D01*
X138761905Y-104592914D02*
X138714286Y-104783390D01*
X138714286Y-104783390D02*
X138714286Y-105164342D01*
X138714286Y-105164342D02*
X138761905Y-105259580D01*
X138761905Y-105259580D02*
X138809524Y-105307200D01*
X138809524Y-105307200D02*
X138904762Y-105354819D01*
X138904762Y-105354819D02*
X139095238Y-105354819D01*
X139095238Y-105354819D02*
X139190476Y-105307200D01*
X139190476Y-105307200D02*
X139238095Y-105259580D01*
X139238095Y-105259580D02*
X139285714Y-105164342D01*
X139285714Y-105164342D02*
X139285714Y-104926247D01*
X139285714Y-104926247D02*
X139238095Y-104831009D01*
X139238095Y-104831009D02*
X139190476Y-104783390D01*
X139190476Y-104783390D02*
X139095238Y-104735771D01*
X139095238Y-104735771D02*
X138904762Y-104735771D01*
X138904762Y-104735771D02*
X138809524Y-104783390D01*
X138809524Y-104783390D02*
X138761905Y-104831009D01*
X138761905Y-104831009D02*
X138714286Y-104926247D01*
X139904762Y-104354819D02*
X140000000Y-104354819D01*
X140000000Y-104354819D02*
X140095238Y-104402438D01*
X140095238Y-104402438D02*
X140142857Y-104450057D01*
X140142857Y-104450057D02*
X140190476Y-104545295D01*
X140190476Y-104545295D02*
X140238095Y-104735771D01*
X140238095Y-104735771D02*
X140238095Y-104973866D01*
X140238095Y-104973866D02*
X140190476Y-105164342D01*
X140190476Y-105164342D02*
X140142857Y-105259580D01*
X140142857Y-105259580D02*
X140095238Y-105307200D01*
X140095238Y-105307200D02*
X140000000Y-105354819D01*
X140000000Y-105354819D02*
X139904762Y-105354819D01*
X139904762Y-105354819D02*
X139809524Y-105307200D01*
X139809524Y-105307200D02*
X139761905Y-105259580D01*
X139761905Y-105259580D02*
X139714286Y-105164342D01*
X139714286Y-105164342D02*
X139666667Y-104973866D01*
X139666667Y-104973866D02*
X139666667Y-104735771D01*
X139666667Y-104735771D02*
X139714286Y-104545295D01*
X139714286Y-104545295D02*
X139761905Y-104450057D01*
X139761905Y-104450057D02*
X139809524Y-104402438D01*
X139809524Y-104402438D02*
X139904762Y-104354819D01*
X102654819Y-87214285D02*
X102654819Y-87785713D01*
X102654819Y-87499999D02*
X101654819Y-87499999D01*
X101654819Y-87499999D02*
X101797676Y-87595237D01*
X101797676Y-87595237D02*
X101892914Y-87690475D01*
X101892914Y-87690475D02*
X101940533Y-87785713D01*
X102654819Y-86785713D02*
X101654819Y-86785713D01*
X102654819Y-86214285D02*
X102083390Y-86642856D01*
X101654819Y-86214285D02*
X102226247Y-86785713D01*
X117630952Y-106454819D02*
X117059524Y-106454819D01*
X117345238Y-106454819D02*
X117345238Y-105454819D01*
X117345238Y-105454819D02*
X117250000Y-105597676D01*
X117250000Y-105597676D02*
X117154762Y-105692914D01*
X117154762Y-105692914D02*
X117059524Y-105740533D01*
X118250000Y-105454819D02*
X118345238Y-105454819D01*
X118345238Y-105454819D02*
X118440476Y-105502438D01*
X118440476Y-105502438D02*
X118488095Y-105550057D01*
X118488095Y-105550057D02*
X118535714Y-105645295D01*
X118535714Y-105645295D02*
X118583333Y-105835771D01*
X118583333Y-105835771D02*
X118583333Y-106073866D01*
X118583333Y-106073866D02*
X118535714Y-106264342D01*
X118535714Y-106264342D02*
X118488095Y-106359580D01*
X118488095Y-106359580D02*
X118440476Y-106407200D01*
X118440476Y-106407200D02*
X118345238Y-106454819D01*
X118345238Y-106454819D02*
X118250000Y-106454819D01*
X118250000Y-106454819D02*
X118154762Y-106407200D01*
X118154762Y-106407200D02*
X118107143Y-106359580D01*
X118107143Y-106359580D02*
X118059524Y-106264342D01*
X118059524Y-106264342D02*
X118011905Y-106073866D01*
X118011905Y-106073866D02*
X118011905Y-105835771D01*
X118011905Y-105835771D02*
X118059524Y-105645295D01*
X118059524Y-105645295D02*
X118107143Y-105550057D01*
X118107143Y-105550057D02*
X118154762Y-105502438D01*
X118154762Y-105502438D02*
X118250000Y-105454819D01*
X119202381Y-105454819D02*
X119297619Y-105454819D01*
X119297619Y-105454819D02*
X119392857Y-105502438D01*
X119392857Y-105502438D02*
X119440476Y-105550057D01*
X119440476Y-105550057D02*
X119488095Y-105645295D01*
X119488095Y-105645295D02*
X119535714Y-105835771D01*
X119535714Y-105835771D02*
X119535714Y-106073866D01*
X119535714Y-106073866D02*
X119488095Y-106264342D01*
X119488095Y-106264342D02*
X119440476Y-106359580D01*
X119440476Y-106359580D02*
X119392857Y-106407200D01*
X119392857Y-106407200D02*
X119297619Y-106454819D01*
X119297619Y-106454819D02*
X119202381Y-106454819D01*
X119202381Y-106454819D02*
X119107143Y-106407200D01*
X119107143Y-106407200D02*
X119059524Y-106359580D01*
X119059524Y-106359580D02*
X119011905Y-106264342D01*
X119011905Y-106264342D02*
X118964286Y-106073866D01*
X118964286Y-106073866D02*
X118964286Y-105835771D01*
X118964286Y-105835771D02*
X119011905Y-105645295D01*
X119011905Y-105645295D02*
X119059524Y-105550057D01*
X119059524Y-105550057D02*
X119107143Y-105502438D01*
X119107143Y-105502438D02*
X119202381Y-105454819D01*
X119964286Y-105788152D02*
X119964286Y-106454819D01*
X119964286Y-105883390D02*
X120011905Y-105835771D01*
X120011905Y-105835771D02*
X120107143Y-105788152D01*
X120107143Y-105788152D02*
X120250000Y-105788152D01*
X120250000Y-105788152D02*
X120345238Y-105835771D01*
X120345238Y-105835771D02*
X120392857Y-105931009D01*
X120392857Y-105931009D02*
X120392857Y-106454819D01*
X151859580Y-114261905D02*
X151907200Y-114309524D01*
X151907200Y-114309524D02*
X151954819Y-114452381D01*
X151954819Y-114452381D02*
X151954819Y-114547619D01*
X151954819Y-114547619D02*
X151907200Y-114690476D01*
X151907200Y-114690476D02*
X151811961Y-114785714D01*
X151811961Y-114785714D02*
X151716723Y-114833333D01*
X151716723Y-114833333D02*
X151526247Y-114880952D01*
X151526247Y-114880952D02*
X151383390Y-114880952D01*
X151383390Y-114880952D02*
X151192914Y-114833333D01*
X151192914Y-114833333D02*
X151097676Y-114785714D01*
X151097676Y-114785714D02*
X151002438Y-114690476D01*
X151002438Y-114690476D02*
X150954819Y-114547619D01*
X150954819Y-114547619D02*
X150954819Y-114452381D01*
X150954819Y-114452381D02*
X151002438Y-114309524D01*
X151002438Y-114309524D02*
X151050057Y-114261905D01*
X151288152Y-113976190D02*
X151288152Y-113500000D01*
X151288152Y-113738095D02*
X151954819Y-113738095D01*
X151954819Y-112738095D02*
X151431009Y-112738095D01*
X151431009Y-112738095D02*
X151335771Y-112785714D01*
X151335771Y-112785714D02*
X151288152Y-112880952D01*
X151288152Y-112880952D02*
X151288152Y-113071428D01*
X151288152Y-113071428D02*
X151335771Y-113166666D01*
X151907200Y-112738095D02*
X151954819Y-112833333D01*
X151954819Y-112833333D02*
X151954819Y-113071428D01*
X151954819Y-113071428D02*
X151907200Y-113166666D01*
X151907200Y-113166666D02*
X151811961Y-113214285D01*
X151811961Y-113214285D02*
X151716723Y-113214285D01*
X151716723Y-113214285D02*
X151621485Y-113166666D01*
X151621485Y-113166666D02*
X151573866Y-113071428D01*
X151573866Y-113071428D02*
X151573866Y-112833333D01*
X151573866Y-112833333D02*
X151526247Y-112738095D01*
X150907200Y-111785714D02*
X150954819Y-111833333D01*
X150954819Y-111833333D02*
X151002438Y-111928571D01*
X151002438Y-111928571D02*
X151002438Y-112119047D01*
X151002438Y-112119047D02*
X151050057Y-112214285D01*
X151050057Y-112214285D02*
X151097676Y-112261904D01*
X151097676Y-112261904D02*
X151192914Y-112309523D01*
X151192914Y-112309523D02*
X151764342Y-112309523D01*
X151764342Y-112309523D02*
X151859580Y-112261904D01*
X151859580Y-112261904D02*
X151907200Y-112214285D01*
X151907200Y-112214285D02*
X151954819Y-112119047D01*
X151954819Y-112119047D02*
X151954819Y-111976190D01*
X151954819Y-111976190D02*
X151907200Y-111880952D01*
X151907200Y-111880952D02*
X151859580Y-111833333D01*
X151859580Y-111833333D02*
X151764342Y-111785714D01*
X151764342Y-111785714D02*
X151478628Y-111785714D01*
X151478628Y-111785714D02*
X151383390Y-111833333D01*
X151383390Y-111833333D02*
X151335771Y-111880952D01*
X151335771Y-111880952D02*
X151288152Y-111976190D01*
X151288152Y-111976190D02*
X151288152Y-112166666D01*
X151288152Y-112166666D02*
X151335771Y-112261904D01*
X151335771Y-112261904D02*
X151383390Y-112309523D01*
X151954819Y-110071428D02*
X151954819Y-110642856D01*
X151954819Y-110357142D02*
X150954819Y-110357142D01*
X150954819Y-110357142D02*
X151097676Y-110452380D01*
X151097676Y-110452380D02*
X151192914Y-110547618D01*
X151192914Y-110547618D02*
X151240533Y-110642856D01*
X150954819Y-109452380D02*
X150954819Y-109357142D01*
X150954819Y-109357142D02*
X151002438Y-109261904D01*
X151002438Y-109261904D02*
X151050057Y-109214285D01*
X151050057Y-109214285D02*
X151145295Y-109166666D01*
X151145295Y-109166666D02*
X151335771Y-109119047D01*
X151335771Y-109119047D02*
X151573866Y-109119047D01*
X151573866Y-109119047D02*
X151764342Y-109166666D01*
X151764342Y-109166666D02*
X151859580Y-109214285D01*
X151859580Y-109214285D02*
X151907200Y-109261904D01*
X151907200Y-109261904D02*
X151954819Y-109357142D01*
X151954819Y-109357142D02*
X151954819Y-109452380D01*
X151954819Y-109452380D02*
X151907200Y-109547618D01*
X151907200Y-109547618D02*
X151859580Y-109595237D01*
X151859580Y-109595237D02*
X151764342Y-109642856D01*
X151764342Y-109642856D02*
X151573866Y-109690475D01*
X151573866Y-109690475D02*
X151335771Y-109690475D01*
X151335771Y-109690475D02*
X151145295Y-109642856D01*
X151145295Y-109642856D02*
X151050057Y-109595237D01*
X151050057Y-109595237D02*
X151002438Y-109547618D01*
X151002438Y-109547618D02*
X150954819Y-109452380D01*
X151431009Y-108357142D02*
X151478628Y-108214285D01*
X151478628Y-108214285D02*
X151526247Y-108166666D01*
X151526247Y-108166666D02*
X151621485Y-108119047D01*
X151621485Y-108119047D02*
X151764342Y-108119047D01*
X151764342Y-108119047D02*
X151859580Y-108166666D01*
X151859580Y-108166666D02*
X151907200Y-108214285D01*
X151907200Y-108214285D02*
X151954819Y-108309523D01*
X151954819Y-108309523D02*
X151954819Y-108690475D01*
X151954819Y-108690475D02*
X150954819Y-108690475D01*
X150954819Y-108690475D02*
X150954819Y-108357142D01*
X150954819Y-108357142D02*
X151002438Y-108261904D01*
X151002438Y-108261904D02*
X151050057Y-108214285D01*
X151050057Y-108214285D02*
X151145295Y-108166666D01*
X151145295Y-108166666D02*
X151240533Y-108166666D01*
X151240533Y-108166666D02*
X151335771Y-108214285D01*
X151335771Y-108214285D02*
X151383390Y-108261904D01*
X151383390Y-108261904D02*
X151431009Y-108357142D01*
X151431009Y-108357142D02*
X151431009Y-108690475D01*
X146754819Y-120761904D02*
X145754819Y-120761904D01*
X146754819Y-120190476D02*
X146183390Y-120619047D01*
X145754819Y-120190476D02*
X146326247Y-120761904D01*
X134559523Y-81538152D02*
X134559523Y-82204819D01*
X134321428Y-81157200D02*
X134083333Y-81871485D01*
X134083333Y-81871485D02*
X134702380Y-81871485D01*
X134988095Y-81204819D02*
X135654761Y-81204819D01*
X135654761Y-81204819D02*
X135226190Y-82204819D01*
X136226190Y-81204819D02*
X136321428Y-81204819D01*
X136321428Y-81204819D02*
X136416666Y-81252438D01*
X136416666Y-81252438D02*
X136464285Y-81300057D01*
X136464285Y-81300057D02*
X136511904Y-81395295D01*
X136511904Y-81395295D02*
X136559523Y-81585771D01*
X136559523Y-81585771D02*
X136559523Y-81823866D01*
X136559523Y-81823866D02*
X136511904Y-82014342D01*
X136511904Y-82014342D02*
X136464285Y-82109580D01*
X136464285Y-82109580D02*
X136416666Y-82157200D01*
X136416666Y-82157200D02*
X136321428Y-82204819D01*
X136321428Y-82204819D02*
X136226190Y-82204819D01*
X136226190Y-82204819D02*
X136130952Y-82157200D01*
X136130952Y-82157200D02*
X136083333Y-82109580D01*
X136083333Y-82109580D02*
X136035714Y-82014342D01*
X136035714Y-82014342D02*
X135988095Y-81823866D01*
X135988095Y-81823866D02*
X135988095Y-81585771D01*
X135988095Y-81585771D02*
X136035714Y-81395295D01*
X136035714Y-81395295D02*
X136083333Y-81300057D01*
X136083333Y-81300057D02*
X136130952Y-81252438D01*
X136130952Y-81252438D02*
X136226190Y-81204819D01*
X136988095Y-82204819D02*
X136988095Y-81204819D01*
X136988095Y-81204819D02*
X137321428Y-81919104D01*
X137321428Y-81919104D02*
X137654761Y-81204819D01*
X137654761Y-81204819D02*
X137654761Y-82204819D01*
X138416666Y-81204819D02*
X138416666Y-82538152D01*
X138321428Y-81538152D02*
X138511904Y-81538152D01*
X138511904Y-81538152D02*
X138607142Y-81585771D01*
X138607142Y-81585771D02*
X138702380Y-81681009D01*
X138702380Y-81681009D02*
X138749999Y-81776247D01*
X138749999Y-81776247D02*
X138749999Y-81966723D01*
X138749999Y-81966723D02*
X138702380Y-82061961D01*
X138702380Y-82061961D02*
X138607142Y-82157200D01*
X138607142Y-82157200D02*
X138511904Y-82204819D01*
X138511904Y-82204819D02*
X138321428Y-82204819D01*
X138321428Y-82204819D02*
X138226190Y-82157200D01*
X138226190Y-82157200D02*
X138130952Y-82061961D01*
X138130952Y-82061961D02*
X138083333Y-81966723D01*
X138083333Y-81966723D02*
X138083333Y-81776247D01*
X138083333Y-81776247D02*
X138130952Y-81681009D01*
X138130952Y-81681009D02*
X138226190Y-81585771D01*
X138226190Y-81585771D02*
X138321428Y-81538152D01*
X140464285Y-82204819D02*
X139892857Y-82204819D01*
X140178571Y-82204819D02*
X140178571Y-81204819D01*
X140178571Y-81204819D02*
X140083333Y-81347676D01*
X140083333Y-81347676D02*
X139988095Y-81442914D01*
X139988095Y-81442914D02*
X139892857Y-81490533D01*
X141369047Y-81204819D02*
X140892857Y-81204819D01*
X140892857Y-81204819D02*
X140845238Y-81681009D01*
X140845238Y-81681009D02*
X140892857Y-81633390D01*
X140892857Y-81633390D02*
X140988095Y-81585771D01*
X140988095Y-81585771D02*
X141226190Y-81585771D01*
X141226190Y-81585771D02*
X141321428Y-81633390D01*
X141321428Y-81633390D02*
X141369047Y-81681009D01*
X141369047Y-81681009D02*
X141416666Y-81776247D01*
X141416666Y-81776247D02*
X141416666Y-82014342D01*
X141416666Y-82014342D02*
X141369047Y-82109580D01*
X141369047Y-82109580D02*
X141321428Y-82157200D01*
X141321428Y-82157200D02*
X141226190Y-82204819D01*
X141226190Y-82204819D02*
X140988095Y-82204819D01*
X140988095Y-82204819D02*
X140892857Y-82157200D01*
X140892857Y-82157200D02*
X140845238Y-82109580D01*
X142178571Y-81681009D02*
X142321428Y-81728628D01*
X142321428Y-81728628D02*
X142369047Y-81776247D01*
X142369047Y-81776247D02*
X142416666Y-81871485D01*
X142416666Y-81871485D02*
X142416666Y-82014342D01*
X142416666Y-82014342D02*
X142369047Y-82109580D01*
X142369047Y-82109580D02*
X142321428Y-82157200D01*
X142321428Y-82157200D02*
X142226190Y-82204819D01*
X142226190Y-82204819D02*
X141845238Y-82204819D01*
X141845238Y-82204819D02*
X141845238Y-81204819D01*
X141845238Y-81204819D02*
X142178571Y-81204819D01*
X142178571Y-81204819D02*
X142273809Y-81252438D01*
X142273809Y-81252438D02*
X142321428Y-81300057D01*
X142321428Y-81300057D02*
X142369047Y-81395295D01*
X142369047Y-81395295D02*
X142369047Y-81490533D01*
X142369047Y-81490533D02*
X142321428Y-81585771D01*
X142321428Y-81585771D02*
X142273809Y-81633390D01*
X142273809Y-81633390D02*
X142178571Y-81681009D01*
X142178571Y-81681009D02*
X141845238Y-81681009D01*
X136285714Y-79454819D02*
X136285714Y-78454819D01*
X136285714Y-78454819D02*
X136857142Y-78454819D01*
X136857142Y-78454819D02*
X136857142Y-79454819D01*
X137285714Y-78550057D02*
X137333333Y-78502438D01*
X137333333Y-78502438D02*
X137428571Y-78454819D01*
X137428571Y-78454819D02*
X137666666Y-78454819D01*
X137666666Y-78454819D02*
X137761904Y-78502438D01*
X137761904Y-78502438D02*
X137809523Y-78550057D01*
X137809523Y-78550057D02*
X137857142Y-78645295D01*
X137857142Y-78645295D02*
X137857142Y-78740533D01*
X137857142Y-78740533D02*
X137809523Y-78883390D01*
X137809523Y-78883390D02*
X137238095Y-79454819D01*
X137238095Y-79454819D02*
X137857142Y-79454819D01*
X138809523Y-79454819D02*
X138238095Y-79454819D01*
X138523809Y-79454819D02*
X138523809Y-78454819D01*
X138523809Y-78454819D02*
X138428571Y-78597676D01*
X138428571Y-78597676D02*
X138333333Y-78692914D01*
X138333333Y-78692914D02*
X138238095Y-78740533D01*
X139666666Y-78788152D02*
X139666666Y-79454819D01*
X139428571Y-78407200D02*
X139190476Y-79121485D01*
X139190476Y-79121485D02*
X139809523Y-79121485D01*
D12*
X138377580Y-74030074D02*
X138377580Y-73553884D01*
X138377580Y-73553884D02*
X137377580Y-73553884D01*
X137377580Y-73553884D02*
X137377580Y-73839598D01*
X137377580Y-73839598D02*
X137425200Y-73982455D01*
X137425200Y-73982455D02*
X137520438Y-74077693D01*
X137520438Y-74077693D02*
X137615676Y-74125312D01*
X137615676Y-74125312D02*
X137758533Y-74125312D01*
X137758533Y-74125312D02*
X137853771Y-74077693D01*
X137853771Y-74077693D02*
X137949009Y-73982455D01*
X137949009Y-73982455D02*
X137996628Y-73839598D01*
X137996628Y-73839598D02*
X137996628Y-73553884D01*
X134877580Y-73553884D02*
X135877580Y-73553884D01*
X134877580Y-74125312D02*
X135449009Y-73696741D01*
X135877580Y-74125312D02*
X135306152Y-73553884D01*
X140353771Y-74125312D02*
X140353771Y-73649122D01*
X140782342Y-73506265D02*
X140829961Y-73553884D01*
X140829961Y-73553884D02*
X140877580Y-73696741D01*
X140877580Y-73696741D02*
X140877580Y-73791979D01*
X140877580Y-73791979D02*
X140829961Y-73934836D01*
X140829961Y-73934836D02*
X140734723Y-74030074D01*
X140734723Y-74030074D02*
X140639485Y-74077693D01*
X140639485Y-74077693D02*
X140449009Y-74125312D01*
X140449009Y-74125312D02*
X140306152Y-74125312D01*
X140306152Y-74125312D02*
X140115676Y-74077693D01*
X140115676Y-74077693D02*
X140020438Y-74030074D01*
X140020438Y-74030074D02*
X139925200Y-73934836D01*
X139925200Y-73934836D02*
X139877580Y-73791979D01*
X139877580Y-73791979D02*
X139877580Y-73696741D01*
X139877580Y-73696741D02*
X139925200Y-73553884D01*
X139925200Y-73553884D02*
X139972819Y-73506265D01*
D11*
X149130952Y-95954819D02*
X148559524Y-95954819D01*
X148845238Y-95954819D02*
X148845238Y-94954819D01*
X148845238Y-94954819D02*
X148750000Y-95097676D01*
X148750000Y-95097676D02*
X148654762Y-95192914D01*
X148654762Y-95192914D02*
X148559524Y-95240533D01*
X149750000Y-94954819D02*
X149845238Y-94954819D01*
X149845238Y-94954819D02*
X149940476Y-95002438D01*
X149940476Y-95002438D02*
X149988095Y-95050057D01*
X149988095Y-95050057D02*
X150035714Y-95145295D01*
X150035714Y-95145295D02*
X150083333Y-95335771D01*
X150083333Y-95335771D02*
X150083333Y-95573866D01*
X150083333Y-95573866D02*
X150035714Y-95764342D01*
X150035714Y-95764342D02*
X149988095Y-95859580D01*
X149988095Y-95859580D02*
X149940476Y-95907200D01*
X149940476Y-95907200D02*
X149845238Y-95954819D01*
X149845238Y-95954819D02*
X149750000Y-95954819D01*
X149750000Y-95954819D02*
X149654762Y-95907200D01*
X149654762Y-95907200D02*
X149607143Y-95859580D01*
X149607143Y-95859580D02*
X149559524Y-95764342D01*
X149559524Y-95764342D02*
X149511905Y-95573866D01*
X149511905Y-95573866D02*
X149511905Y-95335771D01*
X149511905Y-95335771D02*
X149559524Y-95145295D01*
X149559524Y-95145295D02*
X149607143Y-95050057D01*
X149607143Y-95050057D02*
X149654762Y-95002438D01*
X149654762Y-95002438D02*
X149750000Y-94954819D01*
X150702381Y-94954819D02*
X150797619Y-94954819D01*
X150797619Y-94954819D02*
X150892857Y-95002438D01*
X150892857Y-95002438D02*
X150940476Y-95050057D01*
X150940476Y-95050057D02*
X150988095Y-95145295D01*
X150988095Y-95145295D02*
X151035714Y-95335771D01*
X151035714Y-95335771D02*
X151035714Y-95573866D01*
X151035714Y-95573866D02*
X150988095Y-95764342D01*
X150988095Y-95764342D02*
X150940476Y-95859580D01*
X150940476Y-95859580D02*
X150892857Y-95907200D01*
X150892857Y-95907200D02*
X150797619Y-95954819D01*
X150797619Y-95954819D02*
X150702381Y-95954819D01*
X150702381Y-95954819D02*
X150607143Y-95907200D01*
X150607143Y-95907200D02*
X150559524Y-95859580D01*
X150559524Y-95859580D02*
X150511905Y-95764342D01*
X150511905Y-95764342D02*
X150464286Y-95573866D01*
X150464286Y-95573866D02*
X150464286Y-95335771D01*
X150464286Y-95335771D02*
X150511905Y-95145295D01*
X150511905Y-95145295D02*
X150559524Y-95050057D01*
X150559524Y-95050057D02*
X150607143Y-95002438D01*
X150607143Y-95002438D02*
X150702381Y-94954819D01*
X151464286Y-95288152D02*
X151464286Y-95954819D01*
X151464286Y-95383390D02*
X151511905Y-95335771D01*
X151511905Y-95335771D02*
X151607143Y-95288152D01*
X151607143Y-95288152D02*
X151750000Y-95288152D01*
X151750000Y-95288152D02*
X151845238Y-95335771D01*
X151845238Y-95335771D02*
X151892857Y-95431009D01*
X151892857Y-95431009D02*
X151892857Y-95954819D01*
X145690476Y-78931009D02*
X145833333Y-78978628D01*
X145833333Y-78978628D02*
X145880952Y-79026247D01*
X145880952Y-79026247D02*
X145928571Y-79121485D01*
X145928571Y-79121485D02*
X145928571Y-79264342D01*
X145928571Y-79264342D02*
X145880952Y-79359580D01*
X145880952Y-79359580D02*
X145833333Y-79407200D01*
X145833333Y-79407200D02*
X145738095Y-79454819D01*
X145738095Y-79454819D02*
X145357143Y-79454819D01*
X145357143Y-79454819D02*
X145357143Y-78454819D01*
X145357143Y-78454819D02*
X145690476Y-78454819D01*
X145690476Y-78454819D02*
X145785714Y-78502438D01*
X145785714Y-78502438D02*
X145833333Y-78550057D01*
X145833333Y-78550057D02*
X145880952Y-78645295D01*
X145880952Y-78645295D02*
X145880952Y-78740533D01*
X145880952Y-78740533D02*
X145833333Y-78835771D01*
X145833333Y-78835771D02*
X145785714Y-78883390D01*
X145785714Y-78883390D02*
X145690476Y-78931009D01*
X145690476Y-78931009D02*
X145357143Y-78931009D01*
X147023809Y-78788152D02*
X147023809Y-79454819D01*
X146357143Y-78788152D02*
X146357143Y-79454819D01*
X146357143Y-79454819D02*
X146595238Y-79454819D01*
X146595238Y-79454819D02*
X146690476Y-79407200D01*
X146690476Y-79407200D02*
X146738095Y-79311961D01*
X146738095Y-79311961D02*
X146738095Y-79169104D01*
X146738095Y-79169104D02*
X146690476Y-79073866D01*
X146690476Y-79073866D02*
X146595238Y-79026247D01*
X146595238Y-79026247D02*
X146357143Y-79026247D01*
X147404762Y-79454819D02*
X147928571Y-78788152D01*
X147404762Y-78788152D02*
X147928571Y-79454819D01*
X148452381Y-79454819D02*
X148357143Y-79407200D01*
X148357143Y-79407200D02*
X148309524Y-79359580D01*
X148309524Y-79359580D02*
X148261905Y-79264342D01*
X148261905Y-79264342D02*
X148261905Y-78978628D01*
X148261905Y-78978628D02*
X148309524Y-78883390D01*
X148309524Y-78883390D02*
X148357143Y-78835771D01*
X148357143Y-78835771D02*
X148452381Y-78788152D01*
X148452381Y-78788152D02*
X148595238Y-78788152D01*
X148595238Y-78788152D02*
X148690476Y-78835771D01*
X148690476Y-78835771D02*
X148738095Y-78883390D01*
X148738095Y-78883390D02*
X148785714Y-78978628D01*
X148785714Y-78978628D02*
X148785714Y-79264342D01*
X148785714Y-79264342D02*
X148738095Y-79359580D01*
X148738095Y-79359580D02*
X148690476Y-79407200D01*
X148690476Y-79407200D02*
X148595238Y-79454819D01*
X148595238Y-79454819D02*
X148452381Y-79454819D01*
X149690476Y-78883390D02*
X149642857Y-78835771D01*
X149642857Y-78835771D02*
X149547619Y-78788152D01*
X149547619Y-78788152D02*
X149357143Y-78788152D01*
X149357143Y-78788152D02*
X149261905Y-78835771D01*
X149261905Y-78835771D02*
X149214286Y-78883390D01*
X149214286Y-78883390D02*
X149166667Y-78978628D01*
X149166667Y-78978628D02*
X149166667Y-79264342D01*
X149166667Y-79264342D02*
X149214286Y-79359580D01*
X149214286Y-79359580D02*
X149261905Y-79407200D01*
X149261905Y-79407200D02*
X149357143Y-79454819D01*
X149357143Y-79454819D02*
X149500000Y-79454819D01*
X149500000Y-79454819D02*
X149595238Y-79407200D01*
X149595238Y-79407200D02*
X149642857Y-79359580D01*
X149642857Y-79359580D02*
X149690476Y-79264342D01*
X149690476Y-79264342D02*
X149690476Y-78645295D01*
X149690476Y-78645295D02*
X149642857Y-78550057D01*
X149642857Y-78550057D02*
X149595238Y-78502438D01*
X149595238Y-78502438D02*
X149500000Y-78454819D01*
X149500000Y-78454819D02*
X149309524Y-78454819D01*
X149309524Y-78454819D02*
X149214286Y-78502438D01*
D12*
X143751466Y-76296115D02*
X143751466Y-75534211D01*
X144132419Y-75915163D02*
X143370514Y-75915163D01*
D11*
X117630952Y-117454819D02*
X117059524Y-117454819D01*
X117345238Y-117454819D02*
X117345238Y-116454819D01*
X117345238Y-116454819D02*
X117250000Y-116597676D01*
X117250000Y-116597676D02*
X117154762Y-116692914D01*
X117154762Y-116692914D02*
X117059524Y-116740533D01*
X118250000Y-116454819D02*
X118345238Y-116454819D01*
X118345238Y-116454819D02*
X118440476Y-116502438D01*
X118440476Y-116502438D02*
X118488095Y-116550057D01*
X118488095Y-116550057D02*
X118535714Y-116645295D01*
X118535714Y-116645295D02*
X118583333Y-116835771D01*
X118583333Y-116835771D02*
X118583333Y-117073866D01*
X118583333Y-117073866D02*
X118535714Y-117264342D01*
X118535714Y-117264342D02*
X118488095Y-117359580D01*
X118488095Y-117359580D02*
X118440476Y-117407200D01*
X118440476Y-117407200D02*
X118345238Y-117454819D01*
X118345238Y-117454819D02*
X118250000Y-117454819D01*
X118250000Y-117454819D02*
X118154762Y-117407200D01*
X118154762Y-117407200D02*
X118107143Y-117359580D01*
X118107143Y-117359580D02*
X118059524Y-117264342D01*
X118059524Y-117264342D02*
X118011905Y-117073866D01*
X118011905Y-117073866D02*
X118011905Y-116835771D01*
X118011905Y-116835771D02*
X118059524Y-116645295D01*
X118059524Y-116645295D02*
X118107143Y-116550057D01*
X118107143Y-116550057D02*
X118154762Y-116502438D01*
X118154762Y-116502438D02*
X118250000Y-116454819D01*
X119202381Y-116454819D02*
X119297619Y-116454819D01*
X119297619Y-116454819D02*
X119392857Y-116502438D01*
X119392857Y-116502438D02*
X119440476Y-116550057D01*
X119440476Y-116550057D02*
X119488095Y-116645295D01*
X119488095Y-116645295D02*
X119535714Y-116835771D01*
X119535714Y-116835771D02*
X119535714Y-117073866D01*
X119535714Y-117073866D02*
X119488095Y-117264342D01*
X119488095Y-117264342D02*
X119440476Y-117359580D01*
X119440476Y-117359580D02*
X119392857Y-117407200D01*
X119392857Y-117407200D02*
X119297619Y-117454819D01*
X119297619Y-117454819D02*
X119202381Y-117454819D01*
X119202381Y-117454819D02*
X119107143Y-117407200D01*
X119107143Y-117407200D02*
X119059524Y-117359580D01*
X119059524Y-117359580D02*
X119011905Y-117264342D01*
X119011905Y-117264342D02*
X118964286Y-117073866D01*
X118964286Y-117073866D02*
X118964286Y-116835771D01*
X118964286Y-116835771D02*
X119011905Y-116645295D01*
X119011905Y-116645295D02*
X119059524Y-116550057D01*
X119059524Y-116550057D02*
X119107143Y-116502438D01*
X119107143Y-116502438D02*
X119202381Y-116454819D01*
X119964286Y-116788152D02*
X119964286Y-117454819D01*
X119964286Y-116883390D02*
X120011905Y-116835771D01*
X120011905Y-116835771D02*
X120107143Y-116788152D01*
X120107143Y-116788152D02*
X120250000Y-116788152D01*
X120250000Y-116788152D02*
X120345238Y-116835771D01*
X120345238Y-116835771D02*
X120392857Y-116931009D01*
X120392857Y-116931009D02*
X120392857Y-117454819D01*
X118002381Y-101192914D02*
X118002381Y-100954819D01*
X118002381Y-100954819D02*
X117145238Y-100954819D01*
X117145238Y-100954819D02*
X117145238Y-101192914D01*
X117811904Y-100954819D02*
X117811904Y-99954819D01*
X117811904Y-99954819D02*
X117573809Y-99954819D01*
X117573809Y-99954819D02*
X117478571Y-100002438D01*
X117478571Y-100002438D02*
X117430952Y-100050057D01*
X117430952Y-100050057D02*
X117383333Y-100145295D01*
X117383333Y-100145295D02*
X117288095Y-100954819D01*
X118288095Y-99954819D02*
X118954761Y-99954819D01*
X118954761Y-99954819D02*
X118526190Y-100954819D01*
X129838095Y-103454819D02*
X129838095Y-102454819D01*
X130409523Y-103454819D02*
X129980952Y-102883390D01*
X130409523Y-102454819D02*
X129838095Y-103026247D01*
X118502381Y-79192914D02*
X118502381Y-78954819D01*
X118502381Y-78954819D02*
X117645238Y-78954819D01*
X117645238Y-78954819D02*
X117645238Y-79192914D01*
X118311904Y-78954819D02*
X118311904Y-77954819D01*
X118311904Y-77954819D02*
X118073809Y-77954819D01*
X118073809Y-77954819D02*
X117978571Y-78002438D01*
X117978571Y-78002438D02*
X117930952Y-78050057D01*
X117930952Y-78050057D02*
X117883333Y-78145295D01*
X117883333Y-78145295D02*
X117788095Y-78954819D01*
X118788095Y-77954819D02*
X119454761Y-77954819D01*
X119454761Y-77954819D02*
X119026190Y-78954819D01*
X130238095Y-81454819D02*
X130238095Y-80454819D01*
X130809523Y-81454819D02*
X130380952Y-80883390D01*
X130809523Y-80454819D02*
X130238095Y-81026247D01*
X117630952Y-95454819D02*
X117059524Y-95454819D01*
X117345238Y-95454819D02*
X117345238Y-94454819D01*
X117345238Y-94454819D02*
X117250000Y-94597676D01*
X117250000Y-94597676D02*
X117154762Y-94692914D01*
X117154762Y-94692914D02*
X117059524Y-94740533D01*
X118250000Y-94454819D02*
X118345238Y-94454819D01*
X118345238Y-94454819D02*
X118440476Y-94502438D01*
X118440476Y-94502438D02*
X118488095Y-94550057D01*
X118488095Y-94550057D02*
X118535714Y-94645295D01*
X118535714Y-94645295D02*
X118583333Y-94835771D01*
X118583333Y-94835771D02*
X118583333Y-95073866D01*
X118583333Y-95073866D02*
X118535714Y-95264342D01*
X118535714Y-95264342D02*
X118488095Y-95359580D01*
X118488095Y-95359580D02*
X118440476Y-95407200D01*
X118440476Y-95407200D02*
X118345238Y-95454819D01*
X118345238Y-95454819D02*
X118250000Y-95454819D01*
X118250000Y-95454819D02*
X118154762Y-95407200D01*
X118154762Y-95407200D02*
X118107143Y-95359580D01*
X118107143Y-95359580D02*
X118059524Y-95264342D01*
X118059524Y-95264342D02*
X118011905Y-95073866D01*
X118011905Y-95073866D02*
X118011905Y-94835771D01*
X118011905Y-94835771D02*
X118059524Y-94645295D01*
X118059524Y-94645295D02*
X118107143Y-94550057D01*
X118107143Y-94550057D02*
X118154762Y-94502438D01*
X118154762Y-94502438D02*
X118250000Y-94454819D01*
X119202381Y-94454819D02*
X119297619Y-94454819D01*
X119297619Y-94454819D02*
X119392857Y-94502438D01*
X119392857Y-94502438D02*
X119440476Y-94550057D01*
X119440476Y-94550057D02*
X119488095Y-94645295D01*
X119488095Y-94645295D02*
X119535714Y-94835771D01*
X119535714Y-94835771D02*
X119535714Y-95073866D01*
X119535714Y-95073866D02*
X119488095Y-95264342D01*
X119488095Y-95264342D02*
X119440476Y-95359580D01*
X119440476Y-95359580D02*
X119392857Y-95407200D01*
X119392857Y-95407200D02*
X119297619Y-95454819D01*
X119297619Y-95454819D02*
X119202381Y-95454819D01*
X119202381Y-95454819D02*
X119107143Y-95407200D01*
X119107143Y-95407200D02*
X119059524Y-95359580D01*
X119059524Y-95359580D02*
X119011905Y-95264342D01*
X119011905Y-95264342D02*
X118964286Y-95073866D01*
X118964286Y-95073866D02*
X118964286Y-94835771D01*
X118964286Y-94835771D02*
X119011905Y-94645295D01*
X119011905Y-94645295D02*
X119059524Y-94550057D01*
X119059524Y-94550057D02*
X119107143Y-94502438D01*
X119107143Y-94502438D02*
X119202381Y-94454819D01*
X119964286Y-94788152D02*
X119964286Y-95454819D01*
X119964286Y-94883390D02*
X120011905Y-94835771D01*
X120011905Y-94835771D02*
X120107143Y-94788152D01*
X120107143Y-94788152D02*
X120250000Y-94788152D01*
X120250000Y-94788152D02*
X120345238Y-94835771D01*
X120345238Y-94835771D02*
X120392857Y-94931009D01*
X120392857Y-94931009D02*
X120392857Y-95454819D01*
X156320452Y-91190476D02*
X156987119Y-91190476D01*
X155939500Y-91428571D02*
X156653785Y-91666666D01*
X156653785Y-91666666D02*
X156653785Y-91047619D01*
X155987119Y-90761904D02*
X155987119Y-90095238D01*
X155987119Y-90095238D02*
X156987119Y-90523809D01*
X155987119Y-89523809D02*
X155987119Y-89428571D01*
X155987119Y-89428571D02*
X156034738Y-89333333D01*
X156034738Y-89333333D02*
X156082357Y-89285714D01*
X156082357Y-89285714D02*
X156177595Y-89238095D01*
X156177595Y-89238095D02*
X156368071Y-89190476D01*
X156368071Y-89190476D02*
X156606166Y-89190476D01*
X156606166Y-89190476D02*
X156796642Y-89238095D01*
X156796642Y-89238095D02*
X156891880Y-89285714D01*
X156891880Y-89285714D02*
X156939500Y-89333333D01*
X156939500Y-89333333D02*
X156987119Y-89428571D01*
X156987119Y-89428571D02*
X156987119Y-89523809D01*
X156987119Y-89523809D02*
X156939500Y-89619047D01*
X156939500Y-89619047D02*
X156891880Y-89666666D01*
X156891880Y-89666666D02*
X156796642Y-89714285D01*
X156796642Y-89714285D02*
X156606166Y-89761904D01*
X156606166Y-89761904D02*
X156368071Y-89761904D01*
X156368071Y-89761904D02*
X156177595Y-89714285D01*
X156177595Y-89714285D02*
X156082357Y-89666666D01*
X156082357Y-89666666D02*
X156034738Y-89619047D01*
X156034738Y-89619047D02*
X155987119Y-89523809D01*
X156987119Y-88761904D02*
X155987119Y-88761904D01*
X155987119Y-88761904D02*
X156701404Y-88428571D01*
X156701404Y-88428571D02*
X155987119Y-88095238D01*
X155987119Y-88095238D02*
X156987119Y-88095238D01*
X155987119Y-87333333D02*
X157320452Y-87333333D01*
X156320452Y-87428571D02*
X156320452Y-87238095D01*
X156320452Y-87238095D02*
X156368071Y-87142857D01*
X156368071Y-87142857D02*
X156463309Y-87047619D01*
X156463309Y-87047619D02*
X156558547Y-87000000D01*
X156558547Y-87000000D02*
X156749023Y-87000000D01*
X156749023Y-87000000D02*
X156844261Y-87047619D01*
X156844261Y-87047619D02*
X156939500Y-87142857D01*
X156939500Y-87142857D02*
X156987119Y-87238095D01*
X156987119Y-87238095D02*
X156987119Y-87428571D01*
X156987119Y-87428571D02*
X156939500Y-87523809D01*
X156939500Y-87523809D02*
X156844261Y-87619047D01*
X156844261Y-87619047D02*
X156749023Y-87666666D01*
X156749023Y-87666666D02*
X156558547Y-87666666D01*
X156558547Y-87666666D02*
X156463309Y-87619047D01*
X156463309Y-87619047D02*
X156368071Y-87523809D01*
X156368071Y-87523809D02*
X156320452Y-87428571D01*
X156987119Y-85285714D02*
X156987119Y-85857142D01*
X156987119Y-85571428D02*
X155987119Y-85571428D01*
X155987119Y-85571428D02*
X156129976Y-85666666D01*
X156129976Y-85666666D02*
X156225214Y-85761904D01*
X156225214Y-85761904D02*
X156272833Y-85857142D01*
X155987119Y-84380952D02*
X155987119Y-84857142D01*
X155987119Y-84857142D02*
X156463309Y-84904761D01*
X156463309Y-84904761D02*
X156415690Y-84857142D01*
X156415690Y-84857142D02*
X156368071Y-84761904D01*
X156368071Y-84761904D02*
X156368071Y-84523809D01*
X156368071Y-84523809D02*
X156415690Y-84428571D01*
X156415690Y-84428571D02*
X156463309Y-84380952D01*
X156463309Y-84380952D02*
X156558547Y-84333333D01*
X156558547Y-84333333D02*
X156796642Y-84333333D01*
X156796642Y-84333333D02*
X156891880Y-84380952D01*
X156891880Y-84380952D02*
X156939500Y-84428571D01*
X156939500Y-84428571D02*
X156987119Y-84523809D01*
X156987119Y-84523809D02*
X156987119Y-84761904D01*
X156987119Y-84761904D02*
X156939500Y-84857142D01*
X156939500Y-84857142D02*
X156891880Y-84904761D01*
X156463309Y-83571428D02*
X156510928Y-83428571D01*
X156510928Y-83428571D02*
X156558547Y-83380952D01*
X156558547Y-83380952D02*
X156653785Y-83333333D01*
X156653785Y-83333333D02*
X156796642Y-83333333D01*
X156796642Y-83333333D02*
X156891880Y-83380952D01*
X156891880Y-83380952D02*
X156939500Y-83428571D01*
X156939500Y-83428571D02*
X156987119Y-83523809D01*
X156987119Y-83523809D02*
X156987119Y-83904761D01*
X156987119Y-83904761D02*
X155987119Y-83904761D01*
X155987119Y-83904761D02*
X155987119Y-83571428D01*
X155987119Y-83571428D02*
X156034738Y-83476190D01*
X156034738Y-83476190D02*
X156082357Y-83428571D01*
X156082357Y-83428571D02*
X156177595Y-83380952D01*
X156177595Y-83380952D02*
X156272833Y-83380952D01*
X156272833Y-83380952D02*
X156368071Y-83428571D01*
X156368071Y-83428571D02*
X156415690Y-83476190D01*
X156415690Y-83476190D02*
X156463309Y-83571428D01*
X156463309Y-83571428D02*
X156463309Y-83904761D01*
X153954819Y-107976190D02*
X152954819Y-107976190D01*
X153954819Y-107404762D02*
X153383390Y-107833333D01*
X152954819Y-107404762D02*
X153526247Y-107976190D01*
X153954819Y-106833333D02*
X153907200Y-106928571D01*
X153907200Y-106928571D02*
X153859580Y-106976190D01*
X153859580Y-106976190D02*
X153764342Y-107023809D01*
X153764342Y-107023809D02*
X153478628Y-107023809D01*
X153478628Y-107023809D02*
X153383390Y-106976190D01*
X153383390Y-106976190D02*
X153335771Y-106928571D01*
X153335771Y-106928571D02*
X153288152Y-106833333D01*
X153288152Y-106833333D02*
X153288152Y-106690476D01*
X153288152Y-106690476D02*
X153335771Y-106595238D01*
X153335771Y-106595238D02*
X153383390Y-106547619D01*
X153383390Y-106547619D02*
X153478628Y-106500000D01*
X153478628Y-106500000D02*
X153764342Y-106500000D01*
X153764342Y-106500000D02*
X153859580Y-106547619D01*
X153859580Y-106547619D02*
X153907200Y-106595238D01*
X153907200Y-106595238D02*
X153954819Y-106690476D01*
X153954819Y-106690476D02*
X153954819Y-106833333D01*
X153621485Y-106071428D02*
X153621485Y-105642857D01*
X153288152Y-106071428D02*
X153954819Y-106071428D01*
X153288152Y-105642857D02*
X153954819Y-105642857D01*
X153383390Y-104690476D02*
X153335771Y-104738095D01*
X153335771Y-104738095D02*
X153288152Y-104833333D01*
X153288152Y-104833333D02*
X153288152Y-105023809D01*
X153288152Y-105023809D02*
X153335771Y-105119047D01*
X153335771Y-105119047D02*
X153383390Y-105166666D01*
X153383390Y-105166666D02*
X153478628Y-105214285D01*
X153478628Y-105214285D02*
X153764342Y-105214285D01*
X153764342Y-105214285D02*
X153859580Y-105166666D01*
X153859580Y-105166666D02*
X153907200Y-105119047D01*
X153907200Y-105119047D02*
X153954819Y-105023809D01*
X153954819Y-105023809D02*
X153954819Y-104880952D01*
X153954819Y-104880952D02*
X153907200Y-104785714D01*
X153907200Y-104785714D02*
X153859580Y-104738095D01*
X153859580Y-104738095D02*
X153764342Y-104690476D01*
X153764342Y-104690476D02*
X153145295Y-104690476D01*
X153145295Y-104690476D02*
X153050057Y-104738095D01*
X153050057Y-104738095D02*
X153002438Y-104785714D01*
X153002438Y-104785714D02*
X152954819Y-104880952D01*
X152954819Y-104880952D02*
X152954819Y-105071428D01*
X152954819Y-105071428D02*
X153002438Y-105166666D01*
X153431009Y-103166666D02*
X153478628Y-103023809D01*
X153478628Y-103023809D02*
X153526247Y-102976190D01*
X153526247Y-102976190D02*
X153621485Y-102928571D01*
X153621485Y-102928571D02*
X153764342Y-102928571D01*
X153764342Y-102928571D02*
X153859580Y-102976190D01*
X153859580Y-102976190D02*
X153907200Y-103023809D01*
X153907200Y-103023809D02*
X153954819Y-103119047D01*
X153954819Y-103119047D02*
X153954819Y-103499999D01*
X153954819Y-103499999D02*
X152954819Y-103499999D01*
X152954819Y-103499999D02*
X152954819Y-103166666D01*
X152954819Y-103166666D02*
X153002438Y-103071428D01*
X153002438Y-103071428D02*
X153050057Y-103023809D01*
X153050057Y-103023809D02*
X153145295Y-102976190D01*
X153145295Y-102976190D02*
X153240533Y-102976190D01*
X153240533Y-102976190D02*
X153335771Y-103023809D01*
X153335771Y-103023809D02*
X153383390Y-103071428D01*
X153383390Y-103071428D02*
X153431009Y-103166666D01*
X153431009Y-103166666D02*
X153431009Y-103499999D01*
X153288152Y-101833333D02*
X153954819Y-101833333D01*
X153288152Y-102499999D02*
X153954819Y-102499999D01*
X153954819Y-102499999D02*
X153954819Y-102261904D01*
X153954819Y-102261904D02*
X153907200Y-102166666D01*
X153907200Y-102166666D02*
X153811961Y-102119047D01*
X153811961Y-102119047D02*
X153669104Y-102119047D01*
X153669104Y-102119047D02*
X153573866Y-102166666D01*
X153573866Y-102166666D02*
X153526247Y-102261904D01*
X153526247Y-102261904D02*
X153526247Y-102499999D01*
X153954819Y-101452380D02*
X153288152Y-100928571D01*
X153288152Y-101452380D02*
X153954819Y-100928571D01*
D12*
X158196115Y-105608533D02*
X157434211Y-105608533D01*
X157815163Y-105227580D02*
X157815163Y-105989485D01*
D11*
X136790476Y-119654819D02*
X136790476Y-118654819D01*
X136790476Y-118654819D02*
X137123809Y-119369104D01*
X137123809Y-119369104D02*
X137457142Y-118654819D01*
X137457142Y-118654819D02*
X137457142Y-119654819D01*
X137933333Y-119654819D02*
X137933333Y-118654819D01*
X137933333Y-118654819D02*
X138504761Y-118654819D01*
X138504761Y-118654819D02*
X138504761Y-119654819D01*
X139409523Y-118988152D02*
X139409523Y-119654819D01*
X139171428Y-118607200D02*
X138933333Y-119321485D01*
X138933333Y-119321485D02*
X139552380Y-119321485D01*
X139885714Y-118750057D02*
X139933333Y-118702438D01*
X139933333Y-118702438D02*
X140028571Y-118654819D01*
X140028571Y-118654819D02*
X140266666Y-118654819D01*
X140266666Y-118654819D02*
X140361904Y-118702438D01*
X140361904Y-118702438D02*
X140409523Y-118750057D01*
X140409523Y-118750057D02*
X140457142Y-118845295D01*
X140457142Y-118845295D02*
X140457142Y-118940533D01*
X140457142Y-118940533D02*
X140409523Y-119083390D01*
X140409523Y-119083390D02*
X139838095Y-119654819D01*
X139838095Y-119654819D02*
X140457142Y-119654819D01*
D12*
X138730074Y-112372419D02*
X138253884Y-112372419D01*
X138253884Y-112372419D02*
X138253884Y-113372419D01*
X138253884Y-113372419D02*
X138539598Y-113372419D01*
X138539598Y-113372419D02*
X138682455Y-113324800D01*
X138682455Y-113324800D02*
X138777693Y-113229561D01*
X138777693Y-113229561D02*
X138825312Y-113134323D01*
X138825312Y-113134323D02*
X138825312Y-112991466D01*
X138825312Y-112991466D02*
X138777693Y-112896228D01*
X138777693Y-112896228D02*
X138682455Y-112800990D01*
X138682455Y-112800990D02*
X138539598Y-112753371D01*
X138539598Y-112753371D02*
X138253884Y-112753371D01*
X135753884Y-118472419D02*
X135753884Y-117472419D01*
X136325312Y-118472419D02*
X135896741Y-117900990D01*
X136325312Y-117472419D02*
X135753884Y-118043847D01*
X141525312Y-117996228D02*
X141049122Y-117996228D01*
X140906265Y-117567657D02*
X140953884Y-117520038D01*
X140953884Y-117520038D02*
X141096741Y-117472419D01*
X141096741Y-117472419D02*
X141191979Y-117472419D01*
X141191979Y-117472419D02*
X141334836Y-117520038D01*
X141334836Y-117520038D02*
X141430074Y-117615276D01*
X141430074Y-117615276D02*
X141477693Y-117710514D01*
X141477693Y-117710514D02*
X141525312Y-117900990D01*
X141525312Y-117900990D02*
X141525312Y-118043847D01*
X141525312Y-118043847D02*
X141477693Y-118234323D01*
X141477693Y-118234323D02*
X141430074Y-118329561D01*
X141430074Y-118329561D02*
X141334836Y-118424800D01*
X141334836Y-118424800D02*
X141191979Y-118472419D01*
X141191979Y-118472419D02*
X141096741Y-118472419D01*
X141096741Y-118472419D02*
X140953884Y-118424800D01*
X140953884Y-118424800D02*
X140906265Y-118377180D01*
D13*
%TO.C,Strogg logo*%
G36*
X148837370Y-102104900D02*
G01*
X148774634Y-102308126D01*
X148615408Y-102413934D01*
X148410497Y-102408443D01*
X148210704Y-102277772D01*
X148209504Y-102276450D01*
X148124896Y-102172133D01*
X148147245Y-102131212D01*
X148303057Y-102133264D01*
X148386881Y-102139778D01*
X148611419Y-102133819D01*
X148758248Y-102086040D01*
X148773870Y-102069828D01*
X148826576Y-102036798D01*
X148837370Y-102104900D01*
G37*
G36*
X148791927Y-100635546D02*
G01*
X148990526Y-100819821D01*
X149105059Y-101140949D01*
X149134079Y-101361049D01*
X149153128Y-101633844D01*
X149143735Y-101774151D01*
X149092614Y-101818138D01*
X148986481Y-101801973D01*
X148973322Y-101798689D01*
X148798931Y-101792981D01*
X148715906Y-101839806D01*
X148592127Y-101917614D01*
X148500000Y-101931333D01*
X148337672Y-101887855D01*
X148284093Y-101839806D01*
X148168005Y-101786807D01*
X148033676Y-101796933D01*
X147925450Y-101814715D01*
X147871288Y-101773733D01*
X147867572Y-101736224D01*
X148356724Y-101736224D01*
X148459249Y-101761382D01*
X148500000Y-101762000D01*
X148634574Y-101744926D01*
X148621048Y-101681084D01*
X148601600Y-101660400D01*
X148486386Y-101602395D01*
X148398400Y-101660400D01*
X148356724Y-101736224D01*
X147867572Y-101736224D01*
X147857811Y-101637693D01*
X147866711Y-101465667D01*
X148076667Y-101465667D01*
X148135449Y-101560776D01*
X148254548Y-101570075D01*
X148348092Y-101493206D01*
X148356305Y-101466826D01*
X148306272Y-101390240D01*
X148679724Y-101390240D01*
X148700744Y-101507335D01*
X148725778Y-101536222D01*
X148849701Y-101590153D01*
X148920494Y-101502031D01*
X148923333Y-101465667D01*
X148855560Y-101353418D01*
X148796333Y-101338667D01*
X148679724Y-101390240D01*
X148306272Y-101390240D01*
X148301674Y-101383201D01*
X148224833Y-101354785D01*
X148098920Y-101387806D01*
X148076667Y-101465667D01*
X147866711Y-101465667D01*
X147871645Y-101370303D01*
X147872381Y-101359293D01*
X147941690Y-100965799D01*
X148092973Y-100713854D01*
X148335270Y-100592188D01*
X148500000Y-100576667D01*
X148791927Y-100635546D01*
G37*
G36*
X151812209Y-99064920D02*
G01*
X151737175Y-99267016D01*
X151621982Y-99545052D01*
X151586864Y-99625905D01*
X151450741Y-99928485D01*
X151360038Y-100097130D01*
X151295311Y-100154323D01*
X151237114Y-100122546D01*
X151199648Y-100073582D01*
X151137535Y-99997697D01*
X151063936Y-99968947D01*
X150945088Y-99995353D01*
X150747229Y-100084934D01*
X150436597Y-100245711D01*
X150405000Y-100262343D01*
X150038859Y-100468256D01*
X149814013Y-100632745D01*
X149713575Y-100774813D01*
X149720656Y-100913465D01*
X149759818Y-100988350D01*
X149807935Y-101022561D01*
X149906062Y-101032794D01*
X150071787Y-101015454D01*
X150322699Y-100966944D01*
X150676385Y-100883669D01*
X151150435Y-100762033D01*
X151762435Y-100598439D01*
X152054127Y-100519271D01*
X152148361Y-100504377D01*
X152161669Y-100545573D01*
X152083809Y-100664459D01*
X151904539Y-100882635D01*
X151853342Y-100942746D01*
X151645138Y-101174824D01*
X151473209Y-101345361D01*
X151370596Y-101421950D01*
X151363385Y-101423333D01*
X151317587Y-101373514D01*
X151325750Y-101355791D01*
X151353382Y-101237987D01*
X151250532Y-101172765D01*
X151006965Y-101158147D01*
X150612447Y-101192154D01*
X150532000Y-101202319D01*
X150180451Y-101252388D01*
X149963379Y-101298862D01*
X149846740Y-101354712D01*
X149796490Y-101432908D01*
X149785278Y-101486833D01*
X149805059Y-101642233D01*
X149869945Y-101682815D01*
X149995117Y-101698066D01*
X150248280Y-101735168D01*
X150590379Y-101788234D01*
X150913000Y-101840040D01*
X151844333Y-101991784D01*
X151378667Y-102205800D01*
X151119232Y-102319379D01*
X150974500Y-102361475D01*
X150908313Y-102337515D01*
X150888453Y-102279382D01*
X150784836Y-102165005D01*
X150514230Y-102044513D01*
X150308728Y-101979953D01*
X150005342Y-101899107D01*
X149823054Y-101870813D01*
X149722829Y-101892573D01*
X149678404Y-101939645D01*
X149625725Y-102039520D01*
X149627944Y-102126128D01*
X149706280Y-102226107D01*
X149881951Y-102366094D01*
X150176175Y-102572726D01*
X150190644Y-102582708D01*
X150459073Y-102772451D01*
X150664287Y-102926226D01*
X150773666Y-103019238D01*
X150783311Y-103033212D01*
X150708295Y-103056875D01*
X150511987Y-103072177D01*
X150321352Y-103075546D01*
X150053163Y-103066647D01*
X149921007Y-103034876D01*
X149892049Y-102969900D01*
X149898539Y-102942505D01*
X149871043Y-102784185D01*
X149736972Y-102609453D01*
X149547702Y-102462936D01*
X149354607Y-102389261D01*
X149268263Y-102395012D01*
X149166816Y-102419437D01*
X149151064Y-102382234D01*
X149225714Y-102253585D01*
X149310407Y-102128073D01*
X149448125Y-101891838D01*
X149500229Y-101672463D01*
X149488478Y-101381000D01*
X149452346Y-101096464D01*
X149410034Y-100859847D01*
X149391339Y-100786895D01*
X149389539Y-100712237D01*
X149441346Y-100621961D01*
X149564297Y-100501130D01*
X149775929Y-100334805D01*
X150093779Y-100108050D01*
X150535385Y-99805925D01*
X150572488Y-99780822D01*
X150972538Y-99512934D01*
X151321363Y-99284362D01*
X151596133Y-99109656D01*
X151774020Y-99003366D01*
X151832254Y-98977926D01*
X151812209Y-99064920D01*
G37*
G36*
X145242085Y-99012384D02*
G01*
X145433291Y-99127994D01*
X145718536Y-99310207D01*
X146074989Y-99544472D01*
X146427511Y-99780822D01*
X146878721Y-100088960D01*
X147204910Y-100320651D01*
X147423616Y-100490834D01*
X147552376Y-100614447D01*
X147608727Y-100706427D01*
X147610207Y-100781712D01*
X147608661Y-100786895D01*
X147568137Y-100971190D01*
X147527357Y-101242763D01*
X147511522Y-101381000D01*
X147499908Y-101674185D01*
X147552389Y-101893483D01*
X147686154Y-102123006D01*
X147815390Y-102316892D01*
X147852270Y-102403139D01*
X147800067Y-102413852D01*
X147713769Y-102393978D01*
X147548065Y-102410928D01*
X147367622Y-102509919D01*
X147210603Y-102653518D01*
X147115172Y-102804296D01*
X147119492Y-102924822D01*
X147146820Y-102950044D01*
X147232684Y-103022121D01*
X147230000Y-103041666D01*
X147094357Y-103058947D01*
X146872114Y-103068198D01*
X146619024Y-103069608D01*
X146390842Y-103063368D01*
X146243319Y-103049667D01*
X146216689Y-103038211D01*
X146282831Y-102971359D01*
X146456845Y-102835147D01*
X146706065Y-102654677D01*
X146809356Y-102582708D01*
X147108718Y-102372924D01*
X147288682Y-102230819D01*
X147370407Y-102129640D01*
X147375053Y-102042636D01*
X147323779Y-101943054D01*
X147320012Y-101937084D01*
X147255543Y-101877128D01*
X147141709Y-101867625D01*
X146937755Y-101911102D01*
X146719985Y-101974276D01*
X146418629Y-102084998D01*
X146210942Y-102200250D01*
X146141843Y-102276032D01*
X146096909Y-102348846D01*
X146013297Y-102361158D01*
X145851515Y-102307622D01*
X145621333Y-102205565D01*
X145155667Y-101991784D01*
X146087000Y-101840040D01*
X146472344Y-101778257D01*
X146800257Y-101727543D01*
X147032014Y-101693772D01*
X147123635Y-101682815D01*
X147196151Y-101607842D01*
X147199872Y-101486833D01*
X147156830Y-101370959D01*
X147043646Y-101299440D01*
X146817679Y-101250234D01*
X146713570Y-101235466D01*
X146393809Y-101192327D01*
X146096151Y-101151246D01*
X145981167Y-101134956D01*
X145790303Y-101124188D01*
X145715099Y-101182163D01*
X145706000Y-101259323D01*
X145684019Y-101387454D01*
X145609113Y-101401670D01*
X145467839Y-101294552D01*
X145246753Y-101058681D01*
X145159405Y-100957667D01*
X144974293Y-100732771D01*
X144851659Y-100567523D01*
X144814557Y-100493334D01*
X144817669Y-100492000D01*
X144915566Y-100512914D01*
X145145687Y-100570324D01*
X145476874Y-100656226D01*
X145877966Y-100762622D01*
X146018314Y-100800315D01*
X146485091Y-100923017D01*
X146814634Y-101000799D01*
X147031855Y-101037548D01*
X147161664Y-101037153D01*
X147228974Y-101003504D01*
X147238659Y-100990815D01*
X147294710Y-100845880D01*
X147252368Y-100707906D01*
X147094678Y-100557704D01*
X146804687Y-100376086D01*
X146595000Y-100262343D01*
X146273594Y-100095357D01*
X146067738Y-100000225D01*
X145943668Y-99968928D01*
X145867622Y-99993446D01*
X145805839Y-100065758D01*
X145800352Y-100073582D01*
X145737223Y-100145797D01*
X145678584Y-100141783D01*
X145604989Y-100039057D01*
X145496993Y-99815137D01*
X145413136Y-99625905D01*
X145289842Y-99334399D01*
X145202805Y-99108528D01*
X145166856Y-98987457D01*
X145167746Y-98977926D01*
X145242085Y-99012384D01*
G37*
D12*
%TO.C,D4*%
X109950000Y-108500000D02*
X109950000Y-114500000D01*
D14*
X109950000Y-108500000D02*
X110950000Y-108500000D01*
X109950000Y-111500000D02*
X109350000Y-111500000D01*
X109950000Y-114500000D02*
X110950000Y-114500000D01*
D12*
X110950000Y-105900000D02*
X110950000Y-117100000D01*
D14*
X110950000Y-105900000D02*
X111950000Y-105900000D01*
X110950000Y-117100000D02*
X111950000Y-117100000D01*
D12*
X111450000Y-105900000D02*
X111450000Y-117100000D01*
X111950000Y-105900000D02*
X111950000Y-117100000D01*
X111950000Y-114900000D02*
X121950000Y-114900000D01*
X114450000Y-109600000D02*
X114450000Y-113400000D01*
D14*
X114450000Y-111500000D02*
X118050000Y-113300000D01*
X118050000Y-109600000D02*
X114450000Y-111500000D01*
X118050000Y-109600000D02*
X118050000Y-113300000D01*
D12*
X121950000Y-108100000D02*
X112000000Y-108100000D01*
D14*
X121950000Y-108100000D02*
X121950000Y-114900000D01*
X121950000Y-110000000D02*
X126950000Y-110000000D01*
X121950000Y-113000000D02*
X126950000Y-113000000D01*
X126950000Y-113000000D02*
X126950000Y-110000000D01*
X128280000Y-111500000D02*
X127020000Y-111500000D01*
%TO.C,RV1*%
X133615000Y-93970000D02*
X133615000Y-99040000D01*
X133615000Y-93970000D02*
X143385000Y-93970000D01*
X133615000Y-99040000D02*
X143385000Y-99040000D01*
X143385000Y-93970000D02*
X143385000Y-99040000D01*
%TO.C,C4*%
X116040000Y-84000000D02*
X116730000Y-84000000D01*
X116730000Y-82580000D02*
X116730000Y-85420000D01*
X116730000Y-85420000D02*
X120770000Y-85420000D01*
X120770000Y-82580000D02*
X116730000Y-82580000D01*
X120770000Y-85420000D02*
X120770000Y-82580000D01*
X121460000Y-84000000D02*
X120770000Y-84000000D01*
%TO.C,R3*%
X100630000Y-96650000D02*
X100630000Y-103190000D01*
X100630000Y-103190000D02*
X103370000Y-103190000D01*
X102000000Y-95880000D02*
X102000000Y-96650000D01*
X102000000Y-103960000D02*
X102000000Y-103190000D01*
X103370000Y-96650000D02*
X100630000Y-96650000D01*
X103370000Y-103190000D02*
X103370000Y-96650000D01*
%TO.C,J1*%
X100670000Y-110230000D02*
X100670000Y-107630000D01*
X100670000Y-112830000D02*
X100670000Y-111500000D01*
X102000000Y-112830000D02*
X100670000Y-112830000D01*
X103330000Y-107630000D02*
X100670000Y-107630000D01*
X103330000Y-110230000D02*
X100670000Y-110230000D01*
X103330000Y-110230000D02*
X103330000Y-107630000D01*
D12*
%TO.C,D6*%
X109900000Y-86500000D02*
X109900000Y-92500000D01*
D14*
X109900000Y-86500000D02*
X110900000Y-86500000D01*
X109900000Y-89500000D02*
X109300000Y-89500000D01*
X109900000Y-92500000D02*
X110900000Y-92500000D01*
D12*
X110900000Y-83900000D02*
X110900000Y-95100000D01*
D14*
X110900000Y-83900000D02*
X111900000Y-83900000D01*
X110900000Y-95100000D02*
X111900000Y-95100000D01*
D12*
X111400000Y-83900000D02*
X111400000Y-95100000D01*
X111900000Y-83900000D02*
X111900000Y-95100000D01*
X111900000Y-92900000D02*
X121900000Y-92900000D01*
X114400000Y-87600000D02*
X114400000Y-91400000D01*
D14*
X114400000Y-89500000D02*
X118000000Y-91300000D01*
X118000000Y-87600000D02*
X114400000Y-89500000D01*
X118000000Y-87600000D02*
X118000000Y-91300000D01*
D12*
X121900000Y-86100000D02*
X111950000Y-86100000D01*
D14*
X121900000Y-86100000D02*
X121900000Y-92900000D01*
X121900000Y-88000000D02*
X126900000Y-88000000D01*
X121900000Y-91000000D02*
X126900000Y-91000000D01*
X126900000Y-91000000D02*
X126900000Y-88000000D01*
X128230000Y-89500000D02*
X126970000Y-89500000D01*
%TO.C,R1*%
X134960000Y-105000000D02*
X135730000Y-105000000D01*
X135730000Y-103630000D02*
X135730000Y-106370000D01*
X135730000Y-106370000D02*
X142270000Y-106370000D01*
X142270000Y-103630000D02*
X135730000Y-103630000D01*
X142270000Y-106370000D02*
X142270000Y-103630000D01*
X143040000Y-105000000D02*
X142270000Y-105000000D01*
%TO.C,R2*%
X100630000Y-83730000D02*
X100630000Y-90270000D01*
X100630000Y-90270000D02*
X103370000Y-90270000D01*
X102000000Y-82960000D02*
X102000000Y-83730000D01*
X102000000Y-91040000D02*
X102000000Y-90270000D01*
X103370000Y-83730000D02*
X100630000Y-83730000D01*
X103370000Y-90270000D02*
X103370000Y-83730000D01*
D13*
%TO.C,G\u002A\u002A\u002A*%
G36*
X108455021Y-118113541D02*
G01*
X108384904Y-118233404D01*
X108308240Y-118302845D01*
X108177433Y-118430823D01*
X108173586Y-118531770D01*
X108223533Y-118603207D01*
X108392518Y-118699491D01*
X108495953Y-118691873D01*
X108626518Y-118694191D01*
X108653333Y-118774628D01*
X108583918Y-118869324D01*
X108419973Y-118907905D01*
X108227949Y-118886780D01*
X108077600Y-118805733D01*
X107976424Y-118602608D01*
X107992207Y-118369057D01*
X108113042Y-118177952D01*
X108188024Y-118129765D01*
X108384251Y-118071589D01*
X108455021Y-118113541D01*
G37*
G36*
X110204247Y-117922223D02*
G01*
X110262000Y-117976000D01*
X110189463Y-118039357D01*
X110047676Y-118060667D01*
X109846226Y-118116046D01*
X109772691Y-118252093D01*
X109841642Y-118423671D01*
X109909214Y-118489592D01*
X110043296Y-118614105D01*
X110092667Y-118688071D01*
X110033299Y-118742088D01*
X109892698Y-118713533D01*
X109727119Y-118618681D01*
X109665002Y-118564336D01*
X109550328Y-118352571D01*
X109567063Y-118125503D01*
X109701911Y-117956130D01*
X109853625Y-117905632D01*
X110044758Y-117895170D01*
X110204247Y-117922223D01*
G37*
G36*
X109318059Y-117876895D02*
G01*
X109330667Y-117918086D01*
X109259681Y-118036485D01*
X109161333Y-118085199D01*
X109017999Y-118198670D01*
X108992000Y-118306740D01*
X109036139Y-118443031D01*
X109195438Y-118483870D01*
X109210722Y-118484000D01*
X109370580Y-118517320D01*
X109394206Y-118589833D01*
X109283593Y-118704022D01*
X109094591Y-118694623D01*
X108928500Y-118608125D01*
X108783204Y-118429492D01*
X108741741Y-118212153D01*
X108813702Y-118025362D01*
X108843833Y-117996729D01*
X109033998Y-117884725D01*
X109209764Y-117841922D01*
X109318059Y-117876895D01*
G37*
G36*
X110644058Y-118007302D02*
G01*
X110815239Y-118082976D01*
X110852046Y-118101645D01*
X111053800Y-118260862D01*
X111107626Y-118427611D01*
X111017666Y-118565422D01*
X110791167Y-118637531D01*
X110603743Y-118676972D01*
X110516757Y-118737398D01*
X110516000Y-118743364D01*
X110451410Y-118820399D01*
X110431333Y-118822667D01*
X110354109Y-118755056D01*
X110346667Y-118708301D01*
X110371007Y-118570470D01*
X110428924Y-118357000D01*
X110654715Y-118357000D01*
X110667724Y-118466228D01*
X110730324Y-118484000D01*
X110840254Y-118416168D01*
X110854667Y-118357000D01*
X110813761Y-118244259D01*
X110779058Y-118230000D01*
X110686502Y-118297379D01*
X110654715Y-118357000D01*
X110428924Y-118357000D01*
X110428931Y-118356976D01*
X110497788Y-118142913D01*
X110554929Y-118003375D01*
X110563034Y-117990923D01*
X110644058Y-118007302D01*
G37*
G36*
X111681783Y-118945702D02*
G01*
X111616902Y-118984137D01*
X111423156Y-119074759D01*
X111128207Y-119205149D01*
X110759715Y-119362889D01*
X110644617Y-119411318D01*
X110257599Y-119577420D01*
X109934164Y-119723615D01*
X109702798Y-119836461D01*
X109591988Y-119902516D01*
X109586436Y-119910645D01*
X109638353Y-119993134D01*
X109778665Y-120178038D01*
X109986372Y-120438522D01*
X110240472Y-120747747D01*
X110257969Y-120768745D01*
X110510953Y-121077033D01*
X110715248Y-121335491D01*
X110851085Y-121518405D01*
X110898700Y-121600061D01*
X110898084Y-121601471D01*
X110819945Y-121570533D01*
X110635299Y-121462859D01*
X110376865Y-121298095D01*
X110230375Y-121200559D01*
X109938782Y-121009980D01*
X109695852Y-120862609D01*
X109538200Y-120780154D01*
X109504130Y-120770000D01*
X109399071Y-120816406D01*
X109195096Y-120940163D01*
X108929540Y-121118076D01*
X108822667Y-121193333D01*
X108549442Y-121384589D01*
X108330574Y-121530883D01*
X108200655Y-121609369D01*
X108181595Y-121616667D01*
X108193138Y-121557903D01*
X108283542Y-121413501D01*
X108304962Y-121383833D01*
X108436602Y-121209692D01*
X108636875Y-120950381D01*
X108869080Y-120653318D01*
X108943895Y-120558333D01*
X109152201Y-120288809D01*
X109313218Y-120069819D01*
X109402863Y-119934608D01*
X109413500Y-119910039D01*
X109340120Y-119859808D01*
X109138150Y-119762069D01*
X108837027Y-119630152D01*
X108466188Y-119477391D01*
X108399849Y-119450912D01*
X108023326Y-119298547D01*
X107714273Y-119168208D01*
X107501093Y-119072274D01*
X107412189Y-119023125D01*
X107411582Y-119020195D01*
X107502376Y-119017211D01*
X107717450Y-119034234D01*
X108013407Y-119067667D01*
X108067234Y-119074541D01*
X108646753Y-119127901D01*
X109289517Y-119151080D01*
X109939082Y-119144732D01*
X110539003Y-119109513D01*
X111032837Y-119046076D01*
X111066333Y-119039750D01*
X111359900Y-118985939D01*
X111579009Y-118952061D01*
X111679958Y-118944795D01*
X111681783Y-118945702D01*
G37*
G36*
X110019910Y-117127037D02*
G01*
X110652486Y-117495853D01*
X111308961Y-117967091D01*
X111802994Y-118382425D01*
X112004605Y-118588492D01*
X112099978Y-118771160D01*
X112124647Y-118999633D01*
X112124667Y-119008912D01*
X112090610Y-119365797D01*
X111997644Y-119824886D01*
X111859569Y-120335453D01*
X111690187Y-120846776D01*
X111503301Y-121308131D01*
X111492829Y-121330962D01*
X111214050Y-121934343D01*
X110667589Y-122029505D01*
X110105993Y-122094167D01*
X109480022Y-122112862D01*
X108864551Y-122086189D01*
X108334456Y-122014747D01*
X108314667Y-122010669D01*
X108063689Y-121951220D01*
X107900310Y-121876524D01*
X107775926Y-121746388D01*
X107641931Y-121520615D01*
X107578750Y-121402078D01*
X107410198Y-121037528D01*
X107242584Y-120596664D01*
X107090727Y-120128061D01*
X106969444Y-119680294D01*
X106893554Y-119301936D01*
X106877363Y-119119260D01*
X107143786Y-119119260D01*
X107173630Y-119442551D01*
X107199020Y-119599384D01*
X107282644Y-119966934D01*
X107410695Y-120392060D01*
X107564427Y-120823501D01*
X107725092Y-121209996D01*
X107873946Y-121500281D01*
X107919339Y-121569058D01*
X108052421Y-121685564D01*
X108268704Y-121768051D01*
X108588997Y-121819763D01*
X109034111Y-121843940D01*
X109624858Y-121843824D01*
X109677178Y-121842898D01*
X110162666Y-121828591D01*
X110509476Y-121804255D01*
X110748152Y-121766018D01*
X110909236Y-121710012D01*
X110961117Y-121680250D01*
X111114540Y-121510789D01*
X111285267Y-121208721D01*
X111459614Y-120807915D01*
X111623895Y-120342239D01*
X111764428Y-119845558D01*
X111839791Y-119505593D01*
X111964131Y-118865000D01*
X111515232Y-118447958D01*
X111205801Y-118182632D01*
X110841879Y-117904473D01*
X110461434Y-117638999D01*
X110102434Y-117411728D01*
X109802846Y-117248180D01*
X109627918Y-117179462D01*
X109390741Y-117192547D01*
X109059294Y-117315048D01*
X108656981Y-117534620D01*
X108207207Y-117838915D01*
X107850873Y-118116905D01*
X107512990Y-118408343D01*
X107294895Y-118644391D01*
X107178018Y-118867285D01*
X107143786Y-119119260D01*
X106877363Y-119119260D01*
X106875333Y-119096354D01*
X106951629Y-118750209D01*
X107085810Y-118520367D01*
X107292772Y-118300060D01*
X107605199Y-118027764D01*
X107981135Y-117734806D01*
X108378627Y-117452513D01*
X108755720Y-117212211D01*
X109047381Y-117055696D01*
X109481488Y-116855058D01*
X110019910Y-117127037D01*
G37*
D14*
%TO.C,C7*%
X116040000Y-106000000D02*
X116730000Y-106000000D01*
X116730000Y-104580000D02*
X116730000Y-107420000D01*
X116730000Y-107420000D02*
X120770000Y-107420000D01*
X120770000Y-104580000D02*
X116730000Y-104580000D01*
X120770000Y-107420000D02*
X120770000Y-104580000D01*
X121460000Y-106000000D02*
X120770000Y-106000000D01*
%TO.C,DZ1*%
X146580000Y-110230000D02*
X146580000Y-118070000D01*
X146580000Y-116690000D02*
X150420000Y-116690000D01*
X146580000Y-116810000D02*
X150420000Y-116810000D01*
X146580000Y-116930000D02*
X150420000Y-116930000D01*
X146580000Y-118070000D02*
X150420000Y-118070000D01*
X148500000Y-109240000D02*
X148500000Y-110230000D01*
X148500000Y-119060000D02*
X148500000Y-118070000D01*
X150420000Y-110230000D02*
X146580000Y-110230000D01*
X150420000Y-118070000D02*
X150420000Y-110230000D01*
%TO.C,C2*%
X133169000Y-88599000D02*
X133169000Y-87401000D01*
X133209000Y-88862000D02*
X133209000Y-87138000D01*
X133249000Y-89062000D02*
X133249000Y-86938000D01*
X133289000Y-89230000D02*
X133289000Y-86770000D01*
X133329000Y-89378000D02*
X133329000Y-86622000D01*
X133369000Y-89510000D02*
X133369000Y-86490000D01*
X133409000Y-89630000D02*
X133409000Y-86370000D01*
X133449000Y-89742000D02*
X133449000Y-86258000D01*
X133489000Y-89846000D02*
X133489000Y-86154000D01*
X133529000Y-89944000D02*
X133529000Y-86056000D01*
X133569000Y-90037000D02*
X133569000Y-85963000D01*
X133609000Y-90125000D02*
X133609000Y-85875000D01*
X133649000Y-90209000D02*
X133649000Y-85791000D01*
X133689000Y-90289000D02*
X133689000Y-85711000D01*
X133729000Y-90365000D02*
X133729000Y-85635000D01*
X133769000Y-90439000D02*
X133769000Y-85561000D01*
X133809000Y-90510000D02*
X133809000Y-85490000D01*
X133849000Y-90579000D02*
X133849000Y-85421000D01*
X133889000Y-90645000D02*
X133889000Y-85355000D01*
X133929000Y-90709000D02*
X133929000Y-85291000D01*
X133969000Y-90770000D02*
X133969000Y-85230000D01*
X134009000Y-90830000D02*
X134009000Y-85170000D01*
X134049000Y-90889000D02*
X134049000Y-85111000D01*
X134089000Y-90945000D02*
X134089000Y-85055000D01*
X134129000Y-91000000D02*
X134129000Y-85000000D01*
X134169000Y-91054000D02*
X134169000Y-84946000D01*
X134209000Y-91106000D02*
X134209000Y-84894000D01*
X134249000Y-91156000D02*
X134249000Y-84844000D01*
X134289000Y-91206000D02*
X134289000Y-84794000D01*
X134329000Y-91254000D02*
X134329000Y-84746000D01*
X134369000Y-91301000D02*
X134369000Y-84699000D01*
X134409000Y-91347000D02*
X134409000Y-84653000D01*
X134449000Y-91392000D02*
X134449000Y-84608000D01*
X134489000Y-91436000D02*
X134489000Y-84564000D01*
X134529000Y-91478000D02*
X134529000Y-84522000D01*
X134569000Y-91520000D02*
X134569000Y-84480000D01*
X134609000Y-91561000D02*
X134609000Y-84439000D01*
X134649000Y-91601000D02*
X134649000Y-84399000D01*
X134689000Y-91640000D02*
X134689000Y-84360000D01*
X134729000Y-91679000D02*
X134729000Y-84321000D01*
X134769000Y-91716000D02*
X134769000Y-84284000D01*
X134809000Y-91753000D02*
X134809000Y-84247000D01*
X134849000Y-91789000D02*
X134849000Y-84211000D01*
X134889000Y-91824000D02*
X134889000Y-84176000D01*
X134929000Y-91858000D02*
X134929000Y-84142000D01*
X134969000Y-91892000D02*
X134969000Y-84108000D01*
X135009000Y-91925000D02*
X135009000Y-84075000D01*
X135049000Y-91957000D02*
X135049000Y-84043000D01*
X135089000Y-91989000D02*
X135089000Y-84011000D01*
X135129000Y-92020000D02*
X135129000Y-83980000D01*
X135169000Y-92050000D02*
X135169000Y-83950000D01*
X135209000Y-92080000D02*
X135209000Y-83920000D01*
X135249000Y-92110000D02*
X135249000Y-83890000D01*
X135289000Y-86759000D02*
X135289000Y-83862000D01*
X135289000Y-92138000D02*
X135289000Y-89241000D01*
X135329000Y-86759000D02*
X135329000Y-83834000D01*
X135329000Y-92166000D02*
X135329000Y-89241000D01*
X135369000Y-86759000D02*
X135369000Y-83806000D01*
X135369000Y-92194000D02*
X135369000Y-89241000D01*
X135409000Y-86759000D02*
X135409000Y-83779000D01*
X135409000Y-92221000D02*
X135409000Y-89241000D01*
X135449000Y-86759000D02*
X135449000Y-83753000D01*
X135449000Y-92247000D02*
X135449000Y-89241000D01*
X135489000Y-86759000D02*
X135489000Y-83727000D01*
X135489000Y-92273000D02*
X135489000Y-89241000D01*
X135529000Y-86759000D02*
X135529000Y-83702000D01*
X135529000Y-92298000D02*
X135529000Y-89241000D01*
X135569000Y-86759000D02*
X135569000Y-83677000D01*
X135569000Y-92323000D02*
X135569000Y-89241000D01*
X135609000Y-86759000D02*
X135609000Y-83653000D01*
X135609000Y-92347000D02*
X135609000Y-89241000D01*
X135649000Y-86759000D02*
X135649000Y-83629000D01*
X135649000Y-92371000D02*
X135649000Y-89241000D01*
X135689000Y-86759000D02*
X135689000Y-83605000D01*
X135689000Y-92395000D02*
X135689000Y-89241000D01*
X135729000Y-86759000D02*
X135729000Y-83583000D01*
X135729000Y-92417000D02*
X135729000Y-89241000D01*
X135769000Y-86759000D02*
X135769000Y-83560000D01*
X135769000Y-92440000D02*
X135769000Y-89241000D01*
X135809000Y-86759000D02*
X135809000Y-83538000D01*
X135809000Y-92462000D02*
X135809000Y-89241000D01*
X135849000Y-86759000D02*
X135849000Y-83517000D01*
X135849000Y-92483000D02*
X135849000Y-89241000D01*
X135889000Y-86759000D02*
X135889000Y-83496000D01*
X135889000Y-92504000D02*
X135889000Y-89241000D01*
X135929000Y-86759000D02*
X135929000Y-83475000D01*
X135929000Y-92525000D02*
X135929000Y-89241000D01*
X135969000Y-86759000D02*
X135969000Y-83455000D01*
X135969000Y-92545000D02*
X135969000Y-89241000D01*
X136009000Y-86759000D02*
X136009000Y-83436000D01*
X136009000Y-92564000D02*
X136009000Y-89241000D01*
X136049000Y-86759000D02*
X136049000Y-83416000D01*
X136049000Y-92584000D02*
X136049000Y-89241000D01*
X136089000Y-86759000D02*
X136089000Y-83397000D01*
X136089000Y-92603000D02*
X136089000Y-89241000D01*
X136129000Y-86759000D02*
X136129000Y-83379000D01*
X136129000Y-92621000D02*
X136129000Y-89241000D01*
X136169000Y-86759000D02*
X136169000Y-83361000D01*
X136169000Y-92639000D02*
X136169000Y-89241000D01*
X136209000Y-86759000D02*
X136209000Y-83343000D01*
X136209000Y-92657000D02*
X136209000Y-89241000D01*
X136249000Y-86759000D02*
X136249000Y-83326000D01*
X136249000Y-92674000D02*
X136249000Y-89241000D01*
X136289000Y-86759000D02*
X136289000Y-83310000D01*
X136289000Y-92690000D02*
X136289000Y-89241000D01*
X136329000Y-86759000D02*
X136329000Y-83293000D01*
X136329000Y-92707000D02*
X136329000Y-89241000D01*
X136369000Y-86759000D02*
X136369000Y-83277000D01*
X136369000Y-92723000D02*
X136369000Y-89241000D01*
X136409000Y-86759000D02*
X136409000Y-83262000D01*
X136409000Y-92738000D02*
X136409000Y-89241000D01*
X136449000Y-86759000D02*
X136449000Y-83246000D01*
X136449000Y-92754000D02*
X136449000Y-89241000D01*
X136489000Y-86759000D02*
X136489000Y-83232000D01*
X136489000Y-92768000D02*
X136489000Y-89241000D01*
X136529000Y-86759000D02*
X136529000Y-83217000D01*
X136529000Y-92783000D02*
X136529000Y-89241000D01*
X136569000Y-86759000D02*
X136569000Y-83203000D01*
X136569000Y-92797000D02*
X136569000Y-89241000D01*
X136609000Y-86759000D02*
X136609000Y-83189000D01*
X136609000Y-92811000D02*
X136609000Y-89241000D01*
X136649000Y-86759000D02*
X136649000Y-83176000D01*
X136649000Y-92824000D02*
X136649000Y-89241000D01*
X136689000Y-86759000D02*
X136689000Y-83163000D01*
X136689000Y-92837000D02*
X136689000Y-89241000D01*
X136729000Y-86759000D02*
X136729000Y-83150000D01*
X136729000Y-92850000D02*
X136729000Y-89241000D01*
X136769000Y-86759000D02*
X136769000Y-83138000D01*
X136769000Y-92862000D02*
X136769000Y-89241000D01*
X136809000Y-86759000D02*
X136809000Y-83126000D01*
X136809000Y-92874000D02*
X136809000Y-89241000D01*
X136849000Y-86759000D02*
X136849000Y-83115000D01*
X136849000Y-92885000D02*
X136849000Y-89241000D01*
X136889000Y-86759000D02*
X136889000Y-83103000D01*
X136889000Y-92897000D02*
X136889000Y-89241000D01*
X136929000Y-86759000D02*
X136929000Y-83093000D01*
X136929000Y-92907000D02*
X136929000Y-89241000D01*
X136969000Y-86759000D02*
X136969000Y-83082000D01*
X136969000Y-92918000D02*
X136969000Y-89241000D01*
X137009000Y-86759000D02*
X137009000Y-83072000D01*
X137009000Y-92928000D02*
X137009000Y-89241000D01*
X137049000Y-86759000D02*
X137049000Y-83062000D01*
X137049000Y-92938000D02*
X137049000Y-89241000D01*
X137089000Y-86759000D02*
X137089000Y-83053000D01*
X137089000Y-92947000D02*
X137089000Y-89241000D01*
X137129000Y-86759000D02*
X137129000Y-83044000D01*
X137129000Y-92956000D02*
X137129000Y-89241000D01*
X137169000Y-86759000D02*
X137169000Y-83035000D01*
X137169000Y-92965000D02*
X137169000Y-89241000D01*
X137209000Y-86759000D02*
X137209000Y-83026000D01*
X137209000Y-92974000D02*
X137209000Y-89241000D01*
X137249000Y-86759000D02*
X137249000Y-83018000D01*
X137249000Y-92982000D02*
X137249000Y-89241000D01*
X137289000Y-86759000D02*
X137289000Y-83010000D01*
X137289000Y-92990000D02*
X137289000Y-89241000D01*
X137329000Y-86759000D02*
X137329000Y-83003000D01*
X137329000Y-92997000D02*
X137329000Y-89241000D01*
X137369000Y-86759000D02*
X137369000Y-82996000D01*
X137369000Y-93004000D02*
X137369000Y-89241000D01*
X137409000Y-86759000D02*
X137409000Y-82989000D01*
X137409000Y-93011000D02*
X137409000Y-89241000D01*
X137449000Y-86759000D02*
X137449000Y-82982000D01*
X137449000Y-93018000D02*
X137449000Y-89241000D01*
X137489000Y-86759000D02*
X137489000Y-82976000D01*
X137489000Y-93024000D02*
X137489000Y-89241000D01*
X137529000Y-86759000D02*
X137529000Y-82970000D01*
X137529000Y-93030000D02*
X137529000Y-89241000D01*
X137570000Y-86759000D02*
X137570000Y-82965000D01*
X137570000Y-93035000D02*
X137570000Y-89241000D01*
X137610000Y-86759000D02*
X137610000Y-82960000D01*
X137610000Y-93040000D02*
X137610000Y-89241000D01*
X137650000Y-86759000D02*
X137650000Y-82955000D01*
X137650000Y-93045000D02*
X137650000Y-89241000D01*
X137690000Y-86759000D02*
X137690000Y-82950000D01*
X137690000Y-93050000D02*
X137690000Y-89241000D01*
X137730000Y-86759000D02*
X137730000Y-82946000D01*
X137730000Y-93054000D02*
X137730000Y-89241000D01*
X137770000Y-93058000D02*
X137770000Y-82942000D01*
X137810000Y-93062000D02*
X137810000Y-82938000D01*
X137850000Y-93065000D02*
X137850000Y-82935000D01*
X137890000Y-93068000D02*
X137890000Y-82932000D01*
X137930000Y-93070000D02*
X137930000Y-82930000D01*
X137970000Y-93073000D02*
X137970000Y-82927000D01*
X138010000Y-93075000D02*
X138010000Y-82925000D01*
X138050000Y-93077000D02*
X138050000Y-82923000D01*
X138090000Y-93078000D02*
X138090000Y-82922000D01*
X138130000Y-93079000D02*
X138130000Y-82921000D01*
X138170000Y-93080000D02*
X138170000Y-82920000D01*
X138210000Y-93080000D02*
X138210000Y-82920000D01*
X138250000Y-93080000D02*
X138250000Y-82920000D01*
X143229646Y-91375000D02*
X143229646Y-90375000D01*
X143729646Y-90875000D02*
X142729646Y-90875000D01*
X143370000Y-88000000D02*
G75*
G02*
X133130000Y-88000000I-5120000J0D01*
G01*
X133130000Y-88000000D02*
G75*
G02*
X143370000Y-88000000I5120000J0D01*
G01*
%TO.C,J2*%
X134090000Y-74670000D02*
X134090000Y-77330000D01*
X139230000Y-74670000D02*
X134090000Y-74670000D01*
X139230000Y-74670000D02*
X139230000Y-77330000D01*
X139230000Y-77330000D02*
X134090000Y-77330000D01*
X141830000Y-76000000D02*
X141830000Y-77330000D01*
X141830000Y-77330000D02*
X140500000Y-77330000D01*
%TO.C,C3*%
X147540000Y-95500000D02*
X148230000Y-95500000D01*
X148230000Y-94080000D02*
X148230000Y-96920000D01*
X148230000Y-96920000D02*
X152270000Y-96920000D01*
X152270000Y-94080000D02*
X148230000Y-94080000D01*
X152270000Y-96920000D02*
X152270000Y-94080000D01*
X152960000Y-95500000D02*
X152270000Y-95500000D01*
%TO.C,J3*%
X144630000Y-74670000D02*
X145960000Y-74670000D01*
X144630000Y-76000000D02*
X144630000Y-74670000D01*
X147230000Y-74670000D02*
X149830000Y-74670000D01*
X147230000Y-77330000D02*
X147230000Y-74670000D01*
X147230000Y-77330000D02*
X149830000Y-77330000D01*
X149830000Y-77330000D02*
X149830000Y-74670000D01*
%TO.C,C6*%
X116040000Y-117000000D02*
X116730000Y-117000000D01*
X116730000Y-115580000D02*
X116730000Y-118420000D01*
X116730000Y-118420000D02*
X120770000Y-118420000D01*
X120770000Y-115580000D02*
X116730000Y-115580000D01*
X120770000Y-118420000D02*
X120770000Y-115580000D01*
X121460000Y-117000000D02*
X120770000Y-117000000D01*
%TO.C,D3*%
X109770000Y-100500000D02*
X111030000Y-100500000D01*
X111100000Y-99000000D02*
X111100000Y-102000000D01*
X116100000Y-99000000D02*
X111100000Y-99000000D01*
X116100000Y-102000000D02*
X111100000Y-102000000D01*
X116100000Y-103900000D02*
X116100000Y-97100000D01*
D12*
X116100000Y-103900000D02*
X126050000Y-103900000D01*
D14*
X120000000Y-102400000D02*
X120000000Y-98700000D01*
X120000000Y-102400000D02*
X123600000Y-100500000D01*
X123600000Y-100500000D02*
X120000000Y-98700000D01*
D12*
X123600000Y-102400000D02*
X123600000Y-98600000D01*
X126100000Y-97100000D02*
X116100000Y-97100000D01*
X126100000Y-106100000D02*
X126100000Y-94900000D01*
X126600000Y-106100000D02*
X126600000Y-94900000D01*
D14*
X127100000Y-94900000D02*
X126100000Y-94900000D01*
X127100000Y-106100000D02*
X126100000Y-106100000D01*
D12*
X127100000Y-106100000D02*
X127100000Y-94900000D01*
D14*
X128100000Y-97500000D02*
X127100000Y-97500000D01*
X128100000Y-100500000D02*
X128700000Y-100500000D01*
X128100000Y-103500000D02*
X127100000Y-103500000D01*
D12*
X128100000Y-103500000D02*
X128100000Y-97500000D01*
D14*
%TO.C,D5*%
X110220000Y-78500000D02*
X111480000Y-78500000D01*
X111550000Y-77000000D02*
X111550000Y-80000000D01*
X116550000Y-77000000D02*
X111550000Y-77000000D01*
X116550000Y-80000000D02*
X111550000Y-80000000D01*
X116550000Y-81900000D02*
X116550000Y-75100000D01*
D12*
X116550000Y-81900000D02*
X126500000Y-81900000D01*
D14*
X120450000Y-80400000D02*
X120450000Y-76700000D01*
X120450000Y-80400000D02*
X124050000Y-78500000D01*
X124050000Y-78500000D02*
X120450000Y-76700000D01*
D12*
X124050000Y-80400000D02*
X124050000Y-76600000D01*
X126550000Y-75100000D02*
X116550000Y-75100000D01*
X126550000Y-84100000D02*
X126550000Y-72900000D01*
X127050000Y-84100000D02*
X127050000Y-72900000D01*
D14*
X127550000Y-72900000D02*
X126550000Y-72900000D01*
X127550000Y-84100000D02*
X126550000Y-84100000D01*
D12*
X127550000Y-84100000D02*
X127550000Y-72900000D01*
D14*
X128550000Y-75500000D02*
X127550000Y-75500000D01*
X128550000Y-78500000D02*
X129150000Y-78500000D01*
X128550000Y-81500000D02*
X127550000Y-81500000D01*
D12*
X128550000Y-81500000D02*
X128550000Y-75500000D01*
D14*
%TO.C,C5*%
X116040000Y-95000000D02*
X116730000Y-95000000D01*
X116730000Y-93580000D02*
X116730000Y-96420000D01*
X116730000Y-96420000D02*
X120770000Y-96420000D01*
X120770000Y-93580000D02*
X116730000Y-93580000D01*
X120770000Y-96420000D02*
X120770000Y-93580000D01*
X121460000Y-95000000D02*
X120770000Y-95000000D01*
%TO.C,C1*%
X144652654Y-85125000D02*
X145652654Y-85125000D01*
X145152654Y-84625000D02*
X145152654Y-85625000D01*
X150132300Y-82920000D02*
X150132300Y-93080000D01*
X150172300Y-82920000D02*
X150172300Y-93080000D01*
X150212300Y-82920000D02*
X150212300Y-93080000D01*
X150252300Y-82921000D02*
X150252300Y-93079000D01*
X150292300Y-82922000D02*
X150292300Y-93078000D01*
X150332300Y-82923000D02*
X150332300Y-93077000D01*
X150372300Y-82925000D02*
X150372300Y-93075000D01*
X150412300Y-82927000D02*
X150412300Y-93073000D01*
X150452300Y-82930000D02*
X150452300Y-93070000D01*
X150492300Y-82932000D02*
X150492300Y-93068000D01*
X150532300Y-82935000D02*
X150532300Y-93065000D01*
X150572300Y-82938000D02*
X150572300Y-93062000D01*
X150612300Y-82942000D02*
X150612300Y-93058000D01*
X150652300Y-82946000D02*
X150652300Y-93054000D01*
X150692300Y-82950000D02*
X150692300Y-93050000D01*
X150732300Y-82955000D02*
X150732300Y-93045000D01*
X150772300Y-82960000D02*
X150772300Y-93040000D01*
X150812300Y-82965000D02*
X150812300Y-86759000D01*
X150812300Y-89241000D02*
X150812300Y-93035000D01*
X150853300Y-82970000D02*
X150853300Y-86759000D01*
X150853300Y-89241000D02*
X150853300Y-93030000D01*
X150893300Y-82976000D02*
X150893300Y-86759000D01*
X150893300Y-89241000D02*
X150893300Y-93024000D01*
X150933300Y-82982000D02*
X150933300Y-86759000D01*
X150933300Y-89241000D02*
X150933300Y-93018000D01*
X150973300Y-82989000D02*
X150973300Y-86759000D01*
X150973300Y-89241000D02*
X150973300Y-93011000D01*
X151013300Y-82996000D02*
X151013300Y-86759000D01*
X151013300Y-89241000D02*
X151013300Y-93004000D01*
X151053300Y-83003000D02*
X151053300Y-86759000D01*
X151053300Y-89241000D02*
X151053300Y-92997000D01*
X151093300Y-83010000D02*
X151093300Y-86759000D01*
X151093300Y-89241000D02*
X151093300Y-92990000D01*
X151133300Y-83018000D02*
X151133300Y-86759000D01*
X151133300Y-89241000D02*
X151133300Y-92982000D01*
X151173300Y-83026000D02*
X151173300Y-86759000D01*
X151173300Y-89241000D02*
X151173300Y-92974000D01*
X151213300Y-83035000D02*
X151213300Y-86759000D01*
X151213300Y-89241000D02*
X151213300Y-92965000D01*
X151253300Y-83044000D02*
X151253300Y-86759000D01*
X151253300Y-89241000D02*
X151253300Y-92956000D01*
X151293300Y-83053000D02*
X151293300Y-86759000D01*
X151293300Y-89241000D02*
X151293300Y-92947000D01*
X151333300Y-83062000D02*
X151333300Y-86759000D01*
X151333300Y-89241000D02*
X151333300Y-92938000D01*
X151373300Y-83072000D02*
X151373300Y-86759000D01*
X151373300Y-89241000D02*
X151373300Y-92928000D01*
X151413300Y-83082000D02*
X151413300Y-86759000D01*
X151413300Y-89241000D02*
X151413300Y-92918000D01*
X151453300Y-83093000D02*
X151453300Y-86759000D01*
X151453300Y-89241000D02*
X151453300Y-92907000D01*
X151493300Y-83103000D02*
X151493300Y-86759000D01*
X151493300Y-89241000D02*
X151493300Y-92897000D01*
X151533300Y-83115000D02*
X151533300Y-86759000D01*
X151533300Y-89241000D02*
X151533300Y-92885000D01*
X151573300Y-83126000D02*
X151573300Y-86759000D01*
X151573300Y-89241000D02*
X151573300Y-92874000D01*
X151613300Y-83138000D02*
X151613300Y-86759000D01*
X151613300Y-89241000D02*
X151613300Y-92862000D01*
X151653300Y-83150000D02*
X151653300Y-86759000D01*
X151653300Y-89241000D02*
X151653300Y-92850000D01*
X151693300Y-83163000D02*
X151693300Y-86759000D01*
X151693300Y-89241000D02*
X151693300Y-92837000D01*
X151733300Y-83176000D02*
X151733300Y-86759000D01*
X151733300Y-89241000D02*
X151733300Y-92824000D01*
X151773300Y-83189000D02*
X151773300Y-86759000D01*
X151773300Y-89241000D02*
X151773300Y-92811000D01*
X151813300Y-83203000D02*
X151813300Y-86759000D01*
X151813300Y-89241000D02*
X151813300Y-92797000D01*
X151853300Y-83217000D02*
X151853300Y-86759000D01*
X151853300Y-89241000D02*
X151853300Y-92783000D01*
X151893300Y-83232000D02*
X151893300Y-86759000D01*
X151893300Y-89241000D02*
X151893300Y-92768000D01*
X151933300Y-83246000D02*
X151933300Y-86759000D01*
X151933300Y-89241000D02*
X151933300Y-92754000D01*
X151973300Y-83262000D02*
X151973300Y-86759000D01*
X151973300Y-89241000D02*
X151973300Y-92738000D01*
X152013300Y-83277000D02*
X152013300Y-86759000D01*
X152013300Y-89241000D02*
X152013300Y-92723000D01*
X152053300Y-83293000D02*
X152053300Y-86759000D01*
X152053300Y-89241000D02*
X152053300Y-92707000D01*
X152093300Y-83310000D02*
X152093300Y-86759000D01*
X152093300Y-89241000D02*
X152093300Y-92690000D01*
X152133300Y-83326000D02*
X152133300Y-86759000D01*
X152133300Y-89241000D02*
X152133300Y-92674000D01*
X152173300Y-83343000D02*
X152173300Y-86759000D01*
X152173300Y-89241000D02*
X152173300Y-92657000D01*
X152213300Y-83361000D02*
X152213300Y-86759000D01*
X152213300Y-89241000D02*
X152213300Y-92639000D01*
X152253300Y-83379000D02*
X152253300Y-86759000D01*
X152253300Y-89241000D02*
X152253300Y-92621000D01*
X152293300Y-83397000D02*
X152293300Y-86759000D01*
X152293300Y-89241000D02*
X152293300Y-92603000D01*
X152333300Y-83416000D02*
X152333300Y-86759000D01*
X152333300Y-89241000D02*
X152333300Y-92584000D01*
X152373300Y-83436000D02*
X152373300Y-86759000D01*
X152373300Y-89241000D02*
X152373300Y-92564000D01*
X152413300Y-83455000D02*
X152413300Y-86759000D01*
X152413300Y-89241000D02*
X152413300Y-92545000D01*
X152453300Y-83475000D02*
X152453300Y-86759000D01*
X152453300Y-89241000D02*
X152453300Y-92525000D01*
X152493300Y-83496000D02*
X152493300Y-86759000D01*
X152493300Y-89241000D02*
X152493300Y-92504000D01*
X152533300Y-83517000D02*
X152533300Y-86759000D01*
X152533300Y-89241000D02*
X152533300Y-92483000D01*
X152573300Y-83538000D02*
X152573300Y-86759000D01*
X152573300Y-89241000D02*
X152573300Y-92462000D01*
X152613300Y-83560000D02*
X152613300Y-86759000D01*
X152613300Y-89241000D02*
X152613300Y-92440000D01*
X152653300Y-83583000D02*
X152653300Y-86759000D01*
X152653300Y-89241000D02*
X152653300Y-92417000D01*
X152693300Y-83605000D02*
X152693300Y-86759000D01*
X152693300Y-89241000D02*
X152693300Y-92395000D01*
X152733300Y-83629000D02*
X152733300Y-86759000D01*
X152733300Y-89241000D02*
X152733300Y-92371000D01*
X152773300Y-83653000D02*
X152773300Y-86759000D01*
X152773300Y-89241000D02*
X152773300Y-92347000D01*
X152813300Y-83677000D02*
X152813300Y-86759000D01*
X152813300Y-89241000D02*
X152813300Y-92323000D01*
X152853300Y-83702000D02*
X152853300Y-86759000D01*
X152853300Y-89241000D02*
X152853300Y-92298000D01*
X152893300Y-83727000D02*
X152893300Y-86759000D01*
X152893300Y-89241000D02*
X152893300Y-92273000D01*
X152933300Y-83753000D02*
X152933300Y-86759000D01*
X152933300Y-89241000D02*
X152933300Y-92247000D01*
X152973300Y-83779000D02*
X152973300Y-86759000D01*
X152973300Y-89241000D02*
X152973300Y-92221000D01*
X153013300Y-83806000D02*
X153013300Y-86759000D01*
X153013300Y-89241000D02*
X153013300Y-92194000D01*
X153053300Y-83834000D02*
X153053300Y-86759000D01*
X153053300Y-89241000D02*
X153053300Y-92166000D01*
X153093300Y-83862000D02*
X153093300Y-86759000D01*
X153093300Y-89241000D02*
X153093300Y-92138000D01*
X153133300Y-83890000D02*
X153133300Y-86759000D01*
X153133300Y-89241000D02*
X153133300Y-92110000D01*
X153173300Y-83920000D02*
X153173300Y-86759000D01*
X153173300Y-89241000D02*
X153173300Y-92080000D01*
X153213300Y-83950000D02*
X153213300Y-86759000D01*
X153213300Y-89241000D02*
X153213300Y-92050000D01*
X153253300Y-83980000D02*
X153253300Y-86759000D01*
X153253300Y-89241000D02*
X153253300Y-92020000D01*
X153293300Y-84011000D02*
X153293300Y-91989000D01*
X153333300Y-84043000D02*
X153333300Y-91957000D01*
X153373300Y-84075000D02*
X153373300Y-91925000D01*
X153413300Y-84108000D02*
X153413300Y-91892000D01*
X153453300Y-84142000D02*
X153453300Y-91858000D01*
X153493300Y-84176000D02*
X153493300Y-91824000D01*
X153533300Y-84211000D02*
X153533300Y-91789000D01*
X153573300Y-84247000D02*
X153573300Y-91753000D01*
X153613300Y-84284000D02*
X153613300Y-91716000D01*
X153653300Y-84321000D02*
X153653300Y-91679000D01*
X153693300Y-84360000D02*
X153693300Y-91640000D01*
X153733300Y-84399000D02*
X153733300Y-91601000D01*
X153773300Y-84439000D02*
X153773300Y-91561000D01*
X153813300Y-84480000D02*
X153813300Y-91520000D01*
X153853300Y-84522000D02*
X153853300Y-91478000D01*
X153893300Y-84564000D02*
X153893300Y-91436000D01*
X153933300Y-84608000D02*
X153933300Y-91392000D01*
X153973300Y-84653000D02*
X153973300Y-91347000D01*
X154013300Y-84699000D02*
X154013300Y-91301000D01*
X154053300Y-84746000D02*
X154053300Y-91254000D01*
X154093300Y-84794000D02*
X154093300Y-91206000D01*
X154133300Y-84844000D02*
X154133300Y-91156000D01*
X154173300Y-84894000D02*
X154173300Y-91106000D01*
X154213300Y-84946000D02*
X154213300Y-91054000D01*
X154253300Y-85000000D02*
X154253300Y-91000000D01*
X154293300Y-85055000D02*
X154293300Y-90945000D01*
X154333300Y-85111000D02*
X154333300Y-90889000D01*
X154373300Y-85170000D02*
X154373300Y-90830000D01*
X154413300Y-85230000D02*
X154413300Y-90770000D01*
X154453300Y-85291000D02*
X154453300Y-90709000D01*
X154493300Y-85355000D02*
X154493300Y-90645000D01*
X154533300Y-85421000D02*
X154533300Y-90579000D01*
X154573300Y-85490000D02*
X154573300Y-90510000D01*
X154613300Y-85561000D02*
X154613300Y-90439000D01*
X154653300Y-85635000D02*
X154653300Y-90365000D01*
X154693300Y-85711000D02*
X154693300Y-90289000D01*
X154733300Y-85791000D02*
X154733300Y-90209000D01*
X154773300Y-85875000D02*
X154773300Y-90125000D01*
X154813300Y-85963000D02*
X154813300Y-90037000D01*
X154853300Y-86056000D02*
X154853300Y-89944000D01*
X154893300Y-86154000D02*
X154893300Y-89846000D01*
X154933300Y-86258000D02*
X154933300Y-89742000D01*
X154973300Y-86370000D02*
X154973300Y-89630000D01*
X155013300Y-86490000D02*
X155013300Y-89510000D01*
X155053300Y-86622000D02*
X155053300Y-89378000D01*
X155093300Y-86770000D02*
X155093300Y-89230000D01*
X155133300Y-86938000D02*
X155133300Y-89062000D01*
X155173300Y-87138000D02*
X155173300Y-88862000D01*
X155213300Y-87401000D02*
X155213300Y-88599000D01*
X155252300Y-88000000D02*
G75*
G02*
X145012300Y-88000000I-5120000J0D01*
G01*
X145012300Y-88000000D02*
G75*
G02*
X155252300Y-88000000I5120000J0D01*
G01*
%TO.C,J4*%
X154670000Y-104230000D02*
X154670000Y-101630000D01*
X154670000Y-106830000D02*
X154670000Y-105500000D01*
X156000000Y-106830000D02*
X154670000Y-106830000D01*
X157330000Y-101630000D02*
X154670000Y-101630000D01*
X157330000Y-104230000D02*
X154670000Y-104230000D01*
X157330000Y-104230000D02*
X157330000Y-101630000D01*
D12*
%TO.C,Q1*%
X143150000Y-116500000D02*
G75*
G02*
X133830000Y-116500000I-4660000J0D01*
G01*
X133830000Y-116500000D02*
G75*
G02*
X143150000Y-116500000I4660000J0D01*
G01*
X144350000Y-116500000D02*
G75*
G02*
X132630000Y-116500000I-5860000J0D01*
G01*
X132630000Y-116500000D02*
G75*
G02*
X144350000Y-116500000I5860000J0D01*
G01*
%TD*%
M02*
