%TF.GenerationSoftware,KiCad,Pcbnew,(7.0.0-0)*%
%TF.CreationDate,2024-02-07T17:04:43+03:00*%
%TF.ProjectId,germanium-power-src,6765726d-616e-4697-956d-2d706f776572,rev?*%
%TF.SameCoordinates,Original*%
%TF.FileFunction,Copper,L1,Top*%
%TF.FilePolarity,Positive*%
%FSLAX46Y46*%
G04 Gerber Fmt 4.6, Leading zero omitted, Abs format (unit mm)*
G04 Created by KiCad (PCBNEW (7.0.0-0)) date 2024-02-07 17:04:43*
%MOMM*%
%LPD*%
G01*
G04 APERTURE LIST*
%TA.AperFunction,ComponentPad*%
%ADD10C,1.440000*%
%TD*%
%TA.AperFunction,ComponentPad*%
%ADD11R,1.700000X1.700000*%
%TD*%
%TA.AperFunction,ComponentPad*%
%ADD12O,1.700000X1.700000*%
%TD*%
%TA.AperFunction,ComponentPad*%
%ADD13C,1.600000*%
%TD*%
%TA.AperFunction,ComponentPad*%
%ADD14O,1.600000X1.600000*%
%TD*%
%TA.AperFunction,ComponentPad*%
%ADD15R,1.600000X1.600000*%
%TD*%
%TA.AperFunction,ComponentPad*%
%ADD16R,2.000000X2.000000*%
%TD*%
%TA.AperFunction,ComponentPad*%
%ADD17C,2.000000*%
%TD*%
%TA.AperFunction,ComponentPad*%
%ADD18O,1.200000X1.200000*%
%TD*%
%TA.AperFunction,Conductor*%
%ADD19C,0.250000*%
%TD*%
G04 APERTURE END LIST*
D10*
%TO.P,RV1,1,1*%
%TO.N,Net-(D1-A)*%
X115500000Y-107420000D03*
%TO.P,RV1,2,2*%
%TO.N,Net-(Q1-B)*%
X115500000Y-109960000D03*
%TO.P,RV1,3,3*%
%TO.N,+12V*%
X115500000Y-112500000D03*
%TD*%
D11*
%TO.P,D3,1,K*%
%TO.N,Net-(D3-K)*%
X109499999Y-83499999D03*
D12*
%TO.P,D3,2,A*%
%TO.N,+12V*%
X129499999Y-83499999D03*
%TD*%
D11*
%TO.P,D4,1,K*%
%TO.N,Net-(D4-K)*%
X109499999Y-89499999D03*
D12*
%TO.P,D4,2,A*%
%TO.N,+12V*%
X129499999Y-89499999D03*
%TD*%
D13*
%TO.P,R3,1*%
%TO.N,+12V*%
X120420000Y-106500000D03*
D14*
%TO.P,R3,2*%
%TO.N,Net-(J2-Pin_1)*%
X130579999Y-106499999D03*
%TD*%
D15*
%TO.P,D1,1,A*%
%TO.N,Net-(D1-A)*%
X148499999Y-113999999D03*
D14*
%TO.P,D1,2,K*%
%TO.N,Net-(D1-K)*%
X148499999Y-101999999D03*
%TD*%
D11*
%TO.P,J1,1,Pin_1*%
%TO.N,Net-(D3-K)*%
X109499999Y-108959999D03*
D12*
%TO.P,J1,2,Pin_2*%
%TO.N,Net-(D4-K)*%
X109499999Y-111499999D03*
%TD*%
D11*
%TO.P,D6,1,K*%
%TO.N,-12V*%
X109499999Y-101499999D03*
D12*
%TO.P,D6,2,A*%
%TO.N,Net-(D3-K)*%
X129499999Y-101499999D03*
%TD*%
D13*
%TO.P,R1,1*%
%TO.N,Net-(D1-A)*%
X120420000Y-113500000D03*
D14*
%TO.P,R1,2*%
%TO.N,-12V*%
X130579999Y-113499999D03*
%TD*%
D13*
%TO.P,R2,1*%
%TO.N,+12V*%
X120420000Y-110000000D03*
D14*
%TO.P,R2,2*%
%TO.N,Net-(J2-Pin_2)*%
X130579999Y-109999999D03*
%TD*%
D15*
%TO.P,D2,1,A*%
%TO.N,Net-(D2-A)*%
X148499999Y-82499999D03*
D14*
%TO.P,D2,2,K*%
%TO.N,+12V*%
X136499999Y-82499999D03*
%TD*%
D11*
%TO.P,J2,1,Pin_1*%
%TO.N,Net-(J2-Pin_1)*%
X134919999Y-87499999D03*
D12*
%TO.P,J2,2,Pin_2*%
%TO.N,Net-(J2-Pin_2)*%
X137459999Y-87499999D03*
%TO.P,J2,3,Pin_3*%
%TO.N,-12V*%
X139999999Y-87499999D03*
%TD*%
D11*
%TO.P,J3,1,Pin_1*%
%TO.N,+12V*%
X143999999Y-89999999D03*
D12*
%TO.P,J3,2,Pin_2*%
%TO.N,Net-(J2-Pin_1)*%
X143999999Y-87459999D03*
%TD*%
D15*
%TO.P,D7,1,A*%
%TO.N,Net-(D1-K)*%
X148499999Y-98499999D03*
D14*
%TO.P,D7,2,K*%
%TO.N,Net-(D2-A)*%
X148499999Y-86499999D03*
%TD*%
D11*
%TO.P,D5,1,K*%
%TO.N,-12V*%
X109499999Y-95499999D03*
D12*
%TO.P,D5,2,A*%
%TO.N,Net-(D4-K)*%
X129499999Y-95499999D03*
%TD*%
D16*
%TO.P,C1,1*%
%TO.N,+12V*%
X135699999Y-95499999D03*
D17*
%TO.P,C1,2*%
%TO.N,-12V*%
X139500000Y-95500000D03*
%TD*%
D18*
%TO.P,Q1,1,C*%
%TO.N,-12V*%
X136449999Y-108999999D03*
%TO.P,Q1,2,B*%
%TO.N,Net-(Q1-B)*%
X138989999Y-107099999D03*
%TO.P,Q1,3,E*%
%TO.N,Net-(J2-Pin_2)*%
X141529999Y-108999999D03*
%TD*%
D19*
%TO.N,Net-(D1-A)*%
X122420000Y-115500000D02*
X120420000Y-113500000D01*
X148500000Y-114000000D02*
X146898100Y-114000000D01*
X145398100Y-115500000D02*
X122420000Y-115500000D01*
X146898100Y-114000000D02*
X145398100Y-115500000D01*
%TO.N,+12V*%
X129950000Y-91251900D02*
X129500000Y-91251900D01*
X132251900Y-82500000D02*
X131251900Y-83500000D01*
X143000000Y-92500000D02*
X138500000Y-92500000D01*
X120420000Y-110000000D02*
X118000000Y-110000000D01*
X129500000Y-83500000D02*
X131251900Y-83500000D01*
X138500000Y-92500000D02*
X135700000Y-95300000D01*
X144000000Y-91500000D02*
X143000000Y-92500000D01*
X118000000Y-110000000D02*
X115500000Y-112500000D01*
X134198100Y-95500000D02*
X129950000Y-91251900D01*
X135700000Y-95300000D02*
X135700000Y-95500000D01*
X129500000Y-89500000D02*
X129500000Y-91251900D01*
X135700000Y-95500000D02*
X134198100Y-95500000D01*
X144000000Y-90000000D02*
X144000000Y-91500000D01*
X136500000Y-82500000D02*
X132251900Y-82500000D01*
%TO.N,-12V*%
X113003800Y-99003800D02*
X111251900Y-97251900D01*
X109500000Y-95500000D02*
X111251900Y-95500000D01*
X139500000Y-95500000D02*
X135996200Y-99003800D01*
X113003800Y-99748100D02*
X113003800Y-99003800D01*
X109500000Y-101500000D02*
X111251900Y-101500000D01*
X135996200Y-99003800D02*
X113003800Y-99003800D01*
X111251900Y-101500000D02*
X113003800Y-99748100D01*
X111251900Y-97251900D02*
X111251900Y-95500000D01*
%TO.N,Net-(J2-Pin_1)*%
X140500000Y-90500000D02*
X143540000Y-87460000D01*
X136500000Y-90500000D02*
X140500000Y-90500000D01*
X143540000Y-87460000D02*
X144000000Y-87460000D01*
X134920000Y-87500000D02*
X134920000Y-88920000D01*
X134920000Y-88920000D02*
X136500000Y-90500000D01*
%TO.N,Net-(J2-Pin_2)*%
X137928100Y-111500000D02*
X133381900Y-111500000D01*
X141530000Y-109000000D02*
X140428100Y-109000000D01*
X140428100Y-109000000D02*
X137928100Y-111500000D01*
X131881900Y-110000000D02*
X130580000Y-110000000D01*
X133381900Y-111500000D02*
X131881900Y-110000000D01*
%TO.N,Net-(Q1-B)*%
X133500000Y-108500000D02*
X116960000Y-108500000D01*
X116960000Y-108500000D02*
X115500000Y-109960000D01*
X138990000Y-107100000D02*
X134900000Y-107100000D01*
X134900000Y-107100000D02*
X133500000Y-108500000D01*
%TO.N,Net-(D3-K)*%
X109500000Y-108960000D02*
X110851900Y-108960000D01*
X110851900Y-108960000D02*
X118311900Y-101500000D01*
X118311900Y-101500000D02*
X129500000Y-101500000D01*
%TO.N,Net-(D4-K)*%
X121748100Y-89500000D02*
X109500000Y-89500000D01*
X129500000Y-95500000D02*
X127748100Y-95500000D01*
X127748100Y-95500000D02*
X121748100Y-89500000D01*
%TD*%
%TA.AperFunction,Conductor*%
%TO.N,-12V*%
G36*
X151438000Y-80016613D02*
G01*
X151483387Y-80062000D01*
X151500000Y-80124000D01*
X151500000Y-115876000D01*
X151483387Y-115938000D01*
X151438000Y-115983387D01*
X151376000Y-116000000D01*
X146082051Y-116000000D01*
X146025756Y-115986485D01*
X145981733Y-115948885D01*
X145959578Y-115895398D01*
X145964120Y-115837682D01*
X145994370Y-115788319D01*
X146990543Y-114792146D01*
X147050782Y-114758904D01*
X147119474Y-114762893D01*
X147175463Y-114802888D01*
X147201510Y-114866575D01*
X147205078Y-114899761D01*
X147205079Y-114899768D01*
X147205909Y-114907483D01*
X147208619Y-114914749D01*
X147208620Y-114914753D01*
X147242217Y-115004831D01*
X147256204Y-115042331D01*
X147342454Y-115157546D01*
X147457669Y-115243796D01*
X147592517Y-115294091D01*
X147652127Y-115300500D01*
X149347872Y-115300499D01*
X149407483Y-115294091D01*
X149542331Y-115243796D01*
X149657546Y-115157546D01*
X149743796Y-115042331D01*
X149794091Y-114907483D01*
X149800500Y-114847873D01*
X149800499Y-113152128D01*
X149794091Y-113092517D01*
X149743796Y-112957669D01*
X149657546Y-112842454D01*
X149645801Y-112833662D01*
X149549431Y-112761519D01*
X149549430Y-112761518D01*
X149542331Y-112756204D01*
X149407483Y-112705909D01*
X149399770Y-112705079D01*
X149399767Y-112705079D01*
X149351180Y-112699855D01*
X149351169Y-112699854D01*
X149347873Y-112699500D01*
X149344550Y-112699500D01*
X147655439Y-112699500D01*
X147655420Y-112699500D01*
X147652128Y-112699501D01*
X147648850Y-112699853D01*
X147648838Y-112699854D01*
X147600231Y-112705079D01*
X147600225Y-112705080D01*
X147592517Y-112705909D01*
X147585252Y-112708618D01*
X147585246Y-112708620D01*
X147465980Y-112753104D01*
X147465978Y-112753104D01*
X147457669Y-112756204D01*
X147450572Y-112761516D01*
X147450568Y-112761519D01*
X147349550Y-112837141D01*
X147349546Y-112837144D01*
X147342454Y-112842454D01*
X147337144Y-112849546D01*
X147337141Y-112849550D01*
X147261519Y-112950568D01*
X147261516Y-112950572D01*
X147256204Y-112957669D01*
X147253104Y-112965978D01*
X147253104Y-112965980D01*
X147208620Y-113085247D01*
X147208619Y-113085250D01*
X147205909Y-113092517D01*
X147205079Y-113100227D01*
X147205079Y-113100232D01*
X147199855Y-113148819D01*
X147199854Y-113148831D01*
X147199500Y-113152127D01*
X147199500Y-113155449D01*
X147199500Y-113250500D01*
X147182887Y-113312500D01*
X147137500Y-113357887D01*
X147075500Y-113374500D01*
X146975871Y-113374500D01*
X146964818Y-113373979D01*
X146957432Y-113372328D01*
X146949634Y-113372573D01*
X146890244Y-113374439D01*
X146886350Y-113374500D01*
X146858750Y-113374500D01*
X146854899Y-113374986D01*
X146854868Y-113374988D01*
X146854740Y-113375005D01*
X146843129Y-113375918D01*
X146807267Y-113377045D01*
X146807259Y-113377046D01*
X146799473Y-113377291D01*
X146791985Y-113379466D01*
X146791986Y-113379466D01*
X146780234Y-113382880D01*
X146761195Y-113386822D01*
X146749048Y-113388357D01*
X146749040Y-113388358D01*
X146741308Y-113389336D01*
X146734062Y-113392204D01*
X146734057Y-113392206D01*
X146700685Y-113405419D01*
X146689639Y-113409200D01*
X146682148Y-113411377D01*
X146655194Y-113419208D01*
X146655189Y-113419209D01*
X146647710Y-113421383D01*
X146641008Y-113425346D01*
X146640997Y-113425351D01*
X146630464Y-113431581D01*
X146613000Y-113440136D01*
X146601624Y-113444640D01*
X146601617Y-113444643D01*
X146594368Y-113447514D01*
X146588062Y-113452094D01*
X146588057Y-113452098D01*
X146559027Y-113473189D01*
X146549269Y-113479598D01*
X146523895Y-113494605D01*
X146511679Y-113501830D01*
X146506163Y-113507344D01*
X146506156Y-113507351D01*
X146497507Y-113516000D01*
X146482724Y-113528626D01*
X146472827Y-113535817D01*
X146472820Y-113535823D01*
X146466513Y-113540406D01*
X146461546Y-113546408D01*
X146461535Y-113546420D01*
X146438670Y-113574059D01*
X146430810Y-113582697D01*
X145175328Y-114838181D01*
X145135100Y-114865061D01*
X145087647Y-114874500D01*
X131267766Y-114874500D01*
X131203901Y-114856789D01*
X131158280Y-114808714D01*
X131143936Y-114744010D01*
X131164966Y-114681160D01*
X131215362Y-114638118D01*
X131227576Y-114632422D01*
X131236912Y-114627032D01*
X131414381Y-114502767D01*
X131422647Y-114495830D01*
X131575830Y-114342647D01*
X131582767Y-114334381D01*
X131707032Y-114156912D01*
X131712420Y-114147580D01*
X131803977Y-113951234D01*
X131807669Y-113941092D01*
X131855179Y-113763780D01*
X131855547Y-113752551D01*
X131844605Y-113750000D01*
X129315395Y-113750000D01*
X129304452Y-113752551D01*
X129304820Y-113763780D01*
X129352330Y-113941092D01*
X129356022Y-113951234D01*
X129447579Y-114147580D01*
X129452967Y-114156912D01*
X129577232Y-114334381D01*
X129584169Y-114342647D01*
X129737352Y-114495830D01*
X129745618Y-114502767D01*
X129923087Y-114627032D01*
X129932423Y-114632422D01*
X129944638Y-114638118D01*
X129995034Y-114681160D01*
X130016064Y-114744010D01*
X130001720Y-114808714D01*
X129956099Y-114856789D01*
X129892234Y-114874500D01*
X122730453Y-114874500D01*
X122683000Y-114865061D01*
X122642772Y-114838181D01*
X121719413Y-113914822D01*
X121687319Y-113859234D01*
X121687319Y-113795047D01*
X121699390Y-113750000D01*
X121705635Y-113726692D01*
X121725468Y-113500000D01*
X121705635Y-113273308D01*
X121698706Y-113247448D01*
X129304452Y-113247448D01*
X129315395Y-113250000D01*
X130313674Y-113250000D01*
X130326549Y-113246549D01*
X130330000Y-113233674D01*
X130830000Y-113233674D01*
X130833450Y-113246549D01*
X130846326Y-113250000D01*
X131844605Y-113250000D01*
X131855547Y-113247448D01*
X131855179Y-113236219D01*
X131807669Y-113058907D01*
X131803977Y-113048765D01*
X131712420Y-112852419D01*
X131707032Y-112843087D01*
X131582767Y-112665618D01*
X131575830Y-112657352D01*
X131422647Y-112504169D01*
X131414381Y-112497232D01*
X131236912Y-112372967D01*
X131227580Y-112367579D01*
X131031234Y-112276022D01*
X131021092Y-112272330D01*
X130843780Y-112224820D01*
X130832551Y-112224452D01*
X130830000Y-112235395D01*
X130830000Y-113233674D01*
X130330000Y-113233674D01*
X130330000Y-112235395D01*
X130327448Y-112224452D01*
X130316219Y-112224820D01*
X130138907Y-112272330D01*
X130128765Y-112276022D01*
X129932419Y-112367579D01*
X129923087Y-112372967D01*
X129745618Y-112497232D01*
X129737352Y-112504169D01*
X129584169Y-112657352D01*
X129577232Y-112665618D01*
X129452967Y-112843087D01*
X129447579Y-112852419D01*
X129356022Y-113048765D01*
X129352330Y-113058907D01*
X129304820Y-113236219D01*
X129304452Y-113247448D01*
X121698706Y-113247448D01*
X121672284Y-113148838D01*
X121648141Y-113058736D01*
X121648140Y-113058734D01*
X121646739Y-113053504D01*
X121550568Y-112847266D01*
X121420047Y-112660861D01*
X121259139Y-112499953D01*
X121197224Y-112456600D01*
X121077173Y-112372540D01*
X121077171Y-112372539D01*
X121072734Y-112369432D01*
X121008145Y-112339313D01*
X120871405Y-112275550D01*
X120871403Y-112275549D01*
X120866496Y-112273261D01*
X120861271Y-112271861D01*
X120861263Y-112271858D01*
X120651916Y-112215764D01*
X120651907Y-112215762D01*
X120646692Y-112214365D01*
X120641304Y-112213893D01*
X120641301Y-112213893D01*
X120425395Y-112195004D01*
X120420000Y-112194532D01*
X120414605Y-112195004D01*
X120198698Y-112213893D01*
X120198693Y-112213893D01*
X120193308Y-112214365D01*
X120188094Y-112215762D01*
X120188083Y-112215764D01*
X119978736Y-112271858D01*
X119978724Y-112271862D01*
X119973504Y-112273261D01*
X119968599Y-112275547D01*
X119968594Y-112275550D01*
X119772176Y-112367142D01*
X119772172Y-112367144D01*
X119767266Y-112369432D01*
X119762833Y-112372535D01*
X119762826Y-112372540D01*
X119585296Y-112496847D01*
X119585291Y-112496850D01*
X119580861Y-112499953D01*
X119577037Y-112503776D01*
X119577031Y-112503782D01*
X119423782Y-112657031D01*
X119423776Y-112657037D01*
X119419953Y-112660861D01*
X119416850Y-112665291D01*
X119416847Y-112665296D01*
X119292540Y-112842826D01*
X119292535Y-112842833D01*
X119289432Y-112847266D01*
X119287144Y-112852172D01*
X119287142Y-112852176D01*
X119195550Y-113048594D01*
X119195547Y-113048599D01*
X119193261Y-113053504D01*
X119191862Y-113058724D01*
X119191858Y-113058736D01*
X119135764Y-113268083D01*
X119135762Y-113268094D01*
X119134365Y-113273308D01*
X119133893Y-113278693D01*
X119133893Y-113278698D01*
X119119910Y-113438529D01*
X119114532Y-113500000D01*
X119115004Y-113505395D01*
X119133892Y-113721293D01*
X119134365Y-113726692D01*
X119135762Y-113731907D01*
X119135764Y-113731916D01*
X119191858Y-113941263D01*
X119191861Y-113941271D01*
X119193261Y-113946496D01*
X119289432Y-114152734D01*
X119419953Y-114339139D01*
X119580861Y-114500047D01*
X119767266Y-114630568D01*
X119973504Y-114726739D01*
X119978734Y-114728140D01*
X119978736Y-114728141D01*
X120055800Y-114748790D01*
X120193308Y-114785635D01*
X120420000Y-114805468D01*
X120646692Y-114785635D01*
X120715048Y-114767319D01*
X120779234Y-114767319D01*
X120834822Y-114799413D01*
X121823728Y-115788319D01*
X121853978Y-115837682D01*
X121858520Y-115895398D01*
X121836365Y-115948885D01*
X121792342Y-115986485D01*
X121736047Y-116000000D01*
X106624000Y-116000000D01*
X106562000Y-115983387D01*
X106516613Y-115938000D01*
X106500000Y-115876000D01*
X106500000Y-111500000D01*
X108144341Y-111500000D01*
X108164937Y-111735408D01*
X108166336Y-111740630D01*
X108166337Y-111740634D01*
X108224694Y-111958430D01*
X108224697Y-111958438D01*
X108226097Y-111963663D01*
X108228385Y-111968570D01*
X108228386Y-111968572D01*
X108323678Y-112172927D01*
X108323681Y-112172933D01*
X108325965Y-112177830D01*
X108329064Y-112182257D01*
X108329066Y-112182259D01*
X108458399Y-112366966D01*
X108458402Y-112366970D01*
X108461505Y-112371401D01*
X108628599Y-112538495D01*
X108822170Y-112674035D01*
X109036337Y-112773903D01*
X109264592Y-112835063D01*
X109500000Y-112855659D01*
X109735408Y-112835063D01*
X109963663Y-112773903D01*
X110177830Y-112674035D01*
X110371401Y-112538495D01*
X110409896Y-112500000D01*
X114274838Y-112500000D01*
X114275310Y-112505395D01*
X114292852Y-112705909D01*
X114293451Y-112712747D01*
X114294851Y-112717971D01*
X114347321Y-112913797D01*
X114347324Y-112913805D01*
X114348724Y-112919030D01*
X114351012Y-112923937D01*
X114351013Y-112923939D01*
X114366742Y-112957669D01*
X114438979Y-113112581D01*
X114561471Y-113287519D01*
X114712481Y-113438529D01*
X114887419Y-113561021D01*
X115080970Y-113651276D01*
X115287253Y-113706549D01*
X115500000Y-113725162D01*
X115712747Y-113706549D01*
X115919030Y-113651276D01*
X116112581Y-113561021D01*
X116287519Y-113438529D01*
X116438529Y-113287519D01*
X116561021Y-113112581D01*
X116651276Y-112919030D01*
X116706549Y-112712747D01*
X116725162Y-112500000D01*
X116706549Y-112287253D01*
X116701999Y-112270276D01*
X116701997Y-112206087D01*
X116734090Y-112150498D01*
X118222771Y-110661819D01*
X118263000Y-110634939D01*
X118310453Y-110625500D01*
X119205812Y-110625500D01*
X119263069Y-110639511D01*
X119307387Y-110678377D01*
X119358482Y-110751348D01*
X119419953Y-110839139D01*
X119580861Y-111000047D01*
X119767266Y-111130568D01*
X119973504Y-111226739D01*
X119978734Y-111228140D01*
X119978736Y-111228141D01*
X120097629Y-111259998D01*
X120193308Y-111285635D01*
X120420000Y-111305468D01*
X120646692Y-111285635D01*
X120866496Y-111226739D01*
X121072734Y-111130568D01*
X121259139Y-111000047D01*
X121420047Y-110839139D01*
X121550568Y-110652734D01*
X121646739Y-110446496D01*
X121705635Y-110226692D01*
X121725468Y-110000000D01*
X121705635Y-109773308D01*
X121675782Y-109661894D01*
X121648141Y-109558736D01*
X121648140Y-109558734D01*
X121646739Y-109553504D01*
X121550568Y-109347266D01*
X121531912Y-109320622D01*
X121509753Y-109257609D01*
X121523499Y-109192242D01*
X121569161Y-109143491D01*
X121633488Y-109125500D01*
X129366512Y-109125500D01*
X129430839Y-109143491D01*
X129476501Y-109192242D01*
X129490247Y-109257609D01*
X129468087Y-109320622D01*
X129449432Y-109347266D01*
X129447144Y-109352172D01*
X129447142Y-109352176D01*
X129355550Y-109548594D01*
X129355547Y-109548599D01*
X129353261Y-109553504D01*
X129351862Y-109558724D01*
X129351858Y-109558736D01*
X129295764Y-109768083D01*
X129295762Y-109768094D01*
X129294365Y-109773308D01*
X129293893Y-109778693D01*
X129293893Y-109778698D01*
X129275767Y-109985882D01*
X129274532Y-110000000D01*
X129275004Y-110005395D01*
X129291966Y-110199280D01*
X129294365Y-110226692D01*
X129295762Y-110231907D01*
X129295764Y-110231916D01*
X129351858Y-110441263D01*
X129351861Y-110441271D01*
X129353261Y-110446496D01*
X129449432Y-110652734D01*
X129579953Y-110839139D01*
X129740861Y-111000047D01*
X129927266Y-111130568D01*
X130133504Y-111226739D01*
X130138734Y-111228140D01*
X130138736Y-111228141D01*
X130257629Y-111259998D01*
X130353308Y-111285635D01*
X130580000Y-111305468D01*
X130806692Y-111285635D01*
X131026496Y-111226739D01*
X131232734Y-111130568D01*
X131419139Y-111000047D01*
X131580047Y-110839139D01*
X131600883Y-110809381D01*
X131640452Y-110773122D01*
X131691645Y-110756979D01*
X131744864Y-110763985D01*
X131790135Y-110792825D01*
X132343830Y-111346521D01*
X132884607Y-111887298D01*
X132892059Y-111895487D01*
X132896114Y-111901877D01*
X132945123Y-111947900D01*
X132947919Y-111950610D01*
X132967429Y-111970120D01*
X132970609Y-111972587D01*
X132979471Y-111980155D01*
X132992780Y-111992654D01*
X133005632Y-112004723D01*
X133005634Y-112004724D01*
X133011318Y-112010062D01*
X133018151Y-112013818D01*
X133018152Y-112013819D01*
X133028873Y-112019713D01*
X133045134Y-112030394D01*
X133060964Y-112042673D01*
X133101055Y-112060021D01*
X133111535Y-112065155D01*
X133149808Y-112086197D01*
X133169216Y-112091180D01*
X133187619Y-112097481D01*
X133198844Y-112102339D01*
X133198846Y-112102339D01*
X133206004Y-112105437D01*
X133249158Y-112112271D01*
X133260544Y-112114629D01*
X133302881Y-112125500D01*
X133322917Y-112125500D01*
X133342315Y-112127027D01*
X133354386Y-112128939D01*
X133354387Y-112128939D01*
X133362096Y-112130160D01*
X133400176Y-112126560D01*
X133405576Y-112126050D01*
X133417245Y-112125500D01*
X137850325Y-112125500D01*
X137861380Y-112126021D01*
X137868767Y-112127673D01*
X137935972Y-112125561D01*
X137939868Y-112125500D01*
X137963548Y-112125500D01*
X137967450Y-112125500D01*
X137971413Y-112124999D01*
X137983063Y-112124080D01*
X138026727Y-112122709D01*
X138045961Y-112117119D01*
X138065017Y-112113174D01*
X138084892Y-112110664D01*
X138125495Y-112094587D01*
X138136550Y-112090802D01*
X138178490Y-112078618D01*
X138195729Y-112068422D01*
X138213203Y-112059862D01*
X138224574Y-112055360D01*
X138224576Y-112055358D01*
X138231832Y-112052486D01*
X138267169Y-112026811D01*
X138276924Y-112020403D01*
X138314520Y-111998170D01*
X138328684Y-111984005D01*
X138343479Y-111971368D01*
X138359687Y-111959594D01*
X138387528Y-111925938D01*
X138395379Y-111917309D01*
X140553599Y-109759089D01*
X140607344Y-109727506D01*
X140669668Y-109726066D01*
X140724814Y-109755134D01*
X140863959Y-109881981D01*
X141037363Y-109989348D01*
X141227544Y-110063024D01*
X141428024Y-110100500D01*
X141626247Y-110100500D01*
X141631976Y-110100500D01*
X141832456Y-110063024D01*
X142022637Y-109989348D01*
X142196041Y-109881981D01*
X142346764Y-109744579D01*
X142469673Y-109581821D01*
X142560582Y-109399250D01*
X142616397Y-109203083D01*
X142635215Y-109000000D01*
X142616397Y-108796917D01*
X142560582Y-108600750D01*
X142469673Y-108418179D01*
X142399479Y-108325227D01*
X142350221Y-108259998D01*
X142350217Y-108259994D01*
X142346764Y-108255421D01*
X142342527Y-108251558D01*
X142342523Y-108251554D01*
X142200275Y-108121879D01*
X142200276Y-108121879D01*
X142196041Y-108118019D01*
X142191171Y-108115004D01*
X142191169Y-108115002D01*
X142027511Y-108013670D01*
X142027512Y-108013670D01*
X142022637Y-108010652D01*
X142001638Y-108002517D01*
X141837803Y-107939047D01*
X141837798Y-107939045D01*
X141832456Y-107936976D01*
X141799888Y-107930888D01*
X141637605Y-107900552D01*
X141637602Y-107900551D01*
X141631976Y-107899500D01*
X141428024Y-107899500D01*
X141422398Y-107900551D01*
X141422394Y-107900552D01*
X141233181Y-107935922D01*
X141233178Y-107935922D01*
X141227544Y-107936976D01*
X141222203Y-107939044D01*
X141222196Y-107939047D01*
X141042705Y-108008582D01*
X141042700Y-108008584D01*
X141037363Y-108010652D01*
X141032491Y-108013668D01*
X141032488Y-108013670D01*
X140868830Y-108115002D01*
X140868822Y-108115007D01*
X140863959Y-108118019D01*
X140859728Y-108121875D01*
X140859724Y-108121879D01*
X140717476Y-108251554D01*
X140717466Y-108251564D01*
X140713236Y-108255421D01*
X140709787Y-108259987D01*
X140709778Y-108259998D01*
X140660521Y-108325227D01*
X140616839Y-108361500D01*
X140561567Y-108374500D01*
X140505875Y-108374500D01*
X140494819Y-108373978D01*
X140487433Y-108372327D01*
X140479645Y-108372571D01*
X140479638Y-108372571D01*
X140420227Y-108374439D01*
X140416332Y-108374500D01*
X140388750Y-108374500D01*
X140384905Y-108374985D01*
X140384880Y-108374987D01*
X140384753Y-108375004D01*
X140373134Y-108375918D01*
X140337272Y-108377045D01*
X140337265Y-108377046D01*
X140329473Y-108377291D01*
X140321988Y-108379465D01*
X140321972Y-108379468D01*
X140310226Y-108382881D01*
X140291183Y-108386825D01*
X140279049Y-108388358D01*
X140279048Y-108388358D01*
X140271308Y-108389336D01*
X140264058Y-108392205D01*
X140264051Y-108392208D01*
X140230698Y-108405413D01*
X140219654Y-108409194D01*
X140185201Y-108419204D01*
X140185190Y-108419208D01*
X140177710Y-108421382D01*
X140170998Y-108425351D01*
X140170996Y-108425352D01*
X140160464Y-108431580D01*
X140143004Y-108440134D01*
X140131619Y-108444642D01*
X140131613Y-108444644D01*
X140124368Y-108447514D01*
X140118063Y-108452094D01*
X140118055Y-108452099D01*
X140089032Y-108473185D01*
X140079274Y-108479595D01*
X140048396Y-108497857D01*
X140048390Y-108497861D01*
X140041680Y-108501830D01*
X140036167Y-108507341D01*
X140036160Y-108507348D01*
X140027510Y-108515998D01*
X140012727Y-108528624D01*
X140002826Y-108535817D01*
X140002816Y-108535826D01*
X139996513Y-108540406D01*
X139991544Y-108546411D01*
X139991541Y-108546415D01*
X139968672Y-108574059D01*
X139960811Y-108582697D01*
X137705328Y-110838181D01*
X137665100Y-110865061D01*
X137617647Y-110874500D01*
X133692353Y-110874500D01*
X133644900Y-110865061D01*
X133604672Y-110838181D01*
X132379186Y-109612695D01*
X132371742Y-109604514D01*
X132367686Y-109598123D01*
X132318675Y-109552098D01*
X132315878Y-109549387D01*
X132299127Y-109532636D01*
X132296371Y-109529880D01*
X132293190Y-109527412D01*
X132284314Y-109519830D01*
X132258169Y-109495278D01*
X132258167Y-109495276D01*
X132252482Y-109489938D01*
X132245649Y-109486182D01*
X132245643Y-109486177D01*
X132234925Y-109480285D01*
X132218666Y-109469606D01*
X132208995Y-109462104D01*
X132208992Y-109462102D01*
X132202836Y-109457327D01*
X132195679Y-109454229D01*
X132195676Y-109454228D01*
X132162749Y-109439978D01*
X132152263Y-109434841D01*
X132120832Y-109417562D01*
X132120823Y-109417558D01*
X132113992Y-109413803D01*
X132106435Y-109411862D01*
X132106431Y-109411861D01*
X132094588Y-109408820D01*
X132076184Y-109402519D01*
X132064957Y-109397660D01*
X132064950Y-109397658D01*
X132057796Y-109394562D01*
X132050092Y-109393341D01*
X132050090Y-109393341D01*
X132014659Y-109387729D01*
X132003224Y-109385361D01*
X131968471Y-109376438D01*
X131968463Y-109376437D01*
X131960919Y-109374500D01*
X131953123Y-109374500D01*
X131940883Y-109374500D01*
X131921486Y-109372973D01*
X131915172Y-109371973D01*
X131859083Y-109347876D01*
X131821290Y-109299936D01*
X131813152Y-109252579D01*
X135380888Y-109252579D01*
X135381409Y-109263838D01*
X135418315Y-109393549D01*
X135422444Y-109404205D01*
X135508199Y-109576424D01*
X135514206Y-109586127D01*
X135630149Y-109739662D01*
X135637847Y-109748106D01*
X135780027Y-109877719D01*
X135789131Y-109884595D01*
X135952715Y-109985882D01*
X135962928Y-109990968D01*
X136142333Y-110060469D01*
X136153317Y-110063594D01*
X136186570Y-110069810D01*
X136197598Y-110069428D01*
X136200000Y-110058661D01*
X136700000Y-110058661D01*
X136702401Y-110069428D01*
X136713429Y-110069810D01*
X136746682Y-110063594D01*
X136757666Y-110060469D01*
X136937071Y-109990968D01*
X136947284Y-109985882D01*
X137110868Y-109884595D01*
X137119972Y-109877719D01*
X137262152Y-109748106D01*
X137269850Y-109739662D01*
X137385793Y-109586127D01*
X137391800Y-109576424D01*
X137477555Y-109404205D01*
X137481684Y-109393549D01*
X137518590Y-109263838D01*
X137519111Y-109252579D01*
X137508143Y-109250000D01*
X136716326Y-109250000D01*
X136703450Y-109253450D01*
X136700000Y-109266326D01*
X136700000Y-110058661D01*
X136200000Y-110058661D01*
X136200000Y-109266326D01*
X136196549Y-109253450D01*
X136183674Y-109250000D01*
X135391857Y-109250000D01*
X135380888Y-109252579D01*
X131813152Y-109252579D01*
X131810951Y-109239771D01*
X131830574Y-109181965D01*
X131875401Y-109140527D01*
X131934569Y-109125500D01*
X133422225Y-109125500D01*
X133433280Y-109126021D01*
X133440667Y-109127673D01*
X133507872Y-109125561D01*
X133511768Y-109125500D01*
X133535448Y-109125500D01*
X133539350Y-109125500D01*
X133543313Y-109124999D01*
X133554963Y-109124080D01*
X133598627Y-109122709D01*
X133617861Y-109117119D01*
X133636917Y-109113174D01*
X133656792Y-109110664D01*
X133697395Y-109094587D01*
X133708450Y-109090802D01*
X133750390Y-109078618D01*
X133767629Y-109068422D01*
X133785103Y-109059862D01*
X133796474Y-109055360D01*
X133796476Y-109055358D01*
X133803732Y-109052486D01*
X133839069Y-109026811D01*
X133848824Y-109020403D01*
X133886420Y-108998170D01*
X133900584Y-108984005D01*
X133915379Y-108971368D01*
X133931587Y-108959594D01*
X133959428Y-108925938D01*
X133967279Y-108917309D01*
X135122771Y-107761819D01*
X135163000Y-107734939D01*
X135210453Y-107725500D01*
X136031467Y-107725500D01*
X136096745Y-107744073D01*
X136142467Y-107794229D01*
X136154938Y-107860942D01*
X136130421Y-107924227D01*
X136076260Y-107965127D01*
X135962932Y-108009029D01*
X135952715Y-108014117D01*
X135789131Y-108115404D01*
X135780027Y-108122280D01*
X135637847Y-108251893D01*
X135630149Y-108260337D01*
X135514206Y-108413872D01*
X135508199Y-108423575D01*
X135422444Y-108595794D01*
X135418315Y-108606450D01*
X135381409Y-108736161D01*
X135380888Y-108747420D01*
X135391857Y-108750000D01*
X137508143Y-108750000D01*
X137519111Y-108747420D01*
X137518590Y-108736161D01*
X137481684Y-108606450D01*
X137477555Y-108595794D01*
X137391800Y-108423575D01*
X137385793Y-108413872D01*
X137269850Y-108260337D01*
X137262152Y-108251893D01*
X137119972Y-108122280D01*
X137110868Y-108115404D01*
X136947284Y-108014117D01*
X136937067Y-108009029D01*
X136823740Y-107965127D01*
X136769579Y-107924227D01*
X136745062Y-107860942D01*
X136757533Y-107794229D01*
X136803255Y-107744073D01*
X136868533Y-107725500D01*
X138021567Y-107725500D01*
X138076839Y-107738500D01*
X138120521Y-107774773D01*
X138169778Y-107840001D01*
X138169783Y-107840006D01*
X138173236Y-107844579D01*
X138177472Y-107848440D01*
X138177476Y-107848445D01*
X138273435Y-107935922D01*
X138323959Y-107981981D01*
X138497363Y-108089348D01*
X138687544Y-108163024D01*
X138888024Y-108200500D01*
X139086247Y-108200500D01*
X139091976Y-108200500D01*
X139292456Y-108163024D01*
X139482637Y-108089348D01*
X139656041Y-107981981D01*
X139806764Y-107844579D01*
X139929673Y-107681821D01*
X140020582Y-107499250D01*
X140076397Y-107303083D01*
X140095215Y-107100000D01*
X140076397Y-106896917D01*
X140020582Y-106700750D01*
X139929673Y-106518179D01*
X139859479Y-106425227D01*
X139810221Y-106359998D01*
X139810217Y-106359994D01*
X139806764Y-106355421D01*
X139802527Y-106351558D01*
X139802523Y-106351554D01*
X139660275Y-106221879D01*
X139660276Y-106221879D01*
X139656041Y-106218019D01*
X139651171Y-106215004D01*
X139651169Y-106215002D01*
X139487511Y-106113670D01*
X139487512Y-106113670D01*
X139482637Y-106110652D01*
X139477294Y-106108582D01*
X139297803Y-106039047D01*
X139297798Y-106039045D01*
X139292456Y-106036976D01*
X139286818Y-106035922D01*
X139097605Y-106000552D01*
X139097602Y-106000551D01*
X139091976Y-105999500D01*
X138888024Y-105999500D01*
X138882398Y-106000551D01*
X138882394Y-106000552D01*
X138693181Y-106035922D01*
X138693178Y-106035922D01*
X138687544Y-106036976D01*
X138682203Y-106039044D01*
X138682196Y-106039047D01*
X138502705Y-106108582D01*
X138502700Y-106108584D01*
X138497363Y-106110652D01*
X138492491Y-106113668D01*
X138492488Y-106113670D01*
X138328830Y-106215002D01*
X138328822Y-106215007D01*
X138323959Y-106218019D01*
X138319728Y-106221875D01*
X138319724Y-106221879D01*
X138177476Y-106351554D01*
X138177466Y-106351564D01*
X138173236Y-106355421D01*
X138169787Y-106359987D01*
X138169778Y-106359998D01*
X138120521Y-106425227D01*
X138076839Y-106461500D01*
X138021567Y-106474500D01*
X134977775Y-106474500D01*
X134966719Y-106473978D01*
X134959333Y-106472327D01*
X134951545Y-106472571D01*
X134951538Y-106472571D01*
X134892127Y-106474439D01*
X134888232Y-106474500D01*
X134860650Y-106474500D01*
X134856805Y-106474985D01*
X134856780Y-106474987D01*
X134856653Y-106475004D01*
X134845034Y-106475918D01*
X134809172Y-106477045D01*
X134809165Y-106477046D01*
X134801373Y-106477291D01*
X134793888Y-106479465D01*
X134793872Y-106479468D01*
X134782126Y-106482881D01*
X134763083Y-106486825D01*
X134750949Y-106488358D01*
X134750948Y-106488358D01*
X134743208Y-106489336D01*
X134735958Y-106492205D01*
X134735951Y-106492208D01*
X134702598Y-106505413D01*
X134691554Y-106509194D01*
X134657101Y-106519204D01*
X134657090Y-106519208D01*
X134649610Y-106521382D01*
X134642898Y-106525351D01*
X134642896Y-106525352D01*
X134632364Y-106531580D01*
X134614904Y-106540134D01*
X134603519Y-106544642D01*
X134603513Y-106544644D01*
X134596268Y-106547514D01*
X134589963Y-106552094D01*
X134589955Y-106552099D01*
X134560932Y-106573185D01*
X134551174Y-106579595D01*
X134520296Y-106597857D01*
X134520290Y-106597861D01*
X134513580Y-106601830D01*
X134508067Y-106607341D01*
X134508060Y-106607348D01*
X134499410Y-106615998D01*
X134484627Y-106628624D01*
X134474726Y-106635817D01*
X134474716Y-106635826D01*
X134468413Y-106640406D01*
X134463444Y-106646411D01*
X134463441Y-106646415D01*
X134440572Y-106674059D01*
X134432711Y-106682697D01*
X133277228Y-107838181D01*
X133237000Y-107865061D01*
X133189547Y-107874500D01*
X131268948Y-107874500D01*
X131205083Y-107856789D01*
X131159463Y-107808715D01*
X131145118Y-107744010D01*
X131166147Y-107681160D01*
X131216543Y-107638118D01*
X131216865Y-107637968D01*
X131232734Y-107630568D01*
X131419139Y-107500047D01*
X131580047Y-107339139D01*
X131710568Y-107152734D01*
X131806739Y-106946496D01*
X131865635Y-106726692D01*
X131885468Y-106500000D01*
X131865635Y-106273308D01*
X131806739Y-106053504D01*
X131710568Y-105847266D01*
X131580047Y-105660861D01*
X131419139Y-105499953D01*
X131232734Y-105369432D01*
X131026496Y-105273261D01*
X131021271Y-105271861D01*
X131021263Y-105271858D01*
X130811916Y-105215764D01*
X130811907Y-105215762D01*
X130806692Y-105214365D01*
X130801304Y-105213893D01*
X130801301Y-105213893D01*
X130585395Y-105195004D01*
X130580000Y-105194532D01*
X130574605Y-105195004D01*
X130358698Y-105213893D01*
X130358693Y-105213893D01*
X130353308Y-105214365D01*
X130348094Y-105215762D01*
X130348083Y-105215764D01*
X130138736Y-105271858D01*
X130138724Y-105271862D01*
X130133504Y-105273261D01*
X130128599Y-105275547D01*
X130128594Y-105275550D01*
X129932176Y-105367142D01*
X129932172Y-105367144D01*
X129927266Y-105369432D01*
X129922833Y-105372535D01*
X129922826Y-105372540D01*
X129745296Y-105496847D01*
X129745291Y-105496850D01*
X129740861Y-105499953D01*
X129737037Y-105503776D01*
X129737031Y-105503782D01*
X129583782Y-105657031D01*
X129583776Y-105657037D01*
X129579953Y-105660861D01*
X129576850Y-105665291D01*
X129576847Y-105665296D01*
X129452540Y-105842826D01*
X129452535Y-105842833D01*
X129449432Y-105847266D01*
X129447144Y-105852172D01*
X129447142Y-105852176D01*
X129355550Y-106048594D01*
X129355547Y-106048599D01*
X129353261Y-106053504D01*
X129351862Y-106058724D01*
X129351858Y-106058736D01*
X129295764Y-106268083D01*
X129295762Y-106268094D01*
X129294365Y-106273308D01*
X129293893Y-106278693D01*
X129293893Y-106278698D01*
X129286598Y-106362087D01*
X129274532Y-106500000D01*
X129275004Y-106505395D01*
X129287341Y-106646415D01*
X129294365Y-106726692D01*
X129295762Y-106731907D01*
X129295764Y-106731916D01*
X129351858Y-106941263D01*
X129351861Y-106941271D01*
X129353261Y-106946496D01*
X129355549Y-106951403D01*
X129355550Y-106951405D01*
X129419313Y-107088145D01*
X129449432Y-107152734D01*
X129579953Y-107339139D01*
X129740861Y-107500047D01*
X129927266Y-107630568D01*
X129943135Y-107637968D01*
X129943457Y-107638118D01*
X129993853Y-107681160D01*
X130014882Y-107744010D01*
X130000537Y-107808715D01*
X129954917Y-107856789D01*
X129891052Y-107874500D01*
X121108948Y-107874500D01*
X121045083Y-107856789D01*
X120999463Y-107808715D01*
X120985118Y-107744010D01*
X121006147Y-107681160D01*
X121056543Y-107638118D01*
X121056865Y-107637968D01*
X121072734Y-107630568D01*
X121259139Y-107500047D01*
X121420047Y-107339139D01*
X121550568Y-107152734D01*
X121646739Y-106946496D01*
X121705635Y-106726692D01*
X121725468Y-106500000D01*
X121705635Y-106273308D01*
X121646739Y-106053504D01*
X121550568Y-105847266D01*
X121420047Y-105660861D01*
X121259139Y-105499953D01*
X121072734Y-105369432D01*
X120866496Y-105273261D01*
X120861271Y-105271861D01*
X120861263Y-105271858D01*
X120651916Y-105215764D01*
X120651907Y-105215762D01*
X120646692Y-105214365D01*
X120641304Y-105213893D01*
X120641301Y-105213893D01*
X120425395Y-105195004D01*
X120420000Y-105194532D01*
X120414605Y-105195004D01*
X120198698Y-105213893D01*
X120198693Y-105213893D01*
X120193308Y-105214365D01*
X120188094Y-105215762D01*
X120188083Y-105215764D01*
X119978736Y-105271858D01*
X119978724Y-105271862D01*
X119973504Y-105273261D01*
X119968599Y-105275547D01*
X119968594Y-105275550D01*
X119772176Y-105367142D01*
X119772172Y-105367144D01*
X119767266Y-105369432D01*
X119762833Y-105372535D01*
X119762826Y-105372540D01*
X119585296Y-105496847D01*
X119585291Y-105496850D01*
X119580861Y-105499953D01*
X119577037Y-105503776D01*
X119577031Y-105503782D01*
X119423782Y-105657031D01*
X119423776Y-105657037D01*
X119419953Y-105660861D01*
X119416850Y-105665291D01*
X119416847Y-105665296D01*
X119292540Y-105842826D01*
X119292535Y-105842833D01*
X119289432Y-105847266D01*
X119287144Y-105852172D01*
X119287142Y-105852176D01*
X119195550Y-106048594D01*
X119195547Y-106048599D01*
X119193261Y-106053504D01*
X119191862Y-106058724D01*
X119191858Y-106058736D01*
X119135764Y-106268083D01*
X119135762Y-106268094D01*
X119134365Y-106273308D01*
X119133893Y-106278693D01*
X119133893Y-106278698D01*
X119126598Y-106362087D01*
X119114532Y-106500000D01*
X119115004Y-106505395D01*
X119127341Y-106646415D01*
X119134365Y-106726692D01*
X119135762Y-106731907D01*
X119135764Y-106731916D01*
X119191858Y-106941263D01*
X119191861Y-106941271D01*
X119193261Y-106946496D01*
X119195549Y-106951403D01*
X119195550Y-106951405D01*
X119259313Y-107088145D01*
X119289432Y-107152734D01*
X119419953Y-107339139D01*
X119580861Y-107500047D01*
X119767266Y-107630568D01*
X119783135Y-107637968D01*
X119783457Y-107638118D01*
X119833853Y-107681160D01*
X119854882Y-107744010D01*
X119840537Y-107808715D01*
X119794917Y-107856789D01*
X119731052Y-107874500D01*
X117037775Y-107874500D01*
X117026719Y-107873978D01*
X117019333Y-107872327D01*
X117011545Y-107872571D01*
X117011538Y-107872571D01*
X116952127Y-107874439D01*
X116948232Y-107874500D01*
X116920650Y-107874500D01*
X116916805Y-107874985D01*
X116916780Y-107874987D01*
X116916653Y-107875004D01*
X116905034Y-107875918D01*
X116869172Y-107877045D01*
X116869165Y-107877046D01*
X116861373Y-107877291D01*
X116853888Y-107879465D01*
X116853872Y-107879468D01*
X116842126Y-107882881D01*
X116823082Y-107886825D01*
X116815081Y-107887836D01*
X116755404Y-107880695D01*
X116706095Y-107846330D01*
X116678739Y-107792814D01*
X116679761Y-107732720D01*
X116681696Y-107725500D01*
X116706549Y-107632747D01*
X116725162Y-107420000D01*
X116706549Y-107207253D01*
X116651276Y-107000970D01*
X116561021Y-106807419D01*
X116438529Y-106632481D01*
X116287519Y-106481471D01*
X116112581Y-106358979D01*
X115940419Y-106278698D01*
X115923939Y-106271013D01*
X115923937Y-106271012D01*
X115919030Y-106268724D01*
X115913805Y-106267324D01*
X115913797Y-106267321D01*
X115744201Y-106221879D01*
X115712747Y-106213451D01*
X115707359Y-106212979D01*
X115707356Y-106212979D01*
X115505395Y-106195310D01*
X115500000Y-106194838D01*
X115494605Y-106195310D01*
X115292643Y-106212979D01*
X115292638Y-106212979D01*
X115287253Y-106213451D01*
X115282028Y-106214850D01*
X115282028Y-106214851D01*
X115086202Y-106267321D01*
X115086190Y-106267325D01*
X115080970Y-106268724D01*
X115076065Y-106271010D01*
X115076060Y-106271013D01*
X114892329Y-106356689D01*
X114892325Y-106356691D01*
X114887419Y-106358979D01*
X114882986Y-106362082D01*
X114882979Y-106362087D01*
X114716916Y-106478365D01*
X114716911Y-106478368D01*
X114712481Y-106481471D01*
X114708657Y-106485294D01*
X114708651Y-106485300D01*
X114565300Y-106628651D01*
X114565294Y-106628657D01*
X114561471Y-106632481D01*
X114558368Y-106636911D01*
X114558365Y-106636916D01*
X114442087Y-106802979D01*
X114442082Y-106802986D01*
X114438979Y-106807419D01*
X114436691Y-106812325D01*
X114436689Y-106812329D01*
X114351013Y-106996060D01*
X114351010Y-106996065D01*
X114348724Y-107000970D01*
X114347325Y-107006190D01*
X114347321Y-107006202D01*
X114322189Y-107100000D01*
X114293451Y-107207253D01*
X114292979Y-107212638D01*
X114292979Y-107212643D01*
X114281912Y-107339139D01*
X114274838Y-107420000D01*
X114293451Y-107632747D01*
X114294850Y-107637968D01*
X114294851Y-107637971D01*
X114347321Y-107833797D01*
X114347324Y-107833805D01*
X114348724Y-107839030D01*
X114351012Y-107843937D01*
X114351013Y-107843939D01*
X114367581Y-107879468D01*
X114438979Y-108032581D01*
X114442086Y-108037018D01*
X114442087Y-108037020D01*
X114476613Y-108086329D01*
X114561471Y-108207519D01*
X114712481Y-108358529D01*
X114887419Y-108481021D01*
X115080970Y-108571276D01*
X115086195Y-108572676D01*
X115088401Y-108573479D01*
X115138139Y-108607028D01*
X115166306Y-108660002D01*
X115166306Y-108719998D01*
X115138139Y-108772972D01*
X115088401Y-108806521D01*
X115086193Y-108807324D01*
X115080970Y-108808724D01*
X115076073Y-108811007D01*
X115076066Y-108811010D01*
X114892329Y-108896689D01*
X114892325Y-108896691D01*
X114887419Y-108898979D01*
X114882986Y-108902082D01*
X114882979Y-108902087D01*
X114716916Y-109018365D01*
X114716911Y-109018368D01*
X114712481Y-109021471D01*
X114708657Y-109025294D01*
X114708651Y-109025300D01*
X114565300Y-109168651D01*
X114565294Y-109168657D01*
X114561471Y-109172481D01*
X114558368Y-109176911D01*
X114558365Y-109176916D01*
X114442087Y-109342979D01*
X114442082Y-109342986D01*
X114438979Y-109347419D01*
X114436691Y-109352325D01*
X114436689Y-109352329D01*
X114351013Y-109536060D01*
X114351010Y-109536065D01*
X114348724Y-109540970D01*
X114347325Y-109546190D01*
X114347321Y-109546202D01*
X114315199Y-109666086D01*
X114293451Y-109747253D01*
X114292979Y-109752638D01*
X114292979Y-109752643D01*
X114281664Y-109881981D01*
X114274838Y-109960000D01*
X114275310Y-109965395D01*
X114283943Y-110064077D01*
X114293451Y-110172747D01*
X114306461Y-110221301D01*
X114347321Y-110373797D01*
X114347324Y-110373805D01*
X114348724Y-110379030D01*
X114438979Y-110572581D01*
X114442086Y-110577018D01*
X114442087Y-110577020D01*
X114501464Y-110661819D01*
X114561471Y-110747519D01*
X114712481Y-110898529D01*
X114887419Y-111021021D01*
X115080970Y-111111276D01*
X115086195Y-111112676D01*
X115088401Y-111113479D01*
X115138139Y-111147028D01*
X115166306Y-111200002D01*
X115166306Y-111259998D01*
X115138139Y-111312972D01*
X115088401Y-111346521D01*
X115086193Y-111347324D01*
X115080970Y-111348724D01*
X115076073Y-111351007D01*
X115076066Y-111351010D01*
X114892329Y-111436689D01*
X114892325Y-111436691D01*
X114887419Y-111438979D01*
X114882986Y-111442082D01*
X114882979Y-111442087D01*
X114716916Y-111558365D01*
X114716911Y-111558368D01*
X114712481Y-111561471D01*
X114708657Y-111565294D01*
X114708651Y-111565300D01*
X114565300Y-111708651D01*
X114565294Y-111708657D01*
X114561471Y-111712481D01*
X114558368Y-111716911D01*
X114558365Y-111716916D01*
X114442087Y-111882979D01*
X114442082Y-111882986D01*
X114438979Y-111887419D01*
X114436691Y-111892325D01*
X114436689Y-111892329D01*
X114351013Y-112076060D01*
X114351010Y-112076065D01*
X114348724Y-112080970D01*
X114347325Y-112086190D01*
X114347321Y-112086202D01*
X114307346Y-112235395D01*
X114293451Y-112287253D01*
X114292979Y-112292638D01*
X114292979Y-112292643D01*
X114286423Y-112367579D01*
X114274838Y-112500000D01*
X110409896Y-112500000D01*
X110538495Y-112371401D01*
X110674035Y-112177830D01*
X110773903Y-111963663D01*
X110835063Y-111735408D01*
X110855659Y-111500000D01*
X110835063Y-111264592D01*
X110773903Y-111036337D01*
X110674035Y-110822171D01*
X110538495Y-110628599D01*
X110416569Y-110506673D01*
X110385273Y-110453927D01*
X110383084Y-110392634D01*
X110410537Y-110337789D01*
X110460916Y-110302810D01*
X110592331Y-110253796D01*
X110707546Y-110167546D01*
X110793796Y-110052331D01*
X110844091Y-109917483D01*
X110850500Y-109857873D01*
X110850499Y-109703466D01*
X110864014Y-109647172D01*
X110901614Y-109603148D01*
X110950571Y-109582869D01*
X110950525Y-109582709D01*
X110950527Y-109582709D01*
X110969761Y-109577119D01*
X110988817Y-109573174D01*
X111008692Y-109570664D01*
X111049295Y-109554587D01*
X111060350Y-109550802D01*
X111102290Y-109538618D01*
X111119529Y-109528422D01*
X111137003Y-109519862D01*
X111148374Y-109515360D01*
X111148376Y-109515358D01*
X111155632Y-109512486D01*
X111190969Y-109486811D01*
X111200724Y-109480403D01*
X111238320Y-109458170D01*
X111252484Y-109444005D01*
X111267279Y-109431368D01*
X111283487Y-109419594D01*
X111311328Y-109385938D01*
X111319179Y-109377309D01*
X118534671Y-102161819D01*
X118574900Y-102134939D01*
X118622353Y-102125500D01*
X128224772Y-102125500D01*
X128282029Y-102139511D01*
X128326347Y-102178376D01*
X128458399Y-102366966D01*
X128458402Y-102366970D01*
X128461505Y-102371401D01*
X128628599Y-102538495D01*
X128822170Y-102674035D01*
X129036337Y-102773903D01*
X129264592Y-102835063D01*
X129500000Y-102855659D01*
X129735408Y-102835063D01*
X129963663Y-102773903D01*
X130177830Y-102674035D01*
X130371401Y-102538495D01*
X130538495Y-102371401D01*
X130674035Y-102177830D01*
X130756959Y-102000000D01*
X147194532Y-102000000D01*
X147195004Y-102005395D01*
X147210477Y-102182259D01*
X147214365Y-102226692D01*
X147215762Y-102231907D01*
X147215764Y-102231916D01*
X147271858Y-102441263D01*
X147271861Y-102441271D01*
X147273261Y-102446496D01*
X147369432Y-102652734D01*
X147372539Y-102657171D01*
X147372540Y-102657173D01*
X147402592Y-102700092D01*
X147499953Y-102839139D01*
X147660861Y-103000047D01*
X147847266Y-103130568D01*
X148053504Y-103226739D01*
X148273308Y-103285635D01*
X148500000Y-103305468D01*
X148726692Y-103285635D01*
X148946496Y-103226739D01*
X149152734Y-103130568D01*
X149339139Y-103000047D01*
X149500047Y-102839139D01*
X149630568Y-102652734D01*
X149726739Y-102446496D01*
X149785635Y-102226692D01*
X149805468Y-102000000D01*
X149785635Y-101773308D01*
X149726739Y-101553504D01*
X149630568Y-101347266D01*
X149500047Y-101160861D01*
X149339139Y-100999953D01*
X149209521Y-100909194D01*
X149157173Y-100872540D01*
X149157171Y-100872539D01*
X149152734Y-100869432D01*
X148946496Y-100773261D01*
X148941271Y-100771861D01*
X148941263Y-100771858D01*
X148731916Y-100715764D01*
X148731907Y-100715762D01*
X148726692Y-100714365D01*
X148721304Y-100713893D01*
X148721301Y-100713893D01*
X148505395Y-100695004D01*
X148500000Y-100694532D01*
X148494605Y-100695004D01*
X148278698Y-100713893D01*
X148278693Y-100713893D01*
X148273308Y-100714365D01*
X148268094Y-100715762D01*
X148268083Y-100715764D01*
X148058736Y-100771858D01*
X148058724Y-100771862D01*
X148053504Y-100773261D01*
X148048599Y-100775547D01*
X148048594Y-100775550D01*
X147852176Y-100867142D01*
X147852172Y-100867144D01*
X147847266Y-100869432D01*
X147842833Y-100872535D01*
X147842826Y-100872540D01*
X147665296Y-100996847D01*
X147665291Y-100996850D01*
X147660861Y-100999953D01*
X147657037Y-101003776D01*
X147657031Y-101003782D01*
X147503782Y-101157031D01*
X147503776Y-101157037D01*
X147499953Y-101160861D01*
X147496850Y-101165291D01*
X147496847Y-101165296D01*
X147372540Y-101342826D01*
X147372535Y-101342833D01*
X147369432Y-101347266D01*
X147367144Y-101352172D01*
X147367142Y-101352176D01*
X147275550Y-101548594D01*
X147275547Y-101548599D01*
X147273261Y-101553504D01*
X147271862Y-101558724D01*
X147271858Y-101558736D01*
X147215764Y-101768083D01*
X147215762Y-101768094D01*
X147214365Y-101773308D01*
X147194532Y-102000000D01*
X130756959Y-102000000D01*
X130773903Y-101963663D01*
X130835063Y-101735408D01*
X130855659Y-101500000D01*
X130835063Y-101264592D01*
X130773903Y-101036337D01*
X130674035Y-100822171D01*
X130538495Y-100628599D01*
X130371401Y-100461505D01*
X130366970Y-100458402D01*
X130366966Y-100458399D01*
X130182259Y-100329066D01*
X130182257Y-100329064D01*
X130177830Y-100325965D01*
X130172933Y-100323681D01*
X130172927Y-100323678D01*
X129968572Y-100228386D01*
X129968570Y-100228385D01*
X129963663Y-100226097D01*
X129958438Y-100224697D01*
X129958430Y-100224694D01*
X129740634Y-100166337D01*
X129740630Y-100166336D01*
X129735408Y-100164937D01*
X129730020Y-100164465D01*
X129730017Y-100164465D01*
X129505395Y-100144813D01*
X129500000Y-100144341D01*
X129494605Y-100144813D01*
X129269982Y-100164465D01*
X129269977Y-100164465D01*
X129264592Y-100164937D01*
X129259371Y-100166335D01*
X129259365Y-100166337D01*
X129041569Y-100224694D01*
X129041557Y-100224698D01*
X129036337Y-100226097D01*
X129031432Y-100228383D01*
X129031427Y-100228386D01*
X128827081Y-100323675D01*
X128827077Y-100323677D01*
X128822171Y-100325965D01*
X128817738Y-100329068D01*
X128817731Y-100329073D01*
X128633034Y-100458399D01*
X128633029Y-100458402D01*
X128628599Y-100461505D01*
X128624775Y-100465328D01*
X128624769Y-100465334D01*
X128465334Y-100624769D01*
X128465328Y-100624775D01*
X128461505Y-100628599D01*
X128458402Y-100633029D01*
X128458399Y-100633034D01*
X128326349Y-100821623D01*
X128282031Y-100860489D01*
X128224774Y-100874500D01*
X118389671Y-100874500D01*
X118378618Y-100873979D01*
X118371232Y-100872328D01*
X118363434Y-100872573D01*
X118304044Y-100874439D01*
X118300150Y-100874500D01*
X118272550Y-100874500D01*
X118268699Y-100874986D01*
X118268668Y-100874988D01*
X118268540Y-100875005D01*
X118256929Y-100875918D01*
X118221072Y-100877045D01*
X118221065Y-100877046D01*
X118213273Y-100877291D01*
X118205788Y-100879465D01*
X118205772Y-100879468D01*
X118194026Y-100882881D01*
X118174983Y-100886825D01*
X118162849Y-100888358D01*
X118162848Y-100888358D01*
X118155108Y-100889336D01*
X118147858Y-100892205D01*
X118147851Y-100892208D01*
X118114498Y-100905413D01*
X118103454Y-100909194D01*
X118069005Y-100919203D01*
X118068995Y-100919207D01*
X118061510Y-100921382D01*
X118054800Y-100925349D01*
X118054798Y-100925351D01*
X118051405Y-100927357D01*
X118044260Y-100931583D01*
X118026800Y-100940136D01*
X118008168Y-100947514D01*
X118001865Y-100952092D01*
X118001858Y-100952097D01*
X117972839Y-100973181D01*
X117963079Y-100979592D01*
X117932194Y-100997857D01*
X117932184Y-100997864D01*
X117925479Y-101001830D01*
X117919963Y-101007345D01*
X117919960Y-101007348D01*
X117911307Y-101016000D01*
X117896524Y-101028626D01*
X117886627Y-101035817D01*
X117886620Y-101035823D01*
X117880313Y-101040406D01*
X117875346Y-101046408D01*
X117875335Y-101046420D01*
X117852470Y-101074059D01*
X117844610Y-101082697D01*
X111002448Y-107924859D01*
X110949700Y-107956156D01*
X110888406Y-107958343D01*
X110833560Y-107930888D01*
X110798584Y-107880506D01*
X110793796Y-107867669D01*
X110707546Y-107752454D01*
X110696350Y-107744073D01*
X110599431Y-107671519D01*
X110599430Y-107671518D01*
X110592331Y-107666204D01*
X110521965Y-107639959D01*
X110464752Y-107618620D01*
X110464750Y-107618619D01*
X110457483Y-107615909D01*
X110449770Y-107615079D01*
X110449767Y-107615079D01*
X110401180Y-107609855D01*
X110401169Y-107609854D01*
X110397873Y-107609500D01*
X110394550Y-107609500D01*
X108605439Y-107609500D01*
X108605420Y-107609500D01*
X108602128Y-107609501D01*
X108598850Y-107609853D01*
X108598838Y-107609854D01*
X108550231Y-107615079D01*
X108550225Y-107615080D01*
X108542517Y-107615909D01*
X108535252Y-107618618D01*
X108535246Y-107618620D01*
X108415980Y-107663104D01*
X108415978Y-107663104D01*
X108407669Y-107666204D01*
X108400572Y-107671516D01*
X108400568Y-107671519D01*
X108299550Y-107747141D01*
X108299546Y-107747144D01*
X108292454Y-107752454D01*
X108287144Y-107759546D01*
X108287141Y-107759550D01*
X108211519Y-107860568D01*
X108211516Y-107860572D01*
X108206204Y-107867669D01*
X108203104Y-107875978D01*
X108203104Y-107875980D01*
X108158620Y-107995247D01*
X108158619Y-107995250D01*
X108155909Y-108002517D01*
X108155079Y-108010227D01*
X108155079Y-108010232D01*
X108149855Y-108058819D01*
X108149854Y-108058831D01*
X108149500Y-108062127D01*
X108149500Y-108065448D01*
X108149500Y-108065449D01*
X108149500Y-109854560D01*
X108149500Y-109854578D01*
X108149501Y-109857872D01*
X108149853Y-109861150D01*
X108149854Y-109861161D01*
X108155079Y-109909768D01*
X108155080Y-109909773D01*
X108155909Y-109917483D01*
X108158619Y-109924749D01*
X108158620Y-109924753D01*
X108186686Y-110000000D01*
X108206204Y-110052331D01*
X108292454Y-110167546D01*
X108407669Y-110253796D01*
X108517405Y-110294725D01*
X108539082Y-110302810D01*
X108589462Y-110337789D01*
X108616915Y-110392633D01*
X108614726Y-110453926D01*
X108583431Y-110506672D01*
X108461505Y-110628599D01*
X108458402Y-110633029D01*
X108458399Y-110633034D01*
X108329073Y-110817731D01*
X108329068Y-110817738D01*
X108325965Y-110822171D01*
X108323677Y-110827077D01*
X108323675Y-110827081D01*
X108228386Y-111031427D01*
X108228383Y-111031432D01*
X108226097Y-111036337D01*
X108224698Y-111041557D01*
X108224694Y-111041569D01*
X108166337Y-111259365D01*
X108166335Y-111259371D01*
X108164937Y-111264592D01*
X108164465Y-111269977D01*
X108164465Y-111269982D01*
X108160704Y-111312972D01*
X108144341Y-111500000D01*
X106500000Y-111500000D01*
X106500000Y-102394518D01*
X108150000Y-102394518D01*
X108150353Y-102401114D01*
X108155573Y-102449667D01*
X108159111Y-102464641D01*
X108203547Y-102583777D01*
X108211962Y-102599189D01*
X108287498Y-102700092D01*
X108299907Y-102712501D01*
X108400810Y-102788037D01*
X108416222Y-102796452D01*
X108535358Y-102840888D01*
X108550332Y-102844426D01*
X108598885Y-102849646D01*
X108605482Y-102850000D01*
X109233674Y-102850000D01*
X109246549Y-102846549D01*
X109250000Y-102833674D01*
X109750000Y-102833674D01*
X109753450Y-102846549D01*
X109766326Y-102850000D01*
X110394518Y-102850000D01*
X110401114Y-102849646D01*
X110449667Y-102844426D01*
X110464641Y-102840888D01*
X110583777Y-102796452D01*
X110599189Y-102788037D01*
X110700092Y-102712501D01*
X110712501Y-102700092D01*
X110788037Y-102599189D01*
X110796452Y-102583777D01*
X110840888Y-102464641D01*
X110844426Y-102449667D01*
X110849646Y-102401114D01*
X110850000Y-102394518D01*
X110850000Y-101766326D01*
X110846549Y-101753450D01*
X110833674Y-101750000D01*
X109766326Y-101750000D01*
X109753450Y-101753450D01*
X109750000Y-101766326D01*
X109750000Y-102833674D01*
X109250000Y-102833674D01*
X109250000Y-101766326D01*
X109246549Y-101753450D01*
X109233674Y-101750000D01*
X108166326Y-101750000D01*
X108153450Y-101753450D01*
X108150000Y-101766326D01*
X108150000Y-102394518D01*
X106500000Y-102394518D01*
X106500000Y-101233674D01*
X108150000Y-101233674D01*
X108153450Y-101246549D01*
X108166326Y-101250000D01*
X109233674Y-101250000D01*
X109246549Y-101246549D01*
X109250000Y-101233674D01*
X109750000Y-101233674D01*
X109753450Y-101246549D01*
X109766326Y-101250000D01*
X110833674Y-101250000D01*
X110846549Y-101246549D01*
X110850000Y-101233674D01*
X110850000Y-100605482D01*
X110849646Y-100598885D01*
X110844426Y-100550332D01*
X110840888Y-100535358D01*
X110796452Y-100416222D01*
X110788037Y-100400810D01*
X110712501Y-100299907D01*
X110700092Y-100287498D01*
X110599189Y-100211962D01*
X110583777Y-100203547D01*
X110464641Y-100159111D01*
X110449667Y-100155573D01*
X110401114Y-100150353D01*
X110394518Y-100150000D01*
X109766326Y-100150000D01*
X109753450Y-100153450D01*
X109750000Y-100166326D01*
X109750000Y-101233674D01*
X109250000Y-101233674D01*
X109250000Y-100166326D01*
X109246549Y-100153450D01*
X109233674Y-100150000D01*
X108605482Y-100150000D01*
X108598885Y-100150353D01*
X108550332Y-100155573D01*
X108535358Y-100159111D01*
X108416222Y-100203547D01*
X108400810Y-100211962D01*
X108299907Y-100287498D01*
X108287498Y-100299907D01*
X108211962Y-100400810D01*
X108203547Y-100416222D01*
X108159111Y-100535358D01*
X108155573Y-100550332D01*
X108150353Y-100598885D01*
X108150000Y-100605482D01*
X108150000Y-101233674D01*
X106500000Y-101233674D01*
X106500000Y-99344578D01*
X147199500Y-99344578D01*
X147199501Y-99347872D01*
X147199853Y-99351150D01*
X147199854Y-99351161D01*
X147205079Y-99399768D01*
X147205080Y-99399773D01*
X147205909Y-99407483D01*
X147208619Y-99414749D01*
X147208620Y-99414753D01*
X147242217Y-99504831D01*
X147256204Y-99542331D01*
X147342454Y-99657546D01*
X147457669Y-99743796D01*
X147592517Y-99794091D01*
X147652127Y-99800500D01*
X149347872Y-99800499D01*
X149407483Y-99794091D01*
X149542331Y-99743796D01*
X149657546Y-99657546D01*
X149743796Y-99542331D01*
X149794091Y-99407483D01*
X149800500Y-99347873D01*
X149800499Y-97652128D01*
X149794091Y-97592517D01*
X149743796Y-97457669D01*
X149657546Y-97342454D01*
X149542331Y-97256204D01*
X149407483Y-97205909D01*
X149399770Y-97205079D01*
X149399767Y-97205079D01*
X149351180Y-97199855D01*
X149351169Y-97199854D01*
X149347873Y-97199500D01*
X149344550Y-97199500D01*
X147655439Y-97199500D01*
X147655420Y-97199500D01*
X147652128Y-97199501D01*
X147648850Y-97199853D01*
X147648838Y-97199854D01*
X147600231Y-97205079D01*
X147600225Y-97205080D01*
X147592517Y-97205909D01*
X147585252Y-97208618D01*
X147585246Y-97208620D01*
X147465980Y-97253104D01*
X147465978Y-97253104D01*
X147457669Y-97256204D01*
X147450572Y-97261516D01*
X147450568Y-97261519D01*
X147349550Y-97337141D01*
X147349546Y-97337144D01*
X147342454Y-97342454D01*
X147337144Y-97349546D01*
X147337141Y-97349550D01*
X147261519Y-97450568D01*
X147261516Y-97450572D01*
X147256204Y-97457669D01*
X147253104Y-97465978D01*
X147253104Y-97465980D01*
X147208620Y-97585247D01*
X147208619Y-97585250D01*
X147205909Y-97592517D01*
X147205079Y-97600227D01*
X147205079Y-97600232D01*
X147199855Y-97648819D01*
X147199854Y-97648831D01*
X147199500Y-97652127D01*
X147199500Y-97655448D01*
X147199500Y-97655449D01*
X147199500Y-99344560D01*
X147199500Y-99344578D01*
X106500000Y-99344578D01*
X106500000Y-96394518D01*
X108150000Y-96394518D01*
X108150353Y-96401114D01*
X108155573Y-96449667D01*
X108159111Y-96464641D01*
X108203547Y-96583777D01*
X108211962Y-96599189D01*
X108287498Y-96700092D01*
X108299907Y-96712501D01*
X108400810Y-96788037D01*
X108416222Y-96796452D01*
X108535358Y-96840888D01*
X108550332Y-96844426D01*
X108598885Y-96849646D01*
X108605482Y-96850000D01*
X109233674Y-96850000D01*
X109246549Y-96846549D01*
X109250000Y-96833674D01*
X109750000Y-96833674D01*
X109753450Y-96846549D01*
X109766326Y-96850000D01*
X110394518Y-96850000D01*
X110401114Y-96849646D01*
X110449667Y-96844426D01*
X110464641Y-96840888D01*
X110583777Y-96796452D01*
X110599189Y-96788037D01*
X110700092Y-96712501D01*
X110712501Y-96700092D01*
X110788037Y-96599189D01*
X110796452Y-96583777D01*
X110840888Y-96464641D01*
X110844426Y-96449667D01*
X110849646Y-96401114D01*
X110850000Y-96394518D01*
X110850000Y-95766326D01*
X110846549Y-95753450D01*
X110833674Y-95750000D01*
X109766326Y-95750000D01*
X109753450Y-95753450D01*
X109750000Y-95766326D01*
X109750000Y-96833674D01*
X109250000Y-96833674D01*
X109250000Y-95766326D01*
X109246549Y-95753450D01*
X109233674Y-95750000D01*
X108166326Y-95750000D01*
X108153450Y-95753450D01*
X108150000Y-95766326D01*
X108150000Y-96394518D01*
X106500000Y-96394518D01*
X106500000Y-95233674D01*
X108150000Y-95233674D01*
X108153450Y-95246549D01*
X108166326Y-95250000D01*
X109233674Y-95250000D01*
X109246549Y-95246549D01*
X109250000Y-95233674D01*
X109750000Y-95233674D01*
X109753450Y-95246549D01*
X109766326Y-95250000D01*
X110833674Y-95250000D01*
X110846549Y-95246549D01*
X110850000Y-95233674D01*
X110850000Y-94605482D01*
X110849646Y-94598885D01*
X110844426Y-94550332D01*
X110840888Y-94535358D01*
X110796452Y-94416222D01*
X110788037Y-94400810D01*
X110712501Y-94299907D01*
X110700092Y-94287498D01*
X110599189Y-94211962D01*
X110583777Y-94203547D01*
X110464641Y-94159111D01*
X110449667Y-94155573D01*
X110401114Y-94150353D01*
X110394518Y-94150000D01*
X109766326Y-94150000D01*
X109753450Y-94153450D01*
X109750000Y-94166326D01*
X109750000Y-95233674D01*
X109250000Y-95233674D01*
X109250000Y-94166326D01*
X109246549Y-94153450D01*
X109233674Y-94150000D01*
X108605482Y-94150000D01*
X108598885Y-94150353D01*
X108550332Y-94155573D01*
X108535358Y-94159111D01*
X108416222Y-94203547D01*
X108400810Y-94211962D01*
X108299907Y-94287498D01*
X108287498Y-94299907D01*
X108211962Y-94400810D01*
X108203547Y-94416222D01*
X108159111Y-94535358D01*
X108155573Y-94550332D01*
X108150353Y-94598885D01*
X108150000Y-94605482D01*
X108150000Y-95233674D01*
X106500000Y-95233674D01*
X106500000Y-90394578D01*
X108149500Y-90394578D01*
X108149501Y-90397872D01*
X108149853Y-90401150D01*
X108149854Y-90401161D01*
X108155079Y-90449768D01*
X108155080Y-90449773D01*
X108155909Y-90457483D01*
X108158619Y-90464749D01*
X108158620Y-90464753D01*
X108184695Y-90534663D01*
X108206204Y-90592331D01*
X108211518Y-90599430D01*
X108211519Y-90599431D01*
X108267367Y-90674035D01*
X108292454Y-90707546D01*
X108407669Y-90793796D01*
X108542517Y-90844091D01*
X108602127Y-90850500D01*
X110397872Y-90850499D01*
X110457483Y-90844091D01*
X110592331Y-90793796D01*
X110707546Y-90707546D01*
X110793796Y-90592331D01*
X110844091Y-90457483D01*
X110850500Y-90397873D01*
X110850500Y-90249500D01*
X110867113Y-90187500D01*
X110912500Y-90142113D01*
X110974500Y-90125500D01*
X121437648Y-90125500D01*
X121485101Y-90134939D01*
X121525328Y-90161818D01*
X124390327Y-93026818D01*
X127250807Y-95887298D01*
X127258259Y-95895487D01*
X127262314Y-95901877D01*
X127268002Y-95907218D01*
X127311323Y-95947900D01*
X127314120Y-95950611D01*
X127333629Y-95970120D01*
X127336809Y-95972587D01*
X127345671Y-95980155D01*
X127359120Y-95992785D01*
X127371832Y-96004723D01*
X127371834Y-96004724D01*
X127377518Y-96010062D01*
X127384351Y-96013818D01*
X127384352Y-96013819D01*
X127395073Y-96019713D01*
X127411334Y-96030394D01*
X127427164Y-96042673D01*
X127467255Y-96060021D01*
X127477733Y-96065155D01*
X127490361Y-96072097D01*
X127516008Y-96086197D01*
X127535416Y-96091180D01*
X127553819Y-96097481D01*
X127565044Y-96102339D01*
X127565046Y-96102339D01*
X127572204Y-96105437D01*
X127615358Y-96112271D01*
X127626744Y-96114629D01*
X127669081Y-96125500D01*
X127689117Y-96125500D01*
X127708515Y-96127027D01*
X127720586Y-96128939D01*
X127720587Y-96128939D01*
X127728296Y-96130160D01*
X127766376Y-96126560D01*
X127771776Y-96126050D01*
X127783445Y-96125500D01*
X128224772Y-96125500D01*
X128282029Y-96139511D01*
X128326347Y-96178376D01*
X128458399Y-96366966D01*
X128458402Y-96366970D01*
X128461505Y-96371401D01*
X128628599Y-96538495D01*
X128633031Y-96541598D01*
X128633033Y-96541600D01*
X128777260Y-96642589D01*
X128822170Y-96674035D01*
X129036337Y-96773903D01*
X129264592Y-96835063D01*
X129500000Y-96855659D01*
X129735408Y-96835063D01*
X129963663Y-96773903D01*
X130177830Y-96674035D01*
X130371401Y-96538495D01*
X130538495Y-96371401D01*
X130674035Y-96177830D01*
X130773903Y-95963663D01*
X130835063Y-95735408D01*
X130855659Y-95500000D01*
X130835063Y-95264592D01*
X130773903Y-95036337D01*
X130674035Y-94822171D01*
X130538495Y-94628599D01*
X130371401Y-94461505D01*
X130366970Y-94458402D01*
X130366966Y-94458399D01*
X130182259Y-94329066D01*
X130182257Y-94329064D01*
X130177830Y-94325965D01*
X130172933Y-94323681D01*
X130172927Y-94323678D01*
X129968572Y-94228386D01*
X129968570Y-94228385D01*
X129963663Y-94226097D01*
X129958438Y-94224697D01*
X129958430Y-94224694D01*
X129740634Y-94166337D01*
X129740630Y-94166336D01*
X129735408Y-94164937D01*
X129730020Y-94164465D01*
X129730017Y-94164465D01*
X129505395Y-94144813D01*
X129500000Y-94144341D01*
X129494605Y-94144813D01*
X129269982Y-94164465D01*
X129269977Y-94164465D01*
X129264592Y-94164937D01*
X129259371Y-94166335D01*
X129259365Y-94166337D01*
X129041569Y-94224694D01*
X129041557Y-94224698D01*
X129036337Y-94226097D01*
X129031432Y-94228383D01*
X129031427Y-94228386D01*
X128827081Y-94323675D01*
X128827077Y-94323677D01*
X128822171Y-94325965D01*
X128817738Y-94329068D01*
X128817731Y-94329073D01*
X128633034Y-94458399D01*
X128633029Y-94458402D01*
X128628599Y-94461505D01*
X128624775Y-94465328D01*
X128624769Y-94465334D01*
X128465334Y-94624769D01*
X128465328Y-94624775D01*
X128461505Y-94628599D01*
X128458402Y-94633029D01*
X128458399Y-94633034D01*
X128326349Y-94821623D01*
X128282031Y-94860489D01*
X128224774Y-94874500D01*
X128058553Y-94874500D01*
X128011100Y-94865061D01*
X127970872Y-94838181D01*
X122632691Y-89500000D01*
X128144341Y-89500000D01*
X128164937Y-89735408D01*
X128166336Y-89740630D01*
X128166337Y-89740634D01*
X128224694Y-89958430D01*
X128224697Y-89958438D01*
X128226097Y-89963663D01*
X128228385Y-89968570D01*
X128228386Y-89968572D01*
X128323678Y-90172927D01*
X128323681Y-90172933D01*
X128325965Y-90177830D01*
X128329064Y-90182257D01*
X128329066Y-90182259D01*
X128458399Y-90366966D01*
X128458402Y-90366970D01*
X128461505Y-90371401D01*
X128628599Y-90538495D01*
X128633031Y-90541598D01*
X128633033Y-90541600D01*
X128821624Y-90673653D01*
X128860489Y-90717971D01*
X128874500Y-90775228D01*
X128874500Y-91181051D01*
X128872304Y-91204286D01*
X128872233Y-91204653D01*
X128872232Y-91204660D01*
X128870773Y-91212312D01*
X128871262Y-91220089D01*
X128871262Y-91220095D01*
X128874255Y-91267659D01*
X128874500Y-91275445D01*
X128874500Y-91291250D01*
X128874987Y-91295107D01*
X128874988Y-91295120D01*
X128876481Y-91306937D01*
X128877213Y-91314687D01*
X128879467Y-91350500D01*
X128880696Y-91370038D01*
X128883105Y-91377453D01*
X128883107Y-91377463D01*
X128883223Y-91377819D01*
X128888308Y-91400566D01*
X128888356Y-91400946D01*
X128888358Y-91400955D01*
X128889336Y-91408692D01*
X128892205Y-91415940D01*
X128892206Y-91415941D01*
X128909753Y-91460260D01*
X128912390Y-91467585D01*
X128919653Y-91489935D01*
X128929533Y-91520341D01*
X128933708Y-91526921D01*
X128933710Y-91526924D01*
X128933910Y-91527238D01*
X128944500Y-91548022D01*
X128944641Y-91548379D01*
X128944644Y-91548385D01*
X128947514Y-91555632D01*
X128980132Y-91600527D01*
X128984498Y-91606953D01*
X129014214Y-91653777D01*
X129019902Y-91659118D01*
X129019907Y-91659124D01*
X129020165Y-91659366D01*
X129035603Y-91676876D01*
X129040406Y-91683487D01*
X129046411Y-91688454D01*
X129046415Y-91688459D01*
X129083146Y-91718846D01*
X129088988Y-91723996D01*
X129129418Y-91761962D01*
X129136586Y-91765902D01*
X129155882Y-91779016D01*
X129162177Y-91784224D01*
X129169236Y-91787546D01*
X129169243Y-91787550D01*
X129212363Y-91807841D01*
X129219303Y-91811377D01*
X129256530Y-91831842D01*
X129267908Y-91838097D01*
X129275811Y-91840126D01*
X129297784Y-91848037D01*
X129298113Y-91848192D01*
X129298118Y-91848193D01*
X129305174Y-91851514D01*
X129359666Y-91861908D01*
X129367263Y-91863607D01*
X129420981Y-91877400D01*
X129429151Y-91877400D01*
X129452386Y-91879596D01*
X129460412Y-91881127D01*
X129515758Y-91877645D01*
X129523545Y-91877400D01*
X129639548Y-91877400D01*
X129687001Y-91886839D01*
X129727229Y-91913719D01*
X133700807Y-95887297D01*
X133708256Y-95895483D01*
X133712314Y-95901877D01*
X133717999Y-95907215D01*
X133718001Y-95907218D01*
X133761339Y-95947915D01*
X133764121Y-95950611D01*
X133783630Y-95970120D01*
X133786715Y-95972513D01*
X133786801Y-95972580D01*
X133795673Y-95980158D01*
X133799495Y-95983747D01*
X133827518Y-96010062D01*
X133834348Y-96013817D01*
X133834351Y-96013819D01*
X133845071Y-96019712D01*
X133861322Y-96030386D01*
X133877164Y-96042674D01*
X133884321Y-96045771D01*
X133884323Y-96045772D01*
X133917255Y-96060022D01*
X133927750Y-96065164D01*
X133966008Y-96086197D01*
X133985412Y-96091179D01*
X134003814Y-96097480D01*
X134015041Y-96102338D01*
X134022205Y-96105438D01*
X134059797Y-96111391D01*
X134065339Y-96112269D01*
X134076781Y-96114639D01*
X134106338Y-96122228D01*
X134154541Y-96146788D01*
X134187698Y-96189535D01*
X134199500Y-96242332D01*
X134199500Y-96544560D01*
X134199500Y-96544578D01*
X134199501Y-96547872D01*
X134199853Y-96551150D01*
X134199854Y-96551161D01*
X134205079Y-96599768D01*
X134205080Y-96599773D01*
X134205909Y-96607483D01*
X134208619Y-96614749D01*
X134208620Y-96614753D01*
X134229574Y-96670933D01*
X134256204Y-96742331D01*
X134261518Y-96749430D01*
X134261519Y-96749431D01*
X134334221Y-96846549D01*
X134342454Y-96857546D01*
X134457669Y-96943796D01*
X134592517Y-96994091D01*
X134652127Y-97000500D01*
X136747872Y-97000499D01*
X136807483Y-96994091D01*
X136942331Y-96943796D01*
X137057546Y-96857546D01*
X137143796Y-96742331D01*
X137150913Y-96723248D01*
X138635749Y-96723248D01*
X138643855Y-96734439D01*
X138672717Y-96756903D01*
X138681279Y-96762496D01*
X138890885Y-96875929D01*
X138900239Y-96880032D01*
X139125656Y-96957417D01*
X139135568Y-96959928D01*
X139370643Y-96999155D01*
X139380839Y-97000000D01*
X139619161Y-97000000D01*
X139629356Y-96999155D01*
X139864431Y-96959928D01*
X139874343Y-96957417D01*
X140099760Y-96880032D01*
X140109114Y-96875929D01*
X140318723Y-96762495D01*
X140327281Y-96756903D01*
X140356146Y-96734437D01*
X140364250Y-96723250D01*
X140357589Y-96711142D01*
X139511542Y-95865095D01*
X139499999Y-95858431D01*
X139488457Y-95865095D01*
X138642408Y-96711143D01*
X138635749Y-96723248D01*
X137150913Y-96723248D01*
X137194091Y-96607483D01*
X137200500Y-96547873D01*
X137200499Y-95505117D01*
X137995283Y-95505117D01*
X138014962Y-95742618D01*
X138016646Y-95752712D01*
X138075153Y-95983747D01*
X138078472Y-95993414D01*
X138174208Y-96211673D01*
X138179070Y-96220656D01*
X138268999Y-96358304D01*
X138276963Y-96366024D01*
X138286345Y-96360100D01*
X139134904Y-95511542D01*
X139141567Y-95500000D01*
X139858431Y-95500000D01*
X139865095Y-95511542D01*
X140713653Y-96360100D01*
X140723034Y-96366024D01*
X140731002Y-96358299D01*
X140820924Y-96220664D01*
X140825792Y-96211669D01*
X140921527Y-95993414D01*
X140924846Y-95983747D01*
X140983353Y-95752712D01*
X140985037Y-95742618D01*
X141004717Y-95505117D01*
X141004717Y-95494883D01*
X140985037Y-95257381D01*
X140983353Y-95247287D01*
X140924846Y-95016252D01*
X140921527Y-95006585D01*
X140825792Y-94788330D01*
X140820924Y-94779335D01*
X140731002Y-94641699D01*
X140723034Y-94633974D01*
X140713653Y-94639898D01*
X139865095Y-95488457D01*
X139858431Y-95500000D01*
X139141567Y-95500000D01*
X139141568Y-95499999D01*
X139134904Y-95488457D01*
X138286345Y-94639898D01*
X138276964Y-94633974D01*
X138268997Y-94641699D01*
X138179072Y-94779338D01*
X138174207Y-94788328D01*
X138078472Y-95006585D01*
X138075153Y-95016252D01*
X138016646Y-95247287D01*
X138014962Y-95257381D01*
X137995283Y-95494883D01*
X137995283Y-95505117D01*
X137200499Y-95505117D01*
X137200499Y-94735451D01*
X137209938Y-94687999D01*
X137236815Y-94647774D01*
X137607840Y-94276749D01*
X138635748Y-94276749D01*
X138642408Y-94288855D01*
X139488457Y-95134904D01*
X139499999Y-95141568D01*
X139511542Y-95134904D01*
X140357590Y-94288855D01*
X140364250Y-94276749D01*
X140356143Y-94265559D01*
X140327286Y-94243099D01*
X140318719Y-94237503D01*
X140109114Y-94124070D01*
X140099760Y-94119967D01*
X139874343Y-94042582D01*
X139864431Y-94040071D01*
X139629356Y-94000844D01*
X139619161Y-94000000D01*
X139380839Y-94000000D01*
X139370643Y-94000844D01*
X139135568Y-94040071D01*
X139125656Y-94042582D01*
X138900239Y-94119967D01*
X138890885Y-94124070D01*
X138681276Y-94237504D01*
X138672717Y-94243096D01*
X138643854Y-94265560D01*
X138635748Y-94276749D01*
X137607840Y-94276749D01*
X138722771Y-93161819D01*
X138763000Y-93134939D01*
X138810453Y-93125500D01*
X142922225Y-93125500D01*
X142933280Y-93126021D01*
X142940667Y-93127673D01*
X143007872Y-93125561D01*
X143011768Y-93125500D01*
X143035448Y-93125500D01*
X143039350Y-93125500D01*
X143043313Y-93124999D01*
X143054963Y-93124080D01*
X143098627Y-93122709D01*
X143117861Y-93117119D01*
X143136917Y-93113174D01*
X143156792Y-93110664D01*
X143197395Y-93094587D01*
X143208450Y-93090802D01*
X143250390Y-93078618D01*
X143267629Y-93068422D01*
X143285103Y-93059862D01*
X143296474Y-93055360D01*
X143296476Y-93055358D01*
X143303732Y-93052486D01*
X143339069Y-93026811D01*
X143348824Y-93020403D01*
X143386420Y-92998170D01*
X143400584Y-92984005D01*
X143415379Y-92971368D01*
X143431587Y-92959594D01*
X143459428Y-92925938D01*
X143467279Y-92917309D01*
X144387306Y-91997282D01*
X144395482Y-91989843D01*
X144401877Y-91985786D01*
X144447933Y-91936740D01*
X144450550Y-91934038D01*
X144470120Y-91914470D01*
X144472565Y-91911316D01*
X144480155Y-91902428D01*
X144510062Y-91870582D01*
X144514831Y-91861908D01*
X144519710Y-91853032D01*
X144530393Y-91836766D01*
X144542674Y-91820936D01*
X144560018Y-91780851D01*
X144565160Y-91770356D01*
X144586197Y-91732092D01*
X144591179Y-91712689D01*
X144597480Y-91694283D01*
X144605438Y-91675895D01*
X144612269Y-91632756D01*
X144614639Y-91621315D01*
X144623560Y-91586574D01*
X144623559Y-91586574D01*
X144625500Y-91579019D01*
X144625500Y-91558983D01*
X144627025Y-91539597D01*
X144630160Y-91519804D01*
X144627337Y-91489935D01*
X144626981Y-91486167D01*
X144639363Y-91419363D01*
X144685089Y-91369112D01*
X144750431Y-91350499D01*
X144894561Y-91350499D01*
X144897872Y-91350499D01*
X144957483Y-91344091D01*
X145092331Y-91293796D01*
X145207546Y-91207546D01*
X145293796Y-91092331D01*
X145344091Y-90957483D01*
X145350500Y-90897873D01*
X145350499Y-89102128D01*
X145344091Y-89042517D01*
X145293796Y-88907669D01*
X145207546Y-88792454D01*
X145092331Y-88706204D01*
X145022359Y-88680106D01*
X144960916Y-88657189D01*
X144910537Y-88622210D01*
X144883084Y-88567365D01*
X144885273Y-88506072D01*
X144916566Y-88453329D01*
X145038495Y-88331401D01*
X145174035Y-88137830D01*
X145273903Y-87923663D01*
X145335063Y-87695408D01*
X145355659Y-87460000D01*
X145335063Y-87224592D01*
X145273903Y-86996337D01*
X145174035Y-86782171D01*
X145038495Y-86588599D01*
X144949896Y-86500000D01*
X147194532Y-86500000D01*
X147195004Y-86505395D01*
X147203757Y-86605449D01*
X147214365Y-86726692D01*
X147215762Y-86731907D01*
X147215764Y-86731916D01*
X147271858Y-86941263D01*
X147271861Y-86941271D01*
X147273261Y-86946496D01*
X147369432Y-87152734D01*
X147499953Y-87339139D01*
X147660861Y-87500047D01*
X147847266Y-87630568D01*
X148053504Y-87726739D01*
X148058734Y-87728140D01*
X148058736Y-87728141D01*
X148201245Y-87766326D01*
X148273308Y-87785635D01*
X148500000Y-87805468D01*
X148726692Y-87785635D01*
X148946496Y-87726739D01*
X149152734Y-87630568D01*
X149339139Y-87500047D01*
X149500047Y-87339139D01*
X149630568Y-87152734D01*
X149726739Y-86946496D01*
X149785635Y-86726692D01*
X149805468Y-86500000D01*
X149785635Y-86273308D01*
X149751079Y-86144341D01*
X149728141Y-86058736D01*
X149728140Y-86058734D01*
X149726739Y-86053504D01*
X149630568Y-85847266D01*
X149500047Y-85660861D01*
X149339139Y-85499953D01*
X149152734Y-85369432D01*
X148946496Y-85273261D01*
X148941271Y-85271861D01*
X148941263Y-85271858D01*
X148731916Y-85215764D01*
X148731907Y-85215762D01*
X148726692Y-85214365D01*
X148721304Y-85213893D01*
X148721301Y-85213893D01*
X148505395Y-85195004D01*
X148500000Y-85194532D01*
X148494605Y-85195004D01*
X148278698Y-85213893D01*
X148278693Y-85213893D01*
X148273308Y-85214365D01*
X148268094Y-85215762D01*
X148268083Y-85215764D01*
X148058736Y-85271858D01*
X148058724Y-85271862D01*
X148053504Y-85273261D01*
X148048599Y-85275547D01*
X148048594Y-85275550D01*
X147852176Y-85367142D01*
X147852172Y-85367144D01*
X147847266Y-85369432D01*
X147842833Y-85372535D01*
X147842826Y-85372540D01*
X147665296Y-85496847D01*
X147665291Y-85496850D01*
X147660861Y-85499953D01*
X147657037Y-85503776D01*
X147657031Y-85503782D01*
X147503782Y-85657031D01*
X147503776Y-85657037D01*
X147499953Y-85660861D01*
X147496850Y-85665291D01*
X147496847Y-85665296D01*
X147372540Y-85842826D01*
X147372535Y-85842833D01*
X147369432Y-85847266D01*
X147367144Y-85852172D01*
X147367142Y-85852176D01*
X147275550Y-86048594D01*
X147275547Y-86048599D01*
X147273261Y-86053504D01*
X147271862Y-86058724D01*
X147271858Y-86058736D01*
X147215764Y-86268083D01*
X147215762Y-86268094D01*
X147214365Y-86273308D01*
X147213893Y-86278693D01*
X147213893Y-86278698D01*
X147209448Y-86329508D01*
X147194532Y-86500000D01*
X144949896Y-86500000D01*
X144871401Y-86421505D01*
X144866970Y-86418402D01*
X144866966Y-86418399D01*
X144682259Y-86289066D01*
X144682257Y-86289064D01*
X144677830Y-86285965D01*
X144672933Y-86283681D01*
X144672927Y-86283678D01*
X144468572Y-86188386D01*
X144468570Y-86188385D01*
X144463663Y-86186097D01*
X144458438Y-86184697D01*
X144458430Y-86184694D01*
X144240634Y-86126337D01*
X144240630Y-86126336D01*
X144235408Y-86124937D01*
X144230020Y-86124465D01*
X144230017Y-86124465D01*
X144005395Y-86104813D01*
X144000000Y-86104341D01*
X143994605Y-86104813D01*
X143769982Y-86124465D01*
X143769977Y-86124465D01*
X143764592Y-86124937D01*
X143759371Y-86126335D01*
X143759365Y-86126337D01*
X143541569Y-86184694D01*
X143541557Y-86184698D01*
X143536337Y-86186097D01*
X143531432Y-86188383D01*
X143531427Y-86188386D01*
X143327081Y-86283675D01*
X143327077Y-86283677D01*
X143322171Y-86285965D01*
X143317738Y-86289068D01*
X143317731Y-86289073D01*
X143133034Y-86418399D01*
X143133029Y-86418402D01*
X143128599Y-86421505D01*
X143124775Y-86425328D01*
X143124769Y-86425334D01*
X142965334Y-86584769D01*
X142965328Y-86584775D01*
X142961505Y-86588599D01*
X142958402Y-86593029D01*
X142958399Y-86593034D01*
X142829073Y-86777731D01*
X142829068Y-86777738D01*
X142825965Y-86782171D01*
X142823677Y-86787077D01*
X142823675Y-86787081D01*
X142728386Y-86991427D01*
X142728383Y-86991432D01*
X142726097Y-86996337D01*
X142724698Y-87001557D01*
X142724694Y-87001569D01*
X142666337Y-87219365D01*
X142666335Y-87219371D01*
X142664937Y-87224592D01*
X142664465Y-87229977D01*
X142664465Y-87229982D01*
X142647213Y-87427168D01*
X142636067Y-87468765D01*
X142611366Y-87504041D01*
X140277228Y-89838181D01*
X140237000Y-89865061D01*
X140189547Y-89874500D01*
X136810453Y-89874500D01*
X136763000Y-89865061D01*
X136722772Y-89838181D01*
X135905539Y-89020948D01*
X135874243Y-88968201D01*
X135872054Y-88906908D01*
X135899508Y-88852063D01*
X135949884Y-88817086D01*
X136012331Y-88793796D01*
X136127546Y-88707546D01*
X136213796Y-88592331D01*
X136262810Y-88460916D01*
X136297789Y-88410537D01*
X136352634Y-88383084D01*
X136413927Y-88385273D01*
X136466673Y-88416569D01*
X136588599Y-88538495D01*
X136593031Y-88541598D01*
X136593033Y-88541600D01*
X136679475Y-88602127D01*
X136782170Y-88674035D01*
X136996337Y-88773903D01*
X137224592Y-88835063D01*
X137460000Y-88855659D01*
X137695408Y-88835063D01*
X137923663Y-88773903D01*
X138137830Y-88674035D01*
X138331401Y-88538495D01*
X138498495Y-88371401D01*
X138628730Y-88185405D01*
X138673048Y-88146540D01*
X138730305Y-88132529D01*
X138787562Y-88146540D01*
X138831880Y-88185405D01*
X138958784Y-88366643D01*
X138965721Y-88374909D01*
X139125090Y-88534278D01*
X139133356Y-88541215D01*
X139317991Y-88670498D01*
X139327323Y-88675886D01*
X139531602Y-88771143D01*
X139541736Y-88774831D01*
X139736219Y-88826943D01*
X139747448Y-88827311D01*
X139750000Y-88816369D01*
X140250000Y-88816369D01*
X140252551Y-88827311D01*
X140263780Y-88826943D01*
X140458263Y-88774831D01*
X140468397Y-88771143D01*
X140672676Y-88675886D01*
X140682008Y-88670498D01*
X140866643Y-88541215D01*
X140874909Y-88534278D01*
X141034278Y-88374909D01*
X141041215Y-88366643D01*
X141170498Y-88182008D01*
X141175886Y-88172676D01*
X141271143Y-87968397D01*
X141274831Y-87958263D01*
X141326943Y-87763780D01*
X141327311Y-87752551D01*
X141316369Y-87750000D01*
X140266326Y-87750000D01*
X140253450Y-87753450D01*
X140250000Y-87766326D01*
X140250000Y-88816369D01*
X139750000Y-88816369D01*
X139750000Y-87233674D01*
X140250000Y-87233674D01*
X140253450Y-87246549D01*
X140266326Y-87250000D01*
X141316369Y-87250000D01*
X141327311Y-87247448D01*
X141326943Y-87236219D01*
X141274831Y-87041736D01*
X141271143Y-87031602D01*
X141175889Y-86827332D01*
X141170491Y-86817982D01*
X141041215Y-86633357D01*
X141034280Y-86625092D01*
X140874909Y-86465721D01*
X140866643Y-86458784D01*
X140682008Y-86329501D01*
X140672676Y-86324113D01*
X140468397Y-86228856D01*
X140458263Y-86225168D01*
X140263780Y-86173056D01*
X140252551Y-86172688D01*
X140250000Y-86183631D01*
X140250000Y-87233674D01*
X139750000Y-87233674D01*
X139750000Y-86183631D01*
X139747448Y-86172688D01*
X139736219Y-86173056D01*
X139541736Y-86225168D01*
X139531602Y-86228856D01*
X139327332Y-86324110D01*
X139317982Y-86329508D01*
X139133357Y-86458784D01*
X139125092Y-86465719D01*
X138965719Y-86625092D01*
X138958788Y-86633352D01*
X138831880Y-86814596D01*
X138787562Y-86853461D01*
X138730305Y-86867472D01*
X138673048Y-86853461D01*
X138628730Y-86814595D01*
X138563405Y-86721301D01*
X138498495Y-86628599D01*
X138331401Y-86461505D01*
X138326970Y-86458402D01*
X138326966Y-86458399D01*
X138142259Y-86329066D01*
X138142257Y-86329064D01*
X138137830Y-86325965D01*
X138132933Y-86323681D01*
X138132927Y-86323678D01*
X137928572Y-86228386D01*
X137928570Y-86228385D01*
X137923663Y-86226097D01*
X137918438Y-86224697D01*
X137918430Y-86224694D01*
X137700634Y-86166337D01*
X137700630Y-86166336D01*
X137695408Y-86164937D01*
X137690020Y-86164465D01*
X137690017Y-86164465D01*
X137465395Y-86144813D01*
X137460000Y-86144341D01*
X137454605Y-86144813D01*
X137229982Y-86164465D01*
X137229977Y-86164465D01*
X137224592Y-86164937D01*
X137219371Y-86166335D01*
X137219365Y-86166337D01*
X137001569Y-86224694D01*
X137001557Y-86224698D01*
X136996337Y-86226097D01*
X136991432Y-86228383D01*
X136991427Y-86228386D01*
X136787081Y-86323675D01*
X136787077Y-86323677D01*
X136782171Y-86325965D01*
X136777738Y-86329068D01*
X136777731Y-86329073D01*
X136593034Y-86458399D01*
X136593029Y-86458402D01*
X136588599Y-86461505D01*
X136584775Y-86465328D01*
X136584775Y-86465329D01*
X136466673Y-86583431D01*
X136413926Y-86614726D01*
X136352633Y-86616915D01*
X136297789Y-86589462D01*
X136262810Y-86539082D01*
X136235304Y-86465336D01*
X136213796Y-86407669D01*
X136127546Y-86292454D01*
X136109170Y-86278698D01*
X136019431Y-86211519D01*
X136019430Y-86211518D01*
X136012331Y-86206204D01*
X135905442Y-86166337D01*
X135884752Y-86158620D01*
X135884750Y-86158619D01*
X135877483Y-86155909D01*
X135869770Y-86155079D01*
X135869767Y-86155079D01*
X135821180Y-86149855D01*
X135821169Y-86149854D01*
X135817873Y-86149500D01*
X135814550Y-86149500D01*
X134025439Y-86149500D01*
X134025420Y-86149500D01*
X134022128Y-86149501D01*
X134018850Y-86149853D01*
X134018838Y-86149854D01*
X133970231Y-86155079D01*
X133970225Y-86155080D01*
X133962517Y-86155909D01*
X133955252Y-86158618D01*
X133955246Y-86158620D01*
X133835980Y-86203104D01*
X133835978Y-86203104D01*
X133827669Y-86206204D01*
X133820572Y-86211516D01*
X133820568Y-86211519D01*
X133719550Y-86287141D01*
X133719546Y-86287144D01*
X133712454Y-86292454D01*
X133707144Y-86299546D01*
X133707141Y-86299550D01*
X133631519Y-86400568D01*
X133631516Y-86400572D01*
X133626204Y-86407669D01*
X133623104Y-86415978D01*
X133623104Y-86415980D01*
X133578620Y-86535247D01*
X133578619Y-86535250D01*
X133575909Y-86542517D01*
X133575079Y-86550227D01*
X133575079Y-86550232D01*
X133569855Y-86598819D01*
X133569854Y-86598831D01*
X133569500Y-86602127D01*
X133569500Y-86605448D01*
X133569500Y-86605449D01*
X133569500Y-88394560D01*
X133569500Y-88394578D01*
X133569501Y-88397872D01*
X133569853Y-88401150D01*
X133569854Y-88401161D01*
X133575079Y-88449768D01*
X133575080Y-88449773D01*
X133575909Y-88457483D01*
X133578619Y-88464749D01*
X133578620Y-88464753D01*
X133604552Y-88534278D01*
X133626204Y-88592331D01*
X133631518Y-88599430D01*
X133631519Y-88599431D01*
X133687367Y-88674035D01*
X133712454Y-88707546D01*
X133827669Y-88793796D01*
X133962517Y-88844091D01*
X134022127Y-88850500D01*
X134171453Y-88850500D01*
X134231211Y-88865849D01*
X134276175Y-88908098D01*
X134292872Y-88959569D01*
X134294502Y-88959364D01*
X134295004Y-88963343D01*
X134295918Y-88974966D01*
X134297045Y-89010830D01*
X134297046Y-89010837D01*
X134297291Y-89018627D01*
X134299467Y-89026119D01*
X134299468Y-89026121D01*
X134302879Y-89037862D01*
X134306825Y-89056915D01*
X134309336Y-89076792D01*
X134312206Y-89084042D01*
X134312208Y-89084048D01*
X134325414Y-89117404D01*
X134329197Y-89128451D01*
X134341382Y-89170390D01*
X134345353Y-89177105D01*
X134345354Y-89177107D01*
X134351581Y-89187637D01*
X134360136Y-89205099D01*
X134364642Y-89216480D01*
X134364643Y-89216483D01*
X134367514Y-89223732D01*
X134375766Y-89235090D01*
X134393181Y-89259060D01*
X134399593Y-89268822D01*
X134417856Y-89299702D01*
X134417859Y-89299707D01*
X134421830Y-89306420D01*
X134427345Y-89311934D01*
X134427345Y-89311935D01*
X134435990Y-89320580D01*
X134448626Y-89335374D01*
X134455819Y-89345275D01*
X134455823Y-89345279D01*
X134460406Y-89351587D01*
X134466415Y-89356558D01*
X134466416Y-89356559D01*
X134494058Y-89379426D01*
X134502699Y-89387289D01*
X136002707Y-90887298D01*
X136010159Y-90895487D01*
X136014214Y-90901877D01*
X136063223Y-90947900D01*
X136066019Y-90950610D01*
X136085529Y-90970120D01*
X136088709Y-90972587D01*
X136097571Y-90980155D01*
X136110880Y-90992654D01*
X136123732Y-91004723D01*
X136123734Y-91004724D01*
X136129418Y-91010062D01*
X136136251Y-91013818D01*
X136136252Y-91013819D01*
X136146973Y-91019713D01*
X136163234Y-91030394D01*
X136179064Y-91042673D01*
X136219155Y-91060021D01*
X136229635Y-91065155D01*
X136267908Y-91086197D01*
X136287316Y-91091180D01*
X136305719Y-91097481D01*
X136316944Y-91102339D01*
X136316946Y-91102339D01*
X136324104Y-91105437D01*
X136367258Y-91112271D01*
X136378644Y-91114629D01*
X136420981Y-91125500D01*
X136441017Y-91125500D01*
X136460415Y-91127027D01*
X136472486Y-91128939D01*
X136472487Y-91128939D01*
X136480196Y-91130160D01*
X136518276Y-91126560D01*
X136523676Y-91126050D01*
X136535345Y-91125500D01*
X140422225Y-91125500D01*
X140433280Y-91126021D01*
X140440667Y-91127673D01*
X140507872Y-91125561D01*
X140511768Y-91125500D01*
X140535448Y-91125500D01*
X140539350Y-91125500D01*
X140543313Y-91124999D01*
X140554963Y-91124080D01*
X140598627Y-91122709D01*
X140617861Y-91117119D01*
X140636917Y-91113174D01*
X140656792Y-91110664D01*
X140697395Y-91094587D01*
X140708450Y-91090802D01*
X140750390Y-91078618D01*
X140767629Y-91068422D01*
X140785103Y-91059862D01*
X140796474Y-91055360D01*
X140796476Y-91055358D01*
X140803732Y-91052486D01*
X140839069Y-91026811D01*
X140848824Y-91020403D01*
X140886420Y-90998170D01*
X140900584Y-90984005D01*
X140915379Y-90971368D01*
X140931587Y-90959594D01*
X140959428Y-90925938D01*
X140967279Y-90917309D01*
X142437821Y-89446768D01*
X142487182Y-89416520D01*
X142544898Y-89411978D01*
X142598385Y-89434133D01*
X142635985Y-89478156D01*
X142649500Y-89534451D01*
X142649500Y-90894560D01*
X142649500Y-90894578D01*
X142649501Y-90897872D01*
X142649853Y-90901150D01*
X142649854Y-90901161D01*
X142655079Y-90949768D01*
X142655080Y-90949773D01*
X142655909Y-90957483D01*
X142658619Y-90964749D01*
X142658620Y-90964753D01*
X142681769Y-91026818D01*
X142706204Y-91092331D01*
X142711518Y-91099430D01*
X142711519Y-91099431D01*
X142733972Y-91129425D01*
X142792454Y-91207546D01*
X142907669Y-91293796D01*
X143012907Y-91333047D01*
X143028379Y-91338818D01*
X143078759Y-91373797D01*
X143106212Y-91428642D01*
X143104023Y-91489935D01*
X143072727Y-91542681D01*
X142777228Y-91838181D01*
X142737000Y-91865061D01*
X142689547Y-91874500D01*
X138577775Y-91874500D01*
X138566719Y-91873978D01*
X138559333Y-91872327D01*
X138551545Y-91872571D01*
X138551538Y-91872571D01*
X138492127Y-91874439D01*
X138488232Y-91874500D01*
X138460650Y-91874500D01*
X138456805Y-91874985D01*
X138456780Y-91874987D01*
X138456653Y-91875004D01*
X138445034Y-91875918D01*
X138409172Y-91877045D01*
X138409165Y-91877046D01*
X138401373Y-91877291D01*
X138393888Y-91879465D01*
X138393872Y-91879468D01*
X138382126Y-91882881D01*
X138363083Y-91886825D01*
X138350949Y-91888358D01*
X138350948Y-91888358D01*
X138343208Y-91889336D01*
X138335958Y-91892205D01*
X138335951Y-91892208D01*
X138302598Y-91905413D01*
X138291554Y-91909194D01*
X138257101Y-91919204D01*
X138257090Y-91919208D01*
X138249610Y-91921382D01*
X138242898Y-91925351D01*
X138242896Y-91925352D01*
X138232364Y-91931580D01*
X138214904Y-91940134D01*
X138203519Y-91944642D01*
X138203513Y-91944644D01*
X138196268Y-91947514D01*
X138189963Y-91952094D01*
X138189955Y-91952099D01*
X138160932Y-91973185D01*
X138151174Y-91979595D01*
X138120296Y-91997857D01*
X138120290Y-91997861D01*
X138113580Y-92001830D01*
X138108067Y-92007341D01*
X138108060Y-92007348D01*
X138099410Y-92015998D01*
X138084627Y-92028624D01*
X138074726Y-92035817D01*
X138074716Y-92035826D01*
X138068413Y-92040406D01*
X138063444Y-92046411D01*
X138063441Y-92046415D01*
X138040572Y-92074059D01*
X138032711Y-92082697D01*
X136152227Y-93963181D01*
X136111999Y-93990061D01*
X136064546Y-93999500D01*
X134655439Y-93999500D01*
X134655420Y-93999500D01*
X134652128Y-93999501D01*
X134648850Y-93999853D01*
X134648838Y-93999854D01*
X134600231Y-94005079D01*
X134600225Y-94005080D01*
X134592517Y-94005909D01*
X134585252Y-94008618D01*
X134585246Y-94008620D01*
X134465980Y-94053104D01*
X134465978Y-94053104D01*
X134457669Y-94056204D01*
X134450572Y-94061516D01*
X134450568Y-94061519D01*
X134349550Y-94137141D01*
X134349546Y-94137144D01*
X134342454Y-94142454D01*
X134337144Y-94149546D01*
X134337141Y-94149550D01*
X134261519Y-94250568D01*
X134261516Y-94250572D01*
X134256204Y-94257669D01*
X134253104Y-94265978D01*
X134253105Y-94265978D01*
X134210665Y-94379764D01*
X134175686Y-94430143D01*
X134120841Y-94457596D01*
X134059548Y-94455407D01*
X134006802Y-94424111D01*
X130447286Y-90864595D01*
X130439842Y-90856414D01*
X130435786Y-90850023D01*
X130386775Y-90803998D01*
X130383978Y-90801287D01*
X130367227Y-90784536D01*
X130367226Y-90784535D01*
X130364471Y-90781780D01*
X130361290Y-90779312D01*
X130352427Y-90771742D01*
X130329468Y-90750183D01*
X130298864Y-90704939D01*
X130290671Y-90650928D01*
X130306484Y-90598638D01*
X130343231Y-90558219D01*
X130371401Y-90538495D01*
X130538495Y-90371401D01*
X130674035Y-90177830D01*
X130773903Y-89963663D01*
X130835063Y-89735408D01*
X130855659Y-89500000D01*
X130835063Y-89264592D01*
X130773903Y-89036337D01*
X130674035Y-88822171D01*
X130538495Y-88628599D01*
X130371401Y-88461505D01*
X130366970Y-88458402D01*
X130366966Y-88458399D01*
X130182259Y-88329066D01*
X130182257Y-88329064D01*
X130177830Y-88325965D01*
X130172933Y-88323681D01*
X130172927Y-88323678D01*
X129968572Y-88228386D01*
X129968570Y-88228385D01*
X129963663Y-88226097D01*
X129958438Y-88224697D01*
X129958430Y-88224694D01*
X129740634Y-88166337D01*
X129740630Y-88166336D01*
X129735408Y-88164937D01*
X129730020Y-88164465D01*
X129730017Y-88164465D01*
X129505395Y-88144813D01*
X129500000Y-88144341D01*
X129494605Y-88144813D01*
X129269982Y-88164465D01*
X129269977Y-88164465D01*
X129264592Y-88164937D01*
X129259371Y-88166335D01*
X129259365Y-88166337D01*
X129041569Y-88224694D01*
X129041557Y-88224698D01*
X129036337Y-88226097D01*
X129031432Y-88228383D01*
X129031427Y-88228386D01*
X128827081Y-88323675D01*
X128827077Y-88323677D01*
X128822171Y-88325965D01*
X128817738Y-88329068D01*
X128817731Y-88329073D01*
X128633034Y-88458399D01*
X128633029Y-88458402D01*
X128628599Y-88461505D01*
X128624775Y-88465328D01*
X128624769Y-88465334D01*
X128465334Y-88624769D01*
X128465328Y-88624775D01*
X128461505Y-88628599D01*
X128458402Y-88633029D01*
X128458399Y-88633034D01*
X128329073Y-88817731D01*
X128329068Y-88817738D01*
X128325965Y-88822171D01*
X128323677Y-88827077D01*
X128323675Y-88827081D01*
X128228386Y-89031427D01*
X128228383Y-89031432D01*
X128226097Y-89036337D01*
X128224698Y-89041557D01*
X128224694Y-89041569D01*
X128166337Y-89259365D01*
X128166335Y-89259371D01*
X128164937Y-89264592D01*
X128164465Y-89269977D01*
X128164465Y-89269982D01*
X128154890Y-89379426D01*
X128144341Y-89500000D01*
X122632691Y-89500000D01*
X122245386Y-89112695D01*
X122237942Y-89104514D01*
X122233886Y-89098123D01*
X122184875Y-89052098D01*
X122182078Y-89049387D01*
X122165327Y-89032636D01*
X122162571Y-89029880D01*
X122159390Y-89027412D01*
X122150514Y-89019830D01*
X122124369Y-88995278D01*
X122124367Y-88995276D01*
X122118682Y-88989938D01*
X122111849Y-88986182D01*
X122111843Y-88986177D01*
X122101125Y-88980285D01*
X122084866Y-88969606D01*
X122075195Y-88962104D01*
X122075192Y-88962102D01*
X122069036Y-88957327D01*
X122061879Y-88954229D01*
X122061876Y-88954228D01*
X122028949Y-88939978D01*
X122018463Y-88934841D01*
X121987032Y-88917562D01*
X121987023Y-88917558D01*
X121980192Y-88913803D01*
X121972635Y-88911862D01*
X121972631Y-88911861D01*
X121960788Y-88908820D01*
X121942384Y-88902519D01*
X121931157Y-88897660D01*
X121931150Y-88897658D01*
X121923996Y-88894562D01*
X121916292Y-88893341D01*
X121916290Y-88893341D01*
X121880859Y-88887729D01*
X121869424Y-88885361D01*
X121834671Y-88876438D01*
X121834663Y-88876437D01*
X121827119Y-88874500D01*
X121819323Y-88874500D01*
X121807083Y-88874500D01*
X121787697Y-88872974D01*
X121767904Y-88869840D01*
X121760138Y-88870574D01*
X121760135Y-88870574D01*
X121724424Y-88873950D01*
X121712755Y-88874500D01*
X110974499Y-88874500D01*
X110912499Y-88857887D01*
X110867112Y-88812500D01*
X110850499Y-88750500D01*
X110850499Y-88605439D01*
X110850499Y-88602128D01*
X110844091Y-88542517D01*
X110793796Y-88407669D01*
X110707546Y-88292454D01*
X110617030Y-88224694D01*
X110599431Y-88211519D01*
X110599430Y-88211518D01*
X110592331Y-88206204D01*
X110485442Y-88166337D01*
X110464752Y-88158620D01*
X110464750Y-88158619D01*
X110457483Y-88155909D01*
X110449770Y-88155079D01*
X110449767Y-88155079D01*
X110401180Y-88149855D01*
X110401169Y-88149854D01*
X110397873Y-88149500D01*
X110394550Y-88149500D01*
X108605439Y-88149500D01*
X108605420Y-88149500D01*
X108602128Y-88149501D01*
X108598850Y-88149853D01*
X108598838Y-88149854D01*
X108550231Y-88155079D01*
X108550225Y-88155080D01*
X108542517Y-88155909D01*
X108535252Y-88158618D01*
X108535246Y-88158620D01*
X108415980Y-88203104D01*
X108415978Y-88203104D01*
X108407669Y-88206204D01*
X108400572Y-88211516D01*
X108400568Y-88211519D01*
X108299550Y-88287141D01*
X108299546Y-88287144D01*
X108292454Y-88292454D01*
X108287144Y-88299546D01*
X108287141Y-88299550D01*
X108211519Y-88400568D01*
X108211516Y-88400572D01*
X108206204Y-88407669D01*
X108203104Y-88415978D01*
X108203104Y-88415980D01*
X108158620Y-88535247D01*
X108158619Y-88535250D01*
X108155909Y-88542517D01*
X108155079Y-88550227D01*
X108155079Y-88550232D01*
X108149855Y-88598819D01*
X108149854Y-88598831D01*
X108149500Y-88602127D01*
X108149500Y-88605448D01*
X108149500Y-88605449D01*
X108149500Y-90394560D01*
X108149500Y-90394578D01*
X106500000Y-90394578D01*
X106500000Y-84394578D01*
X108149500Y-84394578D01*
X108149501Y-84397872D01*
X108149853Y-84401150D01*
X108149854Y-84401161D01*
X108155079Y-84449768D01*
X108155080Y-84449773D01*
X108155909Y-84457483D01*
X108158619Y-84464749D01*
X108158620Y-84464753D01*
X108184695Y-84534663D01*
X108206204Y-84592331D01*
X108211518Y-84599430D01*
X108211519Y-84599431D01*
X108267367Y-84674035D01*
X108292454Y-84707546D01*
X108407669Y-84793796D01*
X108542517Y-84844091D01*
X108602127Y-84850500D01*
X110397872Y-84850499D01*
X110457483Y-84844091D01*
X110592331Y-84793796D01*
X110707546Y-84707546D01*
X110793796Y-84592331D01*
X110844091Y-84457483D01*
X110850500Y-84397873D01*
X110850499Y-83500000D01*
X128144341Y-83500000D01*
X128144813Y-83505395D01*
X128164178Y-83726739D01*
X128164937Y-83735408D01*
X128166336Y-83740630D01*
X128166337Y-83740634D01*
X128224694Y-83958430D01*
X128224697Y-83958438D01*
X128226097Y-83963663D01*
X128228385Y-83968570D01*
X128228386Y-83968572D01*
X128323678Y-84172927D01*
X128323681Y-84172933D01*
X128325965Y-84177830D01*
X128329064Y-84182257D01*
X128329066Y-84182259D01*
X128458399Y-84366966D01*
X128458402Y-84366970D01*
X128461505Y-84371401D01*
X128628599Y-84538495D01*
X128633031Y-84541598D01*
X128633033Y-84541600D01*
X128777260Y-84642589D01*
X128822170Y-84674035D01*
X129036337Y-84773903D01*
X129264592Y-84835063D01*
X129500000Y-84855659D01*
X129735408Y-84835063D01*
X129963663Y-84773903D01*
X130177830Y-84674035D01*
X130371401Y-84538495D01*
X130538495Y-84371401D01*
X130673652Y-84178376D01*
X130717971Y-84139511D01*
X130775228Y-84125500D01*
X131174125Y-84125500D01*
X131185180Y-84126021D01*
X131192567Y-84127673D01*
X131259772Y-84125561D01*
X131263668Y-84125500D01*
X131287348Y-84125500D01*
X131291250Y-84125500D01*
X131295213Y-84124999D01*
X131306863Y-84124080D01*
X131350527Y-84122709D01*
X131369761Y-84117119D01*
X131388817Y-84113174D01*
X131408692Y-84110664D01*
X131449295Y-84094587D01*
X131460350Y-84090802D01*
X131502290Y-84078618D01*
X131519529Y-84068422D01*
X131537003Y-84059862D01*
X131548374Y-84055360D01*
X131548376Y-84055358D01*
X131555632Y-84052486D01*
X131590969Y-84026811D01*
X131600724Y-84020403D01*
X131638320Y-83998170D01*
X131652484Y-83984005D01*
X131667279Y-83971368D01*
X131683487Y-83959594D01*
X131711328Y-83925938D01*
X131719179Y-83917309D01*
X132474670Y-83161819D01*
X132514899Y-83134939D01*
X132562352Y-83125500D01*
X135285812Y-83125500D01*
X135343069Y-83139511D01*
X135387387Y-83178377D01*
X135499953Y-83339139D01*
X135660861Y-83500047D01*
X135847266Y-83630568D01*
X136053504Y-83726739D01*
X136058734Y-83728140D01*
X136058736Y-83728141D01*
X136268083Y-83784235D01*
X136273308Y-83785635D01*
X136500000Y-83805468D01*
X136726692Y-83785635D01*
X136946496Y-83726739D01*
X137152734Y-83630568D01*
X137339139Y-83500047D01*
X137494608Y-83344578D01*
X147199500Y-83344578D01*
X147199501Y-83347872D01*
X147199853Y-83351150D01*
X147199854Y-83351161D01*
X147205079Y-83399768D01*
X147205080Y-83399773D01*
X147205909Y-83407483D01*
X147208619Y-83414749D01*
X147208620Y-83414753D01*
X147238403Y-83494605D01*
X147256204Y-83542331D01*
X147342454Y-83657546D01*
X147457669Y-83743796D01*
X147592517Y-83794091D01*
X147652127Y-83800500D01*
X149347872Y-83800499D01*
X149407483Y-83794091D01*
X149542331Y-83743796D01*
X149657546Y-83657546D01*
X149743796Y-83542331D01*
X149794091Y-83407483D01*
X149800500Y-83347873D01*
X149800499Y-81652128D01*
X149794091Y-81592517D01*
X149743796Y-81457669D01*
X149657546Y-81342454D01*
X149542331Y-81256204D01*
X149430155Y-81214365D01*
X149414752Y-81208620D01*
X149414750Y-81208619D01*
X149407483Y-81205909D01*
X149399770Y-81205079D01*
X149399767Y-81205079D01*
X149351180Y-81199855D01*
X149351169Y-81199854D01*
X149347873Y-81199500D01*
X149344550Y-81199500D01*
X147655439Y-81199500D01*
X147655420Y-81199500D01*
X147652128Y-81199501D01*
X147648850Y-81199853D01*
X147648838Y-81199854D01*
X147600231Y-81205079D01*
X147600225Y-81205080D01*
X147592517Y-81205909D01*
X147585252Y-81208618D01*
X147585246Y-81208620D01*
X147465980Y-81253104D01*
X147465978Y-81253104D01*
X147457669Y-81256204D01*
X147450572Y-81261516D01*
X147450568Y-81261519D01*
X147349550Y-81337141D01*
X147349546Y-81337144D01*
X147342454Y-81342454D01*
X147337144Y-81349546D01*
X147337141Y-81349550D01*
X147261519Y-81450568D01*
X147261516Y-81450572D01*
X147256204Y-81457669D01*
X147253104Y-81465978D01*
X147253104Y-81465980D01*
X147208620Y-81585247D01*
X147208619Y-81585250D01*
X147205909Y-81592517D01*
X147205079Y-81600227D01*
X147205079Y-81600232D01*
X147199855Y-81648819D01*
X147199854Y-81648831D01*
X147199500Y-81652127D01*
X147199500Y-81655448D01*
X147199500Y-81655449D01*
X147199500Y-83344560D01*
X147199500Y-83344578D01*
X137494608Y-83344578D01*
X137500047Y-83339139D01*
X137630568Y-83152734D01*
X137726739Y-82946496D01*
X137785635Y-82726692D01*
X137805468Y-82500000D01*
X137785635Y-82273308D01*
X137726739Y-82053504D01*
X137630568Y-81847266D01*
X137500047Y-81660861D01*
X137339139Y-81499953D01*
X137152734Y-81369432D01*
X136946496Y-81273261D01*
X136941271Y-81271861D01*
X136941263Y-81271858D01*
X136731916Y-81215764D01*
X136731907Y-81215762D01*
X136726692Y-81214365D01*
X136721304Y-81213893D01*
X136721301Y-81213893D01*
X136505395Y-81195004D01*
X136500000Y-81194532D01*
X136494605Y-81195004D01*
X136278698Y-81213893D01*
X136278693Y-81213893D01*
X136273308Y-81214365D01*
X136268094Y-81215762D01*
X136268083Y-81215764D01*
X136058736Y-81271858D01*
X136058724Y-81271862D01*
X136053504Y-81273261D01*
X136048599Y-81275547D01*
X136048594Y-81275550D01*
X135852176Y-81367142D01*
X135852172Y-81367144D01*
X135847266Y-81369432D01*
X135842833Y-81372535D01*
X135842826Y-81372540D01*
X135665296Y-81496847D01*
X135665291Y-81496850D01*
X135660861Y-81499953D01*
X135657037Y-81503776D01*
X135657031Y-81503782D01*
X135503782Y-81657031D01*
X135503776Y-81657037D01*
X135499953Y-81660861D01*
X135496850Y-81665291D01*
X135496847Y-81665296D01*
X135387387Y-81821623D01*
X135343069Y-81860489D01*
X135285812Y-81874500D01*
X132329675Y-81874500D01*
X132318619Y-81873978D01*
X132311233Y-81872327D01*
X132303445Y-81872571D01*
X132303438Y-81872571D01*
X132244013Y-81874439D01*
X132240119Y-81874500D01*
X132212550Y-81874500D01*
X132208694Y-81874986D01*
X132208691Y-81874987D01*
X132208635Y-81874994D01*
X132208562Y-81875003D01*
X132196944Y-81875917D01*
X132161065Y-81877045D01*
X132161064Y-81877045D01*
X132153273Y-81877290D01*
X132145788Y-81879464D01*
X132145784Y-81879465D01*
X132134025Y-81882881D01*
X132114987Y-81886823D01*
X132102849Y-81888357D01*
X132102841Y-81888358D01*
X132095108Y-81889336D01*
X132087860Y-81892205D01*
X132087854Y-81892207D01*
X132054497Y-81905413D01*
X132043454Y-81909194D01*
X132009000Y-81919205D01*
X132008994Y-81919207D01*
X132001510Y-81921382D01*
X131994798Y-81925351D01*
X131994796Y-81925352D01*
X131984264Y-81931580D01*
X131966804Y-81940134D01*
X131955419Y-81944642D01*
X131955413Y-81944644D01*
X131948168Y-81947514D01*
X131941863Y-81952094D01*
X131941855Y-81952099D01*
X131912832Y-81973185D01*
X131903074Y-81979595D01*
X131872196Y-81997857D01*
X131872190Y-81997861D01*
X131865480Y-82001830D01*
X131859967Y-82007341D01*
X131859960Y-82007348D01*
X131851310Y-82015998D01*
X131836527Y-82028624D01*
X131826626Y-82035817D01*
X131826616Y-82035826D01*
X131820313Y-82040406D01*
X131815344Y-82046411D01*
X131815341Y-82046415D01*
X131792472Y-82074059D01*
X131784611Y-82082697D01*
X131029128Y-82838181D01*
X130988900Y-82865061D01*
X130941447Y-82874500D01*
X130775226Y-82874500D01*
X130717969Y-82860489D01*
X130673651Y-82821623D01*
X130541600Y-82633034D01*
X130538495Y-82628599D01*
X130371401Y-82461505D01*
X130366970Y-82458402D01*
X130366966Y-82458399D01*
X130182259Y-82329066D01*
X130182257Y-82329064D01*
X130177830Y-82325965D01*
X130172933Y-82323681D01*
X130172927Y-82323678D01*
X129968572Y-82228386D01*
X129968570Y-82228385D01*
X129963663Y-82226097D01*
X129958438Y-82224697D01*
X129958430Y-82224694D01*
X129740634Y-82166337D01*
X129740630Y-82166336D01*
X129735408Y-82164937D01*
X129730020Y-82164465D01*
X129730017Y-82164465D01*
X129505395Y-82144813D01*
X129500000Y-82144341D01*
X129494605Y-82144813D01*
X129269982Y-82164465D01*
X129269977Y-82164465D01*
X129264592Y-82164937D01*
X129259371Y-82166335D01*
X129259365Y-82166337D01*
X129041569Y-82224694D01*
X129041557Y-82224698D01*
X129036337Y-82226097D01*
X129031432Y-82228383D01*
X129031427Y-82228386D01*
X128827081Y-82323675D01*
X128827077Y-82323677D01*
X128822171Y-82325965D01*
X128817738Y-82329068D01*
X128817731Y-82329073D01*
X128633034Y-82458399D01*
X128633029Y-82458402D01*
X128628599Y-82461505D01*
X128624775Y-82465328D01*
X128624769Y-82465334D01*
X128465334Y-82624769D01*
X128465328Y-82624775D01*
X128461505Y-82628599D01*
X128458402Y-82633029D01*
X128458399Y-82633034D01*
X128329073Y-82817731D01*
X128329068Y-82817738D01*
X128325965Y-82822171D01*
X128323677Y-82827077D01*
X128323675Y-82827081D01*
X128228386Y-83031427D01*
X128228383Y-83031432D01*
X128226097Y-83036337D01*
X128224698Y-83041557D01*
X128224694Y-83041569D01*
X128166337Y-83259365D01*
X128166335Y-83259371D01*
X128164937Y-83264592D01*
X128164465Y-83269977D01*
X128164465Y-83269982D01*
X128157363Y-83351161D01*
X128144341Y-83500000D01*
X110850499Y-83500000D01*
X110850499Y-82602128D01*
X110844091Y-82542517D01*
X110793796Y-82407669D01*
X110707546Y-82292454D01*
X110689170Y-82278698D01*
X110599431Y-82211519D01*
X110599430Y-82211518D01*
X110592331Y-82206204D01*
X110485442Y-82166337D01*
X110464752Y-82158620D01*
X110464750Y-82158619D01*
X110457483Y-82155909D01*
X110449770Y-82155079D01*
X110449767Y-82155079D01*
X110401180Y-82149855D01*
X110401169Y-82149854D01*
X110397873Y-82149500D01*
X110394550Y-82149500D01*
X108605439Y-82149500D01*
X108605420Y-82149500D01*
X108602128Y-82149501D01*
X108598850Y-82149853D01*
X108598838Y-82149854D01*
X108550231Y-82155079D01*
X108550225Y-82155080D01*
X108542517Y-82155909D01*
X108535252Y-82158618D01*
X108535246Y-82158620D01*
X108415980Y-82203104D01*
X108415978Y-82203104D01*
X108407669Y-82206204D01*
X108400572Y-82211516D01*
X108400568Y-82211519D01*
X108299550Y-82287141D01*
X108299546Y-82287144D01*
X108292454Y-82292454D01*
X108287144Y-82299546D01*
X108287141Y-82299550D01*
X108211519Y-82400568D01*
X108211516Y-82400572D01*
X108206204Y-82407669D01*
X108203104Y-82415978D01*
X108203104Y-82415980D01*
X108158620Y-82535247D01*
X108158619Y-82535250D01*
X108155909Y-82542517D01*
X108155079Y-82550227D01*
X108155079Y-82550232D01*
X108149855Y-82598819D01*
X108149854Y-82598831D01*
X108149500Y-82602127D01*
X108149500Y-82605448D01*
X108149500Y-82605449D01*
X108149500Y-84394560D01*
X108149500Y-84394578D01*
X106500000Y-84394578D01*
X106500000Y-80124000D01*
X106516613Y-80062000D01*
X106562000Y-80016613D01*
X106624000Y-80000000D01*
X151376000Y-80000000D01*
X151438000Y-80016613D01*
G37*
%TD.AperFunction*%
%TD*%
M02*
