%TF.GenerationSoftware,KiCad,Pcbnew,8.0.0*%
%TF.CreationDate,2024-03-12T11:32:20+03:00*%
%TF.ProjectId,germanium-power-src,6765726d-616e-4697-956d-2d706f776572,rev?*%
%TF.SameCoordinates,Original*%
%TF.FileFunction,Drillmap*%
%TF.FilePolarity,Positive*%
%FSLAX45Y45*%
G04 Gerber Fmt 4.5, Leading zero omitted, Abs format (unit mm)*
G04 Created by KiCad (PCBNEW 8.0.0) date 2024-03-12 11:32:20*
%MOMM*%
%LPD*%
G01*
G04 APERTURE LIST*
%ADD10C,0.100000*%
%ADD11C,0.200000*%
%ADD12C,0.110000*%
%ADD13C,0.150000*%
G04 APERTURE END LIST*
D10*
X15900000Y-7250000D02*
X9900000Y-7250000D01*
X15800000Y-7550000D02*
G75*
G02*
X15400000Y-7550000I-200000J0D01*
G01*
X15400000Y-7550000D02*
G75*
G02*
X15800000Y-7550000I200000J0D01*
G01*
X15900000Y-12350000D02*
X15900000Y-7250000D01*
X10400000Y-12050000D02*
G75*
G02*
X10000000Y-12050000I-200000J0D01*
G01*
X10000000Y-12050000D02*
G75*
G02*
X10400000Y-12050000I200000J0D01*
G01*
X15800000Y-12050000D02*
G75*
G02*
X15400000Y-12050000I-200000J0D01*
G01*
X15400000Y-12050000D02*
G75*
G02*
X15800000Y-12050000I200000J0D01*
G01*
X10400000Y-7550000D02*
G75*
G02*
X10000000Y-7550000I-200000J0D01*
G01*
X10000000Y-7550000D02*
G75*
G02*
X10400000Y-7550000I200000J0D01*
G01*
X9900000Y-12350000D02*
X15900000Y-12350000D01*
X9900000Y-7250000D02*
X9900000Y-12350000D01*
D11*
D10*
X13610000Y-10865000D02*
X13680000Y-10935000D01*
X13680000Y-10865000D02*
X13610000Y-10935000D01*
X13864000Y-10675000D02*
X13934000Y-10745000D01*
X13934000Y-10675000D02*
X13864000Y-10745000D01*
X14118000Y-10865000D02*
X14188000Y-10935000D01*
X14188000Y-10865000D02*
X14118000Y-10935000D01*
X11590000Y-10742000D02*
G75*
G02*
X11510000Y-10742000I-40000J0D01*
G01*
X11510000Y-10742000D02*
G75*
G02*
X11590000Y-10742000I40000J0D01*
G01*
X11590000Y-10996000D02*
G75*
G02*
X11510000Y-10996000I-40000J0D01*
G01*
X11510000Y-10996000D02*
G75*
G02*
X11590000Y-10996000I40000J0D01*
G01*
X11590000Y-11250000D02*
G75*
G02*
X11510000Y-11250000I-40000J0D01*
G01*
X11510000Y-11250000D02*
G75*
G02*
X11590000Y-11250000I40000J0D01*
G01*
X12082000Y-10650000D02*
G75*
G02*
X12002000Y-10650000I-40000J0D01*
G01*
X12002000Y-10650000D02*
G75*
G02*
X12082000Y-10650000I40000J0D01*
G01*
X12082000Y-11000000D02*
G75*
G02*
X12002000Y-11000000I-40000J0D01*
G01*
X12002000Y-11000000D02*
G75*
G02*
X12082000Y-11000000I40000J0D01*
G01*
X12082000Y-11350000D02*
G75*
G02*
X12002000Y-11350000I-40000J0D01*
G01*
X12002000Y-11350000D02*
G75*
G02*
X12082000Y-11350000I40000J0D01*
G01*
X13098000Y-10650000D02*
G75*
G02*
X13018000Y-10650000I-40000J0D01*
G01*
X13018000Y-10650000D02*
G75*
G02*
X13098000Y-10650000I40000J0D01*
G01*
X13098000Y-11000000D02*
G75*
G02*
X13018000Y-11000000I-40000J0D01*
G01*
X13018000Y-11000000D02*
G75*
G02*
X13098000Y-11000000I40000J0D01*
G01*
X13098000Y-11350000D02*
G75*
G02*
X13018000Y-11350000I-40000J0D01*
G01*
X13018000Y-11350000D02*
G75*
G02*
X13098000Y-11350000I40000J0D01*
G01*
X10950000Y-10846000D02*
X10950000Y-10946000D01*
X10900000Y-10896000D02*
X11000000Y-10896000D01*
X10950000Y-11100000D02*
X10950000Y-11200000D01*
X10900000Y-11150000D02*
X11000000Y-11150000D01*
X13492000Y-8700000D02*
X13492000Y-8800000D01*
X13442000Y-8750000D02*
X13542000Y-8750000D01*
X13570000Y-9500000D02*
X13570000Y-9600000D01*
X13520000Y-9550000D02*
X13620000Y-9550000D01*
X13746000Y-8700000D02*
X13746000Y-8800000D01*
X13696000Y-8750000D02*
X13796000Y-8750000D01*
X13950000Y-9500000D02*
X13950000Y-9600000D01*
X13900000Y-9550000D02*
X14000000Y-9550000D01*
X14000000Y-8700000D02*
X14000000Y-8800000D01*
X13950000Y-8750000D02*
X14050000Y-8750000D01*
X14400000Y-8696000D02*
X14400000Y-8796000D01*
X14350000Y-8746000D02*
X14450000Y-8746000D01*
X14400000Y-8950000D02*
X14400000Y-9050000D01*
X14350000Y-9000000D02*
X14450000Y-9000000D01*
D12*
X13688891Y-8288891D02*
X13688891Y-8211109D01*
X13611109Y-8211109D01*
X13611109Y-8288891D01*
X13688891Y-8288891D01*
X14888891Y-8288891D02*
X14888891Y-8211109D01*
X14811109Y-8211109D01*
X14811109Y-8288891D01*
X14888891Y-8288891D01*
X14888891Y-8688891D02*
X14888891Y-8611109D01*
X14811109Y-8611109D01*
X14811109Y-8688891D01*
X14888891Y-8688891D01*
X14888891Y-9888891D02*
X14888891Y-9811109D01*
X14811109Y-9811109D01*
X14811109Y-9888891D01*
X14888891Y-9888891D01*
X14888891Y-10238891D02*
X14888891Y-10161109D01*
X14811109Y-10161109D01*
X14811109Y-10238891D01*
X14888891Y-10238891D01*
X14888891Y-11438891D02*
X14888891Y-11361109D01*
X14811109Y-11361109D01*
X14811109Y-11438891D01*
X14888891Y-11438891D01*
D13*
X10950000Y-8425000D02*
X11025000Y-8350000D01*
X10950000Y-8275000D01*
X10875000Y-8350000D01*
X10950000Y-8425000D01*
X10950000Y-9025000D02*
X11025000Y-8950000D01*
X10950000Y-8875000D01*
X10875000Y-8950000D01*
X10950000Y-9025000D01*
X10950000Y-9625000D02*
X11025000Y-9550000D01*
X10950000Y-9475000D01*
X10875000Y-9550000D01*
X10950000Y-9625000D01*
X10950000Y-10225000D02*
X11025000Y-10150000D01*
X10950000Y-10075000D01*
X10875000Y-10150000D01*
X10950000Y-10225000D01*
X12950000Y-8425000D02*
X13025000Y-8350000D01*
X12950000Y-8275000D01*
X12875000Y-8350000D01*
X12950000Y-8425000D01*
X12950000Y-9025000D02*
X13025000Y-8950000D01*
X12950000Y-8875000D01*
X12875000Y-8950000D01*
X12950000Y-9025000D01*
X12950000Y-9625000D02*
X13025000Y-9550000D01*
X12950000Y-9475000D01*
X12875000Y-9550000D01*
X12950000Y-9625000D01*
X12950000Y-10225000D02*
X13025000Y-10150000D01*
X12950000Y-10075000D01*
X12875000Y-10150000D01*
X12950000Y-10225000D01*
D11*
X10155777Y-12666484D02*
X10155777Y-12466484D01*
X10155777Y-12466484D02*
X10203396Y-12466484D01*
X10203396Y-12466484D02*
X10231967Y-12476008D01*
X10231967Y-12476008D02*
X10251015Y-12495055D01*
X10251015Y-12495055D02*
X10260539Y-12514103D01*
X10260539Y-12514103D02*
X10270063Y-12552198D01*
X10270063Y-12552198D02*
X10270063Y-12580769D01*
X10270063Y-12580769D02*
X10260539Y-12618865D01*
X10260539Y-12618865D02*
X10251015Y-12637912D01*
X10251015Y-12637912D02*
X10231967Y-12656960D01*
X10231967Y-12656960D02*
X10203396Y-12666484D01*
X10203396Y-12666484D02*
X10155777Y-12666484D01*
X10355777Y-12666484D02*
X10355777Y-12533150D01*
X10355777Y-12571246D02*
X10365301Y-12552198D01*
X10365301Y-12552198D02*
X10374824Y-12542674D01*
X10374824Y-12542674D02*
X10393872Y-12533150D01*
X10393872Y-12533150D02*
X10412920Y-12533150D01*
X10479586Y-12666484D02*
X10479586Y-12533150D01*
X10479586Y-12466484D02*
X10470063Y-12476008D01*
X10470063Y-12476008D02*
X10479586Y-12485531D01*
X10479586Y-12485531D02*
X10489110Y-12476008D01*
X10489110Y-12476008D02*
X10479586Y-12466484D01*
X10479586Y-12466484D02*
X10479586Y-12485531D01*
X10603396Y-12666484D02*
X10584348Y-12656960D01*
X10584348Y-12656960D02*
X10574824Y-12637912D01*
X10574824Y-12637912D02*
X10574824Y-12466484D01*
X10708158Y-12666484D02*
X10689110Y-12656960D01*
X10689110Y-12656960D02*
X10679586Y-12637912D01*
X10679586Y-12637912D02*
X10679586Y-12466484D01*
X10936729Y-12666484D02*
X10936729Y-12466484D01*
X10936729Y-12466484D02*
X11003396Y-12609341D01*
X11003396Y-12609341D02*
X11070063Y-12466484D01*
X11070063Y-12466484D02*
X11070063Y-12666484D01*
X11251015Y-12666484D02*
X11251015Y-12561722D01*
X11251015Y-12561722D02*
X11241491Y-12542674D01*
X11241491Y-12542674D02*
X11222443Y-12533150D01*
X11222443Y-12533150D02*
X11184348Y-12533150D01*
X11184348Y-12533150D02*
X11165301Y-12542674D01*
X11251015Y-12656960D02*
X11231967Y-12666484D01*
X11231967Y-12666484D02*
X11184348Y-12666484D01*
X11184348Y-12666484D02*
X11165301Y-12656960D01*
X11165301Y-12656960D02*
X11155777Y-12637912D01*
X11155777Y-12637912D02*
X11155777Y-12618865D01*
X11155777Y-12618865D02*
X11165301Y-12599817D01*
X11165301Y-12599817D02*
X11184348Y-12590293D01*
X11184348Y-12590293D02*
X11231967Y-12590293D01*
X11231967Y-12590293D02*
X11251015Y-12580769D01*
X11346253Y-12533150D02*
X11346253Y-12733150D01*
X11346253Y-12542674D02*
X11365301Y-12533150D01*
X11365301Y-12533150D02*
X11403396Y-12533150D01*
X11403396Y-12533150D02*
X11422443Y-12542674D01*
X11422443Y-12542674D02*
X11431967Y-12552198D01*
X11431967Y-12552198D02*
X11441491Y-12571246D01*
X11441491Y-12571246D02*
X11441491Y-12628388D01*
X11441491Y-12628388D02*
X11431967Y-12647436D01*
X11431967Y-12647436D02*
X11422443Y-12656960D01*
X11422443Y-12656960D02*
X11403396Y-12666484D01*
X11403396Y-12666484D02*
X11365301Y-12666484D01*
X11365301Y-12666484D02*
X11346253Y-12656960D01*
X11527205Y-12647436D02*
X11536729Y-12656960D01*
X11536729Y-12656960D02*
X11527205Y-12666484D01*
X11527205Y-12666484D02*
X11517682Y-12656960D01*
X11517682Y-12656960D02*
X11527205Y-12647436D01*
X11527205Y-12647436D02*
X11527205Y-12666484D01*
X11527205Y-12542674D02*
X11536729Y-12552198D01*
X11536729Y-12552198D02*
X11527205Y-12561722D01*
X11527205Y-12561722D02*
X11517682Y-12552198D01*
X11517682Y-12552198D02*
X11527205Y-12542674D01*
X11527205Y-12542674D02*
X11527205Y-12561722D01*
D10*
X9825000Y-12960000D02*
X9895000Y-13030000D01*
X9895000Y-12960000D02*
X9825000Y-13030000D01*
D11*
X10193872Y-12886484D02*
X10212920Y-12886484D01*
X10212920Y-12886484D02*
X10231967Y-12896008D01*
X10231967Y-12896008D02*
X10241491Y-12905531D01*
X10241491Y-12905531D02*
X10251015Y-12924579D01*
X10251015Y-12924579D02*
X10260539Y-12962674D01*
X10260539Y-12962674D02*
X10260539Y-13010293D01*
X10260539Y-13010293D02*
X10251015Y-13048388D01*
X10251015Y-13048388D02*
X10241491Y-13067436D01*
X10241491Y-13067436D02*
X10231967Y-13076960D01*
X10231967Y-13076960D02*
X10212920Y-13086484D01*
X10212920Y-13086484D02*
X10193872Y-13086484D01*
X10193872Y-13086484D02*
X10174824Y-13076960D01*
X10174824Y-13076960D02*
X10165301Y-13067436D01*
X10165301Y-13067436D02*
X10155777Y-13048388D01*
X10155777Y-13048388D02*
X10146253Y-13010293D01*
X10146253Y-13010293D02*
X10146253Y-12962674D01*
X10146253Y-12962674D02*
X10155777Y-12924579D01*
X10155777Y-12924579D02*
X10165301Y-12905531D01*
X10165301Y-12905531D02*
X10174824Y-12896008D01*
X10174824Y-12896008D02*
X10193872Y-12886484D01*
X10346253Y-13067436D02*
X10355777Y-13076960D01*
X10355777Y-13076960D02*
X10346253Y-13086484D01*
X10346253Y-13086484D02*
X10336729Y-13076960D01*
X10336729Y-13076960D02*
X10346253Y-13067436D01*
X10346253Y-13067436D02*
X10346253Y-13086484D01*
X10422444Y-12886484D02*
X10555777Y-12886484D01*
X10555777Y-12886484D02*
X10470063Y-13086484D01*
X10670063Y-12886484D02*
X10689110Y-12886484D01*
X10689110Y-12886484D02*
X10708158Y-12896008D01*
X10708158Y-12896008D02*
X10717682Y-12905531D01*
X10717682Y-12905531D02*
X10727205Y-12924579D01*
X10727205Y-12924579D02*
X10736729Y-12962674D01*
X10736729Y-12962674D02*
X10736729Y-13010293D01*
X10736729Y-13010293D02*
X10727205Y-13048388D01*
X10727205Y-13048388D02*
X10717682Y-13067436D01*
X10717682Y-13067436D02*
X10708158Y-13076960D01*
X10708158Y-13076960D02*
X10689110Y-13086484D01*
X10689110Y-13086484D02*
X10670063Y-13086484D01*
X10670063Y-13086484D02*
X10651015Y-13076960D01*
X10651015Y-13076960D02*
X10641491Y-13067436D01*
X10641491Y-13067436D02*
X10631967Y-13048388D01*
X10631967Y-13048388D02*
X10622444Y-13010293D01*
X10622444Y-13010293D02*
X10622444Y-12962674D01*
X10622444Y-12962674D02*
X10631967Y-12924579D01*
X10631967Y-12924579D02*
X10641491Y-12905531D01*
X10641491Y-12905531D02*
X10651015Y-12896008D01*
X10651015Y-12896008D02*
X10670063Y-12886484D01*
X10860539Y-12886484D02*
X10879586Y-12886484D01*
X10879586Y-12886484D02*
X10898634Y-12896008D01*
X10898634Y-12896008D02*
X10908158Y-12905531D01*
X10908158Y-12905531D02*
X10917682Y-12924579D01*
X10917682Y-12924579D02*
X10927205Y-12962674D01*
X10927205Y-12962674D02*
X10927205Y-13010293D01*
X10927205Y-13010293D02*
X10917682Y-13048388D01*
X10917682Y-13048388D02*
X10908158Y-13067436D01*
X10908158Y-13067436D02*
X10898634Y-13076960D01*
X10898634Y-13076960D02*
X10879586Y-13086484D01*
X10879586Y-13086484D02*
X10860539Y-13086484D01*
X10860539Y-13086484D02*
X10841491Y-13076960D01*
X10841491Y-13076960D02*
X10831967Y-13067436D01*
X10831967Y-13067436D02*
X10822444Y-13048388D01*
X10822444Y-13048388D02*
X10812920Y-13010293D01*
X10812920Y-13010293D02*
X10812920Y-12962674D01*
X10812920Y-12962674D02*
X10822444Y-12924579D01*
X10822444Y-12924579D02*
X10831967Y-12905531D01*
X10831967Y-12905531D02*
X10841491Y-12896008D01*
X10841491Y-12896008D02*
X10860539Y-12886484D01*
X11012920Y-13086484D02*
X11012920Y-12953150D01*
X11012920Y-12972198D02*
X11022444Y-12962674D01*
X11022444Y-12962674D02*
X11041491Y-12953150D01*
X11041491Y-12953150D02*
X11070063Y-12953150D01*
X11070063Y-12953150D02*
X11089110Y-12962674D01*
X11089110Y-12962674D02*
X11098634Y-12981722D01*
X11098634Y-12981722D02*
X11098634Y-13086484D01*
X11098634Y-12981722D02*
X11108158Y-12962674D01*
X11108158Y-12962674D02*
X11127205Y-12953150D01*
X11127205Y-12953150D02*
X11155777Y-12953150D01*
X11155777Y-12953150D02*
X11174825Y-12962674D01*
X11174825Y-12962674D02*
X11184348Y-12981722D01*
X11184348Y-12981722D02*
X11184348Y-13086484D01*
X11279586Y-13086484D02*
X11279586Y-12953150D01*
X11279586Y-12972198D02*
X11289110Y-12962674D01*
X11289110Y-12962674D02*
X11308158Y-12953150D01*
X11308158Y-12953150D02*
X11336729Y-12953150D01*
X11336729Y-12953150D02*
X11355777Y-12962674D01*
X11355777Y-12962674D02*
X11365301Y-12981722D01*
X11365301Y-12981722D02*
X11365301Y-13086484D01*
X11365301Y-12981722D02*
X11374824Y-12962674D01*
X11374824Y-12962674D02*
X11393872Y-12953150D01*
X11393872Y-12953150D02*
X11422443Y-12953150D01*
X11422443Y-12953150D02*
X11441491Y-12962674D01*
X11441491Y-12962674D02*
X11451015Y-12981722D01*
X11451015Y-12981722D02*
X11451015Y-13086484D01*
X11841491Y-12876960D02*
X11670063Y-13134103D01*
X12098634Y-12886484D02*
X12117682Y-12886484D01*
X12117682Y-12886484D02*
X12136729Y-12896008D01*
X12136729Y-12896008D02*
X12146253Y-12905531D01*
X12146253Y-12905531D02*
X12155777Y-12924579D01*
X12155777Y-12924579D02*
X12165301Y-12962674D01*
X12165301Y-12962674D02*
X12165301Y-13010293D01*
X12165301Y-13010293D02*
X12155777Y-13048388D01*
X12155777Y-13048388D02*
X12146253Y-13067436D01*
X12146253Y-13067436D02*
X12136729Y-13076960D01*
X12136729Y-13076960D02*
X12117682Y-13086484D01*
X12117682Y-13086484D02*
X12098634Y-13086484D01*
X12098634Y-13086484D02*
X12079586Y-13076960D01*
X12079586Y-13076960D02*
X12070063Y-13067436D01*
X12070063Y-13067436D02*
X12060539Y-13048388D01*
X12060539Y-13048388D02*
X12051015Y-13010293D01*
X12051015Y-13010293D02*
X12051015Y-12962674D01*
X12051015Y-12962674D02*
X12060539Y-12924579D01*
X12060539Y-12924579D02*
X12070063Y-12905531D01*
X12070063Y-12905531D02*
X12079586Y-12896008D01*
X12079586Y-12896008D02*
X12098634Y-12886484D01*
X12251015Y-13067436D02*
X12260539Y-13076960D01*
X12260539Y-13076960D02*
X12251015Y-13086484D01*
X12251015Y-13086484D02*
X12241491Y-13076960D01*
X12241491Y-13076960D02*
X12251015Y-13067436D01*
X12251015Y-13067436D02*
X12251015Y-13086484D01*
X12384348Y-12886484D02*
X12403396Y-12886484D01*
X12403396Y-12886484D02*
X12422444Y-12896008D01*
X12422444Y-12896008D02*
X12431967Y-12905531D01*
X12431967Y-12905531D02*
X12441491Y-12924579D01*
X12441491Y-12924579D02*
X12451015Y-12962674D01*
X12451015Y-12962674D02*
X12451015Y-13010293D01*
X12451015Y-13010293D02*
X12441491Y-13048388D01*
X12441491Y-13048388D02*
X12431967Y-13067436D01*
X12431967Y-13067436D02*
X12422444Y-13076960D01*
X12422444Y-13076960D02*
X12403396Y-13086484D01*
X12403396Y-13086484D02*
X12384348Y-13086484D01*
X12384348Y-13086484D02*
X12365301Y-13076960D01*
X12365301Y-13076960D02*
X12355777Y-13067436D01*
X12355777Y-13067436D02*
X12346253Y-13048388D01*
X12346253Y-13048388D02*
X12336729Y-13010293D01*
X12336729Y-13010293D02*
X12336729Y-12962674D01*
X12336729Y-12962674D02*
X12346253Y-12924579D01*
X12346253Y-12924579D02*
X12355777Y-12905531D01*
X12355777Y-12905531D02*
X12365301Y-12896008D01*
X12365301Y-12896008D02*
X12384348Y-12886484D01*
X12527206Y-12905531D02*
X12536729Y-12896008D01*
X12536729Y-12896008D02*
X12555777Y-12886484D01*
X12555777Y-12886484D02*
X12603396Y-12886484D01*
X12603396Y-12886484D02*
X12622444Y-12896008D01*
X12622444Y-12896008D02*
X12631967Y-12905531D01*
X12631967Y-12905531D02*
X12641491Y-12924579D01*
X12641491Y-12924579D02*
X12641491Y-12943627D01*
X12641491Y-12943627D02*
X12631967Y-12972198D01*
X12631967Y-12972198D02*
X12517682Y-13086484D01*
X12517682Y-13086484D02*
X12641491Y-13086484D01*
X12708158Y-12886484D02*
X12841491Y-12886484D01*
X12841491Y-12886484D02*
X12755777Y-13086484D01*
X13003396Y-12886484D02*
X12965301Y-12886484D01*
X12965301Y-12886484D02*
X12946253Y-12896008D01*
X12946253Y-12896008D02*
X12936729Y-12905531D01*
X12936729Y-12905531D02*
X12917682Y-12934103D01*
X12917682Y-12934103D02*
X12908158Y-12972198D01*
X12908158Y-12972198D02*
X12908158Y-13048388D01*
X12908158Y-13048388D02*
X12917682Y-13067436D01*
X12917682Y-13067436D02*
X12927206Y-13076960D01*
X12927206Y-13076960D02*
X12946253Y-13086484D01*
X12946253Y-13086484D02*
X12984348Y-13086484D01*
X12984348Y-13086484D02*
X13003396Y-13076960D01*
X13003396Y-13076960D02*
X13012920Y-13067436D01*
X13012920Y-13067436D02*
X13022444Y-13048388D01*
X13022444Y-13048388D02*
X13022444Y-13000769D01*
X13022444Y-13000769D02*
X13012920Y-12981722D01*
X13012920Y-12981722D02*
X13003396Y-12972198D01*
X13003396Y-12972198D02*
X12984348Y-12962674D01*
X12984348Y-12962674D02*
X12946253Y-12962674D01*
X12946253Y-12962674D02*
X12927206Y-12972198D01*
X12927206Y-12972198D02*
X12917682Y-12981722D01*
X12917682Y-12981722D02*
X12908158Y-13000769D01*
X13098634Y-12886484D02*
X13098634Y-12924579D01*
X13174825Y-12886484D02*
X13174825Y-12924579D01*
X13470063Y-13162674D02*
X13460539Y-13153150D01*
X13460539Y-13153150D02*
X13441491Y-13124579D01*
X13441491Y-13124579D02*
X13431968Y-13105531D01*
X13431968Y-13105531D02*
X13422444Y-13076960D01*
X13422444Y-13076960D02*
X13412920Y-13029341D01*
X13412920Y-13029341D02*
X13412920Y-12991246D01*
X13412920Y-12991246D02*
X13422444Y-12943627D01*
X13422444Y-12943627D02*
X13431968Y-12915055D01*
X13431968Y-12915055D02*
X13441491Y-12896008D01*
X13441491Y-12896008D02*
X13460539Y-12867436D01*
X13460539Y-12867436D02*
X13470063Y-12857912D01*
X13527206Y-12886484D02*
X13651015Y-12886484D01*
X13651015Y-12886484D02*
X13584348Y-12962674D01*
X13584348Y-12962674D02*
X13612920Y-12962674D01*
X13612920Y-12962674D02*
X13631968Y-12972198D01*
X13631968Y-12972198D02*
X13641491Y-12981722D01*
X13641491Y-12981722D02*
X13651015Y-13000769D01*
X13651015Y-13000769D02*
X13651015Y-13048388D01*
X13651015Y-13048388D02*
X13641491Y-13067436D01*
X13641491Y-13067436D02*
X13631968Y-13076960D01*
X13631968Y-13076960D02*
X13612920Y-13086484D01*
X13612920Y-13086484D02*
X13555777Y-13086484D01*
X13555777Y-13086484D02*
X13536729Y-13076960D01*
X13536729Y-13076960D02*
X13527206Y-13067436D01*
X13889110Y-13086484D02*
X13889110Y-12886484D01*
X13974825Y-13086484D02*
X13974825Y-12981722D01*
X13974825Y-12981722D02*
X13965301Y-12962674D01*
X13965301Y-12962674D02*
X13946253Y-12953150D01*
X13946253Y-12953150D02*
X13917682Y-12953150D01*
X13917682Y-12953150D02*
X13898634Y-12962674D01*
X13898634Y-12962674D02*
X13889110Y-12972198D01*
X14098634Y-13086484D02*
X14079587Y-13076960D01*
X14079587Y-13076960D02*
X14070063Y-13067436D01*
X14070063Y-13067436D02*
X14060539Y-13048388D01*
X14060539Y-13048388D02*
X14060539Y-12991246D01*
X14060539Y-12991246D02*
X14070063Y-12972198D01*
X14070063Y-12972198D02*
X14079587Y-12962674D01*
X14079587Y-12962674D02*
X14098634Y-12953150D01*
X14098634Y-12953150D02*
X14127206Y-12953150D01*
X14127206Y-12953150D02*
X14146253Y-12962674D01*
X14146253Y-12962674D02*
X14155777Y-12972198D01*
X14155777Y-12972198D02*
X14165301Y-12991246D01*
X14165301Y-12991246D02*
X14165301Y-13048388D01*
X14165301Y-13048388D02*
X14155777Y-13067436D01*
X14155777Y-13067436D02*
X14146253Y-13076960D01*
X14146253Y-13076960D02*
X14127206Y-13086484D01*
X14127206Y-13086484D02*
X14098634Y-13086484D01*
X14279587Y-13086484D02*
X14260539Y-13076960D01*
X14260539Y-13076960D02*
X14251015Y-13057912D01*
X14251015Y-13057912D02*
X14251015Y-12886484D01*
X14431968Y-13076960D02*
X14412920Y-13086484D01*
X14412920Y-13086484D02*
X14374825Y-13086484D01*
X14374825Y-13086484D02*
X14355777Y-13076960D01*
X14355777Y-13076960D02*
X14346253Y-13057912D01*
X14346253Y-13057912D02*
X14346253Y-12981722D01*
X14346253Y-12981722D02*
X14355777Y-12962674D01*
X14355777Y-12962674D02*
X14374825Y-12953150D01*
X14374825Y-12953150D02*
X14412920Y-12953150D01*
X14412920Y-12953150D02*
X14431968Y-12962674D01*
X14431968Y-12962674D02*
X14441491Y-12981722D01*
X14441491Y-12981722D02*
X14441491Y-13000769D01*
X14441491Y-13000769D02*
X14346253Y-13019817D01*
X14517682Y-13076960D02*
X14536730Y-13086484D01*
X14536730Y-13086484D02*
X14574825Y-13086484D01*
X14574825Y-13086484D02*
X14593872Y-13076960D01*
X14593872Y-13076960D02*
X14603396Y-13057912D01*
X14603396Y-13057912D02*
X14603396Y-13048388D01*
X14603396Y-13048388D02*
X14593872Y-13029341D01*
X14593872Y-13029341D02*
X14574825Y-13019817D01*
X14574825Y-13019817D02*
X14546253Y-13019817D01*
X14546253Y-13019817D02*
X14527206Y-13010293D01*
X14527206Y-13010293D02*
X14517682Y-12991246D01*
X14517682Y-12991246D02*
X14517682Y-12981722D01*
X14517682Y-12981722D02*
X14527206Y-12962674D01*
X14527206Y-12962674D02*
X14546253Y-12953150D01*
X14546253Y-12953150D02*
X14574825Y-12953150D01*
X14574825Y-12953150D02*
X14593872Y-12962674D01*
X14670063Y-13162674D02*
X14679587Y-13153150D01*
X14679587Y-13153150D02*
X14698634Y-13124579D01*
X14698634Y-13124579D02*
X14708158Y-13105531D01*
X14708158Y-13105531D02*
X14717682Y-13076960D01*
X14717682Y-13076960D02*
X14727206Y-13029341D01*
X14727206Y-13029341D02*
X14727206Y-12991246D01*
X14727206Y-12991246D02*
X14717682Y-12943627D01*
X14717682Y-12943627D02*
X14708158Y-12915055D01*
X14708158Y-12915055D02*
X14698634Y-12896008D01*
X14698634Y-12896008D02*
X14679587Y-12867436D01*
X14679587Y-12867436D02*
X14670063Y-12857912D01*
D10*
X9895000Y-13259000D02*
G75*
G02*
X9815000Y-13259000I-40000J0D01*
G01*
X9815000Y-13259000D02*
G75*
G02*
X9895000Y-13259000I40000J0D01*
G01*
D11*
X10193872Y-13150484D02*
X10212920Y-13150484D01*
X10212920Y-13150484D02*
X10231967Y-13160008D01*
X10231967Y-13160008D02*
X10241491Y-13169531D01*
X10241491Y-13169531D02*
X10251015Y-13188579D01*
X10251015Y-13188579D02*
X10260539Y-13226674D01*
X10260539Y-13226674D02*
X10260539Y-13274293D01*
X10260539Y-13274293D02*
X10251015Y-13312388D01*
X10251015Y-13312388D02*
X10241491Y-13331436D01*
X10241491Y-13331436D02*
X10231967Y-13340960D01*
X10231967Y-13340960D02*
X10212920Y-13350484D01*
X10212920Y-13350484D02*
X10193872Y-13350484D01*
X10193872Y-13350484D02*
X10174824Y-13340960D01*
X10174824Y-13340960D02*
X10165301Y-13331436D01*
X10165301Y-13331436D02*
X10155777Y-13312388D01*
X10155777Y-13312388D02*
X10146253Y-13274293D01*
X10146253Y-13274293D02*
X10146253Y-13226674D01*
X10146253Y-13226674D02*
X10155777Y-13188579D01*
X10155777Y-13188579D02*
X10165301Y-13169531D01*
X10165301Y-13169531D02*
X10174824Y-13160008D01*
X10174824Y-13160008D02*
X10193872Y-13150484D01*
X10346253Y-13331436D02*
X10355777Y-13340960D01*
X10355777Y-13340960D02*
X10346253Y-13350484D01*
X10346253Y-13350484D02*
X10336729Y-13340960D01*
X10336729Y-13340960D02*
X10346253Y-13331436D01*
X10346253Y-13331436D02*
X10346253Y-13350484D01*
X10470063Y-13236198D02*
X10451015Y-13226674D01*
X10451015Y-13226674D02*
X10441491Y-13217150D01*
X10441491Y-13217150D02*
X10431967Y-13198103D01*
X10431967Y-13198103D02*
X10431967Y-13188579D01*
X10431967Y-13188579D02*
X10441491Y-13169531D01*
X10441491Y-13169531D02*
X10451015Y-13160008D01*
X10451015Y-13160008D02*
X10470063Y-13150484D01*
X10470063Y-13150484D02*
X10508158Y-13150484D01*
X10508158Y-13150484D02*
X10527205Y-13160008D01*
X10527205Y-13160008D02*
X10536729Y-13169531D01*
X10536729Y-13169531D02*
X10546253Y-13188579D01*
X10546253Y-13188579D02*
X10546253Y-13198103D01*
X10546253Y-13198103D02*
X10536729Y-13217150D01*
X10536729Y-13217150D02*
X10527205Y-13226674D01*
X10527205Y-13226674D02*
X10508158Y-13236198D01*
X10508158Y-13236198D02*
X10470063Y-13236198D01*
X10470063Y-13236198D02*
X10451015Y-13245722D01*
X10451015Y-13245722D02*
X10441491Y-13255246D01*
X10441491Y-13255246D02*
X10431967Y-13274293D01*
X10431967Y-13274293D02*
X10431967Y-13312388D01*
X10431967Y-13312388D02*
X10441491Y-13331436D01*
X10441491Y-13331436D02*
X10451015Y-13340960D01*
X10451015Y-13340960D02*
X10470063Y-13350484D01*
X10470063Y-13350484D02*
X10508158Y-13350484D01*
X10508158Y-13350484D02*
X10527205Y-13340960D01*
X10527205Y-13340960D02*
X10536729Y-13331436D01*
X10536729Y-13331436D02*
X10546253Y-13312388D01*
X10546253Y-13312388D02*
X10546253Y-13274293D01*
X10546253Y-13274293D02*
X10536729Y-13255246D01*
X10536729Y-13255246D02*
X10527205Y-13245722D01*
X10527205Y-13245722D02*
X10508158Y-13236198D01*
X10670063Y-13150484D02*
X10689110Y-13150484D01*
X10689110Y-13150484D02*
X10708158Y-13160008D01*
X10708158Y-13160008D02*
X10717682Y-13169531D01*
X10717682Y-13169531D02*
X10727205Y-13188579D01*
X10727205Y-13188579D02*
X10736729Y-13226674D01*
X10736729Y-13226674D02*
X10736729Y-13274293D01*
X10736729Y-13274293D02*
X10727205Y-13312388D01*
X10727205Y-13312388D02*
X10717682Y-13331436D01*
X10717682Y-13331436D02*
X10708158Y-13340960D01*
X10708158Y-13340960D02*
X10689110Y-13350484D01*
X10689110Y-13350484D02*
X10670063Y-13350484D01*
X10670063Y-13350484D02*
X10651015Y-13340960D01*
X10651015Y-13340960D02*
X10641491Y-13331436D01*
X10641491Y-13331436D02*
X10631967Y-13312388D01*
X10631967Y-13312388D02*
X10622444Y-13274293D01*
X10622444Y-13274293D02*
X10622444Y-13226674D01*
X10622444Y-13226674D02*
X10631967Y-13188579D01*
X10631967Y-13188579D02*
X10641491Y-13169531D01*
X10641491Y-13169531D02*
X10651015Y-13160008D01*
X10651015Y-13160008D02*
X10670063Y-13150484D01*
X10860539Y-13150484D02*
X10879586Y-13150484D01*
X10879586Y-13150484D02*
X10898634Y-13160008D01*
X10898634Y-13160008D02*
X10908158Y-13169531D01*
X10908158Y-13169531D02*
X10917682Y-13188579D01*
X10917682Y-13188579D02*
X10927205Y-13226674D01*
X10927205Y-13226674D02*
X10927205Y-13274293D01*
X10927205Y-13274293D02*
X10917682Y-13312388D01*
X10917682Y-13312388D02*
X10908158Y-13331436D01*
X10908158Y-13331436D02*
X10898634Y-13340960D01*
X10898634Y-13340960D02*
X10879586Y-13350484D01*
X10879586Y-13350484D02*
X10860539Y-13350484D01*
X10860539Y-13350484D02*
X10841491Y-13340960D01*
X10841491Y-13340960D02*
X10831967Y-13331436D01*
X10831967Y-13331436D02*
X10822444Y-13312388D01*
X10822444Y-13312388D02*
X10812920Y-13274293D01*
X10812920Y-13274293D02*
X10812920Y-13226674D01*
X10812920Y-13226674D02*
X10822444Y-13188579D01*
X10822444Y-13188579D02*
X10831967Y-13169531D01*
X10831967Y-13169531D02*
X10841491Y-13160008D01*
X10841491Y-13160008D02*
X10860539Y-13150484D01*
X11012920Y-13350484D02*
X11012920Y-13217150D01*
X11012920Y-13236198D02*
X11022444Y-13226674D01*
X11022444Y-13226674D02*
X11041491Y-13217150D01*
X11041491Y-13217150D02*
X11070063Y-13217150D01*
X11070063Y-13217150D02*
X11089110Y-13226674D01*
X11089110Y-13226674D02*
X11098634Y-13245722D01*
X11098634Y-13245722D02*
X11098634Y-13350484D01*
X11098634Y-13245722D02*
X11108158Y-13226674D01*
X11108158Y-13226674D02*
X11127205Y-13217150D01*
X11127205Y-13217150D02*
X11155777Y-13217150D01*
X11155777Y-13217150D02*
X11174825Y-13226674D01*
X11174825Y-13226674D02*
X11184348Y-13245722D01*
X11184348Y-13245722D02*
X11184348Y-13350484D01*
X11279586Y-13350484D02*
X11279586Y-13217150D01*
X11279586Y-13236198D02*
X11289110Y-13226674D01*
X11289110Y-13226674D02*
X11308158Y-13217150D01*
X11308158Y-13217150D02*
X11336729Y-13217150D01*
X11336729Y-13217150D02*
X11355777Y-13226674D01*
X11355777Y-13226674D02*
X11365301Y-13245722D01*
X11365301Y-13245722D02*
X11365301Y-13350484D01*
X11365301Y-13245722D02*
X11374824Y-13226674D01*
X11374824Y-13226674D02*
X11393872Y-13217150D01*
X11393872Y-13217150D02*
X11422443Y-13217150D01*
X11422443Y-13217150D02*
X11441491Y-13226674D01*
X11441491Y-13226674D02*
X11451015Y-13245722D01*
X11451015Y-13245722D02*
X11451015Y-13350484D01*
X11841491Y-13140960D02*
X11670063Y-13398103D01*
X12098634Y-13150484D02*
X12117682Y-13150484D01*
X12117682Y-13150484D02*
X12136729Y-13160008D01*
X12136729Y-13160008D02*
X12146253Y-13169531D01*
X12146253Y-13169531D02*
X12155777Y-13188579D01*
X12155777Y-13188579D02*
X12165301Y-13226674D01*
X12165301Y-13226674D02*
X12165301Y-13274293D01*
X12165301Y-13274293D02*
X12155777Y-13312388D01*
X12155777Y-13312388D02*
X12146253Y-13331436D01*
X12146253Y-13331436D02*
X12136729Y-13340960D01*
X12136729Y-13340960D02*
X12117682Y-13350484D01*
X12117682Y-13350484D02*
X12098634Y-13350484D01*
X12098634Y-13350484D02*
X12079586Y-13340960D01*
X12079586Y-13340960D02*
X12070063Y-13331436D01*
X12070063Y-13331436D02*
X12060539Y-13312388D01*
X12060539Y-13312388D02*
X12051015Y-13274293D01*
X12051015Y-13274293D02*
X12051015Y-13226674D01*
X12051015Y-13226674D02*
X12060539Y-13188579D01*
X12060539Y-13188579D02*
X12070063Y-13169531D01*
X12070063Y-13169531D02*
X12079586Y-13160008D01*
X12079586Y-13160008D02*
X12098634Y-13150484D01*
X12251015Y-13331436D02*
X12260539Y-13340960D01*
X12260539Y-13340960D02*
X12251015Y-13350484D01*
X12251015Y-13350484D02*
X12241491Y-13340960D01*
X12241491Y-13340960D02*
X12251015Y-13331436D01*
X12251015Y-13331436D02*
X12251015Y-13350484D01*
X12384348Y-13150484D02*
X12403396Y-13150484D01*
X12403396Y-13150484D02*
X12422444Y-13160008D01*
X12422444Y-13160008D02*
X12431967Y-13169531D01*
X12431967Y-13169531D02*
X12441491Y-13188579D01*
X12441491Y-13188579D02*
X12451015Y-13226674D01*
X12451015Y-13226674D02*
X12451015Y-13274293D01*
X12451015Y-13274293D02*
X12441491Y-13312388D01*
X12441491Y-13312388D02*
X12431967Y-13331436D01*
X12431967Y-13331436D02*
X12422444Y-13340960D01*
X12422444Y-13340960D02*
X12403396Y-13350484D01*
X12403396Y-13350484D02*
X12384348Y-13350484D01*
X12384348Y-13350484D02*
X12365301Y-13340960D01*
X12365301Y-13340960D02*
X12355777Y-13331436D01*
X12355777Y-13331436D02*
X12346253Y-13312388D01*
X12346253Y-13312388D02*
X12336729Y-13274293D01*
X12336729Y-13274293D02*
X12336729Y-13226674D01*
X12336729Y-13226674D02*
X12346253Y-13188579D01*
X12346253Y-13188579D02*
X12355777Y-13169531D01*
X12355777Y-13169531D02*
X12365301Y-13160008D01*
X12365301Y-13160008D02*
X12384348Y-13150484D01*
X12517682Y-13150484D02*
X12641491Y-13150484D01*
X12641491Y-13150484D02*
X12574825Y-13226674D01*
X12574825Y-13226674D02*
X12603396Y-13226674D01*
X12603396Y-13226674D02*
X12622444Y-13236198D01*
X12622444Y-13236198D02*
X12631967Y-13245722D01*
X12631967Y-13245722D02*
X12641491Y-13264769D01*
X12641491Y-13264769D02*
X12641491Y-13312388D01*
X12641491Y-13312388D02*
X12631967Y-13331436D01*
X12631967Y-13331436D02*
X12622444Y-13340960D01*
X12622444Y-13340960D02*
X12603396Y-13350484D01*
X12603396Y-13350484D02*
X12546253Y-13350484D01*
X12546253Y-13350484D02*
X12527206Y-13340960D01*
X12527206Y-13340960D02*
X12517682Y-13331436D01*
X12831967Y-13350484D02*
X12717682Y-13350484D01*
X12774825Y-13350484D02*
X12774825Y-13150484D01*
X12774825Y-13150484D02*
X12755777Y-13179055D01*
X12755777Y-13179055D02*
X12736729Y-13198103D01*
X12736729Y-13198103D02*
X12717682Y-13207627D01*
X13012920Y-13150484D02*
X12917682Y-13150484D01*
X12917682Y-13150484D02*
X12908158Y-13245722D01*
X12908158Y-13245722D02*
X12917682Y-13236198D01*
X12917682Y-13236198D02*
X12936729Y-13226674D01*
X12936729Y-13226674D02*
X12984348Y-13226674D01*
X12984348Y-13226674D02*
X13003396Y-13236198D01*
X13003396Y-13236198D02*
X13012920Y-13245722D01*
X13012920Y-13245722D02*
X13022444Y-13264769D01*
X13022444Y-13264769D02*
X13022444Y-13312388D01*
X13022444Y-13312388D02*
X13012920Y-13331436D01*
X13012920Y-13331436D02*
X13003396Y-13340960D01*
X13003396Y-13340960D02*
X12984348Y-13350484D01*
X12984348Y-13350484D02*
X12936729Y-13350484D01*
X12936729Y-13350484D02*
X12917682Y-13340960D01*
X12917682Y-13340960D02*
X12908158Y-13331436D01*
X13098634Y-13150484D02*
X13098634Y-13188579D01*
X13174825Y-13150484D02*
X13174825Y-13188579D01*
X13470063Y-13426674D02*
X13460539Y-13417150D01*
X13460539Y-13417150D02*
X13441491Y-13388579D01*
X13441491Y-13388579D02*
X13431968Y-13369531D01*
X13431968Y-13369531D02*
X13422444Y-13340960D01*
X13422444Y-13340960D02*
X13412920Y-13293341D01*
X13412920Y-13293341D02*
X13412920Y-13255246D01*
X13412920Y-13255246D02*
X13422444Y-13207627D01*
X13422444Y-13207627D02*
X13431968Y-13179055D01*
X13431968Y-13179055D02*
X13441491Y-13160008D01*
X13441491Y-13160008D02*
X13460539Y-13131436D01*
X13460539Y-13131436D02*
X13470063Y-13121912D01*
X13555777Y-13350484D02*
X13593872Y-13350484D01*
X13593872Y-13350484D02*
X13612920Y-13340960D01*
X13612920Y-13340960D02*
X13622444Y-13331436D01*
X13622444Y-13331436D02*
X13641491Y-13302865D01*
X13641491Y-13302865D02*
X13651015Y-13264769D01*
X13651015Y-13264769D02*
X13651015Y-13188579D01*
X13651015Y-13188579D02*
X13641491Y-13169531D01*
X13641491Y-13169531D02*
X13631968Y-13160008D01*
X13631968Y-13160008D02*
X13612920Y-13150484D01*
X13612920Y-13150484D02*
X13574825Y-13150484D01*
X13574825Y-13150484D02*
X13555777Y-13160008D01*
X13555777Y-13160008D02*
X13546253Y-13169531D01*
X13546253Y-13169531D02*
X13536729Y-13188579D01*
X13536729Y-13188579D02*
X13536729Y-13236198D01*
X13536729Y-13236198D02*
X13546253Y-13255246D01*
X13546253Y-13255246D02*
X13555777Y-13264769D01*
X13555777Y-13264769D02*
X13574825Y-13274293D01*
X13574825Y-13274293D02*
X13612920Y-13274293D01*
X13612920Y-13274293D02*
X13631968Y-13264769D01*
X13631968Y-13264769D02*
X13641491Y-13255246D01*
X13641491Y-13255246D02*
X13651015Y-13236198D01*
X13889110Y-13350484D02*
X13889110Y-13150484D01*
X13974825Y-13350484D02*
X13974825Y-13245722D01*
X13974825Y-13245722D02*
X13965301Y-13226674D01*
X13965301Y-13226674D02*
X13946253Y-13217150D01*
X13946253Y-13217150D02*
X13917682Y-13217150D01*
X13917682Y-13217150D02*
X13898634Y-13226674D01*
X13898634Y-13226674D02*
X13889110Y-13236198D01*
X14098634Y-13350484D02*
X14079587Y-13340960D01*
X14079587Y-13340960D02*
X14070063Y-13331436D01*
X14070063Y-13331436D02*
X14060539Y-13312388D01*
X14060539Y-13312388D02*
X14060539Y-13255246D01*
X14060539Y-13255246D02*
X14070063Y-13236198D01*
X14070063Y-13236198D02*
X14079587Y-13226674D01*
X14079587Y-13226674D02*
X14098634Y-13217150D01*
X14098634Y-13217150D02*
X14127206Y-13217150D01*
X14127206Y-13217150D02*
X14146253Y-13226674D01*
X14146253Y-13226674D02*
X14155777Y-13236198D01*
X14155777Y-13236198D02*
X14165301Y-13255246D01*
X14165301Y-13255246D02*
X14165301Y-13312388D01*
X14165301Y-13312388D02*
X14155777Y-13331436D01*
X14155777Y-13331436D02*
X14146253Y-13340960D01*
X14146253Y-13340960D02*
X14127206Y-13350484D01*
X14127206Y-13350484D02*
X14098634Y-13350484D01*
X14279587Y-13350484D02*
X14260539Y-13340960D01*
X14260539Y-13340960D02*
X14251015Y-13321912D01*
X14251015Y-13321912D02*
X14251015Y-13150484D01*
X14431968Y-13340960D02*
X14412920Y-13350484D01*
X14412920Y-13350484D02*
X14374825Y-13350484D01*
X14374825Y-13350484D02*
X14355777Y-13340960D01*
X14355777Y-13340960D02*
X14346253Y-13321912D01*
X14346253Y-13321912D02*
X14346253Y-13245722D01*
X14346253Y-13245722D02*
X14355777Y-13226674D01*
X14355777Y-13226674D02*
X14374825Y-13217150D01*
X14374825Y-13217150D02*
X14412920Y-13217150D01*
X14412920Y-13217150D02*
X14431968Y-13226674D01*
X14431968Y-13226674D02*
X14441491Y-13245722D01*
X14441491Y-13245722D02*
X14441491Y-13264769D01*
X14441491Y-13264769D02*
X14346253Y-13283817D01*
X14517682Y-13340960D02*
X14536730Y-13350484D01*
X14536730Y-13350484D02*
X14574825Y-13350484D01*
X14574825Y-13350484D02*
X14593872Y-13340960D01*
X14593872Y-13340960D02*
X14603396Y-13321912D01*
X14603396Y-13321912D02*
X14603396Y-13312388D01*
X14603396Y-13312388D02*
X14593872Y-13293341D01*
X14593872Y-13293341D02*
X14574825Y-13283817D01*
X14574825Y-13283817D02*
X14546253Y-13283817D01*
X14546253Y-13283817D02*
X14527206Y-13274293D01*
X14527206Y-13274293D02*
X14517682Y-13255246D01*
X14517682Y-13255246D02*
X14517682Y-13245722D01*
X14517682Y-13245722D02*
X14527206Y-13226674D01*
X14527206Y-13226674D02*
X14546253Y-13217150D01*
X14546253Y-13217150D02*
X14574825Y-13217150D01*
X14574825Y-13217150D02*
X14593872Y-13226674D01*
X14670063Y-13426674D02*
X14679587Y-13417150D01*
X14679587Y-13417150D02*
X14698634Y-13388579D01*
X14698634Y-13388579D02*
X14708158Y-13369531D01*
X14708158Y-13369531D02*
X14717682Y-13340960D01*
X14717682Y-13340960D02*
X14727206Y-13293341D01*
X14727206Y-13293341D02*
X14727206Y-13255246D01*
X14727206Y-13255246D02*
X14717682Y-13207627D01*
X14717682Y-13207627D02*
X14708158Y-13179055D01*
X14708158Y-13179055D02*
X14698634Y-13160008D01*
X14698634Y-13160008D02*
X14679587Y-13131436D01*
X14679587Y-13131436D02*
X14670063Y-13121912D01*
D10*
X9845000Y-13473000D02*
X9845000Y-13573000D01*
X9795000Y-13523000D02*
X9895000Y-13523000D01*
D11*
X10260539Y-13614484D02*
X10146253Y-13614484D01*
X10203396Y-13614484D02*
X10203396Y-13414484D01*
X10203396Y-13414484D02*
X10184348Y-13443055D01*
X10184348Y-13443055D02*
X10165301Y-13462103D01*
X10165301Y-13462103D02*
X10146253Y-13471627D01*
X10346253Y-13595436D02*
X10355777Y-13604960D01*
X10355777Y-13604960D02*
X10346253Y-13614484D01*
X10346253Y-13614484D02*
X10336729Y-13604960D01*
X10336729Y-13604960D02*
X10346253Y-13595436D01*
X10346253Y-13595436D02*
X10346253Y-13614484D01*
X10479586Y-13414484D02*
X10498634Y-13414484D01*
X10498634Y-13414484D02*
X10517682Y-13424008D01*
X10517682Y-13424008D02*
X10527205Y-13433531D01*
X10527205Y-13433531D02*
X10536729Y-13452579D01*
X10536729Y-13452579D02*
X10546253Y-13490674D01*
X10546253Y-13490674D02*
X10546253Y-13538293D01*
X10546253Y-13538293D02*
X10536729Y-13576388D01*
X10536729Y-13576388D02*
X10527205Y-13595436D01*
X10527205Y-13595436D02*
X10517682Y-13604960D01*
X10517682Y-13604960D02*
X10498634Y-13614484D01*
X10498634Y-13614484D02*
X10479586Y-13614484D01*
X10479586Y-13614484D02*
X10460539Y-13604960D01*
X10460539Y-13604960D02*
X10451015Y-13595436D01*
X10451015Y-13595436D02*
X10441491Y-13576388D01*
X10441491Y-13576388D02*
X10431967Y-13538293D01*
X10431967Y-13538293D02*
X10431967Y-13490674D01*
X10431967Y-13490674D02*
X10441491Y-13452579D01*
X10441491Y-13452579D02*
X10451015Y-13433531D01*
X10451015Y-13433531D02*
X10460539Y-13424008D01*
X10460539Y-13424008D02*
X10479586Y-13414484D01*
X10670063Y-13414484D02*
X10689110Y-13414484D01*
X10689110Y-13414484D02*
X10708158Y-13424008D01*
X10708158Y-13424008D02*
X10717682Y-13433531D01*
X10717682Y-13433531D02*
X10727205Y-13452579D01*
X10727205Y-13452579D02*
X10736729Y-13490674D01*
X10736729Y-13490674D02*
X10736729Y-13538293D01*
X10736729Y-13538293D02*
X10727205Y-13576388D01*
X10727205Y-13576388D02*
X10717682Y-13595436D01*
X10717682Y-13595436D02*
X10708158Y-13604960D01*
X10708158Y-13604960D02*
X10689110Y-13614484D01*
X10689110Y-13614484D02*
X10670063Y-13614484D01*
X10670063Y-13614484D02*
X10651015Y-13604960D01*
X10651015Y-13604960D02*
X10641491Y-13595436D01*
X10641491Y-13595436D02*
X10631967Y-13576388D01*
X10631967Y-13576388D02*
X10622444Y-13538293D01*
X10622444Y-13538293D02*
X10622444Y-13490674D01*
X10622444Y-13490674D02*
X10631967Y-13452579D01*
X10631967Y-13452579D02*
X10641491Y-13433531D01*
X10641491Y-13433531D02*
X10651015Y-13424008D01*
X10651015Y-13424008D02*
X10670063Y-13414484D01*
X10860539Y-13414484D02*
X10879586Y-13414484D01*
X10879586Y-13414484D02*
X10898634Y-13424008D01*
X10898634Y-13424008D02*
X10908158Y-13433531D01*
X10908158Y-13433531D02*
X10917682Y-13452579D01*
X10917682Y-13452579D02*
X10927205Y-13490674D01*
X10927205Y-13490674D02*
X10927205Y-13538293D01*
X10927205Y-13538293D02*
X10917682Y-13576388D01*
X10917682Y-13576388D02*
X10908158Y-13595436D01*
X10908158Y-13595436D02*
X10898634Y-13604960D01*
X10898634Y-13604960D02*
X10879586Y-13614484D01*
X10879586Y-13614484D02*
X10860539Y-13614484D01*
X10860539Y-13614484D02*
X10841491Y-13604960D01*
X10841491Y-13604960D02*
X10831967Y-13595436D01*
X10831967Y-13595436D02*
X10822444Y-13576388D01*
X10822444Y-13576388D02*
X10812920Y-13538293D01*
X10812920Y-13538293D02*
X10812920Y-13490674D01*
X10812920Y-13490674D02*
X10822444Y-13452579D01*
X10822444Y-13452579D02*
X10831967Y-13433531D01*
X10831967Y-13433531D02*
X10841491Y-13424008D01*
X10841491Y-13424008D02*
X10860539Y-13414484D01*
X11012920Y-13614484D02*
X11012920Y-13481150D01*
X11012920Y-13500198D02*
X11022444Y-13490674D01*
X11022444Y-13490674D02*
X11041491Y-13481150D01*
X11041491Y-13481150D02*
X11070063Y-13481150D01*
X11070063Y-13481150D02*
X11089110Y-13490674D01*
X11089110Y-13490674D02*
X11098634Y-13509722D01*
X11098634Y-13509722D02*
X11098634Y-13614484D01*
X11098634Y-13509722D02*
X11108158Y-13490674D01*
X11108158Y-13490674D02*
X11127205Y-13481150D01*
X11127205Y-13481150D02*
X11155777Y-13481150D01*
X11155777Y-13481150D02*
X11174825Y-13490674D01*
X11174825Y-13490674D02*
X11184348Y-13509722D01*
X11184348Y-13509722D02*
X11184348Y-13614484D01*
X11279586Y-13614484D02*
X11279586Y-13481150D01*
X11279586Y-13500198D02*
X11289110Y-13490674D01*
X11289110Y-13490674D02*
X11308158Y-13481150D01*
X11308158Y-13481150D02*
X11336729Y-13481150D01*
X11336729Y-13481150D02*
X11355777Y-13490674D01*
X11355777Y-13490674D02*
X11365301Y-13509722D01*
X11365301Y-13509722D02*
X11365301Y-13614484D01*
X11365301Y-13509722D02*
X11374824Y-13490674D01*
X11374824Y-13490674D02*
X11393872Y-13481150D01*
X11393872Y-13481150D02*
X11422443Y-13481150D01*
X11422443Y-13481150D02*
X11441491Y-13490674D01*
X11441491Y-13490674D02*
X11451015Y-13509722D01*
X11451015Y-13509722D02*
X11451015Y-13614484D01*
X11841491Y-13404960D02*
X11670063Y-13662103D01*
X12098634Y-13414484D02*
X12117682Y-13414484D01*
X12117682Y-13414484D02*
X12136729Y-13424008D01*
X12136729Y-13424008D02*
X12146253Y-13433531D01*
X12146253Y-13433531D02*
X12155777Y-13452579D01*
X12155777Y-13452579D02*
X12165301Y-13490674D01*
X12165301Y-13490674D02*
X12165301Y-13538293D01*
X12165301Y-13538293D02*
X12155777Y-13576388D01*
X12155777Y-13576388D02*
X12146253Y-13595436D01*
X12146253Y-13595436D02*
X12136729Y-13604960D01*
X12136729Y-13604960D02*
X12117682Y-13614484D01*
X12117682Y-13614484D02*
X12098634Y-13614484D01*
X12098634Y-13614484D02*
X12079586Y-13604960D01*
X12079586Y-13604960D02*
X12070063Y-13595436D01*
X12070063Y-13595436D02*
X12060539Y-13576388D01*
X12060539Y-13576388D02*
X12051015Y-13538293D01*
X12051015Y-13538293D02*
X12051015Y-13490674D01*
X12051015Y-13490674D02*
X12060539Y-13452579D01*
X12060539Y-13452579D02*
X12070063Y-13433531D01*
X12070063Y-13433531D02*
X12079586Y-13424008D01*
X12079586Y-13424008D02*
X12098634Y-13414484D01*
X12251015Y-13595436D02*
X12260539Y-13604960D01*
X12260539Y-13604960D02*
X12251015Y-13614484D01*
X12251015Y-13614484D02*
X12241491Y-13604960D01*
X12241491Y-13604960D02*
X12251015Y-13595436D01*
X12251015Y-13595436D02*
X12251015Y-13614484D01*
X12384348Y-13414484D02*
X12403396Y-13414484D01*
X12403396Y-13414484D02*
X12422444Y-13424008D01*
X12422444Y-13424008D02*
X12431967Y-13433531D01*
X12431967Y-13433531D02*
X12441491Y-13452579D01*
X12441491Y-13452579D02*
X12451015Y-13490674D01*
X12451015Y-13490674D02*
X12451015Y-13538293D01*
X12451015Y-13538293D02*
X12441491Y-13576388D01*
X12441491Y-13576388D02*
X12431967Y-13595436D01*
X12431967Y-13595436D02*
X12422444Y-13604960D01*
X12422444Y-13604960D02*
X12403396Y-13614484D01*
X12403396Y-13614484D02*
X12384348Y-13614484D01*
X12384348Y-13614484D02*
X12365301Y-13604960D01*
X12365301Y-13604960D02*
X12355777Y-13595436D01*
X12355777Y-13595436D02*
X12346253Y-13576388D01*
X12346253Y-13576388D02*
X12336729Y-13538293D01*
X12336729Y-13538293D02*
X12336729Y-13490674D01*
X12336729Y-13490674D02*
X12346253Y-13452579D01*
X12346253Y-13452579D02*
X12355777Y-13433531D01*
X12355777Y-13433531D02*
X12365301Y-13424008D01*
X12365301Y-13424008D02*
X12384348Y-13414484D01*
X12517682Y-13414484D02*
X12641491Y-13414484D01*
X12641491Y-13414484D02*
X12574825Y-13490674D01*
X12574825Y-13490674D02*
X12603396Y-13490674D01*
X12603396Y-13490674D02*
X12622444Y-13500198D01*
X12622444Y-13500198D02*
X12631967Y-13509722D01*
X12631967Y-13509722D02*
X12641491Y-13528769D01*
X12641491Y-13528769D02*
X12641491Y-13576388D01*
X12641491Y-13576388D02*
X12631967Y-13595436D01*
X12631967Y-13595436D02*
X12622444Y-13604960D01*
X12622444Y-13604960D02*
X12603396Y-13614484D01*
X12603396Y-13614484D02*
X12546253Y-13614484D01*
X12546253Y-13614484D02*
X12527206Y-13604960D01*
X12527206Y-13604960D02*
X12517682Y-13595436D01*
X12736729Y-13614484D02*
X12774825Y-13614484D01*
X12774825Y-13614484D02*
X12793872Y-13604960D01*
X12793872Y-13604960D02*
X12803396Y-13595436D01*
X12803396Y-13595436D02*
X12822444Y-13566865D01*
X12822444Y-13566865D02*
X12831967Y-13528769D01*
X12831967Y-13528769D02*
X12831967Y-13452579D01*
X12831967Y-13452579D02*
X12822444Y-13433531D01*
X12822444Y-13433531D02*
X12812920Y-13424008D01*
X12812920Y-13424008D02*
X12793872Y-13414484D01*
X12793872Y-13414484D02*
X12755777Y-13414484D01*
X12755777Y-13414484D02*
X12736729Y-13424008D01*
X12736729Y-13424008D02*
X12727206Y-13433531D01*
X12727206Y-13433531D02*
X12717682Y-13452579D01*
X12717682Y-13452579D02*
X12717682Y-13500198D01*
X12717682Y-13500198D02*
X12727206Y-13519246D01*
X12727206Y-13519246D02*
X12736729Y-13528769D01*
X12736729Y-13528769D02*
X12755777Y-13538293D01*
X12755777Y-13538293D02*
X12793872Y-13538293D01*
X12793872Y-13538293D02*
X12812920Y-13528769D01*
X12812920Y-13528769D02*
X12822444Y-13519246D01*
X12822444Y-13519246D02*
X12831967Y-13500198D01*
X13003396Y-13481150D02*
X13003396Y-13614484D01*
X12955777Y-13404960D02*
X12908158Y-13547817D01*
X12908158Y-13547817D02*
X13031967Y-13547817D01*
X13098634Y-13414484D02*
X13098634Y-13452579D01*
X13174825Y-13414484D02*
X13174825Y-13452579D01*
X13470063Y-13690674D02*
X13460539Y-13681150D01*
X13460539Y-13681150D02*
X13441491Y-13652579D01*
X13441491Y-13652579D02*
X13431968Y-13633531D01*
X13431968Y-13633531D02*
X13422444Y-13604960D01*
X13422444Y-13604960D02*
X13412920Y-13557341D01*
X13412920Y-13557341D02*
X13412920Y-13519246D01*
X13412920Y-13519246D02*
X13422444Y-13471627D01*
X13422444Y-13471627D02*
X13431968Y-13443055D01*
X13431968Y-13443055D02*
X13441491Y-13424008D01*
X13441491Y-13424008D02*
X13460539Y-13395436D01*
X13460539Y-13395436D02*
X13470063Y-13385912D01*
X13555777Y-13614484D02*
X13593872Y-13614484D01*
X13593872Y-13614484D02*
X13612920Y-13604960D01*
X13612920Y-13604960D02*
X13622444Y-13595436D01*
X13622444Y-13595436D02*
X13641491Y-13566865D01*
X13641491Y-13566865D02*
X13651015Y-13528769D01*
X13651015Y-13528769D02*
X13651015Y-13452579D01*
X13651015Y-13452579D02*
X13641491Y-13433531D01*
X13641491Y-13433531D02*
X13631968Y-13424008D01*
X13631968Y-13424008D02*
X13612920Y-13414484D01*
X13612920Y-13414484D02*
X13574825Y-13414484D01*
X13574825Y-13414484D02*
X13555777Y-13424008D01*
X13555777Y-13424008D02*
X13546253Y-13433531D01*
X13546253Y-13433531D02*
X13536729Y-13452579D01*
X13536729Y-13452579D02*
X13536729Y-13500198D01*
X13536729Y-13500198D02*
X13546253Y-13519246D01*
X13546253Y-13519246D02*
X13555777Y-13528769D01*
X13555777Y-13528769D02*
X13574825Y-13538293D01*
X13574825Y-13538293D02*
X13612920Y-13538293D01*
X13612920Y-13538293D02*
X13631968Y-13528769D01*
X13631968Y-13528769D02*
X13641491Y-13519246D01*
X13641491Y-13519246D02*
X13651015Y-13500198D01*
X13889110Y-13614484D02*
X13889110Y-13414484D01*
X13974825Y-13614484D02*
X13974825Y-13509722D01*
X13974825Y-13509722D02*
X13965301Y-13490674D01*
X13965301Y-13490674D02*
X13946253Y-13481150D01*
X13946253Y-13481150D02*
X13917682Y-13481150D01*
X13917682Y-13481150D02*
X13898634Y-13490674D01*
X13898634Y-13490674D02*
X13889110Y-13500198D01*
X14098634Y-13614484D02*
X14079587Y-13604960D01*
X14079587Y-13604960D02*
X14070063Y-13595436D01*
X14070063Y-13595436D02*
X14060539Y-13576388D01*
X14060539Y-13576388D02*
X14060539Y-13519246D01*
X14060539Y-13519246D02*
X14070063Y-13500198D01*
X14070063Y-13500198D02*
X14079587Y-13490674D01*
X14079587Y-13490674D02*
X14098634Y-13481150D01*
X14098634Y-13481150D02*
X14127206Y-13481150D01*
X14127206Y-13481150D02*
X14146253Y-13490674D01*
X14146253Y-13490674D02*
X14155777Y-13500198D01*
X14155777Y-13500198D02*
X14165301Y-13519246D01*
X14165301Y-13519246D02*
X14165301Y-13576388D01*
X14165301Y-13576388D02*
X14155777Y-13595436D01*
X14155777Y-13595436D02*
X14146253Y-13604960D01*
X14146253Y-13604960D02*
X14127206Y-13614484D01*
X14127206Y-13614484D02*
X14098634Y-13614484D01*
X14279587Y-13614484D02*
X14260539Y-13604960D01*
X14260539Y-13604960D02*
X14251015Y-13585912D01*
X14251015Y-13585912D02*
X14251015Y-13414484D01*
X14431968Y-13604960D02*
X14412920Y-13614484D01*
X14412920Y-13614484D02*
X14374825Y-13614484D01*
X14374825Y-13614484D02*
X14355777Y-13604960D01*
X14355777Y-13604960D02*
X14346253Y-13585912D01*
X14346253Y-13585912D02*
X14346253Y-13509722D01*
X14346253Y-13509722D02*
X14355777Y-13490674D01*
X14355777Y-13490674D02*
X14374825Y-13481150D01*
X14374825Y-13481150D02*
X14412920Y-13481150D01*
X14412920Y-13481150D02*
X14431968Y-13490674D01*
X14431968Y-13490674D02*
X14441491Y-13509722D01*
X14441491Y-13509722D02*
X14441491Y-13528769D01*
X14441491Y-13528769D02*
X14346253Y-13547817D01*
X14517682Y-13604960D02*
X14536730Y-13614484D01*
X14536730Y-13614484D02*
X14574825Y-13614484D01*
X14574825Y-13614484D02*
X14593872Y-13604960D01*
X14593872Y-13604960D02*
X14603396Y-13585912D01*
X14603396Y-13585912D02*
X14603396Y-13576388D01*
X14603396Y-13576388D02*
X14593872Y-13557341D01*
X14593872Y-13557341D02*
X14574825Y-13547817D01*
X14574825Y-13547817D02*
X14546253Y-13547817D01*
X14546253Y-13547817D02*
X14527206Y-13538293D01*
X14527206Y-13538293D02*
X14517682Y-13519246D01*
X14517682Y-13519246D02*
X14517682Y-13509722D01*
X14517682Y-13509722D02*
X14527206Y-13490674D01*
X14527206Y-13490674D02*
X14546253Y-13481150D01*
X14546253Y-13481150D02*
X14574825Y-13481150D01*
X14574825Y-13481150D02*
X14593872Y-13490674D01*
X14670063Y-13690674D02*
X14679587Y-13681150D01*
X14679587Y-13681150D02*
X14698634Y-13652579D01*
X14698634Y-13652579D02*
X14708158Y-13633531D01*
X14708158Y-13633531D02*
X14717682Y-13604960D01*
X14717682Y-13604960D02*
X14727206Y-13557341D01*
X14727206Y-13557341D02*
X14727206Y-13519246D01*
X14727206Y-13519246D02*
X14717682Y-13471627D01*
X14717682Y-13471627D02*
X14708158Y-13443055D01*
X14708158Y-13443055D02*
X14698634Y-13424008D01*
X14698634Y-13424008D02*
X14679587Y-13395436D01*
X14679587Y-13395436D02*
X14670063Y-13385912D01*
D12*
X9878891Y-13825891D02*
X9878891Y-13748109D01*
X9801109Y-13748109D01*
X9801109Y-13825891D01*
X9878891Y-13825891D01*
D11*
X10260539Y-13878484D02*
X10146253Y-13878484D01*
X10203396Y-13878484D02*
X10203396Y-13678484D01*
X10203396Y-13678484D02*
X10184348Y-13707055D01*
X10184348Y-13707055D02*
X10165301Y-13726103D01*
X10165301Y-13726103D02*
X10146253Y-13735627D01*
X10346253Y-13859436D02*
X10355777Y-13868960D01*
X10355777Y-13868960D02*
X10346253Y-13878484D01*
X10346253Y-13878484D02*
X10336729Y-13868960D01*
X10336729Y-13868960D02*
X10346253Y-13859436D01*
X10346253Y-13859436D02*
X10346253Y-13878484D01*
X10546253Y-13878484D02*
X10431967Y-13878484D01*
X10489110Y-13878484D02*
X10489110Y-13678484D01*
X10489110Y-13678484D02*
X10470063Y-13707055D01*
X10470063Y-13707055D02*
X10451015Y-13726103D01*
X10451015Y-13726103D02*
X10431967Y-13735627D01*
X10670063Y-13678484D02*
X10689110Y-13678484D01*
X10689110Y-13678484D02*
X10708158Y-13688008D01*
X10708158Y-13688008D02*
X10717682Y-13697531D01*
X10717682Y-13697531D02*
X10727205Y-13716579D01*
X10727205Y-13716579D02*
X10736729Y-13754674D01*
X10736729Y-13754674D02*
X10736729Y-13802293D01*
X10736729Y-13802293D02*
X10727205Y-13840388D01*
X10727205Y-13840388D02*
X10717682Y-13859436D01*
X10717682Y-13859436D02*
X10708158Y-13868960D01*
X10708158Y-13868960D02*
X10689110Y-13878484D01*
X10689110Y-13878484D02*
X10670063Y-13878484D01*
X10670063Y-13878484D02*
X10651015Y-13868960D01*
X10651015Y-13868960D02*
X10641491Y-13859436D01*
X10641491Y-13859436D02*
X10631967Y-13840388D01*
X10631967Y-13840388D02*
X10622444Y-13802293D01*
X10622444Y-13802293D02*
X10622444Y-13754674D01*
X10622444Y-13754674D02*
X10631967Y-13716579D01*
X10631967Y-13716579D02*
X10641491Y-13697531D01*
X10641491Y-13697531D02*
X10651015Y-13688008D01*
X10651015Y-13688008D02*
X10670063Y-13678484D01*
X10860539Y-13678484D02*
X10879586Y-13678484D01*
X10879586Y-13678484D02*
X10898634Y-13688008D01*
X10898634Y-13688008D02*
X10908158Y-13697531D01*
X10908158Y-13697531D02*
X10917682Y-13716579D01*
X10917682Y-13716579D02*
X10927205Y-13754674D01*
X10927205Y-13754674D02*
X10927205Y-13802293D01*
X10927205Y-13802293D02*
X10917682Y-13840388D01*
X10917682Y-13840388D02*
X10908158Y-13859436D01*
X10908158Y-13859436D02*
X10898634Y-13868960D01*
X10898634Y-13868960D02*
X10879586Y-13878484D01*
X10879586Y-13878484D02*
X10860539Y-13878484D01*
X10860539Y-13878484D02*
X10841491Y-13868960D01*
X10841491Y-13868960D02*
X10831967Y-13859436D01*
X10831967Y-13859436D02*
X10822444Y-13840388D01*
X10822444Y-13840388D02*
X10812920Y-13802293D01*
X10812920Y-13802293D02*
X10812920Y-13754674D01*
X10812920Y-13754674D02*
X10822444Y-13716579D01*
X10822444Y-13716579D02*
X10831967Y-13697531D01*
X10831967Y-13697531D02*
X10841491Y-13688008D01*
X10841491Y-13688008D02*
X10860539Y-13678484D01*
X11012920Y-13878484D02*
X11012920Y-13745150D01*
X11012920Y-13764198D02*
X11022444Y-13754674D01*
X11022444Y-13754674D02*
X11041491Y-13745150D01*
X11041491Y-13745150D02*
X11070063Y-13745150D01*
X11070063Y-13745150D02*
X11089110Y-13754674D01*
X11089110Y-13754674D02*
X11098634Y-13773722D01*
X11098634Y-13773722D02*
X11098634Y-13878484D01*
X11098634Y-13773722D02*
X11108158Y-13754674D01*
X11108158Y-13754674D02*
X11127205Y-13745150D01*
X11127205Y-13745150D02*
X11155777Y-13745150D01*
X11155777Y-13745150D02*
X11174825Y-13754674D01*
X11174825Y-13754674D02*
X11184348Y-13773722D01*
X11184348Y-13773722D02*
X11184348Y-13878484D01*
X11279586Y-13878484D02*
X11279586Y-13745150D01*
X11279586Y-13764198D02*
X11289110Y-13754674D01*
X11289110Y-13754674D02*
X11308158Y-13745150D01*
X11308158Y-13745150D02*
X11336729Y-13745150D01*
X11336729Y-13745150D02*
X11355777Y-13754674D01*
X11355777Y-13754674D02*
X11365301Y-13773722D01*
X11365301Y-13773722D02*
X11365301Y-13878484D01*
X11365301Y-13773722D02*
X11374824Y-13754674D01*
X11374824Y-13754674D02*
X11393872Y-13745150D01*
X11393872Y-13745150D02*
X11422443Y-13745150D01*
X11422443Y-13745150D02*
X11441491Y-13754674D01*
X11441491Y-13754674D02*
X11451015Y-13773722D01*
X11451015Y-13773722D02*
X11451015Y-13878484D01*
X11841491Y-13668960D02*
X11670063Y-13926103D01*
X12098634Y-13678484D02*
X12117682Y-13678484D01*
X12117682Y-13678484D02*
X12136729Y-13688008D01*
X12136729Y-13688008D02*
X12146253Y-13697531D01*
X12146253Y-13697531D02*
X12155777Y-13716579D01*
X12155777Y-13716579D02*
X12165301Y-13754674D01*
X12165301Y-13754674D02*
X12165301Y-13802293D01*
X12165301Y-13802293D02*
X12155777Y-13840388D01*
X12155777Y-13840388D02*
X12146253Y-13859436D01*
X12146253Y-13859436D02*
X12136729Y-13868960D01*
X12136729Y-13868960D02*
X12117682Y-13878484D01*
X12117682Y-13878484D02*
X12098634Y-13878484D01*
X12098634Y-13878484D02*
X12079586Y-13868960D01*
X12079586Y-13868960D02*
X12070063Y-13859436D01*
X12070063Y-13859436D02*
X12060539Y-13840388D01*
X12060539Y-13840388D02*
X12051015Y-13802293D01*
X12051015Y-13802293D02*
X12051015Y-13754674D01*
X12051015Y-13754674D02*
X12060539Y-13716579D01*
X12060539Y-13716579D02*
X12070063Y-13697531D01*
X12070063Y-13697531D02*
X12079586Y-13688008D01*
X12079586Y-13688008D02*
X12098634Y-13678484D01*
X12251015Y-13859436D02*
X12260539Y-13868960D01*
X12260539Y-13868960D02*
X12251015Y-13878484D01*
X12251015Y-13878484D02*
X12241491Y-13868960D01*
X12241491Y-13868960D02*
X12251015Y-13859436D01*
X12251015Y-13859436D02*
X12251015Y-13878484D01*
X12384348Y-13678484D02*
X12403396Y-13678484D01*
X12403396Y-13678484D02*
X12422444Y-13688008D01*
X12422444Y-13688008D02*
X12431967Y-13697531D01*
X12431967Y-13697531D02*
X12441491Y-13716579D01*
X12441491Y-13716579D02*
X12451015Y-13754674D01*
X12451015Y-13754674D02*
X12451015Y-13802293D01*
X12451015Y-13802293D02*
X12441491Y-13840388D01*
X12441491Y-13840388D02*
X12431967Y-13859436D01*
X12431967Y-13859436D02*
X12422444Y-13868960D01*
X12422444Y-13868960D02*
X12403396Y-13878484D01*
X12403396Y-13878484D02*
X12384348Y-13878484D01*
X12384348Y-13878484D02*
X12365301Y-13868960D01*
X12365301Y-13868960D02*
X12355777Y-13859436D01*
X12355777Y-13859436D02*
X12346253Y-13840388D01*
X12346253Y-13840388D02*
X12336729Y-13802293D01*
X12336729Y-13802293D02*
X12336729Y-13754674D01*
X12336729Y-13754674D02*
X12346253Y-13716579D01*
X12346253Y-13716579D02*
X12355777Y-13697531D01*
X12355777Y-13697531D02*
X12365301Y-13688008D01*
X12365301Y-13688008D02*
X12384348Y-13678484D01*
X12622444Y-13745150D02*
X12622444Y-13878484D01*
X12574825Y-13668960D02*
X12527206Y-13811817D01*
X12527206Y-13811817D02*
X12651015Y-13811817D01*
X12708158Y-13678484D02*
X12831967Y-13678484D01*
X12831967Y-13678484D02*
X12765301Y-13754674D01*
X12765301Y-13754674D02*
X12793872Y-13754674D01*
X12793872Y-13754674D02*
X12812920Y-13764198D01*
X12812920Y-13764198D02*
X12822444Y-13773722D01*
X12822444Y-13773722D02*
X12831967Y-13792769D01*
X12831967Y-13792769D02*
X12831967Y-13840388D01*
X12831967Y-13840388D02*
X12822444Y-13859436D01*
X12822444Y-13859436D02*
X12812920Y-13868960D01*
X12812920Y-13868960D02*
X12793872Y-13878484D01*
X12793872Y-13878484D02*
X12736729Y-13878484D01*
X12736729Y-13878484D02*
X12717682Y-13868960D01*
X12717682Y-13868960D02*
X12708158Y-13859436D01*
X12898634Y-13678484D02*
X13022444Y-13678484D01*
X13022444Y-13678484D02*
X12955777Y-13754674D01*
X12955777Y-13754674D02*
X12984348Y-13754674D01*
X12984348Y-13754674D02*
X13003396Y-13764198D01*
X13003396Y-13764198D02*
X13012920Y-13773722D01*
X13012920Y-13773722D02*
X13022444Y-13792769D01*
X13022444Y-13792769D02*
X13022444Y-13840388D01*
X13022444Y-13840388D02*
X13012920Y-13859436D01*
X13012920Y-13859436D02*
X13003396Y-13868960D01*
X13003396Y-13868960D02*
X12984348Y-13878484D01*
X12984348Y-13878484D02*
X12927206Y-13878484D01*
X12927206Y-13878484D02*
X12908158Y-13868960D01*
X12908158Y-13868960D02*
X12898634Y-13859436D01*
X13098634Y-13678484D02*
X13098634Y-13716579D01*
X13174825Y-13678484D02*
X13174825Y-13716579D01*
X13470063Y-13954674D02*
X13460539Y-13945150D01*
X13460539Y-13945150D02*
X13441491Y-13916579D01*
X13441491Y-13916579D02*
X13431968Y-13897531D01*
X13431968Y-13897531D02*
X13422444Y-13868960D01*
X13422444Y-13868960D02*
X13412920Y-13821341D01*
X13412920Y-13821341D02*
X13412920Y-13783246D01*
X13412920Y-13783246D02*
X13422444Y-13735627D01*
X13422444Y-13735627D02*
X13431968Y-13707055D01*
X13431968Y-13707055D02*
X13441491Y-13688008D01*
X13441491Y-13688008D02*
X13460539Y-13659436D01*
X13460539Y-13659436D02*
X13470063Y-13649912D01*
X13631968Y-13678484D02*
X13593872Y-13678484D01*
X13593872Y-13678484D02*
X13574825Y-13688008D01*
X13574825Y-13688008D02*
X13565301Y-13697531D01*
X13565301Y-13697531D02*
X13546253Y-13726103D01*
X13546253Y-13726103D02*
X13536729Y-13764198D01*
X13536729Y-13764198D02*
X13536729Y-13840388D01*
X13536729Y-13840388D02*
X13546253Y-13859436D01*
X13546253Y-13859436D02*
X13555777Y-13868960D01*
X13555777Y-13868960D02*
X13574825Y-13878484D01*
X13574825Y-13878484D02*
X13612920Y-13878484D01*
X13612920Y-13878484D02*
X13631968Y-13868960D01*
X13631968Y-13868960D02*
X13641491Y-13859436D01*
X13641491Y-13859436D02*
X13651015Y-13840388D01*
X13651015Y-13840388D02*
X13651015Y-13792769D01*
X13651015Y-13792769D02*
X13641491Y-13773722D01*
X13641491Y-13773722D02*
X13631968Y-13764198D01*
X13631968Y-13764198D02*
X13612920Y-13754674D01*
X13612920Y-13754674D02*
X13574825Y-13754674D01*
X13574825Y-13754674D02*
X13555777Y-13764198D01*
X13555777Y-13764198D02*
X13546253Y-13773722D01*
X13546253Y-13773722D02*
X13536729Y-13792769D01*
X13889110Y-13878484D02*
X13889110Y-13678484D01*
X13974825Y-13878484D02*
X13974825Y-13773722D01*
X13974825Y-13773722D02*
X13965301Y-13754674D01*
X13965301Y-13754674D02*
X13946253Y-13745150D01*
X13946253Y-13745150D02*
X13917682Y-13745150D01*
X13917682Y-13745150D02*
X13898634Y-13754674D01*
X13898634Y-13754674D02*
X13889110Y-13764198D01*
X14098634Y-13878484D02*
X14079587Y-13868960D01*
X14079587Y-13868960D02*
X14070063Y-13859436D01*
X14070063Y-13859436D02*
X14060539Y-13840388D01*
X14060539Y-13840388D02*
X14060539Y-13783246D01*
X14060539Y-13783246D02*
X14070063Y-13764198D01*
X14070063Y-13764198D02*
X14079587Y-13754674D01*
X14079587Y-13754674D02*
X14098634Y-13745150D01*
X14098634Y-13745150D02*
X14127206Y-13745150D01*
X14127206Y-13745150D02*
X14146253Y-13754674D01*
X14146253Y-13754674D02*
X14155777Y-13764198D01*
X14155777Y-13764198D02*
X14165301Y-13783246D01*
X14165301Y-13783246D02*
X14165301Y-13840388D01*
X14165301Y-13840388D02*
X14155777Y-13859436D01*
X14155777Y-13859436D02*
X14146253Y-13868960D01*
X14146253Y-13868960D02*
X14127206Y-13878484D01*
X14127206Y-13878484D02*
X14098634Y-13878484D01*
X14279587Y-13878484D02*
X14260539Y-13868960D01*
X14260539Y-13868960D02*
X14251015Y-13849912D01*
X14251015Y-13849912D02*
X14251015Y-13678484D01*
X14431968Y-13868960D02*
X14412920Y-13878484D01*
X14412920Y-13878484D02*
X14374825Y-13878484D01*
X14374825Y-13878484D02*
X14355777Y-13868960D01*
X14355777Y-13868960D02*
X14346253Y-13849912D01*
X14346253Y-13849912D02*
X14346253Y-13773722D01*
X14346253Y-13773722D02*
X14355777Y-13754674D01*
X14355777Y-13754674D02*
X14374825Y-13745150D01*
X14374825Y-13745150D02*
X14412920Y-13745150D01*
X14412920Y-13745150D02*
X14431968Y-13754674D01*
X14431968Y-13754674D02*
X14441491Y-13773722D01*
X14441491Y-13773722D02*
X14441491Y-13792769D01*
X14441491Y-13792769D02*
X14346253Y-13811817D01*
X14517682Y-13868960D02*
X14536730Y-13878484D01*
X14536730Y-13878484D02*
X14574825Y-13878484D01*
X14574825Y-13878484D02*
X14593872Y-13868960D01*
X14593872Y-13868960D02*
X14603396Y-13849912D01*
X14603396Y-13849912D02*
X14603396Y-13840388D01*
X14603396Y-13840388D02*
X14593872Y-13821341D01*
X14593872Y-13821341D02*
X14574825Y-13811817D01*
X14574825Y-13811817D02*
X14546253Y-13811817D01*
X14546253Y-13811817D02*
X14527206Y-13802293D01*
X14527206Y-13802293D02*
X14517682Y-13783246D01*
X14517682Y-13783246D02*
X14517682Y-13773722D01*
X14517682Y-13773722D02*
X14527206Y-13754674D01*
X14527206Y-13754674D02*
X14546253Y-13745150D01*
X14546253Y-13745150D02*
X14574825Y-13745150D01*
X14574825Y-13745150D02*
X14593872Y-13754674D01*
X14670063Y-13954674D02*
X14679587Y-13945150D01*
X14679587Y-13945150D02*
X14698634Y-13916579D01*
X14698634Y-13916579D02*
X14708158Y-13897531D01*
X14708158Y-13897531D02*
X14717682Y-13868960D01*
X14717682Y-13868960D02*
X14727206Y-13821341D01*
X14727206Y-13821341D02*
X14727206Y-13783246D01*
X14727206Y-13783246D02*
X14717682Y-13735627D01*
X14717682Y-13735627D02*
X14708158Y-13707055D01*
X14708158Y-13707055D02*
X14698634Y-13688008D01*
X14698634Y-13688008D02*
X14679587Y-13659436D01*
X14679587Y-13659436D02*
X14670063Y-13649912D01*
D13*
X9820000Y-14126000D02*
X9895000Y-14051000D01*
X9820000Y-13976000D01*
X9745000Y-14051000D01*
X9820000Y-14126000D01*
D11*
X10260539Y-14142484D02*
X10146253Y-14142484D01*
X10203396Y-14142484D02*
X10203396Y-13942484D01*
X10203396Y-13942484D02*
X10184348Y-13971055D01*
X10184348Y-13971055D02*
X10165301Y-13990103D01*
X10165301Y-13990103D02*
X10146253Y-13999627D01*
X10346253Y-14123436D02*
X10355777Y-14132960D01*
X10355777Y-14132960D02*
X10346253Y-14142484D01*
X10346253Y-14142484D02*
X10336729Y-14132960D01*
X10336729Y-14132960D02*
X10346253Y-14123436D01*
X10346253Y-14123436D02*
X10346253Y-14142484D01*
X10536729Y-13942484D02*
X10441491Y-13942484D01*
X10441491Y-13942484D02*
X10431967Y-14037722D01*
X10431967Y-14037722D02*
X10441491Y-14028198D01*
X10441491Y-14028198D02*
X10460539Y-14018674D01*
X10460539Y-14018674D02*
X10508158Y-14018674D01*
X10508158Y-14018674D02*
X10527205Y-14028198D01*
X10527205Y-14028198D02*
X10536729Y-14037722D01*
X10536729Y-14037722D02*
X10546253Y-14056769D01*
X10546253Y-14056769D02*
X10546253Y-14104388D01*
X10546253Y-14104388D02*
X10536729Y-14123436D01*
X10536729Y-14123436D02*
X10527205Y-14132960D01*
X10527205Y-14132960D02*
X10508158Y-14142484D01*
X10508158Y-14142484D02*
X10460539Y-14142484D01*
X10460539Y-14142484D02*
X10441491Y-14132960D01*
X10441491Y-14132960D02*
X10431967Y-14123436D01*
X10670063Y-13942484D02*
X10689110Y-13942484D01*
X10689110Y-13942484D02*
X10708158Y-13952008D01*
X10708158Y-13952008D02*
X10717682Y-13961531D01*
X10717682Y-13961531D02*
X10727205Y-13980579D01*
X10727205Y-13980579D02*
X10736729Y-14018674D01*
X10736729Y-14018674D02*
X10736729Y-14066293D01*
X10736729Y-14066293D02*
X10727205Y-14104388D01*
X10727205Y-14104388D02*
X10717682Y-14123436D01*
X10717682Y-14123436D02*
X10708158Y-14132960D01*
X10708158Y-14132960D02*
X10689110Y-14142484D01*
X10689110Y-14142484D02*
X10670063Y-14142484D01*
X10670063Y-14142484D02*
X10651015Y-14132960D01*
X10651015Y-14132960D02*
X10641491Y-14123436D01*
X10641491Y-14123436D02*
X10631967Y-14104388D01*
X10631967Y-14104388D02*
X10622444Y-14066293D01*
X10622444Y-14066293D02*
X10622444Y-14018674D01*
X10622444Y-14018674D02*
X10631967Y-13980579D01*
X10631967Y-13980579D02*
X10641491Y-13961531D01*
X10641491Y-13961531D02*
X10651015Y-13952008D01*
X10651015Y-13952008D02*
X10670063Y-13942484D01*
X10860539Y-13942484D02*
X10879586Y-13942484D01*
X10879586Y-13942484D02*
X10898634Y-13952008D01*
X10898634Y-13952008D02*
X10908158Y-13961531D01*
X10908158Y-13961531D02*
X10917682Y-13980579D01*
X10917682Y-13980579D02*
X10927205Y-14018674D01*
X10927205Y-14018674D02*
X10927205Y-14066293D01*
X10927205Y-14066293D02*
X10917682Y-14104388D01*
X10917682Y-14104388D02*
X10908158Y-14123436D01*
X10908158Y-14123436D02*
X10898634Y-14132960D01*
X10898634Y-14132960D02*
X10879586Y-14142484D01*
X10879586Y-14142484D02*
X10860539Y-14142484D01*
X10860539Y-14142484D02*
X10841491Y-14132960D01*
X10841491Y-14132960D02*
X10831967Y-14123436D01*
X10831967Y-14123436D02*
X10822444Y-14104388D01*
X10822444Y-14104388D02*
X10812920Y-14066293D01*
X10812920Y-14066293D02*
X10812920Y-14018674D01*
X10812920Y-14018674D02*
X10822444Y-13980579D01*
X10822444Y-13980579D02*
X10831967Y-13961531D01*
X10831967Y-13961531D02*
X10841491Y-13952008D01*
X10841491Y-13952008D02*
X10860539Y-13942484D01*
X11012920Y-14142484D02*
X11012920Y-14009150D01*
X11012920Y-14028198D02*
X11022444Y-14018674D01*
X11022444Y-14018674D02*
X11041491Y-14009150D01*
X11041491Y-14009150D02*
X11070063Y-14009150D01*
X11070063Y-14009150D02*
X11089110Y-14018674D01*
X11089110Y-14018674D02*
X11098634Y-14037722D01*
X11098634Y-14037722D02*
X11098634Y-14142484D01*
X11098634Y-14037722D02*
X11108158Y-14018674D01*
X11108158Y-14018674D02*
X11127205Y-14009150D01*
X11127205Y-14009150D02*
X11155777Y-14009150D01*
X11155777Y-14009150D02*
X11174825Y-14018674D01*
X11174825Y-14018674D02*
X11184348Y-14037722D01*
X11184348Y-14037722D02*
X11184348Y-14142484D01*
X11279586Y-14142484D02*
X11279586Y-14009150D01*
X11279586Y-14028198D02*
X11289110Y-14018674D01*
X11289110Y-14018674D02*
X11308158Y-14009150D01*
X11308158Y-14009150D02*
X11336729Y-14009150D01*
X11336729Y-14009150D02*
X11355777Y-14018674D01*
X11355777Y-14018674D02*
X11365301Y-14037722D01*
X11365301Y-14037722D02*
X11365301Y-14142484D01*
X11365301Y-14037722D02*
X11374824Y-14018674D01*
X11374824Y-14018674D02*
X11393872Y-14009150D01*
X11393872Y-14009150D02*
X11422443Y-14009150D01*
X11422443Y-14009150D02*
X11441491Y-14018674D01*
X11441491Y-14018674D02*
X11451015Y-14037722D01*
X11451015Y-14037722D02*
X11451015Y-14142484D01*
X11841491Y-13932960D02*
X11670063Y-14190103D01*
X12098634Y-13942484D02*
X12117682Y-13942484D01*
X12117682Y-13942484D02*
X12136729Y-13952008D01*
X12136729Y-13952008D02*
X12146253Y-13961531D01*
X12146253Y-13961531D02*
X12155777Y-13980579D01*
X12155777Y-13980579D02*
X12165301Y-14018674D01*
X12165301Y-14018674D02*
X12165301Y-14066293D01*
X12165301Y-14066293D02*
X12155777Y-14104388D01*
X12155777Y-14104388D02*
X12146253Y-14123436D01*
X12146253Y-14123436D02*
X12136729Y-14132960D01*
X12136729Y-14132960D02*
X12117682Y-14142484D01*
X12117682Y-14142484D02*
X12098634Y-14142484D01*
X12098634Y-14142484D02*
X12079586Y-14132960D01*
X12079586Y-14132960D02*
X12070063Y-14123436D01*
X12070063Y-14123436D02*
X12060539Y-14104388D01*
X12060539Y-14104388D02*
X12051015Y-14066293D01*
X12051015Y-14066293D02*
X12051015Y-14018674D01*
X12051015Y-14018674D02*
X12060539Y-13980579D01*
X12060539Y-13980579D02*
X12070063Y-13961531D01*
X12070063Y-13961531D02*
X12079586Y-13952008D01*
X12079586Y-13952008D02*
X12098634Y-13942484D01*
X12251015Y-14123436D02*
X12260539Y-14132960D01*
X12260539Y-14132960D02*
X12251015Y-14142484D01*
X12251015Y-14142484D02*
X12241491Y-14132960D01*
X12241491Y-14132960D02*
X12251015Y-14123436D01*
X12251015Y-14123436D02*
X12251015Y-14142484D01*
X12384348Y-13942484D02*
X12403396Y-13942484D01*
X12403396Y-13942484D02*
X12422444Y-13952008D01*
X12422444Y-13952008D02*
X12431967Y-13961531D01*
X12431967Y-13961531D02*
X12441491Y-13980579D01*
X12441491Y-13980579D02*
X12451015Y-14018674D01*
X12451015Y-14018674D02*
X12451015Y-14066293D01*
X12451015Y-14066293D02*
X12441491Y-14104388D01*
X12441491Y-14104388D02*
X12431967Y-14123436D01*
X12431967Y-14123436D02*
X12422444Y-14132960D01*
X12422444Y-14132960D02*
X12403396Y-14142484D01*
X12403396Y-14142484D02*
X12384348Y-14142484D01*
X12384348Y-14142484D02*
X12365301Y-14132960D01*
X12365301Y-14132960D02*
X12355777Y-14123436D01*
X12355777Y-14123436D02*
X12346253Y-14104388D01*
X12346253Y-14104388D02*
X12336729Y-14066293D01*
X12336729Y-14066293D02*
X12336729Y-14018674D01*
X12336729Y-14018674D02*
X12346253Y-13980579D01*
X12346253Y-13980579D02*
X12355777Y-13961531D01*
X12355777Y-13961531D02*
X12365301Y-13952008D01*
X12365301Y-13952008D02*
X12384348Y-13942484D01*
X12631967Y-13942484D02*
X12536729Y-13942484D01*
X12536729Y-13942484D02*
X12527206Y-14037722D01*
X12527206Y-14037722D02*
X12536729Y-14028198D01*
X12536729Y-14028198D02*
X12555777Y-14018674D01*
X12555777Y-14018674D02*
X12603396Y-14018674D01*
X12603396Y-14018674D02*
X12622444Y-14028198D01*
X12622444Y-14028198D02*
X12631967Y-14037722D01*
X12631967Y-14037722D02*
X12641491Y-14056769D01*
X12641491Y-14056769D02*
X12641491Y-14104388D01*
X12641491Y-14104388D02*
X12631967Y-14123436D01*
X12631967Y-14123436D02*
X12622444Y-14132960D01*
X12622444Y-14132960D02*
X12603396Y-14142484D01*
X12603396Y-14142484D02*
X12555777Y-14142484D01*
X12555777Y-14142484D02*
X12536729Y-14132960D01*
X12536729Y-14132960D02*
X12527206Y-14123436D01*
X12736729Y-14142484D02*
X12774825Y-14142484D01*
X12774825Y-14142484D02*
X12793872Y-14132960D01*
X12793872Y-14132960D02*
X12803396Y-14123436D01*
X12803396Y-14123436D02*
X12822444Y-14094865D01*
X12822444Y-14094865D02*
X12831967Y-14056769D01*
X12831967Y-14056769D02*
X12831967Y-13980579D01*
X12831967Y-13980579D02*
X12822444Y-13961531D01*
X12822444Y-13961531D02*
X12812920Y-13952008D01*
X12812920Y-13952008D02*
X12793872Y-13942484D01*
X12793872Y-13942484D02*
X12755777Y-13942484D01*
X12755777Y-13942484D02*
X12736729Y-13952008D01*
X12736729Y-13952008D02*
X12727206Y-13961531D01*
X12727206Y-13961531D02*
X12717682Y-13980579D01*
X12717682Y-13980579D02*
X12717682Y-14028198D01*
X12717682Y-14028198D02*
X12727206Y-14047246D01*
X12727206Y-14047246D02*
X12736729Y-14056769D01*
X12736729Y-14056769D02*
X12755777Y-14066293D01*
X12755777Y-14066293D02*
X12793872Y-14066293D01*
X12793872Y-14066293D02*
X12812920Y-14056769D01*
X12812920Y-14056769D02*
X12822444Y-14047246D01*
X12822444Y-14047246D02*
X12831967Y-14028198D01*
X13022444Y-14142484D02*
X12908158Y-14142484D01*
X12965301Y-14142484D02*
X12965301Y-13942484D01*
X12965301Y-13942484D02*
X12946253Y-13971055D01*
X12946253Y-13971055D02*
X12927206Y-13990103D01*
X12927206Y-13990103D02*
X12908158Y-13999627D01*
X13098634Y-13942484D02*
X13098634Y-13980579D01*
X13174825Y-13942484D02*
X13174825Y-13980579D01*
X13470063Y-14218674D02*
X13460539Y-14209150D01*
X13460539Y-14209150D02*
X13441491Y-14180579D01*
X13441491Y-14180579D02*
X13431968Y-14161531D01*
X13431968Y-14161531D02*
X13422444Y-14132960D01*
X13422444Y-14132960D02*
X13412920Y-14085341D01*
X13412920Y-14085341D02*
X13412920Y-14047246D01*
X13412920Y-14047246D02*
X13422444Y-13999627D01*
X13422444Y-13999627D02*
X13431968Y-13971055D01*
X13431968Y-13971055D02*
X13441491Y-13952008D01*
X13441491Y-13952008D02*
X13460539Y-13923436D01*
X13460539Y-13923436D02*
X13470063Y-13913912D01*
X13574825Y-14028198D02*
X13555777Y-14018674D01*
X13555777Y-14018674D02*
X13546253Y-14009150D01*
X13546253Y-14009150D02*
X13536729Y-13990103D01*
X13536729Y-13990103D02*
X13536729Y-13980579D01*
X13536729Y-13980579D02*
X13546253Y-13961531D01*
X13546253Y-13961531D02*
X13555777Y-13952008D01*
X13555777Y-13952008D02*
X13574825Y-13942484D01*
X13574825Y-13942484D02*
X13612920Y-13942484D01*
X13612920Y-13942484D02*
X13631968Y-13952008D01*
X13631968Y-13952008D02*
X13641491Y-13961531D01*
X13641491Y-13961531D02*
X13651015Y-13980579D01*
X13651015Y-13980579D02*
X13651015Y-13990103D01*
X13651015Y-13990103D02*
X13641491Y-14009150D01*
X13641491Y-14009150D02*
X13631968Y-14018674D01*
X13631968Y-14018674D02*
X13612920Y-14028198D01*
X13612920Y-14028198D02*
X13574825Y-14028198D01*
X13574825Y-14028198D02*
X13555777Y-14037722D01*
X13555777Y-14037722D02*
X13546253Y-14047246D01*
X13546253Y-14047246D02*
X13536729Y-14066293D01*
X13536729Y-14066293D02*
X13536729Y-14104388D01*
X13536729Y-14104388D02*
X13546253Y-14123436D01*
X13546253Y-14123436D02*
X13555777Y-14132960D01*
X13555777Y-14132960D02*
X13574825Y-14142484D01*
X13574825Y-14142484D02*
X13612920Y-14142484D01*
X13612920Y-14142484D02*
X13631968Y-14132960D01*
X13631968Y-14132960D02*
X13641491Y-14123436D01*
X13641491Y-14123436D02*
X13651015Y-14104388D01*
X13651015Y-14104388D02*
X13651015Y-14066293D01*
X13651015Y-14066293D02*
X13641491Y-14047246D01*
X13641491Y-14047246D02*
X13631968Y-14037722D01*
X13631968Y-14037722D02*
X13612920Y-14028198D01*
X13889110Y-14142484D02*
X13889110Y-13942484D01*
X13974825Y-14142484D02*
X13974825Y-14037722D01*
X13974825Y-14037722D02*
X13965301Y-14018674D01*
X13965301Y-14018674D02*
X13946253Y-14009150D01*
X13946253Y-14009150D02*
X13917682Y-14009150D01*
X13917682Y-14009150D02*
X13898634Y-14018674D01*
X13898634Y-14018674D02*
X13889110Y-14028198D01*
X14098634Y-14142484D02*
X14079587Y-14132960D01*
X14079587Y-14132960D02*
X14070063Y-14123436D01*
X14070063Y-14123436D02*
X14060539Y-14104388D01*
X14060539Y-14104388D02*
X14060539Y-14047246D01*
X14060539Y-14047246D02*
X14070063Y-14028198D01*
X14070063Y-14028198D02*
X14079587Y-14018674D01*
X14079587Y-14018674D02*
X14098634Y-14009150D01*
X14098634Y-14009150D02*
X14127206Y-14009150D01*
X14127206Y-14009150D02*
X14146253Y-14018674D01*
X14146253Y-14018674D02*
X14155777Y-14028198D01*
X14155777Y-14028198D02*
X14165301Y-14047246D01*
X14165301Y-14047246D02*
X14165301Y-14104388D01*
X14165301Y-14104388D02*
X14155777Y-14123436D01*
X14155777Y-14123436D02*
X14146253Y-14132960D01*
X14146253Y-14132960D02*
X14127206Y-14142484D01*
X14127206Y-14142484D02*
X14098634Y-14142484D01*
X14279587Y-14142484D02*
X14260539Y-14132960D01*
X14260539Y-14132960D02*
X14251015Y-14113912D01*
X14251015Y-14113912D02*
X14251015Y-13942484D01*
X14431968Y-14132960D02*
X14412920Y-14142484D01*
X14412920Y-14142484D02*
X14374825Y-14142484D01*
X14374825Y-14142484D02*
X14355777Y-14132960D01*
X14355777Y-14132960D02*
X14346253Y-14113912D01*
X14346253Y-14113912D02*
X14346253Y-14037722D01*
X14346253Y-14037722D02*
X14355777Y-14018674D01*
X14355777Y-14018674D02*
X14374825Y-14009150D01*
X14374825Y-14009150D02*
X14412920Y-14009150D01*
X14412920Y-14009150D02*
X14431968Y-14018674D01*
X14431968Y-14018674D02*
X14441491Y-14037722D01*
X14441491Y-14037722D02*
X14441491Y-14056769D01*
X14441491Y-14056769D02*
X14346253Y-14075817D01*
X14517682Y-14132960D02*
X14536730Y-14142484D01*
X14536730Y-14142484D02*
X14574825Y-14142484D01*
X14574825Y-14142484D02*
X14593872Y-14132960D01*
X14593872Y-14132960D02*
X14603396Y-14113912D01*
X14603396Y-14113912D02*
X14603396Y-14104388D01*
X14603396Y-14104388D02*
X14593872Y-14085341D01*
X14593872Y-14085341D02*
X14574825Y-14075817D01*
X14574825Y-14075817D02*
X14546253Y-14075817D01*
X14546253Y-14075817D02*
X14527206Y-14066293D01*
X14527206Y-14066293D02*
X14517682Y-14047246D01*
X14517682Y-14047246D02*
X14517682Y-14037722D01*
X14517682Y-14037722D02*
X14527206Y-14018674D01*
X14527206Y-14018674D02*
X14546253Y-14009150D01*
X14546253Y-14009150D02*
X14574825Y-14009150D01*
X14574825Y-14009150D02*
X14593872Y-14018674D01*
X14670063Y-14218674D02*
X14679587Y-14209150D01*
X14679587Y-14209150D02*
X14698634Y-14180579D01*
X14698634Y-14180579D02*
X14708158Y-14161531D01*
X14708158Y-14161531D02*
X14717682Y-14132960D01*
X14717682Y-14132960D02*
X14727206Y-14085341D01*
X14727206Y-14085341D02*
X14727206Y-14047246D01*
X14727206Y-14047246D02*
X14717682Y-13999627D01*
X14717682Y-13999627D02*
X14708158Y-13971055D01*
X14708158Y-13971055D02*
X14698634Y-13952008D01*
X14698634Y-13952008D02*
X14679587Y-13923436D01*
X14679587Y-13923436D02*
X14670063Y-13913912D01*
M02*
