%TF.GenerationSoftware,KiCad,Pcbnew,(7.0.0-0)*%
%TF.CreationDate,2024-02-07T12:33:32+03:00*%
%TF.ProjectId,germanium-amp,6765726d-616e-4697-956d-2d616d702e6b,rev?*%
%TF.SameCoordinates,Original*%
%TF.FileFunction,Drillmap*%
%TF.FilePolarity,Positive*%
%FSLAX45Y45*%
G04 Gerber Fmt 4.5, Leading zero omitted, Abs format (unit mm)*
G04 Created by KiCad (PCBNEW (7.0.0-0)) date 2024-02-07 12:33:32*
%MOMM*%
%LPD*%
G01*
G04 APERTURE LIST*
%ADD10C,0.100000*%
%ADD11C,0.200000*%
G04 APERTURE END LIST*
D10*
X12050000Y-3300000D02*
X3700000Y-3300000D01*
X4200000Y-3600000D02*
G75*
G03*
X4200000Y-3600000I-200000J0D01*
G01*
X12050000Y-8400000D02*
X12050000Y-3300000D01*
X11950000Y-8100000D02*
G75*
G03*
X11950000Y-8100000I-200000J0D01*
G01*
X3700000Y-8400000D02*
X12050000Y-8400000D01*
X11950000Y-3600000D02*
G75*
G03*
X11950000Y-3600000I-200000J0D01*
G01*
X4200000Y-8100000D02*
G75*
G03*
X4200000Y-8100000I-200000J0D01*
G01*
X3700000Y-3300000D02*
X3700000Y-8400000D01*
D11*
X3942619Y-8698476D02*
X3942619Y-8498476D01*
X3942619Y-8498476D02*
X3990238Y-8498476D01*
X3990238Y-8498476D02*
X4018809Y-8508000D01*
X4018809Y-8508000D02*
X4037857Y-8527048D01*
X4037857Y-8527048D02*
X4047381Y-8546095D01*
X4047381Y-8546095D02*
X4056905Y-8584190D01*
X4056905Y-8584190D02*
X4056905Y-8612762D01*
X4056905Y-8612762D02*
X4047381Y-8650857D01*
X4047381Y-8650857D02*
X4037857Y-8669905D01*
X4037857Y-8669905D02*
X4018809Y-8688952D01*
X4018809Y-8688952D02*
X3990238Y-8698476D01*
X3990238Y-8698476D02*
X3942619Y-8698476D01*
X4142619Y-8698476D02*
X4142619Y-8565143D01*
X4142619Y-8603238D02*
X4152143Y-8584190D01*
X4152143Y-8584190D02*
X4161667Y-8574667D01*
X4161667Y-8574667D02*
X4180714Y-8565143D01*
X4180714Y-8565143D02*
X4199762Y-8565143D01*
X4266429Y-8698476D02*
X4266429Y-8565143D01*
X4266429Y-8498476D02*
X4256905Y-8508000D01*
X4256905Y-8508000D02*
X4266429Y-8517524D01*
X4266429Y-8517524D02*
X4275952Y-8508000D01*
X4275952Y-8508000D02*
X4266429Y-8498476D01*
X4266429Y-8498476D02*
X4266429Y-8517524D01*
X4390238Y-8698476D02*
X4371190Y-8688952D01*
X4371190Y-8688952D02*
X4361667Y-8669905D01*
X4361667Y-8669905D02*
X4361667Y-8498476D01*
X4495000Y-8698476D02*
X4475952Y-8688952D01*
X4475952Y-8688952D02*
X4466429Y-8669905D01*
X4466429Y-8669905D02*
X4466429Y-8498476D01*
X4691190Y-8698476D02*
X4691190Y-8498476D01*
X4691190Y-8498476D02*
X4757857Y-8641333D01*
X4757857Y-8641333D02*
X4824524Y-8498476D01*
X4824524Y-8498476D02*
X4824524Y-8698476D01*
X5005476Y-8698476D02*
X5005476Y-8593714D01*
X5005476Y-8593714D02*
X4995952Y-8574667D01*
X4995952Y-8574667D02*
X4976905Y-8565143D01*
X4976905Y-8565143D02*
X4938809Y-8565143D01*
X4938809Y-8565143D02*
X4919762Y-8574667D01*
X5005476Y-8688952D02*
X4986429Y-8698476D01*
X4986429Y-8698476D02*
X4938809Y-8698476D01*
X4938809Y-8698476D02*
X4919762Y-8688952D01*
X4919762Y-8688952D02*
X4910238Y-8669905D01*
X4910238Y-8669905D02*
X4910238Y-8650857D01*
X4910238Y-8650857D02*
X4919762Y-8631810D01*
X4919762Y-8631810D02*
X4938809Y-8622286D01*
X4938809Y-8622286D02*
X4986429Y-8622286D01*
X4986429Y-8622286D02*
X5005476Y-8612762D01*
X5100714Y-8565143D02*
X5100714Y-8765143D01*
X5100714Y-8574667D02*
X5119762Y-8565143D01*
X5119762Y-8565143D02*
X5157857Y-8565143D01*
X5157857Y-8565143D02*
X5176905Y-8574667D01*
X5176905Y-8574667D02*
X5186429Y-8584190D01*
X5186429Y-8584190D02*
X5195952Y-8603238D01*
X5195952Y-8603238D02*
X5195952Y-8660381D01*
X5195952Y-8660381D02*
X5186429Y-8679429D01*
X5186429Y-8679429D02*
X5176905Y-8688952D01*
X5176905Y-8688952D02*
X5157857Y-8698476D01*
X5157857Y-8698476D02*
X5119762Y-8698476D01*
X5119762Y-8698476D02*
X5100714Y-8688952D01*
X5281667Y-8679429D02*
X5291190Y-8688952D01*
X5291190Y-8688952D02*
X5281667Y-8698476D01*
X5281667Y-8698476D02*
X5272143Y-8688952D01*
X5272143Y-8688952D02*
X5281667Y-8679429D01*
X5281667Y-8679429D02*
X5281667Y-8698476D01*
X5281667Y-8574667D02*
X5291190Y-8584190D01*
X5291190Y-8584190D02*
X5281667Y-8593714D01*
X5281667Y-8593714D02*
X5272143Y-8584190D01*
X5272143Y-8584190D02*
X5281667Y-8574667D01*
X5281667Y-8574667D02*
X5281667Y-8593714D01*
M02*
