%TF.GenerationSoftware,KiCad,Pcbnew,(7.0.0-0)*%
%TF.CreationDate,2024-02-07T12:32:52+03:00*%
%TF.ProjectId,germanium-amp,6765726d-616e-4697-956d-2d616d702e6b,rev?*%
%TF.SameCoordinates,Original*%
%TF.FileFunction,Soldermask,Bot*%
%TF.FilePolarity,Negative*%
%FSLAX46Y46*%
G04 Gerber Fmt 4.6, Leading zero omitted, Abs format (unit mm)*
G04 Created by KiCad (PCBNEW (7.0.0-0)) date 2024-02-07 12:32:52*
%MOMM*%
%LPD*%
G01*
G04 APERTURE LIST*
%ADD10C,1.600000*%
%ADD11O,1.600000X1.600000*%
%ADD12C,1.440000*%
%ADD13R,2.000000X2.000000*%
%ADD14C,2.000000*%
%ADD15O,1.200000X1.200000*%
%ADD16R,1.700000X1.700000*%
%ADD17O,1.700000X1.700000*%
%ADD18R,2.200000X2.200000*%
%ADD19O,2.200000X2.200000*%
%ADD20R,1.600000X1.600000*%
G04 APERTURE END LIST*
D10*
%TO.C,C1*%
X77950000Y-46200000D03*
D11*
X85449999Y-46199999D03*
%TD*%
D12*
%TO.C,UIn1*%
X49000000Y-43950000D03*
X49000000Y-46490000D03*
X49000000Y-49030000D03*
%TD*%
D13*
%TO.C,C2*%
X92199999Y-45999999D03*
D14*
X96000000Y-46000000D03*
%TD*%
D15*
%TO.C,Q3*%
X103959999Y-46899999D03*
X106499999Y-48499999D03*
X109039999Y-46899999D03*
%TD*%
D10*
%TO.C,R4*%
X57420000Y-58000000D03*
D11*
X67579999Y-57999999D03*
%TD*%
D12*
%TO.C,Uout1*%
X49000000Y-56950000D03*
X49000000Y-59490000D03*
X49000000Y-62030000D03*
%TD*%
D16*
%TO.C,J1*%
X110024999Y-57459999D03*
D17*
X110024999Y-59999999D03*
%TD*%
D10*
%TO.C,R6*%
X71740000Y-55500000D03*
D11*
X81899999Y-55499999D03*
%TD*%
D10*
%TO.C,R3*%
X57420000Y-54500000D03*
D11*
X67579999Y-54499999D03*
%TD*%
D18*
%TO.C,D2*%
X86499999Y-65379999D03*
D19*
X86499999Y-55219999D03*
%TD*%
D15*
%TO.C,Q2*%
X59919999Y-46499999D03*
X62459999Y-44599999D03*
X64999999Y-46499999D03*
%TD*%
%TO.C,Q4*%
X103959999Y-69899999D03*
X106499999Y-71499999D03*
X109039999Y-69899999D03*
%TD*%
D20*
%TO.C,C4*%
X94294899Y-70499999D03*
D10*
X96794900Y-70500000D03*
%TD*%
D16*
%TO.C,J2*%
X53474999Y-73524999D03*
D17*
X53474999Y-70984999D03*
X53474999Y-68444999D03*
%TD*%
D10*
%TO.C,R8*%
X71820000Y-63500000D03*
D11*
X81979999Y-63499999D03*
%TD*%
D16*
%TO.C,J4*%
X72499999Y-43659999D03*
D17*
X72499999Y-46199999D03*
%TD*%
D10*
%TO.C,R7*%
X71740000Y-59500000D03*
D11*
X81899999Y-59499999D03*
%TD*%
D13*
%TO.C,C5*%
X96999999Y-58399999D03*
D14*
X100800000Y-58400000D03*
%TD*%
D15*
%TO.C,Q1*%
X59919999Y-69999999D03*
X62459999Y-69999999D03*
X64999999Y-69999999D03*
%TD*%
D18*
%TO.C,D1*%
X90699999Y-55239999D03*
D19*
X90699999Y-65399999D03*
%TD*%
D10*
%TO.C,R5*%
X57420000Y-61500000D03*
D11*
X67579999Y-61499999D03*
%TD*%
D16*
%TO.C,J3*%
X47999999Y-70459999D03*
D17*
X47999999Y-72999999D03*
%TD*%
D10*
%TO.C,R2*%
X82000000Y-71500000D03*
D11*
X71839999Y-71499999D03*
%TD*%
D20*
%TO.C,C3*%
X86294899Y-70499999D03*
D10*
X88794900Y-70500000D03*
%TD*%
%TO.C,R9*%
X71840000Y-67500000D03*
D11*
X81999999Y-67499999D03*
%TD*%
M02*
