%TF.GenerationSoftware,KiCad,Pcbnew,8.0.0*%
%TF.CreationDate,2024-03-12T11:33:37+03:00*%
%TF.ProjectId,germanium-amp,6765726d-616e-4697-956d-2d616d702e6b,rev?*%
%TF.SameCoordinates,Original*%
%TF.FileFunction,Copper,L2,Bot*%
%TF.FilePolarity,Positive*%
%FSLAX46Y46*%
G04 Gerber Fmt 4.6, Leading zero omitted, Abs format (unit mm)*
G04 Created by KiCad (PCBNEW 8.0.0) date 2024-03-12 11:33:37*
%MOMM*%
%LPD*%
G01*
G04 APERTURE LIST*
%TA.AperFunction,ComponentPad*%
%ADD10C,1.600000*%
%TD*%
%TA.AperFunction,ComponentPad*%
%ADD11O,1.600000X1.600000*%
%TD*%
%TA.AperFunction,ComponentPad*%
%ADD12C,1.440000*%
%TD*%
%TA.AperFunction,ComponentPad*%
%ADD13R,2.000000X2.000000*%
%TD*%
%TA.AperFunction,ComponentPad*%
%ADD14C,2.000000*%
%TD*%
%TA.AperFunction,ComponentPad*%
%ADD15O,1.200000X1.200000*%
%TD*%
%TA.AperFunction,ComponentPad*%
%ADD16R,1.700000X1.700000*%
%TD*%
%TA.AperFunction,ComponentPad*%
%ADD17O,1.700000X1.700000*%
%TD*%
%TA.AperFunction,ComponentPad*%
%ADD18R,2.200000X2.200000*%
%TD*%
%TA.AperFunction,ComponentPad*%
%ADD19O,2.200000X2.200000*%
%TD*%
%TA.AperFunction,ComponentPad*%
%ADD20R,1.600000X1.600000*%
%TD*%
%TA.AperFunction,Conductor*%
%ADD21C,0.400000*%
%TD*%
G04 APERTURE END LIST*
D10*
%TO.P,C1,1*%
%TO.N,Net-(J4-Pin_1)*%
X77950000Y-46200000D03*
D11*
%TO.P,C1,2*%
%TO.N,Net-(Q1-B)*%
X85450000Y-46200000D03*
%TD*%
D12*
%TO.P,UIn1,1,1*%
%TO.N,-12V*%
X49000000Y-43950000D03*
%TO.P,UIn1,2,2*%
%TO.N,Net-(Q1-B)*%
X49000000Y-46490000D03*
%TO.P,UIn1,3,3*%
X49000000Y-49030000D03*
%TD*%
D13*
%TO.P,C2,1*%
%TO.N,Out -*%
X92200000Y-46000000D03*
D14*
%TO.P,C2,2*%
%TO.N,-12V*%
X96000000Y-46000000D03*
%TD*%
D15*
%TO.P,Q3,1,E*%
%TO.N,Uh2*%
X103960000Y-46900000D03*
%TO.P,Q3,2,C*%
%TO.N,-12V*%
X106500000Y-48500000D03*
%TO.P,Q3,3,B*%
%TO.N,Net-(D1-K)*%
X109040000Y-46900000D03*
%TD*%
D10*
%TO.P,R4,1*%
%TO.N,Net-(Q2-B)*%
X57420000Y-58000000D03*
D11*
%TO.P,R4,2*%
%TO.N,-12V*%
X67580000Y-58000000D03*
%TD*%
D12*
%TO.P,Uout1,1,1*%
%TO.N,Net-(D1-K)*%
X49000000Y-56950000D03*
%TO.P,Uout1,2,2*%
%TO.N,Net-(R6-Pad2)*%
X49000000Y-59490000D03*
%TO.P,Uout1,3,3*%
X49000000Y-62030000D03*
%TD*%
D16*
%TO.P,J1,1,Pin_1*%
%TO.N,Out -*%
X110025000Y-57460000D03*
D17*
%TO.P,J1,2,Pin_2*%
%TO.N,Out +*%
X110025000Y-60000000D03*
%TD*%
D10*
%TO.P,R6,1*%
%TO.N,Net-(C4-Pad1)*%
X71740000Y-55500000D03*
D11*
%TO.P,R6,2*%
%TO.N,Net-(R6-Pad2)*%
X81900000Y-55500000D03*
%TD*%
D10*
%TO.P,R3,1*%
%TO.N,Uh1*%
X57420000Y-54500000D03*
D11*
%TO.P,R3,2*%
%TO.N,-12V*%
X67580000Y-54500000D03*
%TD*%
D18*
%TO.P,D2,1,A*%
%TO.N,Net-(D2-A)*%
X86500000Y-65380000D03*
D19*
%TO.P,D2,2,K*%
%TO.N,Net-(D1-A)*%
X86500000Y-55220000D03*
%TD*%
D15*
%TO.P,Q2,1,C*%
%TO.N,Net-(D1-K)*%
X59920000Y-46500000D03*
%TO.P,Q2,2,B*%
%TO.N,Net-(Q2-B)*%
X62460000Y-44600000D03*
%TO.P,Q2,3,E*%
%TO.N,Net-(Q2-E)*%
X65000000Y-46500000D03*
%TD*%
%TO.P,Q4,1,E*%
%TO.N,Uh2*%
X103960000Y-69900000D03*
%TO.P,Q4,2,C*%
%TO.N,Out -*%
X106500000Y-71500000D03*
%TO.P,Q4,3,B*%
%TO.N,Net-(D2-A)*%
X109040000Y-69900000D03*
%TD*%
D20*
%TO.P,C4,1*%
%TO.N,Net-(C4-Pad1)*%
X94294900Y-70500000D03*
D10*
%TO.P,C4,2*%
%TO.N,-12V*%
X96794900Y-70500000D03*
%TD*%
D16*
%TO.P,J2,1,Pin_1*%
%TO.N,Out -*%
X53475000Y-73525000D03*
D17*
%TO.P,J2,2,Pin_2*%
%TO.N,Uh2*%
X53475000Y-70985000D03*
%TO.P,J2,3,Pin_3*%
%TO.N,Uh1*%
X53475000Y-68445000D03*
%TD*%
D10*
%TO.P,R8,1*%
%TO.N,Out +*%
X71820000Y-63500000D03*
D11*
%TO.P,R8,2*%
%TO.N,Net-(D2-A)*%
X81980000Y-63500000D03*
%TD*%
D16*
%TO.P,J4,1,Pin_1*%
%TO.N,Net-(J4-Pin_1)*%
X72500000Y-43660000D03*
D17*
%TO.P,J4,2,Pin_2*%
%TO.N,Out -*%
X72500000Y-46200000D03*
%TD*%
D10*
%TO.P,R7,1*%
%TO.N,Net-(Q2-E)*%
X71740000Y-59500000D03*
D11*
%TO.P,R7,2*%
%TO.N,-12V*%
X81900000Y-59500000D03*
%TD*%
D13*
%TO.P,C5,1*%
%TO.N,Out +*%
X97000000Y-58400000D03*
D14*
%TO.P,C5,2*%
%TO.N,Uh2*%
X100800000Y-58400000D03*
%TD*%
D15*
%TO.P,Q1,1,E*%
%TO.N,Net-(Q1-E)*%
X59920000Y-70000000D03*
%TO.P,Q1,2,C*%
%TO.N,Uh1*%
X62460000Y-70000000D03*
%TO.P,Q1,3,B*%
%TO.N,Net-(Q1-B)*%
X65000000Y-70000000D03*
%TD*%
D18*
%TO.P,D1,1,A*%
%TO.N,Net-(D1-A)*%
X90700000Y-55240000D03*
D19*
%TO.P,D1,2,K*%
%TO.N,Net-(D1-K)*%
X90700000Y-65400000D03*
%TD*%
D10*
%TO.P,R5,1*%
%TO.N,Net-(C4-Pad1)*%
X57420000Y-61500000D03*
D11*
%TO.P,R5,2*%
%TO.N,Net-(Q2-B)*%
X67580000Y-61500000D03*
%TD*%
D16*
%TO.P,J3,1,Pin_1*%
%TO.N,-12V*%
X48000000Y-70460000D03*
D17*
%TO.P,J3,2,Pin_2*%
%TO.N,Out -*%
X48000000Y-73000000D03*
%TD*%
D10*
%TO.P,R2,1*%
%TO.N,Out -*%
X82000000Y-71500000D03*
D11*
%TO.P,R2,2*%
%TO.N,Net-(Q1-E)*%
X71840000Y-71500000D03*
%TD*%
D20*
%TO.P,C3,1*%
%TO.N,Uh1*%
X86294900Y-70500000D03*
D10*
%TO.P,C3,2*%
%TO.N,Net-(Q2-B)*%
X88794900Y-70500000D03*
%TD*%
%TO.P,R9,1*%
%TO.N,Out +*%
X71840000Y-67500000D03*
D11*
%TO.P,R9,2*%
%TO.N,Net-(Q1-E)*%
X82000000Y-67500000D03*
%TD*%
D21*
%TO.N,Net-(Q1-B)*%
X84849050Y-46200000D02*
X85450000Y-46200000D01*
X73499999Y-60999999D02*
X73646446Y-60853553D01*
X83823164Y-46624935D02*
X78836992Y-51611107D01*
X63928000Y-67356000D02*
X62109963Y-67356000D01*
X63928000Y-67356000D02*
X66072000Y-67356000D01*
X58262207Y-65762207D02*
X54593792Y-62093792D01*
X71500000Y-57500000D02*
X71327531Y-57500000D01*
X49000000Y-49030000D02*
X49000000Y-46490000D01*
X72353553Y-57853553D02*
X73646446Y-59146446D01*
X53000000Y-58246036D02*
X53000000Y-55283963D01*
X71500000Y-61500000D02*
X72292893Y-61500000D01*
X65000000Y-68428000D02*
X65000000Y-70000000D01*
X49000000Y-49030000D02*
X51406207Y-51436207D01*
X74989236Y-53204900D02*
X70977745Y-53204900D01*
X70536800Y-53645845D02*
X70536800Y-56709268D01*
X68939339Y-65560659D02*
X67902018Y-66597981D01*
X73646445Y-59146447D02*
G75*
G02*
X74000001Y-60000000I-853545J-853553D01*
G01*
X84849050Y-46200000D02*
G75*
G03*
X83823144Y-46624915I-50J-1450800D01*
G01*
X51406206Y-51436208D02*
G75*
G02*
X53000010Y-55283963I-3847806J-3847792D01*
G01*
X70768401Y-57268399D02*
G75*
G03*
X71327531Y-57499986I559099J559099D01*
G01*
X74000000Y-60000000D02*
G75*
G02*
X73646445Y-60853552I-1207100J0D01*
G01*
X71500000Y-61500000D02*
G75*
G03*
X70000000Y-63000000I0J-1500000D01*
G01*
X78836992Y-51611107D02*
G75*
G02*
X74989236Y-53204910I-3847792J3847807D01*
G01*
X70665950Y-53334050D02*
G75*
G03*
X70536819Y-53645845I311750J-311750D01*
G01*
X58262208Y-65762206D02*
G75*
G03*
X62109963Y-67356010I3847792J3847806D01*
G01*
X70536800Y-56709268D02*
G75*
G03*
X70768391Y-57268409I790700J-32D01*
G01*
X65000000Y-68428000D02*
G75*
G03*
X63928000Y-67356000I-1072000J0D01*
G01*
X66072000Y-67356000D02*
G75*
G03*
X65000000Y-68428000I0J-1072000D01*
G01*
X72353552Y-57853554D02*
G75*
G03*
X71500000Y-57499999I-853552J-853546D01*
G01*
X67902018Y-66597981D02*
G75*
G02*
X66072000Y-67356010I-1830018J1829981D01*
G01*
X73499998Y-60999998D02*
G75*
G02*
X72292893Y-61499995I-1207098J1207098D01*
G01*
X70000000Y-63000000D02*
G75*
G02*
X68939336Y-65560656I-3621300J0D01*
G01*
X70977745Y-53204900D02*
G75*
G03*
X70665937Y-53334037I-45J-440900D01*
G01*
X53000000Y-58246036D02*
G75*
G03*
X54593790Y-62093794I5441550J-4D01*
G01*
%TO.N,Out -*%
X103790993Y-72500000D02*
X83707106Y-72500000D01*
X108691749Y-57808250D02*
X107770000Y-58730000D01*
X81500000Y-72000000D02*
X80987500Y-72512500D01*
X106500000Y-61796051D02*
X106500000Y-70999050D01*
X78543108Y-73525000D02*
X53475000Y-73525000D01*
X104998099Y-71999999D02*
X105143874Y-71854225D01*
X109532500Y-57460000D02*
X110025000Y-57460000D01*
X107770001Y-58730001D02*
G75*
G03*
X106500022Y-61796051I3065999J-3065999D01*
G01*
X104998098Y-71999998D02*
G75*
G02*
X103790993Y-72499995I-1207098J1207098D01*
G01*
X82500000Y-72000000D02*
G75*
G03*
X81500000Y-72000000I-500000J-499999D01*
G01*
X106500000Y-70999050D02*
G75*
G02*
X105999050Y-71500000I-501000J50D01*
G01*
X82500000Y-72000000D02*
G75*
G03*
X83707106Y-72499997I1207100J1207100D01*
G01*
X109532500Y-57460000D02*
G75*
G03*
X108691750Y-57808251I0J-1189000D01*
G01*
X80987500Y-72512500D02*
G75*
G02*
X78543108Y-73525003I-2444400J2444400D01*
G01*
X105999050Y-71500000D02*
G75*
G03*
X105143850Y-71854201I-50J-1209400D01*
G01*
%TO.N,-12V*%
X67580000Y-55100950D02*
X67580000Y-58000000D01*
X84108299Y-59737399D02*
X88118546Y-55727153D01*
X64837098Y-50555198D02*
X67155064Y-52873164D01*
X87616116Y-62616116D02*
X85365087Y-60365087D01*
X50621751Y-43000000D02*
X62292893Y-43000000D01*
X48000000Y-44950000D02*
X49000000Y-43950000D01*
X47000000Y-67500993D02*
X47000000Y-47364213D01*
X64000000Y-44646446D02*
X64000000Y-44500000D01*
X49475000Y-43475000D02*
X49000000Y-43950000D01*
X63500000Y-43500000D02*
X63646446Y-43646446D01*
X48000000Y-69834050D02*
X48000000Y-70460000D01*
X91844950Y-67447500D02*
X90971037Y-67447500D01*
X95084099Y-68789199D02*
X96794900Y-70500000D01*
X88500000Y-64976462D02*
X88500000Y-64750000D01*
X83060365Y-59500000D02*
X81900000Y-59500000D01*
X67580000Y-53899050D02*
X67580000Y-55100950D01*
X64000000Y-48534264D02*
X64000000Y-47703981D01*
X47500000Y-68708100D02*
X47557386Y-68765486D01*
X63500000Y-46496874D02*
X63500000Y-45853553D01*
X89423653Y-52576346D02*
X96000000Y-46000000D01*
X84206634Y-59974800D02*
X84422850Y-59974800D01*
X63750001Y-45250001D02*
G75*
G03*
X63500023Y-45853553I603499J-603499D01*
G01*
X87616116Y-62616116D02*
G75*
G02*
X88499990Y-64750000I-2133916J-2133884D01*
G01*
X83633500Y-59737400D02*
G75*
G03*
X84108300Y-59737400I237400J237400D01*
G01*
X63646445Y-43646447D02*
G75*
G02*
X64000001Y-44500000I-853545J-853553D01*
G01*
X63750000Y-47100428D02*
G75*
G02*
X63999999Y-47703981I-603600J-603572D01*
G01*
X63500000Y-46496874D02*
G75*
G03*
X63749998Y-47100430I853500J-26D01*
G01*
X84206634Y-59974800D02*
G75*
G02*
X83633490Y-59737410I-34J810500D01*
G01*
X95084099Y-68789199D02*
G75*
G03*
X91844950Y-67447521I-3239099J-3239101D01*
G01*
X89423653Y-52576346D02*
G75*
G03*
X88771118Y-54151750I1575347J-1575354D01*
G01*
X85365087Y-60365087D02*
G75*
G03*
X84422850Y-59974828I-942187J-942213D01*
G01*
X64000000Y-44646446D02*
G75*
G02*
X63749986Y-45249986I-853600J46D01*
G01*
X47000000Y-67500993D02*
G75*
G03*
X47499998Y-68708102I1707100J-7D01*
G01*
X64000000Y-48534264D02*
G75*
G03*
X64837087Y-50555209I2858000J-36D01*
G01*
X47557386Y-68765486D02*
G75*
G02*
X48000028Y-69834050I-1068586J-1068614D01*
G01*
X48000000Y-44950000D02*
G75*
G03*
X47000006Y-47364213I2414200J-2414200D01*
G01*
X84108299Y-59737399D02*
G75*
G03*
X84206634Y-59974718I98301J-98301D01*
G01*
X63500000Y-43500000D02*
G75*
G03*
X62292893Y-43000003I-1207100J-1207100D01*
G01*
X83633499Y-59737401D02*
G75*
G03*
X83060365Y-59500015I-573099J-573099D01*
G01*
X50621751Y-43000000D02*
G75*
G03*
X49474985Y-43474985I-51J-1621700D01*
G01*
X88771100Y-54151750D02*
G75*
G02*
X88118530Y-55727137I-2228000J50D01*
G01*
X88500000Y-64976462D02*
G75*
G03*
X89223739Y-66723761I2471000J-38D01*
G01*
X67155064Y-52873164D02*
G75*
G02*
X67580041Y-53899050I-1025864J-1025936D01*
G01*
X89223750Y-66723750D02*
G75*
G03*
X90971037Y-67447484I1747250J1747250D01*
G01*
%TO.N,Net-(Q2-B)*%
X67580000Y-60899050D02*
X67580000Y-61500000D01*
X57720500Y-57699500D02*
X57420000Y-58000000D01*
X61349550Y-57399000D02*
X58445971Y-57399000D01*
X65466106Y-58184206D02*
X67155064Y-59873164D01*
X62460000Y-56288550D02*
X62460000Y-44600000D01*
X63570450Y-57399000D02*
X61349550Y-57399000D01*
X61349550Y-57399000D02*
G75*
G03*
X62460000Y-56288550I-50J1110500D01*
G01*
X62460000Y-56288550D02*
G75*
G03*
X63570450Y-57399000I1110500J50D01*
G01*
X58445971Y-57399000D02*
G75*
G03*
X57720508Y-57699508I29J-1026000D01*
G01*
X65466105Y-58184207D02*
G75*
G03*
X63570450Y-57399047I-1895605J-1895693D01*
G01*
X67155064Y-59873164D02*
G75*
G02*
X67580041Y-60899050I-1025864J-1025936D01*
G01*
%TO.N,Net-(C4-Pad1)*%
X87121320Y-68500000D02*
X89678786Y-68500000D01*
X79000000Y-61500000D02*
X79000000Y-62085786D01*
X77585786Y-58085786D02*
X76152584Y-56652584D01*
X80000000Y-64500000D02*
X80646446Y-65146446D01*
X93693950Y-70500000D02*
X94294900Y-70500000D01*
X73370000Y-55500000D02*
X71740000Y-55500000D01*
X92093000Y-69500000D02*
X92668064Y-70075064D01*
X83500000Y-67000000D02*
X82353553Y-65853553D01*
X92093000Y-69500000D02*
G75*
G03*
X89678786Y-68500006I-2414200J-2414200D01*
G01*
X77585785Y-58085787D02*
G75*
G02*
X79000007Y-61500000I-3414185J-3414213D01*
G01*
X76152584Y-56652584D02*
G75*
G03*
X73370000Y-55500010I-2782584J-2782616D01*
G01*
X79000000Y-62085786D02*
G75*
G03*
X79999996Y-64500004I3414200J-14D01*
G01*
X80646447Y-65146445D02*
G75*
G03*
X81500000Y-65500001I853553J853545D01*
G01*
X92668064Y-70075064D02*
G75*
G03*
X93693950Y-70500041I1025936J1025864D01*
G01*
X82353552Y-65853554D02*
G75*
G03*
X81500000Y-65499999I-853552J-853546D01*
G01*
X83500000Y-67000000D02*
G75*
G03*
X87121320Y-68499991I3621300J3621300D01*
G01*
%TO.N,Out +*%
X71840000Y-63534142D02*
X71840000Y-67500000D01*
X71830000Y-63510000D02*
X71820000Y-63500000D01*
X71830000Y-63510000D02*
G75*
G02*
X71839982Y-63534142I-24100J-24100D01*
G01*
%TO.N,Uh2*%
X102379999Y-49481899D02*
X103605774Y-48256125D01*
X103960000Y-69399050D02*
X103960000Y-69900000D01*
X103605774Y-68543874D02*
X102380000Y-67318100D01*
X100800000Y-58400000D02*
X100800000Y-53296357D01*
X100800000Y-58400000D02*
X100800000Y-63503642D01*
X103960000Y-47400950D02*
X103960000Y-46900000D01*
X103960000Y-47400950D02*
G75*
G02*
X103605749Y-48256100I-1209400J50D01*
G01*
X102379999Y-49481899D02*
G75*
G03*
X100799981Y-53296357I3814501J-3814501D01*
G01*
X100800000Y-63503642D02*
G75*
G03*
X102380012Y-67318088I5394500J42D01*
G01*
X103605774Y-68543874D02*
G75*
G02*
X103960035Y-69399050I-855174J-855226D01*
G01*
%TO.N,Net-(D1-K)*%
X107088100Y-45950000D02*
X107683874Y-46545774D01*
X90700000Y-62279898D02*
X90700000Y-65400000D01*
X104794597Y-45000000D02*
X104569050Y-45000000D01*
X108539050Y-46900000D02*
X109040000Y-46900000D01*
X94560660Y-53439339D02*
X101890514Y-46109485D01*
X92439339Y-58560660D02*
X92100000Y-58900000D01*
X93500000Y-56000000D02*
G75*
G02*
X92439335Y-58560656I-3621300J0D01*
G01*
X107088099Y-45950001D02*
G75*
G03*
X104794597Y-45000002I-2293499J-2293499D01*
G01*
X107683874Y-46545774D02*
G75*
G03*
X108539050Y-46900035I855226J855174D01*
G01*
X92100000Y-58900000D02*
G75*
G03*
X90700000Y-62279898I3379900J-3379900D01*
G01*
X94560660Y-53439339D02*
G75*
G03*
X93499994Y-56000000I2560640J-2560661D01*
G01*
X104569050Y-45000000D02*
G75*
G03*
X101890494Y-46109465I-50J-3788000D01*
G01*
%TO.N,Net-(D2-A)*%
X84975543Y-65293643D02*
X83606835Y-63924935D01*
X82580950Y-63500000D02*
X81980000Y-63500000D01*
X85030000Y-65380000D02*
X86500000Y-65380000D01*
X83606834Y-63924936D02*
G75*
G03*
X82580950Y-63500030I-1025834J-1025864D01*
G01*
X84975542Y-65293644D02*
G75*
G02*
X84998103Y-65348100I-54442J-54456D01*
G01*
X84998100Y-65348100D02*
G75*
G03*
X85030000Y-65380000I31900J0D01*
G01*
%TO.N,Net-(Q1-E)*%
X78391892Y-69906207D02*
X80373164Y-67924935D01*
X71840000Y-71500000D02*
X74544136Y-71500000D01*
X81399050Y-67500000D02*
X82000000Y-67500000D01*
X71840000Y-71500000D02*
X60910121Y-71500000D01*
X59920000Y-70509878D02*
X59920000Y-70000000D01*
X81399050Y-67500000D02*
G75*
G03*
X80373144Y-67924915I-50J-1450800D01*
G01*
X60210001Y-71209999D02*
G75*
G03*
X60910121Y-71499990I700099J700099D01*
G01*
X78391892Y-69906207D02*
G75*
G02*
X74544136Y-71500010I-3847792J3847807D01*
G01*
X59920000Y-70509878D02*
G75*
G03*
X60209994Y-71210006I990100J-22D01*
G01*
%TO.N,Net-(Q2-E)*%
X69396400Y-54152263D02*
X69396400Y-55499224D01*
X67802607Y-50304507D02*
X65354225Y-47856125D01*
X70568200Y-58328200D02*
X71740000Y-59500000D01*
X65000000Y-47000950D02*
X65000000Y-46500000D01*
X67802606Y-50304508D02*
G75*
G02*
X69396410Y-54152263I-3847806J-3847792D01*
G01*
X69396400Y-55499224D02*
G75*
G03*
X70568207Y-58328193I4000800J24D01*
G01*
X65000000Y-47000950D02*
G75*
G03*
X65354250Y-47856100I1209400J50D01*
G01*
%TO.N,Net-(R6-Pad2)*%
X49000000Y-62030000D02*
X49000000Y-59490000D01*
%TO.N,Net-(J4-Pin_1)*%
X76438840Y-44688840D02*
X77950000Y-46200000D01*
X73955000Y-43660000D02*
X72500000Y-43660000D01*
X76438840Y-44688840D02*
G75*
G03*
X73955000Y-43660006I-2483840J-2483860D01*
G01*
%TD*%
%TA.AperFunction,Conductor*%
%TO.N,-12V*%
G36*
X96394900Y-70552661D02*
G01*
X96422159Y-70654394D01*
X96474820Y-70745606D01*
X96549294Y-70820080D01*
X96640506Y-70872741D01*
X96742239Y-70900000D01*
X96748453Y-70900000D01*
X96069426Y-71579024D01*
X96069788Y-71583158D01*
X96057680Y-71670890D01*
X96008706Y-71744680D01*
X95932565Y-71789914D01*
X95871545Y-71799500D01*
X95729391Y-71799500D01*
X95643048Y-71779793D01*
X95573807Y-71724574D01*
X95535380Y-71644782D01*
X95535380Y-71556218D01*
X95542938Y-71530958D01*
X95548932Y-71514884D01*
X95588991Y-71407483D01*
X95588991Y-71407475D01*
X95591855Y-71395364D01*
X95593648Y-71395787D01*
X95617521Y-71326414D01*
X95651376Y-71292206D01*
X95650258Y-71291088D01*
X96394900Y-70546446D01*
X96394900Y-70552661D01*
G37*
%TD.AperFunction*%
%TA.AperFunction,Conductor*%
G36*
X112887343Y-40519707D02*
G01*
X112956584Y-40574926D01*
X112995011Y-40654718D01*
X113000000Y-40699000D01*
X113000000Y-76301000D01*
X112980293Y-76387343D01*
X112925074Y-76456584D01*
X112845282Y-76495011D01*
X112801000Y-76500000D01*
X44699000Y-76500000D01*
X44612657Y-76480293D01*
X44543416Y-76425074D01*
X44504989Y-76345282D01*
X44500000Y-76301000D01*
X44500000Y-73000000D01*
X46644341Y-73000000D01*
X46661882Y-73200495D01*
X46664938Y-73235414D01*
X46726095Y-73463659D01*
X46726095Y-73463660D01*
X46825964Y-73677829D01*
X46825966Y-73677833D01*
X46961506Y-73871403D01*
X47128596Y-74038493D01*
X47322166Y-74174033D01*
X47322170Y-74174035D01*
X47536339Y-74273904D01*
X47716344Y-74322135D01*
X47764592Y-74335063D01*
X48000000Y-74355659D01*
X48235408Y-74335063D01*
X48463659Y-74273904D01*
X48463660Y-74273904D01*
X48463660Y-74273903D01*
X48463663Y-74273903D01*
X48677830Y-74174035D01*
X48871401Y-74038495D01*
X49038495Y-73871401D01*
X49174035Y-73677830D01*
X49273903Y-73463663D01*
X49335063Y-73235408D01*
X49355659Y-73000000D01*
X49335063Y-72764592D01*
X49318430Y-72702517D01*
X49273905Y-72536342D01*
X49273903Y-72536337D01*
X49174035Y-72322171D01*
X49038495Y-72128599D01*
X48998700Y-72088804D01*
X48951583Y-72013814D01*
X48941668Y-71925808D01*
X48970919Y-71842215D01*
X49033543Y-71779592D01*
X49069878Y-71761636D01*
X49092091Y-71753351D01*
X49207189Y-71667189D01*
X49293352Y-71552090D01*
X49293353Y-71552087D01*
X49343596Y-71417381D01*
X49343598Y-71417372D01*
X49350000Y-71357822D01*
X49350000Y-70710000D01*
X48433012Y-70710000D01*
X48465925Y-70652993D01*
X48500000Y-70525826D01*
X48500000Y-70394174D01*
X48465925Y-70267007D01*
X48433012Y-70210000D01*
X49350000Y-70210000D01*
X49350000Y-69562177D01*
X49343598Y-69502627D01*
X49343596Y-69502618D01*
X49293353Y-69367912D01*
X49293352Y-69367909D01*
X49207189Y-69252810D01*
X49092090Y-69166647D01*
X49092087Y-69166646D01*
X48957381Y-69116403D01*
X48957372Y-69116401D01*
X48897823Y-69110000D01*
X48250000Y-69110000D01*
X48250000Y-70026988D01*
X48192993Y-69994075D01*
X48065826Y-69960000D01*
X47934174Y-69960000D01*
X47807007Y-69994075D01*
X47750000Y-70026988D01*
X47750000Y-69110000D01*
X47102177Y-69110000D01*
X47042627Y-69116401D01*
X47042618Y-69116403D01*
X46907912Y-69166646D01*
X46907909Y-69166647D01*
X46792810Y-69252810D01*
X46706647Y-69367909D01*
X46706646Y-69367912D01*
X46656403Y-69502618D01*
X46656401Y-69502627D01*
X46650000Y-69562177D01*
X46650000Y-70210000D01*
X47566988Y-70210000D01*
X47534075Y-70267007D01*
X47500000Y-70394174D01*
X47500000Y-70525826D01*
X47534075Y-70652993D01*
X47566988Y-70710000D01*
X46650000Y-70710000D01*
X46650000Y-71357822D01*
X46656401Y-71417372D01*
X46656403Y-71417381D01*
X46706646Y-71552087D01*
X46706647Y-71552090D01*
X46792810Y-71667189D01*
X46907909Y-71753352D01*
X46930127Y-71761639D01*
X47004139Y-71810278D01*
X47049718Y-71886212D01*
X47057836Y-71974403D01*
X47026886Y-72057382D01*
X47001299Y-72088805D01*
X46961501Y-72128603D01*
X46825965Y-72322171D01*
X46726094Y-72536342D01*
X46664938Y-72764585D01*
X46664937Y-72764589D01*
X46664937Y-72764592D01*
X46644341Y-73000000D01*
X44500000Y-73000000D01*
X44500000Y-62030000D01*
X47774838Y-62030000D01*
X47793451Y-62242748D01*
X47793453Y-62242759D01*
X47848721Y-62449024D01*
X47848724Y-62449030D01*
X47938979Y-62642581D01*
X47979449Y-62700378D01*
X48053032Y-62805468D01*
X48061471Y-62817519D01*
X48212481Y-62968529D01*
X48387419Y-63091021D01*
X48580970Y-63181276D01*
X48580971Y-63181276D01*
X48580975Y-63181278D01*
X48787240Y-63236546D01*
X48787245Y-63236547D01*
X48787253Y-63236549D01*
X49000000Y-63255162D01*
X49212747Y-63236549D01*
X49212756Y-63236546D01*
X49212759Y-63236546D01*
X49419024Y-63181278D01*
X49419025Y-63181277D01*
X49419030Y-63181276D01*
X49612581Y-63091021D01*
X49787519Y-62968529D01*
X49938529Y-62817519D01*
X50061021Y-62642581D01*
X50151276Y-62449030D01*
X50155125Y-62434668D01*
X50206546Y-62242759D01*
X50206546Y-62242756D01*
X50206549Y-62242747D01*
X50225162Y-62030000D01*
X50206549Y-61817253D01*
X50206546Y-61817240D01*
X50151278Y-61610975D01*
X50143687Y-61594696D01*
X50132581Y-61562974D01*
X50132501Y-61563000D01*
X50131592Y-61560150D01*
X50130615Y-61557359D01*
X50130341Y-61556228D01*
X50130341Y-61556227D01*
X50130340Y-61556222D01*
X49841748Y-60833821D01*
X49828018Y-60746332D01*
X49841749Y-60686175D01*
X50130340Y-59963777D01*
X50139616Y-59936690D01*
X50147521Y-59917080D01*
X50151276Y-59909030D01*
X50206549Y-59702747D01*
X50225162Y-59490000D01*
X50206549Y-59277253D01*
X50206546Y-59277240D01*
X50151278Y-59070975D01*
X50151276Y-59070970D01*
X50061021Y-58877419D01*
X49944672Y-58711254D01*
X49938532Y-58702485D01*
X49938531Y-58702483D01*
X49938529Y-58702481D01*
X49787519Y-58551471D01*
X49787516Y-58551469D01*
X49787514Y-58551467D01*
X49612578Y-58428977D01*
X49551197Y-58400355D01*
X49481272Y-58346004D01*
X49441854Y-58266697D01*
X49440750Y-58178140D01*
X49478179Y-58097875D01*
X49546727Y-58041798D01*
X49551197Y-58039645D01*
X49612581Y-58011021D01*
X49787519Y-57888529D01*
X49938529Y-57737519D01*
X50061021Y-57562581D01*
X50151276Y-57369030D01*
X50153532Y-57360613D01*
X50206546Y-57162759D01*
X50206546Y-57162756D01*
X50206549Y-57162747D01*
X50225162Y-56950000D01*
X50206549Y-56737253D01*
X50205313Y-56732640D01*
X50151278Y-56530975D01*
X50151276Y-56530970D01*
X50061021Y-56337419D01*
X49938529Y-56162481D01*
X49787519Y-56011471D01*
X49787516Y-56011469D01*
X49787514Y-56011467D01*
X49658416Y-55921073D01*
X49612581Y-55888979D01*
X49446010Y-55811305D01*
X49419024Y-55798721D01*
X49212759Y-55743453D01*
X49212748Y-55743451D01*
X49000000Y-55724838D01*
X48787251Y-55743451D01*
X48787240Y-55743453D01*
X48580975Y-55798721D01*
X48387419Y-55888979D01*
X48212485Y-56011467D01*
X48212477Y-56011474D01*
X48061474Y-56162477D01*
X48061467Y-56162485D01*
X47938979Y-56337419D01*
X47848721Y-56530975D01*
X47793453Y-56737240D01*
X47793451Y-56737251D01*
X47774838Y-56950000D01*
X47793451Y-57162748D01*
X47793453Y-57162759D01*
X47848721Y-57369024D01*
X47848724Y-57369030D01*
X47938979Y-57562581D01*
X47981692Y-57623582D01*
X48027381Y-57688834D01*
X48061471Y-57737519D01*
X48212481Y-57888529D01*
X48387419Y-58011021D01*
X48448803Y-58039645D01*
X48518727Y-58093996D01*
X48558145Y-58173304D01*
X48559248Y-58261861D01*
X48521819Y-58342126D01*
X48453271Y-58398203D01*
X48448803Y-58400355D01*
X48387419Y-58428979D01*
X48212485Y-58551467D01*
X48212477Y-58551474D01*
X48061474Y-58702477D01*
X48061467Y-58702485D01*
X47938979Y-58877419D01*
X47848721Y-59070975D01*
X47793453Y-59277240D01*
X47793451Y-59277251D01*
X47774838Y-59490000D01*
X47793451Y-59702748D01*
X47793453Y-59702759D01*
X47848721Y-59909024D01*
X47856313Y-59925304D01*
X47867427Y-59957042D01*
X47867505Y-59957018D01*
X47868386Y-59959782D01*
X47869379Y-59962619D01*
X47869660Y-59963778D01*
X47869661Y-59963780D01*
X47869665Y-59963794D01*
X48158249Y-60686175D01*
X48171980Y-60773667D01*
X48158249Y-60833825D01*
X47869662Y-61556216D01*
X47869657Y-61556227D01*
X47860375Y-61583325D01*
X47852474Y-61602926D01*
X47848722Y-61610971D01*
X47793453Y-61817240D01*
X47793451Y-61817251D01*
X47774838Y-62030000D01*
X44500000Y-62030000D01*
X44500000Y-49030000D01*
X47774838Y-49030000D01*
X47793451Y-49242748D01*
X47793453Y-49242759D01*
X47848721Y-49449024D01*
X47848724Y-49449030D01*
X47938979Y-49642581D01*
X48061471Y-49817519D01*
X48212481Y-49968529D01*
X48212483Y-49968531D01*
X48212485Y-49968532D01*
X48251228Y-49995659D01*
X48387419Y-50091021D01*
X48387421Y-50091022D01*
X48387424Y-50091024D01*
X48442945Y-50116913D01*
X48497246Y-50142234D01*
X48516829Y-50152735D01*
X48535740Y-50164282D01*
X48535744Y-50164283D01*
X48535746Y-50164285D01*
X49056411Y-50387697D01*
X49565331Y-50606071D01*
X49627574Y-50648231D01*
X50908097Y-51928754D01*
X50913513Y-51934387D01*
X50980617Y-52006980D01*
X51128139Y-52166569D01*
X51158259Y-52199152D01*
X51168402Y-52211027D01*
X51296413Y-52373408D01*
X51389204Y-52491113D01*
X51398388Y-52503755D01*
X51596507Y-52800261D01*
X51604672Y-52813583D01*
X51618743Y-52838708D01*
X51753134Y-53078681D01*
X51778939Y-53124758D01*
X51786032Y-53138680D01*
X51935334Y-53462540D01*
X51941314Y-53476976D01*
X52064755Y-53811573D01*
X52069583Y-53826434D01*
X52166384Y-54169659D01*
X52170032Y-54184852D01*
X52239610Y-54534639D01*
X52242054Y-54550072D01*
X52283972Y-54904212D01*
X52285199Y-54919789D01*
X52299347Y-55279819D01*
X52299500Y-55287633D01*
X52299500Y-58069989D01*
X52299490Y-58070032D01*
X52299490Y-58465361D01*
X52330787Y-58902974D01*
X52393221Y-59337213D01*
X52393228Y-59337254D01*
X52486481Y-59765934D01*
X52486485Y-59765948D01*
X52603489Y-60164428D01*
X52610090Y-60186907D01*
X52610090Y-60186909D01*
X52763409Y-60597975D01*
X52945668Y-60997067D01*
X53155926Y-61382126D01*
X53393124Y-61751214D01*
X53656048Y-62102440D01*
X53656049Y-62102441D01*
X53943341Y-62433995D01*
X53943358Y-62434013D01*
X54043853Y-62534508D01*
X54043878Y-62534535D01*
X57822865Y-66313522D01*
X57823038Y-66313678D01*
X57921996Y-66412636D01*
X57922014Y-66412653D01*
X58253564Y-66699942D01*
X58253565Y-66699943D01*
X58253568Y-66699945D01*
X58253569Y-66699946D01*
X58604787Y-66962865D01*
X58973867Y-67200058D01*
X59358928Y-67410318D01*
X59758007Y-67592573D01*
X60169072Y-67745893D01*
X60294352Y-67782679D01*
X60590025Y-67869498D01*
X60590027Y-67869498D01*
X61018726Y-67962758D01*
X61018748Y-67962761D01*
X61018753Y-67962762D01*
X61181743Y-67986197D01*
X61452973Y-68025195D01*
X61452975Y-68025195D01*
X61452987Y-68025197D01*
X61890595Y-68056499D01*
X62017796Y-68056499D01*
X62017804Y-68056500D01*
X62040970Y-68056500D01*
X62109958Y-68056500D01*
X62188886Y-68056500D01*
X63849073Y-68056500D01*
X63914959Y-68056500D01*
X63940934Y-68058203D01*
X63998175Y-68065739D01*
X64048350Y-68079182D01*
X64089549Y-68096247D01*
X64134534Y-68122220D01*
X64169905Y-68149361D01*
X64206638Y-68186094D01*
X64233777Y-68221462D01*
X64259752Y-68266451D01*
X64276815Y-68307644D01*
X64290260Y-68357821D01*
X64297797Y-68415062D01*
X64299500Y-68441040D01*
X64299500Y-68661709D01*
X64287428Y-68729964D01*
X63973226Y-69590461D01*
X63973210Y-69590455D01*
X63971248Y-69596024D01*
X63969418Y-69600747D01*
X63963986Y-69619838D01*
X63962258Y-69625579D01*
X63961087Y-69629265D01*
X63959457Y-69635754D01*
X63921402Y-69769502D01*
X63878818Y-69847156D01*
X63806759Y-69898643D01*
X63719496Y-69913766D01*
X63634314Y-69889529D01*
X63568083Y-69830733D01*
X63538597Y-69769505D01*
X63490582Y-69600750D01*
X63399673Y-69418179D01*
X63399671Y-69418177D01*
X63399670Y-69418174D01*
X63308101Y-69296918D01*
X63276764Y-69255421D01*
X63276762Y-69255419D01*
X63276758Y-69255414D01*
X63126042Y-69118020D01*
X63126037Y-69118016D01*
X62952639Y-69010652D01*
X62952636Y-69010651D01*
X62762460Y-68936977D01*
X62762457Y-68936976D01*
X62762456Y-68936976D01*
X62561976Y-68899500D01*
X62358024Y-68899500D01*
X62157544Y-68936976D01*
X62157542Y-68936976D01*
X62157540Y-68936977D01*
X62157538Y-68936977D01*
X61967363Y-69010651D01*
X61967360Y-69010652D01*
X61793962Y-69118016D01*
X61793957Y-69118020D01*
X61643241Y-69255414D01*
X61643233Y-69255424D01*
X61520329Y-69418174D01*
X61431005Y-69597563D01*
X61429418Y-69600750D01*
X61421821Y-69627450D01*
X61381403Y-69769503D01*
X61338819Y-69847156D01*
X61266759Y-69898643D01*
X61179497Y-69913766D01*
X61094314Y-69889529D01*
X61028084Y-69830733D01*
X60998597Y-69769503D01*
X60983089Y-69715000D01*
X60950582Y-69600750D01*
X60859673Y-69418179D01*
X60859671Y-69418177D01*
X60859670Y-69418174D01*
X60768101Y-69296918D01*
X60736764Y-69255421D01*
X60736762Y-69255419D01*
X60736758Y-69255414D01*
X60586042Y-69118020D01*
X60586037Y-69118016D01*
X60412639Y-69010652D01*
X60412636Y-69010651D01*
X60222460Y-68936977D01*
X60222457Y-68936976D01*
X60222456Y-68936976D01*
X60021976Y-68899500D01*
X59818024Y-68899500D01*
X59617544Y-68936976D01*
X59617542Y-68936976D01*
X59617540Y-68936977D01*
X59617538Y-68936977D01*
X59427363Y-69010651D01*
X59427360Y-69010652D01*
X59253962Y-69118016D01*
X59253957Y-69118020D01*
X59103241Y-69255414D01*
X59103233Y-69255424D01*
X58980329Y-69418174D01*
X58891005Y-69597563D01*
X58889418Y-69600750D01*
X58881821Y-69627450D01*
X58833603Y-69796916D01*
X58833603Y-69796917D01*
X58814785Y-69999998D01*
X58814785Y-70000001D01*
X58823727Y-70096507D01*
X58833030Y-70196904D01*
X58833603Y-70203082D01*
X58833603Y-70203083D01*
X58889419Y-70399254D01*
X58934281Y-70489350D01*
X58939132Y-70499844D01*
X58940914Y-70504015D01*
X58941798Y-70505733D01*
X58948352Y-70517608D01*
X58980324Y-70581817D01*
X58980327Y-70581822D01*
X59015131Y-70627910D01*
X59026329Y-70644395D01*
X59361677Y-71195551D01*
X59375525Y-71222835D01*
X59390593Y-71259214D01*
X59408995Y-71291088D01*
X59499967Y-71448659D01*
X59501411Y-71451159D01*
X59501412Y-71451160D01*
X59578756Y-71551957D01*
X59584908Y-71560426D01*
X59605831Y-71590886D01*
X59607412Y-71592935D01*
X59613471Y-71599232D01*
X59627945Y-71616061D01*
X59636318Y-71626973D01*
X59653685Y-71644341D01*
X59656385Y-71647041D01*
X59656412Y-71647084D01*
X59745913Y-71736582D01*
X59793021Y-71783689D01*
X59968845Y-71918603D01*
X60160776Y-72029413D01*
X60365528Y-72114221D01*
X60579599Y-72171578D01*
X60799325Y-72200502D01*
X60910135Y-72200500D01*
X60910137Y-72200500D01*
X70087102Y-72200500D01*
X70163640Y-72215808D01*
X70706041Y-72441808D01*
X70778163Y-72493208D01*
X70820840Y-72570810D01*
X70825621Y-72659244D01*
X70791558Y-72740995D01*
X70725399Y-72799870D01*
X70640245Y-72824210D01*
X70629503Y-72824500D01*
X55420035Y-72824500D01*
X55333692Y-72804793D01*
X55299152Y-72783577D01*
X54640197Y-72279670D01*
X54638197Y-72278203D01*
X54623681Y-72267562D01*
X54614924Y-72263119D01*
X54585713Y-72244965D01*
X54567331Y-72231204D01*
X54567329Y-72231203D01*
X54545260Y-72222972D01*
X54471249Y-72174333D01*
X54425670Y-72098398D01*
X54417552Y-72010208D01*
X54448502Y-71927229D01*
X54474090Y-71895806D01*
X54513495Y-71856401D01*
X54649035Y-71662830D01*
X54748903Y-71448663D01*
X54810063Y-71220408D01*
X54830659Y-70985000D01*
X54810063Y-70749592D01*
X54780143Y-70637926D01*
X54748905Y-70521342D01*
X54747164Y-70517608D01*
X54649035Y-70307171D01*
X54513495Y-70113599D01*
X54346401Y-69946505D01*
X54346400Y-69946504D01*
X54346399Y-69946503D01*
X54248582Y-69878011D01*
X54189158Y-69812344D01*
X54164110Y-69727396D01*
X54178401Y-69639993D01*
X54229199Y-69567447D01*
X54248582Y-69551989D01*
X54283634Y-69527444D01*
X54346401Y-69483495D01*
X54513495Y-69316401D01*
X54649035Y-69122830D01*
X54748903Y-68908663D01*
X54810063Y-68680408D01*
X54830659Y-68445000D01*
X54810063Y-68209592D01*
X54783134Y-68109089D01*
X54748905Y-67981342D01*
X54739794Y-67961803D01*
X54649035Y-67767171D01*
X54513495Y-67573599D01*
X54346401Y-67406505D01*
X54346400Y-67406504D01*
X54346399Y-67406503D01*
X54152833Y-67270966D01*
X54152829Y-67270964D01*
X53938660Y-67171095D01*
X53710414Y-67109938D01*
X53710410Y-67109937D01*
X53710408Y-67109937D01*
X53475000Y-67089341D01*
X53239592Y-67109937D01*
X53239589Y-67109937D01*
X53239585Y-67109938D01*
X53011342Y-67171094D01*
X52797171Y-67270965D01*
X52603603Y-67406501D01*
X52603595Y-67406508D01*
X52436508Y-67573595D01*
X52436501Y-67573603D01*
X52300965Y-67767171D01*
X52201094Y-67981342D01*
X52139938Y-68209585D01*
X52139937Y-68209589D01*
X52139937Y-68209592D01*
X52119341Y-68445000D01*
X52138301Y-68661710D01*
X52139938Y-68680414D01*
X52201095Y-68908659D01*
X52201095Y-68908660D01*
X52300964Y-69122829D01*
X52300966Y-69122833D01*
X52436506Y-69316403D01*
X52603596Y-69483493D01*
X52701418Y-69551989D01*
X52760842Y-69617656D01*
X52785890Y-69702604D01*
X52771599Y-69790007D01*
X52720801Y-69862553D01*
X52701418Y-69878011D01*
X52603606Y-69946499D01*
X52603595Y-69946508D01*
X52436508Y-70113595D01*
X52436501Y-70113603D01*
X52300965Y-70307171D01*
X52201094Y-70521342D01*
X52139938Y-70749585D01*
X52139937Y-70749589D01*
X52139937Y-70749592D01*
X52119341Y-70985000D01*
X52137762Y-71195551D01*
X52139938Y-71220414D01*
X52201095Y-71448659D01*
X52201095Y-71448660D01*
X52300964Y-71662829D01*
X52300966Y-71662833D01*
X52436506Y-71856403D01*
X52475909Y-71895806D01*
X52523028Y-71970794D01*
X52532944Y-72058801D01*
X52503693Y-72142394D01*
X52441069Y-72205018D01*
X52404739Y-72222972D01*
X52399477Y-72224935D01*
X52382670Y-72231203D01*
X52382664Y-72231207D01*
X52267453Y-72317453D01*
X52181207Y-72432664D01*
X52181204Y-72432669D01*
X52130909Y-72567517D01*
X52124500Y-72627127D01*
X52124500Y-72627131D01*
X52124500Y-72627132D01*
X52124500Y-74422876D01*
X52130908Y-74482481D01*
X52181203Y-74617329D01*
X52181207Y-74617335D01*
X52267453Y-74732546D01*
X52333326Y-74781858D01*
X52382669Y-74818796D01*
X52517517Y-74869091D01*
X52577127Y-74875500D01*
X54289397Y-74875499D01*
X54297371Y-74876171D01*
X54297374Y-74876058D01*
X54314259Y-74876488D01*
X54331104Y-74875499D01*
X54372874Y-74875499D01*
X54382564Y-74874457D01*
X54432483Y-74869091D01*
X54466976Y-74856224D01*
X54475047Y-74853412D01*
X54514629Y-74840574D01*
X54514635Y-74840570D01*
X54521838Y-74837425D01*
X54540301Y-74828876D01*
X54567331Y-74818796D01*
X54597483Y-74796223D01*
X54619578Y-74781862D01*
X54640197Y-74770329D01*
X55299154Y-74266421D01*
X55379710Y-74229628D01*
X55420034Y-74225500D01*
X78460679Y-74225500D01*
X78460692Y-74225503D01*
X78543110Y-74225503D01*
X78724620Y-74225503D01*
X78724625Y-74225503D01*
X79086275Y-74193862D01*
X79443791Y-74130822D01*
X79794452Y-74036862D01*
X80135590Y-73912697D01*
X80464607Y-73759273D01*
X80779002Y-73577757D01*
X81076379Y-73369531D01*
X81354477Y-73136179D01*
X81360889Y-73129765D01*
X81435321Y-73082839D01*
X82011260Y-72879386D01*
X82099234Y-72869210D01*
X82127688Y-72874446D01*
X82874157Y-73068846D01*
X83065854Y-73118769D01*
X83104009Y-73127144D01*
X83112982Y-73128275D01*
X83112898Y-73128939D01*
X83134761Y-73131783D01*
X83303183Y-73170225D01*
X83571900Y-73200501D01*
X83707108Y-73200500D01*
X103790990Y-73200500D01*
X103859986Y-73200500D01*
X103871076Y-73200500D01*
X103871159Y-73200495D01*
X103926198Y-73200496D01*
X104194915Y-73170220D01*
X104458552Y-73110047D01*
X104713794Y-73020735D01*
X104957431Y-72903406D01*
X105186400Y-72759536D01*
X105397820Y-72590934D01*
X105493427Y-72495327D01*
X105499273Y-72489480D01*
X105574255Y-72442357D01*
X105662261Y-72432433D01*
X105685402Y-72436433D01*
X105710681Y-72442357D01*
X106111713Y-72536337D01*
X106141072Y-72543217D01*
X106167551Y-72551405D01*
X106177715Y-72555342D01*
X106197544Y-72563024D01*
X106398024Y-72600500D01*
X106398027Y-72600500D01*
X106601972Y-72600500D01*
X106601976Y-72600500D01*
X106802456Y-72563024D01*
X106992637Y-72489348D01*
X106992654Y-72489338D01*
X107084558Y-72432433D01*
X107166041Y-72381981D01*
X107316343Y-72244963D01*
X107316758Y-72244585D01*
X107316759Y-72244583D01*
X107316764Y-72244579D01*
X107439673Y-72081821D01*
X107530582Y-71899250D01*
X107586397Y-71703083D01*
X107605215Y-71500000D01*
X107586397Y-71296917D01*
X107530582Y-71100750D01*
X107530577Y-71100740D01*
X107529347Y-71097563D01*
X107527860Y-71093135D01*
X107527763Y-71093171D01*
X107212572Y-70229965D01*
X107200500Y-70161710D01*
X107200500Y-69900001D01*
X107934785Y-69900001D01*
X107940345Y-69960000D01*
X107953603Y-70103083D01*
X108009285Y-70298784D01*
X108009419Y-70299252D01*
X108100329Y-70481825D01*
X108223233Y-70644575D01*
X108223241Y-70644585D01*
X108327480Y-70739610D01*
X108373959Y-70781981D01*
X108373961Y-70781982D01*
X108373962Y-70781983D01*
X108547360Y-70889347D01*
X108547363Y-70889348D01*
X108737544Y-70963024D01*
X108938024Y-71000500D01*
X108938027Y-71000500D01*
X109141972Y-71000500D01*
X109141976Y-71000500D01*
X109342456Y-70963024D01*
X109532637Y-70889348D01*
X109706041Y-70781981D01*
X109825429Y-70673145D01*
X109856758Y-70644585D01*
X109856759Y-70644583D01*
X109856764Y-70644579D01*
X109979673Y-70481821D01*
X110070582Y-70299250D01*
X110126397Y-70103083D01*
X110145215Y-69900000D01*
X110143177Y-69878011D01*
X110140352Y-69847516D01*
X110126397Y-69696917D01*
X110070582Y-69500750D01*
X109979673Y-69318179D01*
X109979670Y-69318175D01*
X109979670Y-69318174D01*
X109856766Y-69155424D01*
X109856758Y-69155414D01*
X109706042Y-69018020D01*
X109706037Y-69018016D01*
X109532639Y-68910652D01*
X109532636Y-68910651D01*
X109342460Y-68836977D01*
X109342457Y-68836976D01*
X109342456Y-68836976D01*
X109141976Y-68799500D01*
X108938024Y-68799500D01*
X108737544Y-68836976D01*
X108737542Y-68836976D01*
X108737540Y-68836977D01*
X108737538Y-68836977D01*
X108547363Y-68910651D01*
X108547360Y-68910652D01*
X108373962Y-69018016D01*
X108373957Y-69018020D01*
X108223241Y-69155414D01*
X108223233Y-69155424D01*
X108100329Y-69318174D01*
X108009419Y-69500747D01*
X107953603Y-69696916D01*
X107953603Y-69696917D01*
X107934785Y-69899998D01*
X107934785Y-69900001D01*
X107200500Y-69900001D01*
X107200500Y-61800918D01*
X107200740Y-61791156D01*
X107202927Y-61746625D01*
X107217522Y-61449453D01*
X107219436Y-61430025D01*
X107268914Y-61096449D01*
X107272719Y-61077315D01*
X107354662Y-60750173D01*
X107360330Y-60731490D01*
X107395729Y-60632553D01*
X107473941Y-60413958D01*
X107481399Y-60395954D01*
X107625590Y-60091083D01*
X107634784Y-60073882D01*
X107808168Y-59784604D01*
X107819001Y-59768391D01*
X108019906Y-59497501D01*
X108032283Y-59482422D01*
X108063597Y-59447873D01*
X108261734Y-59229261D01*
X108268469Y-59222187D01*
X108307195Y-59183461D01*
X108321138Y-59169518D01*
X108321138Y-59169517D01*
X108679227Y-58811427D01*
X108754213Y-58764310D01*
X108842220Y-58754394D01*
X108863684Y-58758011D01*
X108913961Y-58769343D01*
X108993855Y-58807551D01*
X109049261Y-58876643D01*
X109069202Y-58962932D01*
X109049729Y-59049328D01*
X109010920Y-59104184D01*
X108986501Y-59128603D01*
X108850965Y-59322171D01*
X108751094Y-59536342D01*
X108689938Y-59764585D01*
X108689937Y-59764589D01*
X108689937Y-59764592D01*
X108669341Y-60000000D01*
X108688096Y-60214367D01*
X108689938Y-60235414D01*
X108751095Y-60463659D01*
X108751095Y-60463660D01*
X108850964Y-60677829D01*
X108850966Y-60677833D01*
X108986506Y-60871403D01*
X109153596Y-61038493D01*
X109347166Y-61174033D01*
X109347170Y-61174035D01*
X109561339Y-61273904D01*
X109729516Y-61318966D01*
X109789592Y-61335063D01*
X110025000Y-61355659D01*
X110260408Y-61335063D01*
X110488659Y-61273904D01*
X110488660Y-61273904D01*
X110488660Y-61273903D01*
X110488663Y-61273903D01*
X110702830Y-61174035D01*
X110896401Y-61038495D01*
X111063495Y-60871401D01*
X111199035Y-60677830D01*
X111298903Y-60463663D01*
X111360063Y-60235408D01*
X111380659Y-60000000D01*
X111360063Y-59764592D01*
X111330536Y-59654394D01*
X111298905Y-59536342D01*
X111298903Y-59536337D01*
X111199035Y-59322171D01*
X111081615Y-59154477D01*
X111063498Y-59128603D01*
X111063497Y-59128601D01*
X111063495Y-59128599D01*
X111024090Y-59089194D01*
X110976971Y-59014206D01*
X110967055Y-58926199D01*
X110996306Y-58842606D01*
X111058930Y-58779982D01*
X111095252Y-58762030D01*
X111117331Y-58753796D01*
X111232546Y-58667546D01*
X111318796Y-58552331D01*
X111369091Y-58417483D01*
X111375500Y-58357873D01*
X111375499Y-56562128D01*
X111375499Y-56562127D01*
X111375499Y-56562123D01*
X111369091Y-56502518D01*
X111368170Y-56500047D01*
X111318796Y-56367669D01*
X111282855Y-56319658D01*
X111232546Y-56252453D01*
X111117335Y-56166207D01*
X111117331Y-56166204D01*
X110982483Y-56115909D01*
X110922873Y-56109500D01*
X110922867Y-56109500D01*
X109127123Y-56109500D01*
X109067518Y-56115908D01*
X108932670Y-56166203D01*
X108932664Y-56166207D01*
X108817453Y-56252453D01*
X108731207Y-56367664D01*
X108731204Y-56367669D01*
X108680909Y-56502517D01*
X108674500Y-56562127D01*
X108674500Y-56562128D01*
X108674500Y-56562132D01*
X108674500Y-56607569D01*
X108654793Y-56693912D01*
X108628552Y-56734755D01*
X108407852Y-57000339D01*
X107940631Y-57562581D01*
X107937177Y-57566737D01*
X107925381Y-57581848D01*
X107909232Y-57600108D01*
X107332971Y-58176371D01*
X107332898Y-58176416D01*
X107134720Y-58374593D01*
X106877698Y-58675529D01*
X106877691Y-58675538D01*
X106645063Y-58995725D01*
X106438272Y-59333177D01*
X106258592Y-59685826D01*
X106107146Y-60051455D01*
X106107142Y-60051465D01*
X106107142Y-60051467D01*
X105986323Y-60423322D01*
X105984841Y-60427882D01*
X105984840Y-60427883D01*
X105892456Y-60812707D01*
X105892452Y-60812729D01*
X105830548Y-61203593D01*
X105830546Y-61203611D01*
X105825062Y-61273307D01*
X105800667Y-61583325D01*
X105799498Y-61598178D01*
X105799500Y-61746625D01*
X105799500Y-70161709D01*
X105787428Y-70229963D01*
X105744455Y-70347652D01*
X105625604Y-70673145D01*
X105577478Y-70747490D01*
X105536153Y-70778380D01*
X105170536Y-70983804D01*
X105158301Y-70989750D01*
X105158379Y-70989907D01*
X105152543Y-70992784D01*
X105080361Y-71034454D01*
X105078350Y-71035599D01*
X104979051Y-71091391D01*
X104953935Y-71106477D01*
X104952784Y-71107214D01*
X104952693Y-71107279D01*
X104951104Y-71108291D01*
X104949337Y-71109424D01*
X104949334Y-71109419D01*
X104938024Y-71116628D01*
X104935707Y-71117965D01*
X104737080Y-71270367D01*
X104737075Y-71270371D01*
X104702328Y-71305115D01*
X104697333Y-71310110D01*
X104653779Y-71353664D01*
X104648560Y-71358883D01*
X104592749Y-71414691D01*
X104592745Y-71414696D01*
X104588855Y-71418586D01*
X104588854Y-71418585D01*
X104588849Y-71418591D01*
X104588848Y-71418592D01*
X104508301Y-71499138D01*
X104496829Y-71509743D01*
X104394570Y-71597081D01*
X104369307Y-71615436D01*
X104284854Y-71667189D01*
X104261337Y-71681600D01*
X104233513Y-71695776D01*
X104116524Y-71744234D01*
X104086826Y-71753884D01*
X103963690Y-71783446D01*
X103932849Y-71788331D01*
X103846145Y-71795155D01*
X103798716Y-71798887D01*
X103783113Y-71799500D01*
X97718253Y-71799500D01*
X97631910Y-71779793D01*
X97562669Y-71724574D01*
X97524242Y-71644782D01*
X97520010Y-71583156D01*
X97520371Y-71579023D01*
X96841348Y-70900000D01*
X96847561Y-70900000D01*
X96949294Y-70872741D01*
X97040506Y-70820080D01*
X97114980Y-70745606D01*
X97167641Y-70654394D01*
X97194900Y-70552661D01*
X97194900Y-70546448D01*
X97873924Y-71225472D01*
X97873924Y-71225471D01*
X97925033Y-71152483D01*
X97925036Y-71152478D01*
X98021164Y-70946330D01*
X98021166Y-70946326D01*
X98080041Y-70726603D01*
X98099865Y-70500000D01*
X98080041Y-70273396D01*
X98021166Y-70053673D01*
X98021164Y-70053669D01*
X97925037Y-69847523D01*
X97925032Y-69847516D01*
X97873925Y-69774527D01*
X97873924Y-69774526D01*
X97194900Y-70453551D01*
X97194900Y-70447339D01*
X97167641Y-70345606D01*
X97114980Y-70254394D01*
X97040506Y-70179920D01*
X96949294Y-70127259D01*
X96847561Y-70100000D01*
X96841348Y-70100000D01*
X97520371Y-69420974D01*
X97447377Y-69369863D01*
X97447376Y-69369862D01*
X97241230Y-69273735D01*
X97241226Y-69273733D01*
X97021502Y-69214858D01*
X97021505Y-69214858D01*
X96794900Y-69195034D01*
X96568296Y-69214858D01*
X96348573Y-69273733D01*
X96348570Y-69273735D01*
X96142418Y-69369865D01*
X96142414Y-69369867D01*
X96069427Y-69420973D01*
X96069427Y-69420974D01*
X96748453Y-70100000D01*
X96742239Y-70100000D01*
X96640506Y-70127259D01*
X96549294Y-70179920D01*
X96474820Y-70254394D01*
X96422159Y-70345606D01*
X96394900Y-70447339D01*
X96394900Y-70453553D01*
X95656363Y-69715016D01*
X95642369Y-69705726D01*
X95597144Y-69629580D01*
X95591759Y-69604230D01*
X95588991Y-69592518D01*
X95579641Y-69567447D01*
X95538696Y-69457669D01*
X95503937Y-69411237D01*
X95452446Y-69342453D01*
X95337235Y-69256207D01*
X95337231Y-69256204D01*
X95202383Y-69205909D01*
X95142773Y-69199500D01*
X95142768Y-69199500D01*
X93479379Y-69199500D01*
X93464412Y-69198936D01*
X93462257Y-69198773D01*
X93458178Y-69199049D01*
X93450761Y-69199300D01*
X93447025Y-69199500D01*
X93387422Y-69205907D01*
X93387418Y-69205908D01*
X93301316Y-69238021D01*
X93293883Y-69240626D01*
X93262906Y-69250801D01*
X93262894Y-69250806D01*
X93104472Y-69329322D01*
X93018358Y-69350006D01*
X92931798Y-69331278D01*
X92875390Y-69291733D01*
X92652555Y-69068898D01*
X92652544Y-69068881D01*
X92588331Y-69004668D01*
X92588332Y-69004668D01*
X92461299Y-68877634D01*
X92186055Y-68646677D01*
X91891729Y-68440589D01*
X91661462Y-68307644D01*
X91580558Y-68260934D01*
X91254924Y-68109089D01*
X91254920Y-68109087D01*
X90969702Y-68005277D01*
X90917283Y-67986199D01*
X90917281Y-67986198D01*
X90917277Y-67986197D01*
X90917267Y-67986193D01*
X90570235Y-67893208D01*
X90570212Y-67893203D01*
X90216381Y-67830815D01*
X90216378Y-67830814D01*
X90216374Y-67830814D01*
X89858436Y-67799499D01*
X89858430Y-67799499D01*
X89678783Y-67799500D01*
X87125667Y-67799500D01*
X87116988Y-67799311D01*
X87103891Y-67798739D01*
X86744697Y-67783057D01*
X86727403Y-67781544D01*
X86362258Y-67733473D01*
X86345161Y-67730458D01*
X85985608Y-67650748D01*
X85968839Y-67646255D01*
X85617586Y-67535506D01*
X85601273Y-67529568D01*
X85261026Y-67388635D01*
X85245290Y-67381297D01*
X85182965Y-67348852D01*
X85115478Y-67291503D01*
X85079557Y-67210551D01*
X85082318Y-67122031D01*
X85123213Y-67043474D01*
X85194142Y-66990441D01*
X85281057Y-66973435D01*
X85296095Y-66974475D01*
X85352127Y-66980500D01*
X87647872Y-66980499D01*
X87647876Y-66980499D01*
X87687612Y-66976227D01*
X87707483Y-66974091D01*
X87842331Y-66923796D01*
X87957546Y-66837546D01*
X88043796Y-66722331D01*
X88094091Y-66587483D01*
X88100500Y-66527873D01*
X88100500Y-65400000D01*
X89094551Y-65400000D01*
X89114317Y-65651149D01*
X89133291Y-65730181D01*
X89169837Y-65882409D01*
X89173128Y-65896114D01*
X89181776Y-65916992D01*
X89258880Y-66103139D01*
X89269535Y-66128861D01*
X89269535Y-66128862D01*
X89401165Y-66343661D01*
X89564775Y-66535224D01*
X89756338Y-66698834D01*
X89756340Y-66698835D01*
X89756341Y-66698836D01*
X89971141Y-66830466D01*
X90203889Y-66926873D01*
X90448852Y-66985683D01*
X90700000Y-67005449D01*
X90951148Y-66985683D01*
X91196111Y-66926873D01*
X91428859Y-66830466D01*
X91643659Y-66698836D01*
X91835224Y-66535224D01*
X91998836Y-66343659D01*
X92130466Y-66128859D01*
X92226873Y-65896111D01*
X92285683Y-65651148D01*
X92305449Y-65400000D01*
X92285683Y-65148852D01*
X92226873Y-64903889D01*
X92130466Y-64671141D01*
X92120851Y-64655450D01*
X92106834Y-64632576D01*
X92097350Y-64615219D01*
X91420340Y-63214907D01*
X91400500Y-63128594D01*
X91400500Y-62284249D01*
X91400689Y-62275570D01*
X91403512Y-62210903D01*
X91415644Y-61933015D01*
X91417157Y-61915741D01*
X91461342Y-61580128D01*
X91464356Y-61563032D01*
X91465614Y-61557359D01*
X91537624Y-61232542D01*
X91542114Y-61215788D01*
X91643908Y-60892942D01*
X91649845Y-60876629D01*
X91661023Y-60849643D01*
X91779387Y-60563885D01*
X91786715Y-60548172D01*
X91943034Y-60247887D01*
X91951687Y-60232898D01*
X92133596Y-59947358D01*
X92143525Y-59933178D01*
X92349629Y-59664577D01*
X92360744Y-59651332D01*
X92547178Y-59447876D01*
X95499500Y-59447876D01*
X95505908Y-59507481D01*
X95556203Y-59642329D01*
X95556207Y-59642335D01*
X95642453Y-59757546D01*
X95678616Y-59784617D01*
X95757669Y-59843796D01*
X95892517Y-59894091D01*
X95952127Y-59900500D01*
X98047872Y-59900499D01*
X98047876Y-59900499D01*
X98087612Y-59896227D01*
X98107483Y-59894091D01*
X98242331Y-59843796D01*
X98357546Y-59757546D01*
X98443796Y-59642331D01*
X98494091Y-59507483D01*
X98500500Y-59447873D01*
X98500499Y-57352128D01*
X98500499Y-57352127D01*
X98500499Y-57352123D01*
X98494091Y-57292518D01*
X98471181Y-57231091D01*
X98443796Y-57157669D01*
X98407017Y-57108539D01*
X98357546Y-57042453D01*
X98242335Y-56956207D01*
X98242331Y-56956204D01*
X98107483Y-56905909D01*
X98047873Y-56899500D01*
X98047867Y-56899500D01*
X95952123Y-56899500D01*
X95892518Y-56905908D01*
X95757670Y-56956203D01*
X95757664Y-56956207D01*
X95642453Y-57042453D01*
X95556207Y-57157664D01*
X95556204Y-57157669D01*
X95505909Y-57292517D01*
X95499500Y-57352127D01*
X95499500Y-57352128D01*
X95499500Y-57352132D01*
X95499500Y-59447876D01*
X92547178Y-59447876D01*
X92592455Y-59398465D01*
X92598400Y-59392255D01*
X92983454Y-59007202D01*
X92983455Y-59007199D01*
X92991112Y-58999543D01*
X92991169Y-58999478D01*
X93068089Y-58922560D01*
X93106618Y-58876643D01*
X93310659Y-58633479D01*
X93310662Y-58633474D01*
X93310672Y-58633463D01*
X93527135Y-58324324D01*
X93715830Y-57997496D01*
X93875323Y-57655465D01*
X94004398Y-57300835D01*
X94102074Y-56936305D01*
X94167608Y-56564648D01*
X94200500Y-56188695D01*
X94200500Y-56004879D01*
X94200740Y-55995114D01*
X94203012Y-55948859D01*
X94214085Y-55723467D01*
X94215999Y-55704040D01*
X94255190Y-55439835D01*
X94258995Y-55420705D01*
X94323897Y-55161601D01*
X94329556Y-55142945D01*
X94419544Y-54891448D01*
X94427008Y-54873429D01*
X94541211Y-54631968D01*
X94550414Y-54614752D01*
X94587631Y-54552661D01*
X94687724Y-54385665D01*
X94698573Y-54369431D01*
X94857674Y-54154909D01*
X94870057Y-54139819D01*
X95052835Y-53938155D01*
X95059531Y-53931123D01*
X102382387Y-46608268D01*
X102389413Y-46601578D01*
X102563004Y-46444245D01*
X102640213Y-46400865D01*
X102728600Y-46395280D01*
X102810657Y-46428597D01*
X102870133Y-46494219D01*
X102895246Y-46579147D01*
X102888046Y-46646154D01*
X102873603Y-46696916D01*
X102873603Y-46696917D01*
X102854785Y-46899998D01*
X102854785Y-46900001D01*
X102863009Y-46988754D01*
X102872286Y-47088875D01*
X102873603Y-47103082D01*
X102873603Y-47103083D01*
X102911303Y-47235583D01*
X102913973Y-47247641D01*
X102914128Y-47247605D01*
X102915747Y-47254523D01*
X102915748Y-47254524D01*
X102951495Y-47407184D01*
X103023502Y-47714699D01*
X103023999Y-47803261D01*
X102986022Y-47883268D01*
X102970457Y-47900783D01*
X101829379Y-49041861D01*
X101829117Y-49042149D01*
X101730762Y-49140505D01*
X101445660Y-49469529D01*
X101184756Y-49818056D01*
X101184747Y-49818069D01*
X100949386Y-50184295D01*
X100949378Y-50184310D01*
X100740727Y-50566422D01*
X100740716Y-50566445D01*
X100559876Y-50962425D01*
X100407728Y-51370346D01*
X100285069Y-51788074D01*
X100285068Y-51788081D01*
X100192526Y-52213478D01*
X100192520Y-52213510D01*
X100130564Y-52644402D01*
X100099502Y-53078671D01*
X100099501Y-53078681D01*
X100099500Y-53227362D01*
X100099500Y-56238361D01*
X100082136Y-56319658D01*
X99419642Y-57799820D01*
X99416000Y-57808158D01*
X99415894Y-57808405D01*
X99395185Y-57866068D01*
X99390140Y-57878735D01*
X99375939Y-57911112D01*
X99375937Y-57911117D01*
X99375937Y-57911119D01*
X99350638Y-58011021D01*
X99314890Y-58152186D01*
X99294357Y-58399995D01*
X99294357Y-58400004D01*
X99314890Y-58647813D01*
X99314891Y-58647820D01*
X99314892Y-58647821D01*
X99375937Y-58888881D01*
X99404696Y-58954447D01*
X99413811Y-58979752D01*
X99419638Y-59000167D01*
X99419639Y-59000170D01*
X99726526Y-59685826D01*
X100074671Y-60463663D01*
X100082136Y-60480340D01*
X100099500Y-60561637D01*
X100099500Y-63421201D01*
X100099482Y-63421279D01*
X100099484Y-63721317D01*
X100099484Y-63721325D01*
X100099485Y-63721329D01*
X100130342Y-64152734D01*
X100130547Y-64155598D01*
X100192503Y-64586491D01*
X100192509Y-64586523D01*
X100285051Y-65011922D01*
X100285052Y-65011929D01*
X100407712Y-65429658D01*
X100559860Y-65837580D01*
X100740701Y-66233561D01*
X100740712Y-66233584D01*
X100772241Y-66291325D01*
X100949364Y-66615700D01*
X100949367Y-66615705D01*
X100949371Y-66615712D01*
X101184732Y-66981939D01*
X101184736Y-66981945D01*
X101445640Y-67330472D01*
X101445641Y-67330473D01*
X101445645Y-67330478D01*
X101721533Y-67648868D01*
X101730750Y-67659505D01*
X101830892Y-67759648D01*
X101830891Y-67759648D01*
X102970458Y-68899215D01*
X103017577Y-68974203D01*
X103027493Y-69062210D01*
X103023503Y-69085299D01*
X102915758Y-69545434D01*
X102913761Y-69554476D01*
X102910848Y-69566014D01*
X102873602Y-69696918D01*
X102854785Y-69899998D01*
X102854785Y-69900001D01*
X102860345Y-69960000D01*
X102873603Y-70103083D01*
X102929285Y-70298784D01*
X102929419Y-70299252D01*
X103020329Y-70481825D01*
X103143233Y-70644575D01*
X103143241Y-70644585D01*
X103247480Y-70739610D01*
X103293959Y-70781981D01*
X103293961Y-70781982D01*
X103293962Y-70781983D01*
X103467360Y-70889347D01*
X103467363Y-70889348D01*
X103657544Y-70963024D01*
X103858024Y-71000500D01*
X103858027Y-71000500D01*
X104061972Y-71000500D01*
X104061976Y-71000500D01*
X104262456Y-70963024D01*
X104452637Y-70889348D01*
X104626041Y-70781981D01*
X104745429Y-70673145D01*
X104776758Y-70644585D01*
X104776759Y-70644583D01*
X104776764Y-70644579D01*
X104899673Y-70481821D01*
X104990582Y-70299250D01*
X105046397Y-70103083D01*
X105065215Y-69900000D01*
X105063177Y-69878011D01*
X105060352Y-69847516D01*
X105046397Y-69696917D01*
X104990582Y-69500750D01*
X104961494Y-69442333D01*
X104954052Y-69425472D01*
X104948544Y-69411237D01*
X104928762Y-69376042D01*
X104924112Y-69367261D01*
X104899673Y-69318179D01*
X104894342Y-69311119D01*
X104879672Y-69288699D01*
X104779235Y-69110000D01*
X104476759Y-68571831D01*
X104470177Y-68558285D01*
X104470095Y-68558326D01*
X104467214Y-68552484D01*
X104436936Y-68500047D01*
X104417818Y-68466937D01*
X104416752Y-68465064D01*
X104368395Y-68379027D01*
X104353187Y-68353728D01*
X104350237Y-68349130D01*
X104350330Y-68349069D01*
X104344330Y-68339660D01*
X104344029Y-68339139D01*
X104342025Y-68335668D01*
X104189607Y-68137045D01*
X104189604Y-68137041D01*
X104189602Y-68137040D01*
X104109056Y-68056498D01*
X104109056Y-68056497D01*
X104109051Y-68056494D01*
X102878112Y-66825555D01*
X102872696Y-66819922D01*
X102630450Y-66557862D01*
X102620302Y-66545981D01*
X102596683Y-66516020D01*
X102401802Y-66268816D01*
X102392619Y-66256176D01*
X102377528Y-66233591D01*
X102196537Y-65962719D01*
X102188388Y-65949423D01*
X102015915Y-65641453D01*
X102008835Y-65627555D01*
X101861076Y-65307043D01*
X101855096Y-65292608D01*
X101846688Y-65269817D01*
X101732930Y-64961468D01*
X101728106Y-64946619D01*
X101728085Y-64946543D01*
X101632303Y-64606934D01*
X101628660Y-64591757D01*
X101627617Y-64586516D01*
X101559801Y-64245590D01*
X101557359Y-64230165D01*
X101548533Y-64155598D01*
X101515875Y-63879686D01*
X101514649Y-63864120D01*
X101514010Y-63847868D01*
X101500653Y-63507962D01*
X101500500Y-63500148D01*
X101500500Y-60561637D01*
X101517864Y-60480340D01*
X101525329Y-60463663D01*
X102117089Y-59141532D01*
X102180362Y-59000165D01*
X102182310Y-58995725D01*
X102183350Y-58993356D01*
X102183476Y-58993063D01*
X102203974Y-58936266D01*
X102203974Y-58936260D01*
X102204939Y-58933589D01*
X102209874Y-58921227D01*
X102224063Y-58888881D01*
X102285108Y-58647821D01*
X102286297Y-58633479D01*
X102305643Y-58400004D01*
X102305643Y-58399995D01*
X102285109Y-58152186D01*
X102285108Y-58152183D01*
X102285108Y-58152179D01*
X102224063Y-57911119D01*
X102195304Y-57845556D01*
X102186186Y-57820241D01*
X102180361Y-57799832D01*
X101732632Y-56799500D01*
X101517864Y-56319658D01*
X101500500Y-56238361D01*
X101500500Y-53300272D01*
X101500653Y-53292458D01*
X101506696Y-53138680D01*
X101514666Y-52935867D01*
X101515891Y-52920315D01*
X101557377Y-52569829D01*
X101559820Y-52554404D01*
X101564176Y-52532505D01*
X101628682Y-52208221D01*
X101632317Y-52193081D01*
X101728128Y-51853368D01*
X101732947Y-51838535D01*
X101855115Y-51507388D01*
X101861092Y-51492963D01*
X102008850Y-51172452D01*
X102015936Y-51158544D01*
X102188399Y-50850592D01*
X102196544Y-50837299D01*
X102392643Y-50543819D01*
X102401807Y-50531205D01*
X102620327Y-50254014D01*
X102630461Y-50242149D01*
X102873055Y-49979713D01*
X102878419Y-49974134D01*
X104102556Y-48750000D01*
X105427472Y-48750000D01*
X105469886Y-48899067D01*
X105469886Y-48899068D01*
X105560753Y-49081555D01*
X105560754Y-49081557D01*
X105683604Y-49244236D01*
X105683612Y-49244246D01*
X105834259Y-49381577D01*
X105834270Y-49381586D01*
X106007584Y-49488897D01*
X106007599Y-49488904D01*
X106197672Y-49562538D01*
X106197678Y-49562540D01*
X106250000Y-49572320D01*
X106250000Y-48750000D01*
X105427472Y-48750000D01*
X104102556Y-48750000D01*
X104149888Y-48702668D01*
X104149889Y-48702664D01*
X104156662Y-48695893D01*
X104157100Y-48695408D01*
X104189581Y-48662931D01*
X104279251Y-48546078D01*
X106150000Y-48546078D01*
X106173852Y-48635095D01*
X106219930Y-48714905D01*
X106285095Y-48780070D01*
X106364905Y-48826148D01*
X106453922Y-48850000D01*
X106546078Y-48850000D01*
X106635095Y-48826148D01*
X106714905Y-48780070D01*
X106744975Y-48750000D01*
X106750000Y-48750000D01*
X106750000Y-49572319D01*
X106802321Y-49562540D01*
X106802327Y-49562538D01*
X106992400Y-49488904D01*
X106992415Y-49488897D01*
X107165729Y-49381586D01*
X107165740Y-49381577D01*
X107316387Y-49244246D01*
X107316395Y-49244236D01*
X107439245Y-49081557D01*
X107439246Y-49081555D01*
X107530113Y-48899068D01*
X107530113Y-48899067D01*
X107572528Y-48750000D01*
X106750000Y-48750000D01*
X106744975Y-48750000D01*
X106780070Y-48714905D01*
X106826148Y-48635095D01*
X106850000Y-48546078D01*
X106850000Y-48453922D01*
X106826148Y-48364905D01*
X106780070Y-48285095D01*
X106714905Y-48219930D01*
X106635095Y-48173852D01*
X106546078Y-48150000D01*
X106453922Y-48150000D01*
X106364905Y-48173852D01*
X106285095Y-48219930D01*
X106219930Y-48285095D01*
X106173852Y-48364905D01*
X106150000Y-48453922D01*
X106150000Y-48546078D01*
X104279251Y-48546078D01*
X104341996Y-48464312D01*
X104356313Y-48439514D01*
X104364656Y-48427036D01*
X104364472Y-48426915D01*
X104368387Y-48420981D01*
X104368395Y-48420972D01*
X104418241Y-48332283D01*
X104419232Y-48330544D01*
X104465739Y-48250000D01*
X105427472Y-48250000D01*
X106250000Y-48250000D01*
X106250000Y-47427678D01*
X106249999Y-47427677D01*
X106750000Y-47427677D01*
X106750000Y-48250000D01*
X107572528Y-48250000D01*
X107530113Y-48100932D01*
X107530113Y-48100931D01*
X107439246Y-47918444D01*
X107439245Y-47918442D01*
X107316395Y-47755763D01*
X107316387Y-47755753D01*
X107165740Y-47618422D01*
X107165729Y-47618413D01*
X106992415Y-47511102D01*
X106992410Y-47511100D01*
X106802310Y-47437456D01*
X106750000Y-47427677D01*
X106249999Y-47427677D01*
X106197689Y-47437456D01*
X106007589Y-47511100D01*
X106007584Y-47511102D01*
X105834270Y-47618413D01*
X105834259Y-47618422D01*
X105683612Y-47755753D01*
X105683604Y-47755763D01*
X105560754Y-47918442D01*
X105560753Y-47918444D01*
X105469886Y-48100931D01*
X105469886Y-48100932D01*
X105427472Y-48250000D01*
X104465739Y-48250000D01*
X104467183Y-48247499D01*
X104467185Y-48247492D01*
X104470068Y-48241649D01*
X104470165Y-48241697D01*
X104476611Y-48228429D01*
X104879674Y-47511295D01*
X104894344Y-47488876D01*
X104899673Y-47481821D01*
X104924143Y-47432675D01*
X104928746Y-47423984D01*
X104948544Y-47388762D01*
X104962335Y-47362443D01*
X104962938Y-47361205D01*
X104970968Y-47340513D01*
X104978340Y-47323833D01*
X104990582Y-47299250D01*
X105046397Y-47103083D01*
X105065215Y-46900000D01*
X105046397Y-46696917D01*
X104990582Y-46500750D01*
X104899673Y-46318179D01*
X104899671Y-46318177D01*
X104899670Y-46318174D01*
X104776766Y-46155424D01*
X104776758Y-46155414D01*
X104657510Y-46046706D01*
X104606978Y-45973973D01*
X104593008Y-45886519D01*
X104618367Y-45801664D01*
X104678031Y-45736215D01*
X104760185Y-45703134D01*
X104802725Y-45700956D01*
X105068180Y-45715864D01*
X105090335Y-45718360D01*
X105349453Y-45762386D01*
X105371191Y-45767346D01*
X105612887Y-45836978D01*
X105623762Y-45840111D01*
X105644825Y-45847481D01*
X105887644Y-45948061D01*
X105907734Y-45957735D01*
X106130442Y-46080821D01*
X106137774Y-46084873D01*
X106156670Y-46096746D01*
X106371022Y-46248837D01*
X106388468Y-46262751D01*
X106588586Y-46441586D01*
X106596698Y-46449255D01*
X107243935Y-47096492D01*
X107244428Y-47096939D01*
X107277066Y-47129579D01*
X107277067Y-47129580D01*
X107360043Y-47193253D01*
X107475687Y-47281996D01*
X107500485Y-47296314D01*
X107512969Y-47304660D01*
X107513091Y-47304477D01*
X107519018Y-47308389D01*
X107519022Y-47308391D01*
X107519027Y-47308395D01*
X107607673Y-47358218D01*
X107609529Y-47359276D01*
X107692500Y-47407183D01*
X107692506Y-47407185D01*
X107698351Y-47410069D01*
X107698303Y-47410165D01*
X107711572Y-47416614D01*
X108117181Y-47644585D01*
X108491498Y-47854968D01*
X108498756Y-47859252D01*
X108547363Y-47889348D01*
X108547367Y-47889349D01*
X108547368Y-47889350D01*
X108557596Y-47893312D01*
X108574872Y-47901155D01*
X108574923Y-47901053D01*
X108577556Y-47902335D01*
X108578794Y-47902938D01*
X108618737Y-47918442D01*
X108656921Y-47933264D01*
X108657965Y-47933539D01*
X108679209Y-47940425D01*
X108706374Y-47950948D01*
X108737544Y-47963024D01*
X108938024Y-48000500D01*
X108938027Y-48000500D01*
X109141972Y-48000500D01*
X109141976Y-48000500D01*
X109342456Y-47963024D01*
X109532637Y-47889348D01*
X109706041Y-47781981D01*
X109811135Y-47686175D01*
X109856758Y-47644585D01*
X109856759Y-47644583D01*
X109856764Y-47644579D01*
X109979673Y-47481821D01*
X110070582Y-47299250D01*
X110126397Y-47103083D01*
X110145215Y-46900000D01*
X110126397Y-46696917D01*
X110070582Y-46500750D01*
X109979673Y-46318179D01*
X109979671Y-46318177D01*
X109979670Y-46318174D01*
X109856766Y-46155424D01*
X109856758Y-46155414D01*
X109706042Y-46018020D01*
X109706037Y-46018016D01*
X109532639Y-45910652D01*
X109532636Y-45910651D01*
X109342460Y-45836977D01*
X109342457Y-45836976D01*
X109342456Y-45836976D01*
X109141976Y-45799500D01*
X108938024Y-45799500D01*
X108737544Y-45836976D01*
X108737541Y-45836976D01*
X108737541Y-45836977D01*
X108737536Y-45836978D01*
X108707570Y-45848587D01*
X108681057Y-45856783D01*
X108225300Y-45963503D01*
X108136738Y-45964000D01*
X108056730Y-45926023D01*
X108039215Y-45910458D01*
X107677451Y-45548694D01*
X107677447Y-45548688D01*
X107461673Y-45332914D01*
X107461666Y-45332908D01*
X107197842Y-45111533D01*
X107197832Y-45111525D01*
X106915753Y-44914012D01*
X106915719Y-44913990D01*
X106617467Y-44741794D01*
X106305339Y-44596246D01*
X106305335Y-44596244D01*
X105981723Y-44478461D01*
X105981702Y-44478454D01*
X105649057Y-44389322D01*
X105649043Y-44389319D01*
X105309889Y-44329517D01*
X105309888Y-44329516D01*
X105309883Y-44329516D01*
X104966795Y-44299500D01*
X104863590Y-44299500D01*
X104500057Y-44299500D01*
X104490719Y-44299500D01*
X104490142Y-44299527D01*
X104373090Y-44299527D01*
X104373089Y-44299527D01*
X104373086Y-44299527D01*
X104223373Y-44312623D01*
X103982637Y-44333681D01*
X103596644Y-44401737D01*
X103596628Y-44401740D01*
X103218047Y-44503177D01*
X103218031Y-44503182D01*
X102849739Y-44637226D01*
X102849735Y-44637228D01*
X102494520Y-44802863D01*
X102155078Y-44998837D01*
X102155068Y-44998843D01*
X101834016Y-45223644D01*
X101834013Y-45223646D01*
X101533768Y-45475577D01*
X101533766Y-45475579D01*
X101449796Y-45559548D01*
X101449745Y-45559596D01*
X94010546Y-52998795D01*
X94010444Y-52998906D01*
X93931909Y-53077442D01*
X93931892Y-53077460D01*
X93689340Y-53366520D01*
X93689331Y-53366532D01*
X93472864Y-53675676D01*
X93284168Y-54002506D01*
X93124677Y-54344533D01*
X93124673Y-54344542D01*
X92995606Y-54699153D01*
X92995600Y-54699172D01*
X92897928Y-55063685D01*
X92897924Y-55063703D01*
X92832393Y-55435345D01*
X92832392Y-55435352D01*
X92801747Y-55785632D01*
X92799500Y-55811310D01*
X92799500Y-55995120D01*
X92799260Y-56004885D01*
X92785914Y-56276525D01*
X92784000Y-56295959D01*
X92744811Y-56560152D01*
X92741001Y-56579306D01*
X92676106Y-56838381D01*
X92670437Y-56857070D01*
X92580459Y-57108539D01*
X92572986Y-57126581D01*
X92458791Y-57368024D01*
X92449585Y-57385247D01*
X92312276Y-57614331D01*
X92301426Y-57630568D01*
X92142325Y-57845090D01*
X92129936Y-57860187D01*
X91947202Y-58061802D01*
X91940467Y-58068875D01*
X91660482Y-58348862D01*
X91604672Y-58404672D01*
X91563023Y-58446321D01*
X91452411Y-58556932D01*
X91172724Y-58884405D01*
X90919602Y-59232798D01*
X90919599Y-59232803D01*
X90712196Y-59571255D01*
X90694580Y-59600001D01*
X90694577Y-59600006D01*
X90499075Y-59983702D01*
X90499067Y-59983719D01*
X90334267Y-60381583D01*
X90201194Y-60791137D01*
X90201191Y-60791147D01*
X90201191Y-60791149D01*
X90189161Y-60841259D01*
X90100657Y-61209904D01*
X90100655Y-61209911D01*
X90033290Y-61635242D01*
X90033289Y-61635250D01*
X89999500Y-62064579D01*
X89999500Y-63128288D01*
X89979793Y-63214631D01*
X89979660Y-63214907D01*
X89302646Y-64615224D01*
X89293165Y-64632576D01*
X89269536Y-64671137D01*
X89269532Y-64671145D01*
X89173128Y-64903885D01*
X89114317Y-65148850D01*
X89094551Y-65400000D01*
X88100500Y-65400000D01*
X88100499Y-64232128D01*
X88100499Y-64232123D01*
X88094091Y-64172518D01*
X88087781Y-64155598D01*
X88043796Y-64037669D01*
X88006281Y-63987555D01*
X87957546Y-63922453D01*
X87842335Y-63836207D01*
X87842331Y-63836204D01*
X87707483Y-63785909D01*
X87647873Y-63779500D01*
X87647867Y-63779500D01*
X85352123Y-63779500D01*
X85292518Y-63785908D01*
X85157670Y-63836203D01*
X85157664Y-63836207D01*
X85042452Y-63922454D01*
X84988525Y-63994492D01*
X84921005Y-64051802D01*
X84835305Y-64074141D01*
X84748400Y-64057084D01*
X84688505Y-64015948D01*
X84169315Y-63496758D01*
X84169303Y-63496744D01*
X84161469Y-63488910D01*
X84161399Y-63488799D01*
X84016743Y-63344147D01*
X83944962Y-63286907D01*
X83934585Y-63278033D01*
X83901901Y-63248082D01*
X83901900Y-63248081D01*
X83868910Y-63225561D01*
X83857042Y-63216796D01*
X83827827Y-63193498D01*
X83827822Y-63193494D01*
X83757101Y-63149060D01*
X83750774Y-63144915D01*
X82862801Y-62538740D01*
X82834284Y-62515098D01*
X82819141Y-62499955D01*
X82819139Y-62499953D01*
X82632734Y-62369432D01*
X82426496Y-62273261D01*
X82426497Y-62273261D01*
X82426490Y-62273258D01*
X82206704Y-62214367D01*
X82206692Y-62214365D01*
X81980000Y-62194532D01*
X81753307Y-62214365D01*
X81753295Y-62214367D01*
X81533509Y-62273258D01*
X81327266Y-62369432D01*
X81140858Y-62499955D01*
X80979955Y-62660858D01*
X80849432Y-62847266D01*
X80753258Y-63053509D01*
X80694367Y-63273295D01*
X80694365Y-63273307D01*
X80674532Y-63500000D01*
X80690765Y-63685543D01*
X80678658Y-63773275D01*
X80629684Y-63847066D01*
X80553544Y-63892300D01*
X80465318Y-63900019D01*
X80382480Y-63868693D01*
X80344140Y-63835491D01*
X80317730Y-63805937D01*
X80299990Y-63786086D01*
X80286079Y-63768641D01*
X80122919Y-63538690D01*
X80111045Y-63519794D01*
X80100105Y-63500000D01*
X79974643Y-63272992D01*
X79964965Y-63252893D01*
X79857065Y-62992397D01*
X79849694Y-62971334D01*
X79835214Y-62921073D01*
X79771629Y-62700364D01*
X79766671Y-62678635D01*
X79719439Y-62400640D01*
X79716942Y-62378483D01*
X79701037Y-62095241D01*
X79700813Y-62091253D01*
X79700500Y-62080096D01*
X79700500Y-61582435D01*
X79700507Y-61582404D01*
X79700507Y-61282774D01*
X79699762Y-61273307D01*
X79666419Y-60849642D01*
X79599619Y-60427882D01*
X79598456Y-60420537D01*
X79598450Y-60420506D01*
X79497029Y-59998065D01*
X79416427Y-59750000D01*
X80621127Y-59750000D01*
X80673731Y-59946321D01*
X80769865Y-60152483D01*
X80769867Y-60152486D01*
X80900339Y-60338818D01*
X81061181Y-60499660D01*
X81247513Y-60630132D01*
X81247516Y-60630134D01*
X81453679Y-60726268D01*
X81453678Y-60726268D01*
X81649999Y-60778872D01*
X81650000Y-60778872D01*
X81650000Y-59815686D01*
X81654394Y-59820080D01*
X81745606Y-59872741D01*
X81847339Y-59900000D01*
X81952661Y-59900000D01*
X82054394Y-59872741D01*
X82145606Y-59820080D01*
X82150000Y-59815686D01*
X82150000Y-60778872D01*
X82346321Y-60726268D01*
X82552483Y-60630134D01*
X82552486Y-60630132D01*
X82738818Y-60499660D01*
X82899660Y-60338818D01*
X83030132Y-60152486D01*
X83030134Y-60152483D01*
X83126268Y-59946321D01*
X83178872Y-59750000D01*
X82215686Y-59750000D01*
X82220080Y-59745606D01*
X82272741Y-59654394D01*
X82300000Y-59552661D01*
X82300000Y-59447339D01*
X82272741Y-59345606D01*
X82220080Y-59254394D01*
X82215686Y-59250000D01*
X83178872Y-59250000D01*
X83178872Y-59249999D01*
X83126268Y-59053678D01*
X83030134Y-58847516D01*
X83030132Y-58847513D01*
X82899660Y-58661181D01*
X82738818Y-58500339D01*
X82552486Y-58369867D01*
X82552483Y-58369865D01*
X82346330Y-58273735D01*
X82346325Y-58273733D01*
X82150000Y-58221127D01*
X82150000Y-59184314D01*
X82145606Y-59179920D01*
X82054394Y-59127259D01*
X81952661Y-59100000D01*
X81847339Y-59100000D01*
X81745606Y-59127259D01*
X81654394Y-59179920D01*
X81650000Y-59184314D01*
X81650000Y-58221127D01*
X81649999Y-58221127D01*
X81453674Y-58273733D01*
X81453669Y-58273735D01*
X81247516Y-58369865D01*
X81247513Y-58369867D01*
X81061181Y-58500339D01*
X80900339Y-58661181D01*
X80769867Y-58847513D01*
X80769865Y-58847516D01*
X80673731Y-59053678D01*
X80621127Y-59249999D01*
X80621128Y-59250000D01*
X81584314Y-59250000D01*
X81579920Y-59254394D01*
X81527259Y-59345606D01*
X81500000Y-59447339D01*
X81500000Y-59552661D01*
X81527259Y-59654394D01*
X81579920Y-59745606D01*
X81584314Y-59750000D01*
X80621127Y-59750000D01*
X79416427Y-59750000D01*
X79362774Y-59584873D01*
X79359965Y-59578091D01*
X79196508Y-59183472D01*
X78999264Y-58796361D01*
X78974433Y-58755840D01*
X78772257Y-58425921D01*
X78544998Y-58113129D01*
X78516882Y-58074431D01*
X78234719Y-57744062D01*
X78129901Y-57639245D01*
X78129900Y-57639243D01*
X76709390Y-56218733D01*
X76709366Y-56218695D01*
X76504818Y-56014150D01*
X76504809Y-56014142D01*
X76504798Y-56014131D01*
X76194706Y-55753935D01*
X75863116Y-55521756D01*
X75825433Y-55500000D01*
X80594532Y-55500000D01*
X80614365Y-55726692D01*
X80614367Y-55726704D01*
X80673258Y-55946490D01*
X80673261Y-55946496D01*
X80769432Y-56152734D01*
X80899953Y-56339139D01*
X81060861Y-56500047D01*
X81247266Y-56630568D01*
X81453504Y-56726739D01*
X81453505Y-56726739D01*
X81453509Y-56726741D01*
X81673295Y-56785632D01*
X81673299Y-56785632D01*
X81673308Y-56785635D01*
X81900000Y-56805468D01*
X82126692Y-56785635D01*
X82126701Y-56785632D01*
X82126704Y-56785632D01*
X82346490Y-56726741D01*
X82346491Y-56726740D01*
X82346496Y-56726739D01*
X82552734Y-56630568D01*
X82739139Y-56500047D01*
X82900047Y-56339139D01*
X83030568Y-56152734D01*
X83126739Y-55946496D01*
X83164528Y-55805467D01*
X83185632Y-55726704D01*
X83185632Y-55726701D01*
X83185635Y-55726692D01*
X83205468Y-55500000D01*
X83185635Y-55273308D01*
X83185632Y-55273295D01*
X83171352Y-55220000D01*
X84894551Y-55220000D01*
X84911853Y-55439847D01*
X84914317Y-55471148D01*
X84952485Y-55630132D01*
X84973128Y-55716114D01*
X85069535Y-55948861D01*
X85069535Y-55948862D01*
X85201165Y-56163661D01*
X85364775Y-56355224D01*
X85556338Y-56518834D01*
X85556340Y-56518835D01*
X85556341Y-56518836D01*
X85771141Y-56650466D01*
X86003889Y-56746873D01*
X86248852Y-56805683D01*
X86500000Y-56825449D01*
X86751148Y-56805683D01*
X86996111Y-56746873D01*
X87228859Y-56650466D01*
X87443659Y-56518836D01*
X87596993Y-56387876D01*
X89099500Y-56387876D01*
X89105908Y-56447481D01*
X89156203Y-56582329D01*
X89156207Y-56582335D01*
X89242453Y-56697546D01*
X89308346Y-56746873D01*
X89357669Y-56783796D01*
X89492517Y-56834091D01*
X89552127Y-56840500D01*
X91847872Y-56840499D01*
X91847876Y-56840499D01*
X91887612Y-56836227D01*
X91907483Y-56834091D01*
X92042331Y-56783796D01*
X92157546Y-56697546D01*
X92243796Y-56582331D01*
X92294091Y-56447483D01*
X92300500Y-56387873D01*
X92300499Y-54092128D01*
X92300499Y-54092127D01*
X92300499Y-54092123D01*
X92294091Y-54032518D01*
X92282898Y-54002506D01*
X92243796Y-53897669D01*
X92221750Y-53868219D01*
X92157546Y-53782453D01*
X92042335Y-53696207D01*
X92042331Y-53696204D01*
X91907483Y-53645909D01*
X91847873Y-53639500D01*
X91847867Y-53639500D01*
X89552123Y-53639500D01*
X89492518Y-53645908D01*
X89357670Y-53696203D01*
X89357664Y-53696207D01*
X89242453Y-53782453D01*
X89156207Y-53897664D01*
X89156204Y-53897669D01*
X89105909Y-54032517D01*
X89099500Y-54092127D01*
X89099500Y-54092128D01*
X89099500Y-54092132D01*
X89099500Y-56387876D01*
X87596993Y-56387876D01*
X87635224Y-56355224D01*
X87798836Y-56163659D01*
X87930466Y-55948859D01*
X88026873Y-55716111D01*
X88085683Y-55471148D01*
X88105449Y-55220000D01*
X88085683Y-54968852D01*
X88026873Y-54723889D01*
X87930466Y-54491141D01*
X87855882Y-54369432D01*
X87798834Y-54276338D01*
X87635224Y-54084775D01*
X87443661Y-53921165D01*
X87228861Y-53789535D01*
X87206539Y-53780289D01*
X87132451Y-53749601D01*
X86996114Y-53693128D01*
X86996112Y-53693127D01*
X86996111Y-53693127D01*
X86863045Y-53661181D01*
X86751149Y-53634317D01*
X86500000Y-53614551D01*
X86248850Y-53634317D01*
X86003885Y-53693128D01*
X85771138Y-53789535D01*
X85771137Y-53789535D01*
X85556338Y-53921165D01*
X85364775Y-54084775D01*
X85201165Y-54276338D01*
X85069535Y-54491137D01*
X85069535Y-54491138D01*
X84973128Y-54723885D01*
X84914317Y-54968850D01*
X84894551Y-55220000D01*
X83171352Y-55220000D01*
X83126741Y-55053509D01*
X83126739Y-55053504D01*
X83030568Y-54847266D01*
X82900047Y-54660861D01*
X82739139Y-54499953D01*
X82552734Y-54369432D01*
X82346496Y-54273261D01*
X82346497Y-54273261D01*
X82346490Y-54273258D01*
X82126704Y-54214367D01*
X82126692Y-54214365D01*
X81900000Y-54194532D01*
X81673307Y-54214365D01*
X81673295Y-54214367D01*
X81453509Y-54273258D01*
X81247266Y-54369432D01*
X81060858Y-54499955D01*
X80899955Y-54660858D01*
X80769432Y-54847266D01*
X80673258Y-55053509D01*
X80614367Y-55273295D01*
X80614365Y-55273307D01*
X80594532Y-55500000D01*
X75825433Y-55500000D01*
X75512553Y-55319359D01*
X75512552Y-55319358D01*
X75512546Y-55319355D01*
X75145680Y-55148285D01*
X74765312Y-55009844D01*
X74765307Y-55009842D01*
X74765300Y-55009840D01*
X74569799Y-54957456D01*
X74374307Y-54905074D01*
X74374293Y-54905071D01*
X73975658Y-54834781D01*
X73975657Y-54834780D01*
X73975652Y-54834780D01*
X73572398Y-54799500D01*
X73572393Y-54799500D01*
X73492900Y-54799500D01*
X73416362Y-54784192D01*
X72251367Y-54298779D01*
X72251363Y-54298777D01*
X72232125Y-54291955D01*
X72157335Y-54244522D01*
X72110532Y-54169335D01*
X72100986Y-54081288D01*
X72130587Y-53997818D01*
X72193474Y-53935458D01*
X72277189Y-53906559D01*
X72298639Y-53905400D01*
X74906803Y-53905400D01*
X74906846Y-53905409D01*
X74989241Y-53905409D01*
X74989241Y-53905410D01*
X75208604Y-53905409D01*
X75646213Y-53874108D01*
X75832896Y-53847266D01*
X76080450Y-53811672D01*
X76080459Y-53811670D01*
X76080475Y-53811668D01*
X76509175Y-53718408D01*
X76930131Y-53594803D01*
X77341196Y-53441482D01*
X77740276Y-53259227D01*
X78125337Y-53048967D01*
X78142466Y-53037959D01*
X78494400Y-52811785D01*
X78494405Y-52811781D01*
X78494418Y-52811773D01*
X78845637Y-52548854D01*
X79177205Y-52261549D01*
X79272195Y-52166558D01*
X79272202Y-52166553D01*
X79283532Y-52155222D01*
X79283535Y-52155221D01*
X84114459Y-47324295D01*
X84189445Y-47277178D01*
X84277452Y-47267262D01*
X84297907Y-47270654D01*
X84984208Y-47421574D01*
X84995044Y-47424723D01*
X84995107Y-47424489D01*
X85003503Y-47426738D01*
X85003504Y-47426739D01*
X85223308Y-47485635D01*
X85450000Y-47505468D01*
X85676692Y-47485635D01*
X85676701Y-47485632D01*
X85676704Y-47485632D01*
X85896490Y-47426741D01*
X85896491Y-47426740D01*
X85896496Y-47426739D01*
X86102734Y-47330568D01*
X86289139Y-47200047D01*
X86441310Y-47047876D01*
X90699500Y-47047876D01*
X90705908Y-47107481D01*
X90756203Y-47242329D01*
X90756207Y-47242335D01*
X90842453Y-47357546D01*
X90912744Y-47410165D01*
X90957669Y-47443796D01*
X91092517Y-47494091D01*
X91152127Y-47500500D01*
X93247872Y-47500499D01*
X93247876Y-47500499D01*
X93287612Y-47496227D01*
X93307483Y-47494091D01*
X93442331Y-47443796D01*
X93557546Y-47357546D01*
X93643796Y-47242331D01*
X93694091Y-47107483D01*
X93700500Y-47047873D01*
X93700500Y-46000004D01*
X94494859Y-46000004D01*
X94515385Y-46247730D01*
X94576413Y-46488720D01*
X94676265Y-46716364D01*
X94676267Y-46716366D01*
X94776564Y-46869882D01*
X95517037Y-46129409D01*
X95534075Y-46192993D01*
X95599901Y-46307007D01*
X95692993Y-46400099D01*
X95807007Y-46465925D01*
X95870590Y-46482962D01*
X95129942Y-47223609D01*
X95129942Y-47223610D01*
X95176765Y-47260053D01*
X95176767Y-47260054D01*
X95395387Y-47378366D01*
X95630511Y-47459083D01*
X95875702Y-47499999D01*
X95875708Y-47500000D01*
X96124292Y-47500000D01*
X96124297Y-47499999D01*
X96369488Y-47459083D01*
X96604612Y-47378366D01*
X96823229Y-47260056D01*
X96870056Y-47223609D01*
X96129410Y-46482962D01*
X96192993Y-46465925D01*
X96307007Y-46400099D01*
X96400099Y-46307007D01*
X96465925Y-46192993D01*
X96482962Y-46129409D01*
X97223434Y-46869882D01*
X97223435Y-46869881D01*
X97323728Y-46716374D01*
X97323734Y-46716364D01*
X97423586Y-46488720D01*
X97484614Y-46247730D01*
X97505141Y-46000004D01*
X97505141Y-45999995D01*
X97484614Y-45752269D01*
X97423586Y-45511279D01*
X97323734Y-45283635D01*
X97323728Y-45283625D01*
X97223435Y-45130117D01*
X96482962Y-45870589D01*
X96465925Y-45807007D01*
X96400099Y-45692993D01*
X96307007Y-45599901D01*
X96192993Y-45534075D01*
X96129410Y-45517037D01*
X96870057Y-44776389D01*
X96823233Y-44739946D01*
X96823232Y-44739945D01*
X96604612Y-44621633D01*
X96369488Y-44540916D01*
X96124297Y-44500000D01*
X95875702Y-44500000D01*
X95630511Y-44540916D01*
X95395384Y-44621634D01*
X95176773Y-44739941D01*
X95176769Y-44739943D01*
X95129942Y-44776389D01*
X95870590Y-45517037D01*
X95807007Y-45534075D01*
X95692993Y-45599901D01*
X95599901Y-45692993D01*
X95534075Y-45807007D01*
X95517037Y-45870589D01*
X94776564Y-45130116D01*
X94776563Y-45130116D01*
X94676270Y-45283627D01*
X94676265Y-45283635D01*
X94576413Y-45511279D01*
X94515385Y-45752269D01*
X94494859Y-45999995D01*
X94494859Y-46000004D01*
X93700500Y-46000004D01*
X93700499Y-44952128D01*
X93700499Y-44952127D01*
X93700499Y-44952123D01*
X93694091Y-44892518D01*
X93692004Y-44886921D01*
X93643796Y-44757669D01*
X93621750Y-44728219D01*
X93557546Y-44642453D01*
X93442335Y-44556207D01*
X93442331Y-44556204D01*
X93307483Y-44505909D01*
X93247873Y-44499500D01*
X93247867Y-44499500D01*
X91152123Y-44499500D01*
X91092518Y-44505908D01*
X90957670Y-44556203D01*
X90957664Y-44556207D01*
X90842453Y-44642453D01*
X90756207Y-44757664D01*
X90756204Y-44757669D01*
X90705909Y-44892517D01*
X90699500Y-44952127D01*
X90699500Y-44952128D01*
X90699500Y-44952132D01*
X90699500Y-47047876D01*
X86441310Y-47047876D01*
X86450047Y-47039139D01*
X86580568Y-46852734D01*
X86676739Y-46646496D01*
X86715792Y-46500750D01*
X86735632Y-46426704D01*
X86735632Y-46426701D01*
X86735635Y-46426692D01*
X86755468Y-46200000D01*
X86735635Y-45973308D01*
X86733008Y-45963503D01*
X86676741Y-45753509D01*
X86668736Y-45736342D01*
X86580568Y-45547266D01*
X86450047Y-45360861D01*
X86289139Y-45199953D01*
X86102734Y-45069432D01*
X85930272Y-44989011D01*
X85896490Y-44973258D01*
X85676704Y-44914367D01*
X85676692Y-44914365D01*
X85450000Y-44894532D01*
X85223307Y-44914365D01*
X85223295Y-44914367D01*
X85003509Y-44973258D01*
X84797266Y-45069432D01*
X84610867Y-45199948D01*
X84610860Y-45199954D01*
X84595709Y-45215104D01*
X84567198Y-45238739D01*
X83678591Y-45845346D01*
X83672267Y-45849489D01*
X83602201Y-45893513D01*
X83602193Y-45893519D01*
X83602192Y-45893520D01*
X83590182Y-45903097D01*
X83573280Y-45916575D01*
X83561417Y-45925335D01*
X83528028Y-45948129D01*
X83521315Y-45952792D01*
X83521047Y-45952981D01*
X83473672Y-45990931D01*
X83466469Y-45998012D01*
X83466391Y-45997933D01*
X83445228Y-46018688D01*
X83413276Y-46044169D01*
X83413270Y-46044175D01*
X83381625Y-46075818D01*
X83381593Y-46075848D01*
X83311147Y-46146295D01*
X83311145Y-46146297D01*
X83272031Y-46185410D01*
X78344427Y-51113014D01*
X78338794Y-51118430D01*
X78074041Y-51363165D01*
X78062159Y-51373313D01*
X77782092Y-51594099D01*
X77769452Y-51603283D01*
X77472939Y-51801407D01*
X77459616Y-51809572D01*
X77148435Y-51983842D01*
X77134512Y-51990935D01*
X76810662Y-52140232D01*
X76796227Y-52146212D01*
X76461625Y-52269655D01*
X76446764Y-52274483D01*
X76103539Y-52371284D01*
X76088346Y-52374932D01*
X75738559Y-52444510D01*
X75723126Y-52446954D01*
X75368986Y-52488872D01*
X75353409Y-52490099D01*
X74993379Y-52504247D01*
X74985565Y-52504400D01*
X70899791Y-52504400D01*
X70899535Y-52504411D01*
X70887968Y-52504411D01*
X70710513Y-52532503D01*
X70710505Y-52532505D01*
X70539615Y-52588019D01*
X70379513Y-52669586D01*
X70379511Y-52669588D01*
X70227826Y-52779790D01*
X70226219Y-52777579D01*
X70160683Y-52811575D01*
X70072159Y-52814207D01*
X69991260Y-52778169D01*
X69934008Y-52710599D01*
X69916204Y-52661268D01*
X69909908Y-52632324D01*
X69786302Y-52211368D01*
X69632982Y-51800304D01*
X69450727Y-51401224D01*
X69450722Y-51401214D01*
X69240470Y-51016166D01*
X69003276Y-50647087D01*
X69003272Y-50647081D01*
X68740351Y-50295858D01*
X68740350Y-50295857D01*
X68453055Y-49964300D01*
X68453050Y-49964295D01*
X68353674Y-49864918D01*
X68353656Y-49864898D01*
X65989541Y-47500783D01*
X65942422Y-47425795D01*
X65932506Y-47337788D01*
X65936496Y-47314698D01*
X65937972Y-47308395D01*
X66044251Y-46854525D01*
X66046236Y-46845530D01*
X66049142Y-46834017D01*
X66086397Y-46703083D01*
X66105215Y-46500000D01*
X66104288Y-46490000D01*
X66100513Y-46449255D01*
X66086397Y-46296917D01*
X66058821Y-46200000D01*
X71144341Y-46200000D01*
X71164341Y-46428597D01*
X71164938Y-46435414D01*
X71226095Y-46663659D01*
X71226095Y-46663660D01*
X71325964Y-46877829D01*
X71325966Y-46877833D01*
X71461506Y-47071403D01*
X71628596Y-47238493D01*
X71822166Y-47374033D01*
X71822170Y-47374035D01*
X72036339Y-47473904D01*
X72216344Y-47522135D01*
X72264592Y-47535063D01*
X72500000Y-47555659D01*
X72735408Y-47535063D01*
X72963659Y-47473904D01*
X72963660Y-47473904D01*
X72963660Y-47473903D01*
X72963663Y-47473903D01*
X73177830Y-47374035D01*
X73199694Y-47358726D01*
X73262572Y-47314698D01*
X73371401Y-47238495D01*
X73538495Y-47071401D01*
X73674035Y-46877830D01*
X73773903Y-46663663D01*
X73835063Y-46435408D01*
X73855659Y-46200000D01*
X73835063Y-45964592D01*
X73822627Y-45918179D01*
X73773905Y-45736342D01*
X73764648Y-45716490D01*
X73674035Y-45522171D01*
X73545585Y-45338724D01*
X73538498Y-45328603D01*
X73538497Y-45328601D01*
X73538495Y-45328599D01*
X73499200Y-45289304D01*
X73452081Y-45214316D01*
X73442165Y-45126309D01*
X73471416Y-45042716D01*
X73534040Y-44980092D01*
X73556523Y-44968814D01*
X73556414Y-44968599D01*
X73556883Y-44968361D01*
X73561204Y-44966465D01*
X73568166Y-44962974D01*
X73574719Y-44960441D01*
X73574751Y-44960525D01*
X73577395Y-44959365D01*
X73592331Y-44953796D01*
X73645796Y-44913770D01*
X73658441Y-44905046D01*
X73687012Y-44886921D01*
X74208884Y-44440035D01*
X74287284Y-44398845D01*
X74367514Y-44394344D01*
X74493975Y-44413102D01*
X74513098Y-44416906D01*
X74761864Y-44479218D01*
X74780528Y-44484880D01*
X75021982Y-44571274D01*
X75040001Y-44578737D01*
X75271812Y-44688375D01*
X75289034Y-44697580D01*
X75508989Y-44829414D01*
X75525222Y-44840261D01*
X75663600Y-44942889D01*
X75731180Y-44993010D01*
X75746275Y-45005398D01*
X75939801Y-45180797D01*
X75946876Y-45187533D01*
X76215185Y-45455842D01*
X76258482Y-45520787D01*
X76739018Y-46687803D01*
X76739020Y-46687807D01*
X76762506Y-46737097D01*
X76767573Y-46745491D01*
X76766913Y-46745889D01*
X76779157Y-46766365D01*
X76819432Y-46852734D01*
X76949953Y-47039139D01*
X77110861Y-47200047D01*
X77297266Y-47330568D01*
X77503504Y-47426739D01*
X77503505Y-47426739D01*
X77503509Y-47426741D01*
X77723295Y-47485632D01*
X77723299Y-47485632D01*
X77723308Y-47485635D01*
X77950000Y-47505468D01*
X78176692Y-47485635D01*
X78176701Y-47485632D01*
X78176704Y-47485632D01*
X78396490Y-47426741D01*
X78396491Y-47426740D01*
X78396496Y-47426739D01*
X78602734Y-47330568D01*
X78789139Y-47200047D01*
X78950047Y-47039139D01*
X79080568Y-46852734D01*
X79176739Y-46646496D01*
X79215792Y-46500750D01*
X79235632Y-46426704D01*
X79235632Y-46426701D01*
X79235635Y-46426692D01*
X79255468Y-46200000D01*
X79235635Y-45973308D01*
X79233008Y-45963503D01*
X79176741Y-45753509D01*
X79168736Y-45736342D01*
X79080568Y-45547266D01*
X78950047Y-45360861D01*
X78789139Y-45199953D01*
X78602734Y-45069432D01*
X78602733Y-45069431D01*
X78602731Y-45069430D01*
X78474760Y-45009755D01*
X78457680Y-45000758D01*
X78455128Y-44999251D01*
X78437787Y-44989011D01*
X78437784Y-44989010D01*
X78437783Y-44989009D01*
X77270786Y-44508481D01*
X77205841Y-44465184D01*
X76998393Y-44257736D01*
X76998379Y-44257714D01*
X76804105Y-44063440D01*
X76804097Y-44063433D01*
X76522266Y-43826951D01*
X76220897Y-43615931D01*
X76220895Y-43615930D01*
X76220891Y-43615927D01*
X76220885Y-43615924D01*
X75902286Y-43431982D01*
X75568854Y-43276500D01*
X75568850Y-43276498D01*
X75223146Y-43150674D01*
X75223125Y-43150667D01*
X74867777Y-43055452D01*
X74867763Y-43055449D01*
X74505460Y-42991565D01*
X74505459Y-42991564D01*
X74505454Y-42991564D01*
X74413990Y-42983562D01*
X74329693Y-42956404D01*
X74305342Y-42939354D01*
X74291968Y-42928415D01*
X73678231Y-42426409D01*
X73655595Y-42408939D01*
X73648361Y-42405115D01*
X73622102Y-42388490D01*
X73592335Y-42366206D01*
X73592331Y-42366204D01*
X73543440Y-42347969D01*
X73532780Y-42343638D01*
X73528386Y-42341703D01*
X73521010Y-42339065D01*
X73517371Y-42337930D01*
X73507114Y-42334419D01*
X73457487Y-42315909D01*
X73433639Y-42313345D01*
X73397873Y-42309500D01*
X73397867Y-42309500D01*
X71602123Y-42309500D01*
X71542518Y-42315908D01*
X71407670Y-42366203D01*
X71407664Y-42366207D01*
X71292453Y-42452453D01*
X71206207Y-42567664D01*
X71206204Y-42567669D01*
X71155909Y-42702517D01*
X71149500Y-42762127D01*
X71149500Y-42762131D01*
X71149500Y-42762132D01*
X71149500Y-44557876D01*
X71155908Y-44617481D01*
X71206203Y-44752329D01*
X71206207Y-44752335D01*
X71292453Y-44867546D01*
X71378219Y-44931750D01*
X71407669Y-44953796D01*
X71429738Y-44962027D01*
X71503750Y-45010665D01*
X71549329Y-45086600D01*
X71557448Y-45174790D01*
X71526498Y-45257769D01*
X71500911Y-45289193D01*
X71461501Y-45328603D01*
X71325965Y-45522171D01*
X71226094Y-45736342D01*
X71164938Y-45964585D01*
X71164937Y-45964589D01*
X71164937Y-45964592D01*
X71144341Y-46200000D01*
X66058821Y-46200000D01*
X66030582Y-46100750D01*
X65939673Y-45918179D01*
X65939671Y-45918177D01*
X65939670Y-45918174D01*
X65848101Y-45796918D01*
X65816764Y-45755421D01*
X65816762Y-45755419D01*
X65816758Y-45755414D01*
X65666042Y-45618020D01*
X65666037Y-45618016D01*
X65492639Y-45510652D01*
X65492636Y-45510651D01*
X65302460Y-45436977D01*
X65302457Y-45436976D01*
X65302456Y-45436976D01*
X65101976Y-45399500D01*
X64898024Y-45399500D01*
X64697544Y-45436976D01*
X64697542Y-45436976D01*
X64697540Y-45436977D01*
X64697538Y-45436977D01*
X64507363Y-45510651D01*
X64507360Y-45510652D01*
X64333962Y-45618016D01*
X64333957Y-45618020D01*
X64183241Y-45755414D01*
X64183233Y-45755424D01*
X64060329Y-45918174D01*
X63969419Y-46100747D01*
X63913603Y-46296916D01*
X63913603Y-46296917D01*
X63895321Y-46494219D01*
X63894785Y-46500000D01*
X63913603Y-46703083D01*
X63963323Y-46877830D01*
X63969419Y-46899253D01*
X63969420Y-46899255D01*
X63998497Y-46957650D01*
X64005944Y-46974524D01*
X64011451Y-46988754D01*
X64011459Y-46988770D01*
X64031234Y-47023955D01*
X64035893Y-47032752D01*
X64060325Y-47081818D01*
X64060326Y-47081820D01*
X64065654Y-47088875D01*
X64080322Y-47111292D01*
X64167985Y-47267262D01*
X64483235Y-47828160D01*
X64489822Y-47841712D01*
X64489904Y-47841672D01*
X64492787Y-47847518D01*
X64542155Y-47933020D01*
X64543295Y-47935021D01*
X64591604Y-48020972D01*
X64606811Y-48046269D01*
X64609765Y-48050873D01*
X64609671Y-48050932D01*
X64615659Y-48060323D01*
X64617967Y-48064320D01*
X64617977Y-48064336D01*
X64683714Y-48150000D01*
X64770392Y-48262953D01*
X64801479Y-48294038D01*
X64832556Y-48325114D01*
X64832566Y-48325123D01*
X67304497Y-50797054D01*
X67309913Y-50802687D01*
X67507250Y-51016166D01*
X67554659Y-51067452D01*
X67564802Y-51079327D01*
X67627240Y-51158529D01*
X67785604Y-51359413D01*
X67794788Y-51372055D01*
X67992907Y-51668561D01*
X68001072Y-51681883D01*
X68142481Y-51934387D01*
X68175339Y-51993058D01*
X68182432Y-52006980D01*
X68331734Y-52330840D01*
X68337714Y-52345276D01*
X68461155Y-52679873D01*
X68465983Y-52694734D01*
X68562784Y-53037959D01*
X68566432Y-53053152D01*
X68596967Y-53206658D01*
X68594484Y-53295187D01*
X68553835Y-53373871D01*
X68483072Y-53427125D01*
X68396211Y-53444404D01*
X68310454Y-53422283D01*
X68287649Y-53408493D01*
X68232486Y-53369867D01*
X68232483Y-53369865D01*
X68026330Y-53273735D01*
X68026325Y-53273733D01*
X67830000Y-53221127D01*
X67830000Y-54184314D01*
X67825606Y-54179920D01*
X67734394Y-54127259D01*
X67632661Y-54100000D01*
X67527339Y-54100000D01*
X67425606Y-54127259D01*
X67334394Y-54179920D01*
X67330000Y-54184314D01*
X67330000Y-53221127D01*
X67329999Y-53221127D01*
X67133674Y-53273733D01*
X67133669Y-53273735D01*
X66927516Y-53369865D01*
X66927513Y-53369867D01*
X66741181Y-53500339D01*
X66580339Y-53661181D01*
X66449867Y-53847513D01*
X66449865Y-53847516D01*
X66353731Y-54053678D01*
X66301127Y-54249999D01*
X66301128Y-54250000D01*
X67264314Y-54250000D01*
X67259920Y-54254394D01*
X67207259Y-54345606D01*
X67180000Y-54447339D01*
X67180000Y-54552661D01*
X67207259Y-54654394D01*
X67259920Y-54745606D01*
X67264314Y-54750000D01*
X66301127Y-54750000D01*
X66353731Y-54946321D01*
X66449865Y-55152483D01*
X66449867Y-55152486D01*
X66580339Y-55338818D01*
X66741181Y-55499660D01*
X66927513Y-55630132D01*
X66927516Y-55630134D01*
X67133679Y-55726268D01*
X67133678Y-55726268D01*
X67329999Y-55778872D01*
X67330000Y-55778872D01*
X67330000Y-54815686D01*
X67334394Y-54820080D01*
X67425606Y-54872741D01*
X67527339Y-54900000D01*
X67632661Y-54900000D01*
X67734394Y-54872741D01*
X67825606Y-54820080D01*
X67830000Y-54815686D01*
X67830000Y-55778872D01*
X68026321Y-55726268D01*
X68232483Y-55630134D01*
X68232488Y-55630131D01*
X68382750Y-55524915D01*
X68464781Y-55491533D01*
X68553173Y-55497049D01*
X68630417Y-55540371D01*
X68681216Y-55612917D01*
X68695739Y-55680085D01*
X68695891Y-55683954D01*
X68724875Y-56052205D01*
X68724877Y-56052224D01*
X68724878Y-56052230D01*
X68782671Y-56417108D01*
X68782674Y-56417125D01*
X68868914Y-56776329D01*
X68899306Y-56869865D01*
X68939171Y-56992556D01*
X68941189Y-56998765D01*
X68949128Y-57086972D01*
X68918010Y-57169888D01*
X68853997Y-57231091D01*
X68769768Y-57258459D01*
X68682006Y-57246571D01*
X68608093Y-57197782D01*
X68588919Y-57174403D01*
X68579662Y-57161183D01*
X68418818Y-57000339D01*
X68232486Y-56869867D01*
X68232483Y-56869865D01*
X68026330Y-56773735D01*
X68026325Y-56773733D01*
X67830000Y-56721127D01*
X67830000Y-57684314D01*
X67825606Y-57679920D01*
X67734394Y-57627259D01*
X67632661Y-57600000D01*
X67527339Y-57600000D01*
X67425606Y-57627259D01*
X67334394Y-57679920D01*
X67330000Y-57684314D01*
X67330000Y-56721127D01*
X67329999Y-56721127D01*
X67133674Y-56773733D01*
X67133669Y-56773735D01*
X66927516Y-56869865D01*
X66927513Y-56869867D01*
X66741181Y-57000339D01*
X66580339Y-57161181D01*
X66449867Y-57347513D01*
X66449865Y-57347516D01*
X66353735Y-57553669D01*
X66353734Y-57553671D01*
X66331481Y-57636719D01*
X66290097Y-57715019D01*
X66218839Y-57767609D01*
X66131819Y-57784073D01*
X66046274Y-57761150D01*
X65998550Y-57725928D01*
X65946887Y-57674267D01*
X65843991Y-57571374D01*
X65587166Y-57360613D01*
X65416481Y-57246571D01*
X65310915Y-57176037D01*
X65310907Y-57176033D01*
X65017923Y-57019437D01*
X64817211Y-56936305D01*
X64710967Y-56892300D01*
X64710964Y-56892299D01*
X64393046Y-56795866D01*
X64393030Y-56795862D01*
X64067190Y-56731055D01*
X64067191Y-56731055D01*
X63736556Y-56698497D01*
X63736554Y-56698497D01*
X63736551Y-56698497D01*
X63583529Y-56698498D01*
X63557549Y-56696795D01*
X63490345Y-56687946D01*
X63440168Y-56674500D01*
X63389693Y-56653591D01*
X63344711Y-56627619D01*
X63301369Y-56594361D01*
X63264638Y-56557630D01*
X63234870Y-56518836D01*
X63231378Y-56514286D01*
X63205408Y-56469305D01*
X63184498Y-56418826D01*
X63171054Y-56368664D01*
X63162201Y-56301441D01*
X63160500Y-56275468D01*
X63160503Y-56209654D01*
X63160501Y-56209648D01*
X63160502Y-56199177D01*
X63160500Y-56199119D01*
X63160500Y-45938288D01*
X63172572Y-45870033D01*
X63180074Y-45849489D01*
X63264592Y-45618020D01*
X63486778Y-45009526D01*
X63486796Y-45009532D01*
X63488769Y-45003928D01*
X63490579Y-44999255D01*
X63490582Y-44999250D01*
X63496023Y-44980123D01*
X63497758Y-44974361D01*
X63498333Y-44972554D01*
X63498333Y-44972550D01*
X63498912Y-44970730D01*
X63500541Y-44964246D01*
X63546397Y-44803083D01*
X63565215Y-44600000D01*
X63546397Y-44396917D01*
X63490582Y-44200750D01*
X63399673Y-44018179D01*
X63399671Y-44018177D01*
X63399670Y-44018174D01*
X63276766Y-43855424D01*
X63276758Y-43855414D01*
X63126042Y-43718020D01*
X63126037Y-43718016D01*
X62952639Y-43610652D01*
X62952636Y-43610651D01*
X62762460Y-43536977D01*
X62762457Y-43536976D01*
X62762456Y-43536976D01*
X62561976Y-43499500D01*
X62358024Y-43499500D01*
X62157544Y-43536976D01*
X62157542Y-43536976D01*
X62157540Y-43536977D01*
X62157538Y-43536977D01*
X61967363Y-43610651D01*
X61967360Y-43610652D01*
X61793962Y-43718016D01*
X61793957Y-43718020D01*
X61643241Y-43855414D01*
X61643233Y-43855424D01*
X61520329Y-44018174D01*
X61429419Y-44200747D01*
X61373603Y-44396916D01*
X61373603Y-44396917D01*
X61354785Y-44599998D01*
X61354785Y-44600001D01*
X61358235Y-44637228D01*
X61371129Y-44776389D01*
X61373603Y-44803082D01*
X61373603Y-44803086D01*
X61429416Y-44999247D01*
X61430655Y-45002444D01*
X61432142Y-45006872D01*
X61432239Y-45006837D01*
X61619903Y-45520787D01*
X61742211Y-45855749D01*
X61747428Y-45870035D01*
X61759500Y-45938290D01*
X61759500Y-56199119D01*
X61759497Y-56199177D01*
X61759497Y-56209652D01*
X61759497Y-56209654D01*
X61759497Y-56230892D01*
X61759499Y-56275471D01*
X61757796Y-56301456D01*
X61749077Y-56367670D01*
X61748947Y-56368654D01*
X61735500Y-56418830D01*
X61714593Y-56469301D01*
X61688619Y-56514288D01*
X61655361Y-56557630D01*
X61618630Y-56594361D01*
X61575288Y-56627619D01*
X61530301Y-56653593D01*
X61479830Y-56674500D01*
X61429656Y-56687946D01*
X61387424Y-56693508D01*
X61362456Y-56696796D01*
X61336474Y-56698500D01*
X58872747Y-56698500D01*
X58844564Y-56696494D01*
X58823692Y-56693508D01*
X58823691Y-56693508D01*
X57431318Y-56694491D01*
X57431316Y-56694491D01*
X57430031Y-56694492D01*
X57427104Y-56694532D01*
X57420003Y-56694532D01*
X57420001Y-56694532D01*
X57420000Y-56694532D01*
X57415051Y-56694964D01*
X57406351Y-56695725D01*
X57399739Y-56696191D01*
X57377726Y-56697377D01*
X57371056Y-56698398D01*
X57358309Y-56699929D01*
X57193308Y-56714365D01*
X57193305Y-56714365D01*
X57193301Y-56714366D01*
X56973509Y-56773258D01*
X56767266Y-56869432D01*
X56580858Y-56999955D01*
X56419955Y-57160858D01*
X56289432Y-57347266D01*
X56193258Y-57553509D01*
X56134367Y-57773295D01*
X56134365Y-57773307D01*
X56114532Y-58000000D01*
X56134365Y-58226692D01*
X56134367Y-58226704D01*
X56193258Y-58446490D01*
X56193261Y-58446496D01*
X56289432Y-58652734D01*
X56419953Y-58839139D01*
X56580861Y-59000047D01*
X56767266Y-59130568D01*
X56973504Y-59226739D01*
X56973505Y-59226739D01*
X56973509Y-59226741D01*
X57193295Y-59285632D01*
X57193299Y-59285632D01*
X57193308Y-59285635D01*
X57420000Y-59305468D01*
X57646692Y-59285635D01*
X57646701Y-59285632D01*
X57646704Y-59285632D01*
X57866490Y-59226741D01*
X57866491Y-59226740D01*
X57866496Y-59226739D01*
X58072734Y-59130568D01*
X58259139Y-59000047D01*
X58337419Y-58921765D01*
X58348877Y-58911175D01*
X58373520Y-58890137D01*
X58401902Y-58857860D01*
X58410631Y-58848554D01*
X58412564Y-58846621D01*
X58420047Y-58839139D01*
X58420297Y-58838782D01*
X58433878Y-58821496D01*
X59009345Y-58167087D01*
X59081162Y-58115263D01*
X59158784Y-58099500D01*
X61259338Y-58099500D01*
X61259390Y-58099502D01*
X61270648Y-58099501D01*
X61270654Y-58099503D01*
X61349580Y-58099500D01*
X61349583Y-58099500D01*
X63491532Y-58099500D01*
X63491536Y-58099501D01*
X63564885Y-58099500D01*
X63576037Y-58099812D01*
X63781044Y-58111321D01*
X63803203Y-58113818D01*
X64000136Y-58147274D01*
X64021879Y-58152237D01*
X64213806Y-58207527D01*
X64234869Y-58214896D01*
X64301110Y-58242332D01*
X64419407Y-58291329D01*
X64439499Y-58301004D01*
X64614329Y-58397624D01*
X64633209Y-58409487D01*
X64796116Y-58525070D01*
X64813552Y-58538975D01*
X64935348Y-58647813D01*
X64966037Y-58675237D01*
X64974152Y-58682909D01*
X65739119Y-59447876D01*
X66455672Y-60164428D01*
X66502791Y-60239416D01*
X66512707Y-60327423D01*
X66509316Y-60347873D01*
X66358416Y-61034227D01*
X66355273Y-61045054D01*
X66355508Y-61045117D01*
X66294367Y-61273298D01*
X66294365Y-61273307D01*
X66274532Y-61500000D01*
X66294365Y-61726692D01*
X66294367Y-61726704D01*
X66353258Y-61946490D01*
X66353261Y-61946496D01*
X66449432Y-62152734D01*
X66579953Y-62339139D01*
X66740861Y-62500047D01*
X66927266Y-62630568D01*
X67133504Y-62726739D01*
X67133505Y-62726739D01*
X67133509Y-62726741D01*
X67353295Y-62785632D01*
X67353299Y-62785632D01*
X67353308Y-62785635D01*
X67580000Y-62805468D01*
X67806692Y-62785635D01*
X67806701Y-62785632D01*
X67806704Y-62785632D01*
X68026490Y-62726741D01*
X68026491Y-62726740D01*
X68026496Y-62726739D01*
X68232734Y-62630568D01*
X68419139Y-62500047D01*
X68580047Y-62339139D01*
X68710568Y-62152734D01*
X68806739Y-61946496D01*
X68810346Y-61933037D01*
X68865632Y-61726704D01*
X68865632Y-61726701D01*
X68865635Y-61726692D01*
X68885468Y-61500000D01*
X68865635Y-61273308D01*
X68865632Y-61273295D01*
X68806741Y-61053509D01*
X68806739Y-61053504D01*
X68710568Y-60847266D01*
X68580047Y-60660861D01*
X68564889Y-60645703D01*
X68541253Y-60617194D01*
X68474307Y-60519136D01*
X67935646Y-59730145D01*
X67931518Y-59723845D01*
X67886480Y-59652171D01*
X67886475Y-59652165D01*
X67886471Y-59652158D01*
X67862810Y-59622491D01*
X67854049Y-59610628D01*
X67831829Y-59578080D01*
X67827118Y-59571300D01*
X67826890Y-59570978D01*
X67826880Y-59570964D01*
X67825282Y-59568970D01*
X67825108Y-59568612D01*
X67825086Y-59568582D01*
X67825091Y-59568577D01*
X67786675Y-59489265D01*
X67786473Y-59400702D01*
X67824718Y-59320822D01*
X67893834Y-59265446D01*
X67929081Y-59252322D01*
X68026329Y-59226265D01*
X68026330Y-59226264D01*
X68232483Y-59130134D01*
X68232486Y-59130132D01*
X68418818Y-58999660D01*
X68579660Y-58838818D01*
X68710132Y-58652486D01*
X68710134Y-58652483D01*
X68806268Y-58446321D01*
X68858872Y-58250000D01*
X67895686Y-58250000D01*
X67900080Y-58245606D01*
X67952741Y-58154394D01*
X67980000Y-58052661D01*
X67980000Y-57947339D01*
X67952741Y-57845606D01*
X67900080Y-57754394D01*
X67895686Y-57750000D01*
X68858871Y-57750000D01*
X68912518Y-57680086D01*
X68980715Y-57623582D01*
X69066674Y-57602264D01*
X69153371Y-57620353D01*
X69223633Y-57674267D01*
X69247706Y-57710884D01*
X69292168Y-57798145D01*
X69347556Y-57888529D01*
X69485192Y-58113129D01*
X69596766Y-58266697D01*
X69702341Y-58412008D01*
X69942263Y-58692920D01*
X70005184Y-58755840D01*
X70048482Y-58820786D01*
X70529018Y-59987803D01*
X70529020Y-59987807D01*
X70552506Y-60037097D01*
X70557573Y-60045491D01*
X70556913Y-60045889D01*
X70569157Y-60066365D01*
X70609432Y-60152734D01*
X70739953Y-60339139D01*
X70900861Y-60500047D01*
X70944635Y-60530698D01*
X71004057Y-60596361D01*
X71029105Y-60681308D01*
X71014816Y-60768711D01*
X70964019Y-60841259D01*
X70886775Y-60884582D01*
X70878125Y-60886922D01*
X70864766Y-60890214D01*
X70844143Y-60895298D01*
X70595241Y-60989694D01*
X70359524Y-61113407D01*
X70359519Y-61113409D01*
X70359517Y-61113411D01*
X70281662Y-61167150D01*
X70140429Y-61264637D01*
X70140426Y-61264639D01*
X69941168Y-61441168D01*
X69764639Y-61640426D01*
X69764637Y-61640429D01*
X69705094Y-61726692D01*
X69642586Y-61817251D01*
X69613410Y-61859519D01*
X69613407Y-61859524D01*
X69489694Y-62095241D01*
X69395298Y-62344145D01*
X69395296Y-62344151D01*
X69331588Y-62602620D01*
X69331588Y-62602623D01*
X69299500Y-62866893D01*
X69299500Y-62995120D01*
X69299260Y-63004885D01*
X69285914Y-63276525D01*
X69284000Y-63295959D01*
X69244811Y-63560152D01*
X69241001Y-63579306D01*
X69176106Y-63838381D01*
X69170437Y-63857070D01*
X69080459Y-64108539D01*
X69072986Y-64126581D01*
X68958791Y-64368025D01*
X68949585Y-64385248D01*
X68812277Y-64614332D01*
X68801427Y-64630570D01*
X68642326Y-64845091D01*
X68629937Y-64860187D01*
X68447218Y-65061785D01*
X68440483Y-65068858D01*
X67411284Y-66098056D01*
X67401782Y-66106956D01*
X67230863Y-66256852D01*
X67210210Y-66272700D01*
X67026611Y-66395378D01*
X67004068Y-66408393D01*
X66806025Y-66506058D01*
X66781976Y-66516020D01*
X66572879Y-66587000D01*
X66547736Y-66593737D01*
X66331167Y-66636817D01*
X66305358Y-66640215D01*
X66078653Y-66655074D01*
X66065638Y-66655500D01*
X62113888Y-66655500D01*
X62106074Y-66655347D01*
X61745790Y-66641189D01*
X61730212Y-66639962D01*
X61376074Y-66598044D01*
X61360642Y-66595600D01*
X61010856Y-66526022D01*
X60995663Y-66522374D01*
X60652437Y-66425573D01*
X60637576Y-66420745D01*
X60302980Y-66297305D01*
X60288545Y-66291325D01*
X59964676Y-66142019D01*
X59950753Y-66134925D01*
X59639607Y-65960674D01*
X59626285Y-65952510D01*
X59329746Y-65754369D01*
X59317105Y-65745185D01*
X59037046Y-65524405D01*
X59025164Y-65514257D01*
X58760205Y-65269331D01*
X58754572Y-65263915D01*
X55091898Y-61601240D01*
X55086482Y-61595607D01*
X54998104Y-61500000D01*
X56114532Y-61500000D01*
X56134365Y-61726692D01*
X56134367Y-61726704D01*
X56193258Y-61946490D01*
X56193261Y-61946496D01*
X56289432Y-62152734D01*
X56419953Y-62339139D01*
X56580861Y-62500047D01*
X56767266Y-62630568D01*
X56973504Y-62726739D01*
X56973505Y-62726739D01*
X56973509Y-62726741D01*
X57193295Y-62785632D01*
X57193299Y-62785632D01*
X57193308Y-62785635D01*
X57420000Y-62805468D01*
X57646692Y-62785635D01*
X57646701Y-62785632D01*
X57646704Y-62785632D01*
X57866490Y-62726741D01*
X57866491Y-62726740D01*
X57866496Y-62726739D01*
X58072734Y-62630568D01*
X58259139Y-62500047D01*
X58420047Y-62339139D01*
X58550568Y-62152734D01*
X58646739Y-61946496D01*
X58650346Y-61933037D01*
X58705632Y-61726704D01*
X58705632Y-61726701D01*
X58705635Y-61726692D01*
X58725468Y-61500000D01*
X58705635Y-61273308D01*
X58705632Y-61273295D01*
X58646741Y-61053509D01*
X58646739Y-61053504D01*
X58550568Y-60847266D01*
X58420047Y-60660861D01*
X58259139Y-60499953D01*
X58072734Y-60369432D01*
X57866496Y-60273261D01*
X57866497Y-60273261D01*
X57866490Y-60273258D01*
X57646704Y-60214367D01*
X57646692Y-60214365D01*
X57420000Y-60194532D01*
X57193307Y-60214365D01*
X57193295Y-60214367D01*
X56973509Y-60273258D01*
X56767266Y-60369432D01*
X56580858Y-60499955D01*
X56419955Y-60660858D01*
X56289432Y-60847266D01*
X56193258Y-61053509D01*
X56134367Y-61273295D01*
X56134365Y-61273307D01*
X56114532Y-61500000D01*
X54998104Y-61500000D01*
X54841740Y-61330847D01*
X54831592Y-61318966D01*
X54669542Y-61113407D01*
X54610797Y-61038890D01*
X54601615Y-61026251D01*
X54577190Y-60989697D01*
X54403480Y-60729720D01*
X54395318Y-60716401D01*
X54378391Y-60686175D01*
X54221047Y-60405218D01*
X54213972Y-60391333D01*
X54064650Y-60067427D01*
X54058675Y-60052999D01*
X54058105Y-60051455D01*
X53935244Y-59718423D01*
X53930416Y-59703563D01*
X53833606Y-59360303D01*
X53829961Y-59345121D01*
X53771990Y-59053678D01*
X53760387Y-58995345D01*
X53757942Y-58979913D01*
X53716938Y-58633467D01*
X53716023Y-58625744D01*
X53714798Y-58610168D01*
X53711708Y-58531533D01*
X53700653Y-58250145D01*
X53700500Y-58242332D01*
X53700500Y-55366396D01*
X53700509Y-55366352D01*
X53700509Y-55283958D01*
X53700510Y-55283958D01*
X53700509Y-55064595D01*
X53669207Y-54626985D01*
X53650949Y-54500000D01*
X56114532Y-54500000D01*
X56134365Y-54726692D01*
X56134367Y-54726704D01*
X56193258Y-54946490D01*
X56193261Y-54946496D01*
X56289432Y-55152734D01*
X56419953Y-55339139D01*
X56580861Y-55500047D01*
X56767266Y-55630568D01*
X56973504Y-55726739D01*
X56973505Y-55726739D01*
X56973509Y-55726741D01*
X57193295Y-55785632D01*
X57193299Y-55785632D01*
X57193308Y-55785635D01*
X57420000Y-55805468D01*
X57646692Y-55785635D01*
X57646701Y-55785632D01*
X57646704Y-55785632D01*
X57866490Y-55726741D01*
X57866491Y-55726740D01*
X57866496Y-55726739D01*
X58072734Y-55630568D01*
X58259139Y-55500047D01*
X58420047Y-55339139D01*
X58550568Y-55152734D01*
X58646739Y-54946496D01*
X58657839Y-54905072D01*
X58705632Y-54726704D01*
X58705632Y-54726701D01*
X58705635Y-54726692D01*
X58725468Y-54500000D01*
X58705635Y-54273308D01*
X58705632Y-54273295D01*
X58646741Y-54053509D01*
X58636953Y-54032518D01*
X58550568Y-53847266D01*
X58420047Y-53660861D01*
X58259139Y-53499953D01*
X58072734Y-53369432D01*
X57907664Y-53292458D01*
X57866490Y-53273258D01*
X57646704Y-53214367D01*
X57646692Y-53214365D01*
X57420000Y-53194532D01*
X57193307Y-53214365D01*
X57193295Y-53214367D01*
X56973509Y-53273258D01*
X56767266Y-53369432D01*
X56580858Y-53499955D01*
X56419955Y-53660858D01*
X56289432Y-53847266D01*
X56193258Y-54053509D01*
X56134367Y-54273295D01*
X56134365Y-54273307D01*
X56114532Y-54500000D01*
X53650949Y-54500000D01*
X53606772Y-54192749D01*
X53606770Y-54192738D01*
X53606768Y-54192724D01*
X53513508Y-53764024D01*
X53389902Y-53343068D01*
X53236582Y-52932004D01*
X53054327Y-52532924D01*
X53054322Y-52532914D01*
X52844070Y-52147866D01*
X52645266Y-51838522D01*
X52606873Y-51778782D01*
X52343954Y-51427562D01*
X52321132Y-51401224D01*
X52056655Y-51096000D01*
X52056650Y-51095995D01*
X51957274Y-50996618D01*
X51957256Y-50996598D01*
X50618231Y-49657574D01*
X50576070Y-49595330D01*
X50566196Y-49572319D01*
X50335825Y-49035437D01*
X50133298Y-48563445D01*
X50133377Y-48563410D01*
X50131349Y-48558748D01*
X50130340Y-48556222D01*
X49841748Y-47833821D01*
X49828018Y-47746332D01*
X49841749Y-47686175D01*
X50130340Y-46963777D01*
X50139616Y-46936690D01*
X50147521Y-46917080D01*
X50151276Y-46909030D01*
X50206549Y-46702747D01*
X50224287Y-46500000D01*
X58814785Y-46500000D01*
X58833603Y-46703083D01*
X58883324Y-46877833D01*
X58889419Y-46899252D01*
X58980329Y-47081825D01*
X59103233Y-47244575D01*
X59103241Y-47244585D01*
X59208478Y-47340520D01*
X59253959Y-47381981D01*
X59253961Y-47381982D01*
X59253962Y-47381983D01*
X59427360Y-47489347D01*
X59427363Y-47489348D01*
X59617544Y-47563024D01*
X59818024Y-47600500D01*
X59818027Y-47600500D01*
X60021972Y-47600500D01*
X60021976Y-47600500D01*
X60222456Y-47563024D01*
X60412637Y-47489348D01*
X60418636Y-47485634D01*
X60486213Y-47443792D01*
X60586041Y-47381981D01*
X60695717Y-47281998D01*
X60736758Y-47244585D01*
X60736759Y-47244583D01*
X60736764Y-47244579D01*
X60859673Y-47081821D01*
X60950582Y-46899250D01*
X61006397Y-46703083D01*
X61025215Y-46500000D01*
X61024288Y-46490000D01*
X61020513Y-46449255D01*
X61006397Y-46296917D01*
X60950582Y-46100750D01*
X60859673Y-45918179D01*
X60859671Y-45918177D01*
X60859670Y-45918174D01*
X60768101Y-45796918D01*
X60736764Y-45755421D01*
X60736762Y-45755419D01*
X60736758Y-45755414D01*
X60586042Y-45618020D01*
X60586037Y-45618016D01*
X60412639Y-45510652D01*
X60412636Y-45510651D01*
X60222460Y-45436977D01*
X60222457Y-45436976D01*
X60222456Y-45436976D01*
X60021976Y-45399500D01*
X59818024Y-45399500D01*
X59617544Y-45436976D01*
X59617542Y-45436976D01*
X59617540Y-45436977D01*
X59617538Y-45436977D01*
X59427363Y-45510651D01*
X59427360Y-45510652D01*
X59253962Y-45618016D01*
X59253957Y-45618020D01*
X59103241Y-45755414D01*
X59103233Y-45755424D01*
X58980329Y-45918174D01*
X58889419Y-46100747D01*
X58833603Y-46296916D01*
X58833603Y-46296917D01*
X58815321Y-46494219D01*
X58814785Y-46500000D01*
X50224287Y-46500000D01*
X50225162Y-46490000D01*
X50206549Y-46277253D01*
X50206546Y-46277240D01*
X50151278Y-46070975D01*
X50138781Y-46044175D01*
X50061021Y-45877419D01*
X49938529Y-45702481D01*
X49787519Y-45551471D01*
X49787516Y-45551469D01*
X49787514Y-45551467D01*
X49714010Y-45500000D01*
X49612581Y-45428979D01*
X49550604Y-45400078D01*
X49480681Y-45345728D01*
X49441263Y-45266420D01*
X49440160Y-45177863D01*
X49477588Y-45097598D01*
X49546137Y-45041521D01*
X49550607Y-45039368D01*
X49612326Y-45010588D01*
X49612334Y-45010583D01*
X49668029Y-44971583D01*
X49668030Y-44971582D01*
X49046448Y-44350000D01*
X49052661Y-44350000D01*
X49154394Y-44322741D01*
X49245606Y-44270080D01*
X49320080Y-44195606D01*
X49372741Y-44104394D01*
X49400000Y-44002661D01*
X49400000Y-43996447D01*
X50021582Y-44618030D01*
X50021583Y-44618029D01*
X50060583Y-44562334D01*
X50060588Y-44562325D01*
X50150804Y-44368856D01*
X50206055Y-44162658D01*
X50224659Y-43950000D01*
X50206055Y-43737341D01*
X50150804Y-43531143D01*
X50060586Y-43337669D01*
X50060582Y-43337662D01*
X50021584Y-43281969D01*
X50021584Y-43281968D01*
X49400000Y-43903552D01*
X49400000Y-43897339D01*
X49372741Y-43795606D01*
X49320080Y-43704394D01*
X49245606Y-43629920D01*
X49154394Y-43577259D01*
X49052661Y-43550000D01*
X49046447Y-43550000D01*
X49668029Y-42928415D01*
X49612328Y-42889412D01*
X49612324Y-42889410D01*
X49418858Y-42799196D01*
X49212657Y-42743944D01*
X49212660Y-42743944D01*
X49000000Y-42725340D01*
X48787341Y-42743944D01*
X48581143Y-42799195D01*
X48387671Y-42889411D01*
X48387671Y-42889412D01*
X48331969Y-42928415D01*
X48331968Y-42928415D01*
X48953554Y-43550000D01*
X48947339Y-43550000D01*
X48845606Y-43577259D01*
X48754394Y-43629920D01*
X48679920Y-43704394D01*
X48627259Y-43795606D01*
X48600000Y-43897339D01*
X48600000Y-43903553D01*
X47978415Y-43281968D01*
X47978415Y-43281969D01*
X47939412Y-43337671D01*
X47939411Y-43337671D01*
X47849195Y-43531143D01*
X47793944Y-43737341D01*
X47775340Y-43950000D01*
X47793944Y-44162658D01*
X47849196Y-44368858D01*
X47939410Y-44562324D01*
X47939412Y-44562328D01*
X47978415Y-44618029D01*
X48600000Y-43996445D01*
X48600000Y-44002661D01*
X48627259Y-44104394D01*
X48679920Y-44195606D01*
X48754394Y-44270080D01*
X48845606Y-44322741D01*
X48947339Y-44350000D01*
X48953553Y-44350000D01*
X48331968Y-44971584D01*
X48387662Y-45010582D01*
X48387674Y-45010589D01*
X48449393Y-45039369D01*
X48519318Y-45093719D01*
X48558736Y-45173027D01*
X48559840Y-45261583D01*
X48522411Y-45341849D01*
X48453863Y-45397926D01*
X48449395Y-45400078D01*
X48387422Y-45428977D01*
X48387421Y-45428977D01*
X48212485Y-45551467D01*
X48212477Y-45551474D01*
X48061474Y-45702477D01*
X48061467Y-45702485D01*
X47938979Y-45877419D01*
X47848721Y-46070975D01*
X47793453Y-46277240D01*
X47793451Y-46277251D01*
X47774838Y-46490000D01*
X47793451Y-46702748D01*
X47793453Y-46702759D01*
X47848721Y-46909024D01*
X47856313Y-46925304D01*
X47867427Y-46957042D01*
X47867505Y-46957018D01*
X47868386Y-46959782D01*
X47869379Y-46962619D01*
X47869660Y-46963778D01*
X47869661Y-46963780D01*
X47869665Y-46963794D01*
X48158249Y-47686175D01*
X48171980Y-47773667D01*
X48158249Y-47833825D01*
X47869662Y-48556216D01*
X47869657Y-48556227D01*
X47860375Y-48583325D01*
X47852474Y-48602926D01*
X47848722Y-48610971D01*
X47793453Y-48817240D01*
X47793451Y-48817251D01*
X47774838Y-49030000D01*
X44500000Y-49030000D01*
X44500000Y-40699000D01*
X44519707Y-40612657D01*
X44574926Y-40543416D01*
X44654718Y-40504989D01*
X44699000Y-40500000D01*
X112801000Y-40500000D01*
X112887343Y-40519707D01*
G37*
%TD.AperFunction*%
%TD*%
%TA.AperFunction,Conductor*%
%TO.N,Net-(C4-Pad1)*%
G36*
X72056946Y-54765396D02*
G01*
X72056956Y-54765400D01*
X73332800Y-55297000D01*
X73339119Y-55303345D01*
X73340000Y-55307800D01*
X73340000Y-55692199D01*
X73336573Y-55700472D01*
X73332800Y-55702999D01*
X72056956Y-56234599D01*
X72048001Y-56234618D01*
X72041657Y-56228300D01*
X71740864Y-55504487D01*
X71740854Y-55495538D01*
X72041653Y-54771708D01*
X72047991Y-54765385D01*
X72056946Y-54765396D01*
G37*
%TD.AperFunction*%
%TD*%
%TA.AperFunction,Conductor*%
%TO.N,Uh2*%
G36*
X101712776Y-58778071D02*
G01*
X101719103Y-58784409D01*
X101719094Y-58793363D01*
X101718968Y-58793656D01*
X101003097Y-60393080D01*
X100996589Y-60399231D01*
X100992418Y-60400000D01*
X100607582Y-60400000D01*
X100599309Y-60396573D01*
X100596903Y-60393080D01*
X99881031Y-58793656D01*
X99880779Y-58784705D01*
X99886930Y-58778197D01*
X99887156Y-58778099D01*
X100795514Y-58400862D01*
X100804464Y-58400854D01*
X101712776Y-58778071D01*
G37*
%TD.AperFunction*%
%TD*%
%TA.AperFunction,Conductor*%
%TO.N,Net-(Q1-E)*%
G36*
X71538343Y-70771700D02*
G01*
X71538347Y-70771710D01*
X71839134Y-71495510D01*
X71839144Y-71504463D01*
X71839135Y-71504485D01*
X71839134Y-71504490D01*
X71538347Y-72228289D01*
X71532008Y-72234614D01*
X71523053Y-72234603D01*
X71523043Y-72234599D01*
X70247200Y-71702999D01*
X70240881Y-71696654D01*
X70240000Y-71692199D01*
X70240000Y-71307800D01*
X70243427Y-71299527D01*
X70247200Y-71297000D01*
X71523043Y-70765400D01*
X71531998Y-70765381D01*
X71538343Y-70771700D01*
G37*
%TD.AperFunction*%
%TD*%
%TA.AperFunction,Conductor*%
%TO.N,Net-(Q2-B)*%
G36*
X63003992Y-44825310D02*
G01*
X63010314Y-44831651D01*
X63010488Y-44840125D01*
X62662807Y-45792313D01*
X62656751Y-45798909D01*
X62651817Y-45800000D01*
X62268183Y-45800000D01*
X62259910Y-45796573D01*
X62257193Y-45792313D01*
X61909511Y-44840125D01*
X61909892Y-44831178D01*
X61916006Y-44825310D01*
X62455507Y-44600868D01*
X62464458Y-44600855D01*
X63003992Y-44825310D01*
G37*
%TD.AperFunction*%
%TD*%
%TA.AperFunction,Conductor*%
%TO.N,Net-(Q1-B)*%
G36*
X84891173Y-45641156D02*
G01*
X85445263Y-46193881D01*
X85448700Y-46202150D01*
X85447806Y-46206648D01*
X85147607Y-46930057D01*
X85141271Y-46936385D01*
X85134288Y-46937000D01*
X84042601Y-46696934D01*
X84035648Y-46692384D01*
X83810234Y-46382117D01*
X83808144Y-46373410D01*
X83812823Y-46365774D01*
X83813072Y-46365598D01*
X84876316Y-45639775D01*
X84885078Y-45637942D01*
X84891173Y-45641156D01*
G37*
%TD.AperFunction*%
%TD*%
%TA.AperFunction,Conductor*%
%TO.N,Net-(R6-Pad2)*%
G36*
X49654538Y-59761102D02*
G01*
X49660862Y-59767442D01*
X49660912Y-59776246D01*
X49202940Y-60922640D01*
X49196689Y-60929052D01*
X49192075Y-60930000D01*
X48807925Y-60930000D01*
X48799652Y-60926573D01*
X48797060Y-60922640D01*
X48339087Y-59776246D01*
X48339200Y-59767292D01*
X48345459Y-59761103D01*
X48995511Y-59490865D01*
X49004462Y-59490855D01*
X49654538Y-59761102D01*
G37*
%TD.AperFunction*%
%TD*%
%TA.AperFunction,Conductor*%
%TO.N,Net-(Q1-B)*%
G36*
X65200090Y-68803427D02*
G01*
X65202807Y-68807687D01*
X65550488Y-69759874D01*
X65550107Y-69768821D01*
X65543992Y-69774689D01*
X65004494Y-69999130D01*
X64995539Y-69999144D01*
X64995506Y-69999130D01*
X64456007Y-69774689D01*
X64449685Y-69768348D01*
X64449511Y-69759876D01*
X64797193Y-68807686D01*
X64803249Y-68801091D01*
X64808183Y-68800000D01*
X65191817Y-68800000D01*
X65200090Y-68803427D01*
G37*
%TD.AperFunction*%
%TD*%
%TA.AperFunction,Conductor*%
%TO.N,Net-(Q1-B)*%
G36*
X49663481Y-48758881D02*
G01*
X49669742Y-48765071D01*
X50156529Y-49899529D01*
X50156642Y-49908483D01*
X50154050Y-49912416D01*
X49882416Y-50184050D01*
X49874143Y-50187477D01*
X49869529Y-50186529D01*
X48735071Y-49699742D01*
X48728820Y-49693330D01*
X48728870Y-49684526D01*
X48997438Y-49033786D01*
X49003759Y-49027449D01*
X49654526Y-48758870D01*
X49663481Y-48758881D01*
G37*
%TD.AperFunction*%
%TD*%
%TA.AperFunction,Conductor*%
%TO.N,Net-(C4-Pad1)*%
G36*
X93500838Y-69705938D02*
G01*
X94286358Y-70491435D01*
X94289785Y-70499708D01*
X94286358Y-70507981D01*
X94285378Y-70508857D01*
X93502871Y-71132628D01*
X93494266Y-71135105D01*
X93487514Y-71131956D01*
X92612247Y-70299271D01*
X92608615Y-70291086D01*
X92611834Y-70282730D01*
X92880557Y-70005228D01*
X92883753Y-70002893D01*
X93487374Y-69703729D01*
X93496307Y-69703126D01*
X93500838Y-69705938D01*
G37*
%TD.AperFunction*%
%TD*%
%TA.AperFunction,Conductor*%
%TO.N,Net-(D2-A)*%
G36*
X82553683Y-62939775D02*
G01*
X83365382Y-63493881D01*
X83616896Y-63665577D01*
X83621796Y-63673072D01*
X83619962Y-63681837D01*
X83619765Y-63682117D01*
X83394352Y-63992385D01*
X83387399Y-63996935D01*
X82295711Y-64237000D01*
X82286895Y-64235430D01*
X82282393Y-64230058D01*
X81982192Y-63506647D01*
X81982187Y-63497694D01*
X81984734Y-63493882D01*
X82538827Y-62941155D01*
X82547103Y-62937739D01*
X82553683Y-62939775D01*
G37*
%TD.AperFunction*%
%TD*%
%TA.AperFunction,Conductor*%
%TO.N,Net-(Q2-E)*%
G36*
X70757259Y-58230177D02*
G01*
X72035318Y-58756436D01*
X72041662Y-58762755D01*
X72041681Y-58771710D01*
X72041677Y-58771720D01*
X71742562Y-59496212D01*
X71736237Y-59502551D01*
X71736212Y-59502562D01*
X71011720Y-59801677D01*
X71002765Y-59801666D01*
X70996441Y-59795328D01*
X70470178Y-58517261D01*
X70470197Y-58508308D01*
X70472721Y-58504538D01*
X70744536Y-58232723D01*
X70752808Y-58229297D01*
X70757259Y-58230177D01*
G37*
%TD.AperFunction*%
%TD*%
%TA.AperFunction,Conductor*%
%TO.N,Net-(Q2-B)*%
G36*
X58832323Y-57202429D02*
G01*
X58835756Y-57210700D01*
X58835756Y-57594587D01*
X58832842Y-57602313D01*
X57993915Y-58556325D01*
X57985878Y-58560275D01*
X57977403Y-58557385D01*
X57976863Y-58556879D01*
X57422440Y-58003434D01*
X57419006Y-57995164D01*
X57419006Y-57995139D01*
X57419985Y-57211676D01*
X57423422Y-57203408D01*
X57431675Y-57199991D01*
X58824048Y-57199008D01*
X58832323Y-57202429D01*
G37*
%TD.AperFunction*%
%TD*%
%TA.AperFunction,Conductor*%
%TO.N,Out -*%
G36*
X109183815Y-56874230D02*
G01*
X110014215Y-57451307D01*
X110019053Y-57458842D01*
X110017146Y-57467592D01*
X110015811Y-57469188D01*
X109179558Y-58305441D01*
X109171285Y-58308868D01*
X109168712Y-58308582D01*
X108605298Y-58181591D01*
X108599598Y-58178450D01*
X108326697Y-57905550D01*
X108323270Y-57897277D01*
X108325971Y-57889799D01*
X108683722Y-57459293D01*
X109168139Y-56876359D01*
X109176063Y-56872188D01*
X109183815Y-56874230D01*
G37*
%TD.AperFunction*%
%TD*%
%TA.AperFunction,Conductor*%
%TO.N,Uh2*%
G36*
X101000691Y-56403427D02*
G01*
X101003097Y-56406920D01*
X101718968Y-58006343D01*
X101719220Y-58015294D01*
X101713069Y-58021802D01*
X101712776Y-58021928D01*
X100804487Y-58399136D01*
X100795533Y-58399145D01*
X100795513Y-58399136D01*
X99887223Y-58021928D01*
X99880896Y-58015590D01*
X99880905Y-58006636D01*
X99881012Y-58006385D01*
X100596903Y-56406920D01*
X100603411Y-56400769D01*
X100607582Y-56400000D01*
X100992418Y-56400000D01*
X101000691Y-56403427D01*
G37*
%TD.AperFunction*%
%TD*%
%TA.AperFunction,Conductor*%
%TO.N,Uh2*%
G36*
X103965076Y-46901060D02*
G01*
X104502173Y-47124552D01*
X104508495Y-47130894D01*
X104508480Y-47139849D01*
X104507877Y-47141087D01*
X103927728Y-48173297D01*
X103920688Y-48178830D01*
X103911796Y-48177763D01*
X103910652Y-48177029D01*
X103601211Y-47952192D01*
X103596696Y-47945396D01*
X103407935Y-47139274D01*
X103409386Y-47130438D01*
X103414835Y-47125805D01*
X103956097Y-46901055D01*
X103965049Y-46901049D01*
X103965076Y-46901060D01*
G37*
%TD.AperFunction*%
%TD*%
%TA.AperFunction,Conductor*%
%TO.N,Out -*%
G36*
X106274844Y-70956588D02*
G01*
X106275446Y-70957824D01*
X106498940Y-71494923D01*
X106498955Y-71503878D01*
X106498943Y-71503905D01*
X106274197Y-72045158D01*
X106267860Y-72051484D01*
X106260722Y-72052062D01*
X105454545Y-71863139D01*
X105447749Y-71858625D01*
X105222932Y-71549169D01*
X105220842Y-71540461D01*
X105225521Y-71532826D01*
X105226654Y-71532100D01*
X106258916Y-70952118D01*
X106267804Y-70951054D01*
X106274844Y-70956588D01*
G37*
%TD.AperFunction*%
%TD*%
%TA.AperFunction,Conductor*%
%TO.N,Net-(D1-K)*%
G36*
X108809561Y-46349386D02*
G01*
X108814195Y-46354837D01*
X109038943Y-46896095D01*
X109038950Y-46905049D01*
X109038939Y-46905076D01*
X108815447Y-47442173D01*
X108809105Y-47448495D01*
X108800150Y-47448480D01*
X108798912Y-47447877D01*
X108788763Y-47442173D01*
X108548387Y-47307071D01*
X107766702Y-46867728D01*
X107761169Y-46860688D01*
X107762236Y-46851796D01*
X107762962Y-46850664D01*
X107987808Y-46541210D01*
X107994602Y-46536698D01*
X108800725Y-46347935D01*
X108809561Y-46349386D01*
G37*
%TD.AperFunction*%
%TD*%
%TA.AperFunction,Conductor*%
%TO.N,Net-(Q1-E)*%
G36*
X60268292Y-70144107D02*
G01*
X60465284Y-70225857D01*
X60471611Y-70232193D01*
X60472226Y-70239174D01*
X60302147Y-71013269D01*
X60298847Y-71019175D01*
X60024161Y-71284410D01*
X60015829Y-71287691D01*
X60007617Y-71284120D01*
X60006039Y-71282075D01*
X59842485Y-71013269D01*
X59372757Y-70241255D01*
X59371385Y-70232408D01*
X59376671Y-70225180D01*
X59378254Y-70224375D01*
X59914818Y-70001147D01*
X59923771Y-70001134D01*
X60268292Y-70144107D01*
G37*
%TD.AperFunction*%
%TD*%
%TA.AperFunction,Conductor*%
%TO.N,Net-(Q1-B)*%
G36*
X49654538Y-46761102D02*
G01*
X49660862Y-46767442D01*
X49660912Y-46776246D01*
X49202940Y-47922640D01*
X49196689Y-47929052D01*
X49192075Y-47930000D01*
X48807925Y-47930000D01*
X48799652Y-47926573D01*
X48797060Y-47922640D01*
X48339087Y-46776246D01*
X48339200Y-46767292D01*
X48345459Y-46761103D01*
X48995511Y-46490865D01*
X49004462Y-46490855D01*
X49654538Y-46761102D01*
G37*
%TD.AperFunction*%
%TD*%
%TA.AperFunction,Conductor*%
%TO.N,Uh2*%
G36*
X103926994Y-68625558D02*
G01*
X103927728Y-68626702D01*
X104507877Y-69658912D01*
X104508944Y-69667804D01*
X104503411Y-69674844D01*
X104502173Y-69675447D01*
X103965076Y-69898939D01*
X103956122Y-69898953D01*
X103414838Y-69674196D01*
X103408514Y-69667860D01*
X103407935Y-69660724D01*
X103596698Y-68854602D01*
X103601210Y-68847808D01*
X103910654Y-68622969D01*
X103919359Y-68620879D01*
X103926994Y-68625558D01*
G37*
%TD.AperFunction*%
%TD*%
%TA.AperFunction,Conductor*%
%TO.N,Out -*%
G36*
X54333131Y-72681218D02*
G01*
X55170407Y-73321488D01*
X55174897Y-73329235D01*
X55175000Y-73330781D01*
X55175000Y-73719218D01*
X55171573Y-73727491D01*
X55170407Y-73728512D01*
X54333131Y-74368781D01*
X54324478Y-74371084D01*
X54317756Y-74367765D01*
X53668446Y-73719218D01*
X53482286Y-73533276D01*
X53478855Y-73525007D01*
X53482276Y-73516733D01*
X54317758Y-72682232D01*
X54326031Y-72678812D01*
X54333131Y-72681218D01*
G37*
%TD.AperFunction*%
%TD*%
%TA.AperFunction,Conductor*%
%TO.N,Net-(J4-Pin_1)*%
G36*
X73358184Y-42817689D02*
G01*
X74142221Y-43458991D01*
X74146455Y-43466881D01*
X74146457Y-43469194D01*
X74108326Y-43856350D01*
X74104292Y-43864090D01*
X73358221Y-44502959D01*
X73349708Y-44505737D01*
X73342342Y-44502350D01*
X72507297Y-43668185D01*
X72503866Y-43659913D01*
X72507287Y-43651640D01*
X73342515Y-42818460D01*
X73350790Y-42815045D01*
X73358184Y-42817689D01*
G37*
%TD.AperFunction*%
%TD*%
%TA.AperFunction,Conductor*%
%TO.N,Net-(D1-K)*%
G36*
X90900933Y-63303427D02*
G01*
X90903194Y-63306607D01*
X91694749Y-64943841D01*
X91695264Y-64952781D01*
X91689308Y-64959468D01*
X91688983Y-64959618D01*
X90704768Y-65398872D01*
X90695817Y-65399115D01*
X90695232Y-65398872D01*
X89711016Y-64959618D01*
X89704857Y-64953117D01*
X89705100Y-64944166D01*
X89705229Y-64943885D01*
X90496806Y-63306607D01*
X90503493Y-63300651D01*
X90507340Y-63300000D01*
X90892660Y-63300000D01*
X90900933Y-63303427D01*
G37*
%TD.AperFunction*%
%TD*%
%TA.AperFunction,Conductor*%
%TO.N,Net-(Q1-E)*%
G36*
X81441173Y-66941156D02*
G01*
X81995263Y-67493881D01*
X81998700Y-67502150D01*
X81997806Y-67506648D01*
X81697607Y-68230057D01*
X81691271Y-68236385D01*
X81684288Y-68237000D01*
X80592601Y-67996934D01*
X80585648Y-67992384D01*
X80360234Y-67682117D01*
X80358144Y-67673410D01*
X80362823Y-67665774D01*
X80363072Y-67665598D01*
X81426316Y-66939775D01*
X81435078Y-66937942D01*
X81441173Y-66941156D01*
G37*
%TD.AperFunction*%
%TD*%
%TA.AperFunction,Conductor*%
%TO.N,Net-(Q2-E)*%
G36*
X65545161Y-46725803D02*
G01*
X65551485Y-46732139D01*
X65552064Y-46739275D01*
X65363303Y-47545395D01*
X65358788Y-47552192D01*
X65049347Y-47777028D01*
X65040640Y-47779119D01*
X65033005Y-47774440D01*
X65032271Y-47773296D01*
X64904180Y-47545395D01*
X64452121Y-46741085D01*
X64451055Y-46732195D01*
X64456588Y-46725155D01*
X64457817Y-46724555D01*
X64994923Y-46501059D01*
X65003875Y-46501045D01*
X65545161Y-46725803D01*
G37*
%TD.AperFunction*%
%TD*%
%TA.AperFunction,Conductor*%
%TO.N,Out -*%
G36*
X81272291Y-71198557D02*
G01*
X81996220Y-71497446D01*
X82002559Y-71503771D01*
X82002570Y-71503796D01*
X82301443Y-72227712D01*
X82301432Y-72236667D01*
X82295093Y-72242992D01*
X82294525Y-72243209D01*
X81134320Y-72653057D01*
X81125378Y-72652581D01*
X81122055Y-72650202D01*
X80852803Y-72374652D01*
X80849472Y-72366340D01*
X80850133Y-72362596D01*
X81256803Y-71205497D01*
X81262778Y-71198830D01*
X81271719Y-71198340D01*
X81272291Y-71198557D01*
G37*
%TD.AperFunction*%
%TD*%
%TA.AperFunction,Conductor*%
%TO.N,Net-(Q2-B)*%
G36*
X67414156Y-59862835D02*
G01*
X67414354Y-59863115D01*
X68140222Y-60926314D01*
X68142056Y-60935079D01*
X68138842Y-60941174D01*
X67586118Y-61495262D01*
X67577849Y-61498699D01*
X67573351Y-61497805D01*
X66849941Y-61197606D01*
X66843613Y-61191270D01*
X66842998Y-61184291D01*
X67083008Y-60092627D01*
X67087555Y-60085677D01*
X67397814Y-59860246D01*
X67406521Y-59858156D01*
X67414156Y-59862835D01*
G37*
%TD.AperFunction*%
%TD*%
%TA.AperFunction,Conductor*%
%TO.N,Out -*%
G36*
X82738429Y-71197839D02*
G01*
X82744168Y-71202959D01*
X83325034Y-72247484D01*
X83326060Y-72256380D01*
X83325936Y-72256786D01*
X83207311Y-72621875D01*
X83201496Y-72628684D01*
X83193235Y-72629581D01*
X81706838Y-72242485D01*
X81699696Y-72237084D01*
X81698465Y-72228214D01*
X81698966Y-72226714D01*
X81997195Y-71504181D01*
X82003516Y-71497844D01*
X82729475Y-71197832D01*
X82738429Y-71197839D01*
G37*
%TD.AperFunction*%
%TD*%
%TA.AperFunction,Conductor*%
%TO.N,Net-(J4-Pin_1)*%
G36*
X76967259Y-44930177D02*
G01*
X78245318Y-45456436D01*
X78251662Y-45462755D01*
X78251681Y-45471710D01*
X78251677Y-45471720D01*
X77952562Y-46196212D01*
X77946237Y-46202551D01*
X77946212Y-46202562D01*
X77221720Y-46501677D01*
X77212765Y-46501666D01*
X77206441Y-46495328D01*
X76680178Y-45217261D01*
X76680197Y-45208308D01*
X76682721Y-45204538D01*
X76954536Y-44932723D01*
X76962808Y-44929297D01*
X76967259Y-44930177D01*
G37*
%TD.AperFunction*%
%TD*%
%TA.AperFunction,Conductor*%
%TO.N,Net-(Q1-B)*%
G36*
X49200348Y-47593427D02*
G01*
X49202940Y-47597360D01*
X49660912Y-48743753D01*
X49660799Y-48752707D01*
X49654538Y-48758897D01*
X49004491Y-49029133D01*
X48995536Y-49029144D01*
X48995509Y-49029133D01*
X48345461Y-48758897D01*
X48339137Y-48752557D01*
X48339087Y-48743754D01*
X48797060Y-47597360D01*
X48803311Y-47590948D01*
X48807925Y-47590000D01*
X49192075Y-47590000D01*
X49200348Y-47593427D01*
G37*
%TD.AperFunction*%
%TD*%
%TA.AperFunction,Conductor*%
%TO.N,Out +*%
G36*
X72040473Y-65903427D02*
G01*
X72043000Y-65907200D01*
X72574599Y-67183043D01*
X72574618Y-67191998D01*
X72568299Y-67198343D01*
X72568289Y-67198347D01*
X71844490Y-67499134D01*
X71835536Y-67499144D01*
X71111709Y-67198346D01*
X71105385Y-67192008D01*
X71105396Y-67183053D01*
X71105400Y-67183043D01*
X71637000Y-65907200D01*
X71643345Y-65900881D01*
X71647800Y-65900000D01*
X72032200Y-65900000D01*
X72040473Y-65903427D01*
G37*
%TD.AperFunction*%
%TD*%
%TA.AperFunction,Conductor*%
%TO.N,Net-(R6-Pad2)*%
G36*
X49200348Y-60593427D02*
G01*
X49202940Y-60597360D01*
X49660912Y-61743753D01*
X49660799Y-61752707D01*
X49654538Y-61758897D01*
X49004491Y-62029133D01*
X48995536Y-62029144D01*
X48995509Y-62029133D01*
X48345461Y-61758897D01*
X48339137Y-61752557D01*
X48339087Y-61743754D01*
X48797060Y-60597360D01*
X48803311Y-60590948D01*
X48807925Y-60590000D01*
X49192075Y-60590000D01*
X49200348Y-60593427D01*
G37*
%TD.AperFunction*%
%TD*%
%TA.AperFunction,Conductor*%
%TO.N,Net-(Q1-E)*%
G36*
X72156946Y-70765396D02*
G01*
X72156956Y-70765400D01*
X73432800Y-71297000D01*
X73439119Y-71303345D01*
X73440000Y-71307800D01*
X73440000Y-71692199D01*
X73436573Y-71700472D01*
X73432800Y-71702999D01*
X72156956Y-72234599D01*
X72148001Y-72234618D01*
X72141657Y-72228300D01*
X71840864Y-71504487D01*
X71840854Y-71495538D01*
X72141653Y-70771708D01*
X72147991Y-70765385D01*
X72156946Y-70765396D01*
G37*
%TD.AperFunction*%
%TD*%
%TA.AperFunction,Conductor*%
%TO.N,Out +*%
G36*
X72548420Y-63801707D02*
G01*
X72554745Y-63808046D01*
X72554784Y-63816879D01*
X72042951Y-65088690D01*
X72036683Y-65095086D01*
X72032097Y-65096022D01*
X71647680Y-65096022D01*
X71639407Y-65092595D01*
X71636945Y-65088975D01*
X71636821Y-65088690D01*
X71085620Y-63817045D01*
X71085474Y-63808092D01*
X71091702Y-63801657D01*
X71091781Y-63801623D01*
X71815512Y-63500864D01*
X71824461Y-63500854D01*
X72548420Y-63801707D01*
G37*
%TD.AperFunction*%
%TD*%
%TA.AperFunction,Conductor*%
%TO.N,Out -*%
G36*
X106700090Y-70303427D02*
G01*
X106702807Y-70307687D01*
X107050488Y-71259874D01*
X107050107Y-71268821D01*
X107043992Y-71274689D01*
X106504494Y-71499130D01*
X106495539Y-71499144D01*
X106495506Y-71499130D01*
X105956007Y-71274689D01*
X105949685Y-71268348D01*
X105949511Y-71259876D01*
X106297193Y-70307686D01*
X106303249Y-70301091D01*
X106308183Y-70300000D01*
X106691817Y-70300000D01*
X106700090Y-70303427D01*
G37*
%TD.AperFunction*%
%TD*%
M02*
