M48
; DRILL file {KiCad (7.0.0-0)} date Wednesday, 07 February 2024, 12:33:32
; FORMAT={-:-/ absolute / inch / decimal}
; #@! TF.CreationDate,2024-02-07T12:33:32+03:00
; #@! TF.GenerationSoftware,Kicad,Pcbnew,(7.0.0-0)
; #@! TF.FileFunction,Plated,1,2,PTH
FMAT,2
INCH
; #@! TA.AperFunction,Plated,PTH,ComponentDrill
T1C0.0276
; #@! TA.AperFunction,Plated,PTH,ComponentDrill
T2C0.0315
; #@! TA.AperFunction,Plated,PTH,ComponentDrill
T3C0.0394
; #@! TA.AperFunction,Plated,PTH,ComponentDrill
T4C0.0433
%
G90
G05
T1
X2.3591Y-1.8307
X2.3591Y-2.7559
X2.4591Y-1.7559
X2.4591Y-2.7559
X2.5591Y-1.8307
X2.5591Y-2.7559
X4.0929Y-1.8465
X4.0929Y-2.752
X4.1929Y-1.9094
X4.1929Y-2.815
X4.2929Y-1.8465
X4.2929Y-2.752
T2
X1.9291Y-1.7303
X1.9291Y-1.8303
X1.9291Y-1.9303
X1.9291Y-2.2421
X1.9291Y-2.3421
X1.9291Y-2.4421
X2.2606Y-2.1457
X2.2606Y-2.2835
X2.2606Y-2.4213
X2.6606Y-2.1457
X2.6606Y-2.2835
X2.6606Y-2.4213
X2.8244Y-2.185
X2.8244Y-2.3425
X2.8276Y-2.5
X2.8283Y-2.6575
X2.8283Y-2.815
X3.0689Y-1.8189
X3.2244Y-2.185
X3.2244Y-2.3425
X3.2276Y-2.5
X3.2283Y-2.6575
X3.2283Y-2.815
X3.3642Y-1.8189
X3.3974Y-2.7756
X3.4959Y-2.7756
X3.7124Y-2.7756
X3.8108Y-2.7756
T3
X1.8898Y-2.774
X1.8898Y-2.874
X2.1053Y-2.6947
X2.1053Y-2.7947
X2.1053Y-2.8947
X2.8543Y-1.7189
X2.8543Y-1.8189
X3.6299Y-1.811
X3.7795Y-1.811
X3.8189Y-2.2992
X3.9685Y-2.2992
X4.3317Y-2.2622
X4.3317Y-2.3622
T4
X3.4055Y-2.174
X3.4055Y-2.574
X3.5709Y-2.1748
X3.5709Y-2.5748
T0
M30
