%TF.GenerationSoftware,KiCad,Pcbnew,8.0.0*%
%TF.CreationDate,2024-03-19T09:41:08+03:00*%
%TF.ProjectId,germanium-amp,6765726d-616e-4697-956d-2d616d702e6b,rev?*%
%TF.SameCoordinates,Original*%
%TF.FileFunction,Drillmap*%
%TF.FilePolarity,Positive*%
%FSLAX45Y45*%
G04 Gerber Fmt 4.5, Leading zero omitted, Abs format (unit mm)*
G04 Created by KiCad (PCBNEW 8.0.0) date 2024-03-19 09:41:08*
%MOMM*%
%LPD*%
G01*
G04 APERTURE LIST*
%ADD10C,0.100000*%
%ADD11C,0.200000*%
%ADD12C,0.110000*%
G04 APERTURE END LIST*
D10*
X12050000Y-3300000D02*
X3700000Y-3300000D01*
X4200000Y-3600000D02*
G75*
G02*
X3800000Y-3600000I-200000J0D01*
G01*
X3800000Y-3600000D02*
G75*
G02*
X4200000Y-3600000I200000J0D01*
G01*
X12050000Y-8400000D02*
X12050000Y-3300000D01*
X11950000Y-8100000D02*
G75*
G02*
X11550000Y-8100000I-200000J0D01*
G01*
X11550000Y-8100000D02*
G75*
G02*
X11950000Y-8100000I200000J0D01*
G01*
X3700000Y-8400000D02*
X12050000Y-8400000D01*
X11950000Y-3600000D02*
G75*
G02*
X11550000Y-3600000I-200000J0D01*
G01*
X11550000Y-3600000D02*
G75*
G02*
X11950000Y-3600000I200000J0D01*
G01*
X4200000Y-8100000D02*
G75*
G02*
X3800000Y-8100000I-200000J0D01*
G01*
X3800000Y-8100000D02*
G75*
G02*
X4200000Y-8100000I200000J0D01*
G01*
X3700000Y-3300000D02*
X3700000Y-8400000D01*
D11*
D10*
X5957000Y-4615000D02*
X6027000Y-4685000D01*
X6027000Y-4615000D02*
X5957000Y-4685000D01*
X5957000Y-6965000D02*
X6027000Y-7035000D01*
X6027000Y-6965000D02*
X5957000Y-7035000D01*
X6211000Y-4425000D02*
X6281000Y-4495000D01*
X6281000Y-4425000D02*
X6211000Y-4495000D01*
X6211000Y-6965000D02*
X6281000Y-7035000D01*
X6281000Y-6965000D02*
X6211000Y-7035000D01*
X6465000Y-4615000D02*
X6535000Y-4685000D01*
X6535000Y-4615000D02*
X6465000Y-4685000D01*
X6465000Y-6965000D02*
X6535000Y-7035000D01*
X6535000Y-6965000D02*
X6465000Y-7035000D01*
X10361000Y-4655000D02*
X10431000Y-4725000D01*
X10431000Y-4655000D02*
X10361000Y-4725000D01*
X10361000Y-6955000D02*
X10431000Y-7025000D01*
X10431000Y-6955000D02*
X10361000Y-7025000D01*
X10615000Y-4815000D02*
X10685000Y-4885000D01*
X10685000Y-4815000D02*
X10615000Y-4885000D01*
X10615000Y-7115000D02*
X10685000Y-7185000D01*
X10685000Y-7115000D02*
X10615000Y-7185000D01*
X10869000Y-4655000D02*
X10939000Y-4725000D01*
X10939000Y-4655000D02*
X10869000Y-4725000D01*
X10869000Y-6955000D02*
X10939000Y-7025000D01*
X10939000Y-6955000D02*
X10869000Y-7025000D01*
X4940000Y-4395000D02*
G75*
G02*
X4860000Y-4395000I-40000J0D01*
G01*
X4860000Y-4395000D02*
G75*
G02*
X4940000Y-4395000I40000J0D01*
G01*
X4940000Y-4649000D02*
G75*
G02*
X4860000Y-4649000I-40000J0D01*
G01*
X4860000Y-4649000D02*
G75*
G02*
X4940000Y-4649000I40000J0D01*
G01*
X4940000Y-4903000D02*
G75*
G02*
X4860000Y-4903000I-40000J0D01*
G01*
X4860000Y-4903000D02*
G75*
G02*
X4940000Y-4903000I40000J0D01*
G01*
X4940000Y-5695000D02*
G75*
G02*
X4860000Y-5695000I-40000J0D01*
G01*
X4860000Y-5695000D02*
G75*
G02*
X4940000Y-5695000I40000J0D01*
G01*
X4940000Y-5949000D02*
G75*
G02*
X4860000Y-5949000I-40000J0D01*
G01*
X4860000Y-5949000D02*
G75*
G02*
X4940000Y-5949000I40000J0D01*
G01*
X4940000Y-6203000D02*
G75*
G02*
X4860000Y-6203000I-40000J0D01*
G01*
X4860000Y-6203000D02*
G75*
G02*
X4940000Y-6203000I40000J0D01*
G01*
X5782000Y-5450000D02*
G75*
G02*
X5702000Y-5450000I-40000J0D01*
G01*
X5702000Y-5450000D02*
G75*
G02*
X5782000Y-5450000I40000J0D01*
G01*
X5782000Y-5800000D02*
G75*
G02*
X5702000Y-5800000I-40000J0D01*
G01*
X5702000Y-5800000D02*
G75*
G02*
X5782000Y-5800000I40000J0D01*
G01*
X5782000Y-6150000D02*
G75*
G02*
X5702000Y-6150000I-40000J0D01*
G01*
X5702000Y-6150000D02*
G75*
G02*
X5782000Y-6150000I40000J0D01*
G01*
X6798000Y-5450000D02*
G75*
G02*
X6718000Y-5450000I-40000J0D01*
G01*
X6718000Y-5450000D02*
G75*
G02*
X6798000Y-5450000I40000J0D01*
G01*
X6798000Y-5800000D02*
G75*
G02*
X6718000Y-5800000I-40000J0D01*
G01*
X6718000Y-5800000D02*
G75*
G02*
X6798000Y-5800000I40000J0D01*
G01*
X6798000Y-6150000D02*
G75*
G02*
X6718000Y-6150000I-40000J0D01*
G01*
X6718000Y-6150000D02*
G75*
G02*
X6798000Y-6150000I40000J0D01*
G01*
X7214000Y-5550000D02*
G75*
G02*
X7134000Y-5550000I-40000J0D01*
G01*
X7134000Y-5550000D02*
G75*
G02*
X7214000Y-5550000I40000J0D01*
G01*
X7214000Y-5950000D02*
G75*
G02*
X7134000Y-5950000I-40000J0D01*
G01*
X7134000Y-5950000D02*
G75*
G02*
X7214000Y-5950000I40000J0D01*
G01*
X7222000Y-6350000D02*
G75*
G02*
X7142000Y-6350000I-40000J0D01*
G01*
X7142000Y-6350000D02*
G75*
G02*
X7222000Y-6350000I40000J0D01*
G01*
X7224000Y-6750000D02*
G75*
G02*
X7144000Y-6750000I-40000J0D01*
G01*
X7144000Y-6750000D02*
G75*
G02*
X7224000Y-6750000I40000J0D01*
G01*
X7224000Y-7150000D02*
G75*
G02*
X7144000Y-7150000I-40000J0D01*
G01*
X7144000Y-7150000D02*
G75*
G02*
X7224000Y-7150000I40000J0D01*
G01*
X7835000Y-4620000D02*
G75*
G02*
X7755000Y-4620000I-40000J0D01*
G01*
X7755000Y-4620000D02*
G75*
G02*
X7835000Y-4620000I40000J0D01*
G01*
X8230000Y-5550000D02*
G75*
G02*
X8150000Y-5550000I-40000J0D01*
G01*
X8150000Y-5550000D02*
G75*
G02*
X8230000Y-5550000I40000J0D01*
G01*
X8230000Y-5950000D02*
G75*
G02*
X8150000Y-5950000I-40000J0D01*
G01*
X8150000Y-5950000D02*
G75*
G02*
X8230000Y-5950000I40000J0D01*
G01*
X8238000Y-6350000D02*
G75*
G02*
X8158000Y-6350000I-40000J0D01*
G01*
X8158000Y-6350000D02*
G75*
G02*
X8238000Y-6350000I40000J0D01*
G01*
X8240000Y-6750000D02*
G75*
G02*
X8160000Y-6750000I-40000J0D01*
G01*
X8160000Y-6750000D02*
G75*
G02*
X8240000Y-6750000I40000J0D01*
G01*
X8240000Y-7150000D02*
G75*
G02*
X8160000Y-7150000I-40000J0D01*
G01*
X8160000Y-7150000D02*
G75*
G02*
X8240000Y-7150000I40000J0D01*
G01*
X8585000Y-4620000D02*
G75*
G02*
X8505000Y-4620000I-40000J0D01*
G01*
X8505000Y-4620000D02*
G75*
G02*
X8585000Y-4620000I40000J0D01*
G01*
X8669490Y-7050000D02*
G75*
G02*
X8589490Y-7050000I-40000J0D01*
G01*
X8589490Y-7050000D02*
G75*
G02*
X8669490Y-7050000I40000J0D01*
G01*
X8919490Y-7050000D02*
G75*
G02*
X8839490Y-7050000I-40000J0D01*
G01*
X8839490Y-7050000D02*
G75*
G02*
X8919490Y-7050000I40000J0D01*
G01*
X9469490Y-7050000D02*
G75*
G02*
X9389490Y-7050000I-40000J0D01*
G01*
X9389490Y-7050000D02*
G75*
G02*
X9469490Y-7050000I40000J0D01*
G01*
X9719490Y-7050000D02*
G75*
G02*
X9639490Y-7050000I-40000J0D01*
G01*
X9639490Y-7050000D02*
G75*
G02*
X9719490Y-7050000I40000J0D01*
G01*
X4800000Y-6996000D02*
X4800000Y-7096000D01*
X4750000Y-7046000D02*
X4850000Y-7046000D01*
X4800000Y-7250000D02*
X4800000Y-7350000D01*
X4750000Y-7300000D02*
X4850000Y-7300000D01*
X5347500Y-6794500D02*
X5347500Y-6894500D01*
X5297500Y-6844500D02*
X5397500Y-6844500D01*
X5347500Y-7048500D02*
X5347500Y-7148500D01*
X5297500Y-7098500D02*
X5397500Y-7098500D01*
X5347500Y-7302500D02*
X5347500Y-7402500D01*
X5297500Y-7352500D02*
X5397500Y-7352500D01*
X7250000Y-4316000D02*
X7250000Y-4416000D01*
X7200000Y-4366000D02*
X7300000Y-4366000D01*
X7250000Y-4570000D02*
X7250000Y-4670000D01*
X7200000Y-4620000D02*
X7300000Y-4620000D01*
X9220000Y-4550000D02*
X9220000Y-4650000D01*
X9170000Y-4600000D02*
X9270000Y-4600000D01*
X9600000Y-4550000D02*
X9600000Y-4650000D01*
X9550000Y-4600000D02*
X9650000Y-4600000D01*
X9700000Y-5790000D02*
X9700000Y-5890000D01*
X9650000Y-5840000D02*
X9750000Y-5840000D01*
X10080000Y-5790000D02*
X10080000Y-5890000D01*
X10030000Y-5840000D02*
X10130000Y-5840000D01*
X11002500Y-5696000D02*
X11002500Y-5796000D01*
X10952500Y-5746000D02*
X11052500Y-5746000D01*
X11002500Y-5950000D02*
X11002500Y-6050000D01*
X10952500Y-6000000D02*
X11052500Y-6000000D01*
D12*
X8688891Y-5560891D02*
X8688891Y-5483109D01*
X8611109Y-5483109D01*
X8611109Y-5560891D01*
X8688891Y-5560891D01*
X8688891Y-6576891D02*
X8688891Y-6499109D01*
X8611109Y-6499109D01*
X8611109Y-6576891D01*
X8688891Y-6576891D01*
X9108891Y-5562891D02*
X9108891Y-5485109D01*
X9031109Y-5485109D01*
X9031109Y-5562891D01*
X9108891Y-5562891D01*
X9108891Y-6578891D02*
X9108891Y-6501109D01*
X9031109Y-6501109D01*
X9031109Y-6578891D01*
X9108891Y-6578891D01*
D11*
X3955777Y-8716484D02*
X3955777Y-8516484D01*
X3955777Y-8516484D02*
X4003396Y-8516484D01*
X4003396Y-8516484D02*
X4031967Y-8526008D01*
X4031967Y-8526008D02*
X4051015Y-8545055D01*
X4051015Y-8545055D02*
X4060539Y-8564103D01*
X4060539Y-8564103D02*
X4070062Y-8602198D01*
X4070062Y-8602198D02*
X4070062Y-8630770D01*
X4070062Y-8630770D02*
X4060539Y-8668865D01*
X4060539Y-8668865D02*
X4051015Y-8687912D01*
X4051015Y-8687912D02*
X4031967Y-8706960D01*
X4031967Y-8706960D02*
X4003396Y-8716484D01*
X4003396Y-8716484D02*
X3955777Y-8716484D01*
X4155777Y-8716484D02*
X4155777Y-8583150D01*
X4155777Y-8621246D02*
X4165301Y-8602198D01*
X4165301Y-8602198D02*
X4174824Y-8592674D01*
X4174824Y-8592674D02*
X4193872Y-8583150D01*
X4193872Y-8583150D02*
X4212920Y-8583150D01*
X4279586Y-8716484D02*
X4279586Y-8583150D01*
X4279586Y-8516484D02*
X4270063Y-8526008D01*
X4270063Y-8526008D02*
X4279586Y-8535531D01*
X4279586Y-8535531D02*
X4289110Y-8526008D01*
X4289110Y-8526008D02*
X4279586Y-8516484D01*
X4279586Y-8516484D02*
X4279586Y-8535531D01*
X4403396Y-8716484D02*
X4384348Y-8706960D01*
X4384348Y-8706960D02*
X4374824Y-8687912D01*
X4374824Y-8687912D02*
X4374824Y-8516484D01*
X4508158Y-8716484D02*
X4489110Y-8706960D01*
X4489110Y-8706960D02*
X4479586Y-8687912D01*
X4479586Y-8687912D02*
X4479586Y-8516484D01*
X4736729Y-8716484D02*
X4736729Y-8516484D01*
X4736729Y-8516484D02*
X4803396Y-8659341D01*
X4803396Y-8659341D02*
X4870063Y-8516484D01*
X4870063Y-8516484D02*
X4870063Y-8716484D01*
X5051015Y-8716484D02*
X5051015Y-8611722D01*
X5051015Y-8611722D02*
X5041491Y-8592674D01*
X5041491Y-8592674D02*
X5022444Y-8583150D01*
X5022444Y-8583150D02*
X4984348Y-8583150D01*
X4984348Y-8583150D02*
X4965301Y-8592674D01*
X5051015Y-8706960D02*
X5031967Y-8716484D01*
X5031967Y-8716484D02*
X4984348Y-8716484D01*
X4984348Y-8716484D02*
X4965301Y-8706960D01*
X4965301Y-8706960D02*
X4955777Y-8687912D01*
X4955777Y-8687912D02*
X4955777Y-8668865D01*
X4955777Y-8668865D02*
X4965301Y-8649817D01*
X4965301Y-8649817D02*
X4984348Y-8640293D01*
X4984348Y-8640293D02*
X5031967Y-8640293D01*
X5031967Y-8640293D02*
X5051015Y-8630770D01*
X5146253Y-8583150D02*
X5146253Y-8783150D01*
X5146253Y-8592674D02*
X5165301Y-8583150D01*
X5165301Y-8583150D02*
X5203396Y-8583150D01*
X5203396Y-8583150D02*
X5222444Y-8592674D01*
X5222444Y-8592674D02*
X5231967Y-8602198D01*
X5231967Y-8602198D02*
X5241491Y-8621246D01*
X5241491Y-8621246D02*
X5241491Y-8678389D01*
X5241491Y-8678389D02*
X5231967Y-8697436D01*
X5231967Y-8697436D02*
X5222444Y-8706960D01*
X5222444Y-8706960D02*
X5203396Y-8716484D01*
X5203396Y-8716484D02*
X5165301Y-8716484D01*
X5165301Y-8716484D02*
X5146253Y-8706960D01*
X5327205Y-8697436D02*
X5336729Y-8706960D01*
X5336729Y-8706960D02*
X5327205Y-8716484D01*
X5327205Y-8716484D02*
X5317682Y-8706960D01*
X5317682Y-8706960D02*
X5327205Y-8697436D01*
X5327205Y-8697436D02*
X5327205Y-8716484D01*
X5327205Y-8592674D02*
X5336729Y-8602198D01*
X5336729Y-8602198D02*
X5327205Y-8611722D01*
X5327205Y-8611722D02*
X5317682Y-8602198D01*
X5317682Y-8602198D02*
X5327205Y-8592674D01*
X5327205Y-8592674D02*
X5327205Y-8611722D01*
D10*
X3625000Y-9010000D02*
X3695000Y-9080000D01*
X3695000Y-9010000D02*
X3625000Y-9080000D01*
D11*
X3993872Y-8936484D02*
X4012920Y-8936484D01*
X4012920Y-8936484D02*
X4031967Y-8946008D01*
X4031967Y-8946008D02*
X4041491Y-8955531D01*
X4041491Y-8955531D02*
X4051015Y-8974579D01*
X4051015Y-8974579D02*
X4060539Y-9012674D01*
X4060539Y-9012674D02*
X4060539Y-9060293D01*
X4060539Y-9060293D02*
X4051015Y-9098389D01*
X4051015Y-9098389D02*
X4041491Y-9117436D01*
X4041491Y-9117436D02*
X4031967Y-9126960D01*
X4031967Y-9126960D02*
X4012920Y-9136484D01*
X4012920Y-9136484D02*
X3993872Y-9136484D01*
X3993872Y-9136484D02*
X3974824Y-9126960D01*
X3974824Y-9126960D02*
X3965301Y-9117436D01*
X3965301Y-9117436D02*
X3955777Y-9098389D01*
X3955777Y-9098389D02*
X3946253Y-9060293D01*
X3946253Y-9060293D02*
X3946253Y-9012674D01*
X3946253Y-9012674D02*
X3955777Y-8974579D01*
X3955777Y-8974579D02*
X3965301Y-8955531D01*
X3965301Y-8955531D02*
X3974824Y-8946008D01*
X3974824Y-8946008D02*
X3993872Y-8936484D01*
X4146253Y-9117436D02*
X4155777Y-9126960D01*
X4155777Y-9126960D02*
X4146253Y-9136484D01*
X4146253Y-9136484D02*
X4136729Y-9126960D01*
X4136729Y-9126960D02*
X4146253Y-9117436D01*
X4146253Y-9117436D02*
X4146253Y-9136484D01*
X4222444Y-8936484D02*
X4355777Y-8936484D01*
X4355777Y-8936484D02*
X4270063Y-9136484D01*
X4470063Y-8936484D02*
X4489110Y-8936484D01*
X4489110Y-8936484D02*
X4508158Y-8946008D01*
X4508158Y-8946008D02*
X4517682Y-8955531D01*
X4517682Y-8955531D02*
X4527205Y-8974579D01*
X4527205Y-8974579D02*
X4536729Y-9012674D01*
X4536729Y-9012674D02*
X4536729Y-9060293D01*
X4536729Y-9060293D02*
X4527205Y-9098389D01*
X4527205Y-9098389D02*
X4517682Y-9117436D01*
X4517682Y-9117436D02*
X4508158Y-9126960D01*
X4508158Y-9126960D02*
X4489110Y-9136484D01*
X4489110Y-9136484D02*
X4470063Y-9136484D01*
X4470063Y-9136484D02*
X4451015Y-9126960D01*
X4451015Y-9126960D02*
X4441491Y-9117436D01*
X4441491Y-9117436D02*
X4431967Y-9098389D01*
X4431967Y-9098389D02*
X4422444Y-9060293D01*
X4422444Y-9060293D02*
X4422444Y-9012674D01*
X4422444Y-9012674D02*
X4431967Y-8974579D01*
X4431967Y-8974579D02*
X4441491Y-8955531D01*
X4441491Y-8955531D02*
X4451015Y-8946008D01*
X4451015Y-8946008D02*
X4470063Y-8936484D01*
X4660539Y-8936484D02*
X4679586Y-8936484D01*
X4679586Y-8936484D02*
X4698634Y-8946008D01*
X4698634Y-8946008D02*
X4708158Y-8955531D01*
X4708158Y-8955531D02*
X4717682Y-8974579D01*
X4717682Y-8974579D02*
X4727205Y-9012674D01*
X4727205Y-9012674D02*
X4727205Y-9060293D01*
X4727205Y-9060293D02*
X4717682Y-9098389D01*
X4717682Y-9098389D02*
X4708158Y-9117436D01*
X4708158Y-9117436D02*
X4698634Y-9126960D01*
X4698634Y-9126960D02*
X4679586Y-9136484D01*
X4679586Y-9136484D02*
X4660539Y-9136484D01*
X4660539Y-9136484D02*
X4641491Y-9126960D01*
X4641491Y-9126960D02*
X4631967Y-9117436D01*
X4631967Y-9117436D02*
X4622444Y-9098389D01*
X4622444Y-9098389D02*
X4612920Y-9060293D01*
X4612920Y-9060293D02*
X4612920Y-9012674D01*
X4612920Y-9012674D02*
X4622444Y-8974579D01*
X4622444Y-8974579D02*
X4631967Y-8955531D01*
X4631967Y-8955531D02*
X4641491Y-8946008D01*
X4641491Y-8946008D02*
X4660539Y-8936484D01*
X4812920Y-9136484D02*
X4812920Y-9003150D01*
X4812920Y-9022198D02*
X4822444Y-9012674D01*
X4822444Y-9012674D02*
X4841491Y-9003150D01*
X4841491Y-9003150D02*
X4870063Y-9003150D01*
X4870063Y-9003150D02*
X4889110Y-9012674D01*
X4889110Y-9012674D02*
X4898634Y-9031722D01*
X4898634Y-9031722D02*
X4898634Y-9136484D01*
X4898634Y-9031722D02*
X4908158Y-9012674D01*
X4908158Y-9012674D02*
X4927205Y-9003150D01*
X4927205Y-9003150D02*
X4955777Y-9003150D01*
X4955777Y-9003150D02*
X4974825Y-9012674D01*
X4974825Y-9012674D02*
X4984348Y-9031722D01*
X4984348Y-9031722D02*
X4984348Y-9136484D01*
X5079586Y-9136484D02*
X5079586Y-9003150D01*
X5079586Y-9022198D02*
X5089110Y-9012674D01*
X5089110Y-9012674D02*
X5108158Y-9003150D01*
X5108158Y-9003150D02*
X5136729Y-9003150D01*
X5136729Y-9003150D02*
X5155777Y-9012674D01*
X5155777Y-9012674D02*
X5165301Y-9031722D01*
X5165301Y-9031722D02*
X5165301Y-9136484D01*
X5165301Y-9031722D02*
X5174825Y-9012674D01*
X5174825Y-9012674D02*
X5193872Y-9003150D01*
X5193872Y-9003150D02*
X5222444Y-9003150D01*
X5222444Y-9003150D02*
X5241491Y-9012674D01*
X5241491Y-9012674D02*
X5251015Y-9031722D01*
X5251015Y-9031722D02*
X5251015Y-9136484D01*
X5641491Y-8926960D02*
X5470063Y-9184103D01*
X5898634Y-8936484D02*
X5917682Y-8936484D01*
X5917682Y-8936484D02*
X5936729Y-8946008D01*
X5936729Y-8946008D02*
X5946253Y-8955531D01*
X5946253Y-8955531D02*
X5955777Y-8974579D01*
X5955777Y-8974579D02*
X5965301Y-9012674D01*
X5965301Y-9012674D02*
X5965301Y-9060293D01*
X5965301Y-9060293D02*
X5955777Y-9098389D01*
X5955777Y-9098389D02*
X5946253Y-9117436D01*
X5946253Y-9117436D02*
X5936729Y-9126960D01*
X5936729Y-9126960D02*
X5917682Y-9136484D01*
X5917682Y-9136484D02*
X5898634Y-9136484D01*
X5898634Y-9136484D02*
X5879586Y-9126960D01*
X5879586Y-9126960D02*
X5870063Y-9117436D01*
X5870063Y-9117436D02*
X5860539Y-9098389D01*
X5860539Y-9098389D02*
X5851015Y-9060293D01*
X5851015Y-9060293D02*
X5851015Y-9012674D01*
X5851015Y-9012674D02*
X5860539Y-8974579D01*
X5860539Y-8974579D02*
X5870063Y-8955531D01*
X5870063Y-8955531D02*
X5879586Y-8946008D01*
X5879586Y-8946008D02*
X5898634Y-8936484D01*
X6051015Y-9117436D02*
X6060539Y-9126960D01*
X6060539Y-9126960D02*
X6051015Y-9136484D01*
X6051015Y-9136484D02*
X6041491Y-9126960D01*
X6041491Y-9126960D02*
X6051015Y-9117436D01*
X6051015Y-9117436D02*
X6051015Y-9136484D01*
X6184348Y-8936484D02*
X6203396Y-8936484D01*
X6203396Y-8936484D02*
X6222444Y-8946008D01*
X6222444Y-8946008D02*
X6231967Y-8955531D01*
X6231967Y-8955531D02*
X6241491Y-8974579D01*
X6241491Y-8974579D02*
X6251015Y-9012674D01*
X6251015Y-9012674D02*
X6251015Y-9060293D01*
X6251015Y-9060293D02*
X6241491Y-9098389D01*
X6241491Y-9098389D02*
X6231967Y-9117436D01*
X6231967Y-9117436D02*
X6222444Y-9126960D01*
X6222444Y-9126960D02*
X6203396Y-9136484D01*
X6203396Y-9136484D02*
X6184348Y-9136484D01*
X6184348Y-9136484D02*
X6165301Y-9126960D01*
X6165301Y-9126960D02*
X6155777Y-9117436D01*
X6155777Y-9117436D02*
X6146253Y-9098389D01*
X6146253Y-9098389D02*
X6136729Y-9060293D01*
X6136729Y-9060293D02*
X6136729Y-9012674D01*
X6136729Y-9012674D02*
X6146253Y-8974579D01*
X6146253Y-8974579D02*
X6155777Y-8955531D01*
X6155777Y-8955531D02*
X6165301Y-8946008D01*
X6165301Y-8946008D02*
X6184348Y-8936484D01*
X6327206Y-8955531D02*
X6336729Y-8946008D01*
X6336729Y-8946008D02*
X6355777Y-8936484D01*
X6355777Y-8936484D02*
X6403396Y-8936484D01*
X6403396Y-8936484D02*
X6422444Y-8946008D01*
X6422444Y-8946008D02*
X6431967Y-8955531D01*
X6431967Y-8955531D02*
X6441491Y-8974579D01*
X6441491Y-8974579D02*
X6441491Y-8993627D01*
X6441491Y-8993627D02*
X6431967Y-9022198D01*
X6431967Y-9022198D02*
X6317682Y-9136484D01*
X6317682Y-9136484D02*
X6441491Y-9136484D01*
X6508158Y-8936484D02*
X6641491Y-8936484D01*
X6641491Y-8936484D02*
X6555777Y-9136484D01*
X6803396Y-8936484D02*
X6765301Y-8936484D01*
X6765301Y-8936484D02*
X6746253Y-8946008D01*
X6746253Y-8946008D02*
X6736729Y-8955531D01*
X6736729Y-8955531D02*
X6717682Y-8984103D01*
X6717682Y-8984103D02*
X6708158Y-9022198D01*
X6708158Y-9022198D02*
X6708158Y-9098389D01*
X6708158Y-9098389D02*
X6717682Y-9117436D01*
X6717682Y-9117436D02*
X6727206Y-9126960D01*
X6727206Y-9126960D02*
X6746253Y-9136484D01*
X6746253Y-9136484D02*
X6784348Y-9136484D01*
X6784348Y-9136484D02*
X6803396Y-9126960D01*
X6803396Y-9126960D02*
X6812920Y-9117436D01*
X6812920Y-9117436D02*
X6822444Y-9098389D01*
X6822444Y-9098389D02*
X6822444Y-9050770D01*
X6822444Y-9050770D02*
X6812920Y-9031722D01*
X6812920Y-9031722D02*
X6803396Y-9022198D01*
X6803396Y-9022198D02*
X6784348Y-9012674D01*
X6784348Y-9012674D02*
X6746253Y-9012674D01*
X6746253Y-9012674D02*
X6727206Y-9022198D01*
X6727206Y-9022198D02*
X6717682Y-9031722D01*
X6717682Y-9031722D02*
X6708158Y-9050770D01*
X6898634Y-8936484D02*
X6898634Y-8974579D01*
X6974825Y-8936484D02*
X6974825Y-8974579D01*
X7270063Y-9212674D02*
X7260539Y-9203150D01*
X7260539Y-9203150D02*
X7241491Y-9174579D01*
X7241491Y-9174579D02*
X7231968Y-9155531D01*
X7231968Y-9155531D02*
X7222444Y-9126960D01*
X7222444Y-9126960D02*
X7212920Y-9079341D01*
X7212920Y-9079341D02*
X7212920Y-9041246D01*
X7212920Y-9041246D02*
X7222444Y-8993627D01*
X7222444Y-8993627D02*
X7231968Y-8965055D01*
X7231968Y-8965055D02*
X7241491Y-8946008D01*
X7241491Y-8946008D02*
X7260539Y-8917436D01*
X7260539Y-8917436D02*
X7270063Y-8907912D01*
X7451015Y-9136484D02*
X7336729Y-9136484D01*
X7393872Y-9136484D02*
X7393872Y-8936484D01*
X7393872Y-8936484D02*
X7374825Y-8965055D01*
X7374825Y-8965055D02*
X7355777Y-8984103D01*
X7355777Y-8984103D02*
X7336729Y-8993627D01*
X7527206Y-8955531D02*
X7536729Y-8946008D01*
X7536729Y-8946008D02*
X7555777Y-8936484D01*
X7555777Y-8936484D02*
X7603396Y-8936484D01*
X7603396Y-8936484D02*
X7622444Y-8946008D01*
X7622444Y-8946008D02*
X7631968Y-8955531D01*
X7631968Y-8955531D02*
X7641491Y-8974579D01*
X7641491Y-8974579D02*
X7641491Y-8993627D01*
X7641491Y-8993627D02*
X7631968Y-9022198D01*
X7631968Y-9022198D02*
X7517682Y-9136484D01*
X7517682Y-9136484D02*
X7641491Y-9136484D01*
X7879587Y-9136484D02*
X7879587Y-8936484D01*
X7965301Y-9136484D02*
X7965301Y-9031722D01*
X7965301Y-9031722D02*
X7955777Y-9012674D01*
X7955777Y-9012674D02*
X7936730Y-9003150D01*
X7936730Y-9003150D02*
X7908158Y-9003150D01*
X7908158Y-9003150D02*
X7889110Y-9012674D01*
X7889110Y-9012674D02*
X7879587Y-9022198D01*
X8089110Y-9136484D02*
X8070063Y-9126960D01*
X8070063Y-9126960D02*
X8060539Y-9117436D01*
X8060539Y-9117436D02*
X8051015Y-9098389D01*
X8051015Y-9098389D02*
X8051015Y-9041246D01*
X8051015Y-9041246D02*
X8060539Y-9022198D01*
X8060539Y-9022198D02*
X8070063Y-9012674D01*
X8070063Y-9012674D02*
X8089110Y-9003150D01*
X8089110Y-9003150D02*
X8117682Y-9003150D01*
X8117682Y-9003150D02*
X8136730Y-9012674D01*
X8136730Y-9012674D02*
X8146253Y-9022198D01*
X8146253Y-9022198D02*
X8155777Y-9041246D01*
X8155777Y-9041246D02*
X8155777Y-9098389D01*
X8155777Y-9098389D02*
X8146253Y-9117436D01*
X8146253Y-9117436D02*
X8136730Y-9126960D01*
X8136730Y-9126960D02*
X8117682Y-9136484D01*
X8117682Y-9136484D02*
X8089110Y-9136484D01*
X8270063Y-9136484D02*
X8251015Y-9126960D01*
X8251015Y-9126960D02*
X8241491Y-9107912D01*
X8241491Y-9107912D02*
X8241491Y-8936484D01*
X8422444Y-9126960D02*
X8403396Y-9136484D01*
X8403396Y-9136484D02*
X8365301Y-9136484D01*
X8365301Y-9136484D02*
X8346253Y-9126960D01*
X8346253Y-9126960D02*
X8336730Y-9107912D01*
X8336730Y-9107912D02*
X8336730Y-9031722D01*
X8336730Y-9031722D02*
X8346253Y-9012674D01*
X8346253Y-9012674D02*
X8365301Y-9003150D01*
X8365301Y-9003150D02*
X8403396Y-9003150D01*
X8403396Y-9003150D02*
X8422444Y-9012674D01*
X8422444Y-9012674D02*
X8431968Y-9031722D01*
X8431968Y-9031722D02*
X8431968Y-9050770D01*
X8431968Y-9050770D02*
X8336730Y-9069817D01*
X8508158Y-9126960D02*
X8527206Y-9136484D01*
X8527206Y-9136484D02*
X8565301Y-9136484D01*
X8565301Y-9136484D02*
X8584349Y-9126960D01*
X8584349Y-9126960D02*
X8593873Y-9107912D01*
X8593873Y-9107912D02*
X8593873Y-9098389D01*
X8593873Y-9098389D02*
X8584349Y-9079341D01*
X8584349Y-9079341D02*
X8565301Y-9069817D01*
X8565301Y-9069817D02*
X8536730Y-9069817D01*
X8536730Y-9069817D02*
X8517682Y-9060293D01*
X8517682Y-9060293D02*
X8508158Y-9041246D01*
X8508158Y-9041246D02*
X8508158Y-9031722D01*
X8508158Y-9031722D02*
X8517682Y-9012674D01*
X8517682Y-9012674D02*
X8536730Y-9003150D01*
X8536730Y-9003150D02*
X8565301Y-9003150D01*
X8565301Y-9003150D02*
X8584349Y-9012674D01*
X8660539Y-9212674D02*
X8670063Y-9203150D01*
X8670063Y-9203150D02*
X8689111Y-9174579D01*
X8689111Y-9174579D02*
X8698634Y-9155531D01*
X8698634Y-9155531D02*
X8708158Y-9126960D01*
X8708158Y-9126960D02*
X8717682Y-9079341D01*
X8717682Y-9079341D02*
X8717682Y-9041246D01*
X8717682Y-9041246D02*
X8708158Y-8993627D01*
X8708158Y-8993627D02*
X8698634Y-8965055D01*
X8698634Y-8965055D02*
X8689111Y-8946008D01*
X8689111Y-8946008D02*
X8670063Y-8917436D01*
X8670063Y-8917436D02*
X8660539Y-8907912D01*
D10*
X3695000Y-9309000D02*
G75*
G02*
X3615000Y-9309000I-40000J0D01*
G01*
X3615000Y-9309000D02*
G75*
G02*
X3695000Y-9309000I40000J0D01*
G01*
D11*
X3993872Y-9200484D02*
X4012920Y-9200484D01*
X4012920Y-9200484D02*
X4031967Y-9210008D01*
X4031967Y-9210008D02*
X4041491Y-9219531D01*
X4041491Y-9219531D02*
X4051015Y-9238579D01*
X4051015Y-9238579D02*
X4060539Y-9276674D01*
X4060539Y-9276674D02*
X4060539Y-9324293D01*
X4060539Y-9324293D02*
X4051015Y-9362389D01*
X4051015Y-9362389D02*
X4041491Y-9381436D01*
X4041491Y-9381436D02*
X4031967Y-9390960D01*
X4031967Y-9390960D02*
X4012920Y-9400484D01*
X4012920Y-9400484D02*
X3993872Y-9400484D01*
X3993872Y-9400484D02*
X3974824Y-9390960D01*
X3974824Y-9390960D02*
X3965301Y-9381436D01*
X3965301Y-9381436D02*
X3955777Y-9362389D01*
X3955777Y-9362389D02*
X3946253Y-9324293D01*
X3946253Y-9324293D02*
X3946253Y-9276674D01*
X3946253Y-9276674D02*
X3955777Y-9238579D01*
X3955777Y-9238579D02*
X3965301Y-9219531D01*
X3965301Y-9219531D02*
X3974824Y-9210008D01*
X3974824Y-9210008D02*
X3993872Y-9200484D01*
X4146253Y-9381436D02*
X4155777Y-9390960D01*
X4155777Y-9390960D02*
X4146253Y-9400484D01*
X4146253Y-9400484D02*
X4136729Y-9390960D01*
X4136729Y-9390960D02*
X4146253Y-9381436D01*
X4146253Y-9381436D02*
X4146253Y-9400484D01*
X4270063Y-9286198D02*
X4251015Y-9276674D01*
X4251015Y-9276674D02*
X4241491Y-9267150D01*
X4241491Y-9267150D02*
X4231967Y-9248103D01*
X4231967Y-9248103D02*
X4231967Y-9238579D01*
X4231967Y-9238579D02*
X4241491Y-9219531D01*
X4241491Y-9219531D02*
X4251015Y-9210008D01*
X4251015Y-9210008D02*
X4270063Y-9200484D01*
X4270063Y-9200484D02*
X4308158Y-9200484D01*
X4308158Y-9200484D02*
X4327205Y-9210008D01*
X4327205Y-9210008D02*
X4336729Y-9219531D01*
X4336729Y-9219531D02*
X4346253Y-9238579D01*
X4346253Y-9238579D02*
X4346253Y-9248103D01*
X4346253Y-9248103D02*
X4336729Y-9267150D01*
X4336729Y-9267150D02*
X4327205Y-9276674D01*
X4327205Y-9276674D02*
X4308158Y-9286198D01*
X4308158Y-9286198D02*
X4270063Y-9286198D01*
X4270063Y-9286198D02*
X4251015Y-9295722D01*
X4251015Y-9295722D02*
X4241491Y-9305246D01*
X4241491Y-9305246D02*
X4231967Y-9324293D01*
X4231967Y-9324293D02*
X4231967Y-9362389D01*
X4231967Y-9362389D02*
X4241491Y-9381436D01*
X4241491Y-9381436D02*
X4251015Y-9390960D01*
X4251015Y-9390960D02*
X4270063Y-9400484D01*
X4270063Y-9400484D02*
X4308158Y-9400484D01*
X4308158Y-9400484D02*
X4327205Y-9390960D01*
X4327205Y-9390960D02*
X4336729Y-9381436D01*
X4336729Y-9381436D02*
X4346253Y-9362389D01*
X4346253Y-9362389D02*
X4346253Y-9324293D01*
X4346253Y-9324293D02*
X4336729Y-9305246D01*
X4336729Y-9305246D02*
X4327205Y-9295722D01*
X4327205Y-9295722D02*
X4308158Y-9286198D01*
X4470063Y-9200484D02*
X4489110Y-9200484D01*
X4489110Y-9200484D02*
X4508158Y-9210008D01*
X4508158Y-9210008D02*
X4517682Y-9219531D01*
X4517682Y-9219531D02*
X4527205Y-9238579D01*
X4527205Y-9238579D02*
X4536729Y-9276674D01*
X4536729Y-9276674D02*
X4536729Y-9324293D01*
X4536729Y-9324293D02*
X4527205Y-9362389D01*
X4527205Y-9362389D02*
X4517682Y-9381436D01*
X4517682Y-9381436D02*
X4508158Y-9390960D01*
X4508158Y-9390960D02*
X4489110Y-9400484D01*
X4489110Y-9400484D02*
X4470063Y-9400484D01*
X4470063Y-9400484D02*
X4451015Y-9390960D01*
X4451015Y-9390960D02*
X4441491Y-9381436D01*
X4441491Y-9381436D02*
X4431967Y-9362389D01*
X4431967Y-9362389D02*
X4422444Y-9324293D01*
X4422444Y-9324293D02*
X4422444Y-9276674D01*
X4422444Y-9276674D02*
X4431967Y-9238579D01*
X4431967Y-9238579D02*
X4441491Y-9219531D01*
X4441491Y-9219531D02*
X4451015Y-9210008D01*
X4451015Y-9210008D02*
X4470063Y-9200484D01*
X4660539Y-9200484D02*
X4679586Y-9200484D01*
X4679586Y-9200484D02*
X4698634Y-9210008D01*
X4698634Y-9210008D02*
X4708158Y-9219531D01*
X4708158Y-9219531D02*
X4717682Y-9238579D01*
X4717682Y-9238579D02*
X4727205Y-9276674D01*
X4727205Y-9276674D02*
X4727205Y-9324293D01*
X4727205Y-9324293D02*
X4717682Y-9362389D01*
X4717682Y-9362389D02*
X4708158Y-9381436D01*
X4708158Y-9381436D02*
X4698634Y-9390960D01*
X4698634Y-9390960D02*
X4679586Y-9400484D01*
X4679586Y-9400484D02*
X4660539Y-9400484D01*
X4660539Y-9400484D02*
X4641491Y-9390960D01*
X4641491Y-9390960D02*
X4631967Y-9381436D01*
X4631967Y-9381436D02*
X4622444Y-9362389D01*
X4622444Y-9362389D02*
X4612920Y-9324293D01*
X4612920Y-9324293D02*
X4612920Y-9276674D01*
X4612920Y-9276674D02*
X4622444Y-9238579D01*
X4622444Y-9238579D02*
X4631967Y-9219531D01*
X4631967Y-9219531D02*
X4641491Y-9210008D01*
X4641491Y-9210008D02*
X4660539Y-9200484D01*
X4812920Y-9400484D02*
X4812920Y-9267150D01*
X4812920Y-9286198D02*
X4822444Y-9276674D01*
X4822444Y-9276674D02*
X4841491Y-9267150D01*
X4841491Y-9267150D02*
X4870063Y-9267150D01*
X4870063Y-9267150D02*
X4889110Y-9276674D01*
X4889110Y-9276674D02*
X4898634Y-9295722D01*
X4898634Y-9295722D02*
X4898634Y-9400484D01*
X4898634Y-9295722D02*
X4908158Y-9276674D01*
X4908158Y-9276674D02*
X4927205Y-9267150D01*
X4927205Y-9267150D02*
X4955777Y-9267150D01*
X4955777Y-9267150D02*
X4974825Y-9276674D01*
X4974825Y-9276674D02*
X4984348Y-9295722D01*
X4984348Y-9295722D02*
X4984348Y-9400484D01*
X5079586Y-9400484D02*
X5079586Y-9267150D01*
X5079586Y-9286198D02*
X5089110Y-9276674D01*
X5089110Y-9276674D02*
X5108158Y-9267150D01*
X5108158Y-9267150D02*
X5136729Y-9267150D01*
X5136729Y-9267150D02*
X5155777Y-9276674D01*
X5155777Y-9276674D02*
X5165301Y-9295722D01*
X5165301Y-9295722D02*
X5165301Y-9400484D01*
X5165301Y-9295722D02*
X5174825Y-9276674D01*
X5174825Y-9276674D02*
X5193872Y-9267150D01*
X5193872Y-9267150D02*
X5222444Y-9267150D01*
X5222444Y-9267150D02*
X5241491Y-9276674D01*
X5241491Y-9276674D02*
X5251015Y-9295722D01*
X5251015Y-9295722D02*
X5251015Y-9400484D01*
X5641491Y-9190960D02*
X5470063Y-9448103D01*
X5898634Y-9200484D02*
X5917682Y-9200484D01*
X5917682Y-9200484D02*
X5936729Y-9210008D01*
X5936729Y-9210008D02*
X5946253Y-9219531D01*
X5946253Y-9219531D02*
X5955777Y-9238579D01*
X5955777Y-9238579D02*
X5965301Y-9276674D01*
X5965301Y-9276674D02*
X5965301Y-9324293D01*
X5965301Y-9324293D02*
X5955777Y-9362389D01*
X5955777Y-9362389D02*
X5946253Y-9381436D01*
X5946253Y-9381436D02*
X5936729Y-9390960D01*
X5936729Y-9390960D02*
X5917682Y-9400484D01*
X5917682Y-9400484D02*
X5898634Y-9400484D01*
X5898634Y-9400484D02*
X5879586Y-9390960D01*
X5879586Y-9390960D02*
X5870063Y-9381436D01*
X5870063Y-9381436D02*
X5860539Y-9362389D01*
X5860539Y-9362389D02*
X5851015Y-9324293D01*
X5851015Y-9324293D02*
X5851015Y-9276674D01*
X5851015Y-9276674D02*
X5860539Y-9238579D01*
X5860539Y-9238579D02*
X5870063Y-9219531D01*
X5870063Y-9219531D02*
X5879586Y-9210008D01*
X5879586Y-9210008D02*
X5898634Y-9200484D01*
X6051015Y-9381436D02*
X6060539Y-9390960D01*
X6060539Y-9390960D02*
X6051015Y-9400484D01*
X6051015Y-9400484D02*
X6041491Y-9390960D01*
X6041491Y-9390960D02*
X6051015Y-9381436D01*
X6051015Y-9381436D02*
X6051015Y-9400484D01*
X6184348Y-9200484D02*
X6203396Y-9200484D01*
X6203396Y-9200484D02*
X6222444Y-9210008D01*
X6222444Y-9210008D02*
X6231967Y-9219531D01*
X6231967Y-9219531D02*
X6241491Y-9238579D01*
X6241491Y-9238579D02*
X6251015Y-9276674D01*
X6251015Y-9276674D02*
X6251015Y-9324293D01*
X6251015Y-9324293D02*
X6241491Y-9362389D01*
X6241491Y-9362389D02*
X6231967Y-9381436D01*
X6231967Y-9381436D02*
X6222444Y-9390960D01*
X6222444Y-9390960D02*
X6203396Y-9400484D01*
X6203396Y-9400484D02*
X6184348Y-9400484D01*
X6184348Y-9400484D02*
X6165301Y-9390960D01*
X6165301Y-9390960D02*
X6155777Y-9381436D01*
X6155777Y-9381436D02*
X6146253Y-9362389D01*
X6146253Y-9362389D02*
X6136729Y-9324293D01*
X6136729Y-9324293D02*
X6136729Y-9276674D01*
X6136729Y-9276674D02*
X6146253Y-9238579D01*
X6146253Y-9238579D02*
X6155777Y-9219531D01*
X6155777Y-9219531D02*
X6165301Y-9210008D01*
X6165301Y-9210008D02*
X6184348Y-9200484D01*
X6317682Y-9200484D02*
X6441491Y-9200484D01*
X6441491Y-9200484D02*
X6374825Y-9276674D01*
X6374825Y-9276674D02*
X6403396Y-9276674D01*
X6403396Y-9276674D02*
X6422444Y-9286198D01*
X6422444Y-9286198D02*
X6431967Y-9295722D01*
X6431967Y-9295722D02*
X6441491Y-9314770D01*
X6441491Y-9314770D02*
X6441491Y-9362389D01*
X6441491Y-9362389D02*
X6431967Y-9381436D01*
X6431967Y-9381436D02*
X6422444Y-9390960D01*
X6422444Y-9390960D02*
X6403396Y-9400484D01*
X6403396Y-9400484D02*
X6346253Y-9400484D01*
X6346253Y-9400484D02*
X6327206Y-9390960D01*
X6327206Y-9390960D02*
X6317682Y-9381436D01*
X6631967Y-9400484D02*
X6517682Y-9400484D01*
X6574825Y-9400484D02*
X6574825Y-9200484D01*
X6574825Y-9200484D02*
X6555777Y-9229055D01*
X6555777Y-9229055D02*
X6536729Y-9248103D01*
X6536729Y-9248103D02*
X6517682Y-9257627D01*
X6812920Y-9200484D02*
X6717682Y-9200484D01*
X6717682Y-9200484D02*
X6708158Y-9295722D01*
X6708158Y-9295722D02*
X6717682Y-9286198D01*
X6717682Y-9286198D02*
X6736729Y-9276674D01*
X6736729Y-9276674D02*
X6784348Y-9276674D01*
X6784348Y-9276674D02*
X6803396Y-9286198D01*
X6803396Y-9286198D02*
X6812920Y-9295722D01*
X6812920Y-9295722D02*
X6822444Y-9314770D01*
X6822444Y-9314770D02*
X6822444Y-9362389D01*
X6822444Y-9362389D02*
X6812920Y-9381436D01*
X6812920Y-9381436D02*
X6803396Y-9390960D01*
X6803396Y-9390960D02*
X6784348Y-9400484D01*
X6784348Y-9400484D02*
X6736729Y-9400484D01*
X6736729Y-9400484D02*
X6717682Y-9390960D01*
X6717682Y-9390960D02*
X6708158Y-9381436D01*
X6898634Y-9200484D02*
X6898634Y-9238579D01*
X6974825Y-9200484D02*
X6974825Y-9238579D01*
X7270063Y-9476674D02*
X7260539Y-9467150D01*
X7260539Y-9467150D02*
X7241491Y-9438579D01*
X7241491Y-9438579D02*
X7231968Y-9419531D01*
X7231968Y-9419531D02*
X7222444Y-9390960D01*
X7222444Y-9390960D02*
X7212920Y-9343341D01*
X7212920Y-9343341D02*
X7212920Y-9305246D01*
X7212920Y-9305246D02*
X7222444Y-9257627D01*
X7222444Y-9257627D02*
X7231968Y-9229055D01*
X7231968Y-9229055D02*
X7241491Y-9210008D01*
X7241491Y-9210008D02*
X7260539Y-9181436D01*
X7260539Y-9181436D02*
X7270063Y-9171912D01*
X7336729Y-9219531D02*
X7346253Y-9210008D01*
X7346253Y-9210008D02*
X7365301Y-9200484D01*
X7365301Y-9200484D02*
X7412920Y-9200484D01*
X7412920Y-9200484D02*
X7431968Y-9210008D01*
X7431968Y-9210008D02*
X7441491Y-9219531D01*
X7441491Y-9219531D02*
X7451015Y-9238579D01*
X7451015Y-9238579D02*
X7451015Y-9257627D01*
X7451015Y-9257627D02*
X7441491Y-9286198D01*
X7441491Y-9286198D02*
X7327206Y-9400484D01*
X7327206Y-9400484D02*
X7451015Y-9400484D01*
X7565301Y-9286198D02*
X7546253Y-9276674D01*
X7546253Y-9276674D02*
X7536729Y-9267150D01*
X7536729Y-9267150D02*
X7527206Y-9248103D01*
X7527206Y-9248103D02*
X7527206Y-9238579D01*
X7527206Y-9238579D02*
X7536729Y-9219531D01*
X7536729Y-9219531D02*
X7546253Y-9210008D01*
X7546253Y-9210008D02*
X7565301Y-9200484D01*
X7565301Y-9200484D02*
X7603396Y-9200484D01*
X7603396Y-9200484D02*
X7622444Y-9210008D01*
X7622444Y-9210008D02*
X7631968Y-9219531D01*
X7631968Y-9219531D02*
X7641491Y-9238579D01*
X7641491Y-9238579D02*
X7641491Y-9248103D01*
X7641491Y-9248103D02*
X7631968Y-9267150D01*
X7631968Y-9267150D02*
X7622444Y-9276674D01*
X7622444Y-9276674D02*
X7603396Y-9286198D01*
X7603396Y-9286198D02*
X7565301Y-9286198D01*
X7565301Y-9286198D02*
X7546253Y-9295722D01*
X7546253Y-9295722D02*
X7536729Y-9305246D01*
X7536729Y-9305246D02*
X7527206Y-9324293D01*
X7527206Y-9324293D02*
X7527206Y-9362389D01*
X7527206Y-9362389D02*
X7536729Y-9381436D01*
X7536729Y-9381436D02*
X7546253Y-9390960D01*
X7546253Y-9390960D02*
X7565301Y-9400484D01*
X7565301Y-9400484D02*
X7603396Y-9400484D01*
X7603396Y-9400484D02*
X7622444Y-9390960D01*
X7622444Y-9390960D02*
X7631968Y-9381436D01*
X7631968Y-9381436D02*
X7641491Y-9362389D01*
X7641491Y-9362389D02*
X7641491Y-9324293D01*
X7641491Y-9324293D02*
X7631968Y-9305246D01*
X7631968Y-9305246D02*
X7622444Y-9295722D01*
X7622444Y-9295722D02*
X7603396Y-9286198D01*
X7879587Y-9400484D02*
X7879587Y-9200484D01*
X7965301Y-9400484D02*
X7965301Y-9295722D01*
X7965301Y-9295722D02*
X7955777Y-9276674D01*
X7955777Y-9276674D02*
X7936730Y-9267150D01*
X7936730Y-9267150D02*
X7908158Y-9267150D01*
X7908158Y-9267150D02*
X7889110Y-9276674D01*
X7889110Y-9276674D02*
X7879587Y-9286198D01*
X8089110Y-9400484D02*
X8070063Y-9390960D01*
X8070063Y-9390960D02*
X8060539Y-9381436D01*
X8060539Y-9381436D02*
X8051015Y-9362389D01*
X8051015Y-9362389D02*
X8051015Y-9305246D01*
X8051015Y-9305246D02*
X8060539Y-9286198D01*
X8060539Y-9286198D02*
X8070063Y-9276674D01*
X8070063Y-9276674D02*
X8089110Y-9267150D01*
X8089110Y-9267150D02*
X8117682Y-9267150D01*
X8117682Y-9267150D02*
X8136730Y-9276674D01*
X8136730Y-9276674D02*
X8146253Y-9286198D01*
X8146253Y-9286198D02*
X8155777Y-9305246D01*
X8155777Y-9305246D02*
X8155777Y-9362389D01*
X8155777Y-9362389D02*
X8146253Y-9381436D01*
X8146253Y-9381436D02*
X8136730Y-9390960D01*
X8136730Y-9390960D02*
X8117682Y-9400484D01*
X8117682Y-9400484D02*
X8089110Y-9400484D01*
X8270063Y-9400484D02*
X8251015Y-9390960D01*
X8251015Y-9390960D02*
X8241491Y-9371912D01*
X8241491Y-9371912D02*
X8241491Y-9200484D01*
X8422444Y-9390960D02*
X8403396Y-9400484D01*
X8403396Y-9400484D02*
X8365301Y-9400484D01*
X8365301Y-9400484D02*
X8346253Y-9390960D01*
X8346253Y-9390960D02*
X8336730Y-9371912D01*
X8336730Y-9371912D02*
X8336730Y-9295722D01*
X8336730Y-9295722D02*
X8346253Y-9276674D01*
X8346253Y-9276674D02*
X8365301Y-9267150D01*
X8365301Y-9267150D02*
X8403396Y-9267150D01*
X8403396Y-9267150D02*
X8422444Y-9276674D01*
X8422444Y-9276674D02*
X8431968Y-9295722D01*
X8431968Y-9295722D02*
X8431968Y-9314770D01*
X8431968Y-9314770D02*
X8336730Y-9333817D01*
X8508158Y-9390960D02*
X8527206Y-9400484D01*
X8527206Y-9400484D02*
X8565301Y-9400484D01*
X8565301Y-9400484D02*
X8584349Y-9390960D01*
X8584349Y-9390960D02*
X8593873Y-9371912D01*
X8593873Y-9371912D02*
X8593873Y-9362389D01*
X8593873Y-9362389D02*
X8584349Y-9343341D01*
X8584349Y-9343341D02*
X8565301Y-9333817D01*
X8565301Y-9333817D02*
X8536730Y-9333817D01*
X8536730Y-9333817D02*
X8517682Y-9324293D01*
X8517682Y-9324293D02*
X8508158Y-9305246D01*
X8508158Y-9305246D02*
X8508158Y-9295722D01*
X8508158Y-9295722D02*
X8517682Y-9276674D01*
X8517682Y-9276674D02*
X8536730Y-9267150D01*
X8536730Y-9267150D02*
X8565301Y-9267150D01*
X8565301Y-9267150D02*
X8584349Y-9276674D01*
X8660539Y-9476674D02*
X8670063Y-9467150D01*
X8670063Y-9467150D02*
X8689111Y-9438579D01*
X8689111Y-9438579D02*
X8698634Y-9419531D01*
X8698634Y-9419531D02*
X8708158Y-9390960D01*
X8708158Y-9390960D02*
X8717682Y-9343341D01*
X8717682Y-9343341D02*
X8717682Y-9305246D01*
X8717682Y-9305246D02*
X8708158Y-9257627D01*
X8708158Y-9257627D02*
X8698634Y-9229055D01*
X8698634Y-9229055D02*
X8689111Y-9210008D01*
X8689111Y-9210008D02*
X8670063Y-9181436D01*
X8670063Y-9181436D02*
X8660539Y-9171912D01*
D10*
X3645000Y-9523000D02*
X3645000Y-9623000D01*
X3595000Y-9573000D02*
X3695000Y-9573000D01*
D11*
X4060539Y-9664484D02*
X3946253Y-9664484D01*
X4003396Y-9664484D02*
X4003396Y-9464484D01*
X4003396Y-9464484D02*
X3984348Y-9493055D01*
X3984348Y-9493055D02*
X3965301Y-9512103D01*
X3965301Y-9512103D02*
X3946253Y-9521627D01*
X4146253Y-9645436D02*
X4155777Y-9654960D01*
X4155777Y-9654960D02*
X4146253Y-9664484D01*
X4146253Y-9664484D02*
X4136729Y-9654960D01*
X4136729Y-9654960D02*
X4146253Y-9645436D01*
X4146253Y-9645436D02*
X4146253Y-9664484D01*
X4279586Y-9464484D02*
X4298634Y-9464484D01*
X4298634Y-9464484D02*
X4317682Y-9474008D01*
X4317682Y-9474008D02*
X4327205Y-9483531D01*
X4327205Y-9483531D02*
X4336729Y-9502579D01*
X4336729Y-9502579D02*
X4346253Y-9540674D01*
X4346253Y-9540674D02*
X4346253Y-9588293D01*
X4346253Y-9588293D02*
X4336729Y-9626389D01*
X4336729Y-9626389D02*
X4327205Y-9645436D01*
X4327205Y-9645436D02*
X4317682Y-9654960D01*
X4317682Y-9654960D02*
X4298634Y-9664484D01*
X4298634Y-9664484D02*
X4279586Y-9664484D01*
X4279586Y-9664484D02*
X4260539Y-9654960D01*
X4260539Y-9654960D02*
X4251015Y-9645436D01*
X4251015Y-9645436D02*
X4241491Y-9626389D01*
X4241491Y-9626389D02*
X4231967Y-9588293D01*
X4231967Y-9588293D02*
X4231967Y-9540674D01*
X4231967Y-9540674D02*
X4241491Y-9502579D01*
X4241491Y-9502579D02*
X4251015Y-9483531D01*
X4251015Y-9483531D02*
X4260539Y-9474008D01*
X4260539Y-9474008D02*
X4279586Y-9464484D01*
X4470063Y-9464484D02*
X4489110Y-9464484D01*
X4489110Y-9464484D02*
X4508158Y-9474008D01*
X4508158Y-9474008D02*
X4517682Y-9483531D01*
X4517682Y-9483531D02*
X4527205Y-9502579D01*
X4527205Y-9502579D02*
X4536729Y-9540674D01*
X4536729Y-9540674D02*
X4536729Y-9588293D01*
X4536729Y-9588293D02*
X4527205Y-9626389D01*
X4527205Y-9626389D02*
X4517682Y-9645436D01*
X4517682Y-9645436D02*
X4508158Y-9654960D01*
X4508158Y-9654960D02*
X4489110Y-9664484D01*
X4489110Y-9664484D02*
X4470063Y-9664484D01*
X4470063Y-9664484D02*
X4451015Y-9654960D01*
X4451015Y-9654960D02*
X4441491Y-9645436D01*
X4441491Y-9645436D02*
X4431967Y-9626389D01*
X4431967Y-9626389D02*
X4422444Y-9588293D01*
X4422444Y-9588293D02*
X4422444Y-9540674D01*
X4422444Y-9540674D02*
X4431967Y-9502579D01*
X4431967Y-9502579D02*
X4441491Y-9483531D01*
X4441491Y-9483531D02*
X4451015Y-9474008D01*
X4451015Y-9474008D02*
X4470063Y-9464484D01*
X4660539Y-9464484D02*
X4679586Y-9464484D01*
X4679586Y-9464484D02*
X4698634Y-9474008D01*
X4698634Y-9474008D02*
X4708158Y-9483531D01*
X4708158Y-9483531D02*
X4717682Y-9502579D01*
X4717682Y-9502579D02*
X4727205Y-9540674D01*
X4727205Y-9540674D02*
X4727205Y-9588293D01*
X4727205Y-9588293D02*
X4717682Y-9626389D01*
X4717682Y-9626389D02*
X4708158Y-9645436D01*
X4708158Y-9645436D02*
X4698634Y-9654960D01*
X4698634Y-9654960D02*
X4679586Y-9664484D01*
X4679586Y-9664484D02*
X4660539Y-9664484D01*
X4660539Y-9664484D02*
X4641491Y-9654960D01*
X4641491Y-9654960D02*
X4631967Y-9645436D01*
X4631967Y-9645436D02*
X4622444Y-9626389D01*
X4622444Y-9626389D02*
X4612920Y-9588293D01*
X4612920Y-9588293D02*
X4612920Y-9540674D01*
X4612920Y-9540674D02*
X4622444Y-9502579D01*
X4622444Y-9502579D02*
X4631967Y-9483531D01*
X4631967Y-9483531D02*
X4641491Y-9474008D01*
X4641491Y-9474008D02*
X4660539Y-9464484D01*
X4812920Y-9664484D02*
X4812920Y-9531150D01*
X4812920Y-9550198D02*
X4822444Y-9540674D01*
X4822444Y-9540674D02*
X4841491Y-9531150D01*
X4841491Y-9531150D02*
X4870063Y-9531150D01*
X4870063Y-9531150D02*
X4889110Y-9540674D01*
X4889110Y-9540674D02*
X4898634Y-9559722D01*
X4898634Y-9559722D02*
X4898634Y-9664484D01*
X4898634Y-9559722D02*
X4908158Y-9540674D01*
X4908158Y-9540674D02*
X4927205Y-9531150D01*
X4927205Y-9531150D02*
X4955777Y-9531150D01*
X4955777Y-9531150D02*
X4974825Y-9540674D01*
X4974825Y-9540674D02*
X4984348Y-9559722D01*
X4984348Y-9559722D02*
X4984348Y-9664484D01*
X5079586Y-9664484D02*
X5079586Y-9531150D01*
X5079586Y-9550198D02*
X5089110Y-9540674D01*
X5089110Y-9540674D02*
X5108158Y-9531150D01*
X5108158Y-9531150D02*
X5136729Y-9531150D01*
X5136729Y-9531150D02*
X5155777Y-9540674D01*
X5155777Y-9540674D02*
X5165301Y-9559722D01*
X5165301Y-9559722D02*
X5165301Y-9664484D01*
X5165301Y-9559722D02*
X5174825Y-9540674D01*
X5174825Y-9540674D02*
X5193872Y-9531150D01*
X5193872Y-9531150D02*
X5222444Y-9531150D01*
X5222444Y-9531150D02*
X5241491Y-9540674D01*
X5241491Y-9540674D02*
X5251015Y-9559722D01*
X5251015Y-9559722D02*
X5251015Y-9664484D01*
X5641491Y-9454960D02*
X5470063Y-9712103D01*
X5898634Y-9464484D02*
X5917682Y-9464484D01*
X5917682Y-9464484D02*
X5936729Y-9474008D01*
X5936729Y-9474008D02*
X5946253Y-9483531D01*
X5946253Y-9483531D02*
X5955777Y-9502579D01*
X5955777Y-9502579D02*
X5965301Y-9540674D01*
X5965301Y-9540674D02*
X5965301Y-9588293D01*
X5965301Y-9588293D02*
X5955777Y-9626389D01*
X5955777Y-9626389D02*
X5946253Y-9645436D01*
X5946253Y-9645436D02*
X5936729Y-9654960D01*
X5936729Y-9654960D02*
X5917682Y-9664484D01*
X5917682Y-9664484D02*
X5898634Y-9664484D01*
X5898634Y-9664484D02*
X5879586Y-9654960D01*
X5879586Y-9654960D02*
X5870063Y-9645436D01*
X5870063Y-9645436D02*
X5860539Y-9626389D01*
X5860539Y-9626389D02*
X5851015Y-9588293D01*
X5851015Y-9588293D02*
X5851015Y-9540674D01*
X5851015Y-9540674D02*
X5860539Y-9502579D01*
X5860539Y-9502579D02*
X5870063Y-9483531D01*
X5870063Y-9483531D02*
X5879586Y-9474008D01*
X5879586Y-9474008D02*
X5898634Y-9464484D01*
X6051015Y-9645436D02*
X6060539Y-9654960D01*
X6060539Y-9654960D02*
X6051015Y-9664484D01*
X6051015Y-9664484D02*
X6041491Y-9654960D01*
X6041491Y-9654960D02*
X6051015Y-9645436D01*
X6051015Y-9645436D02*
X6051015Y-9664484D01*
X6184348Y-9464484D02*
X6203396Y-9464484D01*
X6203396Y-9464484D02*
X6222444Y-9474008D01*
X6222444Y-9474008D02*
X6231967Y-9483531D01*
X6231967Y-9483531D02*
X6241491Y-9502579D01*
X6241491Y-9502579D02*
X6251015Y-9540674D01*
X6251015Y-9540674D02*
X6251015Y-9588293D01*
X6251015Y-9588293D02*
X6241491Y-9626389D01*
X6241491Y-9626389D02*
X6231967Y-9645436D01*
X6231967Y-9645436D02*
X6222444Y-9654960D01*
X6222444Y-9654960D02*
X6203396Y-9664484D01*
X6203396Y-9664484D02*
X6184348Y-9664484D01*
X6184348Y-9664484D02*
X6165301Y-9654960D01*
X6165301Y-9654960D02*
X6155777Y-9645436D01*
X6155777Y-9645436D02*
X6146253Y-9626389D01*
X6146253Y-9626389D02*
X6136729Y-9588293D01*
X6136729Y-9588293D02*
X6136729Y-9540674D01*
X6136729Y-9540674D02*
X6146253Y-9502579D01*
X6146253Y-9502579D02*
X6155777Y-9483531D01*
X6155777Y-9483531D02*
X6165301Y-9474008D01*
X6165301Y-9474008D02*
X6184348Y-9464484D01*
X6317682Y-9464484D02*
X6441491Y-9464484D01*
X6441491Y-9464484D02*
X6374825Y-9540674D01*
X6374825Y-9540674D02*
X6403396Y-9540674D01*
X6403396Y-9540674D02*
X6422444Y-9550198D01*
X6422444Y-9550198D02*
X6431967Y-9559722D01*
X6431967Y-9559722D02*
X6441491Y-9578770D01*
X6441491Y-9578770D02*
X6441491Y-9626389D01*
X6441491Y-9626389D02*
X6431967Y-9645436D01*
X6431967Y-9645436D02*
X6422444Y-9654960D01*
X6422444Y-9654960D02*
X6403396Y-9664484D01*
X6403396Y-9664484D02*
X6346253Y-9664484D01*
X6346253Y-9664484D02*
X6327206Y-9654960D01*
X6327206Y-9654960D02*
X6317682Y-9645436D01*
X6536729Y-9664484D02*
X6574825Y-9664484D01*
X6574825Y-9664484D02*
X6593872Y-9654960D01*
X6593872Y-9654960D02*
X6603396Y-9645436D01*
X6603396Y-9645436D02*
X6622444Y-9616865D01*
X6622444Y-9616865D02*
X6631967Y-9578770D01*
X6631967Y-9578770D02*
X6631967Y-9502579D01*
X6631967Y-9502579D02*
X6622444Y-9483531D01*
X6622444Y-9483531D02*
X6612920Y-9474008D01*
X6612920Y-9474008D02*
X6593872Y-9464484D01*
X6593872Y-9464484D02*
X6555777Y-9464484D01*
X6555777Y-9464484D02*
X6536729Y-9474008D01*
X6536729Y-9474008D02*
X6527206Y-9483531D01*
X6527206Y-9483531D02*
X6517682Y-9502579D01*
X6517682Y-9502579D02*
X6517682Y-9550198D01*
X6517682Y-9550198D02*
X6527206Y-9569246D01*
X6527206Y-9569246D02*
X6536729Y-9578770D01*
X6536729Y-9578770D02*
X6555777Y-9588293D01*
X6555777Y-9588293D02*
X6593872Y-9588293D01*
X6593872Y-9588293D02*
X6612920Y-9578770D01*
X6612920Y-9578770D02*
X6622444Y-9569246D01*
X6622444Y-9569246D02*
X6631967Y-9550198D01*
X6803396Y-9531150D02*
X6803396Y-9664484D01*
X6755777Y-9454960D02*
X6708158Y-9597817D01*
X6708158Y-9597817D02*
X6831967Y-9597817D01*
X6898634Y-9464484D02*
X6898634Y-9502579D01*
X6974825Y-9464484D02*
X6974825Y-9502579D01*
X7270063Y-9740674D02*
X7260539Y-9731150D01*
X7260539Y-9731150D02*
X7241491Y-9702579D01*
X7241491Y-9702579D02*
X7231968Y-9683531D01*
X7231968Y-9683531D02*
X7222444Y-9654960D01*
X7222444Y-9654960D02*
X7212920Y-9607341D01*
X7212920Y-9607341D02*
X7212920Y-9569246D01*
X7212920Y-9569246D02*
X7222444Y-9521627D01*
X7222444Y-9521627D02*
X7231968Y-9493055D01*
X7231968Y-9493055D02*
X7241491Y-9474008D01*
X7241491Y-9474008D02*
X7260539Y-9445436D01*
X7260539Y-9445436D02*
X7270063Y-9435912D01*
X7451015Y-9664484D02*
X7336729Y-9664484D01*
X7393872Y-9664484D02*
X7393872Y-9464484D01*
X7393872Y-9464484D02*
X7374825Y-9493055D01*
X7374825Y-9493055D02*
X7355777Y-9512103D01*
X7355777Y-9512103D02*
X7336729Y-9521627D01*
X7517682Y-9464484D02*
X7641491Y-9464484D01*
X7641491Y-9464484D02*
X7574825Y-9540674D01*
X7574825Y-9540674D02*
X7603396Y-9540674D01*
X7603396Y-9540674D02*
X7622444Y-9550198D01*
X7622444Y-9550198D02*
X7631968Y-9559722D01*
X7631968Y-9559722D02*
X7641491Y-9578770D01*
X7641491Y-9578770D02*
X7641491Y-9626389D01*
X7641491Y-9626389D02*
X7631968Y-9645436D01*
X7631968Y-9645436D02*
X7622444Y-9654960D01*
X7622444Y-9654960D02*
X7603396Y-9664484D01*
X7603396Y-9664484D02*
X7546253Y-9664484D01*
X7546253Y-9664484D02*
X7527206Y-9654960D01*
X7527206Y-9654960D02*
X7517682Y-9645436D01*
X7879587Y-9664484D02*
X7879587Y-9464484D01*
X7965301Y-9664484D02*
X7965301Y-9559722D01*
X7965301Y-9559722D02*
X7955777Y-9540674D01*
X7955777Y-9540674D02*
X7936730Y-9531150D01*
X7936730Y-9531150D02*
X7908158Y-9531150D01*
X7908158Y-9531150D02*
X7889110Y-9540674D01*
X7889110Y-9540674D02*
X7879587Y-9550198D01*
X8089110Y-9664484D02*
X8070063Y-9654960D01*
X8070063Y-9654960D02*
X8060539Y-9645436D01*
X8060539Y-9645436D02*
X8051015Y-9626389D01*
X8051015Y-9626389D02*
X8051015Y-9569246D01*
X8051015Y-9569246D02*
X8060539Y-9550198D01*
X8060539Y-9550198D02*
X8070063Y-9540674D01*
X8070063Y-9540674D02*
X8089110Y-9531150D01*
X8089110Y-9531150D02*
X8117682Y-9531150D01*
X8117682Y-9531150D02*
X8136730Y-9540674D01*
X8136730Y-9540674D02*
X8146253Y-9550198D01*
X8146253Y-9550198D02*
X8155777Y-9569246D01*
X8155777Y-9569246D02*
X8155777Y-9626389D01*
X8155777Y-9626389D02*
X8146253Y-9645436D01*
X8146253Y-9645436D02*
X8136730Y-9654960D01*
X8136730Y-9654960D02*
X8117682Y-9664484D01*
X8117682Y-9664484D02*
X8089110Y-9664484D01*
X8270063Y-9664484D02*
X8251015Y-9654960D01*
X8251015Y-9654960D02*
X8241491Y-9635912D01*
X8241491Y-9635912D02*
X8241491Y-9464484D01*
X8422444Y-9654960D02*
X8403396Y-9664484D01*
X8403396Y-9664484D02*
X8365301Y-9664484D01*
X8365301Y-9664484D02*
X8346253Y-9654960D01*
X8346253Y-9654960D02*
X8336730Y-9635912D01*
X8336730Y-9635912D02*
X8336730Y-9559722D01*
X8336730Y-9559722D02*
X8346253Y-9540674D01*
X8346253Y-9540674D02*
X8365301Y-9531150D01*
X8365301Y-9531150D02*
X8403396Y-9531150D01*
X8403396Y-9531150D02*
X8422444Y-9540674D01*
X8422444Y-9540674D02*
X8431968Y-9559722D01*
X8431968Y-9559722D02*
X8431968Y-9578770D01*
X8431968Y-9578770D02*
X8336730Y-9597817D01*
X8508158Y-9654960D02*
X8527206Y-9664484D01*
X8527206Y-9664484D02*
X8565301Y-9664484D01*
X8565301Y-9664484D02*
X8584349Y-9654960D01*
X8584349Y-9654960D02*
X8593873Y-9635912D01*
X8593873Y-9635912D02*
X8593873Y-9626389D01*
X8593873Y-9626389D02*
X8584349Y-9607341D01*
X8584349Y-9607341D02*
X8565301Y-9597817D01*
X8565301Y-9597817D02*
X8536730Y-9597817D01*
X8536730Y-9597817D02*
X8517682Y-9588293D01*
X8517682Y-9588293D02*
X8508158Y-9569246D01*
X8508158Y-9569246D02*
X8508158Y-9559722D01*
X8508158Y-9559722D02*
X8517682Y-9540674D01*
X8517682Y-9540674D02*
X8536730Y-9531150D01*
X8536730Y-9531150D02*
X8565301Y-9531150D01*
X8565301Y-9531150D02*
X8584349Y-9540674D01*
X8660539Y-9740674D02*
X8670063Y-9731150D01*
X8670063Y-9731150D02*
X8689111Y-9702579D01*
X8689111Y-9702579D02*
X8698634Y-9683531D01*
X8698634Y-9683531D02*
X8708158Y-9654960D01*
X8708158Y-9654960D02*
X8717682Y-9607341D01*
X8717682Y-9607341D02*
X8717682Y-9569246D01*
X8717682Y-9569246D02*
X8708158Y-9521627D01*
X8708158Y-9521627D02*
X8698634Y-9493055D01*
X8698634Y-9493055D02*
X8689111Y-9474008D01*
X8689111Y-9474008D02*
X8670063Y-9445436D01*
X8670063Y-9445436D02*
X8660539Y-9435912D01*
D12*
X3678891Y-9875891D02*
X3678891Y-9798109D01*
X3601109Y-9798109D01*
X3601109Y-9875891D01*
X3678891Y-9875891D01*
D11*
X4060539Y-9928484D02*
X3946253Y-9928484D01*
X4003396Y-9928484D02*
X4003396Y-9728484D01*
X4003396Y-9728484D02*
X3984348Y-9757055D01*
X3984348Y-9757055D02*
X3965301Y-9776103D01*
X3965301Y-9776103D02*
X3946253Y-9785627D01*
X4146253Y-9909436D02*
X4155777Y-9918960D01*
X4155777Y-9918960D02*
X4146253Y-9928484D01*
X4146253Y-9928484D02*
X4136729Y-9918960D01*
X4136729Y-9918960D02*
X4146253Y-9909436D01*
X4146253Y-9909436D02*
X4146253Y-9928484D01*
X4346253Y-9928484D02*
X4231967Y-9928484D01*
X4289110Y-9928484D02*
X4289110Y-9728484D01*
X4289110Y-9728484D02*
X4270063Y-9757055D01*
X4270063Y-9757055D02*
X4251015Y-9776103D01*
X4251015Y-9776103D02*
X4231967Y-9785627D01*
X4470063Y-9728484D02*
X4489110Y-9728484D01*
X4489110Y-9728484D02*
X4508158Y-9738008D01*
X4508158Y-9738008D02*
X4517682Y-9747531D01*
X4517682Y-9747531D02*
X4527205Y-9766579D01*
X4527205Y-9766579D02*
X4536729Y-9804674D01*
X4536729Y-9804674D02*
X4536729Y-9852293D01*
X4536729Y-9852293D02*
X4527205Y-9890389D01*
X4527205Y-9890389D02*
X4517682Y-9909436D01*
X4517682Y-9909436D02*
X4508158Y-9918960D01*
X4508158Y-9918960D02*
X4489110Y-9928484D01*
X4489110Y-9928484D02*
X4470063Y-9928484D01*
X4470063Y-9928484D02*
X4451015Y-9918960D01*
X4451015Y-9918960D02*
X4441491Y-9909436D01*
X4441491Y-9909436D02*
X4431967Y-9890389D01*
X4431967Y-9890389D02*
X4422444Y-9852293D01*
X4422444Y-9852293D02*
X4422444Y-9804674D01*
X4422444Y-9804674D02*
X4431967Y-9766579D01*
X4431967Y-9766579D02*
X4441491Y-9747531D01*
X4441491Y-9747531D02*
X4451015Y-9738008D01*
X4451015Y-9738008D02*
X4470063Y-9728484D01*
X4660539Y-9728484D02*
X4679586Y-9728484D01*
X4679586Y-9728484D02*
X4698634Y-9738008D01*
X4698634Y-9738008D02*
X4708158Y-9747531D01*
X4708158Y-9747531D02*
X4717682Y-9766579D01*
X4717682Y-9766579D02*
X4727205Y-9804674D01*
X4727205Y-9804674D02*
X4727205Y-9852293D01*
X4727205Y-9852293D02*
X4717682Y-9890389D01*
X4717682Y-9890389D02*
X4708158Y-9909436D01*
X4708158Y-9909436D02*
X4698634Y-9918960D01*
X4698634Y-9918960D02*
X4679586Y-9928484D01*
X4679586Y-9928484D02*
X4660539Y-9928484D01*
X4660539Y-9928484D02*
X4641491Y-9918960D01*
X4641491Y-9918960D02*
X4631967Y-9909436D01*
X4631967Y-9909436D02*
X4622444Y-9890389D01*
X4622444Y-9890389D02*
X4612920Y-9852293D01*
X4612920Y-9852293D02*
X4612920Y-9804674D01*
X4612920Y-9804674D02*
X4622444Y-9766579D01*
X4622444Y-9766579D02*
X4631967Y-9747531D01*
X4631967Y-9747531D02*
X4641491Y-9738008D01*
X4641491Y-9738008D02*
X4660539Y-9728484D01*
X4812920Y-9928484D02*
X4812920Y-9795150D01*
X4812920Y-9814198D02*
X4822444Y-9804674D01*
X4822444Y-9804674D02*
X4841491Y-9795150D01*
X4841491Y-9795150D02*
X4870063Y-9795150D01*
X4870063Y-9795150D02*
X4889110Y-9804674D01*
X4889110Y-9804674D02*
X4898634Y-9823722D01*
X4898634Y-9823722D02*
X4898634Y-9928484D01*
X4898634Y-9823722D02*
X4908158Y-9804674D01*
X4908158Y-9804674D02*
X4927205Y-9795150D01*
X4927205Y-9795150D02*
X4955777Y-9795150D01*
X4955777Y-9795150D02*
X4974825Y-9804674D01*
X4974825Y-9804674D02*
X4984348Y-9823722D01*
X4984348Y-9823722D02*
X4984348Y-9928484D01*
X5079586Y-9928484D02*
X5079586Y-9795150D01*
X5079586Y-9814198D02*
X5089110Y-9804674D01*
X5089110Y-9804674D02*
X5108158Y-9795150D01*
X5108158Y-9795150D02*
X5136729Y-9795150D01*
X5136729Y-9795150D02*
X5155777Y-9804674D01*
X5155777Y-9804674D02*
X5165301Y-9823722D01*
X5165301Y-9823722D02*
X5165301Y-9928484D01*
X5165301Y-9823722D02*
X5174825Y-9804674D01*
X5174825Y-9804674D02*
X5193872Y-9795150D01*
X5193872Y-9795150D02*
X5222444Y-9795150D01*
X5222444Y-9795150D02*
X5241491Y-9804674D01*
X5241491Y-9804674D02*
X5251015Y-9823722D01*
X5251015Y-9823722D02*
X5251015Y-9928484D01*
X5641491Y-9718960D02*
X5470063Y-9976103D01*
X5898634Y-9728484D02*
X5917682Y-9728484D01*
X5917682Y-9728484D02*
X5936729Y-9738008D01*
X5936729Y-9738008D02*
X5946253Y-9747531D01*
X5946253Y-9747531D02*
X5955777Y-9766579D01*
X5955777Y-9766579D02*
X5965301Y-9804674D01*
X5965301Y-9804674D02*
X5965301Y-9852293D01*
X5965301Y-9852293D02*
X5955777Y-9890389D01*
X5955777Y-9890389D02*
X5946253Y-9909436D01*
X5946253Y-9909436D02*
X5936729Y-9918960D01*
X5936729Y-9918960D02*
X5917682Y-9928484D01*
X5917682Y-9928484D02*
X5898634Y-9928484D01*
X5898634Y-9928484D02*
X5879586Y-9918960D01*
X5879586Y-9918960D02*
X5870063Y-9909436D01*
X5870063Y-9909436D02*
X5860539Y-9890389D01*
X5860539Y-9890389D02*
X5851015Y-9852293D01*
X5851015Y-9852293D02*
X5851015Y-9804674D01*
X5851015Y-9804674D02*
X5860539Y-9766579D01*
X5860539Y-9766579D02*
X5870063Y-9747531D01*
X5870063Y-9747531D02*
X5879586Y-9738008D01*
X5879586Y-9738008D02*
X5898634Y-9728484D01*
X6051015Y-9909436D02*
X6060539Y-9918960D01*
X6060539Y-9918960D02*
X6051015Y-9928484D01*
X6051015Y-9928484D02*
X6041491Y-9918960D01*
X6041491Y-9918960D02*
X6051015Y-9909436D01*
X6051015Y-9909436D02*
X6051015Y-9928484D01*
X6184348Y-9728484D02*
X6203396Y-9728484D01*
X6203396Y-9728484D02*
X6222444Y-9738008D01*
X6222444Y-9738008D02*
X6231967Y-9747531D01*
X6231967Y-9747531D02*
X6241491Y-9766579D01*
X6241491Y-9766579D02*
X6251015Y-9804674D01*
X6251015Y-9804674D02*
X6251015Y-9852293D01*
X6251015Y-9852293D02*
X6241491Y-9890389D01*
X6241491Y-9890389D02*
X6231967Y-9909436D01*
X6231967Y-9909436D02*
X6222444Y-9918960D01*
X6222444Y-9918960D02*
X6203396Y-9928484D01*
X6203396Y-9928484D02*
X6184348Y-9928484D01*
X6184348Y-9928484D02*
X6165301Y-9918960D01*
X6165301Y-9918960D02*
X6155777Y-9909436D01*
X6155777Y-9909436D02*
X6146253Y-9890389D01*
X6146253Y-9890389D02*
X6136729Y-9852293D01*
X6136729Y-9852293D02*
X6136729Y-9804674D01*
X6136729Y-9804674D02*
X6146253Y-9766579D01*
X6146253Y-9766579D02*
X6155777Y-9747531D01*
X6155777Y-9747531D02*
X6165301Y-9738008D01*
X6165301Y-9738008D02*
X6184348Y-9728484D01*
X6422444Y-9795150D02*
X6422444Y-9928484D01*
X6374825Y-9718960D02*
X6327206Y-9861817D01*
X6327206Y-9861817D02*
X6451015Y-9861817D01*
X6508158Y-9728484D02*
X6631967Y-9728484D01*
X6631967Y-9728484D02*
X6565301Y-9804674D01*
X6565301Y-9804674D02*
X6593872Y-9804674D01*
X6593872Y-9804674D02*
X6612920Y-9814198D01*
X6612920Y-9814198D02*
X6622444Y-9823722D01*
X6622444Y-9823722D02*
X6631967Y-9842770D01*
X6631967Y-9842770D02*
X6631967Y-9890389D01*
X6631967Y-9890389D02*
X6622444Y-9909436D01*
X6622444Y-9909436D02*
X6612920Y-9918960D01*
X6612920Y-9918960D02*
X6593872Y-9928484D01*
X6593872Y-9928484D02*
X6536729Y-9928484D01*
X6536729Y-9928484D02*
X6517682Y-9918960D01*
X6517682Y-9918960D02*
X6508158Y-9909436D01*
X6698634Y-9728484D02*
X6822444Y-9728484D01*
X6822444Y-9728484D02*
X6755777Y-9804674D01*
X6755777Y-9804674D02*
X6784348Y-9804674D01*
X6784348Y-9804674D02*
X6803396Y-9814198D01*
X6803396Y-9814198D02*
X6812920Y-9823722D01*
X6812920Y-9823722D02*
X6822444Y-9842770D01*
X6822444Y-9842770D02*
X6822444Y-9890389D01*
X6822444Y-9890389D02*
X6812920Y-9909436D01*
X6812920Y-9909436D02*
X6803396Y-9918960D01*
X6803396Y-9918960D02*
X6784348Y-9928484D01*
X6784348Y-9928484D02*
X6727206Y-9928484D01*
X6727206Y-9928484D02*
X6708158Y-9918960D01*
X6708158Y-9918960D02*
X6698634Y-9909436D01*
X6898634Y-9728484D02*
X6898634Y-9766579D01*
X6974825Y-9728484D02*
X6974825Y-9766579D01*
X7270063Y-10004674D02*
X7260539Y-9995150D01*
X7260539Y-9995150D02*
X7241491Y-9966579D01*
X7241491Y-9966579D02*
X7231968Y-9947531D01*
X7231968Y-9947531D02*
X7222444Y-9918960D01*
X7222444Y-9918960D02*
X7212920Y-9871341D01*
X7212920Y-9871341D02*
X7212920Y-9833246D01*
X7212920Y-9833246D02*
X7222444Y-9785627D01*
X7222444Y-9785627D02*
X7231968Y-9757055D01*
X7231968Y-9757055D02*
X7241491Y-9738008D01*
X7241491Y-9738008D02*
X7260539Y-9709436D01*
X7260539Y-9709436D02*
X7270063Y-9699912D01*
X7431968Y-9795150D02*
X7431968Y-9928484D01*
X7384348Y-9718960D02*
X7336729Y-9861817D01*
X7336729Y-9861817D02*
X7460539Y-9861817D01*
X7689110Y-9928484D02*
X7689110Y-9728484D01*
X7774825Y-9928484D02*
X7774825Y-9823722D01*
X7774825Y-9823722D02*
X7765301Y-9804674D01*
X7765301Y-9804674D02*
X7746253Y-9795150D01*
X7746253Y-9795150D02*
X7717682Y-9795150D01*
X7717682Y-9795150D02*
X7698634Y-9804674D01*
X7698634Y-9804674D02*
X7689110Y-9814198D01*
X7898634Y-9928484D02*
X7879587Y-9918960D01*
X7879587Y-9918960D02*
X7870063Y-9909436D01*
X7870063Y-9909436D02*
X7860539Y-9890389D01*
X7860539Y-9890389D02*
X7860539Y-9833246D01*
X7860539Y-9833246D02*
X7870063Y-9814198D01*
X7870063Y-9814198D02*
X7879587Y-9804674D01*
X7879587Y-9804674D02*
X7898634Y-9795150D01*
X7898634Y-9795150D02*
X7927206Y-9795150D01*
X7927206Y-9795150D02*
X7946253Y-9804674D01*
X7946253Y-9804674D02*
X7955777Y-9814198D01*
X7955777Y-9814198D02*
X7965301Y-9833246D01*
X7965301Y-9833246D02*
X7965301Y-9890389D01*
X7965301Y-9890389D02*
X7955777Y-9909436D01*
X7955777Y-9909436D02*
X7946253Y-9918960D01*
X7946253Y-9918960D02*
X7927206Y-9928484D01*
X7927206Y-9928484D02*
X7898634Y-9928484D01*
X8079587Y-9928484D02*
X8060539Y-9918960D01*
X8060539Y-9918960D02*
X8051015Y-9899912D01*
X8051015Y-9899912D02*
X8051015Y-9728484D01*
X8231968Y-9918960D02*
X8212920Y-9928484D01*
X8212920Y-9928484D02*
X8174825Y-9928484D01*
X8174825Y-9928484D02*
X8155777Y-9918960D01*
X8155777Y-9918960D02*
X8146253Y-9899912D01*
X8146253Y-9899912D02*
X8146253Y-9823722D01*
X8146253Y-9823722D02*
X8155777Y-9804674D01*
X8155777Y-9804674D02*
X8174825Y-9795150D01*
X8174825Y-9795150D02*
X8212920Y-9795150D01*
X8212920Y-9795150D02*
X8231968Y-9804674D01*
X8231968Y-9804674D02*
X8241491Y-9823722D01*
X8241491Y-9823722D02*
X8241491Y-9842770D01*
X8241491Y-9842770D02*
X8146253Y-9861817D01*
X8317682Y-9918960D02*
X8336730Y-9928484D01*
X8336730Y-9928484D02*
X8374825Y-9928484D01*
X8374825Y-9928484D02*
X8393873Y-9918960D01*
X8393873Y-9918960D02*
X8403396Y-9899912D01*
X8403396Y-9899912D02*
X8403396Y-9890389D01*
X8403396Y-9890389D02*
X8393873Y-9871341D01*
X8393873Y-9871341D02*
X8374825Y-9861817D01*
X8374825Y-9861817D02*
X8346253Y-9861817D01*
X8346253Y-9861817D02*
X8327206Y-9852293D01*
X8327206Y-9852293D02*
X8317682Y-9833246D01*
X8317682Y-9833246D02*
X8317682Y-9823722D01*
X8317682Y-9823722D02*
X8327206Y-9804674D01*
X8327206Y-9804674D02*
X8346253Y-9795150D01*
X8346253Y-9795150D02*
X8374825Y-9795150D01*
X8374825Y-9795150D02*
X8393873Y-9804674D01*
X8470063Y-10004674D02*
X8479587Y-9995150D01*
X8479587Y-9995150D02*
X8498634Y-9966579D01*
X8498634Y-9966579D02*
X8508158Y-9947531D01*
X8508158Y-9947531D02*
X8517682Y-9918960D01*
X8517682Y-9918960D02*
X8527206Y-9871341D01*
X8527206Y-9871341D02*
X8527206Y-9833246D01*
X8527206Y-9833246D02*
X8517682Y-9785627D01*
X8517682Y-9785627D02*
X8508158Y-9757055D01*
X8508158Y-9757055D02*
X8498634Y-9738008D01*
X8498634Y-9738008D02*
X8479587Y-9709436D01*
X8479587Y-9709436D02*
X8470063Y-9699912D01*
M02*
