%TF.GenerationSoftware,KiCad,Pcbnew,(7.0.0-0)*%
%TF.CreationDate,2024-02-07T12:33:32+03:00*%
%TF.ProjectId,germanium-amp,6765726d-616e-4697-956d-2d616d702e6b,rev?*%
%TF.SameCoordinates,Original*%
%TF.FileFunction,Drillmap*%
%TF.FilePolarity,Positive*%
%FSLAX45Y45*%
G04 Gerber Fmt 4.5, Leading zero omitted, Abs format (unit mm)*
G04 Created by KiCad (PCBNEW (7.0.0-0)) date 2024-02-07 12:33:32*
%MOMM*%
%LPD*%
G01*
G04 APERTURE LIST*
%ADD10C,0.100000*%
%ADD11C,0.200000*%
%ADD12C,0.070000*%
%ADD13C,0.080000*%
%ADD14C,0.110000*%
G04 APERTURE END LIST*
D10*
X12050000Y-3300000D02*
X3700000Y-3300000D01*
X4200000Y-3600000D02*
G75*
G03*
X4200000Y-3600000I-200000J0D01*
G01*
X12050000Y-8400000D02*
X12050000Y-3300000D01*
X11950000Y-8100000D02*
G75*
G03*
X11950000Y-8100000I-200000J0D01*
G01*
X3700000Y-8400000D02*
X12050000Y-8400000D01*
X11950000Y-3600000D02*
G75*
G03*
X11950000Y-3600000I-200000J0D01*
G01*
X4200000Y-8100000D02*
G75*
G03*
X4200000Y-8100000I-200000J0D01*
G01*
X3700000Y-3300000D02*
X3700000Y-8400000D01*
D11*
D12*
X5957000Y-4615000D02*
X6027000Y-4685000D01*
X6027000Y-4615000D02*
X5957000Y-4685000D01*
X5957000Y-6965000D02*
X6027000Y-7035000D01*
X6027000Y-6965000D02*
X5957000Y-7035000D01*
X6211000Y-4425000D02*
X6281000Y-4495000D01*
X6281000Y-4425000D02*
X6211000Y-4495000D01*
X6211000Y-6965000D02*
X6281000Y-7035000D01*
X6281000Y-6965000D02*
X6211000Y-7035000D01*
X6465000Y-4615000D02*
X6535000Y-4685000D01*
X6535000Y-4615000D02*
X6465000Y-4685000D01*
X6465000Y-6965000D02*
X6535000Y-7035000D01*
X6535000Y-6965000D02*
X6465000Y-7035000D01*
X10361000Y-4655000D02*
X10431000Y-4725000D01*
X10431000Y-4655000D02*
X10361000Y-4725000D01*
X10361000Y-6955000D02*
X10431000Y-7025000D01*
X10431000Y-6955000D02*
X10361000Y-7025000D01*
X10615000Y-4815000D02*
X10685000Y-4885000D01*
X10685000Y-4815000D02*
X10615000Y-4885000D01*
X10615000Y-7115000D02*
X10685000Y-7185000D01*
X10685000Y-7115000D02*
X10615000Y-7185000D01*
X10869000Y-4655000D02*
X10939000Y-4725000D01*
X10939000Y-4655000D02*
X10869000Y-4725000D01*
X10869000Y-6955000D02*
X10939000Y-7025000D01*
X10939000Y-6955000D02*
X10869000Y-7025000D01*
D13*
X4940000Y-4395000D02*
G75*
G03*
X4940000Y-4395000I-40000J0D01*
G01*
X4940000Y-4649000D02*
G75*
G03*
X4940000Y-4649000I-40000J0D01*
G01*
X4940000Y-4903000D02*
G75*
G03*
X4940000Y-4903000I-40000J0D01*
G01*
X4940000Y-5695000D02*
G75*
G03*
X4940000Y-5695000I-40000J0D01*
G01*
X4940000Y-5949000D02*
G75*
G03*
X4940000Y-5949000I-40000J0D01*
G01*
X4940000Y-6203000D02*
G75*
G03*
X4940000Y-6203000I-40000J0D01*
G01*
X5782000Y-5450000D02*
G75*
G03*
X5782000Y-5450000I-40000J0D01*
G01*
X5782000Y-5800000D02*
G75*
G03*
X5782000Y-5800000I-40000J0D01*
G01*
X5782000Y-6150000D02*
G75*
G03*
X5782000Y-6150000I-40000J0D01*
G01*
X6798000Y-5450000D02*
G75*
G03*
X6798000Y-5450000I-40000J0D01*
G01*
X6798000Y-5800000D02*
G75*
G03*
X6798000Y-5800000I-40000J0D01*
G01*
X6798000Y-6150000D02*
G75*
G03*
X6798000Y-6150000I-40000J0D01*
G01*
X7214000Y-5550000D02*
G75*
G03*
X7214000Y-5550000I-40000J0D01*
G01*
X7214000Y-5950000D02*
G75*
G03*
X7214000Y-5950000I-40000J0D01*
G01*
X7222000Y-6350000D02*
G75*
G03*
X7222000Y-6350000I-40000J0D01*
G01*
X7224000Y-6750000D02*
G75*
G03*
X7224000Y-6750000I-40000J0D01*
G01*
X7224000Y-7150000D02*
G75*
G03*
X7224000Y-7150000I-40000J0D01*
G01*
X7835000Y-4620000D02*
G75*
G03*
X7835000Y-4620000I-40000J0D01*
G01*
X8230000Y-5550000D02*
G75*
G03*
X8230000Y-5550000I-40000J0D01*
G01*
X8230000Y-5950000D02*
G75*
G03*
X8230000Y-5950000I-40000J0D01*
G01*
X8238000Y-6350000D02*
G75*
G03*
X8238000Y-6350000I-40000J0D01*
G01*
X8240000Y-6750000D02*
G75*
G03*
X8240000Y-6750000I-40000J0D01*
G01*
X8240000Y-7150000D02*
G75*
G03*
X8240000Y-7150000I-40000J0D01*
G01*
X8585000Y-4620000D02*
G75*
G03*
X8585000Y-4620000I-40000J0D01*
G01*
X8669490Y-7050000D02*
G75*
G03*
X8669490Y-7050000I-40000J0D01*
G01*
X8919490Y-7050000D02*
G75*
G03*
X8919490Y-7050000I-40000J0D01*
G01*
X9469490Y-7050000D02*
G75*
G03*
X9469490Y-7050000I-40000J0D01*
G01*
X9719490Y-7050000D02*
G75*
G03*
X9719490Y-7050000I-40000J0D01*
G01*
D10*
X4800000Y-6996000D02*
X4800000Y-7096000D01*
X4750000Y-7046000D02*
X4850000Y-7046000D01*
X4800000Y-7250000D02*
X4800000Y-7350000D01*
X4750000Y-7300000D02*
X4850000Y-7300000D01*
X5347500Y-6794500D02*
X5347500Y-6894500D01*
X5297500Y-6844500D02*
X5397500Y-6844500D01*
X5347500Y-7048500D02*
X5347500Y-7148500D01*
X5297500Y-7098500D02*
X5397500Y-7098500D01*
X5347500Y-7302500D02*
X5347500Y-7402500D01*
X5297500Y-7352500D02*
X5397500Y-7352500D01*
X7250000Y-4316000D02*
X7250000Y-4416000D01*
X7200000Y-4366000D02*
X7300000Y-4366000D01*
X7250000Y-4570000D02*
X7250000Y-4670000D01*
X7200000Y-4620000D02*
X7300000Y-4620000D01*
X9220000Y-4550000D02*
X9220000Y-4650000D01*
X9170000Y-4600000D02*
X9270000Y-4600000D01*
X9600000Y-4550000D02*
X9600000Y-4650000D01*
X9550000Y-4600000D02*
X9650000Y-4600000D01*
X9700000Y-5790000D02*
X9700000Y-5890000D01*
X9650000Y-5840000D02*
X9750000Y-5840000D01*
X10080000Y-5790000D02*
X10080000Y-5890000D01*
X10030000Y-5840000D02*
X10130000Y-5840000D01*
X11002500Y-5696000D02*
X11002500Y-5796000D01*
X10952500Y-5746000D02*
X11052500Y-5746000D01*
X11002500Y-5950000D02*
X11002500Y-6050000D01*
X10952500Y-6000000D02*
X11052500Y-6000000D01*
D14*
X8688891Y-5560891D02*
X8688891Y-5483109D01*
X8611109Y-5483109D01*
X8611109Y-5560891D01*
X8688891Y-5560891D01*
X8688891Y-6576891D02*
X8688891Y-6499109D01*
X8611109Y-6499109D01*
X8611109Y-6576891D01*
X8688891Y-6576891D01*
X9108891Y-5562891D02*
X9108891Y-5485109D01*
X9031109Y-5485109D01*
X9031109Y-5562891D01*
X9108891Y-5562891D01*
X9108891Y-6578891D02*
X9108891Y-6501109D01*
X9031109Y-6501109D01*
X9031109Y-6578891D01*
X9108891Y-6578891D01*
D11*
X3942619Y-8698476D02*
X3942619Y-8498476D01*
X3942619Y-8498476D02*
X3990238Y-8498476D01*
X3990238Y-8498476D02*
X4018809Y-8508000D01*
X4018809Y-8508000D02*
X4037857Y-8527048D01*
X4037857Y-8527048D02*
X4047381Y-8546095D01*
X4047381Y-8546095D02*
X4056905Y-8584190D01*
X4056905Y-8584190D02*
X4056905Y-8612762D01*
X4056905Y-8612762D02*
X4047381Y-8650857D01*
X4047381Y-8650857D02*
X4037857Y-8669905D01*
X4037857Y-8669905D02*
X4018809Y-8688952D01*
X4018809Y-8688952D02*
X3990238Y-8698476D01*
X3990238Y-8698476D02*
X3942619Y-8698476D01*
X4142619Y-8698476D02*
X4142619Y-8565143D01*
X4142619Y-8603238D02*
X4152143Y-8584190D01*
X4152143Y-8584190D02*
X4161667Y-8574667D01*
X4161667Y-8574667D02*
X4180714Y-8565143D01*
X4180714Y-8565143D02*
X4199762Y-8565143D01*
X4266429Y-8698476D02*
X4266429Y-8565143D01*
X4266429Y-8498476D02*
X4256905Y-8508000D01*
X4256905Y-8508000D02*
X4266429Y-8517524D01*
X4266429Y-8517524D02*
X4275952Y-8508000D01*
X4275952Y-8508000D02*
X4266429Y-8498476D01*
X4266429Y-8498476D02*
X4266429Y-8517524D01*
X4390238Y-8698476D02*
X4371190Y-8688952D01*
X4371190Y-8688952D02*
X4361667Y-8669905D01*
X4361667Y-8669905D02*
X4361667Y-8498476D01*
X4495000Y-8698476D02*
X4475952Y-8688952D01*
X4475952Y-8688952D02*
X4466429Y-8669905D01*
X4466429Y-8669905D02*
X4466429Y-8498476D01*
X4691190Y-8698476D02*
X4691190Y-8498476D01*
X4691190Y-8498476D02*
X4757857Y-8641333D01*
X4757857Y-8641333D02*
X4824524Y-8498476D01*
X4824524Y-8498476D02*
X4824524Y-8698476D01*
X5005476Y-8698476D02*
X5005476Y-8593714D01*
X5005476Y-8593714D02*
X4995952Y-8574667D01*
X4995952Y-8574667D02*
X4976905Y-8565143D01*
X4976905Y-8565143D02*
X4938809Y-8565143D01*
X4938809Y-8565143D02*
X4919762Y-8574667D01*
X5005476Y-8688952D02*
X4986429Y-8698476D01*
X4986429Y-8698476D02*
X4938809Y-8698476D01*
X4938809Y-8698476D02*
X4919762Y-8688952D01*
X4919762Y-8688952D02*
X4910238Y-8669905D01*
X4910238Y-8669905D02*
X4910238Y-8650857D01*
X4910238Y-8650857D02*
X4919762Y-8631810D01*
X4919762Y-8631810D02*
X4938809Y-8622286D01*
X4938809Y-8622286D02*
X4986429Y-8622286D01*
X4986429Y-8622286D02*
X5005476Y-8612762D01*
X5100714Y-8565143D02*
X5100714Y-8765143D01*
X5100714Y-8574667D02*
X5119762Y-8565143D01*
X5119762Y-8565143D02*
X5157857Y-8565143D01*
X5157857Y-8565143D02*
X5176905Y-8574667D01*
X5176905Y-8574667D02*
X5186429Y-8584190D01*
X5186429Y-8584190D02*
X5195952Y-8603238D01*
X5195952Y-8603238D02*
X5195952Y-8660381D01*
X5195952Y-8660381D02*
X5186429Y-8679429D01*
X5186429Y-8679429D02*
X5176905Y-8688952D01*
X5176905Y-8688952D02*
X5157857Y-8698476D01*
X5157857Y-8698476D02*
X5119762Y-8698476D01*
X5119762Y-8698476D02*
X5100714Y-8688952D01*
X5281667Y-8679429D02*
X5291190Y-8688952D01*
X5291190Y-8688952D02*
X5281667Y-8698476D01*
X5281667Y-8698476D02*
X5272143Y-8688952D01*
X5272143Y-8688952D02*
X5281667Y-8679429D01*
X5281667Y-8679429D02*
X5281667Y-8698476D01*
X5281667Y-8574667D02*
X5291190Y-8584190D01*
X5291190Y-8584190D02*
X5281667Y-8593714D01*
X5281667Y-8593714D02*
X5272143Y-8584190D01*
X5272143Y-8584190D02*
X5281667Y-8574667D01*
X5281667Y-8574667D02*
X5281667Y-8593714D01*
D12*
X3625000Y-9010000D02*
X3695000Y-9080000D01*
X3695000Y-9010000D02*
X3625000Y-9080000D01*
D11*
X3980714Y-8918476D02*
X3999762Y-8918476D01*
X3999762Y-8918476D02*
X4018809Y-8928000D01*
X4018809Y-8928000D02*
X4028333Y-8937524D01*
X4028333Y-8937524D02*
X4037857Y-8956571D01*
X4037857Y-8956571D02*
X4047381Y-8994667D01*
X4047381Y-8994667D02*
X4047381Y-9042286D01*
X4047381Y-9042286D02*
X4037857Y-9080381D01*
X4037857Y-9080381D02*
X4028333Y-9099429D01*
X4028333Y-9099429D02*
X4018809Y-9108952D01*
X4018809Y-9108952D02*
X3999762Y-9118476D01*
X3999762Y-9118476D02*
X3980714Y-9118476D01*
X3980714Y-9118476D02*
X3961667Y-9108952D01*
X3961667Y-9108952D02*
X3952143Y-9099429D01*
X3952143Y-9099429D02*
X3942619Y-9080381D01*
X3942619Y-9080381D02*
X3933095Y-9042286D01*
X3933095Y-9042286D02*
X3933095Y-8994667D01*
X3933095Y-8994667D02*
X3942619Y-8956571D01*
X3942619Y-8956571D02*
X3952143Y-8937524D01*
X3952143Y-8937524D02*
X3961667Y-8928000D01*
X3961667Y-8928000D02*
X3980714Y-8918476D01*
X4133095Y-9099429D02*
X4142619Y-9108952D01*
X4142619Y-9108952D02*
X4133095Y-9118476D01*
X4133095Y-9118476D02*
X4123571Y-9108952D01*
X4123571Y-9108952D02*
X4133095Y-9099429D01*
X4133095Y-9099429D02*
X4133095Y-9118476D01*
X4209286Y-8918476D02*
X4342619Y-8918476D01*
X4342619Y-8918476D02*
X4256905Y-9118476D01*
X4456905Y-8918476D02*
X4475952Y-8918476D01*
X4475952Y-8918476D02*
X4495000Y-8928000D01*
X4495000Y-8928000D02*
X4504524Y-8937524D01*
X4504524Y-8937524D02*
X4514048Y-8956571D01*
X4514048Y-8956571D02*
X4523571Y-8994667D01*
X4523571Y-8994667D02*
X4523571Y-9042286D01*
X4523571Y-9042286D02*
X4514048Y-9080381D01*
X4514048Y-9080381D02*
X4504524Y-9099429D01*
X4504524Y-9099429D02*
X4495000Y-9108952D01*
X4495000Y-9108952D02*
X4475952Y-9118476D01*
X4475952Y-9118476D02*
X4456905Y-9118476D01*
X4456905Y-9118476D02*
X4437857Y-9108952D01*
X4437857Y-9108952D02*
X4428333Y-9099429D01*
X4428333Y-9099429D02*
X4418810Y-9080381D01*
X4418810Y-9080381D02*
X4409286Y-9042286D01*
X4409286Y-9042286D02*
X4409286Y-8994667D01*
X4409286Y-8994667D02*
X4418810Y-8956571D01*
X4418810Y-8956571D02*
X4428333Y-8937524D01*
X4428333Y-8937524D02*
X4437857Y-8928000D01*
X4437857Y-8928000D02*
X4456905Y-8918476D01*
X4647381Y-8918476D02*
X4666429Y-8918476D01*
X4666429Y-8918476D02*
X4685476Y-8928000D01*
X4685476Y-8928000D02*
X4695000Y-8937524D01*
X4695000Y-8937524D02*
X4704524Y-8956571D01*
X4704524Y-8956571D02*
X4714048Y-8994667D01*
X4714048Y-8994667D02*
X4714048Y-9042286D01*
X4714048Y-9042286D02*
X4704524Y-9080381D01*
X4704524Y-9080381D02*
X4695000Y-9099429D01*
X4695000Y-9099429D02*
X4685476Y-9108952D01*
X4685476Y-9108952D02*
X4666429Y-9118476D01*
X4666429Y-9118476D02*
X4647381Y-9118476D01*
X4647381Y-9118476D02*
X4628333Y-9108952D01*
X4628333Y-9108952D02*
X4618810Y-9099429D01*
X4618810Y-9099429D02*
X4609286Y-9080381D01*
X4609286Y-9080381D02*
X4599762Y-9042286D01*
X4599762Y-9042286D02*
X4599762Y-8994667D01*
X4599762Y-8994667D02*
X4609286Y-8956571D01*
X4609286Y-8956571D02*
X4618810Y-8937524D01*
X4618810Y-8937524D02*
X4628333Y-8928000D01*
X4628333Y-8928000D02*
X4647381Y-8918476D01*
X4799762Y-9118476D02*
X4799762Y-8985143D01*
X4799762Y-9004190D02*
X4809286Y-8994667D01*
X4809286Y-8994667D02*
X4828333Y-8985143D01*
X4828333Y-8985143D02*
X4856905Y-8985143D01*
X4856905Y-8985143D02*
X4875952Y-8994667D01*
X4875952Y-8994667D02*
X4885476Y-9013714D01*
X4885476Y-9013714D02*
X4885476Y-9118476D01*
X4885476Y-9013714D02*
X4895000Y-8994667D01*
X4895000Y-8994667D02*
X4914048Y-8985143D01*
X4914048Y-8985143D02*
X4942619Y-8985143D01*
X4942619Y-8985143D02*
X4961667Y-8994667D01*
X4961667Y-8994667D02*
X4971191Y-9013714D01*
X4971191Y-9013714D02*
X4971191Y-9118476D01*
X5066429Y-9118476D02*
X5066429Y-8985143D01*
X5066429Y-9004190D02*
X5075952Y-8994667D01*
X5075952Y-8994667D02*
X5095000Y-8985143D01*
X5095000Y-8985143D02*
X5123572Y-8985143D01*
X5123572Y-8985143D02*
X5142619Y-8994667D01*
X5142619Y-8994667D02*
X5152143Y-9013714D01*
X5152143Y-9013714D02*
X5152143Y-9118476D01*
X5152143Y-9013714D02*
X5161667Y-8994667D01*
X5161667Y-8994667D02*
X5180714Y-8985143D01*
X5180714Y-8985143D02*
X5209286Y-8985143D01*
X5209286Y-8985143D02*
X5228333Y-8994667D01*
X5228333Y-8994667D02*
X5237857Y-9013714D01*
X5237857Y-9013714D02*
X5237857Y-9118476D01*
X5595952Y-8908952D02*
X5424524Y-9166095D01*
X5820714Y-8918476D02*
X5839762Y-8918476D01*
X5839762Y-8918476D02*
X5858810Y-8928000D01*
X5858810Y-8928000D02*
X5868333Y-8937524D01*
X5868333Y-8937524D02*
X5877857Y-8956571D01*
X5877857Y-8956571D02*
X5887381Y-8994667D01*
X5887381Y-8994667D02*
X5887381Y-9042286D01*
X5887381Y-9042286D02*
X5877857Y-9080381D01*
X5877857Y-9080381D02*
X5868333Y-9099429D01*
X5868333Y-9099429D02*
X5858810Y-9108952D01*
X5858810Y-9108952D02*
X5839762Y-9118476D01*
X5839762Y-9118476D02*
X5820714Y-9118476D01*
X5820714Y-9118476D02*
X5801667Y-9108952D01*
X5801667Y-9108952D02*
X5792143Y-9099429D01*
X5792143Y-9099429D02*
X5782619Y-9080381D01*
X5782619Y-9080381D02*
X5773095Y-9042286D01*
X5773095Y-9042286D02*
X5773095Y-8994667D01*
X5773095Y-8994667D02*
X5782619Y-8956571D01*
X5782619Y-8956571D02*
X5792143Y-8937524D01*
X5792143Y-8937524D02*
X5801667Y-8928000D01*
X5801667Y-8928000D02*
X5820714Y-8918476D01*
X5973095Y-9099429D02*
X5982619Y-9108952D01*
X5982619Y-9108952D02*
X5973095Y-9118476D01*
X5973095Y-9118476D02*
X5963571Y-9108952D01*
X5963571Y-9108952D02*
X5973095Y-9099429D01*
X5973095Y-9099429D02*
X5973095Y-9118476D01*
X6106429Y-8918476D02*
X6125476Y-8918476D01*
X6125476Y-8918476D02*
X6144524Y-8928000D01*
X6144524Y-8928000D02*
X6154048Y-8937524D01*
X6154048Y-8937524D02*
X6163571Y-8956571D01*
X6163571Y-8956571D02*
X6173095Y-8994667D01*
X6173095Y-8994667D02*
X6173095Y-9042286D01*
X6173095Y-9042286D02*
X6163571Y-9080381D01*
X6163571Y-9080381D02*
X6154048Y-9099429D01*
X6154048Y-9099429D02*
X6144524Y-9108952D01*
X6144524Y-9108952D02*
X6125476Y-9118476D01*
X6125476Y-9118476D02*
X6106429Y-9118476D01*
X6106429Y-9118476D02*
X6087381Y-9108952D01*
X6087381Y-9108952D02*
X6077857Y-9099429D01*
X6077857Y-9099429D02*
X6068333Y-9080381D01*
X6068333Y-9080381D02*
X6058810Y-9042286D01*
X6058810Y-9042286D02*
X6058810Y-8994667D01*
X6058810Y-8994667D02*
X6068333Y-8956571D01*
X6068333Y-8956571D02*
X6077857Y-8937524D01*
X6077857Y-8937524D02*
X6087381Y-8928000D01*
X6087381Y-8928000D02*
X6106429Y-8918476D01*
X6249286Y-8937524D02*
X6258810Y-8928000D01*
X6258810Y-8928000D02*
X6277857Y-8918476D01*
X6277857Y-8918476D02*
X6325476Y-8918476D01*
X6325476Y-8918476D02*
X6344524Y-8928000D01*
X6344524Y-8928000D02*
X6354048Y-8937524D01*
X6354048Y-8937524D02*
X6363571Y-8956571D01*
X6363571Y-8956571D02*
X6363571Y-8975619D01*
X6363571Y-8975619D02*
X6354048Y-9004190D01*
X6354048Y-9004190D02*
X6239762Y-9118476D01*
X6239762Y-9118476D02*
X6363571Y-9118476D01*
X6430238Y-8918476D02*
X6563571Y-8918476D01*
X6563571Y-8918476D02*
X6477857Y-9118476D01*
X6725476Y-8918476D02*
X6687381Y-8918476D01*
X6687381Y-8918476D02*
X6668333Y-8928000D01*
X6668333Y-8928000D02*
X6658810Y-8937524D01*
X6658810Y-8937524D02*
X6639762Y-8966095D01*
X6639762Y-8966095D02*
X6630238Y-9004190D01*
X6630238Y-9004190D02*
X6630238Y-9080381D01*
X6630238Y-9080381D02*
X6639762Y-9099429D01*
X6639762Y-9099429D02*
X6649286Y-9108952D01*
X6649286Y-9108952D02*
X6668333Y-9118476D01*
X6668333Y-9118476D02*
X6706429Y-9118476D01*
X6706429Y-9118476D02*
X6725476Y-9108952D01*
X6725476Y-9108952D02*
X6735000Y-9099429D01*
X6735000Y-9099429D02*
X6744524Y-9080381D01*
X6744524Y-9080381D02*
X6744524Y-9032762D01*
X6744524Y-9032762D02*
X6735000Y-9013714D01*
X6735000Y-9013714D02*
X6725476Y-9004190D01*
X6725476Y-9004190D02*
X6706429Y-8994667D01*
X6706429Y-8994667D02*
X6668333Y-8994667D01*
X6668333Y-8994667D02*
X6649286Y-9004190D01*
X6649286Y-9004190D02*
X6639762Y-9013714D01*
X6639762Y-9013714D02*
X6630238Y-9032762D01*
X6820714Y-8918476D02*
X6820714Y-8956571D01*
X6896905Y-8918476D02*
X6896905Y-8956571D01*
X7159762Y-9194667D02*
X7150238Y-9185143D01*
X7150238Y-9185143D02*
X7131191Y-9156571D01*
X7131191Y-9156571D02*
X7121667Y-9137524D01*
X7121667Y-9137524D02*
X7112143Y-9108952D01*
X7112143Y-9108952D02*
X7102619Y-9061333D01*
X7102619Y-9061333D02*
X7102619Y-9023238D01*
X7102619Y-9023238D02*
X7112143Y-8975619D01*
X7112143Y-8975619D02*
X7121667Y-8947048D01*
X7121667Y-8947048D02*
X7131191Y-8928000D01*
X7131191Y-8928000D02*
X7150238Y-8899429D01*
X7150238Y-8899429D02*
X7159762Y-8889905D01*
X7340714Y-9118476D02*
X7226429Y-9118476D01*
X7283571Y-9118476D02*
X7283571Y-8918476D01*
X7283571Y-8918476D02*
X7264524Y-8947048D01*
X7264524Y-8947048D02*
X7245476Y-8966095D01*
X7245476Y-8966095D02*
X7226429Y-8975619D01*
X7416905Y-8937524D02*
X7426429Y-8928000D01*
X7426429Y-8928000D02*
X7445476Y-8918476D01*
X7445476Y-8918476D02*
X7493095Y-8918476D01*
X7493095Y-8918476D02*
X7512143Y-8928000D01*
X7512143Y-8928000D02*
X7521667Y-8937524D01*
X7521667Y-8937524D02*
X7531191Y-8956571D01*
X7531191Y-8956571D02*
X7531191Y-8975619D01*
X7531191Y-8975619D02*
X7521667Y-9004190D01*
X7521667Y-9004190D02*
X7407381Y-9118476D01*
X7407381Y-9118476D02*
X7531191Y-9118476D01*
X7736905Y-9118476D02*
X7736905Y-8918476D01*
X7822619Y-9118476D02*
X7822619Y-9013714D01*
X7822619Y-9013714D02*
X7813095Y-8994667D01*
X7813095Y-8994667D02*
X7794048Y-8985143D01*
X7794048Y-8985143D02*
X7765476Y-8985143D01*
X7765476Y-8985143D02*
X7746429Y-8994667D01*
X7746429Y-8994667D02*
X7736905Y-9004190D01*
X7946429Y-9118476D02*
X7927381Y-9108952D01*
X7927381Y-9108952D02*
X7917857Y-9099429D01*
X7917857Y-9099429D02*
X7908333Y-9080381D01*
X7908333Y-9080381D02*
X7908333Y-9023238D01*
X7908333Y-9023238D02*
X7917857Y-9004190D01*
X7917857Y-9004190D02*
X7927381Y-8994667D01*
X7927381Y-8994667D02*
X7946429Y-8985143D01*
X7946429Y-8985143D02*
X7975000Y-8985143D01*
X7975000Y-8985143D02*
X7994048Y-8994667D01*
X7994048Y-8994667D02*
X8003572Y-9004190D01*
X8003572Y-9004190D02*
X8013095Y-9023238D01*
X8013095Y-9023238D02*
X8013095Y-9080381D01*
X8013095Y-9080381D02*
X8003572Y-9099429D01*
X8003572Y-9099429D02*
X7994048Y-9108952D01*
X7994048Y-9108952D02*
X7975000Y-9118476D01*
X7975000Y-9118476D02*
X7946429Y-9118476D01*
X8127381Y-9118476D02*
X8108333Y-9108952D01*
X8108333Y-9108952D02*
X8098810Y-9089905D01*
X8098810Y-9089905D02*
X8098810Y-8918476D01*
X8279762Y-9108952D02*
X8260714Y-9118476D01*
X8260714Y-9118476D02*
X8222619Y-9118476D01*
X8222619Y-9118476D02*
X8203572Y-9108952D01*
X8203572Y-9108952D02*
X8194048Y-9089905D01*
X8194048Y-9089905D02*
X8194048Y-9013714D01*
X8194048Y-9013714D02*
X8203572Y-8994667D01*
X8203572Y-8994667D02*
X8222619Y-8985143D01*
X8222619Y-8985143D02*
X8260714Y-8985143D01*
X8260714Y-8985143D02*
X8279762Y-8994667D01*
X8279762Y-8994667D02*
X8289286Y-9013714D01*
X8289286Y-9013714D02*
X8289286Y-9032762D01*
X8289286Y-9032762D02*
X8194048Y-9051810D01*
X8365476Y-9108952D02*
X8384524Y-9118476D01*
X8384524Y-9118476D02*
X8422619Y-9118476D01*
X8422619Y-9118476D02*
X8441667Y-9108952D01*
X8441667Y-9108952D02*
X8451191Y-9089905D01*
X8451191Y-9089905D02*
X8451191Y-9080381D01*
X8451191Y-9080381D02*
X8441667Y-9061333D01*
X8441667Y-9061333D02*
X8422619Y-9051810D01*
X8422619Y-9051810D02*
X8394048Y-9051810D01*
X8394048Y-9051810D02*
X8375000Y-9042286D01*
X8375000Y-9042286D02*
X8365476Y-9023238D01*
X8365476Y-9023238D02*
X8365476Y-9013714D01*
X8365476Y-9013714D02*
X8375000Y-8994667D01*
X8375000Y-8994667D02*
X8394048Y-8985143D01*
X8394048Y-8985143D02*
X8422619Y-8985143D01*
X8422619Y-8985143D02*
X8441667Y-8994667D01*
X8517857Y-9194667D02*
X8527381Y-9185143D01*
X8527381Y-9185143D02*
X8546429Y-9156571D01*
X8546429Y-9156571D02*
X8555953Y-9137524D01*
X8555953Y-9137524D02*
X8565476Y-9108952D01*
X8565476Y-9108952D02*
X8575000Y-9061333D01*
X8575000Y-9061333D02*
X8575000Y-9023238D01*
X8575000Y-9023238D02*
X8565476Y-8975619D01*
X8565476Y-8975619D02*
X8555953Y-8947048D01*
X8555953Y-8947048D02*
X8546429Y-8928000D01*
X8546429Y-8928000D02*
X8527381Y-8899429D01*
X8527381Y-8899429D02*
X8517857Y-8889905D01*
D13*
X3695000Y-9309000D02*
G75*
G03*
X3695000Y-9309000I-40000J0D01*
G01*
D11*
X3980714Y-9182476D02*
X3999762Y-9182476D01*
X3999762Y-9182476D02*
X4018809Y-9192000D01*
X4018809Y-9192000D02*
X4028333Y-9201524D01*
X4028333Y-9201524D02*
X4037857Y-9220571D01*
X4037857Y-9220571D02*
X4047381Y-9258667D01*
X4047381Y-9258667D02*
X4047381Y-9306286D01*
X4047381Y-9306286D02*
X4037857Y-9344381D01*
X4037857Y-9344381D02*
X4028333Y-9363429D01*
X4028333Y-9363429D02*
X4018809Y-9372952D01*
X4018809Y-9372952D02*
X3999762Y-9382476D01*
X3999762Y-9382476D02*
X3980714Y-9382476D01*
X3980714Y-9382476D02*
X3961667Y-9372952D01*
X3961667Y-9372952D02*
X3952143Y-9363429D01*
X3952143Y-9363429D02*
X3942619Y-9344381D01*
X3942619Y-9344381D02*
X3933095Y-9306286D01*
X3933095Y-9306286D02*
X3933095Y-9258667D01*
X3933095Y-9258667D02*
X3942619Y-9220571D01*
X3942619Y-9220571D02*
X3952143Y-9201524D01*
X3952143Y-9201524D02*
X3961667Y-9192000D01*
X3961667Y-9192000D02*
X3980714Y-9182476D01*
X4133095Y-9363429D02*
X4142619Y-9372952D01*
X4142619Y-9372952D02*
X4133095Y-9382476D01*
X4133095Y-9382476D02*
X4123571Y-9372952D01*
X4123571Y-9372952D02*
X4133095Y-9363429D01*
X4133095Y-9363429D02*
X4133095Y-9382476D01*
X4256905Y-9268190D02*
X4237857Y-9258667D01*
X4237857Y-9258667D02*
X4228333Y-9249143D01*
X4228333Y-9249143D02*
X4218810Y-9230095D01*
X4218810Y-9230095D02*
X4218810Y-9220571D01*
X4218810Y-9220571D02*
X4228333Y-9201524D01*
X4228333Y-9201524D02*
X4237857Y-9192000D01*
X4237857Y-9192000D02*
X4256905Y-9182476D01*
X4256905Y-9182476D02*
X4295000Y-9182476D01*
X4295000Y-9182476D02*
X4314048Y-9192000D01*
X4314048Y-9192000D02*
X4323571Y-9201524D01*
X4323571Y-9201524D02*
X4333095Y-9220571D01*
X4333095Y-9220571D02*
X4333095Y-9230095D01*
X4333095Y-9230095D02*
X4323571Y-9249143D01*
X4323571Y-9249143D02*
X4314048Y-9258667D01*
X4314048Y-9258667D02*
X4295000Y-9268190D01*
X4295000Y-9268190D02*
X4256905Y-9268190D01*
X4256905Y-9268190D02*
X4237857Y-9277714D01*
X4237857Y-9277714D02*
X4228333Y-9287238D01*
X4228333Y-9287238D02*
X4218810Y-9306286D01*
X4218810Y-9306286D02*
X4218810Y-9344381D01*
X4218810Y-9344381D02*
X4228333Y-9363429D01*
X4228333Y-9363429D02*
X4237857Y-9372952D01*
X4237857Y-9372952D02*
X4256905Y-9382476D01*
X4256905Y-9382476D02*
X4295000Y-9382476D01*
X4295000Y-9382476D02*
X4314048Y-9372952D01*
X4314048Y-9372952D02*
X4323571Y-9363429D01*
X4323571Y-9363429D02*
X4333095Y-9344381D01*
X4333095Y-9344381D02*
X4333095Y-9306286D01*
X4333095Y-9306286D02*
X4323571Y-9287238D01*
X4323571Y-9287238D02*
X4314048Y-9277714D01*
X4314048Y-9277714D02*
X4295000Y-9268190D01*
X4456905Y-9182476D02*
X4475952Y-9182476D01*
X4475952Y-9182476D02*
X4495000Y-9192000D01*
X4495000Y-9192000D02*
X4504524Y-9201524D01*
X4504524Y-9201524D02*
X4514048Y-9220571D01*
X4514048Y-9220571D02*
X4523571Y-9258667D01*
X4523571Y-9258667D02*
X4523571Y-9306286D01*
X4523571Y-9306286D02*
X4514048Y-9344381D01*
X4514048Y-9344381D02*
X4504524Y-9363429D01*
X4504524Y-9363429D02*
X4495000Y-9372952D01*
X4495000Y-9372952D02*
X4475952Y-9382476D01*
X4475952Y-9382476D02*
X4456905Y-9382476D01*
X4456905Y-9382476D02*
X4437857Y-9372952D01*
X4437857Y-9372952D02*
X4428333Y-9363429D01*
X4428333Y-9363429D02*
X4418810Y-9344381D01*
X4418810Y-9344381D02*
X4409286Y-9306286D01*
X4409286Y-9306286D02*
X4409286Y-9258667D01*
X4409286Y-9258667D02*
X4418810Y-9220571D01*
X4418810Y-9220571D02*
X4428333Y-9201524D01*
X4428333Y-9201524D02*
X4437857Y-9192000D01*
X4437857Y-9192000D02*
X4456905Y-9182476D01*
X4647381Y-9182476D02*
X4666429Y-9182476D01*
X4666429Y-9182476D02*
X4685476Y-9192000D01*
X4685476Y-9192000D02*
X4695000Y-9201524D01*
X4695000Y-9201524D02*
X4704524Y-9220571D01*
X4704524Y-9220571D02*
X4714048Y-9258667D01*
X4714048Y-9258667D02*
X4714048Y-9306286D01*
X4714048Y-9306286D02*
X4704524Y-9344381D01*
X4704524Y-9344381D02*
X4695000Y-9363429D01*
X4695000Y-9363429D02*
X4685476Y-9372952D01*
X4685476Y-9372952D02*
X4666429Y-9382476D01*
X4666429Y-9382476D02*
X4647381Y-9382476D01*
X4647381Y-9382476D02*
X4628333Y-9372952D01*
X4628333Y-9372952D02*
X4618810Y-9363429D01*
X4618810Y-9363429D02*
X4609286Y-9344381D01*
X4609286Y-9344381D02*
X4599762Y-9306286D01*
X4599762Y-9306286D02*
X4599762Y-9258667D01*
X4599762Y-9258667D02*
X4609286Y-9220571D01*
X4609286Y-9220571D02*
X4618810Y-9201524D01*
X4618810Y-9201524D02*
X4628333Y-9192000D01*
X4628333Y-9192000D02*
X4647381Y-9182476D01*
X4799762Y-9382476D02*
X4799762Y-9249143D01*
X4799762Y-9268190D02*
X4809286Y-9258667D01*
X4809286Y-9258667D02*
X4828333Y-9249143D01*
X4828333Y-9249143D02*
X4856905Y-9249143D01*
X4856905Y-9249143D02*
X4875952Y-9258667D01*
X4875952Y-9258667D02*
X4885476Y-9277714D01*
X4885476Y-9277714D02*
X4885476Y-9382476D01*
X4885476Y-9277714D02*
X4895000Y-9258667D01*
X4895000Y-9258667D02*
X4914048Y-9249143D01*
X4914048Y-9249143D02*
X4942619Y-9249143D01*
X4942619Y-9249143D02*
X4961667Y-9258667D01*
X4961667Y-9258667D02*
X4971191Y-9277714D01*
X4971191Y-9277714D02*
X4971191Y-9382476D01*
X5066429Y-9382476D02*
X5066429Y-9249143D01*
X5066429Y-9268190D02*
X5075952Y-9258667D01*
X5075952Y-9258667D02*
X5095000Y-9249143D01*
X5095000Y-9249143D02*
X5123572Y-9249143D01*
X5123572Y-9249143D02*
X5142619Y-9258667D01*
X5142619Y-9258667D02*
X5152143Y-9277714D01*
X5152143Y-9277714D02*
X5152143Y-9382476D01*
X5152143Y-9277714D02*
X5161667Y-9258667D01*
X5161667Y-9258667D02*
X5180714Y-9249143D01*
X5180714Y-9249143D02*
X5209286Y-9249143D01*
X5209286Y-9249143D02*
X5228333Y-9258667D01*
X5228333Y-9258667D02*
X5237857Y-9277714D01*
X5237857Y-9277714D02*
X5237857Y-9382476D01*
X5595952Y-9172952D02*
X5424524Y-9430095D01*
X5820714Y-9182476D02*
X5839762Y-9182476D01*
X5839762Y-9182476D02*
X5858810Y-9192000D01*
X5858810Y-9192000D02*
X5868333Y-9201524D01*
X5868333Y-9201524D02*
X5877857Y-9220571D01*
X5877857Y-9220571D02*
X5887381Y-9258667D01*
X5887381Y-9258667D02*
X5887381Y-9306286D01*
X5887381Y-9306286D02*
X5877857Y-9344381D01*
X5877857Y-9344381D02*
X5868333Y-9363429D01*
X5868333Y-9363429D02*
X5858810Y-9372952D01*
X5858810Y-9372952D02*
X5839762Y-9382476D01*
X5839762Y-9382476D02*
X5820714Y-9382476D01*
X5820714Y-9382476D02*
X5801667Y-9372952D01*
X5801667Y-9372952D02*
X5792143Y-9363429D01*
X5792143Y-9363429D02*
X5782619Y-9344381D01*
X5782619Y-9344381D02*
X5773095Y-9306286D01*
X5773095Y-9306286D02*
X5773095Y-9258667D01*
X5773095Y-9258667D02*
X5782619Y-9220571D01*
X5782619Y-9220571D02*
X5792143Y-9201524D01*
X5792143Y-9201524D02*
X5801667Y-9192000D01*
X5801667Y-9192000D02*
X5820714Y-9182476D01*
X5973095Y-9363429D02*
X5982619Y-9372952D01*
X5982619Y-9372952D02*
X5973095Y-9382476D01*
X5973095Y-9382476D02*
X5963571Y-9372952D01*
X5963571Y-9372952D02*
X5973095Y-9363429D01*
X5973095Y-9363429D02*
X5973095Y-9382476D01*
X6106429Y-9182476D02*
X6125476Y-9182476D01*
X6125476Y-9182476D02*
X6144524Y-9192000D01*
X6144524Y-9192000D02*
X6154048Y-9201524D01*
X6154048Y-9201524D02*
X6163571Y-9220571D01*
X6163571Y-9220571D02*
X6173095Y-9258667D01*
X6173095Y-9258667D02*
X6173095Y-9306286D01*
X6173095Y-9306286D02*
X6163571Y-9344381D01*
X6163571Y-9344381D02*
X6154048Y-9363429D01*
X6154048Y-9363429D02*
X6144524Y-9372952D01*
X6144524Y-9372952D02*
X6125476Y-9382476D01*
X6125476Y-9382476D02*
X6106429Y-9382476D01*
X6106429Y-9382476D02*
X6087381Y-9372952D01*
X6087381Y-9372952D02*
X6077857Y-9363429D01*
X6077857Y-9363429D02*
X6068333Y-9344381D01*
X6068333Y-9344381D02*
X6058810Y-9306286D01*
X6058810Y-9306286D02*
X6058810Y-9258667D01*
X6058810Y-9258667D02*
X6068333Y-9220571D01*
X6068333Y-9220571D02*
X6077857Y-9201524D01*
X6077857Y-9201524D02*
X6087381Y-9192000D01*
X6087381Y-9192000D02*
X6106429Y-9182476D01*
X6239762Y-9182476D02*
X6363571Y-9182476D01*
X6363571Y-9182476D02*
X6296905Y-9258667D01*
X6296905Y-9258667D02*
X6325476Y-9258667D01*
X6325476Y-9258667D02*
X6344524Y-9268190D01*
X6344524Y-9268190D02*
X6354048Y-9277714D01*
X6354048Y-9277714D02*
X6363571Y-9296762D01*
X6363571Y-9296762D02*
X6363571Y-9344381D01*
X6363571Y-9344381D02*
X6354048Y-9363429D01*
X6354048Y-9363429D02*
X6344524Y-9372952D01*
X6344524Y-9372952D02*
X6325476Y-9382476D01*
X6325476Y-9382476D02*
X6268333Y-9382476D01*
X6268333Y-9382476D02*
X6249286Y-9372952D01*
X6249286Y-9372952D02*
X6239762Y-9363429D01*
X6554048Y-9382476D02*
X6439762Y-9382476D01*
X6496905Y-9382476D02*
X6496905Y-9182476D01*
X6496905Y-9182476D02*
X6477857Y-9211048D01*
X6477857Y-9211048D02*
X6458810Y-9230095D01*
X6458810Y-9230095D02*
X6439762Y-9239619D01*
X6735000Y-9182476D02*
X6639762Y-9182476D01*
X6639762Y-9182476D02*
X6630238Y-9277714D01*
X6630238Y-9277714D02*
X6639762Y-9268190D01*
X6639762Y-9268190D02*
X6658810Y-9258667D01*
X6658810Y-9258667D02*
X6706429Y-9258667D01*
X6706429Y-9258667D02*
X6725476Y-9268190D01*
X6725476Y-9268190D02*
X6735000Y-9277714D01*
X6735000Y-9277714D02*
X6744524Y-9296762D01*
X6744524Y-9296762D02*
X6744524Y-9344381D01*
X6744524Y-9344381D02*
X6735000Y-9363429D01*
X6735000Y-9363429D02*
X6725476Y-9372952D01*
X6725476Y-9372952D02*
X6706429Y-9382476D01*
X6706429Y-9382476D02*
X6658810Y-9382476D01*
X6658810Y-9382476D02*
X6639762Y-9372952D01*
X6639762Y-9372952D02*
X6630238Y-9363429D01*
X6820714Y-9182476D02*
X6820714Y-9220571D01*
X6896905Y-9182476D02*
X6896905Y-9220571D01*
X7159762Y-9458667D02*
X7150238Y-9449143D01*
X7150238Y-9449143D02*
X7131191Y-9420571D01*
X7131191Y-9420571D02*
X7121667Y-9401524D01*
X7121667Y-9401524D02*
X7112143Y-9372952D01*
X7112143Y-9372952D02*
X7102619Y-9325333D01*
X7102619Y-9325333D02*
X7102619Y-9287238D01*
X7102619Y-9287238D02*
X7112143Y-9239619D01*
X7112143Y-9239619D02*
X7121667Y-9211048D01*
X7121667Y-9211048D02*
X7131191Y-9192000D01*
X7131191Y-9192000D02*
X7150238Y-9163429D01*
X7150238Y-9163429D02*
X7159762Y-9153905D01*
X7226429Y-9201524D02*
X7235952Y-9192000D01*
X7235952Y-9192000D02*
X7255000Y-9182476D01*
X7255000Y-9182476D02*
X7302619Y-9182476D01*
X7302619Y-9182476D02*
X7321667Y-9192000D01*
X7321667Y-9192000D02*
X7331191Y-9201524D01*
X7331191Y-9201524D02*
X7340714Y-9220571D01*
X7340714Y-9220571D02*
X7340714Y-9239619D01*
X7340714Y-9239619D02*
X7331191Y-9268190D01*
X7331191Y-9268190D02*
X7216905Y-9382476D01*
X7216905Y-9382476D02*
X7340714Y-9382476D01*
X7455000Y-9268190D02*
X7435952Y-9258667D01*
X7435952Y-9258667D02*
X7426429Y-9249143D01*
X7426429Y-9249143D02*
X7416905Y-9230095D01*
X7416905Y-9230095D02*
X7416905Y-9220571D01*
X7416905Y-9220571D02*
X7426429Y-9201524D01*
X7426429Y-9201524D02*
X7435952Y-9192000D01*
X7435952Y-9192000D02*
X7455000Y-9182476D01*
X7455000Y-9182476D02*
X7493095Y-9182476D01*
X7493095Y-9182476D02*
X7512143Y-9192000D01*
X7512143Y-9192000D02*
X7521667Y-9201524D01*
X7521667Y-9201524D02*
X7531191Y-9220571D01*
X7531191Y-9220571D02*
X7531191Y-9230095D01*
X7531191Y-9230095D02*
X7521667Y-9249143D01*
X7521667Y-9249143D02*
X7512143Y-9258667D01*
X7512143Y-9258667D02*
X7493095Y-9268190D01*
X7493095Y-9268190D02*
X7455000Y-9268190D01*
X7455000Y-9268190D02*
X7435952Y-9277714D01*
X7435952Y-9277714D02*
X7426429Y-9287238D01*
X7426429Y-9287238D02*
X7416905Y-9306286D01*
X7416905Y-9306286D02*
X7416905Y-9344381D01*
X7416905Y-9344381D02*
X7426429Y-9363429D01*
X7426429Y-9363429D02*
X7435952Y-9372952D01*
X7435952Y-9372952D02*
X7455000Y-9382476D01*
X7455000Y-9382476D02*
X7493095Y-9382476D01*
X7493095Y-9382476D02*
X7512143Y-9372952D01*
X7512143Y-9372952D02*
X7521667Y-9363429D01*
X7521667Y-9363429D02*
X7531191Y-9344381D01*
X7531191Y-9344381D02*
X7531191Y-9306286D01*
X7531191Y-9306286D02*
X7521667Y-9287238D01*
X7521667Y-9287238D02*
X7512143Y-9277714D01*
X7512143Y-9277714D02*
X7493095Y-9268190D01*
X7736905Y-9382476D02*
X7736905Y-9182476D01*
X7822619Y-9382476D02*
X7822619Y-9277714D01*
X7822619Y-9277714D02*
X7813095Y-9258667D01*
X7813095Y-9258667D02*
X7794048Y-9249143D01*
X7794048Y-9249143D02*
X7765476Y-9249143D01*
X7765476Y-9249143D02*
X7746429Y-9258667D01*
X7746429Y-9258667D02*
X7736905Y-9268190D01*
X7946429Y-9382476D02*
X7927381Y-9372952D01*
X7927381Y-9372952D02*
X7917857Y-9363429D01*
X7917857Y-9363429D02*
X7908333Y-9344381D01*
X7908333Y-9344381D02*
X7908333Y-9287238D01*
X7908333Y-9287238D02*
X7917857Y-9268190D01*
X7917857Y-9268190D02*
X7927381Y-9258667D01*
X7927381Y-9258667D02*
X7946429Y-9249143D01*
X7946429Y-9249143D02*
X7975000Y-9249143D01*
X7975000Y-9249143D02*
X7994048Y-9258667D01*
X7994048Y-9258667D02*
X8003572Y-9268190D01*
X8003572Y-9268190D02*
X8013095Y-9287238D01*
X8013095Y-9287238D02*
X8013095Y-9344381D01*
X8013095Y-9344381D02*
X8003572Y-9363429D01*
X8003572Y-9363429D02*
X7994048Y-9372952D01*
X7994048Y-9372952D02*
X7975000Y-9382476D01*
X7975000Y-9382476D02*
X7946429Y-9382476D01*
X8127381Y-9382476D02*
X8108333Y-9372952D01*
X8108333Y-9372952D02*
X8098810Y-9353905D01*
X8098810Y-9353905D02*
X8098810Y-9182476D01*
X8279762Y-9372952D02*
X8260714Y-9382476D01*
X8260714Y-9382476D02*
X8222619Y-9382476D01*
X8222619Y-9382476D02*
X8203572Y-9372952D01*
X8203572Y-9372952D02*
X8194048Y-9353905D01*
X8194048Y-9353905D02*
X8194048Y-9277714D01*
X8194048Y-9277714D02*
X8203572Y-9258667D01*
X8203572Y-9258667D02*
X8222619Y-9249143D01*
X8222619Y-9249143D02*
X8260714Y-9249143D01*
X8260714Y-9249143D02*
X8279762Y-9258667D01*
X8279762Y-9258667D02*
X8289286Y-9277714D01*
X8289286Y-9277714D02*
X8289286Y-9296762D01*
X8289286Y-9296762D02*
X8194048Y-9315810D01*
X8365476Y-9372952D02*
X8384524Y-9382476D01*
X8384524Y-9382476D02*
X8422619Y-9382476D01*
X8422619Y-9382476D02*
X8441667Y-9372952D01*
X8441667Y-9372952D02*
X8451191Y-9353905D01*
X8451191Y-9353905D02*
X8451191Y-9344381D01*
X8451191Y-9344381D02*
X8441667Y-9325333D01*
X8441667Y-9325333D02*
X8422619Y-9315810D01*
X8422619Y-9315810D02*
X8394048Y-9315810D01*
X8394048Y-9315810D02*
X8375000Y-9306286D01*
X8375000Y-9306286D02*
X8365476Y-9287238D01*
X8365476Y-9287238D02*
X8365476Y-9277714D01*
X8365476Y-9277714D02*
X8375000Y-9258667D01*
X8375000Y-9258667D02*
X8394048Y-9249143D01*
X8394048Y-9249143D02*
X8422619Y-9249143D01*
X8422619Y-9249143D02*
X8441667Y-9258667D01*
X8517857Y-9458667D02*
X8527381Y-9449143D01*
X8527381Y-9449143D02*
X8546429Y-9420571D01*
X8546429Y-9420571D02*
X8555953Y-9401524D01*
X8555953Y-9401524D02*
X8565476Y-9372952D01*
X8565476Y-9372952D02*
X8575000Y-9325333D01*
X8575000Y-9325333D02*
X8575000Y-9287238D01*
X8575000Y-9287238D02*
X8565476Y-9239619D01*
X8565476Y-9239619D02*
X8555953Y-9211048D01*
X8555953Y-9211048D02*
X8546429Y-9192000D01*
X8546429Y-9192000D02*
X8527381Y-9163429D01*
X8527381Y-9163429D02*
X8517857Y-9153905D01*
D10*
X3645000Y-9523000D02*
X3645000Y-9623000D01*
X3595000Y-9573000D02*
X3695000Y-9573000D01*
D11*
X4047381Y-9646476D02*
X3933095Y-9646476D01*
X3990238Y-9646476D02*
X3990238Y-9446476D01*
X3990238Y-9446476D02*
X3971190Y-9475048D01*
X3971190Y-9475048D02*
X3952143Y-9494095D01*
X3952143Y-9494095D02*
X3933095Y-9503619D01*
X4133095Y-9627429D02*
X4142619Y-9636952D01*
X4142619Y-9636952D02*
X4133095Y-9646476D01*
X4133095Y-9646476D02*
X4123571Y-9636952D01*
X4123571Y-9636952D02*
X4133095Y-9627429D01*
X4133095Y-9627429D02*
X4133095Y-9646476D01*
X4266429Y-9446476D02*
X4285476Y-9446476D01*
X4285476Y-9446476D02*
X4304524Y-9456000D01*
X4304524Y-9456000D02*
X4314048Y-9465524D01*
X4314048Y-9465524D02*
X4323571Y-9484571D01*
X4323571Y-9484571D02*
X4333095Y-9522667D01*
X4333095Y-9522667D02*
X4333095Y-9570286D01*
X4333095Y-9570286D02*
X4323571Y-9608381D01*
X4323571Y-9608381D02*
X4314048Y-9627429D01*
X4314048Y-9627429D02*
X4304524Y-9636952D01*
X4304524Y-9636952D02*
X4285476Y-9646476D01*
X4285476Y-9646476D02*
X4266429Y-9646476D01*
X4266429Y-9646476D02*
X4247381Y-9636952D01*
X4247381Y-9636952D02*
X4237857Y-9627429D01*
X4237857Y-9627429D02*
X4228333Y-9608381D01*
X4228333Y-9608381D02*
X4218810Y-9570286D01*
X4218810Y-9570286D02*
X4218810Y-9522667D01*
X4218810Y-9522667D02*
X4228333Y-9484571D01*
X4228333Y-9484571D02*
X4237857Y-9465524D01*
X4237857Y-9465524D02*
X4247381Y-9456000D01*
X4247381Y-9456000D02*
X4266429Y-9446476D01*
X4456905Y-9446476D02*
X4475952Y-9446476D01*
X4475952Y-9446476D02*
X4495000Y-9456000D01*
X4495000Y-9456000D02*
X4504524Y-9465524D01*
X4504524Y-9465524D02*
X4514048Y-9484571D01*
X4514048Y-9484571D02*
X4523571Y-9522667D01*
X4523571Y-9522667D02*
X4523571Y-9570286D01*
X4523571Y-9570286D02*
X4514048Y-9608381D01*
X4514048Y-9608381D02*
X4504524Y-9627429D01*
X4504524Y-9627429D02*
X4495000Y-9636952D01*
X4495000Y-9636952D02*
X4475952Y-9646476D01*
X4475952Y-9646476D02*
X4456905Y-9646476D01*
X4456905Y-9646476D02*
X4437857Y-9636952D01*
X4437857Y-9636952D02*
X4428333Y-9627429D01*
X4428333Y-9627429D02*
X4418810Y-9608381D01*
X4418810Y-9608381D02*
X4409286Y-9570286D01*
X4409286Y-9570286D02*
X4409286Y-9522667D01*
X4409286Y-9522667D02*
X4418810Y-9484571D01*
X4418810Y-9484571D02*
X4428333Y-9465524D01*
X4428333Y-9465524D02*
X4437857Y-9456000D01*
X4437857Y-9456000D02*
X4456905Y-9446476D01*
X4647381Y-9446476D02*
X4666429Y-9446476D01*
X4666429Y-9446476D02*
X4685476Y-9456000D01*
X4685476Y-9456000D02*
X4695000Y-9465524D01*
X4695000Y-9465524D02*
X4704524Y-9484571D01*
X4704524Y-9484571D02*
X4714048Y-9522667D01*
X4714048Y-9522667D02*
X4714048Y-9570286D01*
X4714048Y-9570286D02*
X4704524Y-9608381D01*
X4704524Y-9608381D02*
X4695000Y-9627429D01*
X4695000Y-9627429D02*
X4685476Y-9636952D01*
X4685476Y-9636952D02*
X4666429Y-9646476D01*
X4666429Y-9646476D02*
X4647381Y-9646476D01*
X4647381Y-9646476D02*
X4628333Y-9636952D01*
X4628333Y-9636952D02*
X4618810Y-9627429D01*
X4618810Y-9627429D02*
X4609286Y-9608381D01*
X4609286Y-9608381D02*
X4599762Y-9570286D01*
X4599762Y-9570286D02*
X4599762Y-9522667D01*
X4599762Y-9522667D02*
X4609286Y-9484571D01*
X4609286Y-9484571D02*
X4618810Y-9465524D01*
X4618810Y-9465524D02*
X4628333Y-9456000D01*
X4628333Y-9456000D02*
X4647381Y-9446476D01*
X4799762Y-9646476D02*
X4799762Y-9513143D01*
X4799762Y-9532190D02*
X4809286Y-9522667D01*
X4809286Y-9522667D02*
X4828333Y-9513143D01*
X4828333Y-9513143D02*
X4856905Y-9513143D01*
X4856905Y-9513143D02*
X4875952Y-9522667D01*
X4875952Y-9522667D02*
X4885476Y-9541714D01*
X4885476Y-9541714D02*
X4885476Y-9646476D01*
X4885476Y-9541714D02*
X4895000Y-9522667D01*
X4895000Y-9522667D02*
X4914048Y-9513143D01*
X4914048Y-9513143D02*
X4942619Y-9513143D01*
X4942619Y-9513143D02*
X4961667Y-9522667D01*
X4961667Y-9522667D02*
X4971191Y-9541714D01*
X4971191Y-9541714D02*
X4971191Y-9646476D01*
X5066429Y-9646476D02*
X5066429Y-9513143D01*
X5066429Y-9532190D02*
X5075952Y-9522667D01*
X5075952Y-9522667D02*
X5095000Y-9513143D01*
X5095000Y-9513143D02*
X5123572Y-9513143D01*
X5123572Y-9513143D02*
X5142619Y-9522667D01*
X5142619Y-9522667D02*
X5152143Y-9541714D01*
X5152143Y-9541714D02*
X5152143Y-9646476D01*
X5152143Y-9541714D02*
X5161667Y-9522667D01*
X5161667Y-9522667D02*
X5180714Y-9513143D01*
X5180714Y-9513143D02*
X5209286Y-9513143D01*
X5209286Y-9513143D02*
X5228333Y-9522667D01*
X5228333Y-9522667D02*
X5237857Y-9541714D01*
X5237857Y-9541714D02*
X5237857Y-9646476D01*
X5595952Y-9436952D02*
X5424524Y-9694095D01*
X5820714Y-9446476D02*
X5839762Y-9446476D01*
X5839762Y-9446476D02*
X5858810Y-9456000D01*
X5858810Y-9456000D02*
X5868333Y-9465524D01*
X5868333Y-9465524D02*
X5877857Y-9484571D01*
X5877857Y-9484571D02*
X5887381Y-9522667D01*
X5887381Y-9522667D02*
X5887381Y-9570286D01*
X5887381Y-9570286D02*
X5877857Y-9608381D01*
X5877857Y-9608381D02*
X5868333Y-9627429D01*
X5868333Y-9627429D02*
X5858810Y-9636952D01*
X5858810Y-9636952D02*
X5839762Y-9646476D01*
X5839762Y-9646476D02*
X5820714Y-9646476D01*
X5820714Y-9646476D02*
X5801667Y-9636952D01*
X5801667Y-9636952D02*
X5792143Y-9627429D01*
X5792143Y-9627429D02*
X5782619Y-9608381D01*
X5782619Y-9608381D02*
X5773095Y-9570286D01*
X5773095Y-9570286D02*
X5773095Y-9522667D01*
X5773095Y-9522667D02*
X5782619Y-9484571D01*
X5782619Y-9484571D02*
X5792143Y-9465524D01*
X5792143Y-9465524D02*
X5801667Y-9456000D01*
X5801667Y-9456000D02*
X5820714Y-9446476D01*
X5973095Y-9627429D02*
X5982619Y-9636952D01*
X5982619Y-9636952D02*
X5973095Y-9646476D01*
X5973095Y-9646476D02*
X5963571Y-9636952D01*
X5963571Y-9636952D02*
X5973095Y-9627429D01*
X5973095Y-9627429D02*
X5973095Y-9646476D01*
X6106429Y-9446476D02*
X6125476Y-9446476D01*
X6125476Y-9446476D02*
X6144524Y-9456000D01*
X6144524Y-9456000D02*
X6154048Y-9465524D01*
X6154048Y-9465524D02*
X6163571Y-9484571D01*
X6163571Y-9484571D02*
X6173095Y-9522667D01*
X6173095Y-9522667D02*
X6173095Y-9570286D01*
X6173095Y-9570286D02*
X6163571Y-9608381D01*
X6163571Y-9608381D02*
X6154048Y-9627429D01*
X6154048Y-9627429D02*
X6144524Y-9636952D01*
X6144524Y-9636952D02*
X6125476Y-9646476D01*
X6125476Y-9646476D02*
X6106429Y-9646476D01*
X6106429Y-9646476D02*
X6087381Y-9636952D01*
X6087381Y-9636952D02*
X6077857Y-9627429D01*
X6077857Y-9627429D02*
X6068333Y-9608381D01*
X6068333Y-9608381D02*
X6058810Y-9570286D01*
X6058810Y-9570286D02*
X6058810Y-9522667D01*
X6058810Y-9522667D02*
X6068333Y-9484571D01*
X6068333Y-9484571D02*
X6077857Y-9465524D01*
X6077857Y-9465524D02*
X6087381Y-9456000D01*
X6087381Y-9456000D02*
X6106429Y-9446476D01*
X6239762Y-9446476D02*
X6363571Y-9446476D01*
X6363571Y-9446476D02*
X6296905Y-9522667D01*
X6296905Y-9522667D02*
X6325476Y-9522667D01*
X6325476Y-9522667D02*
X6344524Y-9532190D01*
X6344524Y-9532190D02*
X6354048Y-9541714D01*
X6354048Y-9541714D02*
X6363571Y-9560762D01*
X6363571Y-9560762D02*
X6363571Y-9608381D01*
X6363571Y-9608381D02*
X6354048Y-9627429D01*
X6354048Y-9627429D02*
X6344524Y-9636952D01*
X6344524Y-9636952D02*
X6325476Y-9646476D01*
X6325476Y-9646476D02*
X6268333Y-9646476D01*
X6268333Y-9646476D02*
X6249286Y-9636952D01*
X6249286Y-9636952D02*
X6239762Y-9627429D01*
X6458810Y-9646476D02*
X6496905Y-9646476D01*
X6496905Y-9646476D02*
X6515952Y-9636952D01*
X6515952Y-9636952D02*
X6525476Y-9627429D01*
X6525476Y-9627429D02*
X6544524Y-9598857D01*
X6544524Y-9598857D02*
X6554048Y-9560762D01*
X6554048Y-9560762D02*
X6554048Y-9484571D01*
X6554048Y-9484571D02*
X6544524Y-9465524D01*
X6544524Y-9465524D02*
X6535000Y-9456000D01*
X6535000Y-9456000D02*
X6515952Y-9446476D01*
X6515952Y-9446476D02*
X6477857Y-9446476D01*
X6477857Y-9446476D02*
X6458810Y-9456000D01*
X6458810Y-9456000D02*
X6449286Y-9465524D01*
X6449286Y-9465524D02*
X6439762Y-9484571D01*
X6439762Y-9484571D02*
X6439762Y-9532190D01*
X6439762Y-9532190D02*
X6449286Y-9551238D01*
X6449286Y-9551238D02*
X6458810Y-9560762D01*
X6458810Y-9560762D02*
X6477857Y-9570286D01*
X6477857Y-9570286D02*
X6515952Y-9570286D01*
X6515952Y-9570286D02*
X6535000Y-9560762D01*
X6535000Y-9560762D02*
X6544524Y-9551238D01*
X6544524Y-9551238D02*
X6554048Y-9532190D01*
X6725476Y-9513143D02*
X6725476Y-9646476D01*
X6677857Y-9436952D02*
X6630238Y-9579810D01*
X6630238Y-9579810D02*
X6754048Y-9579810D01*
X6820714Y-9446476D02*
X6820714Y-9484571D01*
X6896905Y-9446476D02*
X6896905Y-9484571D01*
X7159762Y-9722667D02*
X7150238Y-9713143D01*
X7150238Y-9713143D02*
X7131191Y-9684571D01*
X7131191Y-9684571D02*
X7121667Y-9665524D01*
X7121667Y-9665524D02*
X7112143Y-9636952D01*
X7112143Y-9636952D02*
X7102619Y-9589333D01*
X7102619Y-9589333D02*
X7102619Y-9551238D01*
X7102619Y-9551238D02*
X7112143Y-9503619D01*
X7112143Y-9503619D02*
X7121667Y-9475048D01*
X7121667Y-9475048D02*
X7131191Y-9456000D01*
X7131191Y-9456000D02*
X7150238Y-9427429D01*
X7150238Y-9427429D02*
X7159762Y-9417905D01*
X7340714Y-9646476D02*
X7226429Y-9646476D01*
X7283571Y-9646476D02*
X7283571Y-9446476D01*
X7283571Y-9446476D02*
X7264524Y-9475048D01*
X7264524Y-9475048D02*
X7245476Y-9494095D01*
X7245476Y-9494095D02*
X7226429Y-9503619D01*
X7407381Y-9446476D02*
X7531191Y-9446476D01*
X7531191Y-9446476D02*
X7464524Y-9522667D01*
X7464524Y-9522667D02*
X7493095Y-9522667D01*
X7493095Y-9522667D02*
X7512143Y-9532190D01*
X7512143Y-9532190D02*
X7521667Y-9541714D01*
X7521667Y-9541714D02*
X7531191Y-9560762D01*
X7531191Y-9560762D02*
X7531191Y-9608381D01*
X7531191Y-9608381D02*
X7521667Y-9627429D01*
X7521667Y-9627429D02*
X7512143Y-9636952D01*
X7512143Y-9636952D02*
X7493095Y-9646476D01*
X7493095Y-9646476D02*
X7435952Y-9646476D01*
X7435952Y-9646476D02*
X7416905Y-9636952D01*
X7416905Y-9636952D02*
X7407381Y-9627429D01*
X7736905Y-9646476D02*
X7736905Y-9446476D01*
X7822619Y-9646476D02*
X7822619Y-9541714D01*
X7822619Y-9541714D02*
X7813095Y-9522667D01*
X7813095Y-9522667D02*
X7794048Y-9513143D01*
X7794048Y-9513143D02*
X7765476Y-9513143D01*
X7765476Y-9513143D02*
X7746429Y-9522667D01*
X7746429Y-9522667D02*
X7736905Y-9532190D01*
X7946429Y-9646476D02*
X7927381Y-9636952D01*
X7927381Y-9636952D02*
X7917857Y-9627429D01*
X7917857Y-9627429D02*
X7908333Y-9608381D01*
X7908333Y-9608381D02*
X7908333Y-9551238D01*
X7908333Y-9551238D02*
X7917857Y-9532190D01*
X7917857Y-9532190D02*
X7927381Y-9522667D01*
X7927381Y-9522667D02*
X7946429Y-9513143D01*
X7946429Y-9513143D02*
X7975000Y-9513143D01*
X7975000Y-9513143D02*
X7994048Y-9522667D01*
X7994048Y-9522667D02*
X8003572Y-9532190D01*
X8003572Y-9532190D02*
X8013095Y-9551238D01*
X8013095Y-9551238D02*
X8013095Y-9608381D01*
X8013095Y-9608381D02*
X8003572Y-9627429D01*
X8003572Y-9627429D02*
X7994048Y-9636952D01*
X7994048Y-9636952D02*
X7975000Y-9646476D01*
X7975000Y-9646476D02*
X7946429Y-9646476D01*
X8127381Y-9646476D02*
X8108333Y-9636952D01*
X8108333Y-9636952D02*
X8098810Y-9617905D01*
X8098810Y-9617905D02*
X8098810Y-9446476D01*
X8279762Y-9636952D02*
X8260714Y-9646476D01*
X8260714Y-9646476D02*
X8222619Y-9646476D01*
X8222619Y-9646476D02*
X8203572Y-9636952D01*
X8203572Y-9636952D02*
X8194048Y-9617905D01*
X8194048Y-9617905D02*
X8194048Y-9541714D01*
X8194048Y-9541714D02*
X8203572Y-9522667D01*
X8203572Y-9522667D02*
X8222619Y-9513143D01*
X8222619Y-9513143D02*
X8260714Y-9513143D01*
X8260714Y-9513143D02*
X8279762Y-9522667D01*
X8279762Y-9522667D02*
X8289286Y-9541714D01*
X8289286Y-9541714D02*
X8289286Y-9560762D01*
X8289286Y-9560762D02*
X8194048Y-9579810D01*
X8365476Y-9636952D02*
X8384524Y-9646476D01*
X8384524Y-9646476D02*
X8422619Y-9646476D01*
X8422619Y-9646476D02*
X8441667Y-9636952D01*
X8441667Y-9636952D02*
X8451191Y-9617905D01*
X8451191Y-9617905D02*
X8451191Y-9608381D01*
X8451191Y-9608381D02*
X8441667Y-9589333D01*
X8441667Y-9589333D02*
X8422619Y-9579810D01*
X8422619Y-9579810D02*
X8394048Y-9579810D01*
X8394048Y-9579810D02*
X8375000Y-9570286D01*
X8375000Y-9570286D02*
X8365476Y-9551238D01*
X8365476Y-9551238D02*
X8365476Y-9541714D01*
X8365476Y-9541714D02*
X8375000Y-9522667D01*
X8375000Y-9522667D02*
X8394048Y-9513143D01*
X8394048Y-9513143D02*
X8422619Y-9513143D01*
X8422619Y-9513143D02*
X8441667Y-9522667D01*
X8517857Y-9722667D02*
X8527381Y-9713143D01*
X8527381Y-9713143D02*
X8546429Y-9684571D01*
X8546429Y-9684571D02*
X8555953Y-9665524D01*
X8555953Y-9665524D02*
X8565476Y-9636952D01*
X8565476Y-9636952D02*
X8575000Y-9589333D01*
X8575000Y-9589333D02*
X8575000Y-9551238D01*
X8575000Y-9551238D02*
X8565476Y-9503619D01*
X8565476Y-9503619D02*
X8555953Y-9475048D01*
X8555953Y-9475048D02*
X8546429Y-9456000D01*
X8546429Y-9456000D02*
X8527381Y-9427429D01*
X8527381Y-9427429D02*
X8517857Y-9417905D01*
D14*
X3678891Y-9875891D02*
X3678891Y-9798109D01*
X3601109Y-9798109D01*
X3601109Y-9875891D01*
X3678891Y-9875891D01*
D11*
X4047381Y-9910476D02*
X3933095Y-9910476D01*
X3990238Y-9910476D02*
X3990238Y-9710476D01*
X3990238Y-9710476D02*
X3971190Y-9739048D01*
X3971190Y-9739048D02*
X3952143Y-9758095D01*
X3952143Y-9758095D02*
X3933095Y-9767619D01*
X4133095Y-9891429D02*
X4142619Y-9900952D01*
X4142619Y-9900952D02*
X4133095Y-9910476D01*
X4133095Y-9910476D02*
X4123571Y-9900952D01*
X4123571Y-9900952D02*
X4133095Y-9891429D01*
X4133095Y-9891429D02*
X4133095Y-9910476D01*
X4333095Y-9910476D02*
X4218810Y-9910476D01*
X4275952Y-9910476D02*
X4275952Y-9710476D01*
X4275952Y-9710476D02*
X4256905Y-9739048D01*
X4256905Y-9739048D02*
X4237857Y-9758095D01*
X4237857Y-9758095D02*
X4218810Y-9767619D01*
X4456905Y-9710476D02*
X4475952Y-9710476D01*
X4475952Y-9710476D02*
X4495000Y-9720000D01*
X4495000Y-9720000D02*
X4504524Y-9729524D01*
X4504524Y-9729524D02*
X4514048Y-9748571D01*
X4514048Y-9748571D02*
X4523571Y-9786667D01*
X4523571Y-9786667D02*
X4523571Y-9834286D01*
X4523571Y-9834286D02*
X4514048Y-9872381D01*
X4514048Y-9872381D02*
X4504524Y-9891429D01*
X4504524Y-9891429D02*
X4495000Y-9900952D01*
X4495000Y-9900952D02*
X4475952Y-9910476D01*
X4475952Y-9910476D02*
X4456905Y-9910476D01*
X4456905Y-9910476D02*
X4437857Y-9900952D01*
X4437857Y-9900952D02*
X4428333Y-9891429D01*
X4428333Y-9891429D02*
X4418810Y-9872381D01*
X4418810Y-9872381D02*
X4409286Y-9834286D01*
X4409286Y-9834286D02*
X4409286Y-9786667D01*
X4409286Y-9786667D02*
X4418810Y-9748571D01*
X4418810Y-9748571D02*
X4428333Y-9729524D01*
X4428333Y-9729524D02*
X4437857Y-9720000D01*
X4437857Y-9720000D02*
X4456905Y-9710476D01*
X4647381Y-9710476D02*
X4666429Y-9710476D01*
X4666429Y-9710476D02*
X4685476Y-9720000D01*
X4685476Y-9720000D02*
X4695000Y-9729524D01*
X4695000Y-9729524D02*
X4704524Y-9748571D01*
X4704524Y-9748571D02*
X4714048Y-9786667D01*
X4714048Y-9786667D02*
X4714048Y-9834286D01*
X4714048Y-9834286D02*
X4704524Y-9872381D01*
X4704524Y-9872381D02*
X4695000Y-9891429D01*
X4695000Y-9891429D02*
X4685476Y-9900952D01*
X4685476Y-9900952D02*
X4666429Y-9910476D01*
X4666429Y-9910476D02*
X4647381Y-9910476D01*
X4647381Y-9910476D02*
X4628333Y-9900952D01*
X4628333Y-9900952D02*
X4618810Y-9891429D01*
X4618810Y-9891429D02*
X4609286Y-9872381D01*
X4609286Y-9872381D02*
X4599762Y-9834286D01*
X4599762Y-9834286D02*
X4599762Y-9786667D01*
X4599762Y-9786667D02*
X4609286Y-9748571D01*
X4609286Y-9748571D02*
X4618810Y-9729524D01*
X4618810Y-9729524D02*
X4628333Y-9720000D01*
X4628333Y-9720000D02*
X4647381Y-9710476D01*
X4799762Y-9910476D02*
X4799762Y-9777143D01*
X4799762Y-9796190D02*
X4809286Y-9786667D01*
X4809286Y-9786667D02*
X4828333Y-9777143D01*
X4828333Y-9777143D02*
X4856905Y-9777143D01*
X4856905Y-9777143D02*
X4875952Y-9786667D01*
X4875952Y-9786667D02*
X4885476Y-9805714D01*
X4885476Y-9805714D02*
X4885476Y-9910476D01*
X4885476Y-9805714D02*
X4895000Y-9786667D01*
X4895000Y-9786667D02*
X4914048Y-9777143D01*
X4914048Y-9777143D02*
X4942619Y-9777143D01*
X4942619Y-9777143D02*
X4961667Y-9786667D01*
X4961667Y-9786667D02*
X4971191Y-9805714D01*
X4971191Y-9805714D02*
X4971191Y-9910476D01*
X5066429Y-9910476D02*
X5066429Y-9777143D01*
X5066429Y-9796190D02*
X5075952Y-9786667D01*
X5075952Y-9786667D02*
X5095000Y-9777143D01*
X5095000Y-9777143D02*
X5123572Y-9777143D01*
X5123572Y-9777143D02*
X5142619Y-9786667D01*
X5142619Y-9786667D02*
X5152143Y-9805714D01*
X5152143Y-9805714D02*
X5152143Y-9910476D01*
X5152143Y-9805714D02*
X5161667Y-9786667D01*
X5161667Y-9786667D02*
X5180714Y-9777143D01*
X5180714Y-9777143D02*
X5209286Y-9777143D01*
X5209286Y-9777143D02*
X5228333Y-9786667D01*
X5228333Y-9786667D02*
X5237857Y-9805714D01*
X5237857Y-9805714D02*
X5237857Y-9910476D01*
X5595952Y-9700952D02*
X5424524Y-9958095D01*
X5820714Y-9710476D02*
X5839762Y-9710476D01*
X5839762Y-9710476D02*
X5858810Y-9720000D01*
X5858810Y-9720000D02*
X5868333Y-9729524D01*
X5868333Y-9729524D02*
X5877857Y-9748571D01*
X5877857Y-9748571D02*
X5887381Y-9786667D01*
X5887381Y-9786667D02*
X5887381Y-9834286D01*
X5887381Y-9834286D02*
X5877857Y-9872381D01*
X5877857Y-9872381D02*
X5868333Y-9891429D01*
X5868333Y-9891429D02*
X5858810Y-9900952D01*
X5858810Y-9900952D02*
X5839762Y-9910476D01*
X5839762Y-9910476D02*
X5820714Y-9910476D01*
X5820714Y-9910476D02*
X5801667Y-9900952D01*
X5801667Y-9900952D02*
X5792143Y-9891429D01*
X5792143Y-9891429D02*
X5782619Y-9872381D01*
X5782619Y-9872381D02*
X5773095Y-9834286D01*
X5773095Y-9834286D02*
X5773095Y-9786667D01*
X5773095Y-9786667D02*
X5782619Y-9748571D01*
X5782619Y-9748571D02*
X5792143Y-9729524D01*
X5792143Y-9729524D02*
X5801667Y-9720000D01*
X5801667Y-9720000D02*
X5820714Y-9710476D01*
X5973095Y-9891429D02*
X5982619Y-9900952D01*
X5982619Y-9900952D02*
X5973095Y-9910476D01*
X5973095Y-9910476D02*
X5963571Y-9900952D01*
X5963571Y-9900952D02*
X5973095Y-9891429D01*
X5973095Y-9891429D02*
X5973095Y-9910476D01*
X6106429Y-9710476D02*
X6125476Y-9710476D01*
X6125476Y-9710476D02*
X6144524Y-9720000D01*
X6144524Y-9720000D02*
X6154048Y-9729524D01*
X6154048Y-9729524D02*
X6163571Y-9748571D01*
X6163571Y-9748571D02*
X6173095Y-9786667D01*
X6173095Y-9786667D02*
X6173095Y-9834286D01*
X6173095Y-9834286D02*
X6163571Y-9872381D01*
X6163571Y-9872381D02*
X6154048Y-9891429D01*
X6154048Y-9891429D02*
X6144524Y-9900952D01*
X6144524Y-9900952D02*
X6125476Y-9910476D01*
X6125476Y-9910476D02*
X6106429Y-9910476D01*
X6106429Y-9910476D02*
X6087381Y-9900952D01*
X6087381Y-9900952D02*
X6077857Y-9891429D01*
X6077857Y-9891429D02*
X6068333Y-9872381D01*
X6068333Y-9872381D02*
X6058810Y-9834286D01*
X6058810Y-9834286D02*
X6058810Y-9786667D01*
X6058810Y-9786667D02*
X6068333Y-9748571D01*
X6068333Y-9748571D02*
X6077857Y-9729524D01*
X6077857Y-9729524D02*
X6087381Y-9720000D01*
X6087381Y-9720000D02*
X6106429Y-9710476D01*
X6344524Y-9777143D02*
X6344524Y-9910476D01*
X6296905Y-9700952D02*
X6249286Y-9843810D01*
X6249286Y-9843810D02*
X6373095Y-9843810D01*
X6430238Y-9710476D02*
X6554048Y-9710476D01*
X6554048Y-9710476D02*
X6487381Y-9786667D01*
X6487381Y-9786667D02*
X6515952Y-9786667D01*
X6515952Y-9786667D02*
X6535000Y-9796190D01*
X6535000Y-9796190D02*
X6544524Y-9805714D01*
X6544524Y-9805714D02*
X6554048Y-9824762D01*
X6554048Y-9824762D02*
X6554048Y-9872381D01*
X6554048Y-9872381D02*
X6544524Y-9891429D01*
X6544524Y-9891429D02*
X6535000Y-9900952D01*
X6535000Y-9900952D02*
X6515952Y-9910476D01*
X6515952Y-9910476D02*
X6458810Y-9910476D01*
X6458810Y-9910476D02*
X6439762Y-9900952D01*
X6439762Y-9900952D02*
X6430238Y-9891429D01*
X6620714Y-9710476D02*
X6744524Y-9710476D01*
X6744524Y-9710476D02*
X6677857Y-9786667D01*
X6677857Y-9786667D02*
X6706429Y-9786667D01*
X6706429Y-9786667D02*
X6725476Y-9796190D01*
X6725476Y-9796190D02*
X6735000Y-9805714D01*
X6735000Y-9805714D02*
X6744524Y-9824762D01*
X6744524Y-9824762D02*
X6744524Y-9872381D01*
X6744524Y-9872381D02*
X6735000Y-9891429D01*
X6735000Y-9891429D02*
X6725476Y-9900952D01*
X6725476Y-9900952D02*
X6706429Y-9910476D01*
X6706429Y-9910476D02*
X6649286Y-9910476D01*
X6649286Y-9910476D02*
X6630238Y-9900952D01*
X6630238Y-9900952D02*
X6620714Y-9891429D01*
X6820714Y-9710476D02*
X6820714Y-9748571D01*
X6896905Y-9710476D02*
X6896905Y-9748571D01*
X7159762Y-9986667D02*
X7150238Y-9977143D01*
X7150238Y-9977143D02*
X7131191Y-9948571D01*
X7131191Y-9948571D02*
X7121667Y-9929524D01*
X7121667Y-9929524D02*
X7112143Y-9900952D01*
X7112143Y-9900952D02*
X7102619Y-9853333D01*
X7102619Y-9853333D02*
X7102619Y-9815238D01*
X7102619Y-9815238D02*
X7112143Y-9767619D01*
X7112143Y-9767619D02*
X7121667Y-9739048D01*
X7121667Y-9739048D02*
X7131191Y-9720000D01*
X7131191Y-9720000D02*
X7150238Y-9691429D01*
X7150238Y-9691429D02*
X7159762Y-9681905D01*
X7321667Y-9777143D02*
X7321667Y-9910476D01*
X7274048Y-9700952D02*
X7226429Y-9843810D01*
X7226429Y-9843810D02*
X7350238Y-9843810D01*
X7546429Y-9910476D02*
X7546429Y-9710476D01*
X7632143Y-9910476D02*
X7632143Y-9805714D01*
X7632143Y-9805714D02*
X7622619Y-9786667D01*
X7622619Y-9786667D02*
X7603572Y-9777143D01*
X7603572Y-9777143D02*
X7575000Y-9777143D01*
X7575000Y-9777143D02*
X7555952Y-9786667D01*
X7555952Y-9786667D02*
X7546429Y-9796190D01*
X7755952Y-9910476D02*
X7736905Y-9900952D01*
X7736905Y-9900952D02*
X7727381Y-9891429D01*
X7727381Y-9891429D02*
X7717857Y-9872381D01*
X7717857Y-9872381D02*
X7717857Y-9815238D01*
X7717857Y-9815238D02*
X7727381Y-9796190D01*
X7727381Y-9796190D02*
X7736905Y-9786667D01*
X7736905Y-9786667D02*
X7755952Y-9777143D01*
X7755952Y-9777143D02*
X7784524Y-9777143D01*
X7784524Y-9777143D02*
X7803572Y-9786667D01*
X7803572Y-9786667D02*
X7813095Y-9796190D01*
X7813095Y-9796190D02*
X7822619Y-9815238D01*
X7822619Y-9815238D02*
X7822619Y-9872381D01*
X7822619Y-9872381D02*
X7813095Y-9891429D01*
X7813095Y-9891429D02*
X7803572Y-9900952D01*
X7803572Y-9900952D02*
X7784524Y-9910476D01*
X7784524Y-9910476D02*
X7755952Y-9910476D01*
X7936905Y-9910476D02*
X7917857Y-9900952D01*
X7917857Y-9900952D02*
X7908333Y-9881905D01*
X7908333Y-9881905D02*
X7908333Y-9710476D01*
X8089286Y-9900952D02*
X8070238Y-9910476D01*
X8070238Y-9910476D02*
X8032143Y-9910476D01*
X8032143Y-9910476D02*
X8013095Y-9900952D01*
X8013095Y-9900952D02*
X8003572Y-9881905D01*
X8003572Y-9881905D02*
X8003572Y-9805714D01*
X8003572Y-9805714D02*
X8013095Y-9786667D01*
X8013095Y-9786667D02*
X8032143Y-9777143D01*
X8032143Y-9777143D02*
X8070238Y-9777143D01*
X8070238Y-9777143D02*
X8089286Y-9786667D01*
X8089286Y-9786667D02*
X8098810Y-9805714D01*
X8098810Y-9805714D02*
X8098810Y-9824762D01*
X8098810Y-9824762D02*
X8003572Y-9843810D01*
X8175000Y-9900952D02*
X8194048Y-9910476D01*
X8194048Y-9910476D02*
X8232143Y-9910476D01*
X8232143Y-9910476D02*
X8251191Y-9900952D01*
X8251191Y-9900952D02*
X8260714Y-9881905D01*
X8260714Y-9881905D02*
X8260714Y-9872381D01*
X8260714Y-9872381D02*
X8251191Y-9853333D01*
X8251191Y-9853333D02*
X8232143Y-9843810D01*
X8232143Y-9843810D02*
X8203572Y-9843810D01*
X8203572Y-9843810D02*
X8184524Y-9834286D01*
X8184524Y-9834286D02*
X8175000Y-9815238D01*
X8175000Y-9815238D02*
X8175000Y-9805714D01*
X8175000Y-9805714D02*
X8184524Y-9786667D01*
X8184524Y-9786667D02*
X8203572Y-9777143D01*
X8203572Y-9777143D02*
X8232143Y-9777143D01*
X8232143Y-9777143D02*
X8251191Y-9786667D01*
X8327381Y-9986667D02*
X8336905Y-9977143D01*
X8336905Y-9977143D02*
X8355953Y-9948571D01*
X8355953Y-9948571D02*
X8365476Y-9929524D01*
X8365476Y-9929524D02*
X8375000Y-9900952D01*
X8375000Y-9900952D02*
X8384524Y-9853333D01*
X8384524Y-9853333D02*
X8384524Y-9815238D01*
X8384524Y-9815238D02*
X8375000Y-9767619D01*
X8375000Y-9767619D02*
X8365476Y-9739048D01*
X8365476Y-9739048D02*
X8355953Y-9720000D01*
X8355953Y-9720000D02*
X8336905Y-9691429D01*
X8336905Y-9691429D02*
X8327381Y-9681905D01*
M02*
