%TF.GenerationSoftware,KiCad,Pcbnew,8.0.0*%
%TF.CreationDate,2024-03-12T11:33:37+03:00*%
%TF.ProjectId,germanium-amp,6765726d-616e-4697-956d-2d616d702e6b,rev?*%
%TF.SameCoordinates,Original*%
%TF.FileFunction,Copper,L1,Top*%
%TF.FilePolarity,Positive*%
%FSLAX46Y46*%
G04 Gerber Fmt 4.6, Leading zero omitted, Abs format (unit mm)*
G04 Created by KiCad (PCBNEW 8.0.0) date 2024-03-12 11:33:37*
%MOMM*%
%LPD*%
G01*
G04 APERTURE LIST*
%TA.AperFunction,ComponentPad*%
%ADD10C,1.600000*%
%TD*%
%TA.AperFunction,ComponentPad*%
%ADD11O,1.600000X1.600000*%
%TD*%
%TA.AperFunction,ComponentPad*%
%ADD12C,1.440000*%
%TD*%
%TA.AperFunction,ComponentPad*%
%ADD13R,2.000000X2.000000*%
%TD*%
%TA.AperFunction,ComponentPad*%
%ADD14C,2.000000*%
%TD*%
%TA.AperFunction,ComponentPad*%
%ADD15O,1.200000X1.200000*%
%TD*%
%TA.AperFunction,ComponentPad*%
%ADD16R,1.700000X1.700000*%
%TD*%
%TA.AperFunction,ComponentPad*%
%ADD17O,1.700000X1.700000*%
%TD*%
%TA.AperFunction,ComponentPad*%
%ADD18R,2.200000X2.200000*%
%TD*%
%TA.AperFunction,ComponentPad*%
%ADD19O,2.200000X2.200000*%
%TD*%
%TA.AperFunction,ComponentPad*%
%ADD20R,1.600000X1.600000*%
%TD*%
%TA.AperFunction,Conductor*%
%ADD21C,0.400000*%
%TD*%
G04 APERTURE END LIST*
D10*
%TO.P,C1,1*%
%TO.N,Net-(J4-Pin_1)*%
X77950000Y-46200000D03*
D11*
%TO.P,C1,2*%
%TO.N,Net-(Q1-B)*%
X85450000Y-46200000D03*
%TD*%
D12*
%TO.P,UIn1,1,1*%
%TO.N,-12V*%
X49000000Y-43950000D03*
%TO.P,UIn1,2,2*%
%TO.N,Net-(Q1-B)*%
X49000000Y-46490000D03*
%TO.P,UIn1,3,3*%
X49000000Y-49030000D03*
%TD*%
D13*
%TO.P,C2,1*%
%TO.N,Out -*%
X92200000Y-46000000D03*
D14*
%TO.P,C2,2*%
%TO.N,-12V*%
X96000000Y-46000000D03*
%TD*%
D15*
%TO.P,Q3,1,E*%
%TO.N,Uh2*%
X103960000Y-46900000D03*
%TO.P,Q3,2,C*%
%TO.N,-12V*%
X106500000Y-48500000D03*
%TO.P,Q3,3,B*%
%TO.N,Net-(D1-K)*%
X109040000Y-46900000D03*
%TD*%
D10*
%TO.P,R4,1*%
%TO.N,Net-(Q2-B)*%
X57420000Y-58000000D03*
D11*
%TO.P,R4,2*%
%TO.N,-12V*%
X67580000Y-58000000D03*
%TD*%
D12*
%TO.P,Uout1,1,1*%
%TO.N,Net-(D1-K)*%
X49000000Y-56950000D03*
%TO.P,Uout1,2,2*%
%TO.N,Net-(R6-Pad2)*%
X49000000Y-59490000D03*
%TO.P,Uout1,3,3*%
X49000000Y-62030000D03*
%TD*%
D16*
%TO.P,J1,1,Pin_1*%
%TO.N,Out -*%
X110025000Y-57460000D03*
D17*
%TO.P,J1,2,Pin_2*%
%TO.N,Out +*%
X110025000Y-60000000D03*
%TD*%
D10*
%TO.P,R6,1*%
%TO.N,Net-(C4-Pad1)*%
X71740000Y-55500000D03*
D11*
%TO.P,R6,2*%
%TO.N,Net-(R6-Pad2)*%
X81900000Y-55500000D03*
%TD*%
D10*
%TO.P,R3,1*%
%TO.N,Uh1*%
X57420000Y-54500000D03*
D11*
%TO.P,R3,2*%
%TO.N,-12V*%
X67580000Y-54500000D03*
%TD*%
D18*
%TO.P,D2,1,A*%
%TO.N,Net-(D2-A)*%
X86500000Y-65380000D03*
D19*
%TO.P,D2,2,K*%
%TO.N,Net-(D1-A)*%
X86500000Y-55220000D03*
%TD*%
D15*
%TO.P,Q2,1,C*%
%TO.N,Net-(D1-K)*%
X59920000Y-46500000D03*
%TO.P,Q2,2,B*%
%TO.N,Net-(Q2-B)*%
X62460000Y-44600000D03*
%TO.P,Q2,3,E*%
%TO.N,Net-(Q2-E)*%
X65000000Y-46500000D03*
%TD*%
%TO.P,Q4,1,E*%
%TO.N,Uh2*%
X103960000Y-69900000D03*
%TO.P,Q4,2,C*%
%TO.N,Out -*%
X106500000Y-71500000D03*
%TO.P,Q4,3,B*%
%TO.N,Net-(D2-A)*%
X109040000Y-69900000D03*
%TD*%
D20*
%TO.P,C4,1*%
%TO.N,Net-(C4-Pad1)*%
X94294900Y-70500000D03*
D10*
%TO.P,C4,2*%
%TO.N,-12V*%
X96794900Y-70500000D03*
%TD*%
D16*
%TO.P,J2,1,Pin_1*%
%TO.N,Out -*%
X53475000Y-73525000D03*
D17*
%TO.P,J2,2,Pin_2*%
%TO.N,Uh2*%
X53475000Y-70985000D03*
%TO.P,J2,3,Pin_3*%
%TO.N,Uh1*%
X53475000Y-68445000D03*
%TD*%
D10*
%TO.P,R8,1*%
%TO.N,Out +*%
X71820000Y-63500000D03*
D11*
%TO.P,R8,2*%
%TO.N,Net-(D2-A)*%
X81980000Y-63500000D03*
%TD*%
D16*
%TO.P,J4,1,Pin_1*%
%TO.N,Net-(J4-Pin_1)*%
X72500000Y-43660000D03*
D17*
%TO.P,J4,2,Pin_2*%
%TO.N,Out -*%
X72500000Y-46200000D03*
%TD*%
D10*
%TO.P,R7,1*%
%TO.N,Net-(Q2-E)*%
X71740000Y-59500000D03*
D11*
%TO.P,R7,2*%
%TO.N,-12V*%
X81900000Y-59500000D03*
%TD*%
D13*
%TO.P,C5,1*%
%TO.N,Out +*%
X97000000Y-58400000D03*
D14*
%TO.P,C5,2*%
%TO.N,Uh2*%
X100800000Y-58400000D03*
%TD*%
D15*
%TO.P,Q1,1,E*%
%TO.N,Net-(Q1-E)*%
X59920000Y-70000000D03*
%TO.P,Q1,2,C*%
%TO.N,Uh1*%
X62460000Y-70000000D03*
%TO.P,Q1,3,B*%
%TO.N,Net-(Q1-B)*%
X65000000Y-70000000D03*
%TD*%
D18*
%TO.P,D1,1,A*%
%TO.N,Net-(D1-A)*%
X90700000Y-55240000D03*
D19*
%TO.P,D1,2,K*%
%TO.N,Net-(D1-K)*%
X90700000Y-65400000D03*
%TD*%
D10*
%TO.P,R5,1*%
%TO.N,Net-(C4-Pad1)*%
X57420000Y-61500000D03*
D11*
%TO.P,R5,2*%
%TO.N,Net-(Q2-B)*%
X67580000Y-61500000D03*
%TD*%
D16*
%TO.P,J3,1,Pin_1*%
%TO.N,-12V*%
X48000000Y-70460000D03*
D17*
%TO.P,J3,2,Pin_2*%
%TO.N,Out -*%
X48000000Y-73000000D03*
%TD*%
D10*
%TO.P,R2,1*%
%TO.N,Out -*%
X82000000Y-71500000D03*
D11*
%TO.P,R2,2*%
%TO.N,Net-(Q1-E)*%
X71840000Y-71500000D03*
%TD*%
D20*
%TO.P,C3,1*%
%TO.N,Uh1*%
X86294900Y-70500000D03*
D10*
%TO.P,C3,2*%
%TO.N,Net-(Q2-B)*%
X88794900Y-70500000D03*
%TD*%
%TO.P,R9,1*%
%TO.N,Out +*%
X71840000Y-67500000D03*
D11*
%TO.P,R9,2*%
%TO.N,Net-(Q1-E)*%
X82000000Y-67500000D03*
%TD*%
D21*
%TO.N,Out -*%
X50148131Y-73525000D02*
X53475000Y-73525000D01*
X48880668Y-73000000D02*
X48000000Y-73000000D01*
X106679070Y-55500000D02*
X101753963Y-55500000D01*
X87383886Y-44000000D02*
X77507534Y-44000000D01*
X109045000Y-56480000D02*
X110025000Y-57460000D01*
X89798100Y-45000000D02*
X90302453Y-45504353D01*
X74851899Y-45099999D02*
X74194513Y-45757386D01*
X73125950Y-46200000D02*
X72500000Y-46200000D01*
X91499050Y-46000000D02*
X92200000Y-46000000D01*
X92200000Y-47100000D02*
X92200000Y-46000000D01*
X92977817Y-48977817D02*
X97906207Y-53906207D01*
X89798100Y-45000000D02*
G75*
G03*
X87383886Y-44000006I-2414200J-2414200D01*
G01*
X109044999Y-56480001D02*
G75*
G03*
X106679070Y-55500013I-2365899J-2365899D01*
G01*
X74194512Y-45757385D02*
G75*
G02*
X73125950Y-46200027I-1068612J1068585D01*
G01*
X97906208Y-53906206D02*
G75*
G03*
X101753963Y-55500010I3847792J3847806D01*
G01*
X90302454Y-45504352D02*
G75*
G03*
X91499050Y-46000047I1196646J1196552D01*
G01*
X49514400Y-73262500D02*
G75*
G03*
X48880668Y-73000013I-633700J-633700D01*
G01*
X77507534Y-44000000D02*
G75*
G03*
X74851890Y-45099990I-34J-3755600D01*
G01*
X92200000Y-47100000D02*
G75*
G03*
X92977824Y-48977810I2655600J0D01*
G01*
X49514400Y-73262500D02*
G75*
G03*
X50148131Y-73524987I633700J633700D01*
G01*
%TO.N,-12V*%
X100267766Y-48500000D02*
X106500000Y-48500000D01*
X72564751Y-61500000D02*
X77283886Y-61500000D01*
X67785060Y-58785060D02*
X69040000Y-60040000D01*
X80273164Y-59924935D02*
X79698100Y-60500000D01*
X81299050Y-59500000D02*
X81900000Y-59500000D01*
X97250000Y-47250000D02*
X96000000Y-46000000D01*
X67580000Y-58290000D02*
X67580000Y-58000000D01*
X67580000Y-58290000D02*
G75*
G03*
X67785065Y-58785055I700100J0D01*
G01*
X79698100Y-60500000D02*
G75*
G02*
X77283886Y-61499994I-2414200J2414200D01*
G01*
X81299050Y-59500000D02*
G75*
G03*
X80273144Y-59924915I-50J-1450800D01*
G01*
X97250000Y-47250000D02*
G75*
G03*
X100267766Y-48500013I3017800J3017800D01*
G01*
X69040001Y-60039999D02*
G75*
G03*
X72564751Y-61500019I3524799J3524799D01*
G01*
%TO.N,Uh1*%
X62209550Y-70000000D02*
X61708650Y-70000000D01*
X83734239Y-69000000D02*
X70207106Y-69000000D01*
X67792893Y-68000000D02*
X65914213Y-68000000D01*
X56186800Y-56605204D02*
X56186800Y-66029102D01*
X54123300Y-68445000D02*
X53475000Y-68445000D01*
X85544900Y-69750000D02*
X86294900Y-70500000D01*
X56803400Y-55116600D02*
X57420000Y-54500000D01*
X62480000Y-70000000D02*
X62440000Y-70000000D01*
X55479199Y-67737399D02*
X55230017Y-67986582D01*
X62209550Y-70000000D02*
X62440000Y-70000000D01*
X62514142Y-69985857D02*
X63500000Y-69000000D01*
X61708650Y-70000000D02*
X61708600Y-70000000D01*
X61280969Y-69822869D02*
X59301461Y-67843361D01*
X57187497Y-67029800D02*
X57337350Y-67029800D01*
X61280969Y-69822869D02*
G75*
G03*
X61708600Y-69999988I427631J427669D01*
G01*
X57187497Y-67029800D02*
G75*
G03*
X55479201Y-67737401I3J-2415900D01*
G01*
X55230017Y-67986582D02*
G75*
G02*
X54123300Y-68445009I-1106717J1106682D01*
G01*
X65914213Y-68000000D02*
G75*
G03*
X63499996Y-68999996I-13J-3414200D01*
G01*
X69000000Y-68500000D02*
G75*
G03*
X67792893Y-68000003I-1207100J-1207100D01*
G01*
X85544900Y-69750000D02*
G75*
G03*
X83734239Y-68999984I-1810700J-1810700D01*
G01*
X59301460Y-67843362D02*
G75*
G03*
X57337350Y-67029844I-1964060J-1964138D01*
G01*
X56186800Y-66029102D02*
G75*
G03*
X57187497Y-67029800I1000700J2D01*
G01*
X62514142Y-69985857D02*
G75*
G02*
X62480000Y-69999994I-34142J34157D01*
G01*
X69000000Y-68500000D02*
G75*
G03*
X70207106Y-68999997I1207100J1207100D01*
G01*
X55479199Y-67737399D02*
G75*
G03*
X56186799Y-66029102I-1708299J1708299D01*
G01*
X56803400Y-55116600D02*
G75*
G03*
X56186802Y-56605204I1488600J-1488600D01*
G01*
%TO.N,Net-(Q2-B)*%
X85888692Y-67593792D02*
X88794900Y-70500000D01*
X67540000Y-61540000D02*
X67580000Y-61500000D01*
X67500000Y-61636568D02*
X67500000Y-64000001D01*
X69499998Y-66000000D02*
X82040936Y-66000000D01*
X85888691Y-67593793D02*
G75*
G03*
X82040936Y-65999990I-3847791J-3847807D01*
G01*
X67500000Y-64000001D02*
G75*
G03*
X69499998Y-66000000I2000000J1D01*
G01*
X67540000Y-61540000D02*
G75*
G03*
X67499987Y-61636568I96600J-96600D01*
G01*
%TO.N,Net-(C4-Pad1)*%
X58960000Y-61500000D02*
X57420000Y-61500000D01*
X71240000Y-56000000D02*
X71740000Y-55500000D01*
X63906206Y-58093792D02*
X61588944Y-60411055D01*
X70032893Y-56500000D02*
X67753963Y-56500000D01*
X71240000Y-56000000D02*
G75*
G02*
X70032893Y-56499997I-1207100J1207100D01*
G01*
X67753963Y-56500000D02*
G75*
G03*
X63906215Y-58093801I37J-5441600D01*
G01*
X61588944Y-60411055D02*
G75*
G02*
X58960000Y-61499996I-2628944J2628955D01*
G01*
%TO.N,Out +*%
X108330486Y-60442613D02*
X108273100Y-60500000D01*
X97350500Y-58400000D02*
X97000000Y-58400000D01*
X72570000Y-64250000D02*
X71820000Y-63500000D01*
X84499999Y-63999999D02*
X84529107Y-63970892D01*
X88951500Y-64204193D02*
X88951500Y-66822230D01*
X97701000Y-60707106D02*
X97701000Y-59292893D01*
X99408106Y-61000000D02*
X107065993Y-61000000D01*
X97701000Y-59292893D02*
X97701000Y-58750500D01*
X97701000Y-61149500D02*
X97701000Y-60707106D01*
X87747306Y-63000000D02*
X86873050Y-63000000D01*
X82085786Y-65000000D02*
X74380660Y-65000000D01*
X109399050Y-60000000D02*
X110025000Y-60000000D01*
X96888180Y-63111819D02*
X93614213Y-66385786D01*
X90924264Y-67500000D02*
X89629269Y-67500000D01*
X93614213Y-66385786D02*
G75*
G02*
X90924264Y-67499963I-2689913J2689986D01*
G01*
X72570000Y-64250000D02*
G75*
G03*
X74380660Y-65000016I1810700J1810700D01*
G01*
X97701000Y-59292893D02*
G75*
G03*
X98200998Y-60500002I1707100J-7D01*
G01*
X84499998Y-63999998D02*
G75*
G02*
X82085786Y-64999992I-2414198J2414198D01*
G01*
X98201000Y-60500000D02*
G75*
G03*
X97701017Y-60707106I-207100J-207100D01*
G01*
X109399050Y-60000000D02*
G75*
G03*
X108330457Y-60442584I-50J-1511200D01*
G01*
X97701000Y-61149500D02*
G75*
G02*
X96888173Y-63111812I-2775100J0D01*
G01*
X108273100Y-60500000D02*
G75*
G02*
X107065993Y-60999997I-1207100J1207100D01*
G01*
X86873050Y-63000000D02*
G75*
G03*
X84529090Y-63970875I-50J-3314800D01*
G01*
X89150015Y-67301485D02*
G75*
G03*
X89629269Y-67500012I479285J479285D01*
G01*
X98201000Y-60500000D02*
G75*
G03*
X99408106Y-60999997I1207100J1207100D01*
G01*
X88951500Y-66822230D02*
G75*
G03*
X89150023Y-67301477I677800J30D01*
G01*
X88598799Y-63352701D02*
G75*
G03*
X87747306Y-62999998I-851499J-851499D01*
G01*
X88598799Y-63352701D02*
G75*
G02*
X88951502Y-64204193I-851499J-851499D01*
G01*
X97701000Y-58750500D02*
G75*
G03*
X97350500Y-58400000I-350500J0D01*
G01*
%TO.N,Uh2*%
X101658099Y-71199999D02*
X102603874Y-70254225D01*
X65442186Y-72000000D02*
X56459613Y-72000000D01*
X81232233Y-70000000D02*
X70270613Y-70000000D01*
X103459050Y-69900000D02*
X103960000Y-69900000D01*
X54100950Y-70985000D02*
X53475000Y-70985000D01*
X98519622Y-72500000D02*
X87267766Y-72500000D01*
X55169513Y-71427613D02*
X55234400Y-71492500D01*
X70270613Y-70000000D02*
G75*
G03*
X67856396Y-70999996I-13J-3414200D01*
G01*
X55234400Y-71492500D02*
G75*
G03*
X56459613Y-71999994I1225200J1225200D01*
G01*
X103459050Y-69900000D02*
G75*
G03*
X102603850Y-70254201I-50J-1209400D01*
G01*
X67856400Y-71000000D02*
G75*
G02*
X65442186Y-71999994I-2414200J2414200D01*
G01*
X101658098Y-71199998D02*
G75*
G02*
X98519622Y-72500007I-3138498J3138498D01*
G01*
X84250000Y-71250000D02*
G75*
G03*
X81232233Y-69999987I-3017800J-3017800D01*
G01*
X84250000Y-71250000D02*
G75*
G03*
X87267766Y-72500013I3017800J3017800D01*
G01*
X55169512Y-71427614D02*
G75*
G03*
X54100950Y-70985043I-1068512J-1068586D01*
G01*
%TO.N,Net-(D1-K)*%
X85414213Y-57914213D02*
X89922182Y-62422182D01*
X59959550Y-47040450D02*
X59596194Y-46677094D01*
X62519369Y-51500000D02*
X61480630Y-51500000D01*
X60898250Y-50398250D02*
X61632750Y-51132750D01*
X60500000Y-48345211D02*
X60500000Y-49458709D01*
X62519369Y-51500000D02*
X82292893Y-51500000D01*
X49275000Y-56950000D02*
X49000000Y-56950000D01*
X60898250Y-50398250D02*
X60882750Y-50382750D01*
X57253963Y-51500000D02*
X61480630Y-51500000D01*
X90700000Y-64300000D02*
X90700000Y-65400000D01*
X59669550Y-46500000D02*
X59920000Y-46500000D01*
X84000000Y-53207106D02*
X84000000Y-54500000D01*
X53406207Y-53093792D02*
X49744454Y-56755545D01*
X60500000Y-49458709D02*
G75*
G03*
X60882753Y-50382747I1306800J9D01*
G01*
X61480630Y-51500000D02*
G75*
G03*
X61632699Y-51132801I-30J215100D01*
G01*
X61632750Y-51132750D02*
G75*
G03*
X62519369Y-51500012I886650J886650D01*
G01*
X83500000Y-52000000D02*
G75*
G03*
X82292893Y-51500003I-1207100J-1207100D01*
G01*
X49744453Y-56755544D02*
G75*
G02*
X49275000Y-56950001I-469453J469444D01*
G01*
X83500000Y-52000000D02*
G75*
G02*
X83999997Y-53207106I-1207100J-1207100D01*
G01*
X59669550Y-46500000D02*
G75*
G03*
X59596217Y-46677071I-50J-103700D01*
G01*
X57253963Y-51500000D02*
G75*
G03*
X53406236Y-53093821I37J-5441500D01*
G01*
X84000000Y-54500000D02*
G75*
G03*
X85414219Y-57914207I4828400J0D01*
G01*
X89922182Y-62422182D02*
G75*
G02*
X90700010Y-64300000I-1877782J-1877818D01*
G01*
X59959550Y-47040450D02*
G75*
G02*
X60499995Y-48345211I-1304750J-1304750D01*
G01*
%TO.N,Net-(D1-A)*%
X88036042Y-55240000D02*
X90700000Y-55240000D01*
X87987757Y-55220000D02*
X86500000Y-55220000D01*
X88011900Y-55230000D02*
G75*
G03*
X87987757Y-55220018I-24100J-24100D01*
G01*
X88011900Y-55230000D02*
G75*
G03*
X88036042Y-55239982I24100J24100D01*
G01*
%TO.N,Net-(D2-A)*%
X107840000Y-68700000D02*
X109040000Y-69900000D01*
X94707106Y-67500000D02*
X104942943Y-67500000D01*
X89914213Y-68500000D02*
X92292893Y-68500000D01*
X87500000Y-67500000D02*
X86895979Y-66895979D01*
X86500000Y-65940000D02*
X86500000Y-65380000D01*
X94707106Y-67500000D02*
G75*
G03*
X93499998Y-67999998I-6J-1707100D01*
G01*
X87500000Y-67500000D02*
G75*
G03*
X89914213Y-68499994I2414200J2414200D01*
G01*
X86500000Y-65940000D02*
G75*
G03*
X86895971Y-66895987I1352000J0D01*
G01*
X107840000Y-68700000D02*
G75*
G03*
X104942943Y-67499953I-2897100J-2897000D01*
G01*
X93500000Y-68000000D02*
G75*
G02*
X92292893Y-68499997I-1207100J1207100D01*
G01*
%TO.N,Net-(R6-Pad2)*%
X81299050Y-55500000D02*
X81900000Y-55500000D01*
X53598107Y-54891892D02*
X49000000Y-59490000D01*
X76939221Y-53298100D02*
X57445863Y-53298100D01*
X79597150Y-54399050D02*
X80273164Y-55075064D01*
X80273164Y-55075064D02*
G75*
G03*
X81299050Y-55500041I1025936J1025864D01*
G01*
X79597149Y-54399051D02*
G75*
G03*
X76939221Y-53298092I-2657949J-2657949D01*
G01*
X57445863Y-53298100D02*
G75*
G03*
X53598136Y-54891921I37J-5441500D01*
G01*
%TD*%
%TA.AperFunction,Conductor*%
%TO.N,Uh2*%
G36*
X54084100Y-70389735D02*
G01*
X55231395Y-71211987D01*
X55236123Y-71219592D01*
X55234089Y-71228313D01*
X55232989Y-71229631D01*
X54966762Y-71504900D01*
X54960929Y-71508179D01*
X53809890Y-71768127D01*
X53801066Y-71766606D01*
X53796506Y-71761196D01*
X53477282Y-70991538D01*
X53477278Y-70982584D01*
X53479823Y-70978776D01*
X54069021Y-70390961D01*
X54077298Y-70387545D01*
X54084100Y-70389735D01*
G37*
%TD.AperFunction*%
%TD*%
%TA.AperFunction,Conductor*%
%TO.N,Out +*%
G36*
X72556945Y-63198451D02*
G01*
X72563271Y-63204790D01*
X72563389Y-63205086D01*
X73001947Y-64354691D01*
X73001694Y-64363642D01*
X73000922Y-64365086D01*
X72796223Y-64690860D01*
X72788919Y-64696042D01*
X72782354Y-64695644D01*
X71525380Y-64243252D01*
X71518756Y-64237226D01*
X71518333Y-64228281D01*
X71518517Y-64227803D01*
X71817299Y-63503960D01*
X71823620Y-63497623D01*
X72547993Y-63198442D01*
X72556945Y-63198451D01*
G37*
%TD.AperFunction*%
%TD*%
%TA.AperFunction,Conductor*%
%TO.N,Net-(R6-Pad2)*%
G36*
X49882416Y-58335949D02*
G01*
X50154050Y-58607583D01*
X50157477Y-58615856D01*
X50156529Y-58620470D01*
X49669742Y-59754928D01*
X49663330Y-59761179D01*
X49654526Y-59761129D01*
X49003788Y-59492562D01*
X48997449Y-59486238D01*
X48728870Y-58835473D01*
X48728881Y-58826518D01*
X48735070Y-58820257D01*
X49869529Y-58333469D01*
X49878483Y-58333357D01*
X49882416Y-58335949D01*
G37*
%TD.AperFunction*%
%TD*%
%TA.AperFunction,Conductor*%
%TO.N,Uh1*%
G36*
X84948189Y-69082164D02*
G01*
X86581027Y-69695905D01*
X86587564Y-69702023D01*
X86587882Y-69710916D01*
X86297485Y-70495875D01*
X86291401Y-70502445D01*
X86291380Y-70502454D01*
X85505085Y-70862216D01*
X85496136Y-70862542D01*
X85489800Y-70856904D01*
X84767263Y-69443956D01*
X84766547Y-69435030D01*
X84767135Y-69433559D01*
X84933534Y-69088038D01*
X84940210Y-69082074D01*
X84948189Y-69082164D01*
G37*
%TD.AperFunction*%
%TD*%
%TA.AperFunction,Conductor*%
%TO.N,Net-(D1-A)*%
G36*
X89607384Y-54246707D02*
G01*
X90691464Y-55231339D01*
X90695285Y-55239438D01*
X90692259Y-55247866D01*
X90691464Y-55248661D01*
X89607384Y-56233292D01*
X89598956Y-56236318D01*
X89592209Y-56233767D01*
X88604391Y-55443512D01*
X88600072Y-55435668D01*
X88600000Y-55434376D01*
X88600000Y-55045623D01*
X88603427Y-55037350D01*
X88604391Y-55036487D01*
X89592210Y-54246231D01*
X89600810Y-54243740D01*
X89607384Y-54246707D01*
G37*
%TD.AperFunction*%
%TD*%
%TA.AperFunction,Conductor*%
%TO.N,Net-(C4-Pad1)*%
G36*
X57736866Y-60765590D02*
G01*
X57737001Y-60765647D01*
X58950760Y-61296985D01*
X58956963Y-61303441D01*
X58957766Y-61307566D01*
X58962230Y-61692227D01*
X58958900Y-61700540D01*
X58955208Y-61703087D01*
X57737059Y-62234344D01*
X57728106Y-62234511D01*
X57721658Y-62228297D01*
X57721578Y-62228110D01*
X57420865Y-61504498D01*
X57420855Y-61495549D01*
X57721572Y-60771903D01*
X57727911Y-60765579D01*
X57736866Y-60765590D01*
G37*
%TD.AperFunction*%
%TD*%
%TA.AperFunction,Conductor*%
%TO.N,Net-(D1-K)*%
G36*
X90702112Y-63259039D02*
G01*
X90707139Y-63263679D01*
X91652566Y-64882387D01*
X91653779Y-64891259D01*
X91648364Y-64898391D01*
X91647943Y-64898625D01*
X90705202Y-65398360D01*
X90696287Y-65399207D01*
X90695237Y-65398829D01*
X89694426Y-64983485D01*
X89688099Y-64977149D01*
X89688058Y-64968308D01*
X89716122Y-64898625D01*
X90322743Y-63392382D01*
X90329012Y-63385990D01*
X90329705Y-63385722D01*
X90693173Y-63258537D01*
X90702112Y-63259039D01*
G37*
%TD.AperFunction*%
%TD*%
%TA.AperFunction,Conductor*%
%TO.N,Net-(D1-K)*%
G36*
X50070659Y-56152847D02*
G01*
X50071303Y-56153445D01*
X50342857Y-56424999D01*
X50346284Y-56433272D01*
X50343634Y-56440688D01*
X49517293Y-57449138D01*
X49509399Y-57453365D01*
X49500827Y-57450772D01*
X49499988Y-57450013D01*
X49002734Y-56954139D01*
X48999297Y-56945872D01*
X48999989Y-56240841D01*
X49003424Y-56232572D01*
X49010810Y-56229186D01*
X50062154Y-56150051D01*
X50070659Y-56152847D01*
G37*
%TD.AperFunction*%
%TD*%
%TA.AperFunction,Conductor*%
%TO.N,Uh2*%
G36*
X103734844Y-69356588D02*
G01*
X103735446Y-69357824D01*
X103958940Y-69894923D01*
X103958955Y-69903878D01*
X103958943Y-69903905D01*
X103734197Y-70445158D01*
X103727860Y-70451484D01*
X103720722Y-70452062D01*
X102914545Y-70263139D01*
X102907749Y-70258625D01*
X102682932Y-69949169D01*
X102680842Y-69940461D01*
X102685521Y-69932826D01*
X102686654Y-69932100D01*
X103718916Y-69352118D01*
X103727804Y-69351054D01*
X103734844Y-69356588D01*
G37*
%TD.AperFunction*%
%TD*%
%TA.AperFunction,Conductor*%
%TO.N,Net-(Q2-B)*%
G36*
X68307663Y-61801392D02*
G01*
X68313988Y-61807731D01*
X68313977Y-61816686D01*
X68313702Y-61817297D01*
X67703197Y-63077488D01*
X67696506Y-63083439D01*
X67692668Y-63084087D01*
X67308229Y-63084087D01*
X67299956Y-63080660D01*
X67297218Y-63076343D01*
X67242376Y-62923689D01*
X66844662Y-61816629D01*
X66845090Y-61807686D01*
X66851181Y-61801872D01*
X67575512Y-61500864D01*
X67584461Y-61500854D01*
X68307663Y-61801392D01*
G37*
%TD.AperFunction*%
%TD*%
%TA.AperFunction,Conductor*%
%TO.N,Net-(D1-K)*%
G36*
X90624151Y-65303427D02*
G01*
X90627578Y-65311700D01*
X90624151Y-65319973D01*
X90616840Y-65323360D01*
X90271363Y-65351861D01*
X90262836Y-65349126D01*
X90258741Y-65341163D01*
X90261476Y-65332636D01*
X90268962Y-65328590D01*
X90499281Y-65300089D01*
X90500718Y-65300000D01*
X90615878Y-65300000D01*
X90624151Y-65303427D01*
G37*
%TD.AperFunction*%
%TD*%
%TA.AperFunction,Conductor*%
%TO.N,Out +*%
G36*
X109430978Y-59405962D02*
G01*
X110020173Y-59993773D01*
X110023610Y-60002042D01*
X110022717Y-60006538D01*
X109703493Y-60776196D01*
X109697158Y-60782525D01*
X109690109Y-60783127D01*
X108539069Y-60523179D01*
X108533236Y-60519900D01*
X108267009Y-60244629D01*
X108263722Y-60236302D01*
X108267286Y-60228087D01*
X108268597Y-60226992D01*
X109415900Y-59404734D01*
X109424620Y-59402701D01*
X109430978Y-59405962D01*
G37*
%TD.AperFunction*%
%TD*%
%TA.AperFunction,Conductor*%
%TO.N,Out +*%
G36*
X97995279Y-58155334D02*
G01*
X98000599Y-58162537D01*
X98000919Y-58164588D01*
X98127606Y-60087983D01*
X98124730Y-60096464D01*
X98121243Y-60099177D01*
X97777679Y-60274232D01*
X97768752Y-60274934D01*
X97766066Y-60273665D01*
X96408742Y-59406123D01*
X96403618Y-59398781D01*
X96405010Y-59390249D01*
X96997048Y-58403273D01*
X97004240Y-58397943D01*
X97986426Y-58154002D01*
X97995279Y-58155334D01*
G37*
%TD.AperFunction*%
%TD*%
%TA.AperFunction,Conductor*%
%TO.N,Net-(C4-Pad1)*%
G36*
X71010524Y-55197831D02*
G01*
X71736460Y-55497835D01*
X71742796Y-55504161D01*
X71742805Y-55504183D01*
X72041027Y-56226699D01*
X72041016Y-56235654D01*
X72034676Y-56241978D01*
X72033161Y-56242485D01*
X70546764Y-56629581D01*
X70537894Y-56628350D01*
X70532688Y-56621874D01*
X70524541Y-56596800D01*
X70414064Y-56256782D01*
X70414766Y-56247858D01*
X70414943Y-56247525D01*
X70995832Y-55202957D01*
X71002846Y-55197394D01*
X71010524Y-55197831D01*
G37*
%TD.AperFunction*%
%TD*%
%TA.AperFunction,Conductor*%
%TO.N,Out -*%
G36*
X73985989Y-45676690D02*
G01*
X73991826Y-45679974D01*
X74257907Y-45955388D01*
X74261191Y-45963719D01*
X74257622Y-45971931D01*
X74256309Y-45973027D01*
X73109100Y-46795264D01*
X73100379Y-46797298D01*
X73094021Y-46794037D01*
X72504825Y-46206225D01*
X72501388Y-46197956D01*
X72502281Y-46193460D01*
X72821507Y-45423799D01*
X72827841Y-45417472D01*
X72834886Y-45416870D01*
X73985989Y-45676690D01*
G37*
%TD.AperFunction*%
%TD*%
%TA.AperFunction,Conductor*%
%TO.N,Out -*%
G36*
X92207939Y-46007342D02*
G01*
X92208215Y-46007608D01*
X93192431Y-46992426D01*
X93195855Y-47000701D01*
X93193125Y-47008209D01*
X92511559Y-47822073D01*
X92506453Y-47825604D01*
X92139249Y-47954095D01*
X92130309Y-47953593D01*
X92126730Y-47950925D01*
X92009514Y-47822073D01*
X91268945Y-47007989D01*
X91265914Y-46999564D01*
X91269062Y-46992119D01*
X92191403Y-46007878D01*
X92199559Y-46004185D01*
X92207939Y-46007342D01*
G37*
%TD.AperFunction*%
%TD*%
%TA.AperFunction,Conductor*%
%TO.N,Out -*%
G36*
X52632243Y-72682234D02*
G01*
X53467712Y-73516722D01*
X53471144Y-73524993D01*
X53467722Y-73533268D01*
X53467712Y-73533278D01*
X52632243Y-74367765D01*
X52623968Y-74371187D01*
X52616868Y-74368781D01*
X51779593Y-73728512D01*
X51775103Y-73720764D01*
X51775000Y-73719218D01*
X51775000Y-73330781D01*
X51778427Y-73322508D01*
X51779586Y-73321492D01*
X52616869Y-72681217D01*
X52625521Y-72678915D01*
X52632243Y-72682234D01*
G37*
%TD.AperFunction*%
%TD*%
%TA.AperFunction,Conductor*%
%TO.N,Out -*%
G36*
X91205667Y-45005667D02*
G01*
X92191262Y-45991262D01*
X92194689Y-45999535D01*
X92191262Y-46007808D01*
X92190102Y-46008825D01*
X91208449Y-46760419D01*
X91199797Y-46762727D01*
X91192760Y-46759088D01*
X90721998Y-46251812D01*
X90148544Y-45633880D01*
X90145428Y-45625485D01*
X90148846Y-45617649D01*
X90422175Y-45344320D01*
X90425715Y-45341895D01*
X91192669Y-45003236D01*
X91201620Y-45003030D01*
X91205667Y-45005667D01*
G37*
%TD.AperFunction*%
%TD*%
%TA.AperFunction,Conductor*%
%TO.N,Net-(Q2-B)*%
G36*
X87812159Y-69230177D02*
G01*
X89090218Y-69756436D01*
X89096562Y-69762755D01*
X89096581Y-69771710D01*
X89096577Y-69771720D01*
X88797462Y-70496212D01*
X88791137Y-70502551D01*
X88791112Y-70502562D01*
X88066620Y-70801677D01*
X88057665Y-70801666D01*
X88051341Y-70795328D01*
X87525078Y-69517261D01*
X87525097Y-69508308D01*
X87527621Y-69504538D01*
X87799436Y-69232723D01*
X87807708Y-69229297D01*
X87812159Y-69230177D01*
G37*
%TD.AperFunction*%
%TD*%
%TA.AperFunction,Conductor*%
%TO.N,Net-(D1-K)*%
G36*
X60508262Y-46499981D02*
G01*
X60516528Y-46503421D01*
X60519942Y-46511699D01*
X60519942Y-46511738D01*
X60515182Y-47488700D01*
X60511715Y-47496956D01*
X60507959Y-47499452D01*
X60153253Y-47646374D01*
X60144299Y-47646374D01*
X60140062Y-47643373D01*
X60011108Y-47499452D01*
X59503114Y-46932499D01*
X59500147Y-46924051D01*
X59503542Y-46916433D01*
X59916181Y-46502523D01*
X59924447Y-46499084D01*
X60508262Y-46499981D01*
G37*
%TD.AperFunction*%
%TD*%
%TA.AperFunction,Conductor*%
%TO.N,Net-(D2-A)*%
G36*
X108340311Y-68913500D02*
G01*
X109259459Y-69340951D01*
X109265515Y-69347547D01*
X109265341Y-69356021D01*
X109042562Y-69896207D01*
X109036240Y-69902548D01*
X109036207Y-69902562D01*
X108496021Y-70125341D01*
X108487066Y-70125327D01*
X108480951Y-70119459D01*
X108380083Y-69902562D01*
X108053500Y-69200312D01*
X108053120Y-69191367D01*
X108055835Y-69187109D01*
X108327108Y-68915836D01*
X108335380Y-68912410D01*
X108340311Y-68913500D01*
G37*
%TD.AperFunction*%
%TD*%
%TA.AperFunction,Conductor*%
%TO.N,Out +*%
G36*
X97995778Y-58149230D02*
G01*
X98001139Y-58156403D01*
X98001434Y-58158045D01*
X98221122Y-60213766D01*
X98218593Y-60222356D01*
X98216365Y-60224474D01*
X97905024Y-60450677D01*
X97896317Y-60452768D01*
X97891387Y-60450761D01*
X96415845Y-59406229D01*
X96411072Y-59398652D01*
X96412535Y-59390723D01*
X96996938Y-58403372D01*
X97004100Y-58397999D01*
X97004115Y-58397994D01*
X97986917Y-58147949D01*
X97995778Y-58149230D01*
G37*
%TD.AperFunction*%
%TD*%
%TA.AperFunction,Conductor*%
%TO.N,Net-(R6-Pad2)*%
G36*
X81593104Y-54764568D02*
G01*
X81597606Y-54769941D01*
X81897805Y-55493351D01*
X81897811Y-55502305D01*
X81895262Y-55506118D01*
X81341174Y-56058842D01*
X81332897Y-56062259D01*
X81326314Y-56060222D01*
X80263115Y-55334354D01*
X80258215Y-55326859D01*
X80260049Y-55318094D01*
X80260247Y-55317814D01*
X80485677Y-55007555D01*
X80492627Y-55003008D01*
X81584290Y-54762998D01*
X81593104Y-54764568D01*
G37*
%TD.AperFunction*%
%TD*%
%TA.AperFunction,Conductor*%
%TO.N,Net-(D2-A)*%
G36*
X86507656Y-65388242D02*
G01*
X86510132Y-65390132D01*
X87595252Y-66475252D01*
X87598679Y-66483525D01*
X87598297Y-66486492D01*
X87426933Y-67140223D01*
X87423888Y-67145529D01*
X87150435Y-67418982D01*
X87142162Y-67422409D01*
X87135179Y-67420097D01*
X85879696Y-66486184D01*
X85875103Y-66478496D01*
X85876515Y-66471000D01*
X86491698Y-65392606D01*
X86498772Y-65387120D01*
X86507656Y-65388242D01*
G37*
%TD.AperFunction*%
%TD*%
%TA.AperFunction,Conductor*%
%TO.N,Uh1*%
G36*
X63188746Y-69039647D02*
G01*
X63460034Y-69310935D01*
X63463461Y-69319208D01*
X63462247Y-69324397D01*
X63019173Y-70219817D01*
X63012433Y-70225712D01*
X63004226Y-70225444D01*
X62463792Y-70002562D01*
X62457451Y-69996240D01*
X62457437Y-69996207D01*
X62234777Y-69456309D01*
X62234791Y-69447354D01*
X62240951Y-69441108D01*
X63175835Y-69037179D01*
X63184786Y-69037044D01*
X63188746Y-69039647D01*
G37*
%TD.AperFunction*%
%TD*%
%TA.AperFunction,Conductor*%
%TO.N,Uh1*%
G36*
X56692518Y-54198650D02*
G01*
X57415889Y-54497222D01*
X57422229Y-54503546D01*
X57422238Y-54503569D01*
X57721807Y-55228601D01*
X57721799Y-55237556D01*
X57715776Y-55243747D01*
X56590967Y-55747430D01*
X56582015Y-55747684D01*
X56581708Y-55747561D01*
X56226862Y-55600580D01*
X56220530Y-55594248D01*
X56220231Y-55586097D01*
X56676946Y-54205789D01*
X56682798Y-54199012D01*
X56691729Y-54198357D01*
X56692518Y-54198650D01*
G37*
%TD.AperFunction*%
%TD*%
%TA.AperFunction,Conductor*%
%TO.N,Uh1*%
G36*
X54982024Y-67936860D02*
G01*
X54988815Y-67941372D01*
X55174106Y-68196398D01*
X55214305Y-68251725D01*
X55216396Y-68260432D01*
X55211717Y-68268067D01*
X55211452Y-68268254D01*
X54084047Y-69040556D01*
X54075285Y-69042405D01*
X54069171Y-69039187D01*
X53479734Y-68451117D01*
X53476299Y-68442850D01*
X53477191Y-68438356D01*
X53796474Y-67668875D01*
X53802809Y-67662549D01*
X53809951Y-67661970D01*
X54982024Y-67936860D01*
G37*
%TD.AperFunction*%
%TD*%
%TA.AperFunction,Conductor*%
%TO.N,Uh1*%
G36*
X62228851Y-69449862D02*
G01*
X62234657Y-69455955D01*
X62458854Y-69996204D01*
X62458860Y-70005159D01*
X62458850Y-70005183D01*
X62235294Y-70542539D01*
X62228953Y-70548861D01*
X62219998Y-70548847D01*
X62219074Y-70548415D01*
X61198478Y-70015187D01*
X61192732Y-70008319D01*
X61193526Y-69999399D01*
X61195490Y-69996679D01*
X61195950Y-69996204D01*
X61460917Y-69722494D01*
X61465371Y-69719622D01*
X62219909Y-69449425D01*
X62228851Y-69449862D01*
G37*
%TD.AperFunction*%
%TD*%
%TA.AperFunction,Conductor*%
%TO.N,Out -*%
G36*
X108732425Y-55949087D02*
G01*
X110355212Y-56605629D01*
X110361596Y-56611909D01*
X110361687Y-56620820D01*
X110027650Y-57456019D01*
X110021396Y-57462428D01*
X110021375Y-57462437D01*
X109185713Y-57818701D01*
X109176759Y-57818793D01*
X109170383Y-57812575D01*
X109018404Y-57460532D01*
X108512973Y-56289753D01*
X108512841Y-56280800D01*
X108513805Y-56278899D01*
X108718133Y-55953707D01*
X108725435Y-55948527D01*
X108732425Y-55949087D01*
G37*
%TD.AperFunction*%
%TD*%
%TA.AperFunction,Conductor*%
%TO.N,-12V*%
G36*
X96394900Y-70552661D02*
G01*
X96422159Y-70654394D01*
X96474820Y-70745606D01*
X96549294Y-70820080D01*
X96640506Y-70872741D01*
X96742239Y-70900000D01*
X96748453Y-70900000D01*
X96069426Y-71579024D01*
X96069788Y-71583158D01*
X96057680Y-71670890D01*
X96008706Y-71744680D01*
X95932565Y-71789914D01*
X95871545Y-71799500D01*
X95729391Y-71799500D01*
X95643048Y-71779793D01*
X95573807Y-71724574D01*
X95535380Y-71644782D01*
X95535380Y-71556218D01*
X95542938Y-71530958D01*
X95554747Y-71499296D01*
X95588991Y-71407483D01*
X95588991Y-71407475D01*
X95591855Y-71395364D01*
X95593648Y-71395787D01*
X95617521Y-71326414D01*
X95651376Y-71292206D01*
X95650258Y-71291088D01*
X96394900Y-70546446D01*
X96394900Y-70552661D01*
G37*
%TD.AperFunction*%
%TA.AperFunction,Conductor*%
G36*
X76944101Y-53998839D02*
G01*
X77229222Y-54012848D01*
X77248657Y-54014762D01*
X77272555Y-54018307D01*
X77526217Y-54055936D01*
X77545348Y-54059741D01*
X77817543Y-54127923D01*
X77836212Y-54133587D01*
X78100400Y-54228115D01*
X78118438Y-54235587D01*
X78372087Y-54355555D01*
X78389309Y-54364761D01*
X78629979Y-54509013D01*
X78646214Y-54519861D01*
X78870934Y-54686525D01*
X78871572Y-54686998D01*
X78886668Y-54699386D01*
X79063627Y-54859773D01*
X79098344Y-54891239D01*
X79105417Y-54897974D01*
X79833280Y-55625838D01*
X79833882Y-55626384D01*
X79852279Y-55644782D01*
X79863274Y-55655778D01*
X79867127Y-55658851D01*
X79935024Y-55713000D01*
X79945389Y-55721866D01*
X79968941Y-55743451D01*
X79978091Y-55751836D01*
X80011083Y-55774360D01*
X80022953Y-55783127D01*
X80038031Y-55795152D01*
X80052181Y-55806437D01*
X80122946Y-55850905D01*
X80129261Y-55855043D01*
X80994376Y-56445675D01*
X81017194Y-56461253D01*
X81045703Y-56484889D01*
X81060861Y-56500047D01*
X81247266Y-56630568D01*
X81453504Y-56726739D01*
X81453505Y-56726739D01*
X81453509Y-56726741D01*
X81673295Y-56785632D01*
X81673299Y-56785632D01*
X81673308Y-56785635D01*
X81900000Y-56805468D01*
X82126692Y-56785635D01*
X82126701Y-56785632D01*
X82126704Y-56785632D01*
X82346490Y-56726741D01*
X82346491Y-56726740D01*
X82346496Y-56726739D01*
X82552734Y-56630568D01*
X82739139Y-56500047D01*
X82900047Y-56339139D01*
X83030568Y-56152734D01*
X83125488Y-55949178D01*
X83179838Y-55879255D01*
X83259145Y-55839837D01*
X83347702Y-55838733D01*
X83427967Y-55876162D01*
X83484045Y-55944710D01*
X83499343Y-55986822D01*
X83502974Y-56001945D01*
X83637221Y-56415117D01*
X83803494Y-56816532D01*
X84000732Y-57203634D01*
X84000736Y-57203640D01*
X84227742Y-57574077D01*
X84461141Y-57895321D01*
X84483117Y-57925568D01*
X84694703Y-58173302D01*
X84765279Y-58255936D01*
X84765287Y-58255944D01*
X84863144Y-58353800D01*
X84863165Y-58353823D01*
X88584147Y-62074804D01*
X88631266Y-62149792D01*
X88641182Y-62237799D01*
X88611931Y-62321392D01*
X88549307Y-62384016D01*
X88465714Y-62413267D01*
X88377707Y-62403351D01*
X88367285Y-62399373D01*
X88360865Y-62396714D01*
X88119689Y-62332090D01*
X87872154Y-62299500D01*
X87872149Y-62299500D01*
X87816299Y-62299500D01*
X86804057Y-62299500D01*
X86794633Y-62299500D01*
X86794140Y-62299523D01*
X86697751Y-62299523D01*
X86697750Y-62299523D01*
X86697747Y-62299523D01*
X86585365Y-62309353D01*
X86348457Y-62330076D01*
X86003162Y-62390956D01*
X86003148Y-62390959D01*
X85664465Y-62481706D01*
X85664455Y-62481709D01*
X85334991Y-62601621D01*
X85334987Y-62601623D01*
X85017220Y-62749796D01*
X84713564Y-62925109D01*
X84426338Y-63126224D01*
X84157747Y-63351597D01*
X84157743Y-63351601D01*
X84082577Y-63426766D01*
X84082576Y-63426767D01*
X84060484Y-63448858D01*
X84060481Y-63448861D01*
X84022943Y-63486399D01*
X84008638Y-63500704D01*
X84000528Y-63508371D01*
X83786089Y-63700005D01*
X83768641Y-63713919D01*
X83584431Y-63844622D01*
X83502609Y-63878513D01*
X83414185Y-63873547D01*
X83336673Y-63830707D01*
X83285424Y-63758478D01*
X83270589Y-63671166D01*
X83271027Y-63665050D01*
X83285468Y-63500000D01*
X83265635Y-63273308D01*
X83265632Y-63273295D01*
X83206741Y-63053509D01*
X83205959Y-63051832D01*
X83110568Y-62847266D01*
X82980047Y-62660861D01*
X82819139Y-62499953D01*
X82632734Y-62369432D01*
X82426496Y-62273261D01*
X82426497Y-62273261D01*
X82426490Y-62273258D01*
X82206704Y-62214367D01*
X82206692Y-62214365D01*
X81980000Y-62194532D01*
X81753307Y-62214365D01*
X81753295Y-62214367D01*
X81533509Y-62273258D01*
X81327266Y-62369432D01*
X81140858Y-62499955D01*
X80979955Y-62660858D01*
X80849432Y-62847266D01*
X80753258Y-63053509D01*
X80694367Y-63273295D01*
X80694365Y-63273307D01*
X80674532Y-63500000D01*
X80694365Y-63726692D01*
X80694367Y-63726704D01*
X80753259Y-63946492D01*
X80753259Y-63946493D01*
X80785857Y-64016399D01*
X80804487Y-64102981D01*
X80783704Y-64189071D01*
X80727627Y-64257619D01*
X80647362Y-64295048D01*
X80605502Y-64299500D01*
X74387191Y-64299500D01*
X74374173Y-64299074D01*
X74150886Y-64284436D01*
X74125078Y-64281038D01*
X73912018Y-64238654D01*
X73886876Y-64231916D01*
X73681164Y-64162084D01*
X73657120Y-64152125D01*
X73491413Y-64070407D01*
X73422695Y-64014546D01*
X73393505Y-63962865D01*
X73050187Y-63062915D01*
X73049139Y-63060101D01*
X73045462Y-63049995D01*
X73043400Y-63045125D01*
X73035689Y-63024909D01*
X73032948Y-63017886D01*
X73032833Y-63017596D01*
X73007184Y-62962981D01*
X73001998Y-62954335D01*
X73002770Y-62953871D01*
X72991451Y-62934940D01*
X72950568Y-62847267D01*
X72950567Y-62847265D01*
X72929739Y-62817519D01*
X72820047Y-62660861D01*
X72659139Y-62499953D01*
X72472734Y-62369432D01*
X72266496Y-62273261D01*
X72266497Y-62273261D01*
X72266490Y-62273258D01*
X72046704Y-62214367D01*
X72046692Y-62214365D01*
X71820000Y-62194532D01*
X71593307Y-62214365D01*
X71593295Y-62214367D01*
X71373509Y-62273258D01*
X71167266Y-62369432D01*
X70980858Y-62499955D01*
X70819955Y-62660858D01*
X70689432Y-62847266D01*
X70593258Y-63053509D01*
X70534367Y-63273295D01*
X70534365Y-63273307D01*
X70514532Y-63500000D01*
X70534365Y-63726692D01*
X70534367Y-63726704D01*
X70593258Y-63946490D01*
X70603377Y-63968189D01*
X70689432Y-64152734D01*
X70819953Y-64339139D01*
X70980861Y-64500047D01*
X71167266Y-64630568D01*
X71331806Y-64707294D01*
X71341018Y-64711884D01*
X71354197Y-64718885D01*
X71356482Y-64719707D01*
X71373197Y-64726596D01*
X71373504Y-64726739D01*
X71375298Y-64727219D01*
X71391183Y-64732195D01*
X71663313Y-64830137D01*
X71894264Y-64913258D01*
X71968831Y-64961040D01*
X72015283Y-65036444D01*
X72024417Y-65124535D01*
X71994426Y-65207866D01*
X71931249Y-65269931D01*
X71847399Y-65298439D01*
X71826874Y-65299500D01*
X69507823Y-65299500D01*
X69492209Y-65298886D01*
X69312325Y-65284728D01*
X69281484Y-65279844D01*
X69113658Y-65239553D01*
X69083961Y-65229904D01*
X68994678Y-65192921D01*
X68924508Y-65163856D01*
X68896685Y-65149679D01*
X68749526Y-65059499D01*
X68724264Y-65041145D01*
X68593023Y-64929055D01*
X68570943Y-64906975D01*
X68458852Y-64775734D01*
X68440497Y-64750471D01*
X68439459Y-64748777D01*
X68350315Y-64603306D01*
X68336147Y-64575499D01*
X68270094Y-64416034D01*
X68260446Y-64386341D01*
X68249114Y-64339141D01*
X68220155Y-64218514D01*
X68215270Y-64187672D01*
X68212435Y-64151656D01*
X68201113Y-64007789D01*
X68200500Y-63992176D01*
X68200500Y-63256070D01*
X68220207Y-63169727D01*
X68220409Y-63169309D01*
X68228102Y-63153430D01*
X68768628Y-62037688D01*
X68774664Y-62024768D01*
X68774939Y-62024157D01*
X68789201Y-61985663D01*
X68795451Y-61970700D01*
X68800582Y-61959698D01*
X68806739Y-61946496D01*
X68865635Y-61726692D01*
X68885468Y-61500000D01*
X68865635Y-61273308D01*
X68864949Y-61270747D01*
X68806741Y-61053509D01*
X68799739Y-61038493D01*
X68710568Y-60847266D01*
X68580047Y-60660861D01*
X68419139Y-60499953D01*
X68232734Y-60369432D01*
X68056191Y-60287108D01*
X68026490Y-60273258D01*
X67806704Y-60214367D01*
X67806692Y-60214365D01*
X67580000Y-60194532D01*
X67353307Y-60214365D01*
X67353295Y-60214367D01*
X67133509Y-60273258D01*
X66927266Y-60369432D01*
X66740858Y-60499955D01*
X66579955Y-60660858D01*
X66449432Y-60847266D01*
X66353258Y-61053509D01*
X66294367Y-61273295D01*
X66294365Y-61273307D01*
X66274532Y-61500000D01*
X66294365Y-61726692D01*
X66294367Y-61726700D01*
X66353260Y-61946494D01*
X66353263Y-61946502D01*
X66356833Y-61954158D01*
X66368074Y-61984489D01*
X66368927Y-61987531D01*
X66629095Y-62711721D01*
X66784296Y-63143731D01*
X66787781Y-63153430D01*
X66799500Y-63220711D01*
X66799500Y-63921073D01*
X66799500Y-63921074D01*
X66799500Y-64000001D01*
X66799500Y-64151658D01*
X66807033Y-64218514D01*
X66833460Y-64453060D01*
X66900954Y-64748774D01*
X66900955Y-64748777D01*
X67001128Y-65035055D01*
X67001128Y-65035056D01*
X67001131Y-65035062D01*
X67001132Y-65035065D01*
X67132735Y-65308341D01*
X67132737Y-65308345D01*
X67132738Y-65308346D01*
X67294107Y-65565163D01*
X67483221Y-65802305D01*
X67697695Y-66016779D01*
X67934835Y-66205892D01*
X67934841Y-66205897D01*
X68191647Y-66367258D01*
X68191653Y-66367260D01*
X68191658Y-66367264D01*
X68464934Y-66498867D01*
X68751226Y-66599045D01*
X69046934Y-66666539D01*
X69348341Y-66700500D01*
X69431005Y-66700500D01*
X70465502Y-66700500D01*
X70551845Y-66720207D01*
X70621086Y-66775426D01*
X70659513Y-66855218D01*
X70659513Y-66943782D01*
X70645857Y-66983601D01*
X70613259Y-67053506D01*
X70613259Y-67053507D01*
X70554367Y-67273295D01*
X70554365Y-67273307D01*
X70534532Y-67500000D01*
X70554365Y-67726692D01*
X70554367Y-67726704D01*
X70613259Y-67946492D01*
X70613259Y-67946493D01*
X70645857Y-68016399D01*
X70664487Y-68102981D01*
X70643704Y-68189071D01*
X70587627Y-68257619D01*
X70507362Y-68295048D01*
X70465502Y-68299500D01*
X70214926Y-68299500D01*
X70199315Y-68298887D01*
X70181406Y-68297477D01*
X70065250Y-68288336D01*
X70034407Y-68283451D01*
X69911268Y-68253888D01*
X69881578Y-68244241D01*
X69764574Y-68195777D01*
X69736763Y-68181606D01*
X69628790Y-68115440D01*
X69603530Y-68097088D01*
X69501324Y-68009797D01*
X69489861Y-67999201D01*
X69399724Y-67909062D01*
X69188303Y-67740460D01*
X68959334Y-67596590D01*
X68959331Y-67596588D01*
X68959327Y-67596586D01*
X68959319Y-67596582D01*
X68715703Y-67479263D01*
X68715698Y-67479261D01*
X68460457Y-67389949D01*
X68460454Y-67389948D01*
X68276630Y-67347992D01*
X68196816Y-67329775D01*
X68196814Y-67329774D01*
X68196811Y-67329774D01*
X67983212Y-67305708D01*
X67928099Y-67299499D01*
X67928098Y-67299499D01*
X67792890Y-67299500D01*
X65836779Y-67299500D01*
X65836663Y-67299505D01*
X65734563Y-67299505D01*
X65376626Y-67330820D01*
X65376622Y-67330820D01*
X65376618Y-67330821D01*
X65022788Y-67393209D01*
X65022765Y-67393214D01*
X64675733Y-67486199D01*
X64675730Y-67486200D01*
X64338090Y-67609091D01*
X64338081Y-67609094D01*
X64012443Y-67760940D01*
X63701280Y-67940590D01*
X63701258Y-67940604D01*
X63406953Y-68146678D01*
X63131712Y-68377632D01*
X63131707Y-68377637D01*
X63131705Y-68377639D01*
X63053460Y-68455883D01*
X63053459Y-68455884D01*
X63053458Y-68455883D01*
X63053457Y-68455885D01*
X63053456Y-68455886D01*
X62933310Y-68576030D01*
X62871526Y-68617993D01*
X62050580Y-68972694D01*
X62038740Y-68977366D01*
X61706326Y-69096402D01*
X61618394Y-69106957D01*
X61534590Y-69078315D01*
X61498523Y-69049766D01*
X59863934Y-67415177D01*
X59863932Y-67415174D01*
X59855771Y-67407013D01*
X59855667Y-67406848D01*
X59796809Y-67347992D01*
X59796810Y-67347992D01*
X59675983Y-67227169D01*
X59675976Y-67227162D01*
X59675973Y-67227160D01*
X59411807Y-67010375D01*
X59391074Y-66996522D01*
X59127651Y-66820516D01*
X58875148Y-66685556D01*
X58826262Y-66659427D01*
X58826259Y-66659425D01*
X58826256Y-66659424D01*
X58510522Y-66528650D01*
X58507960Y-66527873D01*
X58183500Y-66429455D01*
X58183499Y-66429454D01*
X58183490Y-66429452D01*
X58168241Y-66426419D01*
X57848313Y-66362787D01*
X57848314Y-66362787D01*
X57508213Y-66329297D01*
X57508210Y-66329297D01*
X57337337Y-66329300D01*
X57269926Y-66329300D01*
X57269917Y-66329298D01*
X57203149Y-66329298D01*
X57172018Y-66326848D01*
X57152898Y-66323819D01*
X57125860Y-66319537D01*
X57066646Y-66300296D01*
X57039127Y-66286274D01*
X56988759Y-66249679D01*
X56966920Y-66227840D01*
X56930325Y-66177472D01*
X56916302Y-66149950D01*
X56897062Y-66090736D01*
X56889750Y-66044567D01*
X56887300Y-66013438D01*
X56887300Y-62962982D01*
X56907007Y-62876639D01*
X56962226Y-62807398D01*
X57042018Y-62768971D01*
X57130582Y-62768971D01*
X57137800Y-62770761D01*
X57193308Y-62785635D01*
X57420000Y-62805468D01*
X57646692Y-62785635D01*
X57866496Y-62726739D01*
X57898707Y-62711717D01*
X57930018Y-62700203D01*
X57939135Y-62697696D01*
X59041148Y-62217087D01*
X59120699Y-62200496D01*
X59152906Y-62200496D01*
X59152911Y-62200496D01*
X59537264Y-62166869D01*
X59917224Y-62099872D01*
X60289900Y-62000014D01*
X60652453Y-61868056D01*
X61002127Y-61705001D01*
X61336258Y-61512091D01*
X61652305Y-61290793D01*
X61947862Y-61042792D01*
X62021187Y-60969466D01*
X62021202Y-60969454D01*
X62610692Y-60379964D01*
X63490655Y-59500000D01*
X70434532Y-59500000D01*
X70454365Y-59726692D01*
X70454367Y-59726704D01*
X70513258Y-59946490D01*
X70530126Y-59982663D01*
X70609432Y-60152734D01*
X70739953Y-60339139D01*
X70900861Y-60500047D01*
X71087266Y-60630568D01*
X71293504Y-60726739D01*
X71293505Y-60726739D01*
X71293509Y-60726741D01*
X71513295Y-60785632D01*
X71513299Y-60785632D01*
X71513308Y-60785635D01*
X71740000Y-60805468D01*
X71966692Y-60785635D01*
X71966701Y-60785632D01*
X71966704Y-60785632D01*
X72186490Y-60726741D01*
X72186491Y-60726740D01*
X72186496Y-60726739D01*
X72392734Y-60630568D01*
X72579139Y-60500047D01*
X72740047Y-60339139D01*
X72870568Y-60152734D01*
X72966739Y-59946496D01*
X72968242Y-59940889D01*
X73019390Y-59750000D01*
X80621127Y-59750000D01*
X80673731Y-59946321D01*
X80769865Y-60152483D01*
X80769867Y-60152486D01*
X80900339Y-60338818D01*
X81061181Y-60499660D01*
X81247513Y-60630132D01*
X81247516Y-60630134D01*
X81453679Y-60726268D01*
X81453678Y-60726268D01*
X81649999Y-60778872D01*
X81650000Y-60778872D01*
X81650000Y-59815686D01*
X81654394Y-59820080D01*
X81745606Y-59872741D01*
X81847339Y-59900000D01*
X81952661Y-59900000D01*
X82054394Y-59872741D01*
X82145606Y-59820080D01*
X82150000Y-59815686D01*
X82150000Y-60778872D01*
X82346321Y-60726268D01*
X82552483Y-60630134D01*
X82552486Y-60630132D01*
X82738818Y-60499660D01*
X82899660Y-60338818D01*
X83030132Y-60152486D01*
X83030134Y-60152483D01*
X83126268Y-59946321D01*
X83178872Y-59750000D01*
X82215686Y-59750000D01*
X82220080Y-59745606D01*
X82272741Y-59654394D01*
X82300000Y-59552661D01*
X82300000Y-59447339D01*
X82272741Y-59345606D01*
X82220080Y-59254394D01*
X82215686Y-59250000D01*
X83178872Y-59250000D01*
X83178872Y-59249999D01*
X83126268Y-59053678D01*
X83030134Y-58847516D01*
X83030132Y-58847513D01*
X82899660Y-58661181D01*
X82738818Y-58500339D01*
X82552486Y-58369867D01*
X82552483Y-58369865D01*
X82346330Y-58273735D01*
X82346325Y-58273733D01*
X82150000Y-58221127D01*
X82150000Y-59184314D01*
X82145606Y-59179920D01*
X82054394Y-59127259D01*
X81952661Y-59100000D01*
X81847339Y-59100000D01*
X81745606Y-59127259D01*
X81654394Y-59179920D01*
X81650000Y-59184314D01*
X81650000Y-58221127D01*
X81649999Y-58221127D01*
X81453674Y-58273733D01*
X81453669Y-58273735D01*
X81247516Y-58369865D01*
X81247513Y-58369867D01*
X81061181Y-58500339D01*
X80900339Y-58661181D01*
X80769867Y-58847513D01*
X80769865Y-58847516D01*
X80673731Y-59053678D01*
X80621127Y-59249999D01*
X80621128Y-59250000D01*
X81584314Y-59250000D01*
X81579920Y-59254394D01*
X81527259Y-59345606D01*
X81500000Y-59447339D01*
X81500000Y-59552661D01*
X81527259Y-59654394D01*
X81579920Y-59745606D01*
X81584314Y-59750000D01*
X80621127Y-59750000D01*
X73019390Y-59750000D01*
X73025632Y-59726704D01*
X73025632Y-59726701D01*
X73025635Y-59726692D01*
X73045468Y-59500000D01*
X73025635Y-59273308D01*
X73025632Y-59273295D01*
X72966741Y-59053509D01*
X72966739Y-59053504D01*
X72870568Y-58847266D01*
X72740047Y-58660861D01*
X72579139Y-58499953D01*
X72392734Y-58369432D01*
X72248857Y-58302340D01*
X72186490Y-58273258D01*
X71966704Y-58214367D01*
X71966692Y-58214365D01*
X71740000Y-58194532D01*
X71513307Y-58214365D01*
X71513295Y-58214367D01*
X71293509Y-58273258D01*
X71087266Y-58369432D01*
X70900858Y-58499955D01*
X70739955Y-58660858D01*
X70609432Y-58847266D01*
X70513258Y-59053509D01*
X70454367Y-59273295D01*
X70454365Y-59273307D01*
X70434532Y-59500000D01*
X63490655Y-59500000D01*
X64398795Y-58591859D01*
X64404377Y-58586492D01*
X64669169Y-58341722D01*
X64681026Y-58331595D01*
X64961109Y-58110796D01*
X64973732Y-58101625D01*
X65270281Y-57903476D01*
X65283572Y-57895330D01*
X65594779Y-57721046D01*
X65608657Y-57713976D01*
X65932549Y-57564658D01*
X65946956Y-57558690D01*
X66036300Y-57525729D01*
X66124122Y-57514334D01*
X66208196Y-57542173D01*
X66271866Y-57603734D01*
X66302520Y-57686823D01*
X66298544Y-57746632D01*
X66301128Y-57750000D01*
X67264314Y-57750000D01*
X67259920Y-57754394D01*
X67207259Y-57845606D01*
X67180000Y-57947339D01*
X67180000Y-58052661D01*
X67207259Y-58154394D01*
X67259920Y-58245606D01*
X67264314Y-58250000D01*
X66301127Y-58250000D01*
X66353731Y-58446321D01*
X66449865Y-58652483D01*
X66449867Y-58652486D01*
X66580339Y-58838818D01*
X66741181Y-58999660D01*
X66927513Y-59130132D01*
X66927516Y-59130134D01*
X67133679Y-59226268D01*
X67133678Y-59226268D01*
X67329999Y-59278872D01*
X67330000Y-59278872D01*
X67330000Y-58315686D01*
X67334394Y-58320080D01*
X67425606Y-58372741D01*
X67527339Y-58400000D01*
X67632661Y-58400000D01*
X67734394Y-58372741D01*
X67825606Y-58320080D01*
X67830000Y-58315686D01*
X67830000Y-59278872D01*
X68026321Y-59226268D01*
X68232483Y-59130134D01*
X68232486Y-59130132D01*
X68418818Y-58999660D01*
X68579660Y-58838818D01*
X68710132Y-58652486D01*
X68710134Y-58652483D01*
X68806268Y-58446321D01*
X68858872Y-58250000D01*
X67895686Y-58250000D01*
X67900080Y-58245606D01*
X67952741Y-58154394D01*
X67980000Y-58052661D01*
X67980000Y-57947339D01*
X67952741Y-57845606D01*
X67900080Y-57754394D01*
X67895686Y-57750000D01*
X68858872Y-57750000D01*
X68858872Y-57749999D01*
X68806268Y-57553678D01*
X68773591Y-57483601D01*
X68754961Y-57397019D01*
X68775744Y-57310928D01*
X68831821Y-57242381D01*
X68912087Y-57204952D01*
X68953946Y-57200500D01*
X70114070Y-57200500D01*
X70114111Y-57200497D01*
X70168099Y-57200498D01*
X70436815Y-57170222D01*
X70639806Y-57123890D01*
X70661843Y-57120149D01*
X70674160Y-57118765D01*
X71930411Y-56791603D01*
X71963217Y-56785938D01*
X71966692Y-56785635D01*
X71966699Y-56785633D01*
X71966700Y-56785633D01*
X72041647Y-56765551D01*
X72186496Y-56726739D01*
X72237697Y-56702862D01*
X72242162Y-56700849D01*
X72276376Y-56685950D01*
X72276381Y-56685946D01*
X72278459Y-56684740D01*
X72294300Y-56676468D01*
X72392728Y-56630571D01*
X72392732Y-56630569D01*
X72392732Y-56630568D01*
X72392734Y-56630568D01*
X72579139Y-56500047D01*
X72740047Y-56339139D01*
X72870568Y-56152734D01*
X72966739Y-55946496D01*
X72969823Y-55934989D01*
X73025632Y-55726704D01*
X73025632Y-55726701D01*
X73025635Y-55726692D01*
X73045468Y-55500000D01*
X73025635Y-55273308D01*
X73020267Y-55253273D01*
X72966741Y-55053509D01*
X72966739Y-55053504D01*
X72870568Y-54847266D01*
X72740047Y-54660861D01*
X72579139Y-54499953D01*
X72392734Y-54369432D01*
X72392732Y-54369431D01*
X72385617Y-54364449D01*
X72386435Y-54363280D01*
X72328691Y-54309702D01*
X72296335Y-54227261D01*
X72302953Y-54138945D01*
X72347234Y-54062247D01*
X72420408Y-54012357D01*
X72493112Y-53998600D01*
X76934337Y-53998600D01*
X76944101Y-53998839D01*
G37*
%TD.AperFunction*%
%TA.AperFunction,Conductor*%
G36*
X66195492Y-54018307D02*
G01*
X66264733Y-54073526D01*
X66303160Y-54153318D01*
X66303160Y-54241882D01*
X66301368Y-54249106D01*
X66301128Y-54250000D01*
X67264314Y-54250000D01*
X67259920Y-54254394D01*
X67207259Y-54345606D01*
X67180000Y-54447339D01*
X67180000Y-54552661D01*
X67207259Y-54654394D01*
X67259920Y-54745606D01*
X67264314Y-54750000D01*
X66301127Y-54750000D01*
X66353731Y-54946321D01*
X66449865Y-55152483D01*
X66449867Y-55152486D01*
X66580339Y-55338818D01*
X66741181Y-55499660D01*
X66782227Y-55528401D01*
X66841651Y-55594068D01*
X66866699Y-55679016D01*
X66852408Y-55766419D01*
X66801610Y-55838965D01*
X66724366Y-55882287D01*
X66696409Y-55888386D01*
X66662741Y-55893227D01*
X66662716Y-55893231D01*
X66234030Y-55986488D01*
X66234023Y-55986489D01*
X65813072Y-56110094D01*
X65569847Y-56200813D01*
X65402003Y-56263416D01*
X65349100Y-56287575D01*
X65002913Y-56445675D01*
X64617862Y-56655929D01*
X64617856Y-56655933D01*
X64248797Y-56893112D01*
X64248779Y-56893125D01*
X63897557Y-57156047D01*
X63897556Y-57156048D01*
X63566007Y-57443337D01*
X63565986Y-57443355D01*
X63459669Y-57549670D01*
X63459663Y-57549678D01*
X61097071Y-59912269D01*
X61089997Y-59919005D01*
X60881449Y-60108021D01*
X60866353Y-60120409D01*
X60644224Y-60285151D01*
X60627986Y-60296001D01*
X60390773Y-60438181D01*
X60373549Y-60447387D01*
X60154438Y-60551020D01*
X60123541Y-60565633D01*
X60105498Y-60573106D01*
X59845107Y-60666275D01*
X59826419Y-60671944D01*
X59558147Y-60739142D01*
X59538993Y-60742952D01*
X59265425Y-60783531D01*
X59245990Y-60785445D01*
X59109987Y-60792126D01*
X59022781Y-60776679D01*
X59020420Y-60775664D01*
X58227433Y-60428525D01*
X57939717Y-60302574D01*
X57939674Y-60302555D01*
X57939634Y-60302538D01*
X57933681Y-60299978D01*
X57933500Y-60299901D01*
X57922584Y-60296001D01*
X57899987Y-60287927D01*
X57882854Y-60280889D01*
X57866496Y-60273261D01*
X57866494Y-60273260D01*
X57866491Y-60273259D01*
X57866489Y-60273258D01*
X57646704Y-60214367D01*
X57646692Y-60214365D01*
X57420000Y-60194532D01*
X57193307Y-60214365D01*
X57193302Y-60214366D01*
X57137803Y-60229237D01*
X57049301Y-60232547D01*
X56968128Y-60197130D01*
X56910360Y-60130001D01*
X56887439Y-60044455D01*
X56887300Y-60037017D01*
X56887300Y-59462982D01*
X56907007Y-59376639D01*
X56962226Y-59307398D01*
X57042018Y-59268971D01*
X57130582Y-59268971D01*
X57137800Y-59270761D01*
X57193308Y-59285635D01*
X57420000Y-59305468D01*
X57646692Y-59285635D01*
X57646701Y-59285632D01*
X57646704Y-59285632D01*
X57866490Y-59226741D01*
X57866491Y-59226740D01*
X57866496Y-59226739D01*
X58072734Y-59130568D01*
X58259139Y-59000047D01*
X58420047Y-58839139D01*
X58550568Y-58652734D01*
X58646739Y-58446496D01*
X58654514Y-58417482D01*
X58705632Y-58226704D01*
X58705632Y-58226701D01*
X58705635Y-58226692D01*
X58725468Y-58000000D01*
X58705635Y-57773308D01*
X58705632Y-57773295D01*
X58646741Y-57553509D01*
X58641455Y-57542173D01*
X58550568Y-57347266D01*
X58420047Y-57160861D01*
X58259139Y-56999953D01*
X58072734Y-56869432D01*
X57928857Y-56802340D01*
X57866490Y-56773258D01*
X57646704Y-56714367D01*
X57646692Y-56714365D01*
X57420000Y-56694532D01*
X57193307Y-56714365D01*
X57193303Y-56714366D01*
X57142786Y-56727902D01*
X57054284Y-56731212D01*
X56973111Y-56695796D01*
X56915343Y-56628667D01*
X56892422Y-56543121D01*
X56892709Y-56522667D01*
X56892961Y-56518836D01*
X56898464Y-56434861D01*
X56901862Y-56409056D01*
X56906077Y-56387867D01*
X56932620Y-56254425D01*
X56939354Y-56229294D01*
X56945083Y-56212417D01*
X56991496Y-56136993D01*
X57052189Y-56094763D01*
X57922369Y-55705103D01*
X57964115Y-55684040D01*
X57964119Y-55684037D01*
X57970819Y-55679819D01*
X57992727Y-55667875D01*
X58072734Y-55630568D01*
X58259139Y-55500047D01*
X58420047Y-55339139D01*
X58550568Y-55152734D01*
X58646739Y-54946496D01*
X58652756Y-54924043D01*
X58705632Y-54726704D01*
X58705632Y-54726701D01*
X58705635Y-54726692D01*
X58725468Y-54500000D01*
X58705635Y-54273308D01*
X58699150Y-54249105D01*
X58695838Y-54160603D01*
X58731254Y-54079429D01*
X58798383Y-54021661D01*
X58883929Y-53998739D01*
X58891369Y-53998600D01*
X66109149Y-53998600D01*
X66195492Y-54018307D01*
G37*
%TD.AperFunction*%
%TA.AperFunction,Conductor*%
G36*
X71073231Y-54018307D02*
G01*
X71142472Y-54073526D01*
X71180899Y-54153318D01*
X71180899Y-54241882D01*
X71142472Y-54321674D01*
X71093775Y-54363581D01*
X71094383Y-54364449D01*
X71087267Y-54369431D01*
X71087266Y-54369432D01*
X70971698Y-54450353D01*
X70900858Y-54499955D01*
X70739955Y-54660858D01*
X70609432Y-54847265D01*
X70573629Y-54924043D01*
X70557375Y-54950964D01*
X70557936Y-54951331D01*
X70554050Y-54957276D01*
X70554048Y-54957279D01*
X70149894Y-55684037D01*
X70142565Y-55697216D01*
X70083378Y-55763098D01*
X70001468Y-55796775D01*
X69968648Y-55799500D01*
X68599407Y-55799500D01*
X68513064Y-55779793D01*
X68443823Y-55724574D01*
X68405396Y-55644782D01*
X68405396Y-55556218D01*
X68443823Y-55476426D01*
X68458693Y-55459786D01*
X68579660Y-55338818D01*
X68710132Y-55152486D01*
X68710134Y-55152483D01*
X68806268Y-54946321D01*
X68858872Y-54750000D01*
X67895686Y-54750000D01*
X67900080Y-54745606D01*
X67952741Y-54654394D01*
X67980000Y-54552661D01*
X67980000Y-54447339D01*
X67952741Y-54345606D01*
X67900080Y-54254394D01*
X67895686Y-54250000D01*
X68858871Y-54250000D01*
X68858632Y-54249106D01*
X68855320Y-54160605D01*
X68890735Y-54079431D01*
X68957863Y-54021662D01*
X69043409Y-53998739D01*
X69050851Y-53998600D01*
X70986888Y-53998600D01*
X71073231Y-54018307D01*
G37*
%TD.AperFunction*%
%TA.AperFunction,Conductor*%
G36*
X112887343Y-40519707D02*
G01*
X112956584Y-40574926D01*
X112995011Y-40654718D01*
X113000000Y-40699000D01*
X113000000Y-76301000D01*
X112980293Y-76387343D01*
X112925074Y-76456584D01*
X112845282Y-76495011D01*
X112801000Y-76500000D01*
X44699000Y-76500000D01*
X44612657Y-76480293D01*
X44543416Y-76425074D01*
X44504989Y-76345282D01*
X44500000Y-76301000D01*
X44500000Y-73000000D01*
X46644341Y-73000000D01*
X46661883Y-73200507D01*
X46664938Y-73235414D01*
X46726095Y-73463659D01*
X46726095Y-73463660D01*
X46825964Y-73677829D01*
X46825966Y-73677833D01*
X46961506Y-73871403D01*
X47128596Y-74038493D01*
X47322166Y-74174033D01*
X47322170Y-74174035D01*
X47536339Y-74273904D01*
X47716344Y-74322135D01*
X47764592Y-74335063D01*
X48000000Y-74355659D01*
X48235408Y-74335063D01*
X48463659Y-74273904D01*
X48463660Y-74273904D01*
X48463660Y-74273903D01*
X48463663Y-74273903D01*
X48677830Y-74174035D01*
X48871401Y-74038495D01*
X48961171Y-73948724D01*
X49036157Y-73901608D01*
X49124164Y-73891691D01*
X49207758Y-73920941D01*
X49223024Y-73931560D01*
X49259129Y-73959264D01*
X49259133Y-73959266D01*
X49259134Y-73959267D01*
X49440399Y-74063918D01*
X49440400Y-74063918D01*
X49440403Y-74063920D01*
X49633787Y-74144018D01*
X49669033Y-74153461D01*
X49835962Y-74198186D01*
X49835968Y-74198187D01*
X49835972Y-74198188D01*
X50043497Y-74225503D01*
X50148153Y-74225500D01*
X50148156Y-74225500D01*
X51529965Y-74225500D01*
X51616308Y-74245207D01*
X51650846Y-74266422D01*
X52309802Y-74770329D01*
X52326320Y-74782438D01*
X52335073Y-74786879D01*
X52364284Y-74805033D01*
X52382669Y-74818796D01*
X52382672Y-74818797D01*
X52429960Y-74836434D01*
X52450462Y-74845424D01*
X52454632Y-74847540D01*
X52461714Y-74849940D01*
X52461718Y-74849941D01*
X52461730Y-74849945D01*
X52466197Y-74851099D01*
X52485950Y-74857317D01*
X52517517Y-74869091D01*
X52577127Y-74875500D01*
X54372872Y-74875499D01*
X54372876Y-74875499D01*
X54412612Y-74871227D01*
X54432483Y-74869091D01*
X54567331Y-74818796D01*
X54682546Y-74732546D01*
X54768796Y-74617331D01*
X54819091Y-74482483D01*
X54825500Y-74422873D01*
X54825499Y-72627128D01*
X54825499Y-72627123D01*
X54819092Y-72567521D01*
X54818428Y-72565740D01*
X54801732Y-72520975D01*
X54790024Y-72433195D01*
X54817563Y-72349022D01*
X54878896Y-72285133D01*
X54961875Y-72254183D01*
X55050065Y-72262301D01*
X55094060Y-72282938D01*
X55280759Y-72400248D01*
X55280762Y-72400249D01*
X55280766Y-72400252D01*
X55280773Y-72400255D01*
X55280780Y-72400259D01*
X55526988Y-72518826D01*
X55526993Y-72518828D01*
X55778363Y-72606785D01*
X55784954Y-72609091D01*
X56051396Y-72669904D01*
X56322971Y-72700501D01*
X56459618Y-72700500D01*
X65442183Y-72700500D01*
X65511179Y-72700500D01*
X65521638Y-72700500D01*
X65521746Y-72700494D01*
X65621835Y-72700495D01*
X65979773Y-72669181D01*
X66333619Y-72606789D01*
X66423403Y-72582731D01*
X66680665Y-72513800D01*
X66680670Y-72513797D01*
X66680681Y-72513795D01*
X67018318Y-72390906D01*
X67343958Y-72239058D01*
X67655126Y-72059406D01*
X67949451Y-71853318D01*
X68224695Y-71622361D01*
X68347777Y-71499278D01*
X68355860Y-71491636D01*
X68502699Y-71360414D01*
X68570312Y-71299992D01*
X68587758Y-71286079D01*
X68605757Y-71273308D01*
X68817717Y-71122913D01*
X68836597Y-71111049D01*
X69083407Y-70974643D01*
X69103502Y-70964966D01*
X69364000Y-70857065D01*
X69385060Y-70849697D01*
X69656020Y-70771634D01*
X69677763Y-70766671D01*
X69955760Y-70719438D01*
X69977913Y-70716942D01*
X70205463Y-70704164D01*
X70265146Y-70700813D01*
X70276303Y-70700500D01*
X70349538Y-70700500D01*
X70465502Y-70700500D01*
X70551845Y-70720207D01*
X70621086Y-70775426D01*
X70659513Y-70855218D01*
X70659513Y-70943782D01*
X70645857Y-70983601D01*
X70613259Y-71053506D01*
X70613259Y-71053507D01*
X70554367Y-71273295D01*
X70554365Y-71273307D01*
X70534532Y-71500000D01*
X70554365Y-71726692D01*
X70554367Y-71726704D01*
X70613258Y-71946490D01*
X70613261Y-71946496D01*
X70709432Y-72152734D01*
X70839953Y-72339139D01*
X71000861Y-72500047D01*
X71187266Y-72630568D01*
X71393504Y-72726739D01*
X71393505Y-72726739D01*
X71393509Y-72726741D01*
X71613295Y-72785632D01*
X71613299Y-72785632D01*
X71613308Y-72785635D01*
X71840000Y-72805468D01*
X72066692Y-72785635D01*
X72066701Y-72785632D01*
X72066704Y-72785632D01*
X72286490Y-72726741D01*
X72286491Y-72726740D01*
X72286496Y-72726739D01*
X72492734Y-72630568D01*
X72679139Y-72500047D01*
X72840047Y-72339139D01*
X72970568Y-72152734D01*
X73066739Y-71946496D01*
X73072283Y-71925808D01*
X73125632Y-71726704D01*
X73125632Y-71726701D01*
X73125635Y-71726692D01*
X73145468Y-71500000D01*
X73125635Y-71273308D01*
X73120096Y-71252637D01*
X73066740Y-71053507D01*
X73066740Y-71053506D01*
X73034143Y-70983601D01*
X73015513Y-70897019D01*
X73036296Y-70810929D01*
X73092373Y-70742381D01*
X73172638Y-70704952D01*
X73214498Y-70700500D01*
X80625502Y-70700500D01*
X80711845Y-70720207D01*
X80781086Y-70775426D01*
X80819513Y-70855218D01*
X80819513Y-70943782D01*
X80805857Y-70983601D01*
X80773259Y-71053506D01*
X80773259Y-71053507D01*
X80714367Y-71273295D01*
X80714365Y-71273307D01*
X80694532Y-71500000D01*
X80714365Y-71726692D01*
X80714367Y-71726704D01*
X80773258Y-71946490D01*
X80773261Y-71946496D01*
X80869432Y-72152734D01*
X80999953Y-72339139D01*
X81160861Y-72500047D01*
X81347266Y-72630568D01*
X81553504Y-72726739D01*
X81553505Y-72726739D01*
X81553509Y-72726741D01*
X81773295Y-72785632D01*
X81773299Y-72785632D01*
X81773308Y-72785635D01*
X82000000Y-72805468D01*
X82226692Y-72785635D01*
X82226701Y-72785632D01*
X82226704Y-72785632D01*
X82446490Y-72726741D01*
X82446491Y-72726740D01*
X82446496Y-72726739D01*
X82652734Y-72630568D01*
X82839139Y-72500047D01*
X83000047Y-72339139D01*
X83130568Y-72152734D01*
X83226739Y-71946496D01*
X83232283Y-71925808D01*
X83287884Y-71718300D01*
X83290029Y-71718874D01*
X83319234Y-71649571D01*
X83385631Y-71590963D01*
X83470881Y-71566966D01*
X83558101Y-71582336D01*
X83614463Y-71618269D01*
X83751257Y-71742252D01*
X83758332Y-71748988D01*
X83818187Y-71808844D01*
X83818369Y-71809007D01*
X83892713Y-71883350D01*
X84189573Y-72136893D01*
X84189579Y-72136898D01*
X84505410Y-72366363D01*
X84505413Y-72366365D01*
X84505423Y-72366372D01*
X84838298Y-72570359D01*
X85186152Y-72747601D01*
X85546840Y-72897005D01*
X85918137Y-73017648D01*
X86094743Y-73060048D01*
X86297738Y-73108785D01*
X86297741Y-73108785D01*
X86297756Y-73108789D01*
X86683355Y-73169864D01*
X86683368Y-73169865D01*
X87072553Y-73200498D01*
X87072557Y-73200498D01*
X87186569Y-73200498D01*
X87186579Y-73200500D01*
X87198773Y-73200500D01*
X87267760Y-73200500D01*
X87346688Y-73200500D01*
X98437190Y-73200500D01*
X98437220Y-73200506D01*
X98519625Y-73200506D01*
X98519625Y-73200507D01*
X98721536Y-73200506D01*
X99124113Y-73168821D01*
X99522963Y-73105648D01*
X99522969Y-73105646D01*
X99522977Y-73105645D01*
X99645150Y-73076312D01*
X99915627Y-73011376D01*
X100299683Y-72886587D01*
X100672766Y-72732050D01*
X101032573Y-72548718D01*
X101376887Y-72337721D01*
X101703586Y-72100361D01*
X102010654Y-71838099D01*
X102090344Y-71758407D01*
X102090359Y-71758396D01*
X102306424Y-71542331D01*
X102348754Y-71500001D01*
X105394785Y-71500001D01*
X105397654Y-71530958D01*
X105413603Y-71703083D01*
X105465708Y-71886212D01*
X105469419Y-71899252D01*
X105560329Y-72081825D01*
X105683233Y-72244575D01*
X105683241Y-72244585D01*
X105816827Y-72366363D01*
X105833959Y-72381981D01*
X105833961Y-72381982D01*
X105833962Y-72381983D01*
X106007360Y-72489347D01*
X106007363Y-72489348D01*
X106197544Y-72563024D01*
X106398024Y-72600500D01*
X106398027Y-72600500D01*
X106601972Y-72600500D01*
X106601976Y-72600500D01*
X106802456Y-72563024D01*
X106992637Y-72489348D01*
X107038292Y-72461080D01*
X107084177Y-72432669D01*
X107166041Y-72381981D01*
X107306229Y-72254183D01*
X107316758Y-72244585D01*
X107316759Y-72244583D01*
X107316764Y-72244579D01*
X107439673Y-72081821D01*
X107530582Y-71899250D01*
X107586397Y-71703083D01*
X107605215Y-71500000D01*
X107586397Y-71296917D01*
X107530582Y-71100750D01*
X107439673Y-70918179D01*
X107439671Y-70918177D01*
X107439670Y-70918174D01*
X107336711Y-70781835D01*
X107316764Y-70755421D01*
X107316762Y-70755419D01*
X107316758Y-70755414D01*
X107166042Y-70618020D01*
X107166037Y-70618016D01*
X106992639Y-70510652D01*
X106992636Y-70510651D01*
X106802460Y-70436977D01*
X106802457Y-70436976D01*
X106802456Y-70436976D01*
X106601976Y-70399500D01*
X106398024Y-70399500D01*
X106197544Y-70436976D01*
X106197542Y-70436976D01*
X106197540Y-70436977D01*
X106197538Y-70436977D01*
X106007363Y-70510651D01*
X106007360Y-70510652D01*
X105833962Y-70618016D01*
X105833957Y-70618020D01*
X105683241Y-70755414D01*
X105683233Y-70755424D01*
X105560329Y-70918174D01*
X105473677Y-71092197D01*
X105469418Y-71100750D01*
X105456890Y-71144782D01*
X105413603Y-71296916D01*
X105413603Y-71296917D01*
X105394785Y-71499998D01*
X105394785Y-71500001D01*
X102348754Y-71500001D01*
X102959285Y-70889468D01*
X103034271Y-70842351D01*
X103122278Y-70832435D01*
X103145402Y-70836433D01*
X103339765Y-70881981D01*
X103550249Y-70931307D01*
X103601072Y-70943217D01*
X103627551Y-70951405D01*
X103637715Y-70955342D01*
X103657544Y-70963024D01*
X103858024Y-71000500D01*
X103858027Y-71000500D01*
X104061972Y-71000500D01*
X104061976Y-71000500D01*
X104262456Y-70963024D01*
X104452637Y-70889348D01*
X104453274Y-70888954D01*
X104571161Y-70815961D01*
X104626041Y-70781981D01*
X104727446Y-70689538D01*
X104776758Y-70644585D01*
X104776759Y-70644583D01*
X104776764Y-70644579D01*
X104899673Y-70481821D01*
X104990582Y-70299250D01*
X105046397Y-70103083D01*
X105065215Y-69900000D01*
X105063177Y-69878011D01*
X105060352Y-69847516D01*
X105046397Y-69696917D01*
X104990582Y-69500750D01*
X104899673Y-69318179D01*
X104899671Y-69318177D01*
X104899670Y-69318174D01*
X104776766Y-69155424D01*
X104776758Y-69155414D01*
X104634271Y-69025521D01*
X104626041Y-69018019D01*
X104626039Y-69018018D01*
X104626037Y-69018016D01*
X104452639Y-68910652D01*
X104452636Y-68910651D01*
X104262460Y-68836977D01*
X104262457Y-68836976D01*
X104262456Y-68836976D01*
X104061976Y-68799500D01*
X103858024Y-68799500D01*
X103657544Y-68836976D01*
X103657542Y-68836976D01*
X103657540Y-68836977D01*
X103657538Y-68836977D01*
X103467364Y-68910651D01*
X103467363Y-68910651D01*
X103418993Y-68940600D01*
X103411714Y-68944895D01*
X102630536Y-69383804D01*
X102618301Y-69389750D01*
X102618379Y-69389907D01*
X102612543Y-69392784D01*
X102540361Y-69434454D01*
X102538350Y-69435599D01*
X102439051Y-69491391D01*
X102413935Y-69506477D01*
X102412784Y-69507214D01*
X102412693Y-69507279D01*
X102411104Y-69508291D01*
X102409337Y-69509424D01*
X102409334Y-69509419D01*
X102398024Y-69516628D01*
X102395707Y-69517965D01*
X102197080Y-69670367D01*
X102197076Y-69670370D01*
X102162853Y-69704591D01*
X102162819Y-69704622D01*
X102115043Y-69752399D01*
X102096805Y-69770637D01*
X102070525Y-69796916D01*
X102048853Y-69818587D01*
X102048839Y-69818601D01*
X101165868Y-70701573D01*
X101159597Y-70707577D01*
X100928756Y-70919104D01*
X100915457Y-70930263D01*
X100670531Y-71118202D01*
X100656310Y-71128160D01*
X100395932Y-71294040D01*
X100380897Y-71302720D01*
X100107068Y-71445266D01*
X100091335Y-71452603D01*
X99806111Y-71570748D01*
X99789797Y-71576685D01*
X99495362Y-71669521D01*
X99478594Y-71674015D01*
X99177187Y-71740837D01*
X99160089Y-71743851D01*
X98854029Y-71784145D01*
X98836736Y-71785659D01*
X98541904Y-71798533D01*
X98524106Y-71799311D01*
X98515426Y-71799500D01*
X97718253Y-71799500D01*
X97631910Y-71779793D01*
X97562669Y-71724574D01*
X97524242Y-71644782D01*
X97520010Y-71583156D01*
X97520371Y-71579023D01*
X96841348Y-70900000D01*
X96847561Y-70900000D01*
X96949294Y-70872741D01*
X97040506Y-70820080D01*
X97114980Y-70745606D01*
X97167641Y-70654394D01*
X97194900Y-70552661D01*
X97194900Y-70546448D01*
X97873924Y-71225472D01*
X97873924Y-71225471D01*
X97925033Y-71152483D01*
X97925036Y-71152478D01*
X98021164Y-70946330D01*
X98021166Y-70946326D01*
X98080041Y-70726603D01*
X98099865Y-70500000D01*
X98080041Y-70273396D01*
X98021166Y-70053673D01*
X98021164Y-70053669D01*
X97925037Y-69847523D01*
X97925032Y-69847516D01*
X97873925Y-69774527D01*
X97873924Y-69774526D01*
X97194900Y-70453551D01*
X97194900Y-70447339D01*
X97167641Y-70345606D01*
X97114980Y-70254394D01*
X97040506Y-70179920D01*
X96949294Y-70127259D01*
X96847561Y-70100000D01*
X96841348Y-70100000D01*
X97520371Y-69420974D01*
X97447377Y-69369863D01*
X97447376Y-69369862D01*
X97241230Y-69273735D01*
X97241226Y-69273733D01*
X97021502Y-69214858D01*
X97021505Y-69214858D01*
X96794900Y-69195034D01*
X96568296Y-69214858D01*
X96348573Y-69273733D01*
X96348570Y-69273735D01*
X96142418Y-69369865D01*
X96142414Y-69369867D01*
X96069427Y-69420973D01*
X96069427Y-69420974D01*
X96748453Y-70100000D01*
X96742239Y-70100000D01*
X96640506Y-70127259D01*
X96549294Y-70179920D01*
X96474820Y-70254394D01*
X96422159Y-70345606D01*
X96394900Y-70447339D01*
X96394900Y-70453553D01*
X95656363Y-69715016D01*
X95642369Y-69705726D01*
X95597144Y-69629580D01*
X95591759Y-69604230D01*
X95588991Y-69592518D01*
X95588654Y-69591613D01*
X95538696Y-69457669D01*
X95490123Y-69392784D01*
X95452446Y-69342453D01*
X95337235Y-69256207D01*
X95337231Y-69256204D01*
X95202383Y-69205909D01*
X95142773Y-69199500D01*
X95142768Y-69199500D01*
X93678847Y-69199500D01*
X93592504Y-69179793D01*
X93523263Y-69124574D01*
X93484836Y-69044782D01*
X93484836Y-68956218D01*
X93523263Y-68876426D01*
X93572970Y-68832003D01*
X93688301Y-68759537D01*
X93899722Y-68590935D01*
X93989812Y-68500843D01*
X94001261Y-68490260D01*
X94103536Y-68402911D01*
X94128783Y-68384567D01*
X94236775Y-68318390D01*
X94264571Y-68304227D01*
X94381583Y-68255759D01*
X94411265Y-68246115D01*
X94534408Y-68216551D01*
X94565248Y-68211666D01*
X94699356Y-68201112D01*
X94714961Y-68200500D01*
X94786031Y-68200500D01*
X104938053Y-68200500D01*
X104947819Y-68200740D01*
X104966715Y-68201668D01*
X105266102Y-68216379D01*
X105285501Y-68218290D01*
X105595900Y-68264337D01*
X105615042Y-68268145D01*
X105919422Y-68344392D01*
X105938096Y-68350057D01*
X106233522Y-68455766D01*
X106251557Y-68463237D01*
X106535220Y-68597405D01*
X106552425Y-68606602D01*
X106821558Y-68767920D01*
X106837777Y-68778757D01*
X107089817Y-68965688D01*
X107104892Y-68978060D01*
X107220738Y-69083060D01*
X107341729Y-69192724D01*
X107348800Y-69199457D01*
X107598354Y-69449011D01*
X107638082Y-69505810D01*
X108022591Y-70332618D01*
X108042371Y-70370812D01*
X108047352Y-70378573D01*
X108046607Y-70379050D01*
X108058714Y-70398251D01*
X108100326Y-70481820D01*
X108100327Y-70481822D01*
X108223233Y-70644575D01*
X108223241Y-70644585D01*
X108332931Y-70744579D01*
X108373959Y-70781981D01*
X108373961Y-70781982D01*
X108373962Y-70781983D01*
X108547360Y-70889347D01*
X108547363Y-70889348D01*
X108737544Y-70963024D01*
X108938024Y-71000500D01*
X108938027Y-71000500D01*
X109141972Y-71000500D01*
X109141976Y-71000500D01*
X109342456Y-70963024D01*
X109532637Y-70889348D01*
X109533274Y-70888954D01*
X109651161Y-70815961D01*
X109706041Y-70781981D01*
X109807446Y-70689538D01*
X109856758Y-70644585D01*
X109856759Y-70644583D01*
X109856764Y-70644579D01*
X109979673Y-70481821D01*
X110070582Y-70299250D01*
X110126397Y-70103083D01*
X110145215Y-69900000D01*
X110143177Y-69878011D01*
X110140352Y-69847516D01*
X110126397Y-69696917D01*
X110070582Y-69500750D01*
X109979673Y-69318179D01*
X109979671Y-69318177D01*
X109979670Y-69318174D01*
X109856766Y-69155424D01*
X109856758Y-69155414D01*
X109714271Y-69025521D01*
X109706041Y-69018019D01*
X109706039Y-69018018D01*
X109706037Y-69018016D01*
X109532639Y-68910653D01*
X109532627Y-68910647D01*
X109510170Y-68901947D01*
X109478905Y-68885915D01*
X109478835Y-68886042D01*
X109474990Y-68883908D01*
X109473340Y-68883062D01*
X109472624Y-68882595D01*
X109472622Y-68882594D01*
X109472619Y-68882592D01*
X108665459Y-68507221D01*
X108645812Y-68498084D01*
X108589013Y-68458356D01*
X108279972Y-68149315D01*
X108279270Y-68148678D01*
X108202021Y-68071426D01*
X108184215Y-68056218D01*
X107955507Y-67860876D01*
X107915355Y-67826582D01*
X107610372Y-67604991D01*
X107288931Y-67408004D01*
X107288929Y-67408003D01*
X106953053Y-67236860D01*
X106953042Y-67236855D01*
X106953032Y-67236850D01*
X106604739Y-67092576D01*
X106246200Y-66976075D01*
X106246197Y-66976074D01*
X106246190Y-66976072D01*
X105879631Y-66888064D01*
X105879626Y-66888063D01*
X105879625Y-66888063D01*
X105522535Y-66831501D01*
X105507270Y-66829083D01*
X105507254Y-66829081D01*
X105131445Y-66799501D01*
X105131455Y-66799501D01*
X105011939Y-66799500D01*
X105011936Y-66799500D01*
X94671583Y-66799500D01*
X94585240Y-66779793D01*
X94515999Y-66724574D01*
X94477572Y-66644782D01*
X94477572Y-66556218D01*
X94515999Y-66476426D01*
X94530869Y-66459786D01*
X95760752Y-65229903D01*
X97432294Y-63558362D01*
X97432295Y-63558359D01*
X97439557Y-63551098D01*
X97439691Y-63550950D01*
X97504224Y-63486419D01*
X97504224Y-63486418D01*
X97504234Y-63486409D01*
X97720878Y-63222432D01*
X97890537Y-62968525D01*
X97910600Y-62938499D01*
X97910601Y-62938496D01*
X97910605Y-62938491D01*
X98071586Y-62637320D01*
X98202272Y-62321821D01*
X98301404Y-61995031D01*
X98356887Y-61716103D01*
X98393059Y-61635268D01*
X98460725Y-61578129D01*
X98546481Y-61556008D01*
X98617787Y-61567097D01*
X98740546Y-61610052D01*
X99004183Y-61670225D01*
X99272900Y-61700501D01*
X99408108Y-61700500D01*
X107065990Y-61700500D01*
X107134986Y-61700500D01*
X107147170Y-61700500D01*
X107147211Y-61700497D01*
X107201199Y-61700498D01*
X107469915Y-61670222D01*
X107733553Y-61610049D01*
X107988795Y-61520737D01*
X108232432Y-61403408D01*
X108461401Y-61259537D01*
X108616997Y-61135453D01*
X108696787Y-61097029D01*
X108784907Y-61096928D01*
X109537221Y-61266828D01*
X109561065Y-61273830D01*
X109561336Y-61273902D01*
X109561337Y-61273903D01*
X109789592Y-61335063D01*
X110025000Y-61355659D01*
X110260408Y-61335063D01*
X110488659Y-61273904D01*
X110488660Y-61273904D01*
X110488660Y-61273903D01*
X110488663Y-61273903D01*
X110702830Y-61174035D01*
X110896401Y-61038495D01*
X111063495Y-60871401D01*
X111199035Y-60677830D01*
X111298903Y-60463663D01*
X111360063Y-60235408D01*
X111380659Y-60000000D01*
X111360063Y-59764592D01*
X111349908Y-59726692D01*
X111298905Y-59536342D01*
X111285447Y-59507481D01*
X111199035Y-59322171D01*
X111064570Y-59130134D01*
X111063498Y-59128603D01*
X111063497Y-59128601D01*
X111063495Y-59128599D01*
X111024090Y-59089194D01*
X110976971Y-59014206D01*
X110967055Y-58926199D01*
X110996306Y-58842606D01*
X111058930Y-58779982D01*
X111095252Y-58762030D01*
X111117331Y-58753796D01*
X111232546Y-58667546D01*
X111318796Y-58552331D01*
X111369091Y-58417483D01*
X111375500Y-58357873D01*
X111375499Y-56562128D01*
X111375499Y-56562123D01*
X111369091Y-56502518D01*
X111368170Y-56500047D01*
X111318796Y-56367669D01*
X111245617Y-56269914D01*
X111232546Y-56252453D01*
X111117335Y-56166207D01*
X111117331Y-56166204D01*
X110982483Y-56115909D01*
X110922873Y-56109500D01*
X110922868Y-56109500D01*
X110515488Y-56109500D01*
X110440854Y-56094974D01*
X108955922Y-55494205D01*
X108916414Y-55472742D01*
X108855306Y-55429953D01*
X108855296Y-55429947D01*
X108855292Y-55429944D01*
X108850759Y-55427327D01*
X108549289Y-55253274D01*
X108229055Y-55103947D01*
X107897014Y-54983096D01*
X107778461Y-54951331D01*
X107555710Y-54891647D01*
X107555703Y-54891645D01*
X107555696Y-54891644D01*
X107207742Y-54830293D01*
X107207734Y-54830292D01*
X106855735Y-54799498D01*
X106855730Y-54799498D01*
X106679064Y-54799500D01*
X101757888Y-54799500D01*
X101750074Y-54799347D01*
X101389790Y-54785189D01*
X101374212Y-54783962D01*
X101020074Y-54742044D01*
X101004642Y-54739600D01*
X100654856Y-54670022D01*
X100639663Y-54666374D01*
X100296437Y-54569573D01*
X100281576Y-54564745D01*
X99946980Y-54441305D01*
X99932545Y-54435325D01*
X99608676Y-54286019D01*
X99594753Y-54278925D01*
X99283607Y-54104674D01*
X99270285Y-54096510D01*
X98973746Y-53898369D01*
X98961105Y-53889185D01*
X98681046Y-53668405D01*
X98669164Y-53658257D01*
X98404205Y-53413331D01*
X98398572Y-53407915D01*
X93740657Y-48750000D01*
X105427472Y-48750000D01*
X105469886Y-48899067D01*
X105469886Y-48899068D01*
X105560753Y-49081555D01*
X105560754Y-49081557D01*
X105683604Y-49244236D01*
X105683612Y-49244246D01*
X105834259Y-49381577D01*
X105834270Y-49381586D01*
X106007584Y-49488897D01*
X106007599Y-49488904D01*
X106197672Y-49562538D01*
X106197678Y-49562540D01*
X106250000Y-49572320D01*
X106250000Y-48750000D01*
X105427472Y-48750000D01*
X93740657Y-48750000D01*
X93536735Y-48546078D01*
X106150000Y-48546078D01*
X106173852Y-48635095D01*
X106219930Y-48714905D01*
X106285095Y-48780070D01*
X106364905Y-48826148D01*
X106453922Y-48850000D01*
X106546078Y-48850000D01*
X106635095Y-48826148D01*
X106714905Y-48780070D01*
X106744975Y-48750000D01*
X106750000Y-48750000D01*
X106750000Y-49572319D01*
X106802321Y-49562540D01*
X106802327Y-49562538D01*
X106992400Y-49488904D01*
X106992415Y-49488897D01*
X107165729Y-49381586D01*
X107165740Y-49381577D01*
X107316387Y-49244246D01*
X107316395Y-49244236D01*
X107439245Y-49081557D01*
X107439246Y-49081555D01*
X107530113Y-48899068D01*
X107530113Y-48899067D01*
X107572528Y-48750000D01*
X106750000Y-48750000D01*
X106744975Y-48750000D01*
X106780070Y-48714905D01*
X106826148Y-48635095D01*
X106850000Y-48546078D01*
X106850000Y-48453922D01*
X106826148Y-48364905D01*
X106780070Y-48285095D01*
X106714905Y-48219930D01*
X106635095Y-48173852D01*
X106546078Y-48150000D01*
X106453922Y-48150000D01*
X106364905Y-48173852D01*
X106285095Y-48219930D01*
X106219930Y-48285095D01*
X106173852Y-48364905D01*
X106150000Y-48453922D01*
X106150000Y-48546078D01*
X93536735Y-48546078D01*
X93477750Y-48487093D01*
X93468849Y-48477590D01*
X93352750Y-48345207D01*
X93313115Y-48300012D01*
X93297271Y-48279365D01*
X93277650Y-48250000D01*
X105427472Y-48250000D01*
X106250000Y-48250000D01*
X106250000Y-47427678D01*
X106249999Y-47427677D01*
X106750000Y-47427677D01*
X106750000Y-48250000D01*
X107572528Y-48250000D01*
X107530113Y-48100932D01*
X107530113Y-48100931D01*
X107439246Y-47918444D01*
X107439245Y-47918442D01*
X107316395Y-47755763D01*
X107316387Y-47755753D01*
X107165740Y-47618422D01*
X107165729Y-47618413D01*
X106992415Y-47511102D01*
X106992410Y-47511100D01*
X106802310Y-47437456D01*
X106750000Y-47427677D01*
X106249999Y-47427677D01*
X106197689Y-47437456D01*
X106007589Y-47511100D01*
X106007584Y-47511102D01*
X105834270Y-47618413D01*
X105834259Y-47618422D01*
X105683612Y-47755753D01*
X105683604Y-47755763D01*
X105560754Y-47918442D01*
X105560753Y-47918444D01*
X105469886Y-48100931D01*
X105469886Y-48100932D01*
X105427472Y-48250000D01*
X93277650Y-48250000D01*
X93169671Y-48088401D01*
X93156667Y-48065877D01*
X93143641Y-48039465D01*
X93123129Y-47953315D01*
X93142027Y-47866792D01*
X93169548Y-47823691D01*
X93580676Y-47332762D01*
X93600284Y-47307795D01*
X93606971Y-47295301D01*
X93623097Y-47269978D01*
X93643796Y-47242331D01*
X93658547Y-47202777D01*
X93665450Y-47187499D01*
X93665298Y-47187431D01*
X93668197Y-47180943D01*
X93670921Y-47173451D01*
X93670921Y-47173448D01*
X93670924Y-47173442D01*
X93672267Y-47168466D01*
X93677927Y-47150817D01*
X93694091Y-47107483D01*
X93700500Y-47047873D01*
X93700500Y-46000004D01*
X94494859Y-46000004D01*
X94515385Y-46247730D01*
X94576413Y-46488720D01*
X94676265Y-46716364D01*
X94676267Y-46716366D01*
X94776564Y-46869882D01*
X95517037Y-46129409D01*
X95534075Y-46192993D01*
X95599901Y-46307007D01*
X95692993Y-46400099D01*
X95807007Y-46465925D01*
X95870590Y-46482962D01*
X95129942Y-47223609D01*
X95129942Y-47223610D01*
X95176765Y-47260053D01*
X95176767Y-47260054D01*
X95395387Y-47378366D01*
X95630511Y-47459083D01*
X95875702Y-47499999D01*
X95875708Y-47500000D01*
X96124292Y-47500000D01*
X96124297Y-47499999D01*
X96369488Y-47459083D01*
X96604612Y-47378366D01*
X96823229Y-47260056D01*
X96870056Y-47223609D01*
X96546448Y-46900001D01*
X102854785Y-46900001D01*
X102861336Y-46970696D01*
X102873603Y-47103083D01*
X102924517Y-47282026D01*
X102929419Y-47299252D01*
X103020329Y-47481825D01*
X103143233Y-47644575D01*
X103143241Y-47644585D01*
X103265188Y-47755753D01*
X103293959Y-47781981D01*
X103293961Y-47781982D01*
X103293962Y-47781983D01*
X103467360Y-47889347D01*
X103467363Y-47889348D01*
X103657544Y-47963024D01*
X103858024Y-48000500D01*
X103858027Y-48000500D01*
X104061972Y-48000500D01*
X104061976Y-48000500D01*
X104262456Y-47963024D01*
X104452637Y-47889348D01*
X104469796Y-47878724D01*
X104510438Y-47853559D01*
X104626041Y-47781981D01*
X104727382Y-47689596D01*
X104776758Y-47644585D01*
X104776759Y-47644583D01*
X104776764Y-47644579D01*
X104899673Y-47481821D01*
X104990582Y-47299250D01*
X105046397Y-47103083D01*
X105065215Y-46900001D01*
X107934785Y-46900001D01*
X107941336Y-46970696D01*
X107953603Y-47103083D01*
X108004517Y-47282026D01*
X108009419Y-47299252D01*
X108100329Y-47481825D01*
X108223233Y-47644575D01*
X108223241Y-47644585D01*
X108345188Y-47755753D01*
X108373959Y-47781981D01*
X108373961Y-47781982D01*
X108373962Y-47781983D01*
X108547360Y-47889347D01*
X108547363Y-47889348D01*
X108737544Y-47963024D01*
X108938024Y-48000500D01*
X108938027Y-48000500D01*
X109141972Y-48000500D01*
X109141976Y-48000500D01*
X109342456Y-47963024D01*
X109532637Y-47889348D01*
X109549796Y-47878724D01*
X109590438Y-47853559D01*
X109706041Y-47781981D01*
X109807382Y-47689596D01*
X109856758Y-47644585D01*
X109856759Y-47644583D01*
X109856764Y-47644579D01*
X109979673Y-47481821D01*
X110070582Y-47299250D01*
X110126397Y-47103083D01*
X110145215Y-46900000D01*
X110126397Y-46696917D01*
X110070582Y-46500750D01*
X109979673Y-46318179D01*
X109979671Y-46318177D01*
X109979670Y-46318174D01*
X109856766Y-46155424D01*
X109856758Y-46155414D01*
X109706042Y-46018020D01*
X109706037Y-46018016D01*
X109532639Y-45910652D01*
X109532636Y-45910651D01*
X109342460Y-45836977D01*
X109342457Y-45836976D01*
X109342456Y-45836976D01*
X109141976Y-45799500D01*
X108938024Y-45799500D01*
X108737544Y-45836976D01*
X108737542Y-45836976D01*
X108737540Y-45836977D01*
X108737538Y-45836977D01*
X108547363Y-45910651D01*
X108547360Y-45910652D01*
X108373962Y-46018016D01*
X108373957Y-46018020D01*
X108223241Y-46155414D01*
X108223233Y-46155424D01*
X108100329Y-46318174D01*
X108009791Y-46500001D01*
X108009418Y-46500750D01*
X108006388Y-46511399D01*
X107953603Y-46696916D01*
X107953603Y-46696917D01*
X107934785Y-46899998D01*
X107934785Y-46900001D01*
X105065215Y-46900001D01*
X105065215Y-46900000D01*
X105046397Y-46696917D01*
X104990582Y-46500750D01*
X104899673Y-46318179D01*
X104899671Y-46318177D01*
X104899670Y-46318174D01*
X104776766Y-46155424D01*
X104776758Y-46155414D01*
X104626042Y-46018020D01*
X104626037Y-46018016D01*
X104452639Y-45910652D01*
X104452636Y-45910651D01*
X104262460Y-45836977D01*
X104262457Y-45836976D01*
X104262456Y-45836976D01*
X104061976Y-45799500D01*
X103858024Y-45799500D01*
X103657544Y-45836976D01*
X103657542Y-45836976D01*
X103657540Y-45836977D01*
X103657538Y-45836977D01*
X103467363Y-45910651D01*
X103467360Y-45910652D01*
X103293962Y-46018016D01*
X103293957Y-46018020D01*
X103143241Y-46155414D01*
X103143233Y-46155424D01*
X103020329Y-46318174D01*
X102929791Y-46500001D01*
X102929418Y-46500750D01*
X102926388Y-46511399D01*
X102873603Y-46696916D01*
X102873603Y-46696917D01*
X102854785Y-46899998D01*
X102854785Y-46900001D01*
X96546448Y-46900001D01*
X96129410Y-46482962D01*
X96192993Y-46465925D01*
X96307007Y-46400099D01*
X96400099Y-46307007D01*
X96465925Y-46192993D01*
X96482962Y-46129409D01*
X97223434Y-46869882D01*
X97223435Y-46869881D01*
X97323728Y-46716374D01*
X97323734Y-46716364D01*
X97423586Y-46488720D01*
X97484614Y-46247730D01*
X97505141Y-46000004D01*
X97505141Y-45999995D01*
X97484614Y-45752269D01*
X97423586Y-45511279D01*
X97323734Y-45283635D01*
X97323728Y-45283625D01*
X97223435Y-45130117D01*
X96482962Y-45870589D01*
X96465925Y-45807007D01*
X96400099Y-45692993D01*
X96307007Y-45599901D01*
X96192993Y-45534075D01*
X96129410Y-45517037D01*
X96870057Y-44776389D01*
X96823233Y-44739946D01*
X96823232Y-44739945D01*
X96604612Y-44621633D01*
X96369488Y-44540916D01*
X96124297Y-44500000D01*
X95875702Y-44500000D01*
X95630511Y-44540916D01*
X95395384Y-44621634D01*
X95176773Y-44739941D01*
X95176769Y-44739943D01*
X95129942Y-44776389D01*
X95870590Y-45517037D01*
X95807007Y-45534075D01*
X95692993Y-45599901D01*
X95599901Y-45692993D01*
X95534075Y-45807007D01*
X95517037Y-45870589D01*
X94776564Y-45130116D01*
X94776563Y-45130116D01*
X94676270Y-45283627D01*
X94676265Y-45283635D01*
X94576413Y-45511279D01*
X94515385Y-45752269D01*
X94494859Y-45999995D01*
X94494859Y-46000004D01*
X93700500Y-46000004D01*
X93700499Y-44952128D01*
X93700499Y-44952123D01*
X93694091Y-44892518D01*
X93679271Y-44852782D01*
X93643796Y-44757669D01*
X93601010Y-44700514D01*
X93557546Y-44642453D01*
X93442335Y-44556207D01*
X93442331Y-44556204D01*
X93307483Y-44505909D01*
X93247873Y-44499500D01*
X93247868Y-44499500D01*
X91217177Y-44499500D01*
X91193405Y-44498075D01*
X91189983Y-44497663D01*
X91181054Y-44497869D01*
X91181022Y-44497870D01*
X91167373Y-44498918D01*
X91152189Y-44499500D01*
X91152128Y-44499501D01*
X91152126Y-44499501D01*
X91135986Y-44501235D01*
X91130012Y-44501785D01*
X91124945Y-44502175D01*
X91117724Y-44503198D01*
X91098275Y-44505289D01*
X91092516Y-44505909D01*
X91038269Y-44526141D01*
X91022391Y-44531315D01*
X90988481Y-44540810D01*
X90656101Y-44687576D01*
X90569155Y-44704425D01*
X90483509Y-44681881D01*
X90435004Y-44646247D01*
X90357655Y-44568898D01*
X90357644Y-44568881D01*
X90293431Y-44504668D01*
X90293432Y-44504668D01*
X90166399Y-44377634D01*
X89891155Y-44146677D01*
X89596829Y-43940589D01*
X89285661Y-43760936D01*
X89285658Y-43760934D01*
X88960024Y-43609089D01*
X88960020Y-43609087D01*
X88658927Y-43499500D01*
X88622383Y-43486199D01*
X88622381Y-43486198D01*
X88622377Y-43486197D01*
X88622367Y-43486193D01*
X88275335Y-43393208D01*
X88275312Y-43393203D01*
X87921481Y-43330815D01*
X87921478Y-43330814D01*
X87921474Y-43330814D01*
X87563536Y-43299499D01*
X87563530Y-43299499D01*
X87383883Y-43299500D01*
X77429410Y-43299500D01*
X77429131Y-43299513D01*
X77312981Y-43299513D01*
X77148582Y-43313894D01*
X76925349Y-43333422D01*
X76925343Y-43333422D01*
X76925343Y-43333423D01*
X76891063Y-43339467D01*
X76542144Y-43400988D01*
X76542142Y-43400988D01*
X76291562Y-43468129D01*
X76166276Y-43501699D01*
X76166273Y-43501699D01*
X76166273Y-43501700D01*
X75800626Y-43634782D01*
X75447959Y-43799231D01*
X75110978Y-43993787D01*
X75110975Y-43993789D01*
X75076149Y-44018174D01*
X74792230Y-44216975D01*
X74494138Y-44467104D01*
X74420432Y-44540810D01*
X74405358Y-44555884D01*
X74405356Y-44555886D01*
X74279361Y-44681881D01*
X74182772Y-44778470D01*
X74107783Y-44825588D01*
X74019777Y-44835504D01*
X73936183Y-44806253D01*
X73873560Y-44743629D01*
X73844309Y-44660035D01*
X73844198Y-44616487D01*
X73850500Y-44557873D01*
X73850499Y-42762128D01*
X73850499Y-42762127D01*
X73850499Y-42762123D01*
X73844091Y-42702518D01*
X73793796Y-42567670D01*
X73793796Y-42567669D01*
X73771750Y-42538219D01*
X73707546Y-42452453D01*
X73592335Y-42366207D01*
X73592331Y-42366204D01*
X73457483Y-42315909D01*
X73397873Y-42309500D01*
X73397867Y-42309500D01*
X71602123Y-42309500D01*
X71542518Y-42315908D01*
X71407670Y-42366203D01*
X71407664Y-42366207D01*
X71292453Y-42452453D01*
X71206207Y-42567664D01*
X71206204Y-42567669D01*
X71155909Y-42702517D01*
X71149500Y-42762127D01*
X71149500Y-42762128D01*
X71149500Y-42762132D01*
X71149500Y-44557876D01*
X71155908Y-44617481D01*
X71206203Y-44752329D01*
X71206207Y-44752335D01*
X71292453Y-44867546D01*
X71354996Y-44914365D01*
X71407669Y-44953796D01*
X71429738Y-44962027D01*
X71503750Y-45010665D01*
X71549329Y-45086600D01*
X71557448Y-45174790D01*
X71526498Y-45257769D01*
X71500911Y-45289193D01*
X71461501Y-45328603D01*
X71325965Y-45522171D01*
X71226094Y-45736342D01*
X71164938Y-45964585D01*
X71164937Y-45964589D01*
X71164937Y-45964592D01*
X71144341Y-46200000D01*
X71164175Y-46426704D01*
X71164938Y-46435414D01*
X71226095Y-46663659D01*
X71226095Y-46663660D01*
X71325964Y-46877829D01*
X71325966Y-46877833D01*
X71461506Y-47071403D01*
X71628596Y-47238493D01*
X71822166Y-47374033D01*
X71822170Y-47374035D01*
X72036339Y-47473904D01*
X72175167Y-47511102D01*
X72264592Y-47535063D01*
X72500000Y-47555659D01*
X72735408Y-47535063D01*
X72963659Y-47473904D01*
X72963660Y-47473904D01*
X72963660Y-47473903D01*
X72963663Y-47473903D01*
X73177830Y-47374035D01*
X73371401Y-47238495D01*
X73392703Y-47217191D01*
X73417476Y-47196169D01*
X74300512Y-46563273D01*
X74310538Y-46556540D01*
X74407810Y-46495418D01*
X74515859Y-46409247D01*
X74523955Y-46403125D01*
X74550789Y-46383894D01*
X74580242Y-46361096D01*
X74581555Y-46360000D01*
X74589180Y-46352374D01*
X74598036Y-46344468D01*
X74597852Y-46344262D01*
X74602019Y-46340537D01*
X74602022Y-46340535D01*
X74631561Y-46310994D01*
X74631566Y-46310991D01*
X74689847Y-46252707D01*
X74689848Y-46252708D01*
X74726741Y-46215814D01*
X75343769Y-45598784D01*
X75350808Y-45592083D01*
X75562136Y-45400546D01*
X75577212Y-45388173D01*
X75802353Y-45221197D01*
X75818572Y-45210361D01*
X76058979Y-45066268D01*
X76076173Y-45057077D01*
X76329555Y-44937237D01*
X76347567Y-44929776D01*
X76611469Y-44835352D01*
X76630149Y-44829686D01*
X76902037Y-44761583D01*
X76921171Y-44757778D01*
X77129139Y-44726931D01*
X77217438Y-44733756D01*
X77294032Y-44778217D01*
X77343750Y-44851509D01*
X77356744Y-44939114D01*
X77330441Y-45023681D01*
X77272478Y-45086788D01*
X77110859Y-45199954D01*
X76949955Y-45360858D01*
X76819432Y-45547266D01*
X76723258Y-45753509D01*
X76664367Y-45973295D01*
X76664365Y-45973307D01*
X76644532Y-46200000D01*
X76664365Y-46426692D01*
X76664367Y-46426704D01*
X76723258Y-46646490D01*
X76723261Y-46646496D01*
X76819432Y-46852734D01*
X76949953Y-47039139D01*
X77110861Y-47200047D01*
X77297266Y-47330568D01*
X77503504Y-47426739D01*
X77503505Y-47426739D01*
X77503509Y-47426741D01*
X77723295Y-47485632D01*
X77723299Y-47485632D01*
X77723308Y-47485635D01*
X77950000Y-47505468D01*
X78176692Y-47485635D01*
X78176701Y-47485632D01*
X78176704Y-47485632D01*
X78396490Y-47426741D01*
X78396491Y-47426740D01*
X78396496Y-47426739D01*
X78602734Y-47330568D01*
X78789139Y-47200047D01*
X78950047Y-47039139D01*
X79080568Y-46852734D01*
X79176739Y-46646496D01*
X79200846Y-46556529D01*
X79235632Y-46426704D01*
X79235632Y-46426701D01*
X79235635Y-46426692D01*
X79255468Y-46200000D01*
X79235635Y-45973308D01*
X79233298Y-45964585D01*
X79176741Y-45753509D01*
X79168736Y-45736342D01*
X79080568Y-45547266D01*
X78950047Y-45360861D01*
X78789139Y-45199953D01*
X78602734Y-45069432D01*
X78602732Y-45069431D01*
X78595617Y-45064449D01*
X78596925Y-45062580D01*
X78541982Y-45011601D01*
X78509626Y-44929160D01*
X78516244Y-44840844D01*
X78560525Y-44764146D01*
X78633700Y-44714256D01*
X78706403Y-44700500D01*
X84693597Y-44700500D01*
X84779940Y-44720207D01*
X84849181Y-44775426D01*
X84887608Y-44855218D01*
X84887608Y-44943782D01*
X84849181Y-45023574D01*
X84803368Y-45062999D01*
X84804383Y-45064449D01*
X84797267Y-45069431D01*
X84797266Y-45069432D01*
X84710598Y-45130117D01*
X84610858Y-45199955D01*
X84449955Y-45360858D01*
X84319432Y-45547266D01*
X84223258Y-45753509D01*
X84164367Y-45973295D01*
X84164365Y-45973307D01*
X84144532Y-46200000D01*
X84164365Y-46426692D01*
X84164367Y-46426704D01*
X84223258Y-46646490D01*
X84223261Y-46646496D01*
X84319432Y-46852734D01*
X84449953Y-47039139D01*
X84610861Y-47200047D01*
X84797266Y-47330568D01*
X85003504Y-47426739D01*
X85003505Y-47426739D01*
X85003509Y-47426741D01*
X85223295Y-47485632D01*
X85223299Y-47485632D01*
X85223308Y-47485635D01*
X85450000Y-47505468D01*
X85676692Y-47485635D01*
X85676701Y-47485632D01*
X85676704Y-47485632D01*
X85896490Y-47426741D01*
X85896491Y-47426740D01*
X85896496Y-47426739D01*
X86102734Y-47330568D01*
X86289139Y-47200047D01*
X86450047Y-47039139D01*
X86580568Y-46852734D01*
X86676739Y-46646496D01*
X86700846Y-46556529D01*
X86735632Y-46426704D01*
X86735632Y-46426701D01*
X86735635Y-46426692D01*
X86755468Y-46200000D01*
X86735635Y-45973308D01*
X86733298Y-45964585D01*
X86676741Y-45753509D01*
X86668736Y-45736342D01*
X86580568Y-45547266D01*
X86450047Y-45360861D01*
X86289139Y-45199953D01*
X86102734Y-45069432D01*
X86102732Y-45069431D01*
X86095617Y-45064449D01*
X86096925Y-45062580D01*
X86041982Y-45011601D01*
X86009626Y-44929160D01*
X86016244Y-44840844D01*
X86060525Y-44764146D01*
X86133700Y-44714256D01*
X86206403Y-44700500D01*
X87304962Y-44700500D01*
X87378306Y-44700500D01*
X87389462Y-44700812D01*
X87676584Y-44716936D01*
X87698741Y-44719433D01*
X87976732Y-44766664D01*
X87998478Y-44771628D01*
X88269436Y-44849690D01*
X88290499Y-44857060D01*
X88464566Y-44929160D01*
X88524033Y-44953792D01*
X88550996Y-44964960D01*
X88571095Y-44974638D01*
X88817890Y-45111036D01*
X88836786Y-45122909D01*
X89066751Y-45286078D01*
X89084197Y-45299992D01*
X89298533Y-45491533D01*
X89306645Y-45499202D01*
X89749213Y-45941770D01*
X89772141Y-45969249D01*
X89778015Y-45977738D01*
X89864536Y-46070970D01*
X90646366Y-46913442D01*
X90690654Y-46990136D01*
X90698569Y-47042593D01*
X90699216Y-47042559D01*
X90699500Y-47047875D01*
X90705908Y-47107481D01*
X90756203Y-47242329D01*
X90756207Y-47242335D01*
X90842453Y-47357546D01*
X90899224Y-47400044D01*
X90957669Y-47443796D01*
X90957671Y-47443796D01*
X90970163Y-47450618D01*
X90968652Y-47453384D01*
X91023334Y-47489310D01*
X91026981Y-47493212D01*
X91653339Y-48181748D01*
X91662491Y-48191808D01*
X91699137Y-48249562D01*
X91818061Y-48536668D01*
X91818063Y-48536672D01*
X91973508Y-48827484D01*
X92156713Y-49101666D01*
X92365897Y-49356554D01*
X92365917Y-49356576D01*
X92433702Y-49424359D01*
X97466865Y-54457522D01*
X97467038Y-54457678D01*
X97565996Y-54556636D01*
X97566014Y-54556653D01*
X97897564Y-54843942D01*
X97897565Y-54843943D01*
X97897568Y-54843945D01*
X97897569Y-54843946D01*
X98248787Y-55106865D01*
X98617867Y-55344058D01*
X99002928Y-55554318D01*
X99402007Y-55736573D01*
X99813072Y-55889893D01*
X99924637Y-55922652D01*
X100234025Y-56013498D01*
X100234027Y-56013498D01*
X100662726Y-56106758D01*
X100662748Y-56106761D01*
X100662753Y-56106762D01*
X100825994Y-56130233D01*
X101096973Y-56169195D01*
X101096975Y-56169195D01*
X101096987Y-56169197D01*
X101534595Y-56200499D01*
X101661796Y-56200499D01*
X101661804Y-56200500D01*
X101684970Y-56200500D01*
X101753958Y-56200500D01*
X101832886Y-56200500D01*
X106600149Y-56200500D01*
X106673494Y-56200500D01*
X106684650Y-56200813D01*
X106964127Y-56216505D01*
X106986281Y-56219001D01*
X107256719Y-56264949D01*
X107278471Y-56269913D01*
X107542077Y-56345855D01*
X107563130Y-56353223D01*
X107816559Y-56458195D01*
X107836664Y-56467876D01*
X107950834Y-56530975D01*
X108043266Y-56582060D01*
X108109303Y-56641074D01*
X108129709Y-56677357D01*
X108507949Y-57553509D01*
X108652578Y-57888529D01*
X108658202Y-57901555D01*
X108674500Y-57980427D01*
X108674500Y-58357876D01*
X108680908Y-58417481D01*
X108731203Y-58552329D01*
X108731207Y-58552335D01*
X108817453Y-58667546D01*
X108864121Y-58702481D01*
X108932669Y-58753796D01*
X108932676Y-58753798D01*
X108945157Y-58760614D01*
X108943959Y-58762806D01*
X109001078Y-58800338D01*
X109046661Y-58876270D01*
X109054785Y-58964460D01*
X109023840Y-59047441D01*
X108973454Y-59099910D01*
X108223853Y-59637140D01*
X108213800Y-59643891D01*
X108117227Y-59704568D01*
X108117219Y-59704574D01*
X108009842Y-59790197D01*
X108001705Y-59796352D01*
X107974118Y-59816124D01*
X107944535Y-59839029D01*
X107943237Y-59840113D01*
X107943235Y-59840114D01*
X107935447Y-59847910D01*
X107926963Y-59855506D01*
X107927163Y-59855729D01*
X107922999Y-59859450D01*
X107890281Y-59892164D01*
X107890219Y-59892222D01*
X107841553Y-59940889D01*
X107835191Y-59947252D01*
X107835172Y-59947271D01*
X107783267Y-59999170D01*
X107771802Y-60009768D01*
X107669571Y-60097082D01*
X107644308Y-60115437D01*
X107536337Y-60181602D01*
X107508512Y-60195779D01*
X107484271Y-60205819D01*
X107391525Y-60244236D01*
X107361829Y-60253885D01*
X107238691Y-60283448D01*
X107207849Y-60288333D01*
X107123306Y-60294986D01*
X107073741Y-60298887D01*
X107058139Y-60299500D01*
X99415926Y-60299500D01*
X99400315Y-60298887D01*
X99382406Y-60297477D01*
X99266250Y-60288336D01*
X99235407Y-60283451D01*
X99112268Y-60253888D01*
X99082578Y-60244241D01*
X98965574Y-60195777D01*
X98937763Y-60181606D01*
X98829785Y-60115437D01*
X98804531Y-60097089D01*
X98768462Y-60066284D01*
X98715604Y-59995224D01*
X98699828Y-59936111D01*
X98540638Y-58446496D01*
X98535670Y-58400004D01*
X99294357Y-58400004D01*
X99314890Y-58647813D01*
X99314891Y-58647820D01*
X99314892Y-58647821D01*
X99373034Y-58877419D01*
X99375938Y-58888883D01*
X99475824Y-59116603D01*
X99475829Y-59116611D01*
X99611831Y-59324779D01*
X99611833Y-59324782D01*
X99780249Y-59507732D01*
X99780256Y-59507738D01*
X99968679Y-59654394D01*
X99976490Y-59660473D01*
X99976493Y-59660475D01*
X100195185Y-59778826D01*
X100195188Y-59778827D01*
X100195190Y-59778828D01*
X100430386Y-59859571D01*
X100675665Y-59900500D01*
X100675668Y-59900500D01*
X100924332Y-59900500D01*
X100924335Y-59900500D01*
X101169614Y-59859571D01*
X101404810Y-59778828D01*
X101623509Y-59660474D01*
X101819744Y-59507738D01*
X101826868Y-59500000D01*
X101940429Y-59376639D01*
X101988164Y-59324785D01*
X102124173Y-59116607D01*
X102136198Y-59089194D01*
X102151850Y-59053509D01*
X102224063Y-58888881D01*
X102285108Y-58647821D01*
X102293021Y-58552335D01*
X102305643Y-58400004D01*
X102305643Y-58399995D01*
X102285109Y-58152186D01*
X102285108Y-58152183D01*
X102285108Y-58152179D01*
X102224063Y-57911119D01*
X102174118Y-57797256D01*
X102124175Y-57683396D01*
X102124170Y-57683388D01*
X101988168Y-57475220D01*
X101988166Y-57475217D01*
X101819750Y-57292267D01*
X101819743Y-57292261D01*
X101623509Y-57139526D01*
X101623506Y-57139524D01*
X101404814Y-57021173D01*
X101321989Y-56992739D01*
X101169614Y-56940429D01*
X101099534Y-56928735D01*
X100924340Y-56899500D01*
X100924335Y-56899500D01*
X100675665Y-56899500D01*
X100675659Y-56899500D01*
X100465425Y-56934582D01*
X100430386Y-56940429D01*
X100354198Y-56966584D01*
X100195185Y-57021173D01*
X99976493Y-57139524D01*
X99976490Y-57139526D01*
X99780256Y-57292261D01*
X99780249Y-57292267D01*
X99611833Y-57475217D01*
X99611831Y-57475220D01*
X99475829Y-57683388D01*
X99475824Y-57683396D01*
X99375938Y-57911116D01*
X99314890Y-58152186D01*
X99294357Y-58399995D01*
X99294357Y-58400004D01*
X98535670Y-58400004D01*
X98504072Y-58104328D01*
X98502506Y-58093385D01*
X98500499Y-58065196D01*
X98500499Y-57352123D01*
X98494091Y-57292518D01*
X98493998Y-57292267D01*
X98443796Y-57157669D01*
X98415707Y-57120147D01*
X98357546Y-57042453D01*
X98242335Y-56956207D01*
X98242331Y-56956204D01*
X98107483Y-56905909D01*
X98047873Y-56899500D01*
X98047867Y-56899500D01*
X95952123Y-56899500D01*
X95892518Y-56905908D01*
X95757670Y-56956203D01*
X95757664Y-56956207D01*
X95642453Y-57042453D01*
X95556207Y-57157664D01*
X95556204Y-57157669D01*
X95505909Y-57292517D01*
X95499500Y-57352127D01*
X95499500Y-57352128D01*
X95499500Y-57352132D01*
X95499500Y-59447876D01*
X95505908Y-59507481D01*
X95556203Y-59642329D01*
X95556207Y-59642335D01*
X95642453Y-59757546D01*
X95686070Y-59790197D01*
X95757669Y-59843796D01*
X95892517Y-59894091D01*
X95952127Y-59900500D01*
X96175861Y-59900499D01*
X96262204Y-59920206D01*
X96290840Y-59937077D01*
X96916478Y-60379964D01*
X96975564Y-60445936D01*
X97000175Y-60531011D01*
X97000500Y-60542386D01*
X97000500Y-61143915D01*
X97000187Y-61155074D01*
X96988081Y-61370629D01*
X96985582Y-61392804D01*
X96950356Y-61600130D01*
X96945390Y-61621884D01*
X96931465Y-61670222D01*
X96887171Y-61823964D01*
X96879801Y-61845026D01*
X96799324Y-62039315D01*
X96789641Y-62059423D01*
X96687908Y-62243491D01*
X96676035Y-62262385D01*
X96554346Y-62433888D01*
X96540431Y-62451337D01*
X96396445Y-62612453D01*
X96388778Y-62620562D01*
X93122357Y-65886984D01*
X93115281Y-65893721D01*
X92900452Y-66088426D01*
X92885356Y-66100815D01*
X92656422Y-66270599D01*
X92640184Y-66281448D01*
X92395707Y-66427978D01*
X92378486Y-66437183D01*
X92366874Y-66442675D01*
X92280395Y-66461776D01*
X92194192Y-66441464D01*
X92125340Y-66385761D01*
X92087474Y-66305700D01*
X92088096Y-66217139D01*
X92112117Y-66158801D01*
X92117540Y-66149953D01*
X92130466Y-66128859D01*
X92226873Y-65896111D01*
X92285683Y-65651148D01*
X92305449Y-65400000D01*
X92285683Y-65148852D01*
X92226873Y-64903889D01*
X92130466Y-64671141D01*
X91998836Y-64456341D01*
X91979694Y-64433928D01*
X91959180Y-64405055D01*
X91422627Y-63486399D01*
X91145406Y-63011756D01*
X91133392Y-62987548D01*
X91081942Y-62863339D01*
X91081934Y-62863324D01*
X91057452Y-62817522D01*
X90926491Y-62572515D01*
X90743288Y-62298336D01*
X90722707Y-62273258D01*
X90534101Y-62043444D01*
X90534091Y-62043433D01*
X90475146Y-61984489D01*
X90450354Y-61959697D01*
X85912627Y-57421970D01*
X85906623Y-57415699D01*
X85848374Y-57352132D01*
X85672114Y-57159779D01*
X85660958Y-57146483D01*
X85639688Y-57118764D01*
X85514951Y-56956204D01*
X85498371Y-56934596D01*
X85461443Y-56854098D01*
X85463099Y-56765551D01*
X85503011Y-56686490D01*
X85573273Y-56632576D01*
X85659969Y-56614487D01*
X85745928Y-56635805D01*
X85760230Y-56643780D01*
X85771141Y-56650466D01*
X86003889Y-56746873D01*
X86248852Y-56805683D01*
X86500000Y-56825449D01*
X86751148Y-56805683D01*
X86996111Y-56746873D01*
X87228859Y-56650466D01*
X87443659Y-56518836D01*
X87635224Y-56355224D01*
X87798836Y-56163659D01*
X87877359Y-56035522D01*
X87939276Y-55972200D01*
X88022536Y-55942014D01*
X88047034Y-55940500D01*
X88346627Y-55940500D01*
X88432970Y-55960207D01*
X88470939Y-55984105D01*
X89086690Y-56476707D01*
X89141801Y-56546033D01*
X89148824Y-56562544D01*
X89156103Y-56582060D01*
X89156205Y-56582333D01*
X89242453Y-56697546D01*
X89308346Y-56746873D01*
X89357669Y-56783796D01*
X89492517Y-56834091D01*
X89552127Y-56840500D01*
X91847872Y-56840499D01*
X91847876Y-56840499D01*
X91887612Y-56836227D01*
X91907483Y-56834091D01*
X92042331Y-56783796D01*
X92157546Y-56697546D01*
X92243796Y-56582331D01*
X92294091Y-56447483D01*
X92300500Y-56387873D01*
X92300499Y-54092128D01*
X92300499Y-54092123D01*
X92294091Y-54032518D01*
X92287469Y-54014762D01*
X92243796Y-53897669D01*
X92206709Y-53848127D01*
X92157546Y-53782453D01*
X92042335Y-53696207D01*
X92042331Y-53696204D01*
X91907483Y-53645909D01*
X91847873Y-53639500D01*
X91847867Y-53639500D01*
X89552123Y-53639500D01*
X89492518Y-53645908D01*
X89357670Y-53696203D01*
X89357664Y-53696207D01*
X89242454Y-53782453D01*
X89156204Y-53897669D01*
X89148830Y-53917440D01*
X89100191Y-53991451D01*
X89086693Y-54003287D01*
X89023922Y-54053504D01*
X88476147Y-54491726D01*
X88470938Y-54495893D01*
X88391204Y-54534442D01*
X88346623Y-54539500D01*
X88180291Y-54539500D01*
X88141653Y-54535713D01*
X88128454Y-54533100D01*
X88059341Y-54519420D01*
X88049604Y-54518472D01*
X88049726Y-54517212D01*
X87973083Y-54499802D01*
X87903784Y-54444655D01*
X87889572Y-54424409D01*
X87798836Y-54276341D01*
X87798834Y-54276338D01*
X87798833Y-54276337D01*
X87635224Y-54084775D01*
X87443661Y-53921165D01*
X87228861Y-53789535D01*
X87172187Y-53766060D01*
X87003540Y-53696204D01*
X86996114Y-53693128D01*
X86996112Y-53693127D01*
X86996111Y-53693127D01*
X86850866Y-53658257D01*
X86751149Y-53634317D01*
X86500000Y-53614551D01*
X86248850Y-53634317D01*
X86106864Y-53668405D01*
X86011837Y-53691219D01*
X86003885Y-53693128D01*
X85771138Y-53789535D01*
X85771137Y-53789535D01*
X85556338Y-53921165D01*
X85364775Y-54084775D01*
X85201165Y-54276338D01*
X85069175Y-54491726D01*
X85007258Y-54555048D01*
X84923998Y-54585234D01*
X84835885Y-54576306D01*
X84760373Y-54530032D01*
X84712416Y-54455576D01*
X84700500Y-54387748D01*
X84700500Y-53126840D01*
X84700497Y-53126790D01*
X84700497Y-53105946D01*
X84700498Y-53071900D01*
X84670222Y-52803184D01*
X84610049Y-52539547D01*
X84520736Y-52284305D01*
X84403407Y-52040667D01*
X84403403Y-52040662D01*
X84403401Y-52040656D01*
X84259542Y-51811706D01*
X84259538Y-51811701D01*
X84259537Y-51811699D01*
X84090935Y-51600278D01*
X84090932Y-51600275D01*
X84090929Y-51600271D01*
X84053616Y-51562958D01*
X84053614Y-51562955D01*
X84053614Y-51562956D01*
X83995329Y-51504670D01*
X83995330Y-51504670D01*
X83899724Y-51409062D01*
X83688303Y-51240460D01*
X83459334Y-51096590D01*
X83459331Y-51096588D01*
X83459327Y-51096586D01*
X83459319Y-51096582D01*
X83215703Y-50979263D01*
X83215698Y-50979261D01*
X82960457Y-50889949D01*
X82960454Y-50889948D01*
X82701149Y-50830764D01*
X82696816Y-50829775D01*
X82696814Y-50829774D01*
X82696811Y-50829774D01*
X82483212Y-50805708D01*
X82428099Y-50799499D01*
X82428098Y-50799499D01*
X82292890Y-50799500D01*
X62529160Y-50799500D01*
X62509652Y-50798541D01*
X62488985Y-50796505D01*
X62430933Y-50790786D01*
X62392675Y-50783175D01*
X62326371Y-50763061D01*
X62290336Y-50748134D01*
X62229229Y-50715471D01*
X62196798Y-50693802D01*
X62135542Y-50643531D01*
X62121072Y-50630415D01*
X61384992Y-49894335D01*
X61371876Y-49879864D01*
X61315108Y-49810691D01*
X61293436Y-49778257D01*
X61255884Y-49708001D01*
X61240962Y-49671978D01*
X61217833Y-49595733D01*
X61210226Y-49557489D01*
X61201458Y-49468467D01*
X61200500Y-49448962D01*
X61200500Y-48265601D01*
X61200495Y-48265509D01*
X61200495Y-48242477D01*
X61200496Y-48202251D01*
X61168483Y-47918120D01*
X61104859Y-47639360D01*
X61051068Y-47485635D01*
X61032451Y-47432429D01*
X61021286Y-47365734D01*
X61021447Y-47332762D01*
X61025436Y-46514162D01*
X61025434Y-46514131D01*
X61025373Y-46511400D01*
X61025382Y-46511399D01*
X61025214Y-46504720D01*
X61025214Y-46500010D01*
X61025215Y-46500000D01*
X63894785Y-46500000D01*
X63913603Y-46703083D01*
X63963324Y-46877833D01*
X63969419Y-46899252D01*
X64060329Y-47081825D01*
X64183233Y-47244575D01*
X64183241Y-47244585D01*
X64307155Y-47357546D01*
X64333959Y-47381981D01*
X64333961Y-47381982D01*
X64333962Y-47381983D01*
X64507360Y-47489347D01*
X64507363Y-47489348D01*
X64697544Y-47563024D01*
X64898024Y-47600500D01*
X64898027Y-47600500D01*
X65101972Y-47600500D01*
X65101976Y-47600500D01*
X65302456Y-47563024D01*
X65492637Y-47489348D01*
X65492699Y-47489310D01*
X65566208Y-47443795D01*
X65666041Y-47381981D01*
X65780627Y-47277522D01*
X65816758Y-47244585D01*
X65816759Y-47244583D01*
X65816764Y-47244579D01*
X65939673Y-47081821D01*
X66030582Y-46899250D01*
X66086397Y-46703083D01*
X66105215Y-46500000D01*
X66104790Y-46495418D01*
X66096513Y-46406087D01*
X66086397Y-46296917D01*
X66030582Y-46100750D01*
X65939673Y-45918179D01*
X65939671Y-45918177D01*
X65939670Y-45918174D01*
X65816766Y-45755424D01*
X65816758Y-45755414D01*
X65666042Y-45618020D01*
X65666037Y-45618016D01*
X65492639Y-45510652D01*
X65492636Y-45510651D01*
X65302460Y-45436977D01*
X65302457Y-45436976D01*
X65302456Y-45436976D01*
X65101976Y-45399500D01*
X64898024Y-45399500D01*
X64697544Y-45436976D01*
X64697542Y-45436976D01*
X64697540Y-45436977D01*
X64697538Y-45436977D01*
X64507363Y-45510651D01*
X64507360Y-45510652D01*
X64333962Y-45618016D01*
X64333957Y-45618020D01*
X64183241Y-45755414D01*
X64183233Y-45755424D01*
X64060329Y-45918174D01*
X63969419Y-46100747D01*
X63913603Y-46296916D01*
X63913603Y-46296917D01*
X63895210Y-46495418D01*
X63894785Y-46500000D01*
X61025215Y-46500000D01*
X61024520Y-46492508D01*
X61023924Y-46484161D01*
X61022628Y-46458432D01*
X61021161Y-46448684D01*
X61021530Y-46448628D01*
X61019200Y-46435096D01*
X61006397Y-46296917D01*
X60950582Y-46100750D01*
X60859673Y-45918179D01*
X60859671Y-45918177D01*
X60859670Y-45918174D01*
X60736766Y-45755424D01*
X60736758Y-45755414D01*
X60586042Y-45618020D01*
X60586037Y-45618016D01*
X60412639Y-45510652D01*
X60412636Y-45510651D01*
X60222460Y-45436977D01*
X60222457Y-45436976D01*
X60222456Y-45436976D01*
X60021976Y-45399500D01*
X59818024Y-45399500D01*
X59617544Y-45436976D01*
X59617542Y-45436976D01*
X59617540Y-45436977D01*
X59617538Y-45436977D01*
X59427363Y-45510651D01*
X59427360Y-45510652D01*
X59253962Y-45618016D01*
X59253957Y-45618020D01*
X59103241Y-45755414D01*
X59103233Y-45755424D01*
X58980329Y-45918174D01*
X58889419Y-46100747D01*
X58833603Y-46296916D01*
X58833603Y-46296917D01*
X58815210Y-46495418D01*
X58814785Y-46500000D01*
X58833603Y-46703083D01*
X58883324Y-46877833D01*
X58889419Y-46899252D01*
X58980329Y-47081825D01*
X59103233Y-47244575D01*
X59103237Y-47244580D01*
X59103577Y-47244890D01*
X59121792Y-47264624D01*
X59121890Y-47264537D01*
X59695231Y-47904422D01*
X59730872Y-47961061D01*
X59737475Y-47977001D01*
X59747127Y-48006704D01*
X59781746Y-48150906D01*
X59786631Y-48181748D01*
X59791411Y-48242481D01*
X59794764Y-48285095D01*
X59798887Y-48337475D01*
X59799500Y-48353088D01*
X59799500Y-49376281D01*
X59799495Y-49376302D01*
X59799496Y-49571438D01*
X59807513Y-49642580D01*
X59824741Y-49795476D01*
X59824742Y-49795484D01*
X59824743Y-49795485D01*
X59824744Y-49795493D01*
X59874906Y-50015266D01*
X59874910Y-50015277D01*
X59949369Y-50228069D01*
X59949377Y-50228089D01*
X60047187Y-50431190D01*
X60047199Y-50431212D01*
X60087045Y-50494626D01*
X60116296Y-50578220D01*
X60106380Y-50666226D01*
X60059261Y-50741215D01*
X59984272Y-50788333D01*
X59918547Y-50799500D01*
X57336426Y-50799500D01*
X57336246Y-50799459D01*
X57034605Y-50799461D01*
X57034596Y-50799461D01*
X57034594Y-50799462D01*
X56744701Y-50820197D01*
X56596967Y-50830764D01*
X56162742Y-50893199D01*
X56162717Y-50893204D01*
X55734018Y-50986465D01*
X55313047Y-51110077D01*
X54901998Y-51263395D01*
X54901995Y-51263396D01*
X54502919Y-51445652D01*
X54502898Y-51445663D01*
X54117867Y-51655911D01*
X53748775Y-51893116D01*
X53748766Y-51893122D01*
X53397558Y-52156039D01*
X53065988Y-52443353D01*
X53065979Y-52443361D01*
X52959666Y-52549675D01*
X52959664Y-52549678D01*
X49902457Y-55606883D01*
X49827468Y-55654002D01*
X49776680Y-55664608D01*
X48972869Y-55725111D01*
X48945457Y-55728130D01*
X48938146Y-55728936D01*
X48938144Y-55728936D01*
X48938130Y-55728938D01*
X48937400Y-55729085D01*
X48915564Y-55732223D01*
X48787260Y-55743450D01*
X48787239Y-55743453D01*
X48580975Y-55798721D01*
X48387419Y-55888979D01*
X48212485Y-56011467D01*
X48212477Y-56011474D01*
X48061474Y-56162477D01*
X48061467Y-56162485D01*
X47938979Y-56337419D01*
X47848721Y-56530975D01*
X47793453Y-56737240D01*
X47793451Y-56737251D01*
X47774838Y-56950000D01*
X47793451Y-57162748D01*
X47793453Y-57162759D01*
X47848721Y-57369024D01*
X47876014Y-57427553D01*
X47938979Y-57562581D01*
X47984267Y-57627259D01*
X48025973Y-57686823D01*
X48061471Y-57737519D01*
X48212481Y-57888529D01*
X48387419Y-58011021D01*
X48387420Y-58011021D01*
X48387421Y-58011022D01*
X48448801Y-58039644D01*
X48518726Y-58093994D01*
X48558144Y-58173302D01*
X48559248Y-58261858D01*
X48521819Y-58342124D01*
X48453271Y-58398201D01*
X48448806Y-58400352D01*
X48387418Y-58428979D01*
X48387413Y-58428982D01*
X48212485Y-58551467D01*
X48212477Y-58551474D01*
X48061474Y-58702477D01*
X48061467Y-58702485D01*
X47938979Y-58877419D01*
X47848721Y-59070975D01*
X47793453Y-59277240D01*
X47793451Y-59277251D01*
X47774838Y-59490000D01*
X47793451Y-59702748D01*
X47793453Y-59702759D01*
X47848721Y-59909024D01*
X47853375Y-59919005D01*
X47938979Y-60102581D01*
X48000042Y-60189788D01*
X48058489Y-60273261D01*
X48061471Y-60277519D01*
X48212481Y-60428529D01*
X48212483Y-60428531D01*
X48212485Y-60428532D01*
X48228068Y-60439443D01*
X48387419Y-60551021D01*
X48448803Y-60579645D01*
X48518727Y-60633996D01*
X48558145Y-60713304D01*
X48559248Y-60801861D01*
X48521819Y-60882126D01*
X48453271Y-60938203D01*
X48448803Y-60940355D01*
X48387419Y-60968979D01*
X48212485Y-61091467D01*
X48212477Y-61091474D01*
X48061474Y-61242477D01*
X48061467Y-61242485D01*
X47938979Y-61417419D01*
X47848721Y-61610975D01*
X47793453Y-61817240D01*
X47793451Y-61817251D01*
X47774838Y-62030000D01*
X47793451Y-62242748D01*
X47793453Y-62242759D01*
X47848721Y-62449024D01*
X47868884Y-62492263D01*
X47938979Y-62642581D01*
X47982435Y-62704643D01*
X48053032Y-62805468D01*
X48061471Y-62817519D01*
X48212481Y-62968529D01*
X48387419Y-63091021D01*
X48580970Y-63181276D01*
X48580971Y-63181276D01*
X48580975Y-63181278D01*
X48787240Y-63236546D01*
X48787245Y-63236547D01*
X48787253Y-63236549D01*
X49000000Y-63255162D01*
X49212747Y-63236549D01*
X49212756Y-63236546D01*
X49212759Y-63236546D01*
X49419024Y-63181278D01*
X49419025Y-63181277D01*
X49419030Y-63181276D01*
X49612581Y-63091021D01*
X49787519Y-62968529D01*
X49938529Y-62817519D01*
X50061021Y-62642581D01*
X50151276Y-62449030D01*
X50152891Y-62443006D01*
X50206546Y-62242759D01*
X50206546Y-62242756D01*
X50206549Y-62242747D01*
X50225162Y-62030000D01*
X50206549Y-61817253D01*
X50182286Y-61726700D01*
X50151278Y-61610975D01*
X50150847Y-61610050D01*
X50061021Y-61417419D01*
X49938529Y-61242481D01*
X49787519Y-61091471D01*
X49787516Y-61091469D01*
X49787514Y-61091467D01*
X49612578Y-60968977D01*
X49551197Y-60940355D01*
X49481272Y-60886004D01*
X49441854Y-60806697D01*
X49440750Y-60718140D01*
X49478179Y-60637875D01*
X49546727Y-60581798D01*
X49551197Y-60579645D01*
X49572284Y-60569812D01*
X49612581Y-60551021D01*
X49787519Y-60428529D01*
X49938529Y-60277519D01*
X50061021Y-60102581D01*
X50112233Y-59992754D01*
X50122747Y-59973151D01*
X50134281Y-59954261D01*
X50134281Y-59954260D01*
X50134282Y-59954259D01*
X50576072Y-58924664D01*
X50618228Y-58862427D01*
X54090704Y-55389950D01*
X54096284Y-55384585D01*
X54361084Y-55139804D01*
X54372899Y-55129712D01*
X54653028Y-54908869D01*
X54665641Y-54899707D01*
X54962177Y-54701564D01*
X54975477Y-54693412D01*
X55286662Y-54519136D01*
X55300571Y-54512051D01*
X55609926Y-54369432D01*
X55624440Y-54362740D01*
X55638861Y-54356765D01*
X55770320Y-54308266D01*
X55858147Y-54296871D01*
X55942221Y-54324710D01*
X56005890Y-54386271D01*
X56036544Y-54469360D01*
X56028125Y-54557478D01*
X55740319Y-55427304D01*
X55740314Y-55427319D01*
X55740312Y-55427327D01*
X55736851Y-55439172D01*
X55729691Y-55459510D01*
X55647125Y-55658842D01*
X55647125Y-55658844D01*
X55567102Y-55922645D01*
X55567098Y-55922661D01*
X55513319Y-56193024D01*
X55486299Y-56467365D01*
X55486299Y-56467370D01*
X55486300Y-56543132D01*
X55486300Y-66022584D01*
X55485874Y-66035600D01*
X55472476Y-66239994D01*
X55469078Y-66265801D01*
X55430393Y-66460286D01*
X55423656Y-66485429D01*
X55359917Y-66673199D01*
X55349955Y-66697249D01*
X55262243Y-66875110D01*
X55249229Y-66897651D01*
X55196829Y-66976075D01*
X55139068Y-67062520D01*
X55123221Y-67083172D01*
X54988168Y-67237170D01*
X54979266Y-67246674D01*
X54919621Y-67306319D01*
X54844633Y-67353438D01*
X54756626Y-67363354D01*
X54733468Y-67359348D01*
X53964414Y-67178979D01*
X53941796Y-67172237D01*
X53938656Y-67171094D01*
X53710414Y-67109938D01*
X53710410Y-67109937D01*
X53710408Y-67109937D01*
X53475000Y-67089341D01*
X53239592Y-67109937D01*
X53239589Y-67109937D01*
X53239585Y-67109938D01*
X53011342Y-67171094D01*
X52797171Y-67270965D01*
X52603603Y-67406501D01*
X52603595Y-67406508D01*
X52436508Y-67573595D01*
X52436501Y-67573603D01*
X52300965Y-67767171D01*
X52201094Y-67981342D01*
X52139938Y-68209585D01*
X52139937Y-68209589D01*
X52139937Y-68209592D01*
X52119341Y-68445000D01*
X52139798Y-68678821D01*
X52139938Y-68680414D01*
X52201095Y-68908659D01*
X52201095Y-68908660D01*
X52300964Y-69122829D01*
X52300966Y-69122833D01*
X52436506Y-69316403D01*
X52603596Y-69483493D01*
X52701418Y-69551989D01*
X52760842Y-69617656D01*
X52785890Y-69702604D01*
X52771599Y-69790007D01*
X52720801Y-69862553D01*
X52701418Y-69878011D01*
X52603606Y-69946499D01*
X52603595Y-69946508D01*
X52436508Y-70113595D01*
X52436501Y-70113603D01*
X52300965Y-70307171D01*
X52201094Y-70521342D01*
X52139938Y-70749585D01*
X52139937Y-70749589D01*
X52139937Y-70749592D01*
X52119341Y-70985000D01*
X52139671Y-71217370D01*
X52139938Y-71220414D01*
X52201095Y-71448659D01*
X52201095Y-71448660D01*
X52300964Y-71662829D01*
X52300966Y-71662833D01*
X52436506Y-71856403D01*
X52475908Y-71895805D01*
X52523027Y-71970793D01*
X52532943Y-72058800D01*
X52503692Y-72142393D01*
X52441068Y-72205017D01*
X52404745Y-72222969D01*
X52382669Y-72231203D01*
X52382664Y-72231206D01*
X52352523Y-72253769D01*
X52330432Y-72268127D01*
X52309810Y-72279664D01*
X52309807Y-72279666D01*
X52309803Y-72279668D01*
X52309803Y-72279669D01*
X51650843Y-72783578D01*
X51570288Y-72820372D01*
X51529964Y-72824500D01*
X50237938Y-72824500D01*
X50237901Y-72824498D01*
X50227034Y-72824498D01*
X50215534Y-72824498D01*
X50161144Y-72824499D01*
X50135173Y-72822797D01*
X50124103Y-72821340D01*
X50041070Y-72790535D01*
X50028935Y-72781925D01*
X50020226Y-72775243D01*
X50000647Y-72758073D01*
X49969315Y-72726741D01*
X49935733Y-72693158D01*
X49935729Y-72693154D01*
X49769677Y-72565740D01*
X49769664Y-72565732D01*
X49588399Y-72461081D01*
X49395022Y-72380986D01*
X49395018Y-72380984D01*
X49395012Y-72380982D01*
X49395008Y-72380981D01*
X49395003Y-72380979D01*
X49243660Y-72340431D01*
X49165359Y-72299050D01*
X49132149Y-72262352D01*
X49132113Y-72262301D01*
X49059806Y-72159035D01*
X49038498Y-72128603D01*
X49038497Y-72128602D01*
X49038495Y-72128599D01*
X48998700Y-72088804D01*
X48951583Y-72013814D01*
X48941668Y-71925808D01*
X48970919Y-71842215D01*
X49033543Y-71779592D01*
X49069878Y-71761636D01*
X49092091Y-71753351D01*
X49207189Y-71667189D01*
X49293352Y-71552090D01*
X49293353Y-71552087D01*
X49343596Y-71417381D01*
X49343598Y-71417372D01*
X49350000Y-71357822D01*
X49350000Y-70710000D01*
X48433012Y-70710000D01*
X48465925Y-70652993D01*
X48500000Y-70525826D01*
X48500000Y-70394174D01*
X48465925Y-70267007D01*
X48433012Y-70210000D01*
X49350000Y-70210000D01*
X49350000Y-69562177D01*
X49343598Y-69502627D01*
X49343596Y-69502618D01*
X49293353Y-69367912D01*
X49293352Y-69367909D01*
X49207189Y-69252810D01*
X49092090Y-69166647D01*
X49092087Y-69166646D01*
X48957381Y-69116403D01*
X48957372Y-69116401D01*
X48897823Y-69110000D01*
X48250000Y-69110000D01*
X48250000Y-70026988D01*
X48192993Y-69994075D01*
X48065826Y-69960000D01*
X47934174Y-69960000D01*
X47807007Y-69994075D01*
X47750000Y-70026988D01*
X47750000Y-69110000D01*
X47102177Y-69110000D01*
X47042627Y-69116401D01*
X47042618Y-69116403D01*
X46907912Y-69166646D01*
X46907909Y-69166647D01*
X46792810Y-69252810D01*
X46706647Y-69367909D01*
X46706646Y-69367912D01*
X46656403Y-69502618D01*
X46656401Y-69502627D01*
X46650000Y-69562177D01*
X46650000Y-70210000D01*
X47566988Y-70210000D01*
X47534075Y-70267007D01*
X47500000Y-70394174D01*
X47500000Y-70525826D01*
X47534075Y-70652993D01*
X47566988Y-70710000D01*
X46650000Y-70710000D01*
X46650000Y-71357822D01*
X46656401Y-71417372D01*
X46656403Y-71417381D01*
X46706646Y-71552087D01*
X46706647Y-71552090D01*
X46792810Y-71667189D01*
X46907909Y-71753352D01*
X46930127Y-71761639D01*
X47004139Y-71810278D01*
X47049718Y-71886212D01*
X47057836Y-71974403D01*
X47026886Y-72057382D01*
X47001299Y-72088805D01*
X46961501Y-72128603D01*
X46825965Y-72322171D01*
X46726094Y-72536342D01*
X46664938Y-72764585D01*
X46664937Y-72764589D01*
X46664937Y-72764592D01*
X46644341Y-73000000D01*
X44500000Y-73000000D01*
X44500000Y-49030000D01*
X47774838Y-49030000D01*
X47793451Y-49242748D01*
X47793453Y-49242759D01*
X47848721Y-49449024D01*
X47848724Y-49449030D01*
X47938979Y-49642581D01*
X47972689Y-49690724D01*
X48046084Y-49795545D01*
X48061471Y-49817519D01*
X48212481Y-49968529D01*
X48387419Y-50091021D01*
X48580970Y-50181276D01*
X48580971Y-50181276D01*
X48580975Y-50181278D01*
X48787240Y-50236546D01*
X48787245Y-50236547D01*
X48787253Y-50236549D01*
X49000000Y-50255162D01*
X49212747Y-50236549D01*
X49212756Y-50236546D01*
X49212759Y-50236546D01*
X49419024Y-50181278D01*
X49419025Y-50181277D01*
X49419030Y-50181276D01*
X49612581Y-50091021D01*
X49787519Y-49968529D01*
X49938529Y-49817519D01*
X50061021Y-49642581D01*
X50151276Y-49449030D01*
X50151295Y-49448962D01*
X50206546Y-49242759D01*
X50206546Y-49242756D01*
X50206549Y-49242747D01*
X50225162Y-49030000D01*
X50206549Y-48817253D01*
X50188529Y-48750000D01*
X50151278Y-48610975D01*
X50121016Y-48546078D01*
X50061021Y-48417419D01*
X49938529Y-48242481D01*
X49787519Y-48091471D01*
X49787516Y-48091469D01*
X49787514Y-48091467D01*
X49612578Y-47968977D01*
X49551197Y-47940355D01*
X49481272Y-47886004D01*
X49441854Y-47806697D01*
X49440750Y-47718140D01*
X49478179Y-47637875D01*
X49546727Y-47581798D01*
X49551197Y-47579645D01*
X49612581Y-47551021D01*
X49787519Y-47428529D01*
X49938529Y-47277519D01*
X50061021Y-47102581D01*
X50151276Y-46909030D01*
X50153696Y-46900001D01*
X50206546Y-46702759D01*
X50206546Y-46702756D01*
X50206549Y-46702747D01*
X50225162Y-46490000D01*
X50206549Y-46277253D01*
X50203935Y-46267497D01*
X50151278Y-46070975D01*
X50148877Y-46065826D01*
X50061021Y-45877419D01*
X49938529Y-45702481D01*
X49787519Y-45551471D01*
X49787516Y-45551469D01*
X49787514Y-45551467D01*
X49624003Y-45436977D01*
X49612581Y-45428979D01*
X49550604Y-45400078D01*
X49480681Y-45345728D01*
X49441263Y-45266420D01*
X49440160Y-45177863D01*
X49477588Y-45097598D01*
X49546137Y-45041521D01*
X49550607Y-45039368D01*
X49612326Y-45010588D01*
X49612334Y-45010583D01*
X49668029Y-44971583D01*
X49668030Y-44971582D01*
X49046448Y-44350000D01*
X49052661Y-44350000D01*
X49154394Y-44322741D01*
X49245606Y-44270080D01*
X49320080Y-44195606D01*
X49372741Y-44104394D01*
X49400000Y-44002661D01*
X49400000Y-43996447D01*
X50021582Y-44618030D01*
X50021583Y-44618029D01*
X50034207Y-44600001D01*
X61354785Y-44600001D01*
X61356790Y-44621634D01*
X61373603Y-44803083D01*
X61422416Y-44974642D01*
X61429419Y-44999252D01*
X61520329Y-45181825D01*
X61643233Y-45344575D01*
X61643241Y-45344585D01*
X61744592Y-45436977D01*
X61793959Y-45481981D01*
X61793961Y-45481982D01*
X61793962Y-45481983D01*
X61967360Y-45589347D01*
X61967363Y-45589348D01*
X62157544Y-45663024D01*
X62358024Y-45700500D01*
X62358027Y-45700500D01*
X62561972Y-45700500D01*
X62561976Y-45700500D01*
X62762456Y-45663024D01*
X62952637Y-45589348D01*
X63126041Y-45481981D01*
X63228952Y-45388165D01*
X63276758Y-45344585D01*
X63276759Y-45344583D01*
X63276764Y-45344579D01*
X63399673Y-45181821D01*
X63490582Y-44999250D01*
X63546397Y-44803083D01*
X63565215Y-44600000D01*
X63546397Y-44396917D01*
X63490582Y-44200750D01*
X63399673Y-44018179D01*
X63399671Y-44018177D01*
X63399670Y-44018174D01*
X63276766Y-43855424D01*
X63276758Y-43855414D01*
X63126042Y-43718020D01*
X63126037Y-43718016D01*
X62952639Y-43610652D01*
X62952636Y-43610651D01*
X62762460Y-43536977D01*
X62762457Y-43536976D01*
X62762456Y-43536976D01*
X62561976Y-43499500D01*
X62358024Y-43499500D01*
X62157544Y-43536976D01*
X62157542Y-43536976D01*
X62157540Y-43536977D01*
X62157538Y-43536977D01*
X61967363Y-43610651D01*
X61967360Y-43610652D01*
X61793962Y-43718016D01*
X61793957Y-43718020D01*
X61643241Y-43855414D01*
X61643233Y-43855424D01*
X61520329Y-44018174D01*
X61429419Y-44200747D01*
X61373603Y-44396916D01*
X61373603Y-44396917D01*
X61354785Y-44599998D01*
X61354785Y-44600001D01*
X50034207Y-44600001D01*
X50060583Y-44562334D01*
X50060588Y-44562325D01*
X50150804Y-44368856D01*
X50206055Y-44162658D01*
X50224659Y-43950000D01*
X50206055Y-43737341D01*
X50150804Y-43531143D01*
X50060586Y-43337669D01*
X50060582Y-43337662D01*
X50021584Y-43281969D01*
X50021584Y-43281968D01*
X49400000Y-43903552D01*
X49400000Y-43897339D01*
X49372741Y-43795606D01*
X49320080Y-43704394D01*
X49245606Y-43629920D01*
X49154394Y-43577259D01*
X49052661Y-43550000D01*
X49046447Y-43550000D01*
X49668029Y-42928415D01*
X49612328Y-42889412D01*
X49612324Y-42889410D01*
X49418858Y-42799196D01*
X49212657Y-42743944D01*
X49212660Y-42743944D01*
X49000000Y-42725340D01*
X48787341Y-42743944D01*
X48581143Y-42799195D01*
X48387671Y-42889411D01*
X48387671Y-42889412D01*
X48331969Y-42928415D01*
X48331968Y-42928415D01*
X48953554Y-43550000D01*
X48947339Y-43550000D01*
X48845606Y-43577259D01*
X48754394Y-43629920D01*
X48679920Y-43704394D01*
X48627259Y-43795606D01*
X48600000Y-43897339D01*
X48600000Y-43903553D01*
X47978415Y-43281968D01*
X47978415Y-43281969D01*
X47939412Y-43337671D01*
X47939411Y-43337671D01*
X47849195Y-43531143D01*
X47793944Y-43737341D01*
X47775340Y-43950000D01*
X47793944Y-44162658D01*
X47849196Y-44368858D01*
X47939410Y-44562324D01*
X47939412Y-44562328D01*
X47978415Y-44618029D01*
X48600000Y-43996445D01*
X48600000Y-44002661D01*
X48627259Y-44104394D01*
X48679920Y-44195606D01*
X48754394Y-44270080D01*
X48845606Y-44322741D01*
X48947339Y-44350000D01*
X48953553Y-44350000D01*
X48331968Y-44971584D01*
X48387662Y-45010582D01*
X48387674Y-45010589D01*
X48449393Y-45039369D01*
X48519318Y-45093719D01*
X48558736Y-45173027D01*
X48559840Y-45261583D01*
X48522411Y-45341849D01*
X48453863Y-45397926D01*
X48449395Y-45400078D01*
X48387422Y-45428977D01*
X48387421Y-45428977D01*
X48212485Y-45551467D01*
X48212477Y-45551474D01*
X48061474Y-45702477D01*
X48061467Y-45702485D01*
X47938979Y-45877419D01*
X47848721Y-46070975D01*
X47793453Y-46277240D01*
X47793451Y-46277251D01*
X47774838Y-46490000D01*
X47793451Y-46702748D01*
X47793453Y-46702759D01*
X47848721Y-46909024D01*
X47848724Y-46909030D01*
X47938979Y-47102581D01*
X47993848Y-47180943D01*
X48052441Y-47264624D01*
X48061471Y-47277519D01*
X48212481Y-47428529D01*
X48387419Y-47551021D01*
X48448803Y-47579645D01*
X48518727Y-47633996D01*
X48558145Y-47713304D01*
X48559248Y-47801861D01*
X48521819Y-47882126D01*
X48453271Y-47938203D01*
X48448803Y-47940355D01*
X48387419Y-47968979D01*
X48212485Y-48091467D01*
X48212477Y-48091474D01*
X48061474Y-48242477D01*
X48061467Y-48242485D01*
X47938979Y-48417419D01*
X47848721Y-48610975D01*
X47793453Y-48817240D01*
X47793451Y-48817251D01*
X47774838Y-49030000D01*
X44500000Y-49030000D01*
X44500000Y-40699000D01*
X44519707Y-40612657D01*
X44574926Y-40543416D01*
X44654718Y-40504989D01*
X44699000Y-40500000D01*
X112801000Y-40500000D01*
X112887343Y-40519707D01*
G37*
%TD.AperFunction*%
%TD*%
M02*
