%TF.GenerationSoftware,KiCad,Pcbnew,(7.0.0-0)*%
%TF.CreationDate,2024-02-07T12:32:51+03:00*%
%TF.ProjectId,germanium-amp,6765726d-616e-4697-956d-2d616d702e6b,rev?*%
%TF.SameCoordinates,Original*%
%TF.FileFunction,Copper,L2,Bot*%
%TF.FilePolarity,Positive*%
%FSLAX46Y46*%
G04 Gerber Fmt 4.6, Leading zero omitted, Abs format (unit mm)*
G04 Created by KiCad (PCBNEW (7.0.0-0)) date 2024-02-07 12:32:51*
%MOMM*%
%LPD*%
G01*
G04 APERTURE LIST*
%TA.AperFunction,ComponentPad*%
%ADD10C,1.600000*%
%TD*%
%TA.AperFunction,ComponentPad*%
%ADD11O,1.600000X1.600000*%
%TD*%
%TA.AperFunction,ComponentPad*%
%ADD12C,1.440000*%
%TD*%
%TA.AperFunction,ComponentPad*%
%ADD13R,2.000000X2.000000*%
%TD*%
%TA.AperFunction,ComponentPad*%
%ADD14C,2.000000*%
%TD*%
%TA.AperFunction,ComponentPad*%
%ADD15O,1.200000X1.200000*%
%TD*%
%TA.AperFunction,ComponentPad*%
%ADD16R,1.700000X1.700000*%
%TD*%
%TA.AperFunction,ComponentPad*%
%ADD17O,1.700000X1.700000*%
%TD*%
%TA.AperFunction,ComponentPad*%
%ADD18R,2.200000X2.200000*%
%TD*%
%TA.AperFunction,ComponentPad*%
%ADD19O,2.200000X2.200000*%
%TD*%
%TA.AperFunction,ComponentPad*%
%ADD20R,1.600000X1.600000*%
%TD*%
%TA.AperFunction,Conductor*%
%ADD21C,0.400000*%
%TD*%
G04 APERTURE END LIST*
D10*
%TO.P,C1,1*%
%TO.N,Net-(J4-Pin_1)*%
X77950000Y-46200000D03*
D11*
%TO.P,C1,2*%
%TO.N,Net-(Q1-B)*%
X85449999Y-46199999D03*
%TD*%
D12*
%TO.P,UIn1,1,1*%
%TO.N,-12V*%
X49000000Y-43950000D03*
%TO.P,UIn1,2,2*%
%TO.N,Net-(Q1-B)*%
X49000000Y-46490000D03*
%TO.P,UIn1,3,3*%
X49000000Y-49030000D03*
%TD*%
D13*
%TO.P,C2,1*%
%TO.N,Out -*%
X92199999Y-45999999D03*
D14*
%TO.P,C2,2*%
%TO.N,-12V*%
X96000000Y-46000000D03*
%TD*%
D15*
%TO.P,Q3,1,E*%
%TO.N,Uh2*%
X103959999Y-46899999D03*
%TO.P,Q3,2,C*%
%TO.N,-12V*%
X106499999Y-48499999D03*
%TO.P,Q3,3,B*%
%TO.N,Net-(D1-K)*%
X109039999Y-46899999D03*
%TD*%
D10*
%TO.P,R4,1*%
%TO.N,Net-(Q2-B)*%
X57420000Y-58000000D03*
D11*
%TO.P,R4,2*%
%TO.N,-12V*%
X67579999Y-57999999D03*
%TD*%
D12*
%TO.P,Uout1,1,1*%
%TO.N,Net-(D1-K)*%
X49000000Y-56950000D03*
%TO.P,Uout1,2,2*%
%TO.N,Net-(R6-Pad2)*%
X49000000Y-59490000D03*
%TO.P,Uout1,3,3*%
X49000000Y-62030000D03*
%TD*%
D16*
%TO.P,J1,1,Pin_1*%
%TO.N,Out -*%
X110024999Y-57459999D03*
D17*
%TO.P,J1,2,Pin_2*%
%TO.N,Out +*%
X110024999Y-59999999D03*
%TD*%
D10*
%TO.P,R6,1*%
%TO.N,Net-(C4-Pad1)*%
X71740000Y-55500000D03*
D11*
%TO.P,R6,2*%
%TO.N,Net-(R6-Pad2)*%
X81899999Y-55499999D03*
%TD*%
D10*
%TO.P,R3,1*%
%TO.N,Uh1*%
X57420000Y-54500000D03*
D11*
%TO.P,R3,2*%
%TO.N,-12V*%
X67579999Y-54499999D03*
%TD*%
D18*
%TO.P,D2,1,A*%
%TO.N,Net-(D2-A)*%
X86499999Y-65379999D03*
D19*
%TO.P,D2,2,K*%
%TO.N,Net-(D1-A)*%
X86499999Y-55219999D03*
%TD*%
D15*
%TO.P,Q2,1,C*%
%TO.N,Net-(D1-K)*%
X59919999Y-46499999D03*
%TO.P,Q2,2,B*%
%TO.N,Net-(Q2-B)*%
X62459999Y-44599999D03*
%TO.P,Q2,3,E*%
%TO.N,Net-(Q2-E)*%
X64999999Y-46499999D03*
%TD*%
%TO.P,Q4,1,E*%
%TO.N,Uh2*%
X103959999Y-69899999D03*
%TO.P,Q4,2,C*%
%TO.N,Out -*%
X106499999Y-71499999D03*
%TO.P,Q4,3,B*%
%TO.N,Net-(D2-A)*%
X109039999Y-69899999D03*
%TD*%
D20*
%TO.P,C4,1*%
%TO.N,Net-(C4-Pad1)*%
X94294899Y-70499999D03*
D10*
%TO.P,C4,2*%
%TO.N,-12V*%
X96794900Y-70500000D03*
%TD*%
D16*
%TO.P,J2,1,Pin_1*%
%TO.N,Out -*%
X53474999Y-73524999D03*
D17*
%TO.P,J2,2,Pin_2*%
%TO.N,Uh2*%
X53474999Y-70984999D03*
%TO.P,J2,3,Pin_3*%
%TO.N,Uh1*%
X53474999Y-68444999D03*
%TD*%
D10*
%TO.P,R8,1*%
%TO.N,Out +*%
X71820000Y-63500000D03*
D11*
%TO.P,R8,2*%
%TO.N,Net-(D2-A)*%
X81979999Y-63499999D03*
%TD*%
D16*
%TO.P,J4,1,Pin_1*%
%TO.N,Net-(J4-Pin_1)*%
X72499999Y-43659999D03*
D17*
%TO.P,J4,2,Pin_2*%
%TO.N,Out -*%
X72499999Y-46199999D03*
%TD*%
D10*
%TO.P,R7,1*%
%TO.N,Net-(Q2-E)*%
X71740000Y-59500000D03*
D11*
%TO.P,R7,2*%
%TO.N,-12V*%
X81899999Y-59499999D03*
%TD*%
D13*
%TO.P,C5,1*%
%TO.N,Out +*%
X96999999Y-58399999D03*
D14*
%TO.P,C5,2*%
%TO.N,Uh2*%
X100800000Y-58400000D03*
%TD*%
D15*
%TO.P,Q1,1,E*%
%TO.N,Net-(Q1-E)*%
X59919999Y-69999999D03*
%TO.P,Q1,2,C*%
%TO.N,Uh1*%
X62459999Y-69999999D03*
%TO.P,Q1,3,B*%
%TO.N,Net-(Q1-B)*%
X64999999Y-69999999D03*
%TD*%
D18*
%TO.P,D1,1,A*%
%TO.N,Net-(D1-A)*%
X90699999Y-55239999D03*
D19*
%TO.P,D1,2,K*%
%TO.N,Net-(D1-K)*%
X90699999Y-65399999D03*
%TD*%
D10*
%TO.P,R5,1*%
%TO.N,Net-(C4-Pad1)*%
X57420000Y-61500000D03*
D11*
%TO.P,R5,2*%
%TO.N,Net-(Q2-B)*%
X67579999Y-61499999D03*
%TD*%
D16*
%TO.P,J3,1,Pin_1*%
%TO.N,-12V*%
X47999999Y-70459999D03*
D17*
%TO.P,J3,2,Pin_2*%
%TO.N,Out -*%
X47999999Y-72999999D03*
%TD*%
D10*
%TO.P,R2,1*%
%TO.N,Out -*%
X82000000Y-71500000D03*
D11*
%TO.P,R2,2*%
%TO.N,Net-(Q1-E)*%
X71839999Y-71499999D03*
%TD*%
D20*
%TO.P,C3,1*%
%TO.N,Uh1*%
X86294899Y-70499999D03*
D10*
%TO.P,C3,2*%
%TO.N,Net-(Q2-B)*%
X88794900Y-70500000D03*
%TD*%
%TO.P,R9,1*%
%TO.N,Out +*%
X71840000Y-67500000D03*
D11*
%TO.P,R9,2*%
%TO.N,Net-(Q1-E)*%
X81999999Y-67499999D03*
%TD*%
D21*
%TO.N,Net-(Q1-B)*%
X74000000Y-60500000D02*
X74000000Y-59500000D01*
X71000000Y-57500000D02*
X70536800Y-57036800D01*
X84248100Y-46200000D02*
X85450000Y-46200000D01*
X73000000Y-61500000D02*
X74000000Y-60500000D01*
X77243200Y-53204900D02*
X84248100Y-46200000D01*
X65000000Y-67356000D02*
X59856000Y-67356000D01*
X59856000Y-67356000D02*
X53000000Y-60500000D01*
X72000000Y-57500000D02*
X71000000Y-57500000D01*
X49000000Y-49030000D02*
X49000000Y-46490000D01*
X74000000Y-59500000D02*
X72000000Y-57500000D01*
X53000000Y-60500000D02*
X53000000Y-53030000D01*
X70536800Y-53463200D02*
X70795100Y-53204900D01*
X70000000Y-61500000D02*
X73000000Y-61500000D01*
X65000000Y-70000000D02*
X65000000Y-67356000D01*
X70000000Y-64500000D02*
X70000000Y-61500000D01*
X53000000Y-53030000D02*
X49000000Y-49030000D01*
X70795100Y-53204900D02*
X77243200Y-53204900D01*
X70536800Y-57036800D02*
X70536800Y-53463200D01*
X67144000Y-67356000D02*
X70000000Y-64500000D01*
X65000000Y-67356000D02*
X67144000Y-67356000D01*
%TO.N,Out -*%
X83000000Y-72500000D02*
X104498100Y-72500000D01*
X109040000Y-57460000D02*
X106500000Y-60000000D01*
X79975000Y-73525000D02*
X82000000Y-71500000D01*
X82000000Y-71500000D02*
X83000000Y-72500000D01*
X105498100Y-71500000D02*
X106500000Y-71500000D01*
X106500000Y-60000000D02*
X106500000Y-71500000D01*
X53475000Y-73525000D02*
X79975000Y-73525000D01*
X104498100Y-72500000D02*
X105498100Y-71500000D01*
X110025000Y-57460000D02*
X109040000Y-57460000D01*
%TO.N,-12V*%
X67580000Y-54500000D02*
X67580000Y-58000000D01*
X83870900Y-59974800D02*
X88771100Y-55074600D01*
X67580000Y-53298100D02*
X64000000Y-49718100D01*
X88500000Y-63500000D02*
X84974800Y-59974800D01*
X67580000Y-54500000D02*
X67580000Y-53298100D01*
X63000000Y-43000000D02*
X49950000Y-43000000D01*
X49000000Y-43950000D02*
X47000000Y-45950000D01*
X88771100Y-55074600D02*
X88771100Y-53228900D01*
X47000000Y-45950000D02*
X47000000Y-68208100D01*
X64000000Y-45000000D02*
X64000000Y-44000000D01*
X49950000Y-43000000D02*
X49000000Y-43950000D01*
X64000000Y-44000000D02*
X63000000Y-43000000D01*
X63500000Y-45500000D02*
X64000000Y-45000000D01*
X48000000Y-69208100D02*
X48000000Y-70460000D01*
X93742400Y-67447500D02*
X89947500Y-67447500D01*
X96794900Y-70500000D02*
X93742400Y-67447500D01*
X83870900Y-59974800D02*
X83396100Y-59500000D01*
X88500000Y-66000000D02*
X88500000Y-63500000D01*
X83396100Y-59500000D02*
X81900000Y-59500000D01*
X64000000Y-49718100D02*
X64000000Y-47350428D01*
X47000000Y-68208100D02*
X48000000Y-69208100D01*
X63500000Y-46850428D02*
X63500000Y-45500000D01*
X88771100Y-53228900D02*
X96000000Y-46000000D01*
X84974800Y-59974800D02*
X83870900Y-59974800D01*
X89947500Y-67447500D02*
X88500000Y-66000000D01*
X64000000Y-47350428D02*
X63500000Y-46850428D01*
%TO.N,Net-(Q2-B)*%
X67580000Y-61500000D02*
X67580000Y-60298100D01*
X58021000Y-57399000D02*
X57420000Y-58000000D01*
X62460000Y-57399000D02*
X58021000Y-57399000D01*
X64680900Y-57399000D02*
X62460000Y-57399000D01*
X67580000Y-60298100D02*
X64680900Y-57399000D01*
X62460000Y-44600000D02*
X62460000Y-57399000D01*
%TO.N,Net-(C4-Pad1)*%
X91093000Y-68500000D02*
X85000000Y-68500000D01*
X79000000Y-63500000D02*
X79000000Y-59500000D01*
X79000000Y-59500000D02*
X75000000Y-55500000D01*
X81000000Y-65500000D02*
X79000000Y-63500000D01*
X94294900Y-70500000D02*
X93093000Y-70500000D01*
X75000000Y-55500000D02*
X71740000Y-55500000D01*
X82000000Y-65500000D02*
X81000000Y-65500000D01*
X93093000Y-70500000D02*
X91093000Y-68500000D01*
X85000000Y-68500000D02*
X82000000Y-65500000D01*
%TO.N,Out +*%
X71840000Y-63520000D02*
X71840000Y-67500000D01*
X71820000Y-63500000D02*
X71840000Y-63520000D01*
%TO.N,Uh2*%
X100800000Y-51061900D02*
X103960000Y-47901900D01*
X103960000Y-69900000D02*
X103960000Y-68898100D01*
X103960000Y-68898100D02*
X100800000Y-65738100D01*
X100800000Y-58400000D02*
X100800000Y-51061900D01*
X100800000Y-65738100D02*
X100800000Y-58400000D01*
X103960000Y-46900000D02*
X103960000Y-47901900D01*
%TO.N,Net-(D1-K)*%
X106138100Y-45000000D02*
X108038100Y-46900000D01*
X90700000Y-65400000D02*
X90700000Y-60300000D01*
X103000000Y-45000000D02*
X106138100Y-45000000D01*
X108038100Y-46900000D02*
X109040000Y-46900000D01*
X93500000Y-54500000D02*
X103000000Y-45000000D01*
X93500000Y-57500000D02*
X93500000Y-54500000D01*
X90700000Y-60300000D02*
X93500000Y-57500000D01*
%TO.N,Net-(D2-A)*%
X84998100Y-65316200D02*
X83181900Y-63500000D01*
X81980000Y-63500000D02*
X83181900Y-63500000D01*
X86500000Y-65380000D02*
X84998100Y-65380000D01*
X84998100Y-65380000D02*
X84998100Y-65316200D01*
%TO.N,Net-(Q1-E)*%
X80798100Y-67500000D02*
X76798100Y-71500000D01*
X76798100Y-71500000D02*
X71840000Y-71500000D01*
X82000000Y-67500000D02*
X80798100Y-67500000D01*
X60500000Y-71500000D02*
X71840000Y-71500000D01*
X59920000Y-70920000D02*
X60500000Y-71500000D01*
X59920000Y-70000000D02*
X59920000Y-70920000D01*
%TO.N,Net-(Q2-E)*%
X69396400Y-51898300D02*
X69396400Y-57156400D01*
X65000000Y-47501900D02*
X69396400Y-51898300D01*
X69396400Y-57156400D02*
X71740000Y-59500000D01*
X65000000Y-46500000D02*
X65000000Y-47501900D01*
%TO.N,Net-(R6-Pad2)*%
X49000000Y-62030000D02*
X49000000Y-59490000D01*
%TO.N,Net-(J4-Pin_1)*%
X75410000Y-43660000D02*
X77950000Y-46200000D01*
X72500000Y-43660000D02*
X75410000Y-43660000D01*
%TD*%
%TA.AperFunction,Conductor*%
%TO.N,-12V*%
G36*
X112877154Y-40515148D02*
G01*
X112941714Y-40558286D01*
X112984852Y-40622846D01*
X113000000Y-40699000D01*
X113000000Y-76301000D01*
X112984852Y-76377154D01*
X112941714Y-76441714D01*
X112877154Y-76484852D01*
X112801000Y-76500000D01*
X44699000Y-76500000D01*
X44622846Y-76484852D01*
X44558286Y-76441714D01*
X44515148Y-76377154D01*
X44500000Y-76301000D01*
X44500000Y-73000000D01*
X46644341Y-73000000D01*
X46645098Y-73008652D01*
X46664179Y-73226753D01*
X46664180Y-73226761D01*
X46664937Y-73235408D01*
X46726097Y-73463663D01*
X46729764Y-73471527D01*
X46729767Y-73471535D01*
X46822290Y-73669950D01*
X46825965Y-73677830D01*
X46830950Y-73684949D01*
X46830951Y-73684951D01*
X46956519Y-73864281D01*
X46956522Y-73864284D01*
X46961505Y-73871401D01*
X47128599Y-74038495D01*
X47135716Y-74043478D01*
X47135718Y-74043480D01*
X47159337Y-74060018D01*
X47322170Y-74174035D01*
X47330049Y-74177709D01*
X47528464Y-74270232D01*
X47528466Y-74270232D01*
X47536337Y-74273903D01*
X47764592Y-74335063D01*
X48000000Y-74355659D01*
X48235408Y-74335063D01*
X48463663Y-74273903D01*
X48677830Y-74174035D01*
X48871401Y-74038495D01*
X49038495Y-73871401D01*
X49174035Y-73677830D01*
X49273903Y-73463663D01*
X49335063Y-73235408D01*
X49355659Y-73000000D01*
X49335063Y-72764592D01*
X49273903Y-72536337D01*
X49174035Y-72322171D01*
X49038495Y-72128599D01*
X48998702Y-72088806D01*
X48955025Y-72022931D01*
X48940436Y-71945250D01*
X48957238Y-71868017D01*
X49002778Y-71803416D01*
X49069874Y-71761639D01*
X49078749Y-71758328D01*
X49103484Y-71744822D01*
X49195796Y-71675717D01*
X49215717Y-71655796D01*
X49284822Y-71563484D01*
X49298327Y-71538751D01*
X49339247Y-71429041D01*
X49344928Y-71404998D01*
X49349430Y-71363126D01*
X49350000Y-71352497D01*
X49350000Y-70729598D01*
X49346748Y-70713251D01*
X49330402Y-70710000D01*
X46669598Y-70710000D01*
X46653251Y-70713251D01*
X46650000Y-70729598D01*
X46650000Y-71352497D01*
X46650569Y-71363126D01*
X46655071Y-71404998D01*
X46660752Y-71429041D01*
X46701672Y-71538751D01*
X46715177Y-71563484D01*
X46784282Y-71655796D01*
X46804203Y-71675717D01*
X46896515Y-71744822D01*
X46921250Y-71758328D01*
X46930128Y-71761640D01*
X46997222Y-71803418D01*
X47042762Y-71868018D01*
X47059563Y-71945250D01*
X47044975Y-72022930D01*
X47001299Y-72088804D01*
X46967651Y-72122452D01*
X46967645Y-72122458D01*
X46961505Y-72128599D01*
X46956522Y-72135715D01*
X46956519Y-72135719D01*
X46830952Y-72315048D01*
X46830949Y-72315052D01*
X46825965Y-72322171D01*
X46822293Y-72330044D01*
X46822292Y-72330047D01*
X46729767Y-72528464D01*
X46729762Y-72528476D01*
X46726097Y-72536337D01*
X46723851Y-72544718D01*
X46723847Y-72544730D01*
X46667186Y-72756196D01*
X46667184Y-72756203D01*
X46664937Y-72764592D01*
X46664180Y-72773236D01*
X46664179Y-72773246D01*
X46646432Y-72976100D01*
X46644341Y-73000000D01*
X44500000Y-73000000D01*
X44500000Y-70190402D01*
X46650000Y-70190402D01*
X46653251Y-70206748D01*
X46669598Y-70210000D01*
X47730402Y-70210000D01*
X47746748Y-70206748D01*
X47750000Y-70190402D01*
X48250000Y-70190402D01*
X48253251Y-70206748D01*
X48269598Y-70210000D01*
X49330402Y-70210000D01*
X49346748Y-70206748D01*
X49350000Y-70190402D01*
X49350000Y-69567503D01*
X49349430Y-69556873D01*
X49344928Y-69515001D01*
X49339247Y-69490958D01*
X49298327Y-69381248D01*
X49284822Y-69356515D01*
X49215717Y-69264203D01*
X49195796Y-69244282D01*
X49103484Y-69175177D01*
X49078751Y-69161672D01*
X48969041Y-69120752D01*
X48944998Y-69115071D01*
X48903126Y-69110569D01*
X48892497Y-69110000D01*
X48269598Y-69110000D01*
X48253251Y-69113251D01*
X48250000Y-69129598D01*
X48250000Y-70190402D01*
X47750000Y-70190402D01*
X47750000Y-69129598D01*
X47746748Y-69113251D01*
X47730402Y-69110000D01*
X47107503Y-69110000D01*
X47096873Y-69110569D01*
X47055001Y-69115071D01*
X47030958Y-69120752D01*
X46921248Y-69161672D01*
X46896515Y-69175177D01*
X46804203Y-69244282D01*
X46784282Y-69264203D01*
X46715177Y-69356515D01*
X46701672Y-69381248D01*
X46660752Y-69490958D01*
X46655071Y-69515001D01*
X46650569Y-69556873D01*
X46650000Y-69567503D01*
X46650000Y-70190402D01*
X44500000Y-70190402D01*
X44500000Y-62030000D01*
X47774838Y-62030000D01*
X47775595Y-62038653D01*
X47786198Y-62159851D01*
X47793451Y-62242747D01*
X47795698Y-62251134D01*
X47795699Y-62251138D01*
X47846476Y-62440641D01*
X47848724Y-62449030D01*
X47938979Y-62642581D01*
X47943958Y-62649693D01*
X47943960Y-62649695D01*
X47956762Y-62667978D01*
X48061471Y-62817519D01*
X48212481Y-62968529D01*
X48387419Y-63091021D01*
X48580970Y-63181276D01*
X48787253Y-63236549D01*
X49000000Y-63255162D01*
X49212747Y-63236549D01*
X49419030Y-63181276D01*
X49612581Y-63091021D01*
X49787519Y-62968529D01*
X49938529Y-62817519D01*
X50061021Y-62642581D01*
X50151276Y-62449030D01*
X50206549Y-62242747D01*
X50225162Y-62030000D01*
X50206549Y-61817253D01*
X50151276Y-61610970D01*
X50061021Y-61417419D01*
X49938529Y-61242481D01*
X49787519Y-61091471D01*
X49780401Y-61086487D01*
X49773743Y-61080900D01*
X49774773Y-61079672D01*
X49739889Y-61045796D01*
X49710604Y-60989550D01*
X49700500Y-60926947D01*
X49700500Y-60593053D01*
X49710604Y-60530450D01*
X49739889Y-60474204D01*
X49774773Y-60440327D01*
X49773743Y-60439100D01*
X49780399Y-60433514D01*
X49787519Y-60428529D01*
X49938529Y-60277519D01*
X50061021Y-60102581D01*
X50151276Y-59909030D01*
X50206549Y-59702747D01*
X50225162Y-59490000D01*
X50206549Y-59277253D01*
X50151276Y-59070970D01*
X50061021Y-58877419D01*
X49938529Y-58702481D01*
X49787519Y-58551471D01*
X49612581Y-58428979D01*
X49604707Y-58425307D01*
X49604705Y-58425306D01*
X49551198Y-58400355D01*
X49490551Y-58356562D01*
X49450359Y-58293472D01*
X49436299Y-58220000D01*
X49450359Y-58146528D01*
X49490551Y-58083438D01*
X49551198Y-58039645D01*
X49571850Y-58030014D01*
X49612581Y-58011021D01*
X49787519Y-57888529D01*
X49938529Y-57737519D01*
X50061021Y-57562581D01*
X50151276Y-57369030D01*
X50206549Y-57162747D01*
X50225162Y-56950000D01*
X50206549Y-56737253D01*
X50151276Y-56530970D01*
X50061021Y-56337419D01*
X49938529Y-56162481D01*
X49787519Y-56011471D01*
X49757220Y-55990256D01*
X49619695Y-55893960D01*
X49619693Y-55893958D01*
X49612581Y-55888979D01*
X49419030Y-55798724D01*
X49410642Y-55796476D01*
X49410641Y-55796476D01*
X49221138Y-55745699D01*
X49221134Y-55745698D01*
X49212747Y-55743451D01*
X49204095Y-55742694D01*
X49008653Y-55725595D01*
X49000000Y-55724838D01*
X48991347Y-55725595D01*
X48795904Y-55742694D01*
X48795902Y-55742694D01*
X48787253Y-55743451D01*
X48778867Y-55745697D01*
X48778861Y-55745699D01*
X48589358Y-55796476D01*
X48589353Y-55796477D01*
X48580970Y-55798724D01*
X48573104Y-55802391D01*
X48573101Y-55802393D01*
X48395290Y-55885308D01*
X48395284Y-55885311D01*
X48387419Y-55888979D01*
X48380311Y-55893955D01*
X48380304Y-55893960D01*
X48219598Y-56006487D01*
X48219593Y-56006490D01*
X48212481Y-56011471D01*
X48206341Y-56017610D01*
X48206335Y-56017616D01*
X48067616Y-56156335D01*
X48067610Y-56156341D01*
X48061471Y-56162481D01*
X48056490Y-56169593D01*
X48056487Y-56169598D01*
X47943960Y-56330304D01*
X47943955Y-56330311D01*
X47938979Y-56337419D01*
X47935311Y-56345284D01*
X47935308Y-56345290D01*
X47856218Y-56514899D01*
X47848724Y-56530970D01*
X47846477Y-56539353D01*
X47846476Y-56539358D01*
X47795699Y-56728861D01*
X47795697Y-56728867D01*
X47793451Y-56737253D01*
X47792694Y-56745902D01*
X47792694Y-56745904D01*
X47775641Y-56940824D01*
X47774838Y-56950000D01*
X47775595Y-56958653D01*
X47782180Y-57033925D01*
X47793451Y-57162747D01*
X47795698Y-57171134D01*
X47795699Y-57171138D01*
X47842775Y-57346829D01*
X47848724Y-57369030D01*
X47852393Y-57376898D01*
X47897120Y-57472816D01*
X47938979Y-57562581D01*
X48061471Y-57737519D01*
X48212481Y-57888529D01*
X48387419Y-58011021D01*
X48448803Y-58039645D01*
X48509448Y-58083439D01*
X48549640Y-58146529D01*
X48563700Y-58220000D01*
X48549640Y-58293471D01*
X48509448Y-58356561D01*
X48448803Y-58400355D01*
X48395286Y-58425310D01*
X48395281Y-58425312D01*
X48387419Y-58428979D01*
X48380311Y-58433955D01*
X48380304Y-58433960D01*
X48219598Y-58546487D01*
X48219593Y-58546490D01*
X48212481Y-58551471D01*
X48206341Y-58557610D01*
X48206335Y-58557616D01*
X48067616Y-58696335D01*
X48067610Y-58696341D01*
X48061471Y-58702481D01*
X48056490Y-58709593D01*
X48056487Y-58709598D01*
X47943960Y-58870304D01*
X47943955Y-58870311D01*
X47938979Y-58877419D01*
X47935311Y-58885284D01*
X47935308Y-58885290D01*
X47852393Y-59063101D01*
X47848724Y-59070970D01*
X47846477Y-59079353D01*
X47846476Y-59079358D01*
X47795699Y-59268861D01*
X47795697Y-59268867D01*
X47793451Y-59277253D01*
X47792694Y-59285902D01*
X47792694Y-59285904D01*
X47782671Y-59400471D01*
X47774838Y-59490000D01*
X47775595Y-59498653D01*
X47776768Y-59512066D01*
X47793451Y-59702747D01*
X47795698Y-59711134D01*
X47795699Y-59711138D01*
X47846424Y-59900448D01*
X47848724Y-59909030D01*
X47852393Y-59916898D01*
X47932258Y-60088169D01*
X47938979Y-60102581D01*
X47943958Y-60109693D01*
X47943960Y-60109695D01*
X48029508Y-60231871D01*
X48061471Y-60277519D01*
X48212481Y-60428529D01*
X48219598Y-60433512D01*
X48226257Y-60439100D01*
X48225226Y-60440327D01*
X48260111Y-60474204D01*
X48289396Y-60530450D01*
X48299500Y-60593053D01*
X48299500Y-60926947D01*
X48289396Y-60989550D01*
X48260111Y-61045796D01*
X48225226Y-61079672D01*
X48226257Y-61080900D01*
X48219596Y-61086489D01*
X48212481Y-61091471D01*
X48206341Y-61097610D01*
X48206335Y-61097616D01*
X48067616Y-61236335D01*
X48067610Y-61236341D01*
X48061471Y-61242481D01*
X48056490Y-61249593D01*
X48056487Y-61249598D01*
X47943960Y-61410304D01*
X47943955Y-61410311D01*
X47938979Y-61417419D01*
X47935311Y-61425284D01*
X47935308Y-61425290D01*
X47852393Y-61603101D01*
X47848724Y-61610970D01*
X47846477Y-61619353D01*
X47846476Y-61619358D01*
X47795699Y-61808861D01*
X47795697Y-61808867D01*
X47793451Y-61817253D01*
X47792694Y-61825902D01*
X47792694Y-61825904D01*
X47778787Y-61984863D01*
X47774838Y-62030000D01*
X44500000Y-62030000D01*
X44500000Y-49030000D01*
X47774838Y-49030000D01*
X47793451Y-49242747D01*
X47795698Y-49251134D01*
X47795699Y-49251138D01*
X47828989Y-49375378D01*
X47848724Y-49449030D01*
X47938979Y-49642581D01*
X48061471Y-49817519D01*
X48212481Y-49968529D01*
X48387419Y-50091021D01*
X48580970Y-50181276D01*
X48787253Y-50236549D01*
X49000000Y-50255162D01*
X49123199Y-50244383D01*
X49208603Y-50255627D01*
X49281255Y-50301912D01*
X52241214Y-53261871D01*
X52284352Y-53326431D01*
X52299500Y-53402585D01*
X52299500Y-60472816D01*
X52299137Y-60484831D01*
X52295642Y-60542606D01*
X52297810Y-60554441D01*
X52297811Y-60554445D01*
X52306076Y-60599549D01*
X52307884Y-60611426D01*
X52309550Y-60625147D01*
X52314860Y-60668872D01*
X52319126Y-60680123D01*
X52321367Y-60689213D01*
X52324136Y-60698098D01*
X52326305Y-60709932D01*
X52331244Y-60720906D01*
X52331245Y-60720908D01*
X52350058Y-60762711D01*
X52354656Y-60773810D01*
X52370914Y-60816678D01*
X52370916Y-60816682D01*
X52375182Y-60827930D01*
X52382019Y-60837834D01*
X52386351Y-60846088D01*
X52391180Y-60854078D01*
X52396122Y-60865057D01*
X52403542Y-60874528D01*
X52403547Y-60874536D01*
X52431818Y-60910621D01*
X52438932Y-60920288D01*
X52471817Y-60967929D01*
X52496222Y-60989550D01*
X52515137Y-61006307D01*
X52523890Y-61014547D01*
X59341451Y-67832108D01*
X59349677Y-67840845D01*
X59388071Y-67884183D01*
X59435701Y-67917060D01*
X59445378Y-67924181D01*
X59481459Y-67952449D01*
X59481465Y-67952453D01*
X59490943Y-67959878D01*
X59501928Y-67964821D01*
X59509922Y-67969654D01*
X59518160Y-67973977D01*
X59528070Y-67980818D01*
X59570350Y-67996852D01*
X59582183Y-68001340D01*
X59593290Y-68005941D01*
X59633172Y-68023890D01*
X59646068Y-68029694D01*
X59657917Y-68031865D01*
X59666826Y-68034641D01*
X59675869Y-68036870D01*
X59687128Y-68041140D01*
X59744592Y-68048117D01*
X59756454Y-68049922D01*
X59813394Y-68060357D01*
X59871157Y-68056863D01*
X59883173Y-68056500D01*
X64100500Y-68056500D01*
X64176654Y-68071648D01*
X64241214Y-68114786D01*
X64284352Y-68179346D01*
X64299500Y-68255500D01*
X64299500Y-69061564D01*
X64282544Y-69141944D01*
X64234566Y-69208626D01*
X64190039Y-69249217D01*
X64190027Y-69249230D01*
X64183236Y-69255421D01*
X64177690Y-69262763D01*
X64177689Y-69262766D01*
X64074433Y-69399500D01*
X64060327Y-69418179D01*
X64056227Y-69426411D01*
X64056225Y-69426416D01*
X63973518Y-69592515D01*
X63973516Y-69592519D01*
X63969418Y-69600750D01*
X63966901Y-69609593D01*
X63966900Y-69609598D01*
X63921403Y-69769503D01*
X63881121Y-69844516D01*
X63813174Y-69895828D01*
X63730000Y-69914043D01*
X63646826Y-69895828D01*
X63578879Y-69844516D01*
X63538597Y-69769503D01*
X63515425Y-69688063D01*
X63490582Y-69600750D01*
X63399673Y-69418179D01*
X63276764Y-69255421D01*
X63234735Y-69217107D01*
X63215423Y-69199501D01*
X63126041Y-69118019D01*
X62952637Y-69010652D01*
X62825925Y-68961564D01*
X62771034Y-68940299D01*
X62771032Y-68940298D01*
X62762456Y-68936976D01*
X62753421Y-68935287D01*
X62753414Y-68935285D01*
X62571014Y-68901189D01*
X62571008Y-68901188D01*
X62561976Y-68899500D01*
X62358024Y-68899500D01*
X62348992Y-68901188D01*
X62348985Y-68901189D01*
X62166585Y-68935285D01*
X62166575Y-68935287D01*
X62157544Y-68936976D01*
X62148969Y-68940297D01*
X62148965Y-68940299D01*
X61975942Y-69007328D01*
X61975937Y-69007330D01*
X61967363Y-69010652D01*
X61959542Y-69015494D01*
X61959539Y-69015496D01*
X61801785Y-69113173D01*
X61801782Y-69113174D01*
X61793959Y-69118019D01*
X61787160Y-69124216D01*
X61787156Y-69124220D01*
X61650036Y-69249221D01*
X61650030Y-69249226D01*
X61643236Y-69255421D01*
X61637690Y-69262763D01*
X61637689Y-69262766D01*
X61534433Y-69399500D01*
X61520327Y-69418179D01*
X61516227Y-69426411D01*
X61516225Y-69426416D01*
X61433518Y-69592515D01*
X61433516Y-69592519D01*
X61429418Y-69600750D01*
X61426901Y-69609593D01*
X61426900Y-69609598D01*
X61381403Y-69769503D01*
X61341121Y-69844516D01*
X61273174Y-69895828D01*
X61190000Y-69914043D01*
X61106826Y-69895828D01*
X61038879Y-69844516D01*
X60998597Y-69769503D01*
X60975425Y-69688063D01*
X60950582Y-69600750D01*
X60859673Y-69418179D01*
X60736764Y-69255421D01*
X60694735Y-69217107D01*
X60675423Y-69199501D01*
X60586041Y-69118019D01*
X60412637Y-69010652D01*
X60285925Y-68961564D01*
X60231034Y-68940299D01*
X60231032Y-68940298D01*
X60222456Y-68936976D01*
X60213421Y-68935287D01*
X60213414Y-68935285D01*
X60031014Y-68901189D01*
X60031008Y-68901188D01*
X60021976Y-68899500D01*
X59818024Y-68899500D01*
X59808992Y-68901188D01*
X59808985Y-68901189D01*
X59626585Y-68935285D01*
X59626575Y-68935287D01*
X59617544Y-68936976D01*
X59608969Y-68940297D01*
X59608965Y-68940299D01*
X59435942Y-69007328D01*
X59435937Y-69007330D01*
X59427363Y-69010652D01*
X59419542Y-69015494D01*
X59419539Y-69015496D01*
X59261785Y-69113173D01*
X59261782Y-69113174D01*
X59253959Y-69118019D01*
X59247160Y-69124216D01*
X59247156Y-69124220D01*
X59110036Y-69249221D01*
X59110030Y-69249226D01*
X59103236Y-69255421D01*
X59097690Y-69262763D01*
X59097689Y-69262766D01*
X58994433Y-69399500D01*
X58980327Y-69418179D01*
X58976227Y-69426411D01*
X58976225Y-69426416D01*
X58893518Y-69592515D01*
X58893516Y-69592519D01*
X58889418Y-69600750D01*
X58886901Y-69609593D01*
X58886900Y-69609598D01*
X58841403Y-69769503D01*
X58833603Y-69796917D01*
X58832754Y-69806075D01*
X58832753Y-69806083D01*
X58819172Y-69952652D01*
X58814785Y-70000000D01*
X58815634Y-70009162D01*
X58832753Y-70193916D01*
X58832754Y-70193922D01*
X58833603Y-70203083D01*
X58836122Y-70211936D01*
X58886899Y-70390399D01*
X58889418Y-70399250D01*
X58980327Y-70581821D01*
X59103236Y-70744579D01*
X59110032Y-70750774D01*
X59110039Y-70750782D01*
X59151950Y-70788989D01*
X59202272Y-70861203D01*
X59214971Y-70938617D01*
X59215642Y-70938577D01*
X59216037Y-70945110D01*
X59216521Y-70948060D01*
X59216368Y-70950585D01*
X59216368Y-70950594D01*
X59215642Y-70962606D01*
X59217810Y-70974441D01*
X59217811Y-70974445D01*
X59226076Y-71019549D01*
X59227884Y-71031426D01*
X59232347Y-71068181D01*
X59234860Y-71088872D01*
X59239126Y-71100123D01*
X59241367Y-71109213D01*
X59244136Y-71118098D01*
X59246305Y-71129932D01*
X59255047Y-71149358D01*
X59270058Y-71182711D01*
X59274656Y-71193810D01*
X59290914Y-71236678D01*
X59290916Y-71236682D01*
X59295182Y-71247930D01*
X59302019Y-71257834D01*
X59306351Y-71266088D01*
X59311180Y-71274078D01*
X59316122Y-71285057D01*
X59323542Y-71294528D01*
X59323547Y-71294536D01*
X59351818Y-71330621D01*
X59358932Y-71340288D01*
X59391817Y-71387929D01*
X59435137Y-71426307D01*
X59443890Y-71434547D01*
X59985451Y-71976108D01*
X59993677Y-71984845D01*
X60032071Y-72028183D01*
X60079701Y-72061060D01*
X60089378Y-72068181D01*
X60125465Y-72096453D01*
X60125467Y-72096454D01*
X60134943Y-72103878D01*
X60145921Y-72108818D01*
X60153909Y-72113647D01*
X60162162Y-72117979D01*
X60172070Y-72124818D01*
X60200815Y-72135719D01*
X60226179Y-72145338D01*
X60237286Y-72149938D01*
X60290069Y-72173695D01*
X60301907Y-72175864D01*
X60310792Y-72178633D01*
X60319869Y-72180870D01*
X60331128Y-72185140D01*
X60388572Y-72192114D01*
X60400433Y-72193919D01*
X60457394Y-72204358D01*
X60515168Y-72200862D01*
X60527184Y-72200500D01*
X70639284Y-72200500D01*
X70701879Y-72210601D01*
X70758119Y-72239878D01*
X70802295Y-72285359D01*
X70834963Y-72332014D01*
X70834969Y-72332021D01*
X70839953Y-72339139D01*
X70846097Y-72345283D01*
X70846098Y-72345284D01*
X70985600Y-72484786D01*
X71028738Y-72549346D01*
X71043886Y-72625500D01*
X71028738Y-72701654D01*
X70985600Y-72766214D01*
X70921040Y-72809352D01*
X70844886Y-72824500D01*
X55024412Y-72824500D01*
X54950727Y-72810355D01*
X54887516Y-72769932D01*
X54843767Y-72708976D01*
X54825697Y-72636154D01*
X54825499Y-72632457D01*
X54825499Y-72627128D01*
X54819091Y-72567517D01*
X54768796Y-72432669D01*
X54682546Y-72317454D01*
X54624018Y-72273640D01*
X54578726Y-72239734D01*
X54578724Y-72239733D01*
X54567331Y-72231204D01*
X54553994Y-72226229D01*
X54553993Y-72226229D01*
X54545258Y-72222971D01*
X54478164Y-72181192D01*
X54432624Y-72116591D01*
X54415824Y-72039358D01*
X54430414Y-71961677D01*
X54474090Y-71895805D01*
X54513495Y-71856401D01*
X54649035Y-71662830D01*
X54748903Y-71448663D01*
X54810063Y-71220408D01*
X54830659Y-70985000D01*
X54810063Y-70749592D01*
X54748903Y-70521337D01*
X54744455Y-70511799D01*
X54687845Y-70390399D01*
X54649035Y-70307171D01*
X54513495Y-70113599D01*
X54346401Y-69946505D01*
X54339283Y-69941521D01*
X54339276Y-69941515D01*
X54248582Y-69878011D01*
X54195828Y-69823383D01*
X54167379Y-69752971D01*
X54167379Y-69677029D01*
X54195828Y-69606617D01*
X54248582Y-69551989D01*
X54339276Y-69488484D01*
X54339276Y-69488483D01*
X54346401Y-69483495D01*
X54513495Y-69316401D01*
X54649035Y-69122830D01*
X54748903Y-68908663D01*
X54810063Y-68680408D01*
X54830659Y-68445000D01*
X54810063Y-68209592D01*
X54765316Y-68042591D01*
X54751152Y-67989730D01*
X54751151Y-67989728D01*
X54748903Y-67981337D01*
X54741276Y-67964982D01*
X54699398Y-67875174D01*
X54649035Y-67767171D01*
X54513495Y-67573599D01*
X54346401Y-67406505D01*
X54339284Y-67401522D01*
X54339281Y-67401519D01*
X54159951Y-67275951D01*
X54159949Y-67275950D01*
X54152830Y-67270965D01*
X54144954Y-67267292D01*
X54144950Y-67267290D01*
X53946535Y-67174767D01*
X53946527Y-67174764D01*
X53938663Y-67171097D01*
X53930275Y-67168849D01*
X53930271Y-67168848D01*
X53718803Y-67112186D01*
X53718798Y-67112185D01*
X53710408Y-67109937D01*
X53701761Y-67109180D01*
X53701753Y-67109179D01*
X53483652Y-67090098D01*
X53475000Y-67089341D01*
X53466348Y-67090098D01*
X53248246Y-67109179D01*
X53248236Y-67109180D01*
X53239592Y-67109937D01*
X53231203Y-67112184D01*
X53231196Y-67112186D01*
X53019730Y-67168847D01*
X53019718Y-67168851D01*
X53011337Y-67171097D01*
X53003476Y-67174762D01*
X53003464Y-67174767D01*
X52805047Y-67267292D01*
X52805044Y-67267293D01*
X52797171Y-67270965D01*
X52790052Y-67275949D01*
X52790048Y-67275952D01*
X52610719Y-67401519D01*
X52610715Y-67401522D01*
X52603599Y-67406505D01*
X52597459Y-67412644D01*
X52597453Y-67412650D01*
X52442650Y-67567453D01*
X52442644Y-67567459D01*
X52436505Y-67573599D01*
X52431522Y-67580715D01*
X52431519Y-67580719D01*
X52305952Y-67760048D01*
X52305949Y-67760052D01*
X52300965Y-67767171D01*
X52297293Y-67775044D01*
X52297292Y-67775047D01*
X52204767Y-67973464D01*
X52204762Y-67973476D01*
X52201097Y-67981337D01*
X52198851Y-67989718D01*
X52198847Y-67989730D01*
X52142186Y-68201196D01*
X52142184Y-68201203D01*
X52139937Y-68209592D01*
X52139180Y-68218236D01*
X52139179Y-68218246D01*
X52128065Y-68345284D01*
X52119341Y-68445000D01*
X52120098Y-68453652D01*
X52139179Y-68671753D01*
X52139180Y-68671761D01*
X52139937Y-68680408D01*
X52142185Y-68688798D01*
X52142186Y-68688803D01*
X52198848Y-68900271D01*
X52201097Y-68908663D01*
X52204764Y-68916527D01*
X52204767Y-68916535D01*
X52296498Y-69113251D01*
X52300965Y-69122830D01*
X52305950Y-69129949D01*
X52305951Y-69129951D01*
X52431519Y-69309281D01*
X52431522Y-69309284D01*
X52436505Y-69316401D01*
X52603599Y-69483495D01*
X52610717Y-69488479D01*
X52610723Y-69488484D01*
X52701418Y-69551989D01*
X52754172Y-69606616D01*
X52782621Y-69677029D01*
X52782621Y-69752971D01*
X52754173Y-69823383D01*
X52701419Y-69878010D01*
X52603599Y-69946505D01*
X52597459Y-69952644D01*
X52597453Y-69952650D01*
X52442650Y-70107453D01*
X52442644Y-70107459D01*
X52436505Y-70113599D01*
X52431522Y-70120715D01*
X52431519Y-70120719D01*
X52305952Y-70300048D01*
X52305949Y-70300052D01*
X52300965Y-70307171D01*
X52297293Y-70315044D01*
X52297292Y-70315047D01*
X52204767Y-70513464D01*
X52204762Y-70513476D01*
X52201097Y-70521337D01*
X52198851Y-70529718D01*
X52198847Y-70529730D01*
X52142186Y-70741196D01*
X52142184Y-70741203D01*
X52139937Y-70749592D01*
X52139180Y-70758236D01*
X52139179Y-70758246D01*
X52121300Y-70962606D01*
X52119341Y-70985000D01*
X52120098Y-70993652D01*
X52139179Y-71211753D01*
X52139180Y-71211761D01*
X52139937Y-71220408D01*
X52142185Y-71228798D01*
X52142186Y-71228803D01*
X52198848Y-71440271D01*
X52201097Y-71448663D01*
X52204764Y-71456527D01*
X52204767Y-71456535D01*
X52292343Y-71644341D01*
X52300965Y-71662830D01*
X52305950Y-71669949D01*
X52305951Y-71669951D01*
X52431519Y-71849281D01*
X52431522Y-71849284D01*
X52436505Y-71856401D01*
X52442651Y-71862547D01*
X52442652Y-71862548D01*
X52475909Y-71895805D01*
X52519586Y-71961679D01*
X52534175Y-72039358D01*
X52517375Y-72116590D01*
X52471837Y-72181191D01*
X52404743Y-72222970D01*
X52396009Y-72226227D01*
X52396000Y-72226231D01*
X52382669Y-72231204D01*
X52371278Y-72239731D01*
X52371273Y-72239734D01*
X52278846Y-72308925D01*
X52278842Y-72308928D01*
X52267454Y-72317454D01*
X52258928Y-72328842D01*
X52258925Y-72328846D01*
X52189734Y-72421273D01*
X52189731Y-72421278D01*
X52181204Y-72432669D01*
X52176230Y-72446002D01*
X52176229Y-72446006D01*
X52135259Y-72555852D01*
X52135257Y-72555857D01*
X52130909Y-72567517D01*
X52129578Y-72579889D01*
X52129578Y-72579893D01*
X52125069Y-72621829D01*
X52125068Y-72621840D01*
X52124500Y-72627127D01*
X52124500Y-72632456D01*
X52124500Y-72632457D01*
X52124500Y-74417538D01*
X52124500Y-74417556D01*
X52124501Y-74422872D01*
X52125071Y-74428171D01*
X52125071Y-74428176D01*
X52129577Y-74470100D01*
X52129578Y-74470106D01*
X52130909Y-74482483D01*
X52181204Y-74617331D01*
X52267454Y-74732546D01*
X52382669Y-74818796D01*
X52517517Y-74869091D01*
X52577127Y-74875500D01*
X54372872Y-74875499D01*
X54432483Y-74869091D01*
X54567331Y-74818796D01*
X54682546Y-74732546D01*
X54768796Y-74617331D01*
X54819091Y-74482483D01*
X54825500Y-74422873D01*
X54825500Y-74417538D01*
X54825698Y-74413849D01*
X54843767Y-74341026D01*
X54887516Y-74280069D01*
X54950727Y-74239645D01*
X55024413Y-74225500D01*
X79947816Y-74225500D01*
X79959831Y-74225862D01*
X80017606Y-74229358D01*
X80074570Y-74218918D01*
X80086422Y-74217115D01*
X80143872Y-74210140D01*
X80155132Y-74205869D01*
X80164189Y-74203637D01*
X80173081Y-74200866D01*
X80184932Y-74198695D01*
X80237725Y-74174933D01*
X80248800Y-74170345D01*
X80302930Y-74149818D01*
X80312843Y-74142974D01*
X80321109Y-74138636D01*
X80329076Y-74133819D01*
X80340057Y-74128878D01*
X80385637Y-74093167D01*
X80395266Y-74086082D01*
X80442929Y-74053183D01*
X80481325Y-74009841D01*
X80489531Y-74001124D01*
X81644900Y-72845755D01*
X81717550Y-72799472D01*
X81802952Y-72788228D01*
X82000000Y-72805468D01*
X82197046Y-72788228D01*
X82282449Y-72799472D01*
X82355101Y-72845757D01*
X82485444Y-72976100D01*
X82493684Y-72984853D01*
X82532071Y-73028183D01*
X82579716Y-73061070D01*
X82589381Y-73068182D01*
X82634944Y-73103878D01*
X82645917Y-73108816D01*
X82653911Y-73113649D01*
X82662164Y-73117980D01*
X82672070Y-73124818D01*
X82726178Y-73145338D01*
X82726194Y-73145344D01*
X82737289Y-73149940D01*
X82790069Y-73173695D01*
X82801913Y-73175865D01*
X82810798Y-73178634D01*
X82819866Y-73180869D01*
X82831128Y-73185140D01*
X82888572Y-73192114D01*
X82900433Y-73193919D01*
X82957394Y-73204358D01*
X83015168Y-73200862D01*
X83027184Y-73200500D01*
X104470916Y-73200500D01*
X104482931Y-73200862D01*
X104540706Y-73204358D01*
X104597670Y-73193918D01*
X104609522Y-73192115D01*
X104666972Y-73185140D01*
X104678232Y-73180869D01*
X104687289Y-73178637D01*
X104696181Y-73175866D01*
X104708032Y-73173695D01*
X104760825Y-73149933D01*
X104771906Y-73145344D01*
X104826030Y-73124818D01*
X104835943Y-73117974D01*
X104844209Y-73113636D01*
X104852176Y-73108819D01*
X104863157Y-73103878D01*
X104908737Y-73068167D01*
X104918366Y-73061082D01*
X104966029Y-73028183D01*
X105004425Y-72984841D01*
X105012632Y-72976123D01*
X105582682Y-72406072D01*
X105640918Y-72365684D01*
X105709619Y-72348266D01*
X105780067Y-72356030D01*
X105833356Y-72382953D01*
X105833959Y-72381981D01*
X106007363Y-72489348D01*
X106197544Y-72563024D01*
X106398024Y-72600500D01*
X106592779Y-72600500D01*
X106601976Y-72600500D01*
X106802456Y-72563024D01*
X106992637Y-72489348D01*
X107166041Y-72381981D01*
X107316764Y-72244579D01*
X107439673Y-72081821D01*
X107530582Y-71899250D01*
X107586397Y-71703083D01*
X107605215Y-71500000D01*
X107586397Y-71296917D01*
X107530582Y-71100750D01*
X107439673Y-70918179D01*
X107316764Y-70755421D01*
X107309967Y-70749224D01*
X107309960Y-70749217D01*
X107265434Y-70708626D01*
X107217456Y-70641944D01*
X107200500Y-70561564D01*
X107200500Y-69900000D01*
X107934785Y-69900000D01*
X107935634Y-69909162D01*
X107952753Y-70093916D01*
X107952754Y-70093922D01*
X107953603Y-70103083D01*
X107956122Y-70111936D01*
X107979447Y-70193916D01*
X108009418Y-70299250D01*
X108100327Y-70481821D01*
X108223236Y-70644579D01*
X108373959Y-70781981D01*
X108547363Y-70889348D01*
X108737544Y-70963024D01*
X108938024Y-71000500D01*
X109132779Y-71000500D01*
X109141976Y-71000500D01*
X109342456Y-70963024D01*
X109532637Y-70889348D01*
X109706041Y-70781981D01*
X109856764Y-70644579D01*
X109979673Y-70481821D01*
X110070582Y-70299250D01*
X110126397Y-70103083D01*
X110145215Y-69900000D01*
X110126397Y-69696917D01*
X110070582Y-69500750D01*
X109979673Y-69318179D01*
X109856764Y-69155421D01*
X109828437Y-69129598D01*
X109734185Y-69043676D01*
X109706041Y-69018019D01*
X109532637Y-68910652D01*
X109505840Y-68900271D01*
X109351034Y-68840299D01*
X109351032Y-68840298D01*
X109342456Y-68836976D01*
X109333421Y-68835287D01*
X109333414Y-68835285D01*
X109151014Y-68801189D01*
X109151008Y-68801188D01*
X109141976Y-68799500D01*
X108938024Y-68799500D01*
X108928992Y-68801188D01*
X108928985Y-68801189D01*
X108746585Y-68835285D01*
X108746575Y-68835287D01*
X108737544Y-68836976D01*
X108728969Y-68840297D01*
X108728965Y-68840299D01*
X108555942Y-68907328D01*
X108555937Y-68907330D01*
X108547363Y-68910652D01*
X108539542Y-68915494D01*
X108539539Y-68915496D01*
X108381785Y-69013173D01*
X108381782Y-69013174D01*
X108373959Y-69018019D01*
X108367160Y-69024216D01*
X108367156Y-69024220D01*
X108230036Y-69149221D01*
X108230030Y-69149226D01*
X108223236Y-69155421D01*
X108217690Y-69162763D01*
X108217689Y-69162766D01*
X108140687Y-69264734D01*
X108100327Y-69318179D01*
X108096227Y-69326411D01*
X108096225Y-69326416D01*
X108013518Y-69492515D01*
X108013516Y-69492519D01*
X108009418Y-69500750D01*
X108006901Y-69509593D01*
X108006900Y-69509598D01*
X107956122Y-69688063D01*
X107953603Y-69696917D01*
X107952754Y-69706075D01*
X107952753Y-69706083D01*
X107938918Y-69855395D01*
X107934785Y-69900000D01*
X107200500Y-69900000D01*
X107200500Y-60372585D01*
X107215648Y-60296431D01*
X107258786Y-60231871D01*
X107618072Y-59872585D01*
X108702175Y-58788481D01*
X108773343Y-58742744D01*
X108857083Y-58730704D01*
X108930695Y-58752318D01*
X108932669Y-58753796D01*
X108954737Y-58762027D01*
X109021832Y-58803803D01*
X109067373Y-58868403D01*
X109084175Y-58945636D01*
X109069587Y-59023317D01*
X109025911Y-59089192D01*
X108992651Y-59122452D01*
X108992645Y-59122458D01*
X108986505Y-59128599D01*
X108981522Y-59135715D01*
X108981519Y-59135719D01*
X108855952Y-59315048D01*
X108855949Y-59315052D01*
X108850965Y-59322171D01*
X108847293Y-59330044D01*
X108847292Y-59330047D01*
X108754767Y-59528464D01*
X108754762Y-59528476D01*
X108751097Y-59536337D01*
X108748851Y-59544718D01*
X108748847Y-59544730D01*
X108692186Y-59756196D01*
X108692184Y-59756203D01*
X108689937Y-59764592D01*
X108689180Y-59773236D01*
X108689179Y-59773246D01*
X108673069Y-59957394D01*
X108669341Y-60000000D01*
X108670098Y-60008652D01*
X108689179Y-60226753D01*
X108689180Y-60226761D01*
X108689937Y-60235408D01*
X108692185Y-60243798D01*
X108692186Y-60243803D01*
X108734810Y-60402878D01*
X108751097Y-60463663D01*
X108754764Y-60471527D01*
X108754767Y-60471535D01*
X108847290Y-60669950D01*
X108850965Y-60677830D01*
X108855950Y-60684949D01*
X108855951Y-60684951D01*
X108981519Y-60864281D01*
X108981522Y-60864284D01*
X108986505Y-60871401D01*
X109153599Y-61038495D01*
X109160716Y-61043478D01*
X109160718Y-61043480D01*
X109227348Y-61090135D01*
X109347170Y-61174035D01*
X109355049Y-61177709D01*
X109553464Y-61270232D01*
X109553466Y-61270232D01*
X109561337Y-61273903D01*
X109789592Y-61335063D01*
X110025000Y-61355659D01*
X110260408Y-61335063D01*
X110488663Y-61273903D01*
X110702830Y-61174035D01*
X110896401Y-61038495D01*
X111063495Y-60871401D01*
X111199035Y-60677830D01*
X111298903Y-60463663D01*
X111360063Y-60235408D01*
X111380659Y-60000000D01*
X111360063Y-59764592D01*
X111298903Y-59536337D01*
X111291825Y-59521159D01*
X111255163Y-59442538D01*
X111199035Y-59322171D01*
X111063495Y-59128599D01*
X111024090Y-59089194D01*
X110980413Y-59023318D01*
X110965824Y-58945636D01*
X110982627Y-58868403D01*
X111028169Y-58803802D01*
X111095263Y-58762026D01*
X111117331Y-58753796D01*
X111232546Y-58667546D01*
X111318796Y-58552331D01*
X111369091Y-58417483D01*
X111375500Y-58357873D01*
X111375499Y-56562128D01*
X111369091Y-56502517D01*
X111318796Y-56367669D01*
X111305031Y-56349282D01*
X111241074Y-56263846D01*
X111232546Y-56252454D01*
X111176638Y-56210601D01*
X111128726Y-56174734D01*
X111128724Y-56174733D01*
X111117331Y-56166204D01*
X111103994Y-56161229D01*
X111103993Y-56161229D01*
X110994147Y-56120259D01*
X110994144Y-56120258D01*
X110982483Y-56115909D01*
X110970108Y-56114578D01*
X110970106Y-56114578D01*
X110928170Y-56110069D01*
X110928160Y-56110068D01*
X110922873Y-56109500D01*
X110917542Y-56109500D01*
X109132461Y-56109500D01*
X109132442Y-56109500D01*
X109127128Y-56109501D01*
X109121828Y-56110070D01*
X109121823Y-56110071D01*
X109079899Y-56114577D01*
X109079891Y-56114578D01*
X109067517Y-56115909D01*
X109055849Y-56120260D01*
X109055848Y-56120261D01*
X108946006Y-56161229D01*
X108946002Y-56161230D01*
X108932669Y-56166204D01*
X108921278Y-56174731D01*
X108921273Y-56174734D01*
X108828846Y-56243925D01*
X108828842Y-56243928D01*
X108817454Y-56252454D01*
X108808928Y-56263842D01*
X108808925Y-56263846D01*
X108739734Y-56356273D01*
X108739731Y-56356278D01*
X108731204Y-56367669D01*
X108726230Y-56381002D01*
X108726229Y-56381006D01*
X108685259Y-56490852D01*
X108685257Y-56490857D01*
X108680909Y-56502517D01*
X108679578Y-56514889D01*
X108679578Y-56514893D01*
X108675069Y-56556829D01*
X108675068Y-56556840D01*
X108674500Y-56562127D01*
X108674500Y-56567458D01*
X108674500Y-56756672D01*
X108664259Y-56819688D01*
X108634591Y-56876218D01*
X108588549Y-56920442D01*
X108572071Y-56931817D01*
X108564092Y-56940822D01*
X108564091Y-56940824D01*
X108533691Y-56975138D01*
X108525454Y-56983887D01*
X106023887Y-59485454D01*
X106015138Y-59493691D01*
X105980823Y-59524091D01*
X105980817Y-59524096D01*
X105971817Y-59532071D01*
X105964985Y-59541967D01*
X105964974Y-59541981D01*
X105938940Y-59579698D01*
X105931821Y-59589373D01*
X105903550Y-59625459D01*
X105903542Y-59625471D01*
X105896122Y-59634943D01*
X105891184Y-59645914D01*
X105886352Y-59653907D01*
X105882016Y-59662168D01*
X105875182Y-59672070D01*
X105870914Y-59683322D01*
X105870911Y-59683329D01*
X105854662Y-59726173D01*
X105850066Y-59737270D01*
X105832706Y-59775845D01*
X105826305Y-59790068D01*
X105824136Y-59801900D01*
X105821365Y-59810794D01*
X105819125Y-59819878D01*
X105814860Y-59831128D01*
X105813409Y-59843069D01*
X105813409Y-59843073D01*
X105807884Y-59888573D01*
X105806076Y-59900448D01*
X105797811Y-59945552D01*
X105797810Y-59945559D01*
X105795642Y-59957394D01*
X105796368Y-59969401D01*
X105796368Y-59969407D01*
X105799137Y-60015168D01*
X105799500Y-60027184D01*
X105799500Y-70561564D01*
X105782544Y-70641943D01*
X105734567Y-70708626D01*
X105694331Y-70745307D01*
X105691857Y-70747562D01*
X105629678Y-70786062D01*
X105557790Y-70799500D01*
X105525284Y-70799500D01*
X105513268Y-70799137D01*
X105467507Y-70796368D01*
X105467501Y-70796368D01*
X105455494Y-70795642D01*
X105443659Y-70797810D01*
X105443653Y-70797811D01*
X105398550Y-70806076D01*
X105386673Y-70807884D01*
X105341174Y-70813409D01*
X105341171Y-70813409D01*
X105329228Y-70814860D01*
X105317977Y-70819126D01*
X105308894Y-70821365D01*
X105299999Y-70824136D01*
X105288169Y-70826305D01*
X105277203Y-70831240D01*
X105277191Y-70831244D01*
X105235382Y-70850060D01*
X105224286Y-70854656D01*
X105181431Y-70870910D01*
X105181422Y-70870914D01*
X105170170Y-70875182D01*
X105160265Y-70882018D01*
X105152008Y-70886352D01*
X105144015Y-70891183D01*
X105133044Y-70896122D01*
X105123573Y-70903541D01*
X105123571Y-70903543D01*
X105087498Y-70931804D01*
X105077823Y-70938923D01*
X105040081Y-70964975D01*
X105040073Y-70964981D01*
X105030171Y-70971817D01*
X105022191Y-70980823D01*
X105022189Y-70980826D01*
X104991784Y-71015146D01*
X104983547Y-71023895D01*
X104266229Y-71741214D01*
X104201669Y-71784352D01*
X104125515Y-71799500D01*
X97717313Y-71799500D01*
X97644381Y-71785654D01*
X97581598Y-71746042D01*
X97537701Y-71686176D01*
X97518798Y-71614388D01*
X97519494Y-71608501D01*
X97515831Y-71580678D01*
X97504960Y-71563614D01*
X96808759Y-70867412D01*
X96794900Y-70858151D01*
X96781040Y-70867412D01*
X96084838Y-71563614D01*
X96073967Y-71580678D01*
X96070304Y-71608501D01*
X96071001Y-71614388D01*
X96052098Y-71686176D01*
X96008201Y-71746042D01*
X95945418Y-71785654D01*
X95872486Y-71799500D01*
X95729391Y-71799500D01*
X95654552Y-71784891D01*
X95590701Y-71743209D01*
X95547212Y-71680575D01*
X95530472Y-71606183D01*
X95542938Y-71530957D01*
X95551067Y-71509162D01*
X95588991Y-71407483D01*
X95591084Y-71388007D01*
X95619849Y-71304361D01*
X95682022Y-71241444D01*
X95731285Y-71210059D01*
X96427486Y-70513859D01*
X96436747Y-70500000D01*
X97153051Y-70500000D01*
X97162312Y-70513859D01*
X97858514Y-71210060D01*
X97873407Y-71219548D01*
X97886426Y-71207618D01*
X97920051Y-71159599D01*
X97928707Y-71144605D01*
X98017493Y-70954203D01*
X98023416Y-70937928D01*
X98077792Y-70734996D01*
X98080797Y-70717953D01*
X98099109Y-70508653D01*
X98099109Y-70491347D01*
X98080797Y-70282046D01*
X98077792Y-70265003D01*
X98023416Y-70062071D01*
X98017493Y-70045796D01*
X97928707Y-69855395D01*
X97920046Y-69840394D01*
X97886428Y-69792382D01*
X97873407Y-69780450D01*
X97858514Y-69789938D01*
X97162312Y-70486140D01*
X97153051Y-70500000D01*
X96436747Y-70500000D01*
X96427486Y-70486140D01*
X95731284Y-69789938D01*
X95682020Y-69758553D01*
X95619847Y-69695635D01*
X95591084Y-69611988D01*
X95590827Y-69609598D01*
X95588991Y-69592517D01*
X95538696Y-69457669D01*
X95511613Y-69421491D01*
X96075350Y-69421491D01*
X96084838Y-69436384D01*
X96781040Y-70132586D01*
X96794900Y-70141847D01*
X96808759Y-70132586D01*
X97504960Y-69436384D01*
X97514448Y-69421491D01*
X97502519Y-69408472D01*
X97454500Y-69374849D01*
X97439505Y-69366192D01*
X97249103Y-69277406D01*
X97232828Y-69271483D01*
X97029896Y-69217107D01*
X97012853Y-69214102D01*
X96803553Y-69195791D01*
X96786247Y-69195791D01*
X96576946Y-69214102D01*
X96559903Y-69217107D01*
X96356971Y-69271483D01*
X96340696Y-69277406D01*
X96150293Y-69366193D01*
X96135297Y-69374851D01*
X96087281Y-69408471D01*
X96075350Y-69421491D01*
X95511613Y-69421491D01*
X95452446Y-69342454D01*
X95408133Y-69309281D01*
X95348626Y-69264734D01*
X95348624Y-69264733D01*
X95337231Y-69256204D01*
X95323894Y-69251229D01*
X95323893Y-69251229D01*
X95214047Y-69210259D01*
X95214044Y-69210258D01*
X95202383Y-69205909D01*
X95190008Y-69204578D01*
X95190006Y-69204578D01*
X95148070Y-69200069D01*
X95148060Y-69200068D01*
X95142773Y-69199500D01*
X95137442Y-69199500D01*
X93452361Y-69199500D01*
X93452342Y-69199500D01*
X93447028Y-69199501D01*
X93441728Y-69200070D01*
X93441723Y-69200071D01*
X93399799Y-69204577D01*
X93399791Y-69204578D01*
X93387417Y-69205909D01*
X93375749Y-69210260D01*
X93375748Y-69210261D01*
X93265906Y-69251229D01*
X93265902Y-69251230D01*
X93252569Y-69256204D01*
X93241175Y-69264733D01*
X93241174Y-69264734D01*
X93154586Y-69329553D01*
X93091394Y-69361184D01*
X93021133Y-69368738D01*
X92952662Y-69351262D01*
X92894616Y-69310959D01*
X91607547Y-68023890D01*
X91599307Y-68015137D01*
X91568910Y-67980826D01*
X91560929Y-67971817D01*
X91513288Y-67938932D01*
X91503621Y-67931818D01*
X91467536Y-67903547D01*
X91467528Y-67903542D01*
X91458057Y-67896122D01*
X91447078Y-67891180D01*
X91439088Y-67886351D01*
X91430834Y-67882019D01*
X91420930Y-67875182D01*
X91409682Y-67870916D01*
X91409678Y-67870914D01*
X91366810Y-67854656D01*
X91355711Y-67850058D01*
X91315826Y-67832108D01*
X91302932Y-67826305D01*
X91291098Y-67824136D01*
X91282213Y-67821367D01*
X91273123Y-67819126D01*
X91261872Y-67814860D01*
X91249923Y-67813409D01*
X91204426Y-67807884D01*
X91192549Y-67806076D01*
X91147445Y-67797811D01*
X91147441Y-67797810D01*
X91135606Y-67795642D01*
X91123598Y-67796368D01*
X91123592Y-67796368D01*
X91077832Y-67799137D01*
X91065816Y-67799500D01*
X85372585Y-67799500D01*
X85296431Y-67784352D01*
X85231871Y-67741214D01*
X82514547Y-65023890D01*
X82506307Y-65015137D01*
X82479010Y-64984325D01*
X82441241Y-64921178D01*
X82428999Y-64848624D01*
X82443959Y-64776580D01*
X82484075Y-64714897D01*
X82543860Y-64672010D01*
X82632734Y-64630568D01*
X82819139Y-64500047D01*
X82864504Y-64454681D01*
X82929058Y-64411548D01*
X83005213Y-64396399D01*
X83081367Y-64411547D01*
X83145928Y-64454685D01*
X84327256Y-65636013D01*
X84360561Y-65687516D01*
X84363419Y-65686017D01*
X84369015Y-65696679D01*
X84373282Y-65707930D01*
X84390699Y-65733163D01*
X84403123Y-65753715D01*
X84417366Y-65780852D01*
X84425350Y-65789864D01*
X84437687Y-65803790D01*
X84452503Y-65822702D01*
X84469917Y-65847929D01*
X84478925Y-65855909D01*
X84492854Y-65868249D01*
X84509848Y-65885243D01*
X84530171Y-65908183D01*
X84540072Y-65915017D01*
X84555399Y-65925597D01*
X84574313Y-65940415D01*
X84597248Y-65960734D01*
X84624382Y-65974975D01*
X84644934Y-65987398D01*
X84670170Y-66004818D01*
X84698557Y-66015583D01*
X84698827Y-66015686D01*
X84720736Y-66025546D01*
X84747875Y-66039790D01*
X84759560Y-66042670D01*
X84770821Y-66046941D01*
X84769462Y-66050521D01*
X84826307Y-66078882D01*
X84880273Y-66147730D01*
X84899500Y-66233068D01*
X84899500Y-66522537D01*
X84899500Y-66522555D01*
X84899501Y-66527872D01*
X84900071Y-66533170D01*
X84900071Y-66533176D01*
X84904577Y-66575100D01*
X84904578Y-66575106D01*
X84905909Y-66587483D01*
X84910261Y-66599151D01*
X84945546Y-66693757D01*
X84956204Y-66722331D01*
X84964733Y-66733724D01*
X84964734Y-66733726D01*
X85033925Y-66826153D01*
X85042454Y-66837546D01*
X85157669Y-66923796D01*
X85292517Y-66974091D01*
X85352127Y-66980500D01*
X87647872Y-66980499D01*
X87707483Y-66974091D01*
X87842331Y-66923796D01*
X87957546Y-66837546D01*
X88043796Y-66722331D01*
X88094091Y-66587483D01*
X88100500Y-66527873D01*
X88100500Y-65400000D01*
X89094551Y-65400000D01*
X89095164Y-65407789D01*
X89113703Y-65643356D01*
X89113704Y-65643365D01*
X89114317Y-65651148D01*
X89118367Y-65668018D01*
X89161559Y-65847929D01*
X89173127Y-65896111D01*
X89176119Y-65903335D01*
X89176120Y-65903337D01*
X89263235Y-66113654D01*
X89269534Y-66128859D01*
X89273621Y-66135529D01*
X89273622Y-66135530D01*
X89397076Y-66336989D01*
X89397079Y-66336994D01*
X89401164Y-66343659D01*
X89564776Y-66535224D01*
X89756341Y-66698836D01*
X89763008Y-66702921D01*
X89763010Y-66702923D01*
X89779673Y-66713134D01*
X89971141Y-66830466D01*
X90203889Y-66926873D01*
X90448852Y-66985683D01*
X90700000Y-67005449D01*
X90951148Y-66985683D01*
X91196111Y-66926873D01*
X91428859Y-66830466D01*
X91643659Y-66698836D01*
X91835224Y-66535224D01*
X91998836Y-66343659D01*
X92130466Y-66128859D01*
X92226873Y-65896111D01*
X92285683Y-65651148D01*
X92305449Y-65400000D01*
X92285683Y-65148852D01*
X92226873Y-64903889D01*
X92130466Y-64671141D01*
X92021853Y-64493901D01*
X92002923Y-64463010D01*
X92002921Y-64463008D01*
X91998836Y-64456341D01*
X91835224Y-64264776D01*
X91643659Y-64101164D01*
X91636994Y-64097079D01*
X91636989Y-64097076D01*
X91520013Y-64025393D01*
X91495522Y-64010385D01*
X91444848Y-63965946D01*
X91411914Y-63907139D01*
X91400500Y-63840711D01*
X91400500Y-60672585D01*
X91415648Y-60596431D01*
X91458786Y-60531871D01*
X92081627Y-59909030D01*
X92548101Y-59442556D01*
X95499500Y-59442556D01*
X95499501Y-59447872D01*
X95500071Y-59453170D01*
X95500071Y-59453176D01*
X95504577Y-59495100D01*
X95504578Y-59495106D01*
X95505909Y-59507483D01*
X95556204Y-59642331D01*
X95564733Y-59653724D01*
X95564734Y-59653726D01*
X95625638Y-59735083D01*
X95642454Y-59757546D01*
X95757669Y-59843796D01*
X95892517Y-59894091D01*
X95952127Y-59900500D01*
X98047872Y-59900499D01*
X98107483Y-59894091D01*
X98242331Y-59843796D01*
X98357546Y-59757546D01*
X98443796Y-59642331D01*
X98494091Y-59507483D01*
X98500500Y-59447873D01*
X98500499Y-57352128D01*
X98494091Y-57292517D01*
X98443796Y-57157669D01*
X98357546Y-57042454D01*
X98332748Y-57023890D01*
X98253726Y-56964734D01*
X98253724Y-56964733D01*
X98242331Y-56956204D01*
X98228994Y-56951229D01*
X98228993Y-56951229D01*
X98119147Y-56910259D01*
X98119144Y-56910258D01*
X98107483Y-56905909D01*
X98095108Y-56904578D01*
X98095106Y-56904578D01*
X98053170Y-56900069D01*
X98053160Y-56900068D01*
X98047873Y-56899500D01*
X98042542Y-56899500D01*
X95957461Y-56899500D01*
X95957442Y-56899500D01*
X95952128Y-56899501D01*
X95946828Y-56900070D01*
X95946823Y-56900071D01*
X95904899Y-56904577D01*
X95904891Y-56904578D01*
X95892517Y-56905909D01*
X95880849Y-56910260D01*
X95880848Y-56910261D01*
X95771006Y-56951229D01*
X95771002Y-56951230D01*
X95757669Y-56956204D01*
X95746278Y-56964731D01*
X95746273Y-56964734D01*
X95653846Y-57033925D01*
X95653842Y-57033928D01*
X95642454Y-57042454D01*
X95633928Y-57053842D01*
X95633925Y-57053846D01*
X95564734Y-57146273D01*
X95564731Y-57146278D01*
X95556204Y-57157669D01*
X95551230Y-57171002D01*
X95551229Y-57171006D01*
X95510259Y-57280852D01*
X95510257Y-57280857D01*
X95505909Y-57292517D01*
X95504578Y-57304889D01*
X95504578Y-57304893D01*
X95500069Y-57346829D01*
X95500068Y-57346840D01*
X95499500Y-57352127D01*
X95499500Y-57357456D01*
X95499500Y-57357457D01*
X95499500Y-59442538D01*
X95499500Y-59442556D01*
X92548101Y-59442556D01*
X93976124Y-58014531D01*
X93984841Y-58006325D01*
X94028183Y-57967929D01*
X94061082Y-57920266D01*
X94068167Y-57910637D01*
X94103878Y-57865057D01*
X94108819Y-57854076D01*
X94113636Y-57846109D01*
X94117974Y-57837843D01*
X94124818Y-57827930D01*
X94145345Y-57773800D01*
X94149933Y-57762725D01*
X94173695Y-57709932D01*
X94175866Y-57698081D01*
X94178637Y-57689189D01*
X94180869Y-57680132D01*
X94185140Y-57668872D01*
X94192115Y-57611422D01*
X94193918Y-57599570D01*
X94204358Y-57542606D01*
X94200862Y-57484831D01*
X94200500Y-57472816D01*
X94200500Y-54872585D01*
X94215648Y-54796431D01*
X94258786Y-54731871D01*
X98404664Y-50585993D01*
X102562394Y-46428262D01*
X102635524Y-46381805D01*
X102721467Y-46370827D01*
X102803929Y-46397410D01*
X102867280Y-46456515D01*
X102899510Y-46536939D01*
X102894510Y-46623436D01*
X102880825Y-46671535D01*
X102873603Y-46696917D01*
X102872754Y-46706075D01*
X102872753Y-46706083D01*
X102857569Y-46869950D01*
X102854785Y-46900000D01*
X102855634Y-46909162D01*
X102872753Y-47093916D01*
X102872754Y-47093922D01*
X102873603Y-47103083D01*
X102876122Y-47111936D01*
X102925182Y-47284364D01*
X102929418Y-47299250D01*
X102933517Y-47307483D01*
X102933518Y-47307484D01*
X102968486Y-47377709D01*
X103020327Y-47481821D01*
X103074776Y-47553923D01*
X103106730Y-47617178D01*
X103114491Y-47687623D01*
X103097073Y-47756321D01*
X103056683Y-47814558D01*
X100323887Y-50547354D01*
X100315138Y-50555591D01*
X100271817Y-50593971D01*
X100264985Y-50603867D01*
X100264979Y-50603875D01*
X100238932Y-50641610D01*
X100231813Y-50651285D01*
X100203542Y-50687371D01*
X100203539Y-50687374D01*
X100196122Y-50696843D01*
X100191185Y-50707811D01*
X100186359Y-50715795D01*
X100182018Y-50724065D01*
X100175182Y-50733970D01*
X100170914Y-50745222D01*
X100170911Y-50745229D01*
X100154662Y-50788073D01*
X100150066Y-50799170D01*
X100131243Y-50840995D01*
X100126305Y-50851968D01*
X100124136Y-50863800D01*
X100121365Y-50872694D01*
X100119125Y-50881778D01*
X100114860Y-50893028D01*
X100113409Y-50904969D01*
X100113409Y-50904973D01*
X100107884Y-50950473D01*
X100106076Y-50962348D01*
X100097811Y-51007452D01*
X100097810Y-51007459D01*
X100095642Y-51019294D01*
X100096368Y-51031301D01*
X100096368Y-51031307D01*
X100099137Y-51077068D01*
X100099500Y-51089084D01*
X100099500Y-56954379D01*
X100086866Y-57024155D01*
X100050568Y-57085072D01*
X99995218Y-57129391D01*
X99976491Y-57139526D01*
X99970003Y-57144575D01*
X99969995Y-57144581D01*
X99786752Y-57287205D01*
X99786745Y-57287211D01*
X99780256Y-57292262D01*
X99774686Y-57298311D01*
X99774680Y-57298318D01*
X99617413Y-57469156D01*
X99617409Y-57469160D01*
X99611836Y-57475215D01*
X99607333Y-57482105D01*
X99607330Y-57482111D01*
X99485314Y-57668872D01*
X99475827Y-57683393D01*
X99472527Y-57690914D01*
X99472521Y-57690927D01*
X99383660Y-57893512D01*
X99375937Y-57911119D01*
X99373918Y-57919089D01*
X99373916Y-57919097D01*
X99316912Y-58144198D01*
X99316909Y-58144210D01*
X99314892Y-58152179D01*
X99314212Y-58160378D01*
X99314211Y-58160388D01*
X99303184Y-58293471D01*
X99294357Y-58400000D01*
X99295037Y-58408206D01*
X99314211Y-58639611D01*
X99314212Y-58639619D01*
X99314892Y-58647821D01*
X99316910Y-58655791D01*
X99316912Y-58655801D01*
X99373034Y-58877419D01*
X99375937Y-58888881D01*
X99379244Y-58896420D01*
X99472521Y-59109072D01*
X99472525Y-59109080D01*
X99475827Y-59116607D01*
X99611836Y-59324785D01*
X99780256Y-59507738D01*
X99976491Y-59660474D01*
X99995218Y-59670608D01*
X100050568Y-59714928D01*
X100086866Y-59775845D01*
X100099500Y-59845621D01*
X100099500Y-65710916D01*
X100099137Y-65722931D01*
X100095642Y-65780706D01*
X100097810Y-65792541D01*
X100097811Y-65792545D01*
X100106076Y-65837649D01*
X100107884Y-65849526D01*
X100114860Y-65906972D01*
X100119126Y-65918223D01*
X100121367Y-65927313D01*
X100124136Y-65936198D01*
X100126305Y-65948032D01*
X100131245Y-65959008D01*
X100150058Y-66000811D01*
X100154656Y-66011910D01*
X100170914Y-66054778D01*
X100170916Y-66054782D01*
X100175182Y-66066030D01*
X100182019Y-66075934D01*
X100186351Y-66084188D01*
X100191180Y-66092178D01*
X100196122Y-66103157D01*
X100203542Y-66112628D01*
X100203547Y-66112636D01*
X100231818Y-66148721D01*
X100238932Y-66158388D01*
X100271817Y-66206029D01*
X100280826Y-66214010D01*
X100315137Y-66244407D01*
X100323890Y-66252647D01*
X103056683Y-68985440D01*
X103097072Y-69043676D01*
X103114491Y-69112373D01*
X103106731Y-69182819D01*
X103074776Y-69246076D01*
X103020327Y-69318179D01*
X103016227Y-69326411D01*
X103016225Y-69326416D01*
X102933518Y-69492515D01*
X102933516Y-69492519D01*
X102929418Y-69500750D01*
X102926901Y-69509593D01*
X102926900Y-69509598D01*
X102876122Y-69688063D01*
X102873603Y-69696917D01*
X102872754Y-69706075D01*
X102872753Y-69706083D01*
X102858918Y-69855395D01*
X102854785Y-69900000D01*
X102855634Y-69909162D01*
X102872753Y-70093916D01*
X102872754Y-70093922D01*
X102873603Y-70103083D01*
X102876122Y-70111936D01*
X102899447Y-70193916D01*
X102929418Y-70299250D01*
X103020327Y-70481821D01*
X103143236Y-70644579D01*
X103293959Y-70781981D01*
X103467363Y-70889348D01*
X103657544Y-70963024D01*
X103858024Y-71000500D01*
X104052779Y-71000500D01*
X104061976Y-71000500D01*
X104262456Y-70963024D01*
X104452637Y-70889348D01*
X104626041Y-70781981D01*
X104776764Y-70644579D01*
X104899673Y-70481821D01*
X104990582Y-70299250D01*
X105046397Y-70103083D01*
X105065215Y-69900000D01*
X105046397Y-69696917D01*
X104990582Y-69500750D01*
X104899673Y-69318179D01*
X104776764Y-69155421D01*
X104769967Y-69149224D01*
X104769960Y-69149217D01*
X104725434Y-69108626D01*
X104677456Y-69041944D01*
X104660500Y-68961564D01*
X104660500Y-68925284D01*
X104660863Y-68913268D01*
X104663631Y-68867510D01*
X104664358Y-68855494D01*
X104653919Y-68798533D01*
X104652114Y-68786668D01*
X104645140Y-68729228D01*
X104640870Y-68717969D01*
X104638633Y-68708892D01*
X104635864Y-68700007D01*
X104633695Y-68688169D01*
X104609938Y-68635386D01*
X104605338Y-68624279D01*
X104589085Y-68581422D01*
X104584818Y-68570170D01*
X104577979Y-68560262D01*
X104573647Y-68552009D01*
X104568818Y-68544021D01*
X104563878Y-68533043D01*
X104556454Y-68523567D01*
X104556453Y-68523565D01*
X104528181Y-68487478D01*
X104521056Y-68477796D01*
X104488183Y-68430171D01*
X104444845Y-68391777D01*
X104436108Y-68383551D01*
X101558786Y-65506229D01*
X101515648Y-65441669D01*
X101500500Y-65365515D01*
X101500500Y-59845621D01*
X101513134Y-59775845D01*
X101549432Y-59714928D01*
X101604781Y-59670608D01*
X101623509Y-59660474D01*
X101819744Y-59507738D01*
X101988164Y-59324785D01*
X102124173Y-59116607D01*
X102224063Y-58888881D01*
X102285108Y-58647821D01*
X102305643Y-58400000D01*
X102285108Y-58152179D01*
X102224063Y-57911119D01*
X102151963Y-57746748D01*
X102127478Y-57690927D01*
X102127476Y-57690924D01*
X102124173Y-57683393D01*
X101988164Y-57475215D01*
X101819744Y-57292262D01*
X101813247Y-57287205D01*
X101630004Y-57144581D01*
X101630001Y-57144579D01*
X101623509Y-57139526D01*
X101604781Y-57129391D01*
X101549432Y-57085072D01*
X101513134Y-57024155D01*
X101500500Y-56954379D01*
X101500500Y-51434485D01*
X101515648Y-51358331D01*
X101558786Y-51293771D01*
X102266564Y-50585993D01*
X104099792Y-48752763D01*
X105431131Y-48752763D01*
X105432518Y-48767736D01*
X105467368Y-48890218D01*
X105473986Y-48907301D01*
X105556653Y-49073321D01*
X105566298Y-49088897D01*
X105678065Y-49236901D01*
X105690404Y-49250436D01*
X105827459Y-49375378D01*
X105842088Y-49386425D01*
X105999762Y-49484054D01*
X106016170Y-49492224D01*
X106189104Y-49559218D01*
X106206718Y-49564230D01*
X106228448Y-49568292D01*
X106246145Y-49567678D01*
X106250000Y-49550396D01*
X106750000Y-49550396D01*
X106753854Y-49567678D01*
X106771551Y-49568292D01*
X106793281Y-49564230D01*
X106810895Y-49559218D01*
X106983829Y-49492224D01*
X107000237Y-49484054D01*
X107157911Y-49386425D01*
X107172540Y-49375378D01*
X107309595Y-49250436D01*
X107321934Y-49236901D01*
X107433701Y-49088897D01*
X107443346Y-49073321D01*
X107526013Y-48907301D01*
X107532631Y-48890218D01*
X107567481Y-48767736D01*
X107568868Y-48752763D01*
X107554086Y-48750000D01*
X106769598Y-48750000D01*
X106753251Y-48753251D01*
X106750000Y-48769598D01*
X106750000Y-49550396D01*
X106250000Y-49550396D01*
X106250000Y-48769598D01*
X106246748Y-48753251D01*
X106230402Y-48750000D01*
X105445914Y-48750000D01*
X105431131Y-48752763D01*
X104099792Y-48752763D01*
X104436124Y-48416431D01*
X104444841Y-48408225D01*
X104488183Y-48369829D01*
X104521082Y-48322166D01*
X104528167Y-48312537D01*
X104563878Y-48266957D01*
X104568820Y-48255974D01*
X104573632Y-48248015D01*
X104574041Y-48247236D01*
X105431131Y-48247236D01*
X105445914Y-48250000D01*
X106230402Y-48250000D01*
X106246748Y-48246748D01*
X106250000Y-48230402D01*
X106750000Y-48230402D01*
X106753251Y-48246748D01*
X106769598Y-48250000D01*
X107554086Y-48250000D01*
X107568868Y-48247236D01*
X107567481Y-48232263D01*
X107532631Y-48109781D01*
X107526013Y-48092698D01*
X107443346Y-47926678D01*
X107433701Y-47911102D01*
X107321934Y-47763098D01*
X107309595Y-47749563D01*
X107172540Y-47624621D01*
X107157911Y-47613574D01*
X107000237Y-47515945D01*
X106983829Y-47507775D01*
X106810895Y-47440781D01*
X106793281Y-47435769D01*
X106771551Y-47431707D01*
X106753854Y-47432321D01*
X106750000Y-47449604D01*
X106750000Y-48230402D01*
X106250000Y-48230402D01*
X106250000Y-47449604D01*
X106246145Y-47432321D01*
X106228448Y-47431707D01*
X106206718Y-47435769D01*
X106189104Y-47440781D01*
X106016170Y-47507775D01*
X105999762Y-47515945D01*
X105842088Y-47613574D01*
X105827459Y-47624621D01*
X105690404Y-47749563D01*
X105678065Y-47763098D01*
X105566298Y-47911102D01*
X105556653Y-47926678D01*
X105473986Y-48092698D01*
X105467368Y-48109781D01*
X105432518Y-48232263D01*
X105431131Y-48247236D01*
X104574041Y-48247236D01*
X104577970Y-48239749D01*
X104584818Y-48229830D01*
X104605353Y-48175679D01*
X104609937Y-48164616D01*
X104633695Y-48111831D01*
X104635866Y-48099982D01*
X104638634Y-48091100D01*
X104640868Y-48082035D01*
X104645140Y-48070772D01*
X104652119Y-48013285D01*
X104653915Y-48001488D01*
X104664358Y-47944506D01*
X104660862Y-47886731D01*
X104660500Y-47874716D01*
X104660500Y-47838436D01*
X104677456Y-47758056D01*
X104725434Y-47691374D01*
X104769960Y-47650782D01*
X104769964Y-47650778D01*
X104776764Y-47644579D01*
X104899673Y-47481821D01*
X104990582Y-47299250D01*
X105046397Y-47103083D01*
X105065215Y-46900000D01*
X105046397Y-46696917D01*
X104990582Y-46500750D01*
X104899673Y-46318179D01*
X104776764Y-46155421D01*
X104657351Y-46046562D01*
X104610633Y-45982674D01*
X104592511Y-45905628D01*
X104605855Y-45827613D01*
X104648552Y-45760969D01*
X104713850Y-45716240D01*
X104791417Y-45700500D01*
X105765515Y-45700500D01*
X105841669Y-45715648D01*
X105906229Y-45758786D01*
X107523551Y-47376108D01*
X107531777Y-47384845D01*
X107570171Y-47428183D01*
X107580075Y-47435019D01*
X107580077Y-47435021D01*
X107581161Y-47435769D01*
X107617805Y-47461063D01*
X107627480Y-47468182D01*
X107663564Y-47496452D01*
X107663569Y-47496455D01*
X107673044Y-47503878D01*
X107684018Y-47508816D01*
X107692013Y-47513650D01*
X107700264Y-47517980D01*
X107710170Y-47524818D01*
X107762084Y-47544506D01*
X107764294Y-47545344D01*
X107775389Y-47549940D01*
X107828169Y-47573695D01*
X107840013Y-47575865D01*
X107848898Y-47578634D01*
X107857966Y-47580869D01*
X107869228Y-47585140D01*
X107926672Y-47592114D01*
X107938533Y-47593919D01*
X107995494Y-47604358D01*
X108053268Y-47600862D01*
X108065284Y-47600500D01*
X108097791Y-47600500D01*
X108169678Y-47613938D01*
X108231855Y-47652436D01*
X108373959Y-47781981D01*
X108547363Y-47889348D01*
X108737544Y-47963024D01*
X108938024Y-48000500D01*
X109132779Y-48000500D01*
X109141976Y-48000500D01*
X109342456Y-47963024D01*
X109532637Y-47889348D01*
X109706041Y-47781981D01*
X109856764Y-47644579D01*
X109979673Y-47481821D01*
X110070582Y-47299250D01*
X110126397Y-47103083D01*
X110145215Y-46900000D01*
X110126397Y-46696917D01*
X110070582Y-46500750D01*
X109979673Y-46318179D01*
X109856764Y-46155421D01*
X109706041Y-46018019D01*
X109532637Y-45910652D01*
X109519668Y-45905628D01*
X109351034Y-45840299D01*
X109351032Y-45840298D01*
X109342456Y-45836976D01*
X109333421Y-45835287D01*
X109333414Y-45835285D01*
X109151014Y-45801189D01*
X109151008Y-45801188D01*
X109141976Y-45799500D01*
X108938024Y-45799500D01*
X108928992Y-45801188D01*
X108928985Y-45801189D01*
X108746585Y-45835285D01*
X108746575Y-45835287D01*
X108737544Y-45836976D01*
X108728969Y-45840297D01*
X108728965Y-45840299D01*
X108555942Y-45907328D01*
X108555937Y-45907330D01*
X108547363Y-45910652D01*
X108539542Y-45915494D01*
X108539539Y-45915496D01*
X108373959Y-46018019D01*
X108373358Y-46017048D01*
X108320048Y-46043974D01*
X108249606Y-46051731D01*
X108180913Y-46034311D01*
X108122680Y-45993923D01*
X106652647Y-44523890D01*
X106644407Y-44515137D01*
X106640087Y-44510261D01*
X106606029Y-44471817D01*
X106558388Y-44438932D01*
X106548721Y-44431818D01*
X106512636Y-44403547D01*
X106512628Y-44403542D01*
X106503157Y-44396122D01*
X106492178Y-44391180D01*
X106484188Y-44386351D01*
X106475934Y-44382019D01*
X106466030Y-44375182D01*
X106454782Y-44370916D01*
X106454778Y-44370914D01*
X106411910Y-44354656D01*
X106400811Y-44350058D01*
X106359008Y-44331245D01*
X106359009Y-44331245D01*
X106348032Y-44326305D01*
X106336198Y-44324136D01*
X106327313Y-44321367D01*
X106318223Y-44319126D01*
X106306972Y-44314860D01*
X106295023Y-44313409D01*
X106249526Y-44307884D01*
X106237649Y-44306076D01*
X106192545Y-44297811D01*
X106192541Y-44297810D01*
X106180706Y-44295642D01*
X106168698Y-44296368D01*
X106168692Y-44296368D01*
X106122932Y-44299137D01*
X106110916Y-44299500D01*
X103027184Y-44299500D01*
X103015168Y-44299137D01*
X102969407Y-44296368D01*
X102969401Y-44296368D01*
X102957394Y-44295642D01*
X102945559Y-44297810D01*
X102945553Y-44297811D01*
X102900450Y-44306076D01*
X102888573Y-44307884D01*
X102843074Y-44313409D01*
X102843071Y-44313409D01*
X102831128Y-44314860D01*
X102819877Y-44319126D01*
X102810794Y-44321365D01*
X102801899Y-44324136D01*
X102790069Y-44326305D01*
X102779103Y-44331240D01*
X102779091Y-44331244D01*
X102737282Y-44350060D01*
X102726186Y-44354656D01*
X102683331Y-44370910D01*
X102683322Y-44370914D01*
X102672070Y-44375182D01*
X102662166Y-44382017D01*
X102653917Y-44386347D01*
X102645918Y-44391182D01*
X102634944Y-44396122D01*
X102625471Y-44403542D01*
X102625463Y-44403548D01*
X102589374Y-44431821D01*
X102579702Y-44438938D01*
X102541977Y-44464978D01*
X102541971Y-44464982D01*
X102532071Y-44471817D01*
X102524092Y-44480822D01*
X102524091Y-44480824D01*
X102493691Y-44515138D01*
X102485454Y-44523887D01*
X93023887Y-53985454D01*
X93015138Y-53993691D01*
X92971817Y-54032071D01*
X92964985Y-54041967D01*
X92964979Y-54041975D01*
X92938932Y-54079710D01*
X92931813Y-54089385D01*
X92903542Y-54125471D01*
X92903539Y-54125474D01*
X92896122Y-54134943D01*
X92891185Y-54145911D01*
X92886359Y-54153895D01*
X92882018Y-54162165D01*
X92875182Y-54172070D01*
X92870914Y-54183322D01*
X92870911Y-54183329D01*
X92854662Y-54226173D01*
X92850066Y-54237270D01*
X92832216Y-54276934D01*
X92826305Y-54290068D01*
X92824136Y-54301900D01*
X92821365Y-54310794D01*
X92819125Y-54319878D01*
X92814860Y-54331128D01*
X92813409Y-54343069D01*
X92813409Y-54343073D01*
X92807884Y-54388573D01*
X92806076Y-54400448D01*
X92797811Y-54445552D01*
X92797810Y-54445559D01*
X92795642Y-54457394D01*
X92796368Y-54469401D01*
X92796368Y-54469407D01*
X92799137Y-54515168D01*
X92799500Y-54527184D01*
X92799500Y-57127415D01*
X92784352Y-57203569D01*
X92741214Y-57268129D01*
X90223887Y-59785454D01*
X90215138Y-59793691D01*
X90180822Y-59824093D01*
X90171817Y-59832071D01*
X90164985Y-59841967D01*
X90164979Y-59841975D01*
X90138932Y-59879710D01*
X90131813Y-59889385D01*
X90103542Y-59925471D01*
X90103539Y-59925474D01*
X90096122Y-59934943D01*
X90091185Y-59945911D01*
X90086359Y-59953895D01*
X90082018Y-59962165D01*
X90075182Y-59972070D01*
X90070914Y-59983322D01*
X90070911Y-59983329D01*
X90054662Y-60026173D01*
X90050066Y-60037270D01*
X90031243Y-60079095D01*
X90026305Y-60090068D01*
X90024136Y-60101900D01*
X90021365Y-60110794D01*
X90019125Y-60119878D01*
X90014860Y-60131128D01*
X90013409Y-60143069D01*
X90013409Y-60143073D01*
X90007884Y-60188573D01*
X90006076Y-60200448D01*
X89997811Y-60245552D01*
X89997810Y-60245559D01*
X89995642Y-60257394D01*
X89996368Y-60269401D01*
X89996368Y-60269407D01*
X89999137Y-60315168D01*
X89999500Y-60327184D01*
X89999500Y-63840711D01*
X89988086Y-63907139D01*
X89955152Y-63965946D01*
X89904477Y-64010385D01*
X89891132Y-64018563D01*
X89763010Y-64097076D01*
X89762999Y-64097083D01*
X89756341Y-64101164D01*
X89750397Y-64106239D01*
X89750395Y-64106242D01*
X89570717Y-64259701D01*
X89570710Y-64259707D01*
X89564776Y-64264776D01*
X89559707Y-64270710D01*
X89559701Y-64270717D01*
X89406242Y-64450395D01*
X89401164Y-64456341D01*
X89397083Y-64462999D01*
X89397076Y-64463010D01*
X89273622Y-64664469D01*
X89273618Y-64664474D01*
X89269534Y-64671141D01*
X89266544Y-64678357D01*
X89266540Y-64678367D01*
X89176120Y-64896662D01*
X89176118Y-64896667D01*
X89173127Y-64903889D01*
X89171302Y-64911487D01*
X89171301Y-64911493D01*
X89116142Y-65141250D01*
X89114317Y-65148852D01*
X89113704Y-65156632D01*
X89113703Y-65156643D01*
X89097265Y-65365515D01*
X89094551Y-65400000D01*
X88100500Y-65400000D01*
X88100499Y-64232128D01*
X88094091Y-64172517D01*
X88043796Y-64037669D01*
X87957546Y-63922454D01*
X87877903Y-63862833D01*
X87853726Y-63844734D01*
X87853724Y-63844733D01*
X87842331Y-63836204D01*
X87828994Y-63831229D01*
X87828993Y-63831229D01*
X87719147Y-63790259D01*
X87719144Y-63790258D01*
X87707483Y-63785909D01*
X87695108Y-63784578D01*
X87695106Y-63784578D01*
X87653170Y-63780069D01*
X87653160Y-63780068D01*
X87647873Y-63779500D01*
X87642542Y-63779500D01*
X85357461Y-63779500D01*
X85357442Y-63779500D01*
X85352128Y-63779501D01*
X85346828Y-63780070D01*
X85346823Y-63780071D01*
X85304899Y-63784577D01*
X85304891Y-63784578D01*
X85292517Y-63785909D01*
X85280849Y-63790260D01*
X85280848Y-63790261D01*
X85171006Y-63831229D01*
X85171002Y-63831230D01*
X85157669Y-63836204D01*
X85146278Y-63844731D01*
X85146273Y-63844734D01*
X85053846Y-63913925D01*
X85053842Y-63913928D01*
X85042454Y-63922454D01*
X85033928Y-63933842D01*
X85033927Y-63933844D01*
X84988525Y-63994493D01*
X84924587Y-64049893D01*
X84843414Y-64073727D01*
X84759675Y-64061687D01*
X84688505Y-64015948D01*
X83696447Y-63023890D01*
X83688207Y-63015137D01*
X83657810Y-62980826D01*
X83649829Y-62971817D01*
X83602188Y-62938932D01*
X83592521Y-62931818D01*
X83556436Y-62903547D01*
X83556428Y-62903542D01*
X83546957Y-62896122D01*
X83535978Y-62891180D01*
X83527988Y-62886351D01*
X83519734Y-62882019D01*
X83509830Y-62875182D01*
X83498582Y-62870916D01*
X83498578Y-62870914D01*
X83455710Y-62854656D01*
X83444611Y-62850058D01*
X83402808Y-62831245D01*
X83402809Y-62831245D01*
X83391832Y-62826305D01*
X83379998Y-62824136D01*
X83371113Y-62821367D01*
X83362023Y-62819126D01*
X83350772Y-62814860D01*
X83338823Y-62813409D01*
X83293326Y-62807884D01*
X83281449Y-62806076D01*
X83236345Y-62797811D01*
X83236341Y-62797810D01*
X83224506Y-62795642D01*
X83212498Y-62796368D01*
X83212492Y-62796368D01*
X83191675Y-62797628D01*
X83124721Y-62790257D01*
X83064062Y-62760974D01*
X83016647Y-62713132D01*
X82985030Y-62667978D01*
X82980047Y-62660861D01*
X82819139Y-62499953D01*
X82632734Y-62369432D01*
X82624859Y-62365760D01*
X82624856Y-62365758D01*
X82434374Y-62276934D01*
X82434368Y-62276931D01*
X82426496Y-62273261D01*
X82418099Y-62271011D01*
X82215083Y-62216613D01*
X82215079Y-62216612D01*
X82206692Y-62214365D01*
X82198040Y-62213608D01*
X81988653Y-62195289D01*
X81980000Y-62194532D01*
X81971347Y-62195289D01*
X81761959Y-62213608D01*
X81761957Y-62213608D01*
X81753308Y-62214365D01*
X81744922Y-62216611D01*
X81744916Y-62216613D01*
X81541900Y-62271011D01*
X81541896Y-62271012D01*
X81533504Y-62273261D01*
X81525635Y-62276930D01*
X81525625Y-62276934D01*
X81335143Y-62365758D01*
X81335135Y-62365762D01*
X81327266Y-62369432D01*
X81320156Y-62374410D01*
X81320148Y-62374415D01*
X81147978Y-62494969D01*
X81147973Y-62494973D01*
X81140861Y-62499953D01*
X81134721Y-62506092D01*
X81134715Y-62506098D01*
X80986098Y-62654715D01*
X80986092Y-62654721D01*
X80979953Y-62660861D01*
X80974973Y-62667973D01*
X80974969Y-62667978D01*
X80854415Y-62840148D01*
X80854410Y-62840156D01*
X80849432Y-62847266D01*
X80845762Y-62855135D01*
X80845758Y-62855143D01*
X80756934Y-63045625D01*
X80756930Y-63045635D01*
X80753261Y-63053504D01*
X80751012Y-63061896D01*
X80751011Y-63061900D01*
X80696613Y-63264916D01*
X80696611Y-63264922D01*
X80694365Y-63273308D01*
X80674532Y-63500000D01*
X80675289Y-63508653D01*
X80692447Y-63704775D01*
X80683103Y-63784714D01*
X80642862Y-63854414D01*
X80578305Y-63902474D01*
X80499992Y-63921035D01*
X80420732Y-63907059D01*
X80353490Y-63862833D01*
X79758786Y-63268129D01*
X79715648Y-63203569D01*
X79700500Y-63127415D01*
X79700500Y-59752729D01*
X80624684Y-59752729D01*
X80625860Y-59767660D01*
X80671483Y-59937928D01*
X80677406Y-59954203D01*
X80766191Y-60144603D01*
X80774852Y-60159604D01*
X80895352Y-60331696D01*
X80906485Y-60344963D01*
X81055036Y-60493514D01*
X81068303Y-60504647D01*
X81240395Y-60625147D01*
X81255396Y-60633808D01*
X81445796Y-60722593D01*
X81462071Y-60728516D01*
X81632339Y-60774139D01*
X81647270Y-60775315D01*
X81650000Y-60760586D01*
X82150000Y-60760586D01*
X82152729Y-60775315D01*
X82167660Y-60774139D01*
X82337928Y-60728516D01*
X82354203Y-60722593D01*
X82544603Y-60633808D01*
X82559604Y-60625147D01*
X82731696Y-60504647D01*
X82744963Y-60493514D01*
X82893514Y-60344963D01*
X82904647Y-60331696D01*
X83025147Y-60159604D01*
X83033808Y-60144603D01*
X83122593Y-59954203D01*
X83128516Y-59937928D01*
X83174139Y-59767660D01*
X83175315Y-59752729D01*
X83160586Y-59750000D01*
X82169598Y-59750000D01*
X82153251Y-59753251D01*
X82150000Y-59769598D01*
X82150000Y-60760586D01*
X81650000Y-60760586D01*
X81650000Y-59769598D01*
X81646748Y-59753251D01*
X81630402Y-59750000D01*
X80639414Y-59750000D01*
X80624684Y-59752729D01*
X79700500Y-59752729D01*
X79700500Y-59527173D01*
X79700863Y-59515158D01*
X79703630Y-59469409D01*
X79704357Y-59457394D01*
X79693922Y-59400454D01*
X79692116Y-59388584D01*
X79686591Y-59343079D01*
X79685140Y-59331128D01*
X79680870Y-59319871D01*
X79678641Y-59310825D01*
X79675864Y-59301915D01*
X79673694Y-59290068D01*
X79654431Y-59247270D01*
X80624684Y-59247270D01*
X80639414Y-59250000D01*
X81630402Y-59250000D01*
X81646748Y-59246748D01*
X81650000Y-59230402D01*
X82150000Y-59230402D01*
X82153251Y-59246748D01*
X82169598Y-59250000D01*
X83160586Y-59250000D01*
X83175315Y-59247270D01*
X83174139Y-59232339D01*
X83128516Y-59062071D01*
X83122593Y-59045796D01*
X83033808Y-58855396D01*
X83025147Y-58840395D01*
X82904647Y-58668303D01*
X82893514Y-58655036D01*
X82744963Y-58506485D01*
X82731696Y-58495352D01*
X82559604Y-58374852D01*
X82544603Y-58366191D01*
X82354203Y-58277406D01*
X82337928Y-58271483D01*
X82167660Y-58225860D01*
X82152729Y-58224684D01*
X82150000Y-58239414D01*
X82150000Y-59230402D01*
X81650000Y-59230402D01*
X81650000Y-58239414D01*
X81647270Y-58224684D01*
X81632339Y-58225860D01*
X81462071Y-58271483D01*
X81445796Y-58277406D01*
X81255396Y-58366191D01*
X81240395Y-58374852D01*
X81068303Y-58495352D01*
X81055036Y-58506485D01*
X80906485Y-58655036D01*
X80895352Y-58668303D01*
X80774852Y-58840395D01*
X80766191Y-58855396D01*
X80677406Y-59045796D01*
X80671483Y-59062071D01*
X80625860Y-59232339D01*
X80624684Y-59247270D01*
X79654431Y-59247270D01*
X79649938Y-59237287D01*
X79645355Y-59226223D01*
X79624818Y-59172070D01*
X79617974Y-59162155D01*
X79613646Y-59153910D01*
X79608818Y-59145923D01*
X79603877Y-59134943D01*
X79596447Y-59125459D01*
X79568185Y-59089385D01*
X79561063Y-59079705D01*
X79535021Y-59041977D01*
X79535019Y-59041974D01*
X79528183Y-59032071D01*
X79484845Y-58993677D01*
X79476108Y-58985451D01*
X75990657Y-55500000D01*
X80594532Y-55500000D01*
X80614365Y-55726692D01*
X80616612Y-55735079D01*
X80616613Y-55735083D01*
X80630361Y-55786391D01*
X80673261Y-55946496D01*
X80676931Y-55954368D01*
X80676934Y-55954374D01*
X80754289Y-56120261D01*
X80769432Y-56152734D01*
X80774413Y-56159848D01*
X80774415Y-56159851D01*
X80813484Y-56215648D01*
X80899953Y-56339139D01*
X81060861Y-56500047D01*
X81247266Y-56630568D01*
X81453504Y-56726739D01*
X81673308Y-56785635D01*
X81900000Y-56805468D01*
X82126692Y-56785635D01*
X82346496Y-56726739D01*
X82552734Y-56630568D01*
X82739139Y-56500047D01*
X82900047Y-56339139D01*
X83030568Y-56152734D01*
X83126739Y-55946496D01*
X83185635Y-55726692D01*
X83205468Y-55500000D01*
X83185635Y-55273308D01*
X83171351Y-55220000D01*
X84894551Y-55220000D01*
X84895164Y-55227789D01*
X84913703Y-55463356D01*
X84913704Y-55463365D01*
X84914317Y-55471148D01*
X84920212Y-55495702D01*
X84951393Y-55625584D01*
X84973127Y-55716111D01*
X84976119Y-55723335D01*
X84976120Y-55723337D01*
X85010139Y-55805468D01*
X85069534Y-55948859D01*
X85073621Y-55955529D01*
X85073622Y-55955530D01*
X85197076Y-56156989D01*
X85197079Y-56156994D01*
X85201164Y-56163659D01*
X85364776Y-56355224D01*
X85556341Y-56518836D01*
X85563008Y-56522921D01*
X85563010Y-56522923D01*
X85576142Y-56530970D01*
X85771141Y-56650466D01*
X86003889Y-56746873D01*
X86248852Y-56805683D01*
X86500000Y-56825449D01*
X86751148Y-56805683D01*
X86996111Y-56746873D01*
X87228859Y-56650466D01*
X87443659Y-56518836D01*
X87603222Y-56382556D01*
X89099500Y-56382556D01*
X89099501Y-56387872D01*
X89100071Y-56393170D01*
X89100071Y-56393176D01*
X89104577Y-56435100D01*
X89104578Y-56435106D01*
X89105909Y-56447483D01*
X89110261Y-56459151D01*
X89150656Y-56567458D01*
X89156204Y-56582331D01*
X89164733Y-56593724D01*
X89164734Y-56593726D01*
X89188583Y-56625584D01*
X89242454Y-56697546D01*
X89357669Y-56783796D01*
X89492517Y-56834091D01*
X89552127Y-56840500D01*
X91847872Y-56840499D01*
X91907483Y-56834091D01*
X92042331Y-56783796D01*
X92157546Y-56697546D01*
X92243796Y-56582331D01*
X92294091Y-56447483D01*
X92300500Y-56387873D01*
X92300499Y-54092128D01*
X92294091Y-54032517D01*
X92243796Y-53897669D01*
X92157546Y-53782454D01*
X92135513Y-53765960D01*
X92053726Y-53704734D01*
X92053724Y-53704733D01*
X92042331Y-53696204D01*
X92028994Y-53691229D01*
X92028993Y-53691229D01*
X91919147Y-53650259D01*
X91919144Y-53650258D01*
X91907483Y-53645909D01*
X91895108Y-53644578D01*
X91895106Y-53644578D01*
X91853170Y-53640069D01*
X91853160Y-53640068D01*
X91847873Y-53639500D01*
X91842542Y-53639500D01*
X89557461Y-53639500D01*
X89557442Y-53639500D01*
X89552128Y-53639501D01*
X89546828Y-53640070D01*
X89546823Y-53640071D01*
X89504899Y-53644577D01*
X89504891Y-53644578D01*
X89492517Y-53645909D01*
X89480849Y-53650260D01*
X89480848Y-53650261D01*
X89371006Y-53691229D01*
X89371002Y-53691230D01*
X89357669Y-53696204D01*
X89346278Y-53704731D01*
X89346273Y-53704734D01*
X89253846Y-53773925D01*
X89253842Y-53773928D01*
X89242454Y-53782454D01*
X89233928Y-53793842D01*
X89233925Y-53793846D01*
X89164734Y-53886273D01*
X89164731Y-53886278D01*
X89156204Y-53897669D01*
X89151230Y-53911002D01*
X89151229Y-53911006D01*
X89110259Y-54020852D01*
X89110257Y-54020857D01*
X89105909Y-54032517D01*
X89104578Y-54044889D01*
X89104578Y-54044893D01*
X89100069Y-54086829D01*
X89100068Y-54086840D01*
X89099500Y-54092127D01*
X89099500Y-54097456D01*
X89099500Y-54097457D01*
X89099500Y-56382538D01*
X89099500Y-56382556D01*
X87603222Y-56382556D01*
X87635224Y-56355224D01*
X87798836Y-56163659D01*
X87930466Y-55948859D01*
X88026873Y-55716111D01*
X88085683Y-55471148D01*
X88105449Y-55220000D01*
X88085683Y-54968852D01*
X88026873Y-54723889D01*
X87930466Y-54491141D01*
X87798836Y-54276341D01*
X87635224Y-54084776D01*
X87443659Y-53921164D01*
X87436994Y-53917079D01*
X87436989Y-53917076D01*
X87235530Y-53793622D01*
X87235529Y-53793621D01*
X87228859Y-53789534D01*
X87221637Y-53786542D01*
X87221632Y-53786540D01*
X87003337Y-53696120D01*
X87003335Y-53696119D01*
X86996111Y-53693127D01*
X86988508Y-53691301D01*
X86988506Y-53691301D01*
X86817560Y-53650261D01*
X86751148Y-53634317D01*
X86743365Y-53633704D01*
X86743356Y-53633703D01*
X86507789Y-53615164D01*
X86500000Y-53614551D01*
X86492211Y-53615164D01*
X86256643Y-53633703D01*
X86256632Y-53633704D01*
X86248852Y-53634317D01*
X86241250Y-53636141D01*
X86241250Y-53636142D01*
X86011493Y-53691301D01*
X86011487Y-53691302D01*
X86003889Y-53693127D01*
X85996667Y-53696118D01*
X85996662Y-53696120D01*
X85778367Y-53786540D01*
X85778357Y-53786544D01*
X85771141Y-53789534D01*
X85764474Y-53793618D01*
X85764469Y-53793622D01*
X85563010Y-53917076D01*
X85562999Y-53917083D01*
X85556341Y-53921164D01*
X85550397Y-53926239D01*
X85550395Y-53926242D01*
X85370717Y-54079701D01*
X85370710Y-54079707D01*
X85364776Y-54084776D01*
X85359707Y-54090710D01*
X85359701Y-54090717D01*
X85206242Y-54270395D01*
X85201164Y-54276341D01*
X85197083Y-54282999D01*
X85197076Y-54283010D01*
X85073622Y-54484469D01*
X85073618Y-54484474D01*
X85069534Y-54491141D01*
X85066544Y-54498357D01*
X85066540Y-54498367D01*
X84976120Y-54716662D01*
X84976118Y-54716667D01*
X84973127Y-54723889D01*
X84971302Y-54731487D01*
X84971301Y-54731493D01*
X84921741Y-54937928D01*
X84914317Y-54968852D01*
X84913704Y-54976632D01*
X84913703Y-54976643D01*
X84900485Y-55144603D01*
X84894551Y-55220000D01*
X83171351Y-55220000D01*
X83126739Y-55053504D01*
X83030568Y-54847266D01*
X82900047Y-54660861D01*
X82739139Y-54499953D01*
X82588588Y-54394537D01*
X82559851Y-54374415D01*
X82559848Y-54374413D01*
X82552734Y-54369432D01*
X82544859Y-54365760D01*
X82544856Y-54365758D01*
X82354374Y-54276934D01*
X82354368Y-54276931D01*
X82346496Y-54273261D01*
X82315352Y-54264916D01*
X82135083Y-54216613D01*
X82135079Y-54216612D01*
X82126692Y-54214365D01*
X82118040Y-54213608D01*
X81908653Y-54195289D01*
X81900000Y-54194532D01*
X81891347Y-54195289D01*
X81681959Y-54213608D01*
X81681957Y-54213608D01*
X81673308Y-54214365D01*
X81664922Y-54216611D01*
X81664916Y-54216613D01*
X81461900Y-54271011D01*
X81461896Y-54271012D01*
X81453504Y-54273261D01*
X81445635Y-54276930D01*
X81445625Y-54276934D01*
X81255143Y-54365758D01*
X81255135Y-54365762D01*
X81247266Y-54369432D01*
X81240156Y-54374410D01*
X81240148Y-54374415D01*
X81067978Y-54494969D01*
X81067973Y-54494973D01*
X81060861Y-54499953D01*
X81054721Y-54506092D01*
X81054715Y-54506098D01*
X80906098Y-54654715D01*
X80906092Y-54654721D01*
X80899953Y-54660861D01*
X80894973Y-54667973D01*
X80894969Y-54667978D01*
X80774415Y-54840148D01*
X80774410Y-54840156D01*
X80769432Y-54847266D01*
X80765762Y-54855135D01*
X80765758Y-54855143D01*
X80676934Y-55045625D01*
X80676930Y-55045635D01*
X80673261Y-55053504D01*
X80671012Y-55061896D01*
X80671011Y-55061900D01*
X80616613Y-55264916D01*
X80616611Y-55264922D01*
X80614365Y-55273308D01*
X80613608Y-55281957D01*
X80613608Y-55281959D01*
X80608096Y-55344963D01*
X80594532Y-55500000D01*
X75990657Y-55500000D01*
X75514547Y-55023890D01*
X75506307Y-55015137D01*
X75475910Y-54980826D01*
X75467929Y-54971817D01*
X75420288Y-54938932D01*
X75410621Y-54931818D01*
X75374536Y-54903547D01*
X75374528Y-54903542D01*
X75365057Y-54896122D01*
X75354078Y-54891180D01*
X75346088Y-54886351D01*
X75337834Y-54882019D01*
X75327930Y-54875182D01*
X75316682Y-54870916D01*
X75316678Y-54870914D01*
X75273810Y-54854656D01*
X75262711Y-54850058D01*
X75220908Y-54831245D01*
X75220909Y-54831245D01*
X75209932Y-54826305D01*
X75198098Y-54824136D01*
X75189213Y-54821367D01*
X75180123Y-54819126D01*
X75168872Y-54814860D01*
X75156923Y-54813409D01*
X75111426Y-54807884D01*
X75099549Y-54806076D01*
X75054445Y-54797811D01*
X75054441Y-54797810D01*
X75042606Y-54795642D01*
X75030598Y-54796368D01*
X75030592Y-54796368D01*
X74984832Y-54799137D01*
X74972816Y-54799500D01*
X72940716Y-54799500D01*
X72878121Y-54789399D01*
X72821881Y-54760122D01*
X72777705Y-54714641D01*
X72745036Y-54667985D01*
X72745030Y-54667978D01*
X72740047Y-54660861D01*
X72579139Y-54499953D01*
X72428588Y-54394537D01*
X72399851Y-54374415D01*
X72399848Y-54374413D01*
X72392734Y-54369432D01*
X72384862Y-54365761D01*
X72384860Y-54365760D01*
X72310591Y-54331128D01*
X72211142Y-54284753D01*
X72149368Y-54239754D01*
X72109110Y-54174788D01*
X72096308Y-54099438D01*
X72112850Y-54024821D01*
X72156297Y-53961942D01*
X72220240Y-53920077D01*
X72295246Y-53905400D01*
X77216016Y-53905400D01*
X77228031Y-53905762D01*
X77285806Y-53909258D01*
X77342770Y-53898818D01*
X77354622Y-53897015D01*
X77412072Y-53890040D01*
X77423332Y-53885769D01*
X77432389Y-53883537D01*
X77441281Y-53880766D01*
X77453132Y-53878595D01*
X77505925Y-53854833D01*
X77517000Y-53850245D01*
X77571130Y-53829718D01*
X77581043Y-53822874D01*
X77589309Y-53818536D01*
X77597276Y-53813719D01*
X77608257Y-53808778D01*
X77653837Y-53773067D01*
X77663466Y-53765982D01*
X77711129Y-53733083D01*
X77749525Y-53689741D01*
X77757731Y-53681024D01*
X84284073Y-47154681D01*
X84348630Y-47111546D01*
X84424784Y-47096398D01*
X84500938Y-47111546D01*
X84565498Y-47154684D01*
X84610861Y-47200047D01*
X84797266Y-47330568D01*
X84805144Y-47334241D01*
X84805143Y-47334241D01*
X84994162Y-47422383D01*
X85003504Y-47426739D01*
X85223308Y-47485635D01*
X85450000Y-47505468D01*
X85676692Y-47485635D01*
X85896496Y-47426739D01*
X86102734Y-47330568D01*
X86289139Y-47200047D01*
X86446630Y-47042556D01*
X90699500Y-47042556D01*
X90699501Y-47047872D01*
X90700071Y-47053170D01*
X90700071Y-47053176D01*
X90704577Y-47095100D01*
X90704578Y-47095106D01*
X90705909Y-47107483D01*
X90710261Y-47119151D01*
X90749093Y-47223267D01*
X90756204Y-47242331D01*
X90764733Y-47253724D01*
X90764734Y-47253726D01*
X90818527Y-47325584D01*
X90842454Y-47357546D01*
X90957669Y-47443796D01*
X91092517Y-47494091D01*
X91152127Y-47500500D01*
X93247872Y-47500499D01*
X93307483Y-47494091D01*
X93442331Y-47443796D01*
X93557546Y-47357546D01*
X93643796Y-47242331D01*
X93650906Y-47223267D01*
X95135459Y-47223267D01*
X95146637Y-47236604D01*
X95170274Y-47255001D01*
X95184003Y-47263970D01*
X95388153Y-47374450D01*
X95403172Y-47381039D01*
X95622728Y-47456412D01*
X95638626Y-47460438D01*
X95867592Y-47498646D01*
X95883932Y-47500000D01*
X96116068Y-47500000D01*
X96132407Y-47498646D01*
X96361373Y-47460438D01*
X96377271Y-47456412D01*
X96596827Y-47381039D01*
X96611846Y-47374450D01*
X96815994Y-47263972D01*
X96829725Y-47255001D01*
X96853360Y-47236605D01*
X96864539Y-47223267D01*
X96855094Y-47208647D01*
X96013859Y-46367412D01*
X96000000Y-46358151D01*
X95986140Y-46367412D01*
X95144902Y-47208649D01*
X95135459Y-47223267D01*
X93650906Y-47223267D01*
X93694091Y-47107483D01*
X93700500Y-47047873D01*
X93700500Y-46008206D01*
X94495539Y-46008206D01*
X94514706Y-46239528D01*
X94517407Y-46255718D01*
X94574391Y-46480739D01*
X94579719Y-46496258D01*
X94672959Y-46708825D01*
X94680772Y-46723262D01*
X94764421Y-46851297D01*
X94777206Y-46863690D01*
X94792262Y-46854183D01*
X95632587Y-46013859D01*
X95641848Y-46000000D01*
X95641847Y-45999999D01*
X96358151Y-45999999D01*
X96367412Y-46013859D01*
X97207736Y-46854183D01*
X97222792Y-46863690D01*
X97235577Y-46851296D01*
X97319231Y-46723256D01*
X97327036Y-46708833D01*
X97420280Y-46496258D01*
X97425608Y-46480739D01*
X97482592Y-46255718D01*
X97485293Y-46239528D01*
X97504461Y-46008206D01*
X97504461Y-45991794D01*
X97485293Y-45760471D01*
X97482592Y-45744281D01*
X97425608Y-45519260D01*
X97420280Y-45503741D01*
X97327040Y-45291174D01*
X97319227Y-45276737D01*
X97235577Y-45148701D01*
X97222792Y-45136308D01*
X97207736Y-45145815D01*
X96367412Y-45986140D01*
X96358151Y-45999999D01*
X95641847Y-45999999D01*
X95632587Y-45986140D01*
X94792262Y-45145815D01*
X94777206Y-45136308D01*
X94764421Y-45148702D01*
X94680769Y-45276742D01*
X94672963Y-45291166D01*
X94579719Y-45503741D01*
X94574391Y-45519260D01*
X94517407Y-45744281D01*
X94514706Y-45760471D01*
X94495539Y-45991794D01*
X94495539Y-46008206D01*
X93700500Y-46008206D01*
X93700499Y-44952128D01*
X93694091Y-44892517D01*
X93650906Y-44776731D01*
X95135460Y-44776731D01*
X95144904Y-44791351D01*
X95986140Y-45632587D01*
X96000000Y-45641848D01*
X96013859Y-45632587D01*
X96855096Y-44791349D01*
X96864539Y-44776731D01*
X96853361Y-44763394D01*
X96829726Y-44744998D01*
X96815996Y-44736029D01*
X96611846Y-44625549D01*
X96596827Y-44618960D01*
X96377271Y-44543587D01*
X96361373Y-44539561D01*
X96132407Y-44501353D01*
X96116068Y-44500000D01*
X95883932Y-44500000D01*
X95867592Y-44501353D01*
X95638626Y-44539561D01*
X95622728Y-44543587D01*
X95403172Y-44618960D01*
X95388153Y-44625549D01*
X95184002Y-44736029D01*
X95170276Y-44744996D01*
X95146638Y-44763393D01*
X95135460Y-44776731D01*
X93650906Y-44776731D01*
X93643796Y-44757669D01*
X93634310Y-44744998D01*
X93566074Y-44653846D01*
X93557546Y-44642454D01*
X93507648Y-44605100D01*
X93453726Y-44564734D01*
X93453724Y-44564733D01*
X93442331Y-44556204D01*
X93428994Y-44551229D01*
X93428993Y-44551229D01*
X93319147Y-44510259D01*
X93319144Y-44510258D01*
X93307483Y-44505909D01*
X93295108Y-44504578D01*
X93295106Y-44504578D01*
X93253170Y-44500069D01*
X93253160Y-44500068D01*
X93247873Y-44499500D01*
X93242542Y-44499500D01*
X91157461Y-44499500D01*
X91157442Y-44499500D01*
X91152128Y-44499501D01*
X91146828Y-44500070D01*
X91146823Y-44500071D01*
X91104899Y-44504577D01*
X91104891Y-44504578D01*
X91092517Y-44505909D01*
X91080849Y-44510260D01*
X91080848Y-44510261D01*
X90971006Y-44551229D01*
X90971002Y-44551230D01*
X90957669Y-44556204D01*
X90946278Y-44564731D01*
X90946273Y-44564734D01*
X90853846Y-44633925D01*
X90853842Y-44633928D01*
X90842454Y-44642454D01*
X90833928Y-44653842D01*
X90833925Y-44653846D01*
X90764734Y-44746273D01*
X90764731Y-44746278D01*
X90756204Y-44757669D01*
X90751230Y-44771002D01*
X90751229Y-44771006D01*
X90710259Y-44880852D01*
X90710257Y-44880857D01*
X90705909Y-44892517D01*
X90704578Y-44904889D01*
X90704578Y-44904893D01*
X90700069Y-44946829D01*
X90700068Y-44946840D01*
X90699500Y-44952127D01*
X90699500Y-44957456D01*
X90699500Y-44957457D01*
X90699500Y-47042538D01*
X90699500Y-47042556D01*
X86446630Y-47042556D01*
X86450047Y-47039139D01*
X86580568Y-46852734D01*
X86676739Y-46646496D01*
X86735635Y-46426692D01*
X86755468Y-46200000D01*
X86735635Y-45973308D01*
X86676739Y-45753504D01*
X86580568Y-45547266D01*
X86450047Y-45360861D01*
X86289139Y-45199953D01*
X86122343Y-45083162D01*
X86109851Y-45074415D01*
X86109848Y-45074413D01*
X86102734Y-45069432D01*
X86094859Y-45065760D01*
X86094856Y-45065758D01*
X85904374Y-44976934D01*
X85904368Y-44976931D01*
X85896496Y-44973261D01*
X85888099Y-44971011D01*
X85685083Y-44916613D01*
X85685079Y-44916612D01*
X85676692Y-44914365D01*
X85668040Y-44913608D01*
X85458653Y-44895289D01*
X85450000Y-44894532D01*
X85441347Y-44895289D01*
X85231959Y-44913608D01*
X85231957Y-44913608D01*
X85223308Y-44914365D01*
X85214922Y-44916611D01*
X85214916Y-44916613D01*
X85011900Y-44971011D01*
X85011896Y-44971012D01*
X85003504Y-44973261D01*
X84995635Y-44976930D01*
X84995625Y-44976934D01*
X84805143Y-45065758D01*
X84805135Y-45065762D01*
X84797266Y-45069432D01*
X84790156Y-45074410D01*
X84790148Y-45074415D01*
X84617978Y-45194969D01*
X84617973Y-45194973D01*
X84610861Y-45199953D01*
X84604721Y-45206092D01*
X84604715Y-45206098D01*
X84456098Y-45354715D01*
X84456092Y-45354721D01*
X84449953Y-45360861D01*
X84444971Y-45367975D01*
X84444971Y-45367976D01*
X84413351Y-45413134D01*
X84365935Y-45460975D01*
X84305276Y-45490258D01*
X84238324Y-45497628D01*
X84217507Y-45496368D01*
X84217501Y-45496368D01*
X84205494Y-45495642D01*
X84193659Y-45497810D01*
X84193653Y-45497811D01*
X84148550Y-45506076D01*
X84136673Y-45507884D01*
X84091174Y-45513409D01*
X84091171Y-45513409D01*
X84079228Y-45514860D01*
X84067977Y-45519126D01*
X84058894Y-45521365D01*
X84049999Y-45524136D01*
X84038169Y-45526305D01*
X84027203Y-45531240D01*
X84027191Y-45531244D01*
X83985382Y-45550060D01*
X83974286Y-45554656D01*
X83931431Y-45570910D01*
X83931422Y-45570914D01*
X83920170Y-45575182D01*
X83910265Y-45582018D01*
X83902008Y-45586352D01*
X83894015Y-45591183D01*
X83883044Y-45596122D01*
X83873573Y-45603541D01*
X83873571Y-45603543D01*
X83837498Y-45631804D01*
X83827823Y-45638923D01*
X83790081Y-45664975D01*
X83790073Y-45664981D01*
X83780171Y-45671817D01*
X83772191Y-45680823D01*
X83772189Y-45680826D01*
X83741784Y-45715146D01*
X83733547Y-45723895D01*
X77011329Y-52446114D01*
X76946769Y-52489252D01*
X76870615Y-52504400D01*
X70822273Y-52504400D01*
X70810258Y-52504037D01*
X70764507Y-52501269D01*
X70764501Y-52501269D01*
X70752494Y-52500543D01*
X70740660Y-52502711D01*
X70740651Y-52502712D01*
X70695564Y-52510974D01*
X70683689Y-52512782D01*
X70638171Y-52518309D01*
X70638165Y-52518310D01*
X70626228Y-52519760D01*
X70614982Y-52524024D01*
X70605916Y-52526259D01*
X70597000Y-52529037D01*
X70585168Y-52531206D01*
X70574196Y-52536143D01*
X70574186Y-52536147D01*
X70532390Y-52554957D01*
X70521294Y-52559553D01*
X70478429Y-52575810D01*
X70478415Y-52575816D01*
X70467170Y-52580082D01*
X70457267Y-52586917D01*
X70449022Y-52591245D01*
X70441018Y-52596083D01*
X70430043Y-52601023D01*
X70420569Y-52608445D01*
X70420561Y-52608450D01*
X70418623Y-52609969D01*
X70416005Y-52611204D01*
X70410268Y-52614673D01*
X70409910Y-52614081D01*
X70338837Y-52647630D01*
X70250612Y-52647095D01*
X70171288Y-52608471D01*
X70116458Y-52539349D01*
X70096900Y-52453317D01*
X70096900Y-51925484D01*
X70097263Y-51913468D01*
X70100031Y-51867710D01*
X70100758Y-51855694D01*
X70090319Y-51798733D01*
X70088514Y-51786868D01*
X70081540Y-51729428D01*
X70077269Y-51718166D01*
X70075034Y-51709098D01*
X70072265Y-51700213D01*
X70070095Y-51688369D01*
X70046340Y-51635589D01*
X70041744Y-51624494D01*
X70021218Y-51570370D01*
X70014380Y-51560464D01*
X70010049Y-51552211D01*
X70005216Y-51544217D01*
X70000278Y-51533244D01*
X69964582Y-51487681D01*
X69957470Y-51478016D01*
X69924583Y-51430371D01*
X69881253Y-51391984D01*
X69872500Y-51383744D01*
X65903316Y-47414559D01*
X65862926Y-47356322D01*
X65845508Y-47287624D01*
X65853269Y-47217178D01*
X65885222Y-47153925D01*
X65939673Y-47081821D01*
X66030582Y-46899250D01*
X66086397Y-46703083D01*
X66105215Y-46500000D01*
X66086397Y-46296917D01*
X66058821Y-46200000D01*
X71144341Y-46200000D01*
X71145098Y-46208652D01*
X71164179Y-46426753D01*
X71164180Y-46426761D01*
X71164937Y-46435408D01*
X71167185Y-46443798D01*
X71167186Y-46443803D01*
X71215318Y-46623436D01*
X71226097Y-46663663D01*
X71229764Y-46671527D01*
X71229767Y-46671535D01*
X71314938Y-46854183D01*
X71325965Y-46877830D01*
X71330950Y-46884949D01*
X71330951Y-46884951D01*
X71456519Y-47064281D01*
X71456522Y-47064284D01*
X71461505Y-47071401D01*
X71628599Y-47238495D01*
X71635716Y-47243478D01*
X71635718Y-47243480D01*
X71650351Y-47253726D01*
X71822170Y-47374035D01*
X71830049Y-47377709D01*
X72028464Y-47470232D01*
X72028466Y-47470232D01*
X72036337Y-47473903D01*
X72264592Y-47535063D01*
X72500000Y-47555659D01*
X72735408Y-47535063D01*
X72963663Y-47473903D01*
X73177830Y-47374035D01*
X73371401Y-47238495D01*
X73538495Y-47071401D01*
X73674035Y-46877830D01*
X73773903Y-46663663D01*
X73835063Y-46435408D01*
X73855659Y-46200000D01*
X73835063Y-45964592D01*
X73779918Y-45758786D01*
X73776152Y-45744730D01*
X73776151Y-45744728D01*
X73773903Y-45736337D01*
X73764255Y-45715648D01*
X73725158Y-45631804D01*
X73674035Y-45522171D01*
X73538495Y-45328599D01*
X73499090Y-45289194D01*
X73455413Y-45223318D01*
X73440824Y-45145636D01*
X73457627Y-45068403D01*
X73503169Y-45003802D01*
X73570263Y-44962026D01*
X73592331Y-44953796D01*
X73707546Y-44867546D01*
X73793796Y-44752331D01*
X73844091Y-44617483D01*
X73850500Y-44557873D01*
X73850500Y-44552538D01*
X73850698Y-44548849D01*
X73868767Y-44476026D01*
X73912516Y-44415069D01*
X73975727Y-44374645D01*
X74049413Y-44360500D01*
X75037415Y-44360500D01*
X75113569Y-44375648D01*
X75178129Y-44418786D01*
X76604242Y-45844899D01*
X76650527Y-45917551D01*
X76661771Y-46002957D01*
X76657956Y-46046563D01*
X76644532Y-46200000D01*
X76645289Y-46208652D01*
X76645289Y-46208653D01*
X76652236Y-46288063D01*
X76664365Y-46426692D01*
X76666612Y-46435079D01*
X76666613Y-46435083D01*
X76686579Y-46509598D01*
X76723261Y-46646496D01*
X76726931Y-46654368D01*
X76726934Y-46654374D01*
X76815758Y-46844856D01*
X76819432Y-46852734D01*
X76824413Y-46859848D01*
X76824415Y-46859851D01*
X76929223Y-47009533D01*
X76949953Y-47039139D01*
X77110861Y-47200047D01*
X77297266Y-47330568D01*
X77305144Y-47334241D01*
X77305143Y-47334241D01*
X77494162Y-47422383D01*
X77503504Y-47426739D01*
X77723308Y-47485635D01*
X77950000Y-47505468D01*
X78176692Y-47485635D01*
X78396496Y-47426739D01*
X78602734Y-47330568D01*
X78789139Y-47200047D01*
X78950047Y-47039139D01*
X79080568Y-46852734D01*
X79176739Y-46646496D01*
X79235635Y-46426692D01*
X79255468Y-46200000D01*
X79235635Y-45973308D01*
X79176739Y-45753504D01*
X79080568Y-45547266D01*
X78950047Y-45360861D01*
X78789139Y-45199953D01*
X78622343Y-45083162D01*
X78609851Y-45074415D01*
X78609848Y-45074413D01*
X78602734Y-45069432D01*
X78594859Y-45065760D01*
X78594856Y-45065758D01*
X78404374Y-44976934D01*
X78404368Y-44976931D01*
X78396496Y-44973261D01*
X78388099Y-44971011D01*
X78185083Y-44916613D01*
X78185079Y-44916612D01*
X78176692Y-44914365D01*
X78168040Y-44913608D01*
X77958653Y-44895289D01*
X77950000Y-44894532D01*
X77941347Y-44895289D01*
X77752957Y-44911771D01*
X77667551Y-44900527D01*
X77594899Y-44854242D01*
X75924547Y-43183890D01*
X75916307Y-43175137D01*
X75885910Y-43140826D01*
X75877929Y-43131817D01*
X75830288Y-43098932D01*
X75820621Y-43091818D01*
X75784536Y-43063547D01*
X75784528Y-43063542D01*
X75775057Y-43056122D01*
X75764078Y-43051180D01*
X75756088Y-43046351D01*
X75747834Y-43042019D01*
X75737930Y-43035182D01*
X75726682Y-43030916D01*
X75726678Y-43030914D01*
X75683810Y-43014656D01*
X75672711Y-43010058D01*
X75630908Y-42991245D01*
X75630909Y-42991245D01*
X75619932Y-42986305D01*
X75608098Y-42984136D01*
X75599213Y-42981367D01*
X75590123Y-42979126D01*
X75578872Y-42974860D01*
X75566923Y-42973409D01*
X75521426Y-42967884D01*
X75509549Y-42966076D01*
X75464445Y-42957811D01*
X75464441Y-42957810D01*
X75452606Y-42955642D01*
X75440598Y-42956368D01*
X75440592Y-42956368D01*
X75394832Y-42959137D01*
X75382816Y-42959500D01*
X74049412Y-42959500D01*
X73975727Y-42945355D01*
X73912516Y-42904932D01*
X73868767Y-42843976D01*
X73850697Y-42771154D01*
X73850499Y-42767457D01*
X73850499Y-42762128D01*
X73844091Y-42702517D01*
X73793796Y-42567669D01*
X73707546Y-42452454D01*
X73592331Y-42366204D01*
X73578994Y-42361229D01*
X73578993Y-42361229D01*
X73469147Y-42320259D01*
X73469144Y-42320258D01*
X73457483Y-42315909D01*
X73445108Y-42314578D01*
X73445106Y-42314578D01*
X73403170Y-42310069D01*
X73403160Y-42310068D01*
X73397873Y-42309500D01*
X73392542Y-42309500D01*
X71607461Y-42309500D01*
X71607442Y-42309500D01*
X71602128Y-42309501D01*
X71596828Y-42310070D01*
X71596823Y-42310071D01*
X71554899Y-42314577D01*
X71554891Y-42314578D01*
X71542517Y-42315909D01*
X71530849Y-42320260D01*
X71530848Y-42320261D01*
X71421006Y-42361229D01*
X71421002Y-42361230D01*
X71407669Y-42366204D01*
X71396278Y-42374731D01*
X71396273Y-42374734D01*
X71303846Y-42443925D01*
X71303842Y-42443928D01*
X71292454Y-42452454D01*
X71283928Y-42463842D01*
X71283925Y-42463846D01*
X71214734Y-42556273D01*
X71214731Y-42556278D01*
X71206204Y-42567669D01*
X71201230Y-42581002D01*
X71201229Y-42581006D01*
X71160259Y-42690852D01*
X71160257Y-42690857D01*
X71155909Y-42702517D01*
X71154578Y-42714889D01*
X71154578Y-42714893D01*
X71150069Y-42756829D01*
X71150068Y-42756840D01*
X71149500Y-42762127D01*
X71149500Y-42767456D01*
X71149500Y-42767457D01*
X71149500Y-44552538D01*
X71149500Y-44552556D01*
X71149501Y-44557872D01*
X71150071Y-44563171D01*
X71150071Y-44563176D01*
X71154577Y-44605100D01*
X71154578Y-44605106D01*
X71155909Y-44617483D01*
X71206204Y-44752331D01*
X71214733Y-44763724D01*
X71214734Y-44763726D01*
X71283925Y-44856153D01*
X71292454Y-44867546D01*
X71407669Y-44953796D01*
X71429737Y-44962027D01*
X71496832Y-45003803D01*
X71542373Y-45068403D01*
X71559175Y-45145636D01*
X71544587Y-45223317D01*
X71500911Y-45289192D01*
X71467651Y-45322452D01*
X71467645Y-45322458D01*
X71461505Y-45328599D01*
X71456522Y-45335715D01*
X71456519Y-45335719D01*
X71330952Y-45515048D01*
X71330949Y-45515052D01*
X71325965Y-45522171D01*
X71322293Y-45530044D01*
X71322292Y-45530047D01*
X71229767Y-45728464D01*
X71229762Y-45728476D01*
X71226097Y-45736337D01*
X71223851Y-45744718D01*
X71223847Y-45744730D01*
X71167186Y-45956196D01*
X71167184Y-45956203D01*
X71164937Y-45964592D01*
X71164180Y-45973236D01*
X71164179Y-45973246D01*
X71154896Y-46079358D01*
X71144341Y-46200000D01*
X66058821Y-46200000D01*
X66030582Y-46100750D01*
X65939673Y-45918179D01*
X65816764Y-45755421D01*
X65666041Y-45618019D01*
X65492637Y-45510652D01*
X65459490Y-45497811D01*
X65311034Y-45440299D01*
X65311032Y-45440298D01*
X65302456Y-45436976D01*
X65293421Y-45435287D01*
X65293414Y-45435285D01*
X65111014Y-45401189D01*
X65111008Y-45401188D01*
X65101976Y-45399500D01*
X64898024Y-45399500D01*
X64888992Y-45401188D01*
X64888985Y-45401189D01*
X64706585Y-45435285D01*
X64706575Y-45435287D01*
X64697544Y-45436976D01*
X64688969Y-45440297D01*
X64688965Y-45440299D01*
X64515942Y-45507328D01*
X64515937Y-45507330D01*
X64507363Y-45510652D01*
X64499542Y-45515494D01*
X64499539Y-45515496D01*
X64341785Y-45613173D01*
X64341782Y-45613174D01*
X64333959Y-45618019D01*
X64327160Y-45624216D01*
X64327156Y-45624220D01*
X64190036Y-45749221D01*
X64190030Y-45749226D01*
X64183236Y-45755421D01*
X64177690Y-45762763D01*
X64177689Y-45762766D01*
X64085164Y-45885290D01*
X64060327Y-45918179D01*
X64056227Y-45926411D01*
X64056225Y-45926416D01*
X63973518Y-46092515D01*
X63973516Y-46092519D01*
X63969418Y-46100750D01*
X63966901Y-46109593D01*
X63966900Y-46109598D01*
X63916122Y-46288063D01*
X63913603Y-46296917D01*
X63912754Y-46306075D01*
X63912753Y-46306083D01*
X63901578Y-46426692D01*
X63894785Y-46500000D01*
X63895634Y-46509162D01*
X63912753Y-46693916D01*
X63912754Y-46693922D01*
X63913603Y-46703083D01*
X63929238Y-46758035D01*
X63965349Y-46884951D01*
X63969418Y-46899250D01*
X64060327Y-47081821D01*
X64183236Y-47244579D01*
X64190032Y-47250774D01*
X64190039Y-47250782D01*
X64234566Y-47291374D01*
X64282544Y-47358056D01*
X64299500Y-47438436D01*
X64299500Y-47474716D01*
X64299137Y-47486731D01*
X64295642Y-47544506D01*
X64297810Y-47556341D01*
X64297811Y-47556345D01*
X64306076Y-47601449D01*
X64307884Y-47613326D01*
X64308352Y-47617178D01*
X64314860Y-47670772D01*
X64319126Y-47682023D01*
X64321367Y-47691113D01*
X64324136Y-47699998D01*
X64326305Y-47711832D01*
X64331245Y-47722808D01*
X64350058Y-47764611D01*
X64354656Y-47775710D01*
X64370914Y-47818578D01*
X64370916Y-47818582D01*
X64375182Y-47829830D01*
X64382019Y-47839734D01*
X64386351Y-47847988D01*
X64391180Y-47855978D01*
X64396122Y-47866957D01*
X64403542Y-47876428D01*
X64403547Y-47876436D01*
X64431818Y-47912521D01*
X64438932Y-47922188D01*
X64471817Y-47969829D01*
X64504530Y-47998810D01*
X64515137Y-48008207D01*
X64523890Y-48016447D01*
X66602134Y-50094691D01*
X68637614Y-52130170D01*
X68680752Y-52194730D01*
X68695900Y-52270884D01*
X68695900Y-53312079D01*
X68677255Y-53396180D01*
X68624815Y-53464522D01*
X68548405Y-53504298D01*
X68462344Y-53508056D01*
X68382758Y-53475090D01*
X68239604Y-53374852D01*
X68224603Y-53366191D01*
X68034203Y-53277406D01*
X68017928Y-53271483D01*
X67847660Y-53225860D01*
X67832729Y-53224684D01*
X67830000Y-53239414D01*
X67830000Y-55760586D01*
X67832729Y-55775315D01*
X67847660Y-55774139D01*
X68017928Y-55728516D01*
X68034203Y-55722593D01*
X68224603Y-55633808D01*
X68239604Y-55625147D01*
X68382758Y-55524910D01*
X68462344Y-55491944D01*
X68548405Y-55495702D01*
X68624815Y-55535478D01*
X68677255Y-55603820D01*
X68695900Y-55687921D01*
X68695900Y-56812079D01*
X68677255Y-56896180D01*
X68624815Y-56964522D01*
X68548405Y-57004298D01*
X68462344Y-57008056D01*
X68382758Y-56975090D01*
X68239604Y-56874852D01*
X68224603Y-56866191D01*
X68034203Y-56777406D01*
X68017928Y-56771483D01*
X67847660Y-56725860D01*
X67832729Y-56724684D01*
X67830000Y-56739414D01*
X67830000Y-57730402D01*
X67833251Y-57746748D01*
X67849598Y-57750000D01*
X68840587Y-57750000D01*
X68871572Y-57744257D01*
X68935533Y-57742860D01*
X68996632Y-57761832D01*
X69048553Y-57799210D01*
X70394242Y-59144899D01*
X70440527Y-59217551D01*
X70451771Y-59302957D01*
X70438629Y-59453170D01*
X70434532Y-59500000D01*
X70454365Y-59726692D01*
X70456612Y-59735079D01*
X70456613Y-59735083D01*
X70500936Y-59900499D01*
X70513261Y-59946496D01*
X70516931Y-59954368D01*
X70516934Y-59954374D01*
X70604927Y-60143073D01*
X70609432Y-60152734D01*
X70614413Y-60159848D01*
X70614415Y-60159851D01*
X70692250Y-60271011D01*
X70739953Y-60339139D01*
X70746098Y-60345284D01*
X70860600Y-60459786D01*
X70903738Y-60524346D01*
X70918886Y-60600500D01*
X70903738Y-60676654D01*
X70860600Y-60741214D01*
X70796040Y-60784352D01*
X70719886Y-60799500D01*
X70085056Y-60799500D01*
X69914944Y-60799500D01*
X69903267Y-60802377D01*
X69903258Y-60802379D01*
X69885176Y-60806836D01*
X69861556Y-60811164D01*
X69843080Y-60813408D01*
X69843074Y-60813409D01*
X69831128Y-60814860D01*
X69819875Y-60819127D01*
X69819868Y-60819129D01*
X69802469Y-60825727D01*
X69779541Y-60832872D01*
X69761461Y-60837328D01*
X69761450Y-60837332D01*
X69749775Y-60840210D01*
X69739124Y-60845799D01*
X69739118Y-60845802D01*
X69722631Y-60854455D01*
X69700734Y-60864310D01*
X69683327Y-60870912D01*
X69683323Y-60870914D01*
X69672070Y-60875182D01*
X69662164Y-60882019D01*
X69662159Y-60882022D01*
X69646833Y-60892600D01*
X69626287Y-60905020D01*
X69609812Y-60913667D01*
X69609800Y-60913674D01*
X69599148Y-60919266D01*
X69590142Y-60927244D01*
X69590135Y-60927249D01*
X69576205Y-60939590D01*
X69557305Y-60954398D01*
X69541973Y-60964981D01*
X69541969Y-60964984D01*
X69532071Y-60971817D01*
X69524093Y-60980821D01*
X69524084Y-60980830D01*
X69511741Y-60994762D01*
X69494762Y-61011741D01*
X69480830Y-61024084D01*
X69480821Y-61024093D01*
X69471817Y-61032071D01*
X69464984Y-61041969D01*
X69464981Y-61041973D01*
X69454398Y-61057305D01*
X69439590Y-61076205D01*
X69427249Y-61090135D01*
X69427244Y-61090142D01*
X69419266Y-61099148D01*
X69413674Y-61109800D01*
X69413667Y-61109812D01*
X69405020Y-61126287D01*
X69392600Y-61146833D01*
X69382022Y-61162159D01*
X69382019Y-61162164D01*
X69375182Y-61172070D01*
X69370914Y-61183323D01*
X69370912Y-61183327D01*
X69364310Y-61200734D01*
X69354455Y-61222631D01*
X69345802Y-61239118D01*
X69345799Y-61239124D01*
X69340210Y-61249775D01*
X69337332Y-61261450D01*
X69337328Y-61261461D01*
X69332872Y-61279541D01*
X69325727Y-61302469D01*
X69319129Y-61319868D01*
X69319127Y-61319875D01*
X69314860Y-61331128D01*
X69313409Y-61343074D01*
X69313408Y-61343080D01*
X69311164Y-61361556D01*
X69306836Y-61385176D01*
X69302379Y-61403258D01*
X69302377Y-61403267D01*
X69299500Y-61414944D01*
X69299500Y-61426978D01*
X69299500Y-64127415D01*
X69284352Y-64203569D01*
X69241214Y-64268129D01*
X66912129Y-66597214D01*
X66847569Y-66640352D01*
X66771415Y-66655500D01*
X65085056Y-66655500D01*
X65042372Y-66655500D01*
X60228585Y-66655500D01*
X60152431Y-66640352D01*
X60087871Y-66597214D01*
X54990657Y-61500000D01*
X56114532Y-61500000D01*
X56134365Y-61726692D01*
X56136612Y-61735079D01*
X56136613Y-61735083D01*
X56191011Y-61938099D01*
X56193261Y-61946496D01*
X56196931Y-61954368D01*
X56196934Y-61954374D01*
X56285758Y-62144856D01*
X56289432Y-62152734D01*
X56294413Y-62159848D01*
X56294415Y-62159851D01*
X56363690Y-62258786D01*
X56419953Y-62339139D01*
X56580861Y-62500047D01*
X56767266Y-62630568D01*
X56973504Y-62726739D01*
X57193308Y-62785635D01*
X57420000Y-62805468D01*
X57646692Y-62785635D01*
X57866496Y-62726739D01*
X58072734Y-62630568D01*
X58259139Y-62500047D01*
X58420047Y-62339139D01*
X58550568Y-62152734D01*
X58646739Y-61946496D01*
X58705635Y-61726692D01*
X58725468Y-61500000D01*
X58705635Y-61273308D01*
X58646739Y-61053504D01*
X58550568Y-60847266D01*
X58420047Y-60660861D01*
X58259139Y-60499953D01*
X58195326Y-60455271D01*
X58079851Y-60374415D01*
X58079848Y-60374413D01*
X58072734Y-60369432D01*
X58064859Y-60365760D01*
X58064856Y-60365758D01*
X57874374Y-60276934D01*
X57874368Y-60276931D01*
X57866496Y-60273261D01*
X57847343Y-60268129D01*
X57655083Y-60216613D01*
X57655079Y-60216612D01*
X57646692Y-60214365D01*
X57638040Y-60213608D01*
X57428653Y-60195289D01*
X57420000Y-60194532D01*
X57411347Y-60195289D01*
X57201959Y-60213608D01*
X57201957Y-60213608D01*
X57193308Y-60214365D01*
X57184922Y-60216611D01*
X57184916Y-60216613D01*
X56981900Y-60271011D01*
X56981896Y-60271012D01*
X56973504Y-60273261D01*
X56965635Y-60276930D01*
X56965625Y-60276934D01*
X56775143Y-60365758D01*
X56775135Y-60365762D01*
X56767266Y-60369432D01*
X56760156Y-60374410D01*
X56760148Y-60374415D01*
X56587978Y-60494969D01*
X56587973Y-60494973D01*
X56580861Y-60499953D01*
X56574721Y-60506092D01*
X56574715Y-60506098D01*
X56426098Y-60654715D01*
X56426094Y-60654720D01*
X56419953Y-60660861D01*
X56414973Y-60667973D01*
X56414969Y-60667978D01*
X56294415Y-60840148D01*
X56294410Y-60840156D01*
X56289432Y-60847266D01*
X56285762Y-60855135D01*
X56285758Y-60855143D01*
X56196934Y-61045625D01*
X56196930Y-61045635D01*
X56193261Y-61053504D01*
X56191012Y-61061896D01*
X56191011Y-61061900D01*
X56136613Y-61264916D01*
X56136611Y-61264922D01*
X56134365Y-61273308D01*
X56133608Y-61281957D01*
X56133608Y-61281959D01*
X56124578Y-61385176D01*
X56114532Y-61500000D01*
X54990657Y-61500000D01*
X53758786Y-60268129D01*
X53715648Y-60203569D01*
X53700500Y-60127415D01*
X53700500Y-58000000D01*
X56114532Y-58000000D01*
X56115289Y-58008653D01*
X56133286Y-58214365D01*
X56134365Y-58226692D01*
X56136612Y-58235079D01*
X56136613Y-58235083D01*
X56170934Y-58363170D01*
X56193261Y-58446496D01*
X56196931Y-58454368D01*
X56196934Y-58454374D01*
X56285640Y-58644603D01*
X56289432Y-58652734D01*
X56294413Y-58659848D01*
X56294415Y-58659851D01*
X56319961Y-58696335D01*
X56419953Y-58839139D01*
X56580861Y-59000047D01*
X56708177Y-59089194D01*
X56759969Y-59125459D01*
X56767266Y-59130568D01*
X56973504Y-59226739D01*
X57193308Y-59285635D01*
X57420000Y-59305468D01*
X57646692Y-59285635D01*
X57866496Y-59226739D01*
X58072734Y-59130568D01*
X58259139Y-59000047D01*
X58420047Y-58839139D01*
X58550568Y-58652734D01*
X58646739Y-58446496D01*
X58695414Y-58264838D01*
X58700195Y-58246995D01*
X58739971Y-58170585D01*
X58808313Y-58118145D01*
X58892414Y-58099500D01*
X62374944Y-58099500D01*
X62417628Y-58099500D01*
X62502372Y-58099500D01*
X62545056Y-58099500D01*
X64308315Y-58099500D01*
X64384469Y-58114648D01*
X64449029Y-58157786D01*
X66625314Y-60334071D01*
X66668452Y-60398630D01*
X66683600Y-60474784D01*
X66668453Y-60550937D01*
X66625315Y-60615498D01*
X66579953Y-60660861D01*
X66574973Y-60667973D01*
X66574969Y-60667978D01*
X66454415Y-60840148D01*
X66454410Y-60840156D01*
X66449432Y-60847266D01*
X66445762Y-60855135D01*
X66445758Y-60855143D01*
X66356934Y-61045625D01*
X66356930Y-61045635D01*
X66353261Y-61053504D01*
X66351012Y-61061896D01*
X66351011Y-61061900D01*
X66296613Y-61264916D01*
X66296611Y-61264922D01*
X66294365Y-61273308D01*
X66293608Y-61281957D01*
X66293608Y-61281959D01*
X66284578Y-61385176D01*
X66274532Y-61500000D01*
X66294365Y-61726692D01*
X66296612Y-61735079D01*
X66296613Y-61735083D01*
X66351011Y-61938099D01*
X66353261Y-61946496D01*
X66356931Y-61954368D01*
X66356934Y-61954374D01*
X66445758Y-62144856D01*
X66449432Y-62152734D01*
X66454413Y-62159848D01*
X66454415Y-62159851D01*
X66523690Y-62258786D01*
X66579953Y-62339139D01*
X66740861Y-62500047D01*
X66927266Y-62630568D01*
X67133504Y-62726739D01*
X67353308Y-62785635D01*
X67580000Y-62805468D01*
X67806692Y-62785635D01*
X68026496Y-62726739D01*
X68232734Y-62630568D01*
X68419139Y-62500047D01*
X68580047Y-62339139D01*
X68710568Y-62152734D01*
X68806739Y-61946496D01*
X68865635Y-61726692D01*
X68885468Y-61500000D01*
X68865635Y-61273308D01*
X68806739Y-61053504D01*
X68710568Y-60847266D01*
X68580047Y-60660861D01*
X68419139Y-60499953D01*
X68380383Y-60472816D01*
X68366867Y-60463352D01*
X68319024Y-60415935D01*
X68289740Y-60355273D01*
X68282371Y-60288325D01*
X68284358Y-60255494D01*
X68273919Y-60198533D01*
X68272114Y-60186668D01*
X68267037Y-60144856D01*
X68265140Y-60129228D01*
X68260869Y-60117966D01*
X68258634Y-60108898D01*
X68255865Y-60100013D01*
X68253695Y-60088169D01*
X68229940Y-60035389D01*
X68225344Y-60024294D01*
X68219412Y-60008652D01*
X68204818Y-59970170D01*
X68197980Y-59960264D01*
X68193649Y-59952011D01*
X68188816Y-59944017D01*
X68183878Y-59933044D01*
X68148182Y-59887481D01*
X68141070Y-59877816D01*
X68108183Y-59830171D01*
X68070098Y-59796431D01*
X68064853Y-59791784D01*
X68056100Y-59783544D01*
X67854021Y-59581465D01*
X67808952Y-59512066D01*
X67796008Y-59430336D01*
X67817425Y-59350407D01*
X67869501Y-59286099D01*
X67943231Y-59248532D01*
X68017925Y-59228517D01*
X68034203Y-59222593D01*
X68224603Y-59133808D01*
X68239604Y-59125147D01*
X68411696Y-59004647D01*
X68424963Y-58993514D01*
X68573514Y-58844963D01*
X68584647Y-58831696D01*
X68705147Y-58659604D01*
X68713808Y-58644603D01*
X68802593Y-58454203D01*
X68808516Y-58437928D01*
X68854139Y-58267660D01*
X68855315Y-58252729D01*
X68840586Y-58250000D01*
X67529000Y-58250000D01*
X67452846Y-58234852D01*
X67388286Y-58191714D01*
X67345148Y-58127154D01*
X67330000Y-58051000D01*
X67330000Y-56739414D01*
X67327270Y-56724684D01*
X67312339Y-56725860D01*
X67142071Y-56771483D01*
X67125796Y-56777406D01*
X66935396Y-56866191D01*
X66920395Y-56874852D01*
X66748303Y-56995352D01*
X66735036Y-57006485D01*
X66586485Y-57155036D01*
X66575352Y-57168303D01*
X66454852Y-57340395D01*
X66446191Y-57355396D01*
X66357406Y-57545796D01*
X66351481Y-57562075D01*
X66331466Y-57636771D01*
X66293899Y-57710500D01*
X66229591Y-57762574D01*
X66149662Y-57783990D01*
X66067932Y-57771045D01*
X65998534Y-57725977D01*
X65195447Y-56922890D01*
X65187207Y-56914137D01*
X65179918Y-56905909D01*
X65148829Y-56870817D01*
X65101188Y-56837932D01*
X65091521Y-56830818D01*
X65055436Y-56802547D01*
X65055428Y-56802542D01*
X65045957Y-56795122D01*
X65034978Y-56790180D01*
X65026988Y-56785351D01*
X65018734Y-56781019D01*
X65008830Y-56774182D01*
X64997582Y-56769916D01*
X64997578Y-56769914D01*
X64954710Y-56753656D01*
X64943611Y-56749058D01*
X64901808Y-56730245D01*
X64901809Y-56730245D01*
X64890832Y-56725305D01*
X64878998Y-56723136D01*
X64870113Y-56720367D01*
X64861023Y-56718126D01*
X64849772Y-56713860D01*
X64837823Y-56712409D01*
X64792326Y-56706884D01*
X64780449Y-56705076D01*
X64735345Y-56696811D01*
X64735341Y-56696810D01*
X64723506Y-56694642D01*
X64711498Y-56695368D01*
X64711492Y-56695368D01*
X64665732Y-56698137D01*
X64653716Y-56698500D01*
X63359500Y-56698500D01*
X63283346Y-56683352D01*
X63218786Y-56640214D01*
X63175648Y-56575654D01*
X63160500Y-56499500D01*
X63160500Y-54752729D01*
X66304684Y-54752729D01*
X66305860Y-54767660D01*
X66351483Y-54937928D01*
X66357406Y-54954203D01*
X66446191Y-55144603D01*
X66454852Y-55159604D01*
X66575352Y-55331696D01*
X66586485Y-55344963D01*
X66735036Y-55493514D01*
X66748303Y-55504647D01*
X66920395Y-55625147D01*
X66935396Y-55633808D01*
X67125796Y-55722593D01*
X67142071Y-55728516D01*
X67312339Y-55774139D01*
X67327270Y-55775315D01*
X67330000Y-55760586D01*
X67330000Y-54769598D01*
X67326748Y-54753251D01*
X67310402Y-54750000D01*
X66319414Y-54750000D01*
X66304684Y-54752729D01*
X63160500Y-54752729D01*
X63160500Y-54247270D01*
X66304684Y-54247270D01*
X66319414Y-54250000D01*
X67310402Y-54250000D01*
X67326748Y-54246748D01*
X67330000Y-54230402D01*
X67330000Y-53239414D01*
X67327270Y-53224684D01*
X67312339Y-53225860D01*
X67142071Y-53271483D01*
X67125796Y-53277406D01*
X66935396Y-53366191D01*
X66920395Y-53374852D01*
X66748303Y-53495352D01*
X66735036Y-53506485D01*
X66586485Y-53655036D01*
X66575352Y-53668303D01*
X66454852Y-53840395D01*
X66446191Y-53855396D01*
X66357406Y-54045796D01*
X66351483Y-54062071D01*
X66305860Y-54232339D01*
X66304684Y-54247270D01*
X63160500Y-54247270D01*
X63160500Y-45538436D01*
X63177456Y-45458056D01*
X63225434Y-45391374D01*
X63269960Y-45350782D01*
X63269961Y-45350780D01*
X63276764Y-45344579D01*
X63399673Y-45181821D01*
X63490582Y-44999250D01*
X63546397Y-44803083D01*
X63565215Y-44600000D01*
X63546397Y-44396917D01*
X63490582Y-44200750D01*
X63399673Y-44018179D01*
X63276764Y-43855421D01*
X63126041Y-43718019D01*
X62952637Y-43610652D01*
X62880192Y-43582587D01*
X62771034Y-43540299D01*
X62771032Y-43540298D01*
X62762456Y-43536976D01*
X62753421Y-43535287D01*
X62753414Y-43535285D01*
X62571014Y-43501189D01*
X62571008Y-43501188D01*
X62561976Y-43499500D01*
X62358024Y-43499500D01*
X62348992Y-43501188D01*
X62348985Y-43501189D01*
X62166585Y-43535285D01*
X62166575Y-43535287D01*
X62157544Y-43536976D01*
X62148969Y-43540297D01*
X62148965Y-43540299D01*
X61975942Y-43607328D01*
X61975937Y-43607330D01*
X61967363Y-43610652D01*
X61959542Y-43615494D01*
X61959539Y-43615496D01*
X61801785Y-43713173D01*
X61801782Y-43713174D01*
X61793959Y-43718019D01*
X61787160Y-43724216D01*
X61787156Y-43724220D01*
X61650036Y-43849221D01*
X61650030Y-43849226D01*
X61643236Y-43855421D01*
X61637690Y-43862763D01*
X61637689Y-43862766D01*
X61561348Y-43963859D01*
X61520327Y-44018179D01*
X61516227Y-44026411D01*
X61516225Y-44026416D01*
X61433518Y-44192515D01*
X61433516Y-44192519D01*
X61429418Y-44200750D01*
X61426901Y-44209593D01*
X61426900Y-44209598D01*
X61379345Y-44376736D01*
X61373603Y-44396917D01*
X61372754Y-44406075D01*
X61372753Y-44406083D01*
X61358198Y-44563171D01*
X61354785Y-44600000D01*
X61355634Y-44609162D01*
X61372753Y-44793916D01*
X61372754Y-44793922D01*
X61373603Y-44803083D01*
X61376122Y-44811936D01*
X61425102Y-44984083D01*
X61429418Y-44999250D01*
X61520327Y-45181821D01*
X61643236Y-45344579D01*
X61650032Y-45350774D01*
X61650039Y-45350782D01*
X61694566Y-45391374D01*
X61742544Y-45458056D01*
X61759500Y-45538436D01*
X61759500Y-56499500D01*
X61744352Y-56575654D01*
X61701214Y-56640214D01*
X61636654Y-56683352D01*
X61560500Y-56698500D01*
X58048173Y-56698500D01*
X58036158Y-56698137D01*
X57990407Y-56695369D01*
X57990401Y-56695369D01*
X57978394Y-56694643D01*
X57966560Y-56696811D01*
X57966551Y-56696812D01*
X57921464Y-56705074D01*
X57909589Y-56706882D01*
X57864071Y-56712409D01*
X57864065Y-56712410D01*
X57852128Y-56713860D01*
X57840881Y-56718124D01*
X57831817Y-56720359D01*
X57822900Y-56723137D01*
X57811068Y-56725306D01*
X57806062Y-56727558D01*
X57756407Y-56735628D01*
X57700898Y-56728888D01*
X57655085Y-56716613D01*
X57655075Y-56716611D01*
X57646692Y-56714365D01*
X57638042Y-56713608D01*
X57638041Y-56713608D01*
X57428653Y-56695289D01*
X57420000Y-56694532D01*
X57411347Y-56695289D01*
X57201959Y-56713608D01*
X57201957Y-56713608D01*
X57193308Y-56714365D01*
X57184922Y-56716611D01*
X57184916Y-56716613D01*
X56981900Y-56771011D01*
X56981896Y-56771012D01*
X56973504Y-56773261D01*
X56965635Y-56776930D01*
X56965625Y-56776934D01*
X56775143Y-56865758D01*
X56775135Y-56865762D01*
X56767266Y-56869432D01*
X56760156Y-56874410D01*
X56760148Y-56874415D01*
X56587978Y-56994969D01*
X56587973Y-56994973D01*
X56580861Y-56999953D01*
X56574721Y-57006092D01*
X56574715Y-57006098D01*
X56426098Y-57154715D01*
X56426092Y-57154721D01*
X56419953Y-57160861D01*
X56414973Y-57167973D01*
X56414969Y-57167978D01*
X56294415Y-57340148D01*
X56294410Y-57340156D01*
X56289432Y-57347266D01*
X56285762Y-57355135D01*
X56285758Y-57355143D01*
X56196934Y-57545625D01*
X56196930Y-57545635D01*
X56193261Y-57553504D01*
X56191012Y-57561896D01*
X56191011Y-57561900D01*
X56136613Y-57764916D01*
X56136611Y-57764922D01*
X56134365Y-57773308D01*
X56133608Y-57781957D01*
X56133608Y-57781959D01*
X56122968Y-57903579D01*
X56114532Y-58000000D01*
X53700500Y-58000000D01*
X53700500Y-54500000D01*
X56114532Y-54500000D01*
X56115289Y-54508653D01*
X56128605Y-54660861D01*
X56134365Y-54726692D01*
X56136612Y-54735079D01*
X56136613Y-54735083D01*
X56177145Y-54886351D01*
X56193261Y-54946496D01*
X56196931Y-54954368D01*
X56196934Y-54954374D01*
X56247075Y-55061900D01*
X56289432Y-55152734D01*
X56294413Y-55159848D01*
X56294415Y-55159851D01*
X56367982Y-55264916D01*
X56419953Y-55339139D01*
X56580861Y-55500047D01*
X56767266Y-55630568D01*
X56973504Y-55726739D01*
X57193308Y-55785635D01*
X57420000Y-55805468D01*
X57646692Y-55785635D01*
X57866496Y-55726739D01*
X58072734Y-55630568D01*
X58259139Y-55500047D01*
X58420047Y-55339139D01*
X58550568Y-55152734D01*
X58646739Y-54946496D01*
X58705635Y-54726692D01*
X58725468Y-54500000D01*
X58705635Y-54273308D01*
X58646739Y-54053504D01*
X58550568Y-53847266D01*
X58420047Y-53660861D01*
X58259139Y-53499953D01*
X58120082Y-53402585D01*
X58079851Y-53374415D01*
X58079848Y-53374413D01*
X58072734Y-53369432D01*
X58064859Y-53365760D01*
X58064856Y-53365758D01*
X57874374Y-53276934D01*
X57874368Y-53276931D01*
X57866496Y-53273261D01*
X57740177Y-53239414D01*
X57655083Y-53216613D01*
X57655079Y-53216612D01*
X57646692Y-53214365D01*
X57638040Y-53213608D01*
X57428653Y-53195289D01*
X57420000Y-53194532D01*
X57411347Y-53195289D01*
X57201959Y-53213608D01*
X57201957Y-53213608D01*
X57193308Y-53214365D01*
X57184922Y-53216611D01*
X57184916Y-53216613D01*
X56981900Y-53271011D01*
X56981896Y-53271012D01*
X56973504Y-53273261D01*
X56965635Y-53276930D01*
X56965625Y-53276934D01*
X56775143Y-53365758D01*
X56775135Y-53365762D01*
X56767266Y-53369432D01*
X56760156Y-53374410D01*
X56760148Y-53374415D01*
X56587978Y-53494969D01*
X56587973Y-53494973D01*
X56580861Y-53499953D01*
X56574721Y-53506092D01*
X56574715Y-53506098D01*
X56426098Y-53654715D01*
X56426092Y-53654721D01*
X56419953Y-53660861D01*
X56414973Y-53667973D01*
X56414969Y-53667978D01*
X56294415Y-53840148D01*
X56294410Y-53840156D01*
X56289432Y-53847266D01*
X56285762Y-53855135D01*
X56285758Y-53855143D01*
X56196934Y-54045625D01*
X56196930Y-54045635D01*
X56193261Y-54053504D01*
X56191012Y-54061896D01*
X56191011Y-54061900D01*
X56136613Y-54264916D01*
X56136611Y-54264922D01*
X56134365Y-54273308D01*
X56133608Y-54281957D01*
X56133608Y-54281959D01*
X56115891Y-54484469D01*
X56114532Y-54500000D01*
X53700500Y-54500000D01*
X53700500Y-53057173D01*
X53700863Y-53045158D01*
X53703630Y-52999409D01*
X53704357Y-52987394D01*
X53693922Y-52930454D01*
X53692116Y-52918584D01*
X53691370Y-52912443D01*
X53685140Y-52861128D01*
X53680870Y-52849871D01*
X53678641Y-52840825D01*
X53675864Y-52831915D01*
X53673694Y-52820068D01*
X53649938Y-52767287D01*
X53645355Y-52756223D01*
X53624818Y-52702070D01*
X53617974Y-52692155D01*
X53613646Y-52683910D01*
X53608818Y-52675923D01*
X53603877Y-52664943D01*
X53568185Y-52619385D01*
X53561063Y-52609705D01*
X53535021Y-52571977D01*
X53535019Y-52571974D01*
X53528183Y-52562071D01*
X53484845Y-52523677D01*
X53476108Y-52515451D01*
X50271912Y-49311255D01*
X50225627Y-49238603D01*
X50214383Y-49153199D01*
X50225162Y-49030000D01*
X50206549Y-48817253D01*
X50151276Y-48610970D01*
X50061021Y-48417419D01*
X49938529Y-48242481D01*
X49787519Y-48091471D01*
X49780401Y-48086487D01*
X49773743Y-48080900D01*
X49774773Y-48079672D01*
X49739889Y-48045796D01*
X49710604Y-47989550D01*
X49700500Y-47926947D01*
X49700500Y-47593053D01*
X49710604Y-47530450D01*
X49739889Y-47474204D01*
X49774773Y-47440327D01*
X49773743Y-47439100D01*
X49780399Y-47433514D01*
X49787519Y-47428529D01*
X49938529Y-47277519D01*
X50061021Y-47102581D01*
X50151276Y-46909030D01*
X50206549Y-46702747D01*
X50223693Y-46506784D01*
X50224287Y-46500000D01*
X58814785Y-46500000D01*
X58815634Y-46509162D01*
X58832753Y-46693916D01*
X58832754Y-46693922D01*
X58833603Y-46703083D01*
X58849238Y-46758035D01*
X58885349Y-46884951D01*
X58889418Y-46899250D01*
X58980327Y-47081821D01*
X59103236Y-47244579D01*
X59253959Y-47381981D01*
X59427363Y-47489348D01*
X59617544Y-47563024D01*
X59818024Y-47600500D01*
X60012779Y-47600500D01*
X60021976Y-47600500D01*
X60222456Y-47563024D01*
X60412637Y-47489348D01*
X60586041Y-47381981D01*
X60736764Y-47244579D01*
X60859673Y-47081821D01*
X60950582Y-46899250D01*
X61006397Y-46703083D01*
X61025215Y-46500000D01*
X61006397Y-46296917D01*
X60950582Y-46100750D01*
X60859673Y-45918179D01*
X60736764Y-45755421D01*
X60586041Y-45618019D01*
X60412637Y-45510652D01*
X60379490Y-45497811D01*
X60231034Y-45440299D01*
X60231032Y-45440298D01*
X60222456Y-45436976D01*
X60213421Y-45435287D01*
X60213414Y-45435285D01*
X60031014Y-45401189D01*
X60031008Y-45401188D01*
X60021976Y-45399500D01*
X59818024Y-45399500D01*
X59808992Y-45401188D01*
X59808985Y-45401189D01*
X59626585Y-45435285D01*
X59626575Y-45435287D01*
X59617544Y-45436976D01*
X59608969Y-45440297D01*
X59608965Y-45440299D01*
X59435942Y-45507328D01*
X59435937Y-45507330D01*
X59427363Y-45510652D01*
X59419542Y-45515494D01*
X59419539Y-45515496D01*
X59261785Y-45613173D01*
X59261782Y-45613174D01*
X59253959Y-45618019D01*
X59247160Y-45624216D01*
X59247156Y-45624220D01*
X59110036Y-45749221D01*
X59110030Y-45749226D01*
X59103236Y-45755421D01*
X59097690Y-45762763D01*
X59097689Y-45762766D01*
X59005164Y-45885290D01*
X58980327Y-45918179D01*
X58976227Y-45926411D01*
X58976225Y-45926416D01*
X58893518Y-46092515D01*
X58893516Y-46092519D01*
X58889418Y-46100750D01*
X58886901Y-46109593D01*
X58886900Y-46109598D01*
X58836122Y-46288063D01*
X58833603Y-46296917D01*
X58832754Y-46306075D01*
X58832753Y-46306083D01*
X58821578Y-46426692D01*
X58814785Y-46500000D01*
X50224287Y-46500000D01*
X50224405Y-46498653D01*
X50225162Y-46490000D01*
X50206549Y-46277253D01*
X50151276Y-46070970D01*
X50061021Y-45877419D01*
X49938529Y-45702481D01*
X49787519Y-45551471D01*
X49700097Y-45490258D01*
X49619695Y-45433960D01*
X49619693Y-45433958D01*
X49612581Y-45428979D01*
X49604707Y-45425307D01*
X49604705Y-45425306D01*
X49550606Y-45400079D01*
X49489959Y-45356286D01*
X49449767Y-45293196D01*
X49435707Y-45219723D01*
X49449767Y-45146251D01*
X49489960Y-45083161D01*
X49550607Y-45039368D01*
X49604462Y-45014255D01*
X49619446Y-45005604D01*
X49650179Y-44984083D01*
X49662108Y-44971066D01*
X49652619Y-44956172D01*
X49013859Y-44317412D01*
X49000000Y-44308151D01*
X48986140Y-44317412D01*
X48347379Y-44956172D01*
X48337890Y-44971066D01*
X48349818Y-44984083D01*
X48380548Y-45005600D01*
X48395549Y-45014261D01*
X48449393Y-45039369D01*
X48510039Y-45083162D01*
X48550232Y-45146252D01*
X48564292Y-45219723D01*
X48550233Y-45293195D01*
X48510040Y-45356285D01*
X48449394Y-45400079D01*
X48395290Y-45425308D01*
X48395284Y-45425311D01*
X48387419Y-45428979D01*
X48380311Y-45433955D01*
X48380304Y-45433960D01*
X48219598Y-45546487D01*
X48219593Y-45546490D01*
X48212481Y-45551471D01*
X48206341Y-45557610D01*
X48206335Y-45557616D01*
X48067616Y-45696335D01*
X48067610Y-45696341D01*
X48061471Y-45702481D01*
X48056490Y-45709593D01*
X48056487Y-45709598D01*
X47943960Y-45870304D01*
X47943955Y-45870311D01*
X47938979Y-45877419D01*
X47935311Y-45885284D01*
X47935308Y-45885290D01*
X47860105Y-46046563D01*
X47848724Y-46070970D01*
X47846477Y-46079353D01*
X47846476Y-46079358D01*
X47795699Y-46268861D01*
X47795697Y-46268867D01*
X47793451Y-46277253D01*
X47792694Y-46285902D01*
X47792694Y-46285904D01*
X47790929Y-46306083D01*
X47774838Y-46490000D01*
X47775595Y-46498653D01*
X47775778Y-46500750D01*
X47793451Y-46702747D01*
X47795698Y-46711134D01*
X47795699Y-46711138D01*
X47846103Y-46899250D01*
X47848724Y-46909030D01*
X47852393Y-46916898D01*
X47932720Y-47089160D01*
X47938979Y-47102581D01*
X47943958Y-47109693D01*
X47943960Y-47109695D01*
X48002921Y-47193901D01*
X48061471Y-47277519D01*
X48212481Y-47428529D01*
X48219598Y-47433512D01*
X48226257Y-47439100D01*
X48225226Y-47440327D01*
X48260111Y-47474204D01*
X48289396Y-47530450D01*
X48299500Y-47593053D01*
X48299500Y-47926947D01*
X48289396Y-47989550D01*
X48260111Y-48045796D01*
X48225226Y-48079672D01*
X48226257Y-48080900D01*
X48219596Y-48086489D01*
X48212481Y-48091471D01*
X48206341Y-48097610D01*
X48206335Y-48097616D01*
X48067616Y-48236335D01*
X48067610Y-48236341D01*
X48061471Y-48242481D01*
X48056490Y-48249593D01*
X48056487Y-48249598D01*
X47943960Y-48410304D01*
X47943955Y-48410311D01*
X47938979Y-48417419D01*
X47935311Y-48425284D01*
X47935308Y-48425290D01*
X47852393Y-48603101D01*
X47848724Y-48610970D01*
X47846477Y-48619353D01*
X47846476Y-48619358D01*
X47795699Y-48808861D01*
X47795697Y-48808867D01*
X47793451Y-48817253D01*
X47774838Y-49030000D01*
X44500000Y-49030000D01*
X44500000Y-43958653D01*
X47776097Y-43958653D01*
X47793188Y-44154008D01*
X47796193Y-44171051D01*
X47846946Y-44360461D01*
X47852869Y-44376736D01*
X47935739Y-44554452D01*
X47944396Y-44569447D01*
X47965915Y-44600180D01*
X47978932Y-44612108D01*
X47993826Y-44602619D01*
X48632587Y-43963859D01*
X48641848Y-43950000D01*
X49358151Y-43950000D01*
X49367412Y-43963859D01*
X50006172Y-44602619D01*
X50021066Y-44612108D01*
X50034083Y-44600179D01*
X50055604Y-44569446D01*
X50064258Y-44554457D01*
X50147130Y-44376736D01*
X50153053Y-44360461D01*
X50203806Y-44171051D01*
X50206811Y-44154008D01*
X50223903Y-43958653D01*
X50223903Y-43941347D01*
X50206811Y-43745991D01*
X50203806Y-43728948D01*
X50153053Y-43539538D01*
X50147130Y-43523263D01*
X50064261Y-43345549D01*
X50055600Y-43330548D01*
X50034083Y-43299818D01*
X50021066Y-43287890D01*
X50006172Y-43297379D01*
X49367412Y-43936140D01*
X49358151Y-43950000D01*
X48641848Y-43950000D01*
X48632587Y-43936140D01*
X47993827Y-43297380D01*
X47978932Y-43287891D01*
X47965916Y-43299818D01*
X47944397Y-43330550D01*
X47935738Y-43345550D01*
X47852869Y-43523263D01*
X47846946Y-43539538D01*
X47796193Y-43728948D01*
X47793188Y-43745991D01*
X47776097Y-43941347D01*
X47776097Y-43958653D01*
X44500000Y-43958653D01*
X44500000Y-42928932D01*
X48337891Y-42928932D01*
X48347380Y-42943827D01*
X48986140Y-43582587D01*
X48999999Y-43591848D01*
X49013859Y-43582587D01*
X49652619Y-42943826D01*
X49662108Y-42928932D01*
X49650180Y-42915915D01*
X49619447Y-42894396D01*
X49604452Y-42885739D01*
X49426736Y-42802869D01*
X49410461Y-42796946D01*
X49221051Y-42746193D01*
X49204008Y-42743188D01*
X49008653Y-42726097D01*
X48991347Y-42726097D01*
X48795991Y-42743188D01*
X48778948Y-42746193D01*
X48589538Y-42796946D01*
X48573263Y-42802869D01*
X48395550Y-42885738D01*
X48380550Y-42894397D01*
X48349818Y-42915916D01*
X48337891Y-42928932D01*
X44500000Y-42928932D01*
X44500000Y-40699000D01*
X44515148Y-40622846D01*
X44558286Y-40558286D01*
X44622846Y-40515148D01*
X44699000Y-40500000D01*
X112801000Y-40500000D01*
X112877154Y-40515148D01*
G37*
%TD.AperFunction*%
%TD*%
M02*
